<?xml version="1.0" standalone="no"?>
<!DOCTYPE svg PUBLIC "-//W3C//DTD SVG 20010904//EN"
 "http://www.w3.org/TR/2001/REC-SVG-20010904/DTD/svg10.dtd">
<svg version="1.0" xmlns="http://www.w3.org/2000/svg"
 width="295.000000pt" height="295.000000pt" viewBox="0 0 295.000000 295.000000"
 preserveAspectRatio="xMidYMid meet">
<metadata>
Created by potrace 1.11, written by Peter Selinger 2001-2013
</metadata>
<g transform="translate(0.000000,295.000000) scale(0.100000,-0.100000)"
fill="#000000" stroke="none">
<path d="M1468 2945 c-2 -1 -48 -5 -103 -8 -55 -4 -111 -9 -125 -12 -14 -3
-38 -8 -55 -10 -43 -8 -173 -45 -220 -62 -139 -53 -336 -166 -430 -248 -221
-190 -374 -416 -459 -677 -34 -105 -38 -119 -60 -266 -15 -97 -13 -317 3 -417
94 -567 495 -1023 1041 -1185 82 -25 87 -26 215 -45 80 -12 333 -13 400 -2 11
2 40 7 65 11 282 48 560 196 775 411 218 218 348 470 410 794 27 141 23 395
-8 536 -67 301 -220 574 -437 777 -182 173 -411 298 -650 357 -93 23 -118 27
-230 36 -41 4 -87 8 -102 10 -15 1 -29 1 -30 0z"/>
</g>
</svg>
