<svg fill="#013D5E" height="512pt" viewBox="-1 0 512 512.001" width="512pt" xmlns="http://www.w3.org/2000/svg"><path d="M119.766 204.602c0 46.777 38.054 84.832 84.832 84.832 11.027 0 19.96 8.937 19.96 19.96 0 11.028-8.933 19.961-19.96 19.961-68.79 0-124.754-55.964-124.754-124.753 0-68.793 55.965-124.758 124.754-124.758 68.793 0 124.757 55.965 124.757 124.758 0 11.023-8.937 19.96-19.96 19.96-11.024 0-19.961-8.937-19.961-19.96 0-46.778-38.059-84.836-84.836-84.836s-84.832 38.058-84.832 84.836zm15.683 176.55c-51.222-56.09-95.457-104.535-95.527-176.746.105-90.695 73.98-164.484 164.676-164.484 90.699 0 164.57 73.789 164.675 164.484.016 11.02 8.95 19.942 19.961 19.938h.024c11.023-.012 19.953-8.961 19.937-19.985-.062-54.601-21.37-105.922-60.004-144.511C310.56 21.254 259.207 0 204.598 0 149.992 0 98.64 21.254 60.004 59.848 21.375 98.438.063 149.758 0 204.402.04 244.18 11.086 281.5 33.777 318.496c19.645 32.035 45.168 59.984 72.192 89.578 26.492 29.016 53.89 59.016 75.77 93.633 3.796 6.008 10.269 9.297 16.89 9.297 3.648 0 7.336-.996 10.648-3.09 9.317-5.89 12.098-18.219 6.207-27.539-23.765-37.598-52.37-68.926-80.035-99.223zm370.32 9.578a19.9 19.9 0 01-14.734 6.493 19.888 19.888 0 01-13.465-5.227l-2.5-2.285v66.05c0 31.012-25.21 56.239-56.195 56.239H306.703c-30.984 0-56.195-25.227-56.195-56.238v-65.137l-1.5 1.371c-8.137 7.442-20.762 6.875-28.203-1.262-7.438-8.136-6.871-20.765 1.265-28.203l103.028-94.195c21.773-19.902 54.609-19.902 76.379 0l66.011 60.355c.73.579 1.418 1.207 2.059 1.88l34.96 31.96c8.138 7.438 8.704 20.067 1.263 28.2zm-70.62-37.52l-60.61-55.41c-6.414-5.863-16.086-5.863-22.5 0l-61.61 56.321v101.64c0 8.997 7.301 16.317 16.278 16.317h112.168c8.973 0 16.273-7.32 16.273-16.316zm0 0"/></svg>