<svg xmlns="http://www.w3.org/2000/svg" viewBox="0 0 511.999 511.999" width="512" height="512"><path d="M357.237 0H154.763c-28.164 0-51.077 22.913-51.077 51.077v409.846c0 28.163 22.913 51.076 51.077 51.076h202.475c28.163 0 51.076-22.913 51.076-51.076V51.077C408.313 22.913 385.401 0 357.237 0zM133.689 51.077c0-11.619 9.453-21.072 21.072-21.072h202.475c11.619 0 21.071 9.453 21.071 21.072v358.819c0 10.143-8.251 18.394-18.393 18.394H152.083c-10.143 0-18.394-8.251-18.394-18.394V51.077zm244.622 409.847c-.002 11.619-9.455 21.071-21.073 21.071H154.763c-11.62 0-21.072-9.452-21.072-21.071v-6.27a48.14 48.14 0 0018.394 3.641h207.833c6.509 0 12.718-1.3 18.393-3.641v6.27z" data-original="#000000" class="active-path" data-old_color="#000000" fill="#BDBDBD"/><path d="M357.199 134.936a15.389 15.389 0 00-.075-.832 16.794 16.794 0 00-.081-.627c-.022-.138-.038-.278-.063-.415-.023-.122-.057-.238-.083-.358a14.459 14.459 0 00-.157-.678c-.033-.125-.06-.251-.095-.374-.039-.135-.087-.266-.13-.399a14.718 14.718 0 00-.22-.642c-.039-.105-.073-.211-.114-.315-.059-.15-.126-.294-.19-.442a13.686 13.686 0 00-.272-.592c-.044-.091-.084-.185-.13-.275-.083-.161-.173-.317-.261-.475a15.176 15.176 0 00-.302-.519c-.053-.087-.102-.176-.157-.261-.109-.17-.226-.333-.342-.498-.102-.145-.203-.29-.311-.433-.064-.086-.126-.173-.192-.258-.137-.174-.285-.339-.429-.508-.073-.085-.135-.175-.21-.258-.033-.037-.071-.068-.104-.105-.072-.079-.143-.158-.217-.236-.156-.163-.323-.315-.486-.471-.12-.114-.235-.235-.358-.345a19.546 19.546 0 00-.216-.19c-.163-.14-.336-.268-.505-.402-.146-.115-.288-.238-.438-.347l-.201-.143c-.172-.121-.353-.229-.531-.343-.171-.109-.337-.226-.511-.328a9.925 9.925 0 00-.175-.1c-.193-.11-.394-.205-.592-.307-.184-.094-.364-.194-.551-.279l-.14-.065c-.224-.1-.455-.184-.684-.273-.187-.073-.372-.15-.561-.215-.038-.013-.073-.029-.11-.042-.245-.082-.496-.146-.746-.216-.176-.049-.351-.102-.529-.145a15.008 15.008 0 00-.879-.175c-.188-.033-.374-.069-.562-.095a14.957 14.957 0 00-.825-.083c-.22-.018-.44-.037-.66-.045a14.914 14.914 0 00-.819-.004 14.44 14.44 0 00-.625.019c-.137.008-.275.009-.412.021l-56.789 4.772c-8.256.693-14.387 7.949-13.693 16.206.658 7.829 7.215 13.747 14.933 13.747.42 0 .846-.018 1.272-.054l12.361-1.038-89.8 80.783-22.157-31.847c-4.731-6.8-14.082-8.48-20.883-3.748-6.802 4.732-8.479 14.082-3.748 20.883l31.871 45.807c.026.037.056.067.082.104.323.454.668.897 1.047 1.322.09.101.189.19.281.288.32.339.646.669.989.972.168.149.348.279.522.419.278.224.555.446.845.647.185.128.375.242.565.362.299.188.599.37.908.535.19.102.383.195.577.288a15.184 15.184 0 001.562.648c.346.12.696.224 1.049.318.191.051.379.106.571.149.38.086.762.149 1.146.205.171.025.34.06.511.079.53.059 1.063.092 1.596.094.024 0 .048.004.072.004.418 0 .836-.022 1.254-.057.102-.009.203-.023.304-.034.314-.033.627-.073.94-.126.131-.022.261-.048.391-.074.284-.056.566-.12.847-.193.138-.035.276-.071.413-.11.277-.08.552-.171.825-.268.131-.046.264-.088.394-.138a14.82 14.82 0 001.352-.603c.308-.155.613-.318.913-.497.151-.09.297-.19.445-.285.158-.101.319-.195.474-.303.053-.037.098-.079.15-.116.232-.166.456-.345.68-.526.173-.139.35-.276.515-.422.039-.034.081-.063.12-.098l100.562-90.464-2.087 9.247c-1.824 8.082 3.248 16.112 11.331 17.938 1.112.251 2.223.371 3.317.371 6.857 0 13.047-4.732 14.62-11.702l12.462-55.21c.05-.218.081-.441.121-.663.037-.208.077-.416.106-.626.035-.259.057-.521.079-.784.019-.227.039-.454.048-.682.011-.275.009-.548.004-.822-.003-.21-.007-.417-.019-.625zm-16.194 165.52H171.457c-8.285 0-15.002 6.717-15.002 15.002s6.717 15.002 15.002 15.002h169.548c8.285 0 15.002-6.717 15.002-15.002s-6.717-15.002-15.002-15.002zm0 50.931h-66.572c-8.285 0-15.002 6.717-15.002 15.002s6.717 15.002 15.002 15.002h66.572c8.285 0 15.002-6.717 15.002-15.002s-6.717-15.002-15.002-15.002z" data-original="#000000" class="active-path" data-old_color="#000000" fill="#BDBDBD"/></svg>