<?xml version="1.0"?>
<svg xmlns="http://www.w3.org/2000/svg" xmlns:xlink="http://www.w3.org/1999/xlink" version="1.1" id="Capa_1" x="0px" y="0px" viewBox="0 0 511.999 511.999" style="enable-background:new 0 0 511.999 511.999;" xml:space="preserve" width="512px" height="512px" class=""><g><g>
	<g>
		<path d="M357.237,0H154.763c-28.164,0-51.077,22.913-51.077,51.077v409.846c0,28.163,22.913,51.076,51.077,51.076h202.475    c28.163,0,51.076-22.913,51.076-51.076V51.077C408.313,22.913,385.401,0,357.237,0z M133.689,51.077    c0-11.619,9.453-21.072,21.072-21.072h202.475c11.619,0,21.071,9.453,21.071,21.072v358.819c0,10.143-8.251,18.394-18.393,18.394    H152.083c-10.143,0-18.394-8.251-18.394-18.394V51.077z M378.311,460.924c-0.002,11.619-9.455,21.071-21.073,21.071H154.763    c-11.62,0-21.072-9.452-21.072-21.071v-6.27c5.675,2.34,11.884,3.641,18.394,3.641h207.833c6.509,0,12.718-1.3,18.393-3.641    V460.924z" data-original="#000000" class="active-path" data-old_color="#000000" fill="#BDBDBD"/>
	</g>
</g><g>
	<g>
		<path d="M357.199,134.936c-0.016-0.279-0.044-0.555-0.075-0.832c-0.024-0.209-0.049-0.418-0.081-0.627    c-0.022-0.138-0.038-0.278-0.063-0.415c-0.023-0.122-0.057-0.238-0.083-0.358c-0.048-0.227-0.098-0.453-0.157-0.678    c-0.033-0.125-0.06-0.251-0.095-0.374c-0.039-0.135-0.087-0.266-0.13-0.399c-0.069-0.216-0.141-0.429-0.22-0.642    c-0.039-0.105-0.073-0.211-0.114-0.315c-0.059-0.15-0.126-0.294-0.19-0.442c-0.086-0.199-0.176-0.396-0.272-0.592    c-0.044-0.091-0.084-0.185-0.13-0.275c-0.083-0.161-0.173-0.317-0.261-0.475c-0.097-0.174-0.197-0.347-0.302-0.519    c-0.053-0.087-0.102-0.176-0.157-0.261c-0.109-0.17-0.226-0.333-0.342-0.498c-0.102-0.145-0.203-0.29-0.311-0.433    c-0.064-0.086-0.126-0.173-0.192-0.258c-0.137-0.174-0.285-0.339-0.429-0.508c-0.073-0.085-0.135-0.175-0.21-0.258    c-0.033-0.037-0.071-0.068-0.104-0.105c-0.072-0.079-0.143-0.158-0.217-0.236c-0.156-0.163-0.323-0.315-0.486-0.471    c-0.12-0.114-0.235-0.235-0.358-0.345c-0.072-0.064-0.143-0.127-0.216-0.19c-0.163-0.14-0.336-0.268-0.505-0.402    c-0.146-0.115-0.288-0.238-0.438-0.347c-0.066-0.048-0.134-0.095-0.201-0.143c-0.172-0.121-0.353-0.229-0.531-0.343    c-0.171-0.109-0.337-0.226-0.511-0.328c-0.058-0.034-0.116-0.067-0.175-0.1c-0.193-0.11-0.394-0.205-0.592-0.307    c-0.184-0.094-0.364-0.194-0.551-0.279c-0.047-0.021-0.093-0.044-0.14-0.065c-0.224-0.1-0.455-0.184-0.684-0.273    c-0.187-0.073-0.372-0.15-0.561-0.215c-0.038-0.013-0.073-0.029-0.11-0.042c-0.245-0.082-0.496-0.146-0.746-0.216    c-0.176-0.049-0.351-0.102-0.529-0.145c-0.289-0.069-0.584-0.123-0.879-0.175c-0.188-0.033-0.374-0.069-0.562-0.095    c-0.273-0.037-0.548-0.061-0.825-0.083c-0.22-0.018-0.44-0.037-0.66-0.045c-0.274-0.011-0.546-0.008-0.819-0.004    c-0.209,0.003-0.417,0.007-0.625,0.019c-0.137,0.008-0.275,0.009-0.412,0.021l-56.789,4.772    c-8.256,0.693-14.387,7.949-13.693,16.206c0.658,7.829,7.215,13.747,14.933,13.747c0.42,0,0.846-0.018,1.272-0.054l12.361-1.038    l-89.8,80.783l-22.157-31.847c-4.731-6.8-14.082-8.48-20.883-3.748c-6.802,4.732-8.479,14.082-3.748,20.883l31.871,45.807    c0.026,0.037,0.056,0.067,0.082,0.104c0.323,0.454,0.668,0.897,1.047,1.322c0.09,0.101,0.189,0.19,0.281,0.288    c0.32,0.339,0.646,0.669,0.989,0.972c0.168,0.149,0.348,0.279,0.522,0.419c0.278,0.224,0.555,0.446,0.845,0.647    c0.185,0.128,0.375,0.242,0.565,0.362c0.299,0.188,0.599,0.37,0.908,0.535c0.19,0.102,0.383,0.195,0.577,0.288    c0.323,0.155,0.65,0.299,0.981,0.43c0.193,0.076,0.385,0.15,0.581,0.218c0.346,0.12,0.696,0.224,1.049,0.318    c0.191,0.051,0.379,0.106,0.571,0.149c0.38,0.086,0.762,0.149,1.146,0.205c0.171,0.025,0.34,0.06,0.511,0.079    c0.53,0.059,1.063,0.092,1.596,0.094c0.024,0,0.048,0.004,0.072,0.004c0.418,0,0.836-0.022,1.254-0.057    c0.102-0.009,0.203-0.023,0.304-0.034c0.314-0.033,0.627-0.073,0.94-0.126c0.131-0.022,0.261-0.048,0.391-0.074    c0.284-0.056,0.566-0.12,0.847-0.193c0.138-0.035,0.276-0.071,0.413-0.11c0.277-0.08,0.552-0.171,0.825-0.268    c0.131-0.046,0.264-0.088,0.394-0.138c0.328-0.126,0.653-0.268,0.975-0.419c0.126-0.059,0.252-0.121,0.377-0.184    c0.308-0.155,0.613-0.318,0.913-0.497c0.151-0.09,0.297-0.19,0.445-0.285c0.158-0.101,0.319-0.195,0.474-0.303    c0.053-0.037,0.098-0.079,0.15-0.116c0.232-0.166,0.456-0.345,0.68-0.526c0.173-0.139,0.35-0.276,0.515-0.422    c0.039-0.034,0.081-0.063,0.12-0.098l100.562-90.464l-2.087,9.247c-1.824,8.082,3.248,16.112,11.331,17.938    c1.112,0.251,2.223,0.371,3.317,0.371c6.857,0,13.047-4.732,14.62-11.702l12.462-55.21c0.05-0.218,0.081-0.441,0.121-0.663    c0.037-0.208,0.077-0.416,0.106-0.626c0.035-0.259,0.057-0.521,0.079-0.784c0.019-0.227,0.039-0.454,0.048-0.682    c0.011-0.275,0.009-0.548,0.004-0.822C357.215,135.351,357.211,135.144,357.199,134.936z" data-original="#000000" class="active-path" data-old_color="#000000" fill="#BDBDBD"/>
	</g>
</g><g>
	<g>
		<path d="M341.005,300.456H171.457c-8.285,0-15.002,6.717-15.002,15.002c0,8.285,6.717,15.002,15.002,15.002h169.548    c8.285,0,15.002-6.717,15.002-15.002C356.007,307.173,349.29,300.456,341.005,300.456z" data-original="#000000" class="active-path" data-old_color="#000000" fill="#BDBDBD"/>
	</g>
</g><g>
	<g>
		<path d="M341.005,351.387h-66.572c-8.285,0-15.002,6.717-15.002,15.002c0,8.285,6.717,15.002,15.002,15.002h66.572    c8.285,0,15.002-6.717,15.002-15.002C356.007,358.104,349.29,351.387,341.005,351.387z" data-original="#000000" class="active-path" data-old_color="#000000" fill="#BDBDBD"/>
	</g>
</g></g> </svg>
