<svg width="4056" height="2698" fill="none" xmlns="http://www.w3.org/2000/svg"><path d="M3292.37 1868.62c-100.25-102.12-98.72-266.16 3.42-366.4 102.14-100.24 266.2-98.71 366.45 3.42 100.25 102.12 98.72 266.17-3.42 366.39-102.13 100.24-266.19 98.71-366.45-3.41zm611.65 74.96c24.16-40.12 42.13-82.96 53.98-127.1l95.54-18.3.99-105.67.98-105.67-95.18-20.08c-11.02-44.36-28.2-87.52-51.6-128.09l54.57-80.43-74.04-75.41-74.02-75.42-81.45 53.06c-40.13-24.16-82.97-42.13-127.11-53.97l-18.32-95.53-105.67-.99-105.68-.98-20.09 95.17c-44.36 11.02-87.52 28.19-128.1 51.59l-80.44-54.56-75.43 74.02-75.42 74.02 53.07 81.44c-24.17 40.12-42.15 82.95-53.98 127.1l-95.55 18.31-.98 105.66-.99 105.66 95.19 20.08c11.01 44.36 28.19 87.52 51.6 128.1l-54.57 80.42 74.02 75.42 74.03 75.42 81.45-53.06c40.14 24.15 82.97 42.13 127.12 53.97l18.31 95.53 105.68.99 105.68.98 20.08-95.18c44.36-11 87.53-28.18 128.1-51.59l80.44 54.58 75.43-74.03 75.42-74.02-53.06-81.44" fill="url(#paint0_linear)"/><path d="M934.26 1081.41c-82.263-68.2-93.64-190.176-25.428-272.421 68.219-82.253 190.198-93.637 272.458-25.426 82.27 68.203 93.65 190.178 25.44 272.427-68.22 82.24-190.21 93.63-272.47 25.42zm460.06 9.01c14.88-31.65 24.96-64.84 30.39-98.533L1494.28 971l-7.33-78.56-7.33-78.569-72.24-7.654c-11.57-32.113-27.62-62.855-48.11-91.209l34.41-63.905-60.76-50.372-60.74-50.371-56.44 45.631c-31.66-14.889-64.85-24.969-98.55-30.391l-20.89-69.566-78.58 7.332-78.576 7.331-7.647 72.233c-32.118 11.563-62.872 27.612-91.221 48.095l-63.913-34.39-50.385 60.736-50.371 60.737 45.629 56.438c-14.882 31.657-24.964 64.841-30.387 98.542l-69.575 20.887 7.326 78.561 7.34 78.564 72.234 7.66c11.572 32.1 27.623 62.85 48.108 91.2l-34.401 63.91 60.751 50.37 60.744 50.37 56.445-45.63c31.661 14.89 64.849 24.97 98.547 30.4l20.892 69.56 78.58-7.33 78.57-7.33 7.65-72.23c32.12-11.57 62.86-27.62 91.22-48.11l63.91 34.4 50.38-60.74 50.38-60.74-45.63-56.44" fill="url(#paint1_linear)"/><path d="M3726.05 2679.45h-6.62v-470.81c0-104.76-85.24-189.98-190.01-189.98h-484.46c-108.43 0-196.64-88.2-196.64-196.61V942.009c0-104.758-85.23-189.976-190-189.976h-1235.3v-6.628h1235.3c108.42 0 196.63 88.199 196.63 196.604v880.041c0 104.75 85.23 189.99 190.01 189.99h484.46c108.43 0 196.63 88.19 196.63 196.6v470.81" fill="#64A4FF"/><path d="M1739.65 447.207s74.76 297.677-104.74 379.054c-179.51 81.369-145.12-67.627-145.12-67.627s-73.63-20.452 126.74-134.04c94.45-53.532 123.12-177.387 123.12-177.387" fill="#BBD070"/><path d="M2209.76 473.182s36.79 259.475-302.92 371.639c-339.74 112.157-388.11 254.439-388.11 254.439s-10.16-575.107 691.03-626.078" fill="#97A43C"/><path d="M1517.21 993.583c-100.73-38.441 138.71-244.579 322.72-239.015 184.02 5.572 308.72 73.663 431.98 44.89 0 0-258.65 383.432-754.7 194.125z" fill="#48753A"/><path d="M1038.45 1496.49c1.06-73.23 98.57-209.42 98.57-209.42s4.51-1.92 4.58-1.73c.06.07 5.03-.69 5.03-.62.1 0 15.15-14.35 15.25-14.35 3.58 13.02 35.88 196.96 43.8 304.04-91.58-17.99-167.76-43-167.23-77.92zm817.21-330.68c5.79-78.25 9.83-151.44 12.12-219.692-18.89-10.005-41.58-21.696-59.75-30.316-56.22-26.766-134.55-62.811-184.82-85.87-29.42-13.517-58.25-23.396-58.25-23.396s-200.89-19.247-217.2-18.221c-5.14.3-30.25 9.047-63.19 21.606-71.24 27.029-208.58 82.066-230.45 97.771-32.07 22.954-146.822 585.388-149.871 623.578-2.973 37.1 156.071 87.87 303.351 126.76-.1 57.02-1.26 136.9-2.55 209.82-.2 12.46-.43 24.68-.67 36.54h644.47c-.86-12.52-1.61-24.88-2.24-36.54-.07-1.56-.17-3.08-.23-4.61-2.46-49.39-12.06-137.85-9.61-224 0 0-1.56-90.81 7.45-129.9.99-172.61 11.44-343.53 11.44-343.53" fill="#DBD8E3"/><path d="M1867.58 1867.85c-4.24-30.51-8.25-61-11.87-90.85 0-.16-.06-.26-.06-.43-1.17-9.94-2.36-19.74-3.48-29.51-.07-.48-.1-1-.17-1.56-4.71-41.11-8.61-80.55-11.43-116.65-2.11-27.67-.2-54.7 3.61-81.14 11.2-184.64 16.78-379.31 16.78-379.31 5.89-79.68 9.27-154.16 11.52-223.57 0 0-252.25-119.204-275.12-126.034 0 0 47.85 112.352 83.74 363.444 13.78 96.45 39.33 258.79 57.88 424.48v.03c10.04 89.42 28.86 180.49 43.17 261.1 2.19 12.46 4.28 24.65 6.2 36.54h84.43c-1.8-12.15-3.51-24.34-5.2-36.54m-723.46-437.87c-2.22-84.02-1.83-142.64-1.83-142.64 8.32 28.79 19.82 111.05 29.95 192.81-34.09-17.16-27.69-33.2-28.12-50.17zm303.48 141.28c9.94-93.36 18.89-186.53 14.57-237.57-34.79-410.428-133.23-519.065-147.51-534.971-11.04 4.208-53.05 19.981-65.35 24.848-67.32 26.542-204.56 75.176-223.06 88.462-32.069 22.961-158.516 612.591-162.328 650.721-2.554 25.78 162.468 79.64 330.818 127.72-1.56 46.15 2.81 111.25-12.53 179.23-2.68 12.06-6.65 19.67-7.27 35.62l234.68-.92c1.43-12.13 2.92-24.29 4.41-36.55 4.47-36.68 9.14-74.24 13.78-114.17 70.38 18.22 118.23 29.95 118.23 29.95s66.11-111.75 85.29-157c3.28-7.72-81.82-28.16-183.73-55.37" fill="#323657"/><path d="M1337.22 794.749s25.55-48.275 18.49-185.333c-1.95-37.97 199.47 90.049 199.47 90.049s-.69 13.083-1.13 30.742a798.67 798.67 0 00-.36 23.689c0 2.284.03 4.568.03 6.86.04 3.744.07 7.451.14 11.166.1 4.606.27 9.107.49 13.45.23 4.936.56 9.601 1.04 13.878.82 8.283 5.69 22.894 7.45 26.908 9.24 21.299-150.21 22.527-225.62-31.409" fill="#EEA987"/><path d="M1506.09 881.927l37.12 49.87s-21.75 29.117-60.37 7.616l23.25-57.486z" fill="#E8734D"/><path d="M1533.28 933.814s136.01 332.136 106.99 754.016l-42.9 77.84-48.37-66.29s-7.8-560.3-46.4-766.899l30.68 1.333" fill="#E8734D"/><path d="M1545.84 835.422l-39.74 46.5s-63.8-12.357-82.52-45.676c-18.73-33.319 122.26-.824 122.26-.824" fill="#EEA987"/><path d="M1554.95 794.734s-4.61 35.446-48.85 87.189l48.29 64.878 26.14-134.595-25.58-17.472m-205.59-42.626s92.23 104.315 156.73 129.816l-29.99 74.18-147.21-162.364 20.47-41.632" fill="#C4C1CC"/><path d="M2297.57 1695.86s-122.43-118.73-202.73-138.47c-37.12-9.13-86.01-60.37-132.48-120.61-15.31-19.83-30.33-40.65-44.62-61.25-.04-.04-.04-.08-.04-.08-57.01-82.3-101.67-161.18-101.67-161.18s-168.49-197.43-33.28-285.437c0 0 57.94-1.251 89.73 16.012 32.68 17.741 102.39 163.205 114.2 188.975 11.82 25.72 139.87 264.99 148.43 270.37 8.59 5.37 22.87 25.04 74.1 52.62 62.73 33.77 161.26 132.6 161.26 132.6l-72.9 106.45z" fill="#323657"/><path d="M1709.88 1833.26s-17.1-.69-24.43-4.64c0 0-12.79-8.2-22.24-13.48-3-1.68-5.66-3.06-7.47-3.78-7.55-2.99-25.01-7.31-41.12-19.59-16.1-12.27-68.58-61.36-68.58-61.36l33.92-52.14 15.66-51.63s122.37 12.17 138.69 21.87c1.59.95 3.12 1.95 4.49 3 13.03 9.55 18.7 22.14 24.97 27.93 2.29 2.14 23.6 24.95 22.41 34.2-1.64 12.84-7.99 21.08-15.96 24.98 0 0-4.31 25-17.24 36.18 0 0-3.24 23.2-23.28 32.52 0 0-5.92 23.16-19.82 25.94" fill="#EFAA88"/><path d="M1515.05 255.803s221.16-53.308 174.58 226.673c-46.59 279.987-99.64 302.709-234.37 246.893-134.73-55.824-125.37-234.911-133.39-322.541-8.03-87.622 122.43-146.936 193.18-151.025" fill="#EEA886"/><path d="M1398.84 449.701c-3.28-24.595-52.11-32.908-55.49 4.081-3.38 36.996 23.62 101.44 42.01 94.79 18.39-6.651 18.02-64.961 13.48-98.871z" fill="#EEA886"/><path d="M1334.79 549.959s4.43-88.064 36.52-91.285c32.11-3.22 37.57 32.144 37.57 32.144l32.55 5.654s-11.4-76.966 20.5-90.911c31.9-13.944 208.54 39.401 233.97 16.387 25.43-23.007 11.01-179.252-35.89-199.975-46.9-20.722-176.27-66.802-269.6-1.617 0 0-73.6-7.302-83.63 52.154-10.03 59.449 7.38 233.653 28.01 277.449z" fill="#16202E"/><path d="M1637.36 1626.64l-91.32 156.99s-241.92-62.33-298.37-78.25l129.03-153.56s190.25 43.46 260.66 74.82z" fill="#323657"/><path d="M1554.35 785.373h-.03c-118.63-12.095-164.61-103.402-164.61-103.402 74.61 73.947 163.98 71.925 163.98 71.925 0 2.285.03 4.569.03 6.86.04 3.745.07 7.452.14 11.167.09 4.605.27 9.106.49 13.45" fill="#A77860"/><path d="M3172.93 2224.02h-.02c-2.44.9-5.04 1.43-7.76 1.58-.6.03-1.21.04-1.82.04-2.56-.04-5.03-.44-7.37-1.14-3.25-.97-6.24-2.51-8.84-4.53-.95-.72-1.84-1.54-2.69-2.39-4.9-4.97-7.9-11.81-7.8-19.34.02-1.96.27-3.87.7-5.71.2-.89.43-1.76.72-2.62 3.66-10.81 13.95-18.53 25.98-18.38 8.64.11 16.3 4.27 21.16 10.64a26.999 26.999 0 015.56 16.77c-.15 11.57-7.55 21.35-17.82 25.08zm19.59-47.15c-6.49-8.6-16.75-14.23-28.37-14.36-16.04-.22-29.78 10.08-34.66 24.5a36.059 36.059 0 00-1.89 11.11c-.06 4.53.73 8.87 2.2 12.88 2.35 6.43 6.47 12 11.78 16.12a35.98 35.98 0 0018.8 7.4c.93.07 1.88.14 2.84.15.6 0 1.2-.02 1.79-.04.2-.01.42 0 .63-.01 3.62-.19 7.1-.93 10.37-2.11 13.7-4.97 23.56-18.02 23.77-33.46.11-8.31-2.61-16.01-7.26-22.18" fill="#4DA8F2"/><path d="M1809.02 1497.7c137.49 141.51 319.15 319.73 319.15 319.73l71.01-134.79s-161.35-189.13-270.73-315.33c-33.53 16.44-95.08 55.66-119.43 130.39zm-84.92 190.28s37.01 17.89 46.68 25.85c9.67 7.97 48.82 37.28 58.32 44.18 9.48 6.9-14.32 26.51-84.34-3.81-70.03-30.33-20.66-66.22-20.66-66.22z" fill="#EEA886"/><path d="M1727.33 1282.94l-64.51 599.76H2512l64.52-599.76h-849.19z" fill="#FF7D19"/><path d="M1712.01 1848.38h842.52l63.81-593.13h-842.53l-63.8 593.13zm848.47 6.64h-855.85l65.23-606.39h855.85l-65.23 606.39z" fill="#F46F21"/><path d="M1595.24 1828.74h141.83v53.96h-141.83v-53.96z" fill="#FFC955"/><path d="M266.307 1881.45v36.54h-35.504v-36.54h35.504z" fill="#96CBFF"/><path d="M301.811 1881.45v36.54h-35.504v-36.54h35.504z" fill="#95CAFF"/><path d="M337.317 1881.45v36.54h-35.505v-36.54h35.505z" fill="#94C9FF"/><path d="M372.821 1881.45v36.54h-35.505v-36.54h35.505z" fill="#93C9FF"/><path d="M408.323 1881.45v36.54H372.82v-36.54h35.503z" fill="#92C8FF"/><path d="M443.828 1881.45v36.54h-35.503v-36.54h35.503z" fill="#91C7FF"/><path d="M479.334 1881.45v36.54h-35.51v-36.54h35.51z" fill="#90C6FF"/><path d="M514.838 1881.45v36.54h-35.503v-36.54h35.503z" fill="#8FC6FF"/><path d="M550.349 1881.45v36.54h-35.51v-36.54h35.51z" fill="#8EC5FF"/><path d="M585.851 1881.45v36.54h-35.502v-36.54h35.502z" fill="#8DC4FF"/><path d="M621.364 1881.45v36.54h-35.51v-36.54h35.51z" fill="#8CC3FF"/><path d="M656.866 1881.45v36.54h-35.503v-36.54h35.503z" fill="#8BC2FF"/><path d="M692.37 1881.45v36.54h-35.503v-36.54h35.503z" fill="#8AC2FF"/><path d="M727.87 1881.45v36.54h-35.503v-36.54h35.503z" fill="#89C1FF"/><path d="M763.374 1881.45v36.54h-35.503v-36.54h35.503z" fill="#88C0FF"/><path d="M798.886 1881.45v36.54h-35.51v-36.54h35.51z" fill="#87BFFF"/><path d="M834.389 1881.45v36.54h-35.503v-36.54h35.503z" fill="#86BFFF"/><path d="M869.889 1881.45v36.54h-35.503v-36.54h35.503z" fill="#85BEFF"/><path d="M905.392 1881.45v36.54H869.89v-36.54h35.502z" fill="#84BDFF"/><path d="M940.911 1881.45v36.54h-35.517v-36.54h35.517z" fill="#83BCFF"/><path d="M976.413 1881.45v36.54H940.91v-36.54h35.503z" fill="#82BBFF"/><path d="M1011.92 1881.45v36.54h-35.506v-36.54h35.506z" fill="#81BBFF"/><path d="M1047.42 1881.45v36.54h-35.5v-36.54h35.5z" fill="#80BAFF"/><path d="M1082.93 1881.45v36.54h-35.51v-36.54h35.51z" fill="#7FB9FF"/><path d="M1118.43 1881.45v36.54h-35.5v-36.54h35.5z" fill="#7EB8FF"/><path d="M1153.93 1881.45v36.54h-35.5v-36.54h35.5z" fill="#7DB7FF"/><path d="M1189.44 1881.45v36.54h-35.5v-36.54h35.5z" fill="#7CB7FF"/><path d="M1224.94 1881.45v36.54h-35.5v-36.54h35.5z" fill="#7BB6FF"/><path d="M1260.45 1881.45v36.54h-35.51v-36.54h35.51z" fill="#7AB5FF"/><path d="M1295.95 1881.45v36.54h-35.5v-36.54h35.5z" fill="#79B4FF"/><path d="M1331.46 1881.45v36.54h-35.51v-36.54h35.51z" fill="#78B4FF"/><path d="M1366.97 1881.45v36.54h-35.51v-36.54h35.51z" fill="#77B3FF"/><path d="M1402.47 1881.45v36.54h-35.51v-36.54h35.51z" fill="#76B2FF"/><path d="M1437.98 1881.45v36.54h-35.51v-36.54h35.51z" fill="#74B1FF"/><path d="M1473.48 1881.45v36.54h-35.5v-36.54h35.5z" fill="#73B0FF"/><path d="M1508.99 1881.45v36.54h-35.51v-36.54h35.51z" fill="#72B0FF"/><path d="M1544.49 1881.45v36.54h-35.51v-36.54h35.51z" fill="#71AFFF"/><path d="M1580 1881.45v36.54h-35.5v-36.54h35.5z" fill="#70AEFF"/><path d="M1615.5 1881.45v36.54H1580v-36.54h35.5z" fill="#6FADFF"/><path d="M1651 1881.45v36.54h-35.5v-36.54h35.5z" fill="#6EADFF"/><path d="M1686.52 1881.45v36.54H1651v-36.54h35.52z" fill="#6DACFF"/><path d="M1722.03 1881.45v36.54h-35.52v-36.54h35.52z" fill="#6CABFF"/><path d="M1757.53 1881.45v36.54h-35.5v-36.54h35.5z" fill="#6BAAFF"/><path d="M1793.03 1881.45v36.54h-35.51v-36.54h35.51z" fill="#6AA9FF"/><path d="M1828.53 1881.45v36.54h-35.5v-36.54h35.5z" fill="#69A9FF"/><path d="M1864.04 1881.45v36.54h-35.51v-36.54h35.51z" fill="#68A8FF"/><path d="M1899.55 1881.45v36.54h-35.51v-36.54h35.51z" fill="#67A7FF"/><path d="M1935.05 1881.45v36.54h-35.51v-36.54h35.51z" fill="#66A6FF"/><path d="M1970.55 1881.45v36.54h-35.5v-36.54h35.5z" fill="#65A6FF"/><path d="M2006.06 1881.45v36.54h-35.51v-36.54h35.51z" fill="#64A5FF"/><path d="M2041.56 1881.45v36.54h-35.5v-36.54h35.5z" fill="#63A4FF"/><path d="M2077.08 1881.45v36.54h-35.51v-36.54h35.51z" fill="#62A3FF"/><path d="M2112.58 1881.45v36.54h-35.5v-36.54h35.5z" fill="#61A2FF"/><path d="M2148.09 1881.45v36.54h-35.51v-36.54h35.51z" fill="#60A2FF"/><path d="M2183.59 1881.45v36.54h-35.51v-36.54h35.51z" fill="#5FA1FF"/><path d="M2219.09 1881.45v36.54h-35.5v-36.54h35.5z" fill="#5EA0FF"/><path d="M2254.6 1881.45v36.54h-35.51v-36.54h35.51z" fill="#5D9FFF"/><path d="M2290.1 1881.45v36.54h-35.51v-36.54h35.51z" fill="#5C9EFF"/><path d="M2325.61 1881.45v36.54h-35.51v-36.54h35.51z" fill="#5B9EFF"/><path d="M2361.11 1881.45v36.54h-35.5v-36.54h35.5z" fill="#5A9DFF"/><path d="M2396.61 1881.45v36.54h-35.5v-36.54h35.5z" fill="#599CFF"/><path d="M2432.11 1881.45v36.54h-35.5v-36.54h35.5z" fill="#589BFF"/><path d="M2467.63 1881.45v36.54h-35.51v-36.54h35.51z" fill="#579BFF"/><path d="M2503.14 1881.45v36.54h-35.5v-36.54h35.5z" fill="#569AFF"/><path d="M2538.64 1881.45v36.54h-35.5v-36.54h35.5z" fill="#59F"/><path d="M3948.94 2697.73H1949.39v-36.55h1999.55v36.55z" fill="#FFC955"/><path d="M2072.51 1573.18c-6.82 33.39 8.76 64.77 34.8 70.09 26.04 5.33 52.69-17.43 59.51-50.83 6.83-33.39-8.75-64.78-34.79-70.09-26.05-5.33-52.69 17.43-59.52 50.83" fill="#F46F21"/><path d="M3692.07 1335.46s19.58 33.21 27.86 38.63c11.22 7.36 4.19 14.8-1.14 14.8-5.33.01-32.57 1.96-38.56-4.85-6-6.8-8.98-27.21-14.56-32.54-5.58-5.34-11.35-26.55 2.72-31.71 12.43-4.55 23.68 15.67 23.68 15.67" fill="#6069A8"/><path d="M3683.58 1320.86s22.43 38.88 26.31 44.63c3.86 5.74-7.28 5.73-14.19 3-6.91-2.72-24.28-30.61-26.78-35.69-2.98-6.06-.53-13.01-.53-13.01l15.19 1.07z" fill="#202338"/><path d="M3660.86 1341.78l5.18 39.87 2.74.12-.85-28.69-7.07-11.3m-163.04-6.32s19.59 33.21 27.86 38.63c11.23 7.36 4.19 14.8-1.14 14.8-5.33.01-32.56 1.96-38.55-4.85-6.01-6.8-8.98-27.21-14.56-32.54-5.58-5.34-11.54-27.1 2.71-31.71 12.5-4.03 23.68 15.67 23.68 15.67" fill="#6069A8"/><path d="M3490.52 1320.94s21.25 38.8 25.12 44.55c3.86 5.74-7.28 5.73-14.19 3-6.91-2.72-24.28-30.61-26.77-35.69-2.98-6.06-.54-13.01-.54-13.01l16.38 1.15z" fill="#202338"/><path d="M3466.62 1341.78l5.17 39.87 2.74.12-.85-28.69-7.06-11.3" fill="#6069A8"/><path d="M3410.91 1033.29l177.26 80.77s19.79 6.43 22.01 28.4c6.91 68.56 58.21 177.33 58.21 177.33 16.46 8.05 15.19 1.06 15.19 1.06-10.37-33.29-22.99-170.48-27.5-225.64-.95-11.69-1.55-19.69-1.67-22.25-.09-1.73-1.99-4.02-5.28-6.68-24.32-19.72-124.41-60.55-124.41-60.55-75.14-1.9-113.81 27.56-113.81 27.56" fill="#202338"/><path d="M3377.5 1067.98c5.49 47.91 73.88 42.42 73.88 42.42h82.9s-21.77 48.44-30.18 89.3c-8.92 43.37-29.96 120.09-29.96 120.09s1.39 2.61 16.38 1.15c0 0 65.07-129.67 89.98-162.27 5.35-7.02 20.71-45.09 23.35-67.8.89-7.65.35-13.55-2.51-15.94-2.87-2.41-9.49-6.95-18.3-12.51-25.96-16.37-71.05-41.57-96.17-47.22-33.65-7.56-86.87-21.73-86.87-21.73s-27.98 26.6-22.5 74.51" fill="#202338"/><path d="M3433.92 698.975s-12.41-23.554-6.36-48.635c6.04-25.081 29.32-50.072 63.4-38.598 34.08 11.48 61.63 37.954 41.2 68.555-20.43 30.608 18.48 44.433 8.57 58.999-9.92 14.566-6.15 29.769-1.96 33.162 4.2 3.385 17.74 15.465 16.25 29.761-1.49 14.305-66.12-41.669-66.12-41.669s-35.19-70.72-54.98-61.575" fill="#464240"/><path d="M3537.8 999.987s-5.14 24.933-137.53-6.546c0 0 44.38-14.738 137.53 6.546z" fill="#EB4747"/><path d="M3398.77 1000.44c-2.06 3.91-4.11 7.83-6.16 11.75 48.4 1.41 96.79 2.81 145.19 4.23-7.66-25.635-5.18-60.34-3.84-86.686 1.64-32.174 19.42-54.551 17.52-87.091 9.57 1.542 11.23 1.842 20.82 3.31-14.66-41.782-19.69-62.474-65.24-78.553-14.83-5.235-24.58-6.276-40.63-4.951-52.76 4.352-68.67 4.973-94.58 52.769 40.56 6.455 33.89 21.022 46.19 61.365 6 19.674 12.26 41.632 9.04 62.384-3.16 20.431-28.31 42.838-28.31 61.473" fill="#5F8CC9"/><path d="M3482.95 777.528c-21.59-4.081-16.99-16.086-16.99-16.086s.99-6.778 1.38-15.338c.11-2.194.17-4.509.16-6.853-.01-3.557-.19-7.197-.6-10.619-1.77-14.484 39.2-5.849 39.2-5.849s-2.36 29.327 3.29 38.112c5.64 8.792-4.84 20.707-26.44 16.633" fill="#EEA886"/><path d="M3441.77 761.362s43.55 50.282 59.65 61.935c0 0 18.5-16.716 7.09-60.849 0 0-21.02-10.53-66.74-1.086m1.18-121.013s-22.61 43.571-.18 84.844c22.43 41.272 66.5-17.974 69.36-24.924 2.85-6.95 17.96-46.268-12.1-58.213-30.06-11.952-50.68-13.533-57.08-1.707" fill="#EEA886"/><path d="M3450.47 655.805s-15.57 20.445-17.41 35.558c0 0-6.2-28.563 11.33-56.011 17.52-27.447 62.08-1.303 68.05 9.661 5.97 10.964 23.46 20.625-5.92 67.747 0 0-52.85-36.712-56.05-56.955z" fill="#464240"/><path d="M3486.62 729.541s-3.93 8.575-19.27 16.559c.1-2.195.16-4.509.15-6.853 0 0 10.39-1.258 19.12-9.706" fill="#A77860"/><path d="M3258.04 961.235s-10.76 4.778-15.85 2.613c-5.1-2.171-12.99-2.591-15.48-2.598-3.32-.008-13.73-3.715-13.55.344.17 4.067 16.9 6.905 20.32 8.178 3.43 1.266-10.24 8.785-11.51 12.125-1.27 3.34 14.15 25.263 22.85 19.013 8.69-6.244 13.4-18.713 15.18-19.5 1.77-.793 6.52-4.298 6.52-4.298l-8.48-15.877" fill="#EEA886"/><path d="M3223.62 979.96s-25.21 20.9-25.61 23.73c-.39 2.82.93 4.14 3.38 2.28 2.45-1.85 25-19.479 25-19.479s-25.27 29.839-26.11 32.049c-.5 1.29 1.92 3.99 3.33 3.12 1.42-.87 28.28-28.961 28.28-28.961s-23.53 27.901-23.66 29.991c-.11 1.83 2.72 3.8 4.62 1.85 1.91-1.94 25.33-26.561 25.33-26.561s-15.75 21.421-14.78 23.311c.59 1.16 2.58 3.57 6.46-2.09s14.53-18.01 14.53-18.01l-20.77-21.23" fill="#EEA886"/><path d="M3525.63 1110.4h-74.25s-68.39 5.48-73.87-42.43c-5.49-47.9 22.49-74.505 22.49-74.505s36.13 9.625 67.67 17.235c15.8-3.35 34.83-5.54 57.06-4.97 0 0 133.72 44.18 129.69 67.44 0 0-55.93-29.9-128.79 37.23" fill="#FFA200"/><path d="M3477.3 1027.44l141.55-2.08-71.47 36.28-70.08-34.2z" fill="#5E5853"/><path d="M3521.27 1009.36s-31.84 12.32-70.87 1.18l-1.83-14.574 80.37 4.474-7.67 8.92" fill="#5F8CC9"/><path d="M3547.38 1061.64l-70.08-27.14v-7.06l75.63 27.28-5.55 6.92" fill="#91887F"/><path d="M3520.79 1016.1c-.38 5.23 4.9 9 9.73 6.95l8.22-3.52a5.852 5.852 0 003.48-6.31c-3.43-21.404-10.77-104.735-.04-119.04 3.97-5.287 6.45-9.915 7.84-13.967 7.09 18.266 15.9 41.789 19.4 54.446l66.88 88.951 22.42 5.69c-27.98-67.411-50.46-103.126-50.46-103.126-4.37-11.751-16.92-47.324-28.03-79.003-7.03-20.003-13.47-38.449-16.94-48.364a22.648 22.648 0 00-9.78-11.991c-10.36-6.193-27.61-15.944-43.27-23.545-.06-.03-.12-.053-.19-.09-.5-.24-.99-.487-1.5-.719-.01-.008-.02-.008-.02-.008-.01-.007-.02-.007-.02-.007 29.77 45.024 18.16 172.167 12.29 253.473 0 .06-.01.12-.01.18m-110.48-249.81c-9.54 1.475-33.18 24.415-45.72 47.578-14.34 26.429-28.91 56.528-39.85 66.429-20.09 18.206-76.34 82.552-79.03 80.994-1.01-.599 15.43 19.217 17.52 20.146 1.05.457 92.47-78.748 101.25-90.813 8.33-11.443 30.59-59.456 37.25-58.4 0 0 0 .015.02.03v.015c.51 1.093 8.61 18.656 16.29 44.313.12.427.25.854.38 1.281 5.29 17.899 4.8 37.333 1.94 59.164-2.17 16.491-14.47 43.429-21.89 56.55-.9 1.573-.67 4.568.3 6.853v.01c.57 1.36 1.41 2.47 2.43 2.84l26.84 9.94 6.31 2.34c4.54 1.68 9.3.8 12.86-1.78 2.91-2.12 5.03-5.38 5.54-9.33 5.97-45.9 13.52-92.796 19.54-110.463 26.41-77.512-10.32-135.763-10.32-135.763s-43.3 4.943-51.66 8.066" fill="#EDDAD3"/><path d="M3547.38 1061.64l42.11-114.937 135.73 2.217-40.12 105.92-137.72 6.8" fill="#6E6760"/><path d="M3632.92 997.545c-4.14 8.285-2.9 17.305 2.79 20.135 5.69 2.85 13.65-1.55 17.79-9.84 4.14-8.273 2.89-17.29-2.79-20.136-5.69-2.845-13.66 1.566-17.79 9.841z" fill="#807066"/><path d="M3489.84 683.733s8.7 13.525.66 25.201c-8.04 11.675 2.03 23.141 3.77 35.483 1.74 12.342-33.53 45.174 5.7 61.695 39.22 16.521 51.71-10.784 41.7-25.815-10.01-15.023-17.11-27.215-17.95-48.649-.86-21.419-7.91-54.82-33.88-47.915" fill="#464240"/><path d="M3298.11 627.591h81.84v71.805l-12.49-12.499h-69.35v-59.306z" fill="#FF7D19"/><path d="M2838.73 1537.72s-178.37 169.71-91.6 301.85c86.77 132.15 127.37 16.4 127.37 16.4s58.69 17.71-28.41-145.21c-41.06-76.79-7.36-173.04-7.36-173.04" fill="#BBD070"/><path d="M2508.93 1353.73s-136.25 160.1 45.91 381.81c182.17 221.72 153.93 338.92 153.93 338.92s253.58-385.48-199.84-720.73z" fill="#97A43C"/><path d="M2749.85 2007.52c84.77 17.14 16.17-229.32-110.95-304.46-127.12-75.15-240.85-82.47-312.05-154.83 0 0 5.55 374.88 423 459.29z" fill="#48753A"/><path d="M2195.83 2115.62s3.89-9.63 4.52-11.09c.64-1.44 4.38-3.81 8.91-6.15 4.54-2.34 11.71-3.48 12.48-3.05.77.42 1.74.49 2.74 2.53.99 2.02.7 4.29.7 4.29s2.41 1.92 1.86 4.68c0 0 2.17 1.92 1.03 4.95 0 0 2.07 1.93 1.05 4.06 0 0-3.74 2.37-4.88 3.66-1.13 1.28-9.26 5.69-17.71 8.72 0 0-8.95.17-10.7-12.6" fill="#EEA886"/><path d="M2209.6 2110.37s.1 5.21-.62 6.68c-.7 1.48 10.58 4.76 10.58 4.76s-3.61-11.39-9.96-11.44z" fill="#CF8C6C"/><path d="M1999.01 2619.96l4.93-15.34 20.85 3.37-3.11 13.85-22.67-1.88z" fill="#3B3F66"/><path d="M2169.93 2618.15l1.17 8.43 22.83-3.8-1.22-12.6-22.78 7.97" fill="#555C94"/><path d="M2120.5 2381.75s-3.36 18.32-7.27 38.66c-.68 3.54-1.36 7.14-2.07 10.72-3.81 19.59-7.67 38.43-9.09 42.34-3.23 8.86-73.13 136.92-73.13 136.92s-28.58-2.18-29.65-5.85c0 0 58.6-139.05 58.26-144.12-.32-5.06 7.16-147.61 7.16-147.61s54.24 60.71 55.79 68.94" fill="#354C70"/><path d="M2152.43 2304.66s27.35 140.03 29.69 150.75c2.34 10.71 12.7 154.16 12.7 154.16s-6.15 12.67-28.85 7.9c0 0-30.96-154.12-33.57-159.29-10.12-20.04-59.81-117.13-64.63-130.99-4.81-13.86-3.4-30.03-3.4-30.03s36.92-20.74 88.06 7.5" fill="#354C70"/><path d="M2140.93 2123.29s12 29.89 15.01 29.02c3.02-.89 37.49-41.36 37.49-41.36s15.78 19.68 13.66 21.93c-2.94 3.15-43.66 70.83-49.26 69.61-5.6-1.23-30.63-42.59-30.63-42.59s-1.42-31.2 13.73-36.61z" fill="#DEB135"/><path d="M2089.64 2066.19s31.1 23.78 39.69 33.21c8.58 9.43 32.28 48.53 30.57 60.29-6.54 45.1-9.66 83.53-9.86 114.29-.18 26.81 8.36 33.65 3.05 34.04-6.11.47-84.38 28.83-95.97 32.28 0 0 7.6-94.38 11.44-105.27 3.85-10.89-12.31-125.02 21.08-168.84z" fill="#F2C344"/><path d="M2289.98 2021.1l6.97 35.16 6.98 35.16s-39.93-12.5-85.26-3.5l-3.07-15.51-3.11-15.6c45.33-9 77.49-35.71 77.49-35.71z" fill="#D9D0C4"/><path d="M2171.1 2626.59s17.23-3.33 17.84-3.85c.6-.53 4.3-7.33 6.96-6.15 2.66 1.19 2.7 9.47 5.3 10.87 2.61 1.41 23.17 15.29 25.7 17.82 2.52 2.53 18.1 1.04 19.88 5.44 1.79 4.4 1.94 14.78-21.3 12.33-23.23-2.44-49.76 1.34-54.76-1.4-5.01-2.75-1.22-28.37.38-35.06m-172.36-7s17.55-.54 18.22-.96c.68-.42 5.42-6.54 7.86-4.94 2.44 1.6 1.15 9.77 3.49 11.58 2.35 1.8 20.43 18.8 22.51 21.7 2.09 2.91 17.7 3.93 18.77 8.55 1.06 4.62-.46 14.9-23 8.77-22.54-6.13-49.33-6.65-53.84-10.15-4.49-3.52 3.34-28.21 5.99-34.55" fill="#84BDFF"/><path d="M2134.98 2311.15s2.1 8.53 5.46 10.38c3.36 1.85-15.7 20.08-15.7 20.08s-7.74-16.9-7.53-18.61c.22-1.7 17.77-11.85 17.77-11.85" fill="#EEA987"/><path d="M2075.82 2103.06s-22.33 106.18-24.16 117.06c-1.73 10.29 65.46 108.52 65.46 108.52l22.33-13.25s-54.21-98.56-54.12-103.06c.06-4.5 26.01-90.09 26.01-90.09s10.85-18.64-8.39-27.69c-19.23-9.05-27.13 8.51-27.13 8.51" fill="#FFD255"/><path d="M2148.07 2318.47s7.26 36.11 6.82 47.17c-.45 11.05-41.69-17.41-39.59-28.41l32.77-18.76z" fill="#3C5780"/><path d="M2089.64 2066.19s56.65 61.89 53.16 55.03c-12.44-24.46-21.12-28.59-20.94-33.15.13-3.5 1.5-13.67 1.73-17.07.44-6.49.92-11.76.92-11.76s-28.13-39.51-26.89-26.04c1.24 13.46-7.98 32.99-7.98 32.99z" fill="#EEA886"/><path d="M2143.59 1993.35s7.79 18.28 7.91 22.56c.1 4.28-.98 7.56-.31 12.49.68 5.11 4.96 15.82 4.43 18.78-.63 3.59-8.17 1.73-9.21 7.63-1.04 5.89-6.52 16.97-9.25 17.2-7.02.58-33.88-10.37-35.59-15.99-1.7-5.62-11.44-36.95-14.47-42.91-3.02-5.96 47.32-38.61 51.91-29.18l4.58 9.42z" fill="#EEA886"/><path d="M2075.13 2006.91c-3.55-15.51 14.28-17.42 14.28-17.42s11.61-13.52 39.4-11.91c27.79 1.6 23.55 37.86 23.55 37.86s-19.23-2.87-27.59-.75c0 0-1.02 15.48-.11 19.32l-10.49-.94s1.17-13.74-3.85-14.39c-5.04-.65-6.73 29.09-16.1 35.65 0 0-.1-2.1-1.27-4.16-1.87-3.27-4.77-8.75-7.28-15.17-4.09-8.99-8.72-20.14-10.54-28.09" fill="#16202E"/><path d="M2117.29 2022.01s-3.89-10.49-13.11-3.69c-6.7 4.96.19 22.67 6.72 22.58 6.52-.09 9.17-9.72 6.39-18.89" fill="#EEA886"/><path d="M2100.06 2051.1s1.38 5.58 2.87 6.87c1.5 1.31 8.56 7.03 20.81 10.88l-1.09 10.98s-23.81-9.18-22.59-28.73" fill="#C48A6F"/><path d="M2201.14 2086.03v42.06h-.43v-42.06h.43z" fill="#96CBFF"/><path d="M2201.58 2086.03v42.06h-.44v-42.06h.44z" fill="#95CAFF"/><path d="M2202.02 2086.03v42.06h-.44v-42.06h.44z" fill="#94C9FF"/><path d="M2202.45 2086.03v42.06h-.43v-42.06h.43z" fill="#93C9FF"/><path d="M2202.89 2086.03v42.06h-.44v-42.06h.44z" fill="#92C8FF"/><path d="M2203.33 2086.03v42.06h-.44v-42.06h.44z" fill="#91C7FF"/><path d="M2203.75 2086.03v42.06h-.42v-42.06h.42z" fill="#90C6FF"/><path d="M2204.2 2086.03v42.06h-.45v-42.06h.45z" fill="#8FC6FF"/><path d="M2204.63 2086.03v42.06h-.43v-42.06h.43z" fill="#8EC5FF"/><path d="M2205.07 2086.03v42.06h-.44v-42.06h.44z" fill="#8DC4FF"/><path d="M2205.5 2086.03v42.06h-.43v-42.06h.43z" fill="#8CC3FF"/><path d="M2205.93 2086.03v42.06h-.43v-42.06h.43z" fill="#8BC2FF"/><path d="M2206.37 2086.03v42.06h-.43v-42.06h.43z" fill="#8AC2FF"/><path d="M2206.8 2086.03v42.06h-.43v-42.06h.43z" fill="#89C1FF"/><path d="M2207.24 2086.03v42.06h-.44v-42.06h.44z" fill="#88C0FF"/><path d="M2207.68 2086.03v42.06h-.44v-42.06h.44z" fill="#87BFFF"/><path d="M2208.11 2086.03v42.06h-.43v-42.06h.43z" fill="#86BFFF"/><path d="M2208.54 2086.03v42.06h-.43v-42.06h.43z" fill="#85BEFF"/><path d="M2208.98 2086.03v42.06h-.44v-42.06h.44z" fill="#84BDFF"/><path d="M2209.42 2086.03v42.06h-.44v-42.06h.44z" fill="#83BCFF"/><path d="M2209.85 2086.03v42.06h-.43v-42.06h.43z" fill="#82BBFF"/><path d="M2210.28 2086.03v42.06h-.43v-42.06h.43z" fill="#81BBFF"/><path d="M2210.72 2086.03v42.06h-.44v-42.06h.44z" fill="#80BAFF"/><path d="M2211.16 2086.03v42.06h-.44v-42.06h.44z" fill="#7FB9FF"/><path d="M2211.59 2086.03v42.06h-.44v-42.06h.44z" fill="#7EB8FF"/><path d="M2212.02 2086.03v42.06h-.43v-42.06h.43z" fill="#7DB7FF"/><path d="M2212.46 2086.03v42.06h-.43v-42.06h.43z" fill="#7CB7FF"/><path d="M2212.9 2086.03v42.06h-.44v-42.06h.44z" fill="#7BB6FF"/><path d="M2213.33 2086.03v42.06h-.43v-42.06h.43z" fill="#7AB5FF"/><path d="M2213.76 2086.03v42.06h-.43v-42.06h.43z" fill="#79B4FF"/><path d="M2214.2 2086.03v42.06h-.44v-42.06h.44z" fill="#78B4FF"/><path d="M2214.63 2086.03v42.06h-.42v-42.06h.42z" fill="#77B3FF"/><path d="M2215.07 2086.03v42.06h-.44v-42.06h.44z" fill="#76B2FF"/><path d="M2215.5 2086.03v42.06h-.43v-42.06h.43z" fill="#74B1FF"/><path d="M2215.94 2086.03v42.06h-.44v-42.06h.44z" fill="#73B0FF"/><path d="M2216.38 2086.03v42.06h-.44v-42.06h.44z" fill="#72B0FF"/><path d="M2216.81 2086.03v42.06h-.43v-42.06h.43z" fill="#71AFFF"/><path d="M2217.24 2086.03v42.06h-.43v-42.06h.43z" fill="#70AEFF"/><path d="M2217.69 2086.03v42.06h-.45v-42.06h.45z" fill="#6FADFF"/><path d="M2218.11 2086.03v42.06h-.42v-42.06h.42z" fill="#6EADFF"/><path d="M2218.56 2086.03v42.06h-.44v-42.06h.44z" fill="#6DACFF"/><path d="M2218.98 2086.03v42.06h-.43v-42.06h.43z" fill="#6CABFF"/><path d="M2219.42 2086.03v42.06h-.44v-42.06h.44z" fill="#6BAAFF"/><path d="M2219.86 2086.03v42.06h-.43v-42.06h.43z" fill="#6AA9FF"/><path d="M2220.29 2086.03v42.06h-.43v-42.06h.43z" fill="#69A9FF"/><path d="M2220.73 2086.03v42.06h-.44v-42.06h.44z" fill="#68A8FF"/><path d="M2221.16 2086.03v42.06h-.43v-42.06h.43z" fill="#67A7FF"/><path d="M2221.6 2086.03v42.06h-.44v-42.06h.44z" fill="#66A6FF"/><path d="M2222.04 2086.03v42.06h-.44v-42.06h.44z" fill="#65A6FF"/><path d="M2222.46 2086.03v42.06h-.42v-42.06h.42z" fill="#64A5FF"/><path d="M2222.91 2086.03v42.06h-.44v-42.06h.44z" fill="#63A4FF"/><path d="M2223.34 2086.03v42.06h-.43v-42.06h.43z" fill="#62A3FF"/><path d="M2223.77 2086.03v42.06h-.44v-42.06h.44z" fill="#61A2FF"/><path d="M2224.21 2086.03v42.06h-.43v-42.06h.43z" fill="#60A2FF"/><path d="M2224.65 2086.03v42.06h-.44v-42.06h.44z" fill="#5FA1FF"/><path d="M2225.08 2086.03v42.06h-.44v-42.06h.44z" fill="#5EA0FF"/><path d="M2225.51 2086.03v42.06h-.43v-42.06h.43z" fill="#5D9FFF"/><path d="M2225.95 2086.03v42.06h-.43v-42.06h.43z" fill="#5C9EFF"/><path d="M2226.39 2086.03v42.06h-.44v-42.06h.44z" fill="#5B9EFF"/><path d="M2226.82 2086.03v42.06h-.43v-42.06h.43z" fill="#5A9DFF"/><path d="M2227.26 2086.03v42.06h-.44v-42.06h.44z" fill="#599CFF"/><path d="M2227.69 2086.03v42.06h-.43v-42.06h.43z" fill="#589BFF"/><path d="M2228.13 2086.03v42.06h-.44v-42.06h.44z" fill="#579BFF"/><path d="M2228.56 2086.03v42.06h-.43v-42.06h.43z" fill="#569AFF"/><path d="M2229 2086.03v42.06h-.44v-42.06h.44z" fill="#59F"/><path d="M2220.52 2095.9s-11.34 6.22-10.56 8.18c.78 1.94 2.24 2.19 2.24 2.19l-3.5 4.67s-.57 4.41 4.39 3.75c0 0-.96 4.06 3.76 2.85 0 0 .56 2.96 2.85 2.79 2.29-.18 9.42-4.49 9.42-4.49s1.09-1.59-1.06-4.06c0 0 1.27-2.84-1.02-4.94 0 0 .64-2.43-1.86-4.69 0 0 1.05-5.53-3.44-6.81 0 0-.74.3-1.22.56" fill="#DB9C7C"/><path d="M2181.85 2054.16v40.24h-.71v-40.24h.71z" fill="#96CBFF"/><path d="M2182.56 2054.16v40.24h-.72v-40.24h.72z" fill="#95CAFF"/><path d="M2183.28 2054.16v40.24h-.72v-40.24h.72z" fill="#94C9FF"/><path d="M2183.98 2054.16v40.24h-.7v-40.24h.7z" fill="#93C9FF"/><path d="M2184.69 2054.16v40.24h-.71v-40.24h.71z" fill="#92C8FF"/><path d="M2185.4 2054.16v40.24h-.71v-40.24h.71z" fill="#91C7FF"/><path d="M2186.12 2054.16v40.24h-.72v-40.24h.72z" fill="#90C6FF"/><path d="M2186.82 2054.16v40.24h-.7v-40.24h.7z" fill="#8FC6FF"/><path d="M2187.53 2054.16v40.24h-.71v-40.24h.71z" fill="#8EC5FF"/><path d="M2188.24 2054.16v40.24h-.71v-40.24h.71z" fill="#8DC4FF"/><path d="M2188.96 2054.16v40.24h-.72v-40.24h.72z" fill="#8CC3FF"/><path d="M2189.66 2054.16v40.24h-.7v-40.24h.7z" fill="#8BC2FF"/><path d="M2190.38 2054.16v40.24h-.71v-40.24h.71z" fill="#8AC2FF"/><path d="M2191.09 2054.16v40.24h-.71v-40.24h.71z" fill="#89C1FF"/><path d="M2191.79 2054.16v40.24h-.7v-40.24h.7z" fill="#88C0FF"/><path d="M2192.51 2054.16v40.24h-.72v-40.24h.72z" fill="#87BFFF"/><path d="M2193.22 2054.16v40.24h-.72v-40.24h.72z" fill="#86BFFF"/><path d="M2193.93 2054.16v40.24h-.71v-40.24h.71z" fill="#85BEFF"/><path d="M2194.64 2054.16v40.24h-.71v-40.24h.71z" fill="#84BDFF"/><path d="M2195.35 2054.16v40.24h-.71v-40.24h.71z" fill="#83BCFF"/><path d="M2196.06 2054.16v40.24h-.71v-40.24h.71z" fill="#82BBFF"/><path d="M2196.77 2054.16v40.24h-.71v-40.24h.71z" fill="#81BBFF"/><path d="M2197.48 2054.16v40.24h-.71v-40.24h.71z" fill="#80BAFF"/><path d="M2198.19 2054.16v40.24h-.71v-40.24h.71z" fill="#7FB9FF"/><path d="M2198.9 2054.16v40.24h-.71v-40.24h.71z" fill="#7EB8FF"/><path d="M2199.6 2054.16v40.24h-.7v-40.24h.7z" fill="#7DB7FF"/><path d="M2200.32 2054.16v40.24h-.71v-40.24h.71z" fill="#7CB7FF"/><path d="M2201.03 2054.16v40.24h-.71v-40.24h.71z" fill="#7BB6FF"/><path d="M2201.74 2054.16v40.24h-.71v-40.24h.71z" fill="#7AB5FF"/><path d="M2202.45 2054.16v40.24h-.71v-40.24h.71z" fill="#79B4FF"/><path d="M2203.16 2054.16v40.24h-.71v-40.24h.71z" fill="#78B4FF"/><path d="M2203.87 2054.16v40.24h-.71v-40.24h.71z" fill="#77B3FF"/><path d="M2204.58 2054.16v40.24h-.7v-40.24h.7z" fill="#76B2FF"/><path d="M2205.29 2054.16v40.24h-.71v-40.24h.71z" fill="#74B1FF"/><path d="M2206 2054.16v40.24h-.71v-40.24h.71z" fill="#73B0FF"/><path d="M2206.72 2054.16v40.24h-.72v-40.24h.72z" fill="#72B0FF"/><path d="M2207.42 2054.16v40.24h-.71v-40.24h.71z" fill="#71AFFF"/><path d="M2208.14 2054.16v40.24h-.72v-40.24h.72z" fill="#70AEFF"/><path d="M2208.85 2054.16v40.24h-.71v-40.24h.71z" fill="#6FADFF"/><path d="M2209.56 2054.16v40.24h-.71v-40.24h.71z" fill="#6EADFF"/><path d="M2210.26 2054.16v40.24h-.7v-40.24h.7z" fill="#6DACFF"/><path d="M2210.97 2054.16v40.24h-.71v-40.24h.71z" fill="#6CABFF"/><path d="M2211.69 2054.16v40.24h-.72v-40.24h.72z" fill="#6BAAFF"/><path d="M2212.39 2054.16v40.24h-.7v-40.24h.7z" fill="#6AA9FF"/><path d="M2213.1 2054.16v40.24h-.71v-40.24h.71z" fill="#69A9FF"/><path d="M2213.81 2054.16v40.24h-.71v-40.24h.71z" fill="#68A8FF"/><path d="M2214.53 2054.16v40.24h-.71v-40.24h.71z" fill="#67A7FF"/><path d="M2215.24 2054.16v40.24h-.71v-40.24h.71z" fill="#66A6FF"/><path d="M2215.95 2054.16v40.24h-.71v-40.24h.71z" fill="#65A6FF"/><path d="M2216.66 2054.16v40.24h-.71v-40.24h.71z" fill="#64A5FF"/><path d="M2217.37 2054.16v40.24h-.71v-40.24h.71z" fill="#63A4FF"/><path d="M2218.08 2054.16v40.24h-.71v-40.24h.71z" fill="#62A3FF"/><path d="M2218.78 2054.16v40.24h-.71v-40.24h.71z" fill="#61A2FF"/><path d="M2219.5 2054.16v40.24h-.71v-40.24h.71z" fill="#60A2FF"/><path d="M2220.21 2054.16v40.24h-.71v-40.24h.71z" fill="#5FA1FF"/><path d="M2220.92 2054.16v40.24h-.71v-40.24h.71z" fill="#5EA0FF"/><path d="M2221.63 2054.16v40.24h-.71v-40.24h.71z" fill="#5D9FFF"/><path d="M2222.35 2054.16v40.24h-.72v-40.24h.72z" fill="#5C9EFF"/><path d="M2223.05 2054.16v40.24h-.7v-40.24h.7z" fill="#5B9EFF"/><path d="M2223.76 2054.16v40.24h-.71v-40.24h.71z" fill="#5A9DFF"/><path d="M2224.47 2054.16v40.24h-.71v-40.24h.71z" fill="#599CFF"/><path d="M2225.17 2054.16v40.24h-.7v-40.24h.7z" fill="#589BFF"/><path d="M2225.89 2054.16v40.24h-.71v-40.24h.71z" fill="#579BFF"/><path d="M2226.6 2054.16v40.24h-.71v-40.24h.71z" fill="#569AFF"/><path d="M2227.32 2054.16v40.24h-.71v-40.24h.71z" fill="#59F"/><path d="M2200.69 2104.31s8.88-.25 13.78 1.73c1.1.45 2.1 1.09 2.1 2.3 0 1.19-1.74 2.71-5.57 3.02-3.84.31-8.66 2.46-8.66 2.46s-4.04-.85-1.65-9.51" fill="#EEA886"/><path d="M2113.23 2420.4c-.68 3.54-1.36 7.15-2.07 10.72l-22.7-60.08c2.99 6.07 24.77 49.36 24.77 49.36z" fill="#293B57"/><path d="M863.959 1704.55H505.756c-26.462 0-47.921-21.44-47.921-47.9v-565.79c0-26.46 21.459-47.92 47.921-47.92h358.203c26.463 0 47.922 21.46 47.922 47.92v565.79c0 26.46-21.459 47.9-47.922 47.9z" fill="#FF7D19"/><path d="M863.643 1470.21h-23.526v179.01h23.526v-179.01zm-46.484 20.07h-23.518v158.94h23.518v-158.94zm-50.495 26.09h-23.526v132.85h23.526v-132.85zm-51.863 32.91h-23.527v99.94h23.527v-99.94zm-163.896-21.21l-5.093-1.82 44.355-124.44 96.203-25.44 34.573-136.58 74.249-32.76 16.621-106.2 5.348.84-17.085 109.11-74.526 32.9-34.709 137.11-96.532 25.53-43.404 121.75" fill="#E3F2FF"/><path d="M699.786 1369.44c5.048 6.17 4.135 15.26-2.037 20.32-6.172 5.04-15.272 4.12-20.321-2.05-5.048-6.17-4.127-15.27 2.045-20.31 6.172-5.04 15.265-4.13 20.313 2.04" fill="#FFC955"/><path d="M681.185 1369.5c-5.01 4.09-5.759 11.49-1.662 16.5s11.497 5.75 16.5 1.66c5.011-4.1 5.76-11.5 1.663-16.51-4.09-5-11.497-5.75-16.501-1.65zm18.269 22.34c-7.318 5.99-18.141 4.9-24.118-2.42-5.985-7.32-4.899-18.14 2.419-24.12s18.141-4.89 24.125 2.42c5.977 7.32 4.899 18.14-2.426 24.12z" fill="#E3F2FF"/><path d="M734.815 1233.43c5.048 6.18 4.134 15.27-2.037 20.31-6.18 5.05-15.28 4.13-20.313-2.04-5.049-6.17-4.135-15.27 2.037-20.31 6.172-5.05 15.265-4.13 20.313 2.04z" fill="#FFC955"/><path d="M716.219 1233.49c-5.011 4.08-5.76 11.49-1.663 16.49 4.097 5.01 11.497 5.76 16.508 1.67 5.004-4.1 5.753-11.5 1.656-16.51-4.09-5.01-11.498-5.75-16.501-1.65zm18.268 22.35c-7.317 5.98-18.141 4.89-24.125-2.43-5.977-7.32-4.891-18.14 2.427-24.12 7.317-5.98 18.133-4.9 24.118 2.42 5.984 7.33 4.906 18.15-2.42 24.13z" fill="#E3F2FF"/><path d="M807.909 1199.73c5.048 6.17 4.135 15.26-2.045 20.31-6.172 5.05-15.265 4.13-20.313-2.04-5.041-6.17-4.127-15.27 2.045-20.32 6.172-5.04 15.265-4.12 20.313 2.05z" fill="#FFC955"/><path d="M789.305 1199.78c-5.003 4.1-5.745 11.5-1.647 16.51 4.089 5.01 11.489 5.75 16.5 1.65 5.011-4.09 5.745-11.49 1.655-16.5-4.089-5.01-11.497-5.75-16.508-1.66zm18.276 22.36c-7.318 5.98-18.141 4.89-24.125-2.43-5.977-7.32-4.891-18.14 2.426-24.11 7.326-5.99 18.141-4.9 24.126 2.41 5.984 7.32 4.891 18.14-2.427 24.13" fill="#E3F2FF"/><path d="M603.956 1396.15c5.048 6.18 4.135 15.27-2.037 20.31-6.179 5.05-15.272 4.14-20.321-2.03-5.048-6.17-4.134-15.27 2.038-20.31 6.179-5.05 15.272-4.14 20.32 2.03z" fill="#FFC955"/><path d="M585.358 1396.22c-5.01 4.09-5.76 11.49-1.662 16.5 4.089 5 11.497 5.75 16.5 1.66 5.011-4.1 5.76-11.5 1.663-16.51-4.09-5.01-11.497-5.75-16.501-1.65zm18.269 22.35c-7.318 5.98-18.141 4.89-24.118-2.43-5.985-7.31-4.899-18.14 2.419-24.11 7.318-5.98 18.141-4.9 24.125 2.41 5.977 7.33 4.891 18.15-2.426 24.13z" fill="#E3F2FF"/><path d="M640.246 1260.69h-123.81c-5.722 0-10.359-4.65-10.359-10.37v-9.22c0-5.72 4.637-10.36 10.359-10.36h123.81c5.723 0 10.366 4.64 10.366 10.36v9.22c0 5.72-4.643 10.37-10.366 10.37zm0-52.34h-123.81c-5.722 0-10.359-4.64-10.359-10.37v-9.21c0-5.72 4.637-10.37 10.359-10.37h123.81c5.723 0 10.366 4.65 10.366 10.37v9.21c0 5.73-4.643 10.37-10.366 10.37z" fill="#EBEBEB"/><path d="M402.332 1284.77s-4.187 41.32 3.446 51.69c0 0-20.216-4.4-24.897-11.36-4.682-6.96 21.451-40.33 21.451-40.33z" fill="#16202E"/><path d="M528.572 1416.74s7.333-4.93 8.479-5.64c1.138-.72 4.905-.61 9.22-.09 4.314.51 9.909 3.14 10.246 3.81.337.66.996 1.19.727 3.09-.278 1.9-1.551 3.36-1.551 3.36s.764 2.5-.936 4.18c0 0 .614 2.39-1.64 3.98 0 0 .539 2.35-1.191 3.37 0 0-3.775-.12-5.183.24-1.416.36-9.251-.41-16.651-2.3 0 0-8.261-1.78-1.52-14" fill="#EEA886"/><path d="M541.057 1420.15s-2.21 3.86-3.378 4.63c-1.169.76 5.647 8.1 5.647 8.1s2.337-9.91-2.269-12.73z" fill="#CF8C6C"/><path d="M524.226 1417.44s4.614-.51 7.468-1.82c2.846-1.32-.532 14.36-.532 14.36s-6.914-4.77-11.423-4.9c-4.509-.15 4.487-7.64 4.487-7.64z" fill="#EEA886"/><path d="M333.038 1835.1s14.424 21.08 19.453 25.56c0 0 10.068 5.22 10.375 9.39.592 7.88 1.011 12.54-12.23 12.9-13.242.38-21.513-.04-23.941-8.05-2.42-8.02-6.604-14.31-6.604-14.31l-1.009 20.86h-2.984l-1.525-23.89c-.182-2.98-2.142-14.45 4.154-19.53 6.294-5.07 14.311-2.93 14.311-2.93z" fill="#162D40"/><path d="M354.413 1861.73s-7.157 2.02-15.668-.12c-8.514-2.14-16.685-22.52-19.173-24.22l-2.209-8.22h16.595s.141 6.08 2.818 11.29c2.683 5.21 17.637 21.27 17.637 21.27zm72.256-34.51s2.165 5.11 6.247 10.44c3.004 3.9 12.314 19.95 16.418 21.06 4.097 1.12 16.778 3.36 17.894 10.44 1.123 7.09 1.678 12.12-10.816 12.68-12.493.56-20.695 1.31-26.664-7.46-5.962-8.76-15.475-15.1-15.475-15.1v22.86h-4.846s-2.232-23.79-3.542-25.46c-1.304-1.69-4.659-19.95 6.898-29.46 11.564-9.51 13.886 0 13.886 0" fill="#162D40"/><path d="M449.332 1858.72s-11.19 2.79-15.482 0c-4.284-2.79-18.868-27.43-23.699-28.91 0 0 4.682-9.49 16.516-2.6 0 0 19.489 27.41 22.665 31.51" fill="#162D40"/><path d="M326.688 1484.84s-15.776 20.5-20.053 44.84c-4.281 24.32 2.531 105.98 2.34 118.01-.184 12.02-10.605 49.44-8.376 72.09 2.238 22.65 13.956 117.2 13.956 117.2l27.332-.5s-5.476-102.02-4.078-111.52c1.395-9.51 5.851-49.96 6.408-53.89.562-3.91 31.137-107.43 31.137-124.97 0-17.54-10.628-89.87-48.666-61.26" fill="#1D3B54"/><path d="M405.934 1492.85s25.916 98.9 28.987 112.61c3.078 13.7 9.227 31.6 8.95 34.11-.277 2.51-3.258 44.74-3.258 44.74l-7.37 143.74h-27.309s-8.763-91.45-10.171-109.9c-1.393-18.46 10.074-46.98 7.273-54.81-2.794-7.83-45.03-98.15-45.03-98.15s-31.969-101.04 47.928-72.34z" fill="#1D3B54"/><path d="M397.915 1344.83s10.358.98 18.193 9.37c7.835 8.38 15.182 21.77 17.235 26.24 2.044 4.47 30.799 45.94 32.297 46.87 1.49.93 14.044-2.37 24.118-3.21 16.433-1.37 41.008-9.74 41.008-9.74l3.647 18.57s-60.444 19.49-74.391 16.06c-17.062-4.2-56.325-54.57-56.325-54.57s-29.271-34.3-5.782-49.59" fill="#EDDAD3"/><path d="M379.824 1337.56s13.422 6.33 18.088 7.26c4.667.94 22.747 24.43 25.916 33.01 3.168 8.57 0 21.43-6.524 36.53-6.531 15.1-.367 20.14-3.356 35.24-2.981 15.1-2.981 56.27-2.419 64.65.554 8.39-86.317 24.22-103.656 8.93 0 0 11.732-38.69 25.639-53.22 2.999-3.15 2.686-24.1.635-29.31-2.054-5.22-25.174-44.18-25.174-44.18s-1.7-39.52 8.388-47.36c8.763-6.8 32.652-9.23 36.939-10.72 4.29-1.49 16.768-2.14 25.524-.83" fill="#EDDAD3"/><path d="M384.116 1367.48l8.157-9.55-7.086-25.14s-2.374 14-1.071 34.69z" fill="#D1C0BA"/><path d="M332.983 1344.82s-16.92-4.84-26.619 13.81c-9.693 18.64-7.27 28.7-9.509 37.09-2.229 8.39-11.182 64.5-11.741 66.93-.562 2.43-9.135 30.95-8.022 39.71 1.12 8.76 9.143 75.13 8.771 77.37-.374 2.24 15.469-2.15 15.469-2.15s-.65-67.76-.088-73.36c.556-5.59 1.112-34.95 5.31-42.51 4.199-7.55 14.542-53.69 16.78-58.43 2.238-4.76 23.912-52.4 9.649-58.46m53.252-22.76s-2.674 24.63-2.12 32.65c0 0-13.954 13.97-29.815-16.32 0 0 6.679-12.48 1.653-29.49-5.024-17.02 30.282 13.16 30.282 13.16z" fill="#EEA886"/><path d="M384.117 1354.71v12.77l-14.995-13.28 14.995.51z" fill="#EEA886"/><path d="M384.118 1367.48l-6.666-8.24-22.457-22.38-8.408 3.74 37.531 26.88" fill="#D1C0BA"/><path d="M392.276 1357.93l10.284 2.84-17.37-27.99 7.086 25.15zm-14.825 1.31l-9.392 15.04-21.818-34.22 9.347-4.76 21.863 23.94" fill="#FAE6DE"/><path d="M425.283 1419.93s3.355-22.33-.217-35.91c0 0-1.97 10.96-6.779 28.02l6.996 7.89zm-104.277-2.96s9.284-30.71 9.83-32.39c0 0-.634 28.22-4.189 42.19 0 0-3.417-5.97-5.641-9.8z" fill="#D1C0BA"/><path d="M666.753 1263.09l-146.078 184.02 5.093 3.93 140.985-187.95z" fill="#54281A"/><path d="M555.393 1414.63s-10.958-1.04-11.347.72c-.382 1.73.539 2.61.539 2.61l-4.711 1.63s-2.509 2.83 1.303 4.74c0 0-2.606 2.39 1.296 3.8 0 0-1.019 2.34.674 3.32 1.7.96 8.778 1.34 8.778 1.34s1.528-.59 1.191-3.36c0 0 2.255-1.4 1.64-3.99 0 0 1.626-1.39.937-4.18 0 0 3.378-3.4.824-6.44 0 0-.659-.15-1.124-.19" fill="#DB9C7C"/><path d="M537.401 1411.09s6.366 4.06 8.875 7.8c.562.85.959 1.78.39 2.61-.577.85-2.532 1.1-5.378-.51-2.854-1.63-7.28-2.41-7.28-2.41s-2.442-2.52 3.393-7.49m-162.479-172.83s24.717-.64 29.256 28.61c4.554 29.26-5.955 54.97-10.074 59.09-4.127 4.11-28.837.99-34.657-14.2-5.831-15.2-14.351-26.28-13.072-39.34 1.281-13.07-1.843-34.66 28.547-34.16" fill="#EEA886"/><path d="M405.233 1277.95s6.621-36.49-26.193-43.02c-32.804-6.54-44.311 15.9-47.433 29.25-3.134 13.35.568 50.98.568 50.98s21.873 19.18 34.933 24.15c0 0-10.935-40.05-6.816-68.74 0 0 26.665 4.18 44.364-.18 0 0 .532 5.99.577 7.56z" fill="#16202E"/><path d="M385.673 1327.56s-8.584-.06-20.253-7.64c0 0 8.209 10.32 19.661 14.09 0 0 .674-5.14.592-6.45z" fill="#A77860"/><path d="M348.412 1586.56l-95.451 15.59-11.522-70.59 95.449-15.58 11.524 70.58" fill="#366E9C"/><path d="M282.562 1600.92s-1.501-2.43-1.63-3.82c0 0-.062-2.53-.208-4.33-.049-.57-.102-1.07-.172-1.38-.287-1.33-1.311-4.15-1.115-7.52.208-3.37 4.807-17.69 4.807-17.69l8.45.29 7.949-.86s9.602 18.33 9.781 21.49c.012.3.021.62 0 .91-.111 2.69-1.325 4.64-1.545 6.05-.078.52-1.258 5.59-2.647 6.29-1.931.97-3.667.85-4.945.11 0 0-3.871 1.74-6.622.99 0 0-3.507 1.7-6.67-.21 0 0-3.756 1.34-5.433-.32" fill="#EEA886"/><path d="M332.981 1344.82s-16.92-4.84-26.619 13.8c-9.693 18.65-9.64 26.6-10.943 35.7-1.223 8.6-13.043 59.66-13.605 62.08-.556 2.43-4.447 34.34-4.724 45.96-.206 8.83 1.866 66.74 1.492 68.98-.372 2.24 26.779-3.92 26.779-3.92s-3.008-53.4-2.443-59c.553-5.59 1.747-33.47 4.482-41.68 3.21-9.61 15.887-58.11 18.126-62.87 2.238-4.75 21.718-52.99 7.455-59.05" fill="#EDDAD3"/><path d="M1207.48 1846.79l1.76-16.39s-23.11-.17-25.82 1.77c0 0 1.97 13.77 2.2 15.83.26 2.07 21.86-1.21 21.86-1.21z" fill="#5C544D"/><path d="M1168.2 1881.05c27.5-.24 40.76 1.64 43.71-2.82 2.95-4.46-4.26-32.91-4.26-32.91s-6.52 2.36-22.25.93c0 0-6.85 8.3-13.47 11.92-6.62 3.61-17.03 5.04-20.95 8.78-2.81 2.71-10.29 14.34 17.22 14.1" fill="#3C4145"/><path d="M1052.66 1846.79l1.74-16.39s-23.11-.17-25.81 1.77c0 0 1.95 13.77 2.21 15.83.24 2.07 21.86-1.21 21.86-1.21z" fill="#5C544D"/><path d="M1013.35 1881.05c27.5-.72 40.77 1.64 43.72-2.82 2.95-4.46-4.27-32.91-4.27-32.91s-6.13 2.53-22.23.93c0 0-6.86 8.3-13.48 11.92-6.61 3.61-30.985 6.58-34.902 10.32-2.831 2.7-7.527 13.57 31.162 12.56" fill="#3C4145"/><path d="M1175.74 1476.78s11.5 34.16 9.99 63.6c-1.51 29.43 5.95 61.65 8.99 92.4 3.4 34.28 17.33 115.44 17.83 133.77.51 18.35-2.16 76.9-2.16 76.9l-27.86.65s-23.4-141.89-29.45-156.36c-6.06-14.49-36.12-117.7-37.12-129.28-1.01-11.59 59.78-81.68 59.78-81.68" fill="#DBD8E3"/><path d="M1058.63 1482.86s-15.3 80.68-17.32 98.7c-2.02 18.01-3.36 87.19-4.37 98.45-1.01 11.26-6.74 147.36-12.12 164.09h35.62s27.33-98.94 27.33-145.75 21.12-101.76 34.76-132.65c13.63-30.88 44.83-31.62 53.22-88.92 0 0-105.76-12.09-117.12 6.08" fill="#DBD8E3"/><path d="M1131.01 1207.12s-28.07-10.48-41.01 10.88c-12.95 21.37-11.7 64.15 2.45 69.4 14.16 5.27 35.41 2.51 42.65-10.86 7.25-13.36 13.79-32.69 13.47-45.61-.31-12.92-10.18-20.08-17.56-23.81" fill="#EEA886"/><path d="M1097.16 1286.09s1.14 7.36-.74 10.98c-1.87 3.63 35.31 3.72 35.31 3.72s3.02-19.71 8.75-36.36c5.72-16.67-43.32 21.66-43.32 21.66" fill="#EEA886"/><path d="M1140.48 1264.43s-2.57 4.22-13.04 2.58c-10.48-1.64-23.27-15.58-27.64-17.1-4.38-1.54-4.41-4.1-4.41-4.1l-2.75 3.99-4.64.3s4.24-12.47-2.16-17.55c-6.39-5.09 6.64-40.36 40.24-28.61 0 0 24.08 4.75 25.53 19.39 1.55 15.57-5.36 33.78-11.13 41.1" fill="#FCCCA2"/><path d="M1094.22 1296.64s.12-6.92 3.25-7.58c3.14-.67 34.65-3.7 38.51-2.18v8.06s-7.43 4.57-41.76 1.7z" fill="#E2D2CA"/><path d="M1096.07 1240.47c.6-2.46 6.85-9.49 9.25-1.96 2.4 7.53-3.62 17.66-6.98 16.79-3.35-.87-3.75-8.59-2.27-14.83z" fill="#EEA886"/><path d="M1094.22 1296.64s-17.28 6.21-37.29 14.72c0 0-23.02 8.59-25.5 34.01-1.33 13.49-15.69 85.08-18.4 91.15-2.69 6.06-34.542 103.38-35.666 105.4-1.123 2.03 25.996 13.28 27.796 12.39 1.8-.91 30.85-88.78 33.76-95.29 0 0 16.73-52.68 17.18-60.54 0 0 .48 22.39 1.37 28.67.9 6.28-14.87 128.29-14.42 131.65.45 3.37 71.67 7.65 100.17 4.5 28.5-3.14 51.5-9.69 51.5-9.69s-22.43-96.29-21.74-106.96c1.5-23.27 9.27-67.06 9.27-67.06l23.25 43.79-29.75 76.53 6.8 23.25s55.29-83.52 57.08-91.15c1.8-7.62-2.71-17.35-5.63-23.63-2.91-6.28-22.08-54.09-26.56-60.83-4.49-6.74-12.08-33.69-30.41-41.19-15.33-6.28-41.05-11.42-41.05-11.42l-41.76 1.7" fill="#63A4FF"/><path d="M1056.21 1586.02l-130.233-33.38 23.301-90.84 130.232 33.38-23.3 90.84" fill="#F25F54"/><path d="M966.026 1561.79s-3.722 6.01-5.085 7.73c-1.349 1.71 3.348 2.79 5.355 1.05 2.022-1.73-.27-8.78-.27-8.78" fill="#C98462"/><path d="M993.141 1582.32s2.202-2.29 2.681-3.76c0 0 .652-2.75 1.236-4.67.187-.61.367-1.14.51-1.46.621-1.37 2.404-4.2 2.982-7.91.58-3.71 2.19-20.37 2.19-20.37l-10.086-2.55-8.097-1.71s-17.511 17.47-18.448 20.87a6.87 6.87 0 00-.209.98c-.517 2.95.337 5.36.247 6.94-.03.59.06 6.38 1.401 7.46 1.872 1.51 3.782 1.79 5.355 1.28 0 0 3.79 2.8 6.958 2.62 0 0 3.423 2.68 7.295 1.36 0 0 3.775 2.34 5.985.92z" fill="#DE9D7D"/><path d="M1032.52 1476.96s-23.11 69.99-27.36 77.35c0 0-16.947-3.57-27.793-12.39l25.373-75.53 29.78 10.57" fill="#63A4FF"/><path d="M3117.61 1586.1s85.8-251.58-77.92-329.58c-163.74-77.99-302.74 34.75-329 95.76-26.26 61.01-19.31 171.94 3.08 249.29 22.4 77.35 19.14 195.11-29.52 234.49-48.65 39.38-108.98 104.79-106 237.93 1.86 82.6 325.08-211.29 325.08-211.29l214.28-276.6z" fill="#252E3B"/><path d="M2887.56 1885.36s-134.57 29.83-187.99 61.04c-53.4 31.21-172.02 174.78-172.02 236.51 0 61.74 518.73 119.4 518.73 119.4l98.33 358.92s262.19-63.97 293.4-117.03c31.22-53.06-99.58-433.32-121.96-510.28-22.84-78.51-116.82-133.25-226.07-148.56-109.25-15.3-202.42 0-202.42 0z" fill="#FFD255"/><path d="M3080.65 1884.13s-3.02 163.54-132.74 168.39c-129.72 4.84-102.71-156.86-102.71-156.86s94.87-38.44 235.45-11.53" fill="#EEA886"/><path d="M3135.53 1390.62s45.88 263.03-84.79 453.04c-135.33 196.78 84.79-453.04 84.79-453.04z" fill="#252E3B"/><path d="M3052.82 1768.5s-9.03 78.22 6.04 126.88c15.06 48.64-198.34 49.99-198.23 9.99.14-45.45 21.84-83.41 1.4-161.3-20.44-77.9 190.79 24.43 190.79 24.43" fill="#EEA886"/><path d="M2887.28 1778.47s67.38 70.19 153.54 7.33c0 0-7.12 44.85-69.09 50.64-61.97 5.8-84.45-57.97-84.45-57.97" fill="#A77860"/><path d="M2971.66 1299.42s170.28 50.38 145.95 286.67c-24.32 236.28-135.53 224.11-145.95 225.86-10.43 1.73-142.49 10.42-184.18-276.24-41.71-286.67 184.18-236.29 184.18-236.29" fill="#EEA886"/><path d="M2927.7 1404.78s92.53 147.17 189.91 181.31c0 0 53.18-246.94-166.45-298.69-219.62-51.73-185.22 249.43-168.83 329.73 0 0 45.75-118.14 145.37-212.35" fill="#252E3B"/><path d="M2803.59 1382.62s48.71-94.31 130.95-98.53c82.25-4.2 131.16 67.13 131.16 67.13s-32.11-80.32-131.06-80.32c-98.94 0-131.05 111.72-131.05 111.72" fill="#88C0FF"/><path d="M3138.42 2124.37l57.75 536.8h-760.05l-57.75-536.8h760.05z" fill="#FF7D19"/><path d="M2417.11 2636.14h753.38l-57.03-530.19h-753.39l57.04 530.19zm760.77 6.61h-766.72l-58.46-543.43h766.72l58.46 543.43z" fill="#FF822E"/><path d="M2834.42 2384.1c6.82 33.39-8.76 64.79-34.8 70.11-26.04 5.32-52.68-17.43-59.51-50.83-6.83-33.4 8.75-64.78 34.79-70.11 26.05-5.32 52.69 17.44 59.52 50.83" fill="#F46F21"/><path d="M3124.32 2607.22h141.83v53.95h-141.83v-53.95z" fill="#5FA0FF"/><path d="M2683.33 822.201c-60.82 0-110.3 49.474-110.3 110.285 0 60.819 49.48 110.294 110.3 110.294s110.3-49.475 110.3-110.294c0-60.811-49.48-110.285-110.3-110.285zm0 227.209c-64.48 0-116.93-52.45-116.93-116.924 0-64.466 52.45-116.912 116.93-116.912s116.93 52.446 116.93 116.912c0 64.474-52.45 116.924-116.93 116.924z" fill="#64A4FF"/><path d="M36.225 1657.12l-9.552-2.76c10.079-34.91 19.149-56.17 19.53-57.06l9.133 3.91c-.093.22-9.221 21.64-19.11 55.91zm-22.783 116.09l-9.892-1.02c1.993-19.45 5.003-39.46 8.947-59.43l9.748 1.93c-3.882 19.67-6.843 39.36-8.803 58.52zm-8.824 119.17c-2.572-19.28-3.941-39.51-4.053-60.1l9.943-.06c.108 20.18 1.448 39.98 3.964 58.84l-9.854 1.32zm34.094 115.39c-8.696-17.72-16.01-36.69-21.739-56.33l9.548-2.78c5.564 19.11 12.668 37.52 21.115 54.74l-8.924 4.37zm71.852 96.49c-14.892-13.83-28.486-28.94-40.385-44.9l7.973-5.94c11.542 15.48 24.723 30.13 39.176 43.56l-6.764 7.28zm1212.366 3.47l-1.25-9.86c20.85-2.66 40.44-4.16 59.89-4.61l.21 9.94c-19.09.43-38.35 1.91-58.85 4.53zm175.97 7.35c-19.21-4.45-38.79-7.7-58.17-9.64l1-9.9c19.79 2 39.78 5.31 59.41 9.84l-2.24 9.7zm-292.17 16.01l-2.46-9.63c21.4-5.47 40.46-9.91 58.27-13.59l2.02 9.73c-17.66 3.65-36.58 8.07-57.83 13.49zm403.36 23.37c-18.32-8.67-36.68-16.31-54.58-22.71l3.35-9.36c18.2 6.51 36.87 14.27 55.49 23.08l-4.26 8.99zm-518.19 8.31l-2.7-9.57c8.33-2.33 16.56-4.67 24.71-6.97 11.05-3.12 21.93-6.2 32.69-9.21l2.68 9.58c-10.75 3-21.63 6.08-32.66 9.19-8.16 2.31-16.39 4.63-24.72 6.98zm-881.385 8.24c-18.623-8.89-36.28-18.82-52.475-29.54l5.486-8.29c15.815 10.46 33.062 20.17 51.275 28.87l-4.286 8.96zm765.916 22.27l-2.322-9.66c18.245-4.38 37.101-9.16 57.661-14.64l2.57 9.61c-20.65 5.49-39.589 10.3-57.909 14.69zm-652.58 17.13c-20.033-4.85-39.425-10.48-57.644-16.75l3.233-9.39c17.921 6.15 37.021 11.7 56.752 16.47l-2.341 9.67zm535.458 6.9l-1.648-9.81c19.16-3.21 38.814-6.88 58.422-10.93l2.008 9.75a1676.76 1676.76 0 01-58.782 10.99zm-417.277 12.63c-20.388-2.02-40.372-4.61-59.396-7.71l1.595-9.81c18.823 3.06 38.604 5.63 58.782 7.63l-.981 9.89zm298.642 2.47l-.861-9.9c19.616-1.7 39.487-3.83 59.074-6.33l1.258 9.86a1493.052 1493.052 0 01-59.471 6.37zm-179.259 5.03a1697.02 1697.02 0 01-59.748-2.74l.622-9.92c19.886 1.26 39.877 2.18 59.411 2.73l-.285 9.93zm59.816.61l-.083-9.94c19.827-.17 39.81-.71 59.389-1.63l.464 9.93c-19.699.92-39.817 1.47-59.77 1.64zM1351.65 13.487l-1.06-9.886c20.12-2.157 40.31-3.28 60.02-3.34l.02 9.938c-19.35.06-39.2 1.168-58.98 3.288zm176.14 9.219a542.49 542.49 0 00-58.23-9.474l1.05-9.885a552.835 552.835 0 0159.31 9.645l-2.13 9.714zM1235.7 36.68l-2.75-9.555c19.6-5.647 39.21-10.47 58.28-14.32l1.97 9.744c-18.81 3.797-38.15 8.552-57.5 14.131zm404.47 22.4c-19.04-8.05-37.16-14.858-55.39-20.82l3.09-9.443c18.49 6.044 36.87 12.948 56.18 21.112l-3.88 9.151zm-515.86 18.094l-3.96-9.122c18.72-8.133 37.43-15.622 55.61-22.272l3.42 9.331c-18 6.583-36.52 13.997-55.07 22.063zm622.29 34.502c-19.47-10.672-36.68-19.726-52.6-27.68l4.43-8.896c16.05 8.013 33.37 17.127 52.95 27.859l-4.78 8.717zm-728.7 18.184l-4.82-8.702c17.82-9.833 35.65-19.195 53-27.808l4.42 8.898c-17.22 8.552-34.92 17.839-52.6 27.612zm832.79 39.924c-16.85-9.159-33.58-18.573-52.13-29.042l4.89-8.658c18.51 10.448 35.2 19.846 51.99 28.968l-4.75 8.732zm635.09 20.064l-.46-9.931c19.78-.928 39.9-1.138 59.97-.606l-.25 9.938a807.665 807.665 0 00-59.26.599zm-1569.751 1.303l-5.408-8.343a1835.32 1835.32 0 0150.678-31.717l5.138 8.508a1813.72 1813.72 0 00-50.408 31.552zm1746.961 9.459c-19.59-3.228-39.37-5.827-58.8-7.707l.96-9.893c19.65 1.902 39.65 4.531 59.45 7.796l-1.61 9.804zm-294.73 3.662l-1.95-9.744a790.889 790.889 0 0159.22-9.563l1.22 9.863a781.046 781.046 0 00-58.49 9.444zm-409.51 17.142c-17.51-6.83-35.45-14.723-54.88-24.137l4.33-8.942c19.19 9.294 36.91 17.083 54.16 23.815l-3.61 9.264zm819.83 5.827a1003.99 1003.99 0 00-57.4-15.098l2.24-9.683c19.2 4.441 38.71 9.57 57.97 15.247l-2.81 9.534zm-524.79 8.575l-2.8-9.541a538.035 538.035 0 0019.33-6.089 801.49 801.49 0 0137.66-11.616l2.7 9.572a786.464 786.464 0 00-37.2 11.465 530.06 530.06 0 01-19.69 6.209zm-178.87 16.049c-19.42-2.427-39.31-6.343-59.11-11.623l2.56-9.601c19.37 5.16 38.81 8.987 57.78 11.361l-1.23 9.863zm60.16 3.093l-.22-9.938c19.27-.427 39-2.277 58.64-5.505l1.61 9.811c-20.1 3.303-40.29 5.19-60.03 5.632zm755.34 12.17c-18.36-7.684-37-14.911-55.38-21.479l3.34-9.361a1142.926 1142.926 0 0155.88 21.666l-3.84 9.174zm107.19 51.27a1234.896 1234.896 0 00-52.97-26.953l4.3-8.972a1254.821 1254.821 0 0153.39 27.178l-4.72 8.747zm101.88 61.291a1274.051 1274.051 0 00-50.22-31.836l5.12-8.515a1270.32 1270.32 0 0150.62 32.083l-5.52 8.268zm95.15 71.229c-.17-.15-16.77-14.888-46.51-36.989l5.94-7.976c30.12 22.385 47.01 37.394 47.18 37.543l-6.61 7.422zM1956.02 2263.52l-249.86-72.64 74.9-22.58 174.96 95.22zm0 0l-93.39-93.79-57.49 11.67 150.88 82.12z" fill="#F5CC3E"/><path d="M1763.62 2207.58l2.01 28.9 190.39 27.04-192.4-55.94zM698.438 356.398L918.683 233.24l-75.709-4.995-144.536 128.153z" fill="#F5CC3E"/><path d="M698.438 356.398l67.77-108.996 56.872-1.513-124.642 110.509zm169.59-94.834l4.411 27.747-174.001 67.087 169.59-94.834z" fill="#F5CC3E"/><defs><linearGradient id="paint0_linear" x1="2899.1" y1="1687.13" x2="4055.51" y2="1687.13" gradientUnits="userSpaceOnUse"><stop stop-color="#4A55B0"/><stop offset="1" stop-color="#223263"/></linearGradient><linearGradient id="paint1_linear" x1="628.278" y1="976.595" x2="1487.26" y2="888.337" gradientUnits="userSpaceOnUse"><stop stop-color="#1E2245"/><stop offset="1" stop-color="#223263"/></linearGradient></defs></svg>