<svg width="4056" height="2698" viewBox="0 0 4056 2698" fill="none" xmlns="http://www.w3.org/2000/svg">
<path d="M3292.37 1868.62C3192.12 1766.5 3193.65 1602.46 3295.79 1502.22C3397.93 1401.98 3561.99 1403.51 3662.24 1505.64C3762.49 1607.76 3760.96 1771.81 3658.82 1872.03C3556.69 1972.27 3392.63 1970.74 3292.37 1868.62ZM3904.02 1943.58C3928.18 1903.46 3946.15 1860.62 3958 1816.48L4053.54 1798.18L4054.53 1692.51L4055.51 1586.84L3960.33 1566.76C3949.31 1522.4 3932.13 1479.24 3908.73 1438.67L3963.3 1358.24L3889.26 1282.83L3815.24 1207.41L3733.79 1260.47C3693.66 1236.31 3650.82 1218.34 3606.68 1206.5L3588.36 1110.97L3482.69 1109.98L3377.01 1109L3356.92 1204.17C3312.56 1215.19 3269.4 1232.36 3228.82 1255.76L3148.38 1201.2L3072.95 1275.22L2997.53 1349.24L3050.6 1430.68C3026.43 1470.8 3008.45 1513.63 2996.62 1557.78L2901.07 1576.09L2900.09 1681.75L2899.1 1787.41L2994.29 1807.49C3005.3 1851.85 3022.48 1895.01 3045.89 1935.59L2991.32 2016.01L3065.34 2091.43L3139.37 2166.85L3220.82 2113.79C3260.96 2137.94 3303.79 2155.92 3347.94 2167.76L3366.25 2263.29L3471.93 2264.28L3577.61 2265.26L3597.69 2170.08C3642.05 2159.08 3685.22 2141.9 3725.79 2118.49L3806.23 2173.07L3881.66 2099.04L3957.08 2025.02L3904.02 1943.58" fill="url(#paint0_linear)"/>
<path d="M934.26 1081.41C851.997 1013.21 840.62 891.234 908.832 808.989C977.051 726.736 1099.03 715.352 1181.29 783.563C1263.56 851.766 1274.94 973.741 1206.73 1055.99C1138.51 1138.23 1016.52 1149.62 934.26 1081.41ZM1394.32 1090.42C1409.2 1058.77 1419.28 1025.58 1424.71 991.887L1494.28 971L1486.95 892.44L1479.62 813.871L1407.38 806.217C1395.81 774.104 1379.76 743.362 1359.27 715.008L1393.68 651.103L1332.92 600.731L1272.18 550.36L1215.74 595.991C1184.08 581.102 1150.89 571.022 1117.19 565.6L1096.3 496.034L1017.72 503.366L939.144 510.697L931.497 582.93C899.379 594.493 868.625 610.542 840.276 631.025L776.363 596.635L725.978 657.371L675.607 718.108L721.236 774.546C706.354 806.203 696.272 839.387 690.849 873.088L621.274 893.975L628.6 972.536L635.94 1051.1L708.174 1058.76C719.746 1090.86 735.797 1121.61 756.282 1149.96L721.881 1213.87L782.632 1264.24L843.376 1314.61L899.821 1268.98C931.482 1283.87 964.67 1293.95 998.368 1299.38L1019.26 1368.94L1097.84 1361.61L1176.41 1354.28L1184.06 1282.05C1216.18 1270.48 1246.92 1254.43 1275.28 1233.94L1339.19 1268.34L1389.57 1207.6L1439.95 1146.86L1394.32 1090.42" fill="url(#paint1_linear)"/>
<path d="M3726.05 2679.45H3719.43V2208.64C3719.43 2103.88 3634.19 2018.66 3529.42 2018.66H3044.96C2936.53 2018.66 2848.32 1930.46 2848.32 1822.05V942.009C2848.32 837.251 2763.09 752.033 2658.32 752.033H1423.02V745.405H2658.32C2766.74 745.405 2854.95 833.604 2854.95 942.009V1822.05C2854.95 1926.8 2940.18 2012.04 3044.96 2012.04H3529.42C3637.85 2012.04 3726.05 2100.23 3726.05 2208.64V2679.45" fill="#64A4FF"/>
<path d="M1739.65 447.207C1739.65 447.207 1814.41 744.884 1634.91 826.261C1455.4 907.63 1489.79 758.634 1489.79 758.634C1489.79 758.634 1416.16 738.182 1616.53 624.594C1710.98 571.062 1739.65 447.207 1739.65 447.207" fill="#BBD070"/>
<path d="M2209.76 473.182C2209.76 473.182 2246.55 732.657 1906.84 844.821C1567.1 956.978 1518.73 1099.26 1518.73 1099.26C1518.73 1099.26 1508.57 524.153 2209.76 473.182" fill="#97A43C"/>
<path d="M1517.21 993.583C1416.48 955.142 1655.92 749.004 1839.93 754.568C2023.95 760.14 2148.65 828.231 2271.91 799.458C2271.91 799.458 2013.26 1182.89 1517.21 993.583Z" fill="#48753A"/>
<path d="M1038.45 1496.49C1039.51 1423.26 1137.02 1287.07 1137.02 1287.07C1137.02 1287.07 1141.53 1285.15 1141.6 1285.34C1141.66 1285.41 1146.63 1284.65 1146.63 1284.72C1146.73 1284.72 1161.78 1270.37 1161.88 1270.37C1165.46 1283.39 1197.76 1467.33 1205.68 1574.41C1114.1 1556.42 1037.92 1531.41 1038.45 1496.49V1496.49ZM1855.66 1165.81C1861.45 1087.56 1865.49 1014.37 1867.78 946.118C1848.89 936.113 1826.2 924.422 1808.03 915.802C1751.81 889.036 1673.48 852.991 1623.21 829.932C1593.79 816.415 1564.96 806.536 1564.96 806.536C1564.96 806.536 1364.07 787.289 1347.76 788.315C1342.62 788.615 1317.51 797.362 1284.57 809.921C1213.33 836.95 1075.99 891.987 1054.12 907.692C1022.05 930.646 907.298 1493.08 904.249 1531.27C901.276 1568.37 1060.32 1619.14 1207.6 1658.03C1207.5 1715.05 1206.34 1794.93 1205.05 1867.85C1204.85 1880.31 1204.62 1892.53 1204.38 1904.39H1848.85C1847.99 1891.87 1847.24 1879.51 1846.61 1867.85C1846.54 1866.29 1846.44 1864.77 1846.38 1863.24C1843.92 1813.85 1834.32 1725.39 1836.77 1639.24C1836.77 1639.24 1835.21 1548.43 1844.22 1509.34C1845.21 1336.73 1855.66 1165.81 1855.66 1165.81" fill="#DBD8E3"/>
<path d="M1867.58 1867.85C1863.34 1837.34 1859.33 1806.85 1855.71 1777C1855.71 1776.84 1855.65 1776.74 1855.65 1776.57C1854.48 1766.63 1853.29 1756.83 1852.17 1747.06C1852.1 1746.58 1852.07 1746.06 1852 1745.5C1847.29 1704.39 1843.39 1664.95 1840.57 1628.85C1838.46 1601.18 1840.37 1574.15 1844.18 1547.71C1855.38 1363.07 1860.96 1168.4 1860.96 1168.4C1866.85 1088.72 1870.23 1014.24 1872.48 944.83C1872.48 944.83 1620.23 825.626 1597.36 818.796C1597.36 818.796 1645.21 931.148 1681.1 1182.24C1694.88 1278.69 1720.43 1441.03 1738.98 1606.72V1606.75C1749.02 1696.17 1767.84 1787.24 1782.15 1867.85C1784.34 1880.31 1786.43 1892.5 1788.35 1904.39H1872.78C1870.98 1892.24 1869.27 1880.05 1867.58 1867.85" fill="#323657"/>
<path d="M1144.12 1429.98C1141.9 1345.96 1142.29 1287.34 1142.29 1287.34C1150.61 1316.13 1162.11 1398.39 1172.24 1480.15C1138.15 1462.99 1144.55 1446.95 1144.12 1429.98V1429.98ZM1447.6 1571.26C1457.54 1477.9 1466.49 1384.73 1462.17 1333.69C1427.38 923.262 1328.94 814.625 1314.66 798.719C1303.62 802.927 1261.61 818.7 1249.31 823.567C1181.99 850.109 1044.75 898.743 1026.25 912.029C994.181 934.99 867.734 1524.62 863.922 1562.75C861.368 1588.53 1026.39 1642.39 1194.74 1690.47C1193.18 1736.62 1197.55 1801.72 1182.21 1869.7C1179.53 1881.76 1175.56 1889.37 1174.94 1905.32L1409.62 1904.4C1411.05 1892.27 1412.54 1880.11 1414.03 1867.85C1418.5 1831.17 1423.17 1793.61 1427.81 1753.68C1498.19 1771.9 1546.04 1783.63 1546.04 1783.63C1546.04 1783.63 1612.15 1671.88 1631.33 1626.63C1634.61 1618.91 1549.51 1598.47 1447.6 1571.26" fill="#323657"/>
<path d="M1337.22 794.749C1337.22 794.749 1362.77 746.474 1355.71 609.416C1353.76 571.446 1555.18 699.465 1555.18 699.465C1555.18 699.465 1554.49 712.548 1554.05 730.207C1553.83 737.562 1553.69 745.613 1553.69 753.896C1553.69 756.18 1553.72 758.464 1553.72 760.756C1553.76 764.5 1553.79 768.207 1553.86 771.922C1553.96 776.528 1554.13 781.029 1554.35 785.372C1554.58 790.308 1554.91 794.973 1555.39 799.25C1556.21 807.533 1561.08 822.144 1562.84 826.158C1572.08 847.457 1412.63 848.685 1337.22 794.749" fill="#EEA987"/>
<path d="M1506.09 881.927L1543.21 931.797C1543.21 931.797 1521.46 960.914 1482.84 939.413L1506.09 881.927Z" fill="#E8734D"/>
<path d="M1533.28 933.814C1533.28 933.814 1669.29 1265.95 1640.27 1687.83L1597.37 1765.67L1549 1699.38C1549 1699.38 1541.2 1139.08 1502.6 932.481L1533.28 933.814" fill="#E8734D"/>
<path d="M1545.84 835.422L1506.1 881.922C1506.1 881.922 1442.3 869.565 1423.58 836.246C1404.85 802.927 1545.84 835.422 1545.84 835.422" fill="#EEA987"/>
<path d="M1554.95 794.734C1554.95 794.734 1550.34 830.18 1506.1 881.923L1554.39 946.801L1580.53 812.206L1554.95 794.734" fill="#C4C1CC"/>
<path d="M1349.36 752.108C1349.36 752.108 1441.59 856.423 1506.09 881.924L1476.1 956.104L1328.89 793.74L1349.36 752.108" fill="#C4C1CC"/>
<path d="M2297.57 1695.86C2297.57 1695.86 2175.14 1577.13 2094.84 1557.39C2057.72 1548.26 2008.83 1497.02 1962.36 1436.78C1947.05 1416.95 1932.03 1396.13 1917.74 1375.53C1917.7 1375.49 1917.7 1375.45 1917.7 1375.45C1860.69 1293.15 1816.03 1214.27 1816.03 1214.27C1816.03 1214.27 1647.54 1016.84 1782.75 928.833C1782.75 928.833 1840.69 927.582 1872.48 944.845C1905.16 962.586 1974.87 1108.05 1986.68 1133.82C1998.5 1159.54 2126.55 1398.81 2135.11 1404.19C2143.7 1409.56 2157.98 1429.23 2209.21 1456.81C2271.94 1490.58 2370.47 1589.41 2370.47 1589.41L2297.57 1695.86Z" fill="#323657"/>
<path d="M1709.88 1833.26C1709.88 1833.26 1692.78 1832.57 1685.45 1828.62C1685.45 1828.62 1672.66 1820.42 1663.21 1815.14C1660.21 1813.46 1657.55 1812.08 1655.74 1811.36C1648.19 1808.37 1630.73 1804.05 1614.62 1791.77C1598.52 1779.5 1546.04 1730.41 1546.04 1730.41L1579.96 1678.27L1595.62 1626.64C1595.62 1626.64 1717.99 1638.81 1734.31 1648.51C1735.9 1649.46 1737.43 1650.46 1738.8 1651.51C1751.83 1661.06 1757.5 1673.65 1763.77 1679.44C1766.06 1681.58 1787.37 1704.39 1786.18 1713.64C1784.54 1726.48 1778.19 1734.72 1770.22 1738.62C1770.22 1738.62 1765.91 1763.62 1752.98 1774.8C1752.98 1774.8 1749.74 1798 1729.7 1807.32C1729.7 1807.32 1723.78 1830.48 1709.88 1833.26" fill="#EFAA88"/>
<path d="M1515.05 255.803C1515.05 255.803 1736.21 202.495 1689.63 482.476C1643.04 762.463 1589.99 785.185 1455.26 729.369C1320.53 673.545 1329.89 494.458 1321.87 406.828C1313.84 319.206 1444.3 259.892 1515.05 255.803" fill="#EEA886"/>
<path d="M1398.84 449.701C1395.56 425.106 1346.73 416.793 1343.35 453.782C1339.97 490.778 1366.97 555.222 1385.36 548.572C1403.75 541.921 1403.38 483.611 1398.84 449.701Z" fill="#EEA886"/>
<path d="M1334.79 549.959C1334.79 549.959 1339.22 461.895 1371.31 458.674C1403.42 455.454 1408.88 490.818 1408.88 490.818L1441.43 496.472C1441.43 496.472 1430.03 419.506 1461.93 405.561C1493.83 391.617 1670.47 444.962 1695.9 421.948C1721.33 398.941 1706.91 242.696 1660.01 221.973C1613.11 201.251 1483.74 155.171 1390.41 220.356C1390.41 220.356 1316.81 213.054 1306.78 272.51C1296.75 331.959 1314.16 506.163 1334.79 549.959Z" fill="#16202E"/>
<path d="M1637.36 1626.64L1546.04 1783.63C1546.04 1783.63 1304.12 1721.3 1247.67 1705.38L1376.7 1551.82C1376.7 1551.82 1566.95 1595.28 1637.36 1626.64Z" fill="#323657"/>
<path d="M1554.35 785.373H1554.32C1435.69 773.278 1389.71 681.971 1389.71 681.971C1464.32 755.918 1553.69 753.896 1553.69 753.896C1553.69 756.181 1553.72 758.465 1553.72 760.756C1553.76 764.501 1553.79 768.208 1553.86 771.923C1553.95 776.528 1554.13 781.029 1554.35 785.373" fill="#A77860"/>
<path d="M3172.93 2224.02L3172.91 2224.02C3170.47 2224.92 3167.87 2225.45 3165.15 2225.6C3164.55 2225.63 3163.94 2225.64 3163.33 2225.64C3160.77 2225.6 3158.3 2225.2 3155.96 2224.5C3152.71 2223.53 3149.72 2221.99 3147.12 2219.97C3146.17 2219.25 3145.28 2218.43 3144.43 2217.58C3139.53 2212.61 3136.53 2205.77 3136.63 2198.24C3136.65 2196.28 3136.9 2194.37 3137.33 2192.53C3137.53 2191.64 3137.76 2190.77 3138.05 2189.91C3141.71 2179.1 3152 2171.38 3164.03 2171.53C3172.67 2171.64 3180.33 2175.8 3185.19 2182.17C3188.75 2186.83 3190.82 2192.64 3190.75 2198.94C3190.6 2210.51 3183.2 2220.29 3172.93 2224.02V2224.02ZM3192.52 2176.87C3186.03 2168.27 3175.77 2162.64 3164.15 2162.51C3148.11 2162.29 3134.37 2172.59 3129.49 2187.01C3128.31 2190.5 3127.65 2194.23 3127.6 2198.12C3127.54 2202.65 3128.33 2206.99 3129.8 2211C3132.15 2217.43 3136.27 2223 3141.58 2227.12C3146.87 2231.21 3153.32 2233.88 3160.38 2234.52C3161.31 2234.59 3162.26 2234.66 3163.22 2234.67C3163.82 2234.67 3164.42 2234.65 3165.01 2234.63C3165.21 2234.62 3165.43 2234.63 3165.64 2234.62C3169.26 2234.43 3172.74 2233.69 3176.01 2232.51C3189.71 2227.54 3199.57 2214.49 3199.78 2199.05C3199.89 2190.74 3197.17 2183.04 3192.52 2176.87" fill="#4DA8F2"/>
<path d="M1809.02 1497.7C1946.51 1639.21 2128.17 1817.43 2128.17 1817.43L2199.18 1682.64C2199.18 1682.64 2037.83 1493.51 1928.45 1367.31C1894.92 1383.75 1833.37 1422.97 1809.02 1497.7Z" fill="#EEA886"/>
<path d="M1724.1 1687.98C1724.1 1687.98 1761.11 1705.87 1770.78 1713.83C1780.45 1721.8 1819.6 1751.11 1829.1 1758.01C1838.58 1764.91 1814.78 1784.52 1744.76 1754.2C1674.73 1723.87 1724.1 1687.98 1724.1 1687.98Z" fill="#EEA886"/>
<path d="M1727.33 1282.94L1662.82 1882.7H2512L2576.52 1282.94H1727.33Z" fill="#FF7D19"/>
<path d="M1712.01 1848.38H2554.53L2618.34 1255.25H1775.81L1712.01 1848.38ZM2560.48 1855.02H1704.63L1769.86 1248.63H2625.71L2560.48 1855.02Z" fill="#F46F21"/>
<path d="M1595.24 1828.74H1737.07V1882.7H1595.24V1828.74Z" fill="#FFC955"/>
<path d="M266.307 1881.45V1917.99H230.803V1881.45H266.307Z" fill="#96CBFF"/>
<path d="M301.811 1881.45V1917.99H266.307V1881.45H301.811Z" fill="#95CAFF"/>
<path d="M337.317 1881.45V1917.99H301.812V1881.45H337.317Z" fill="#94C9FF"/>
<path d="M372.821 1881.45V1917.99H337.316V1881.45H372.821Z" fill="#93C9FF"/>
<path d="M408.323 1881.45V1917.99H372.82V1881.45H408.323Z" fill="#92C8FF"/>
<path d="M443.828 1881.45V1917.99H408.325V1881.45H443.828Z" fill="#91C7FF"/>
<path d="M479.334 1881.45V1917.99H443.824V1881.45H479.334Z" fill="#90C6FF"/>
<path d="M514.838 1881.45V1917.99H479.335V1881.45H514.838Z" fill="#8FC6FF"/>
<path d="M550.349 1881.45V1917.99H514.839V1881.45H550.349Z" fill="#8EC5FF"/>
<path d="M585.851 1881.45V1917.99H550.349V1881.45H585.851Z" fill="#8DC4FF"/>
<path d="M621.364 1881.45V1917.99H585.854V1881.45H621.364Z" fill="#8CC3FF"/>
<path d="M656.866 1881.45V1917.99H621.363V1881.45H656.866Z" fill="#8BC2FF"/>
<path d="M692.37 1881.45V1917.99H656.867V1881.45H692.37Z" fill="#8AC2FF"/>
<path d="M727.87 1881.45V1917.99H692.367V1881.45H727.87Z" fill="#89C1FF"/>
<path d="M763.374 1881.45V1917.99H727.871V1881.45H763.374Z" fill="#88C0FF"/>
<path d="M798.886 1881.45V1917.99H763.376V1881.45H798.886Z" fill="#87BFFF"/>
<path d="M834.389 1881.45V1917.99H798.886V1881.45H834.389Z" fill="#86BFFF"/>
<path d="M869.889 1881.45V1917.99H834.386V1881.45H869.889Z" fill="#85BEFF"/>
<path d="M905.392 1881.45V1917.99H869.89V1881.45H905.392Z" fill="#84BDFF"/>
<path d="M940.911 1881.45V1917.99H905.394V1881.45H940.911Z" fill="#83BCFF"/>
<path d="M976.413 1881.45V1917.99H940.91V1881.45H976.413Z" fill="#82BBFF"/>
<path d="M1011.92 1881.45V1917.99H976.414V1881.45H1011.92Z" fill="#81BBFF"/>
<path d="M1047.42 1881.45V1917.99H1011.92V1881.45H1047.42Z" fill="#80BAFF"/>
<path d="M1082.93 1881.45V1917.99H1047.42V1881.45H1082.93Z" fill="#7FB9FF"/>
<path d="M1118.43 1881.45V1917.99H1082.93V1881.45H1118.43Z" fill="#7EB8FF"/>
<path d="M1153.93 1881.45V1917.99H1118.43V1881.45H1153.93Z" fill="#7DB7FF"/>
<path d="M1189.44 1881.45V1917.99H1153.94V1881.45H1189.44Z" fill="#7CB7FF"/>
<path d="M1224.94 1881.45V1917.99H1189.44V1881.45H1224.94Z" fill="#7BB6FF"/>
<path d="M1260.45 1881.45V1917.99H1224.94V1881.45H1260.45Z" fill="#7AB5FF"/>
<path d="M1295.95 1881.45V1917.99H1260.45V1881.45H1295.95Z" fill="#79B4FF"/>
<path d="M1331.46 1881.45V1917.99H1295.95V1881.45H1331.46Z" fill="#78B4FF"/>
<path d="M1366.97 1881.45V1917.99H1331.46V1881.45H1366.97Z" fill="#77B3FF"/>
<path d="M1402.47 1881.45V1917.99H1366.96V1881.45H1402.47Z" fill="#76B2FF"/>
<path d="M1437.98 1881.45V1917.99H1402.47V1881.45H1437.98Z" fill="#74B1FF"/>
<path d="M1473.48 1881.45V1917.99H1437.98V1881.45H1473.48Z" fill="#73B0FF"/>
<path d="M1508.99 1881.45V1917.99H1473.48V1881.45H1508.99Z" fill="#72B0FF"/>
<path d="M1544.49 1881.45V1917.99H1508.98V1881.45H1544.49Z" fill="#71AFFF"/>
<path d="M1580 1881.45V1917.99H1544.5V1881.45H1580Z" fill="#70AEFF"/>
<path d="M1615.5 1881.45V1917.99H1580V1881.45H1615.5Z" fill="#6FADFF"/>
<path d="M1651 1881.45V1917.99H1615.5V1881.45H1651Z" fill="#6EADFF"/>
<path d="M1686.52 1881.45V1917.99H1651V1881.45H1686.52Z" fill="#6DACFF"/>
<path d="M1722.03 1881.45V1917.99H1686.51V1881.45H1722.03Z" fill="#6CABFF"/>
<path d="M1757.53 1881.45V1917.99H1722.03V1881.45H1757.53Z" fill="#6BAAFF"/>
<path d="M1793.03 1881.45V1917.99H1757.52V1881.45H1793.03Z" fill="#6AA9FF"/>
<path d="M1828.53 1881.45V1917.99H1793.03V1881.45H1828.53Z" fill="#69A9FF"/>
<path d="M1864.04 1881.45V1917.99H1828.53V1881.45H1864.04Z" fill="#68A8FF"/>
<path d="M1899.55 1881.45V1917.99H1864.04V1881.45H1899.55Z" fill="#67A7FF"/>
<path d="M1935.05 1881.45V1917.99H1899.54V1881.45H1935.05Z" fill="#66A6FF"/>
<path d="M1970.55 1881.45V1917.99H1935.05V1881.45H1970.55Z" fill="#65A6FF"/>
<path d="M2006.06 1881.45V1917.99H1970.55V1881.45H2006.06Z" fill="#64A5FF"/>
<path d="M2041.56 1881.45V1917.99H2006.06V1881.45H2041.56Z" fill="#63A4FF"/>
<path d="M2077.08 1881.45V1917.99H2041.57V1881.45H2077.08Z" fill="#62A3FF"/>
<path d="M2112.58 1881.45V1917.99H2077.08V1881.45H2112.58Z" fill="#61A2FF"/>
<path d="M2148.09 1881.45V1917.99H2112.58V1881.45H2148.09Z" fill="#60A2FF"/>
<path d="M2183.59 1881.45V1917.99H2148.08V1881.45H2183.59Z" fill="#5FA1FF"/>
<path d="M2219.09 1881.45V1917.99H2183.59V1881.45H2219.09Z" fill="#5EA0FF"/>
<path d="M2254.6 1881.45V1917.99H2219.09V1881.45H2254.6Z" fill="#5D9FFF"/>
<path d="M2290.1 1881.45V1917.99H2254.59V1881.45H2290.1Z" fill="#5C9EFF"/>
<path d="M2325.61 1881.45V1917.99H2290.1V1881.45H2325.61Z" fill="#5B9EFF"/>
<path d="M2361.11 1881.45V1917.99H2325.61V1881.45H2361.11Z" fill="#5A9DFF"/>
<path d="M2396.61 1881.45V1917.99H2361.11V1881.45H2396.61Z" fill="#599CFF"/>
<path d="M2432.11 1881.45V1917.99H2396.61V1881.45H2432.11Z" fill="#589BFF"/>
<path d="M2467.63 1881.45V1917.99H2432.12V1881.45H2467.63Z" fill="#579BFF"/>
<path d="M2503.14 1881.45V1917.99H2467.64V1881.45H2503.14Z" fill="#569AFF"/>
<path d="M2538.64 1881.45V1917.99H2503.14V1881.45H2538.64Z" fill="#5599FF"/>
<path d="M3948.94 2697.73H1949.39V2661.18H3948.94V2697.73Z" fill="#FFC955"/>
<path d="M2072.51 1573.18C2065.69 1606.57 2081.27 1637.95 2107.31 1643.27C2133.35 1648.6 2160 1625.84 2166.82 1592.44C2173.65 1559.05 2158.07 1527.66 2132.03 1522.35C2105.98 1517.02 2079.34 1539.78 2072.51 1573.18" fill="#F46F21"/>
<path d="M3692.07 1335.46C3692.07 1335.46 3711.65 1368.67 3719.93 1374.09C3731.15 1381.45 3724.12 1388.89 3718.79 1388.89C3713.46 1388.9 3686.22 1390.85 3680.23 1384.04C3674.23 1377.24 3671.25 1356.83 3665.67 1351.5C3660.09 1346.16 3654.32 1324.95 3668.39 1319.79C3680.82 1315.24 3692.07 1335.46 3692.07 1335.46" fill="#6069A8"/>
<path d="M3683.58 1320.86C3683.58 1320.86 3706.01 1359.74 3709.89 1365.49C3713.75 1371.23 3702.61 1371.22 3695.7 1368.49C3688.79 1365.77 3671.42 1337.88 3668.92 1332.8C3665.94 1326.74 3668.39 1319.79 3668.39 1319.79L3683.58 1320.86Z" fill="#202338"/>
<path d="M3660.86 1341.78L3666.04 1381.65L3668.78 1381.77L3667.93 1353.08L3660.86 1341.78" fill="#6069A8"/>
<path d="M3497.82 1335.46C3497.82 1335.46 3517.41 1368.67 3525.68 1374.09C3536.91 1381.45 3529.87 1388.89 3524.54 1388.89C3519.21 1388.9 3491.98 1390.85 3485.99 1384.04C3479.98 1377.24 3477.01 1356.83 3471.43 1351.5C3465.85 1346.16 3459.89 1324.4 3474.14 1319.79C3486.64 1315.76 3497.82 1335.46 3497.82 1335.46" fill="#6069A8"/>
<path d="M3490.52 1320.94C3490.52 1320.94 3511.77 1359.74 3515.64 1365.49C3519.5 1371.23 3508.36 1371.22 3501.45 1368.49C3494.54 1365.77 3477.17 1337.88 3474.68 1332.8C3471.7 1326.74 3474.14 1319.79 3474.14 1319.79L3490.52 1320.94Z" fill="#202338"/>
<path d="M3466.62 1341.78L3471.79 1381.65L3474.53 1381.77L3473.68 1353.08L3466.62 1341.78" fill="#6069A8"/>
<path d="M3410.91 1033.29L3588.17 1114.06C3588.17 1114.06 3607.96 1120.49 3610.18 1142.46C3617.09 1211.02 3668.39 1319.79 3668.39 1319.79C3684.85 1327.84 3683.58 1320.85 3683.58 1320.85C3673.21 1287.56 3660.59 1150.37 3656.08 1095.21C3655.13 1083.52 3654.53 1075.52 3654.41 1072.96C3654.32 1071.23 3652.42 1068.94 3649.13 1066.28C3624.81 1046.56 3524.72 1005.73 3524.72 1005.73C3449.58 1003.83 3410.91 1033.29 3410.91 1033.29" fill="#202338"/>
<path d="M3377.5 1067.98C3382.99 1115.89 3451.38 1110.4 3451.38 1110.4H3534.28C3534.28 1110.4 3512.51 1158.84 3504.1 1199.7C3495.18 1243.07 3474.14 1319.79 3474.14 1319.79C3474.14 1319.79 3475.53 1322.4 3490.52 1320.94C3490.52 1320.94 3555.59 1191.27 3580.5 1158.67C3585.85 1151.65 3601.21 1113.58 3603.85 1090.87C3604.74 1083.22 3604.2 1077.32 3601.34 1074.93C3598.47 1072.52 3591.85 1067.98 3583.04 1062.42C3557.08 1046.05 3511.99 1020.85 3486.87 1015.2C3453.22 1007.64 3400 993.47 3400 993.47C3400 993.47 3372.02 1020.07 3377.5 1067.98" fill="#202338"/>
<path d="M3433.92 698.975C3433.92 698.975 3421.51 675.421 3427.56 650.34C3433.6 625.259 3456.88 600.268 3490.96 611.742C3525.04 623.222 3552.59 649.696 3532.16 680.297C3511.73 710.905 3550.64 724.73 3540.73 739.296C3530.81 753.862 3534.58 769.065 3538.77 772.458C3542.97 775.843 3556.51 787.923 3555.02 802.219C3553.53 816.524 3488.9 760.55 3488.9 760.55C3488.9 760.55 3453.71 689.83 3433.92 698.975" fill="#464240"/>
<path d="M3537.8 999.987C3537.8 999.987 3532.66 1024.92 3400.27 993.441C3400.27 993.441 3444.65 978.703 3537.8 999.987Z" fill="#EB4747"/>
<path d="M3398.77 1000.44C3396.71 1004.35 3394.66 1008.27 3392.61 1012.19C3441.01 1013.6 3489.4 1015 3537.8 1016.42C3530.14 990.785 3532.62 956.08 3533.96 929.734C3535.6 897.56 3553.38 875.183 3551.48 842.643C3561.05 844.185 3562.71 844.485 3572.3 845.953C3557.64 804.171 3552.61 783.479 3507.06 767.4C3492.23 762.165 3482.48 761.124 3466.43 762.449C3413.67 766.801 3397.76 767.422 3371.85 815.218C3412.41 821.673 3405.74 836.24 3418.04 876.583C3424.04 896.257 3430.3 918.215 3427.08 938.967C3423.92 959.398 3398.77 981.805 3398.77 1000.44" fill="#5F8CC9"/>
<path d="M3482.95 777.528C3461.36 773.447 3465.96 761.442 3465.96 761.442C3465.96 761.442 3466.95 754.664 3467.34 746.104C3467.45 743.91 3467.51 741.595 3467.5 739.251C3467.49 735.694 3467.31 732.054 3466.9 728.632C3465.13 714.148 3506.1 722.783 3506.1 722.783C3506.1 722.783 3503.74 752.11 3509.39 760.895C3515.03 769.687 3504.55 781.602 3482.95 777.528" fill="#EEA886"/>
<path d="M3441.77 761.362C3441.77 761.362 3485.32 811.644 3501.42 823.297C3501.42 823.297 3519.92 806.581 3508.51 762.448C3508.51 762.448 3487.49 751.918 3441.77 761.362" fill="#EEA886"/>
<path d="M3442.95 640.349C3442.95 640.349 3420.34 683.92 3442.77 725.193C3465.2 766.465 3509.27 707.219 3512.13 700.269C3514.98 693.319 3530.09 654.001 3500.03 642.056C3469.97 630.104 3449.35 628.523 3442.95 640.349" fill="#EEA886"/>
<path d="M3450.47 655.805C3450.47 655.805 3434.9 676.25 3433.06 691.363C3433.06 691.363 3426.86 662.8 3444.39 635.352C3461.91 607.905 3506.47 634.049 3512.44 645.013C3518.41 655.977 3535.9 665.638 3506.52 712.76C3506.52 712.76 3453.67 676.048 3450.47 655.805Z" fill="#464240"/>
<path d="M3486.62 729.541C3486.62 729.541 3482.69 738.116 3467.35 746.1C3467.45 743.905 3467.51 741.591 3467.5 739.247C3467.5 739.247 3477.89 737.989 3486.62 729.541" fill="#A77860"/>
<path d="M3258.04 961.235C3258.04 961.235 3247.28 966.013 3242.19 963.848C3237.09 961.677 3229.2 961.257 3226.71 961.25C3223.39 961.242 3212.98 957.535 3213.16 961.594C3213.33 965.661 3230.06 968.499 3233.48 969.772C3236.91 971.038 3223.24 978.557 3221.97 981.897C3220.7 985.237 3236.12 1007.16 3244.82 1000.91C3253.51 994.666 3258.22 982.197 3260 981.41C3261.77 980.617 3266.52 977.112 3266.52 977.112L3258.04 961.235" fill="#EEA886"/>
<path d="M3223.62 979.96C3223.62 979.96 3198.41 1000.86 3198.01 1003.69C3197.62 1006.51 3198.94 1007.83 3201.39 1005.97C3203.84 1004.12 3226.39 986.491 3226.39 986.491C3226.39 986.491 3201.12 1016.33 3200.28 1018.54C3199.78 1019.83 3202.2 1022.53 3203.61 1021.66C3205.03 1020.79 3231.89 992.699 3231.89 992.699C3231.89 992.699 3208.36 1020.6 3208.23 1022.69C3208.12 1024.52 3210.95 1026.49 3212.85 1024.54C3214.76 1022.6 3238.18 997.979 3238.18 997.979C3238.18 997.979 3222.43 1019.4 3223.4 1021.29C3223.99 1022.45 3225.98 1024.86 3229.86 1019.2C3233.74 1013.54 3244.39 1001.19 3244.39 1001.19L3223.62 979.96" fill="#EEA886"/>
<path d="M3525.63 1110.4H3451.38C3451.38 1110.4 3382.99 1115.88 3377.51 1067.97C3372.02 1020.07 3400 993.465 3400 993.465C3400 993.465 3436.13 1003.09 3467.67 1010.7C3483.47 1007.35 3502.5 1005.16 3524.73 1005.73C3524.73 1005.73 3658.45 1049.91 3654.42 1073.17C3654.42 1073.17 3598.49 1043.27 3525.63 1110.4" fill="#FFA200"/>
<path d="M3477.3 1027.44L3618.85 1025.36L3547.38 1061.64L3477.3 1027.44Z" fill="#5E5853"/>
<path d="M3521.27 1009.36C3521.27 1009.36 3489.43 1021.68 3450.4 1010.54L3448.57 995.966L3528.94 1000.44L3521.27 1009.36" fill="#5F8CC9"/>
<path d="M3547.38 1061.64L3477.3 1034.5V1027.44L3552.93 1054.72L3547.38 1061.64" fill="#91887F"/>
<path d="M3520.79 1016.1C3520.41 1021.33 3525.69 1025.1 3530.52 1023.05L3538.74 1019.53C3541.21 1018.48 3542.64 1015.88 3542.22 1013.22C3538.79 991.816 3531.45 908.485 3542.18 894.18C3546.15 888.893 3548.63 884.265 3550.02 880.213C3557.11 898.479 3565.92 922.002 3569.42 934.659L3636.3 1023.61L3658.72 1029.3C3630.74 961.889 3608.26 926.174 3608.26 926.174C3603.89 914.423 3591.34 878.85 3580.23 847.171C3573.2 827.168 3566.76 808.722 3563.29 798.807C3561.54 793.789 3558.08 789.543 3553.51 786.816C3543.15 780.623 3525.9 770.872 3510.24 763.271C3510.18 763.241 3510.12 763.218 3510.05 763.181C3509.55 762.941 3509.06 762.694 3508.55 762.462C3508.54 762.454 3508.53 762.454 3508.53 762.454C3508.52 762.447 3508.51 762.447 3508.51 762.447C3538.28 807.471 3526.67 934.614 3520.8 1015.92C3520.8 1015.98 3520.79 1016.04 3520.79 1016.1" fill="#EDDAD3"/>
<path d="M3410.31 766.29C3400.77 767.765 3377.13 790.705 3364.59 813.868C3350.25 840.297 3335.68 870.396 3324.74 880.297C3304.65 898.503 3248.4 962.849 3245.71 961.291C3244.7 960.692 3261.14 980.508 3263.23 981.437C3264.28 981.894 3355.7 902.689 3364.48 890.624C3372.81 879.181 3395.07 831.168 3401.73 832.224C3401.73 832.224 3401.73 832.239 3401.75 832.254C3401.75 832.262 3401.75 832.269 3401.75 832.269C3402.26 833.362 3410.36 850.925 3418.04 876.582C3418.16 877.009 3418.29 877.436 3418.42 877.863C3423.71 895.762 3423.22 915.196 3420.36 937.027C3418.19 953.518 3405.89 980.456 3398.47 993.577C3397.57 995.15 3397.8 998.145 3398.77 1000.43C3398.77 1000.43 3398.77 1000.43 3398.77 1000.44C3399.34 1001.8 3400.18 1002.91 3401.2 1003.28L3428.04 1013.22L3434.35 1015.56C3438.89 1017.24 3443.65 1016.36 3447.21 1013.78C3450.12 1011.66 3452.24 1008.4 3452.75 1004.45C3458.72 958.55 3466.27 911.654 3472.29 893.987C3498.7 816.475 3461.97 758.224 3461.97 758.224C3461.97 758.224 3418.67 763.167 3410.31 766.29" fill="#EDDAD3"/>
<path d="M3547.38 1061.64L3589.49 946.703L3725.22 948.92L3685.1 1054.84L3547.38 1061.64" fill="#6E6760"/>
<path d="M3632.92 997.545C3628.78 1005.83 3630.02 1014.85 3635.71 1017.68C3641.4 1020.53 3649.36 1016.13 3653.5 1007.84C3657.64 999.567 3656.39 990.55 3650.71 987.704C3645.02 984.859 3637.05 989.27 3632.92 997.545Z" fill="#807066"/>
<path d="M3489.84 683.733C3489.84 683.733 3498.54 697.258 3490.5 708.934C3482.46 720.609 3492.53 732.075 3494.27 744.417C3496.01 756.759 3460.74 789.591 3499.97 806.112C3539.19 822.633 3551.68 795.328 3541.67 780.297C3531.66 765.274 3524.56 753.082 3523.72 731.648C3522.86 710.229 3515.81 676.828 3489.84 683.733" fill="#464240"/>
<path d="M3298.11 627.591H3379.95V699.396L3367.46 686.897H3298.11V627.591Z" fill="#FF7D19"/>
<path d="M2838.73 1537.72C2838.73 1537.72 2660.36 1707.43 2747.13 1839.57C2833.9 1971.72 2874.5 1855.97 2874.5 1855.97C2874.5 1855.97 2933.19 1873.68 2846.09 1710.76C2805.03 1633.97 2838.73 1537.72 2838.73 1537.72" fill="#BBD070"/>
<path d="M2508.93 1353.73C2508.93 1353.73 2372.68 1513.83 2554.84 1735.54C2737.01 1957.26 2708.77 2074.46 2708.77 2074.46C2708.77 2074.46 2962.35 1688.98 2508.93 1353.73Z" fill="#97A43C"/>
<path d="M2749.85 2007.52C2834.62 2024.66 2766.02 1778.2 2638.9 1703.06C2511.78 1627.91 2398.05 1620.59 2326.85 1548.23C2326.85 1548.23 2332.4 1923.11 2749.85 2007.52Z" fill="#48753A"/>
<path d="M2195.83 2115.62C2195.83 2115.62 2199.72 2105.99 2200.35 2104.53C2200.99 2103.09 2204.73 2100.72 2209.26 2098.38C2213.8 2096.04 2220.97 2094.9 2221.74 2095.33C2222.51 2095.75 2223.48 2095.82 2224.48 2097.86C2225.47 2099.88 2225.18 2102.15 2225.18 2102.15C2225.18 2102.15 2227.59 2104.07 2227.04 2106.83C2227.04 2106.83 2229.21 2108.75 2228.07 2111.78C2228.07 2111.78 2230.14 2113.71 2229.12 2115.84C2229.12 2115.84 2225.38 2118.21 2224.24 2119.5C2223.11 2120.78 2214.98 2125.19 2206.53 2128.22C2206.53 2128.22 2197.58 2128.39 2195.83 2115.62" fill="#EEA886"/>
<path d="M2209.6 2110.37C2209.6 2110.37 2209.7 2115.58 2208.98 2117.05C2208.28 2118.53 2219.56 2121.81 2219.56 2121.81C2219.56 2121.81 2215.95 2110.42 2209.6 2110.37Z" fill="#CF8C6C"/>
<path d="M1999.01 2619.96L2003.94 2604.62L2024.79 2607.99L2021.68 2621.84L1999.01 2619.96Z" fill="#3B3F66"/>
<path d="M2169.93 2618.15L2171.1 2626.58L2193.93 2622.78L2192.71 2610.18L2169.93 2618.15" fill="#555C94"/>
<path d="M2120.5 2381.75C2120.5 2381.75 2117.14 2400.07 2113.23 2420.41C2112.55 2423.95 2111.87 2427.55 2111.16 2431.13C2107.35 2450.72 2103.49 2469.56 2102.07 2473.47C2098.84 2482.33 2028.94 2610.39 2028.94 2610.39C2028.94 2610.39 2000.36 2608.21 1999.29 2604.54C1999.29 2604.54 2057.89 2465.49 2057.55 2460.42C2057.23 2455.36 2064.71 2312.81 2064.71 2312.81C2064.71 2312.81 2118.95 2373.52 2120.5 2381.75" fill="#354C70"/>
<path d="M2152.43 2304.66C2152.43 2304.66 2179.78 2444.69 2182.12 2455.41C2184.46 2466.12 2194.82 2609.57 2194.82 2609.57C2194.82 2609.57 2188.67 2622.24 2165.97 2617.47C2165.97 2617.47 2135.01 2463.35 2132.4 2458.18C2122.28 2438.14 2072.59 2341.05 2067.77 2327.19C2062.96 2313.33 2064.37 2297.16 2064.37 2297.16C2064.37 2297.16 2101.29 2276.42 2152.43 2304.66" fill="#354C70"/>
<path d="M2140.93 2123.29C2140.93 2123.29 2152.93 2153.18 2155.94 2152.31C2158.96 2151.42 2193.43 2110.95 2193.43 2110.95C2193.43 2110.95 2209.21 2130.63 2207.09 2132.88C2204.15 2136.03 2163.43 2203.71 2157.83 2202.49C2152.23 2201.26 2127.2 2159.9 2127.2 2159.9C2127.2 2159.9 2125.78 2128.7 2140.93 2123.29Z" fill="#DEB135"/>
<path d="M2089.64 2066.19C2089.64 2066.19 2120.74 2089.97 2129.33 2099.4C2137.91 2108.83 2161.61 2147.93 2159.9 2159.69C2153.36 2204.79 2150.24 2243.22 2150.04 2273.98C2149.86 2300.79 2158.4 2307.63 2153.09 2308.02C2146.98 2308.49 2068.71 2336.85 2057.12 2340.3C2057.12 2340.3 2064.72 2245.92 2068.56 2235.03C2072.41 2224.14 2056.25 2110.01 2089.64 2066.19Z" fill="#F2C344"/>
<path d="M2289.98 2021.1L2296.95 2056.26L2303.93 2091.42C2303.93 2091.42 2264 2078.92 2218.67 2087.92L2215.6 2072.41L2212.49 2056.81C2257.82 2047.81 2289.98 2021.1 2289.98 2021.1Z" fill="#D9D0C4"/>
<path d="M2171.1 2626.59C2171.1 2626.59 2188.33 2623.26 2188.94 2622.74C2189.54 2622.21 2193.24 2615.41 2195.9 2616.59C2198.56 2617.78 2198.6 2626.06 2201.2 2627.46C2203.81 2628.87 2224.37 2642.75 2226.9 2645.28C2229.42 2647.81 2245 2646.32 2246.78 2650.72C2248.57 2655.12 2248.72 2665.5 2225.48 2663.05C2202.25 2660.61 2175.72 2664.39 2170.72 2661.65C2165.71 2658.9 2169.5 2633.28 2171.1 2626.59" fill="#84BDFF"/>
<path d="M1998.74 2619.59C1998.74 2619.59 2016.29 2619.05 2016.96 2618.63C2017.64 2618.21 2022.38 2612.09 2024.82 2613.69C2027.26 2615.29 2025.97 2623.46 2028.31 2625.27C2030.66 2627.07 2048.74 2644.07 2050.82 2646.97C2052.91 2649.88 2068.52 2650.9 2069.59 2655.52C2070.65 2660.14 2069.13 2670.42 2046.59 2664.29C2024.05 2658.16 1997.26 2657.64 1992.75 2654.14C1988.26 2650.62 1996.09 2625.93 1998.74 2619.59" fill="#84BDFF"/>
<path d="M2134.98 2311.15C2134.98 2311.15 2137.08 2319.68 2140.44 2321.53C2143.8 2323.38 2124.74 2341.61 2124.74 2341.61C2124.74 2341.61 2117 2324.71 2117.21 2323C2117.43 2321.3 2134.98 2311.15 2134.98 2311.15" fill="#EEA987"/>
<path d="M2075.82 2103.06C2075.82 2103.06 2053.49 2209.24 2051.66 2220.12C2049.93 2230.41 2117.12 2328.64 2117.12 2328.64L2139.45 2315.39C2139.45 2315.39 2085.24 2216.83 2085.33 2212.33C2085.39 2207.83 2111.34 2122.24 2111.34 2122.24C2111.34 2122.24 2122.19 2103.6 2102.95 2094.55C2083.72 2085.5 2075.82 2103.06 2075.82 2103.06" fill="#FFD255"/>
<path d="M2148.07 2318.47C2148.07 2318.47 2155.33 2354.58 2154.89 2365.64C2154.44 2376.69 2113.2 2348.23 2115.3 2337.23L2148.07 2318.47Z" fill="#3C5780"/>
<path d="M2089.64 2066.19C2089.64 2066.19 2146.29 2128.08 2142.8 2121.22C2130.36 2096.76 2121.68 2092.63 2121.86 2088.07C2121.99 2084.57 2123.36 2074.4 2123.59 2071C2124.03 2064.51 2124.51 2059.24 2124.51 2059.24C2124.51 2059.24 2096.38 2019.73 2097.62 2033.2C2098.86 2046.66 2089.64 2066.19 2089.64 2066.19Z" fill="#EEA886"/>
<path d="M2143.59 1993.35C2143.59 1993.35 2151.38 2011.63 2151.5 2015.91C2151.6 2020.19 2150.52 2023.47 2151.19 2028.4C2151.87 2033.51 2156.15 2044.22 2155.62 2047.18C2154.99 2050.77 2147.45 2048.91 2146.41 2054.81C2145.37 2060.7 2139.89 2071.78 2137.16 2072.01C2130.14 2072.59 2103.28 2061.64 2101.57 2056.02C2099.87 2050.4 2090.13 2019.07 2087.1 2013.11C2084.08 2007.15 2134.42 1974.5 2139.01 1983.93C2143.59 1993.35 2143.59 1993.35 2143.59 1993.35Z" fill="#EEA886"/>
<path d="M2075.13 2006.91C2071.58 1991.4 2089.41 1989.49 2089.41 1989.49C2089.41 1989.49 2101.02 1975.97 2128.81 1977.58C2156.6 1979.18 2152.36 2015.44 2152.36 2015.44C2152.36 2015.44 2133.13 2012.57 2124.77 2014.69C2124.77 2014.69 2123.75 2030.17 2124.66 2034.01L2114.17 2033.07C2114.17 2033.07 2115.34 2019.33 2110.32 2018.68C2105.28 2018.03 2103.59 2047.77 2094.22 2054.33C2094.22 2054.33 2094.12 2052.23 2092.95 2050.17C2091.08 2046.9 2088.18 2041.42 2085.67 2035C2081.58 2026.01 2076.95 2014.86 2075.13 2006.91" fill="#16202E"/>
<path d="M2117.29 2022.01C2117.29 2022.01 2113.4 2011.52 2104.18 2018.32C2097.48 2023.28 2104.37 2040.99 2110.9 2040.9C2117.42 2040.81 2120.07 2031.18 2117.29 2022.01" fill="#EEA886"/>
<path d="M2100.06 2051.1C2100.06 2051.1 2101.44 2056.68 2102.93 2057.97C2104.43 2059.28 2111.49 2065 2123.74 2068.85L2122.65 2079.83C2122.65 2079.83 2098.84 2070.65 2100.06 2051.1" fill="#C48A6F"/>
<path d="M2201.14 2086.03V2128.09H2200.71V2086.03H2201.14Z" fill="#96CBFF"/>
<path d="M2201.58 2086.03V2128.09H2201.14V2086.03H2201.58Z" fill="#95CAFF"/>
<path d="M2202.02 2086.03V2128.09H2201.58V2086.03H2202.02Z" fill="#94C9FF"/>
<path d="M2202.45 2086.03V2128.09H2202.02V2086.03H2202.45Z" fill="#93C9FF"/>
<path d="M2202.89 2086.03V2128.09H2202.45V2086.03H2202.89Z" fill="#92C8FF"/>
<path d="M2203.33 2086.03V2128.09H2202.89V2086.03H2203.33Z" fill="#91C7FF"/>
<path d="M2203.75 2086.03V2128.09H2203.33V2086.03H2203.75Z" fill="#90C6FF"/>
<path d="M2204.2 2086.03V2128.09H2203.75V2086.03H2204.2Z" fill="#8FC6FF"/>
<path d="M2204.63 2086.03V2128.09H2204.2V2086.03H2204.63Z" fill="#8EC5FF"/>
<path d="M2205.07 2086.03V2128.09H2204.63V2086.03H2205.07Z" fill="#8DC4FF"/>
<path d="M2205.5 2086.03V2128.09H2205.07V2086.03H2205.5Z" fill="#8CC3FF"/>
<path d="M2205.93 2086.03V2128.09H2205.5V2086.03H2205.93Z" fill="#8BC2FF"/>
<path d="M2206.37 2086.03V2128.09H2205.94V2086.03H2206.37Z" fill="#8AC2FF"/>
<path d="M2206.8 2086.03V2128.09H2206.37V2086.03H2206.8Z" fill="#89C1FF"/>
<path d="M2207.24 2086.03V2128.09H2206.8V2086.03H2207.24Z" fill="#88C0FF"/>
<path d="M2207.68 2086.03V2128.09H2207.24V2086.03H2207.68Z" fill="#87BFFF"/>
<path d="M2208.11 2086.03V2128.09H2207.68V2086.03H2208.11Z" fill="#86BFFF"/>
<path d="M2208.54 2086.03V2128.09H2208.11V2086.03H2208.54Z" fill="#85BEFF"/>
<path d="M2208.98 2086.03V2128.09H2208.54V2086.03H2208.98Z" fill="#84BDFF"/>
<path d="M2209.42 2086.03V2128.09H2208.98V2086.03H2209.42Z" fill="#83BCFF"/>
<path d="M2209.85 2086.03V2128.09H2209.42V2086.03H2209.85Z" fill="#82BBFF"/>
<path d="M2210.28 2086.03V2128.09H2209.85V2086.03H2210.28Z" fill="#81BBFF"/>
<path d="M2210.72 2086.03V2128.09H2210.28V2086.03H2210.72Z" fill="#80BAFF"/>
<path d="M2211.16 2086.03V2128.09H2210.72V2086.03H2211.16Z" fill="#7FB9FF"/>
<path d="M2211.59 2086.03V2128.09H2211.15V2086.03H2211.59Z" fill="#7EB8FF"/>
<path d="M2212.02 2086.03V2128.09H2211.59V2086.03H2212.02Z" fill="#7DB7FF"/>
<path d="M2212.46 2086.03V2128.09H2212.03V2086.03H2212.46Z" fill="#7CB7FF"/>
<path d="M2212.9 2086.03V2128.09H2212.46V2086.03H2212.9Z" fill="#7BB6FF"/>
<path d="M2213.33 2086.03V2128.09H2212.9V2086.03H2213.33Z" fill="#7AB5FF"/>
<path d="M2213.76 2086.03V2128.09H2213.33V2086.03H2213.76Z" fill="#79B4FF"/>
<path d="M2214.2 2086.03V2128.09H2213.76V2086.03H2214.2Z" fill="#78B4FF"/>
<path d="M2214.63 2086.03V2128.09H2214.21V2086.03H2214.63Z" fill="#77B3FF"/>
<path d="M2215.07 2086.03V2128.09H2214.63V2086.03H2215.07Z" fill="#76B2FF"/>
<path d="M2215.5 2086.03V2128.09H2215.07V2086.03H2215.5Z" fill="#74B1FF"/>
<path d="M2215.94 2086.03V2128.09H2215.5V2086.03H2215.94Z" fill="#73B0FF"/>
<path d="M2216.38 2086.03V2128.09H2215.94V2086.03H2216.38Z" fill="#72B0FF"/>
<path d="M2216.81 2086.03V2128.09H2216.38V2086.03H2216.81Z" fill="#71AFFF"/>
<path d="M2217.24 2086.03V2128.09H2216.81V2086.03H2217.24Z" fill="#70AEFF"/>
<path d="M2217.69 2086.03V2128.09H2217.24V2086.03H2217.69Z" fill="#6FADFF"/>
<path d="M2218.11 2086.03V2128.09H2217.69V2086.03H2218.11Z" fill="#6EADFF"/>
<path d="M2218.56 2086.03V2128.09H2218.12V2086.03H2218.56Z" fill="#6DACFF"/>
<path d="M2218.98 2086.03V2128.09H2218.55V2086.03H2218.98Z" fill="#6CABFF"/>
<path d="M2219.42 2086.03V2128.09H2218.98V2086.03H2219.42Z" fill="#6BAAFF"/>
<path d="M2219.86 2086.03V2128.09H2219.43V2086.03H2219.86Z" fill="#6AA9FF"/>
<path d="M2220.29 2086.03V2128.09H2219.86V2086.03H2220.29Z" fill="#69A9FF"/>
<path d="M2220.73 2086.03V2128.09H2220.29V2086.03H2220.73Z" fill="#68A8FF"/>
<path d="M2221.16 2086.03V2128.09H2220.73V2086.03H2221.16Z" fill="#67A7FF"/>
<path d="M2221.6 2086.03V2128.09H2221.16V2086.03H2221.6Z" fill="#66A6FF"/>
<path d="M2222.04 2086.03V2128.09H2221.6V2086.03H2222.04Z" fill="#65A6FF"/>
<path d="M2222.46 2086.03V2128.09H2222.04V2086.03H2222.46Z" fill="#64A5FF"/>
<path d="M2222.91 2086.03V2128.09H2222.47V2086.03H2222.91Z" fill="#63A4FF"/>
<path d="M2223.34 2086.03V2128.09H2222.91V2086.03H2223.34Z" fill="#62A3FF"/>
<path d="M2223.77 2086.03V2128.09H2223.33V2086.03H2223.77Z" fill="#61A2FF"/>
<path d="M2224.21 2086.03V2128.09H2223.78V2086.03H2224.21Z" fill="#60A2FF"/>
<path d="M2224.65 2086.03V2128.09H2224.21V2086.03H2224.65Z" fill="#5FA1FF"/>
<path d="M2225.08 2086.03V2128.09H2224.64V2086.03H2225.08Z" fill="#5EA0FF"/>
<path d="M2225.51 2086.03V2128.09H2225.08V2086.03H2225.51Z" fill="#5D9FFF"/>
<path d="M2225.95 2086.03V2128.09H2225.52V2086.03H2225.95Z" fill="#5C9EFF"/>
<path d="M2226.39 2086.03V2128.09H2225.95V2086.03H2226.39Z" fill="#5B9EFF"/>
<path d="M2226.82 2086.03V2128.09H2226.39V2086.03H2226.82Z" fill="#5A9DFF"/>
<path d="M2227.26 2086.03V2128.09H2226.82V2086.03H2227.26Z" fill="#599CFF"/>
<path d="M2227.69 2086.03V2128.09H2227.26V2086.03H2227.69Z" fill="#589BFF"/>
<path d="M2228.13 2086.03V2128.09H2227.69V2086.03H2228.13Z" fill="#579BFF"/>
<path d="M2228.56 2086.03V2128.09H2228.13V2086.03H2228.56Z" fill="#569AFF"/>
<path d="M2229 2086.03V2128.09H2228.56V2086.03H2229Z" fill="#5599FF"/>
<path d="M2220.52 2095.9C2220.52 2095.9 2209.18 2102.12 2209.96 2104.08C2210.74 2106.02 2212.2 2106.27 2212.2 2106.27L2208.7 2110.94C2208.7 2110.94 2208.13 2115.35 2213.09 2114.69C2213.09 2114.69 2212.13 2118.75 2216.85 2117.54C2216.85 2117.54 2217.41 2120.5 2219.7 2120.33C2221.99 2120.15 2229.12 2115.84 2229.12 2115.84C2229.12 2115.84 2230.21 2114.25 2228.06 2111.78C2228.06 2111.78 2229.33 2108.94 2227.04 2106.84C2227.04 2106.84 2227.68 2104.41 2225.18 2102.15C2225.18 2102.15 2226.23 2096.62 2221.74 2095.34C2221.74 2095.34 2221 2095.64 2220.52 2095.9" fill="#DB9C7C"/>
<path d="M2181.85 2054.16V2094.4H2181.14V2054.16H2181.85Z" fill="#96CBFF"/>
<path d="M2182.56 2054.16V2094.4H2181.84V2054.16H2182.56Z" fill="#95CAFF"/>
<path d="M2183.28 2054.16V2094.4H2182.56V2054.16H2183.28Z" fill="#94C9FF"/>
<path d="M2183.98 2054.16V2094.4H2183.28V2054.16H2183.98Z" fill="#93C9FF"/>
<path d="M2184.69 2054.16V2094.4H2183.98V2054.16H2184.69Z" fill="#92C8FF"/>
<path d="M2185.4 2054.16V2094.4H2184.69V2054.16H2185.4Z" fill="#91C7FF"/>
<path d="M2186.12 2054.16V2094.4H2185.4V2054.16H2186.12Z" fill="#90C6FF"/>
<path d="M2186.82 2054.16V2094.4H2186.12V2054.16H2186.82Z" fill="#8FC6FF"/>
<path d="M2187.53 2054.16V2094.4H2186.82V2054.16H2187.53Z" fill="#8EC5FF"/>
<path d="M2188.24 2054.16V2094.4H2187.53V2054.16H2188.24Z" fill="#8DC4FF"/>
<path d="M2188.96 2054.16V2094.4H2188.24V2054.16H2188.96Z" fill="#8CC3FF"/>
<path d="M2189.66 2054.16V2094.4H2188.96V2054.16H2189.66Z" fill="#8BC2FF"/>
<path d="M2190.38 2054.16V2094.4H2189.67V2054.16H2190.38Z" fill="#8AC2FF"/>
<path d="M2191.09 2054.16V2094.4H2190.38V2054.16H2191.09Z" fill="#89C1FF"/>
<path d="M2191.79 2054.16V2094.4H2191.09V2054.16H2191.79Z" fill="#88C0FF"/>
<path d="M2192.51 2054.16V2094.4H2191.79V2054.16H2192.51Z" fill="#87BFFF"/>
<path d="M2193.22 2054.16V2094.4H2192.5V2054.16H2193.22Z" fill="#86BFFF"/>
<path d="M2193.93 2054.16V2094.4H2193.22V2054.16H2193.93Z" fill="#85BEFF"/>
<path d="M2194.64 2054.16V2094.4H2193.93V2054.16H2194.64Z" fill="#84BDFF"/>
<path d="M2195.35 2054.16V2094.4H2194.64V2054.16H2195.35Z" fill="#83BCFF"/>
<path d="M2196.06 2054.16V2094.4H2195.35V2054.16H2196.06Z" fill="#82BBFF"/>
<path d="M2196.77 2054.16V2094.4H2196.06V2054.16H2196.77Z" fill="#81BBFF"/>
<path d="M2197.48 2054.16V2094.4H2196.77V2054.16H2197.48Z" fill="#80BAFF"/>
<path d="M2198.19 2054.16V2094.4H2197.48V2054.16H2198.19Z" fill="#7FB9FF"/>
<path d="M2198.9 2054.16V2094.4H2198.19V2054.16H2198.9Z" fill="#7EB8FF"/>
<path d="M2199.6 2054.16V2094.4H2198.9V2054.16H2199.6Z" fill="#7DB7FF"/>
<path d="M2200.32 2054.16V2094.4H2199.61V2054.16H2200.32Z" fill="#7CB7FF"/>
<path d="M2201.03 2054.16V2094.4H2200.32V2054.16H2201.03Z" fill="#7BB6FF"/>
<path d="M2201.74 2054.16V2094.4H2201.03V2054.16H2201.74Z" fill="#7AB5FF"/>
<path d="M2202.45 2054.16V2094.4H2201.74V2054.16H2202.45Z" fill="#79B4FF"/>
<path d="M2203.16 2054.16V2094.4H2202.45V2054.16H2203.16Z" fill="#78B4FF"/>
<path d="M2203.87 2054.16V2094.4H2203.16V2054.16H2203.87Z" fill="#77B3FF"/>
<path d="M2204.58 2054.16V2094.4H2203.88V2054.16H2204.58Z" fill="#76B2FF"/>
<path d="M2205.29 2054.16V2094.4H2204.58V2054.16H2205.29Z" fill="#74B1FF"/>
<path d="M2206 2054.16V2094.4H2205.29V2054.16H2206Z" fill="#73B0FF"/>
<path d="M2206.72 2054.16V2094.4H2206V2054.16H2206.72Z" fill="#72B0FF"/>
<path d="M2207.42 2054.16V2094.4H2206.71V2054.16H2207.42Z" fill="#71AFFF"/>
<path d="M2208.14 2054.16V2094.4H2207.42V2054.16H2208.14Z" fill="#70AEFF"/>
<path d="M2208.85 2054.16V2094.4H2208.14V2054.16H2208.85Z" fill="#6FADFF"/>
<path d="M2209.56 2054.16V2094.4H2208.85V2054.16H2209.56Z" fill="#6EADFF"/>
<path d="M2210.26 2054.16V2094.4H2209.56V2054.16H2210.26Z" fill="#6DACFF"/>
<path d="M2210.97 2054.16V2094.4H2210.26V2054.16H2210.97Z" fill="#6CABFF"/>
<path d="M2211.69 2054.16V2094.4H2210.97V2054.16H2211.69Z" fill="#6BAAFF"/>
<path d="M2212.39 2054.16V2094.4H2211.69V2054.16H2212.39Z" fill="#6AA9FF"/>
<path d="M2213.1 2054.16V2094.4H2212.39V2054.16H2213.1Z" fill="#69A9FF"/>
<path d="M2213.81 2054.16V2094.4H2213.1V2054.16H2213.81Z" fill="#68A8FF"/>
<path d="M2214.53 2054.16V2094.4H2213.82V2054.16H2214.53Z" fill="#67A7FF"/>
<path d="M2215.24 2054.16V2094.4H2214.53V2054.16H2215.24Z" fill="#66A6FF"/>
<path d="M2215.95 2054.16V2094.4H2215.24V2054.16H2215.95Z" fill="#65A6FF"/>
<path d="M2216.66 2054.16V2094.4H2215.95V2054.16H2216.66Z" fill="#64A5FF"/>
<path d="M2217.37 2054.16V2094.4H2216.66V2054.16H2217.37Z" fill="#63A4FF"/>
<path d="M2218.08 2054.16V2094.4H2217.37V2054.16H2218.08Z" fill="#62A3FF"/>
<path d="M2218.78 2054.16V2094.4H2218.07V2054.16H2218.78Z" fill="#61A2FF"/>
<path d="M2219.5 2054.16V2094.4H2218.79V2054.16H2219.5Z" fill="#60A2FF"/>
<path d="M2220.21 2054.16V2094.4H2219.5V2054.16H2220.21Z" fill="#5FA1FF"/>
<path d="M2220.92 2054.16V2094.4H2220.21V2054.16H2220.92Z" fill="#5EA0FF"/>
<path d="M2221.63 2054.16V2094.4H2220.92V2054.16H2221.63Z" fill="#5D9FFF"/>
<path d="M2222.35 2054.16V2094.4H2221.63V2054.16H2222.35Z" fill="#5C9EFF"/>
<path d="M2223.05 2054.16V2094.4H2222.35V2054.16H2223.05Z" fill="#5B9EFF"/>
<path d="M2223.76 2054.16V2094.4H2223.05V2054.16H2223.76Z" fill="#5A9DFF"/>
<path d="M2224.47 2054.16V2094.4H2223.76V2054.16H2224.47Z" fill="#599CFF"/>
<path d="M2225.17 2054.16V2094.4H2224.47V2054.16H2225.17Z" fill="#589BFF"/>
<path d="M2225.89 2054.16V2094.4H2225.18V2054.16H2225.89Z" fill="#579BFF"/>
<path d="M2226.6 2054.16V2094.4H2225.89V2054.16H2226.6Z" fill="#569AFF"/>
<path d="M2227.32 2054.16V2094.4H2226.61V2054.16H2227.32Z" fill="#5599FF"/>
<path d="M2200.69 2104.31C2200.69 2104.31 2209.57 2104.06 2214.47 2106.04C2215.57 2106.49 2216.57 2107.13 2216.57 2108.34C2216.57 2109.53 2214.83 2111.05 2211 2111.36C2207.16 2111.67 2202.34 2113.82 2202.34 2113.82C2202.34 2113.82 2198.3 2112.97 2200.69 2104.31" fill="#EEA886"/>
<path d="M2113.23 2420.4C2112.55 2423.94 2111.87 2427.55 2111.16 2431.12L2088.46 2371.04C2091.45 2377.11 2113.23 2420.4 2113.23 2420.4Z" fill="#293B57"/>
<path d="M863.959 1704.55H505.756C479.294 1704.55 457.835 1683.11 457.835 1656.65V1090.86C457.835 1064.4 479.294 1042.94 505.756 1042.94H863.959C890.422 1042.94 911.881 1064.4 911.881 1090.86V1656.65C911.881 1683.11 890.422 1704.55 863.959 1704.55Z" fill="#FF7D19"/>
<path d="M863.643 1470.21H840.117V1649.22H863.643V1470.21Z" fill="#E3F2FF"/>
<path d="M817.159 1490.28H793.641V1649.22H817.159V1490.28Z" fill="#E3F2FF"/>
<path d="M766.664 1516.37H743.138V1649.22H766.664V1516.37Z" fill="#E3F2FF"/>
<path d="M714.801 1549.28H691.274V1649.22H714.801V1549.28Z" fill="#E3F2FF"/>
<path d="M550.905 1528.07L545.812 1526.25L590.167 1401.81L686.37 1376.37L720.943 1239.79L795.192 1207.03L811.813 1100.83L817.161 1101.67L800.076 1210.78L725.55 1243.68L690.841 1380.79L594.309 1406.32L550.905 1528.07" fill="#E3F2FF"/>
<path d="M699.786 1369.44C704.834 1375.61 703.921 1384.7 697.749 1389.76C691.577 1394.8 682.477 1393.88 677.428 1387.71C672.38 1381.54 673.301 1372.44 679.473 1367.4C685.645 1362.36 694.738 1363.27 699.786 1369.44" fill="#FFC955"/>
<path d="M681.185 1369.5C676.175 1373.59 675.426 1380.99 679.523 1386C683.62 1391.01 691.02 1391.75 696.023 1387.66C701.034 1383.56 701.783 1376.16 697.686 1371.15C693.596 1366.15 686.189 1365.4 681.185 1369.5ZM699.454 1391.84C692.136 1397.83 681.313 1396.74 675.336 1389.42C669.351 1382.1 670.437 1371.28 677.755 1365.3C685.073 1359.32 695.896 1360.41 701.88 1367.72C707.857 1375.04 706.779 1385.86 699.454 1391.84Z" fill="#E3F2FF"/>
<path d="M734.815 1233.43C739.863 1239.61 738.949 1248.7 732.778 1253.74C726.598 1258.79 717.498 1257.87 712.465 1251.7C707.416 1245.53 708.33 1236.43 714.502 1231.39C720.674 1226.34 729.767 1227.26 734.815 1233.43Z" fill="#FFC955"/>
<path d="M716.219 1233.49C711.208 1237.57 710.459 1244.98 714.556 1249.98C718.653 1254.99 726.053 1255.74 731.064 1251.65C736.068 1247.55 736.817 1240.15 732.72 1235.14C728.63 1230.13 721.222 1229.39 716.219 1233.49ZM734.487 1255.84C727.17 1261.82 716.346 1260.73 710.362 1253.41C704.385 1246.09 705.471 1235.27 712.789 1229.29C720.106 1223.31 730.922 1224.39 736.907 1231.71C742.891 1239.04 741.813 1249.86 734.487 1255.84Z" fill="#E3F2FF"/>
<path d="M807.909 1199.73C812.957 1205.9 812.044 1214.99 805.864 1220.04C799.692 1225.09 790.599 1224.17 785.551 1218C780.51 1211.83 781.424 1202.73 787.596 1197.68C793.768 1192.64 802.861 1193.56 807.909 1199.73Z" fill="#FFC955"/>
<path d="M789.305 1199.78C784.302 1203.88 783.56 1211.28 787.658 1216.29C791.747 1221.3 799.147 1222.04 804.158 1217.94C809.169 1213.85 809.903 1206.45 805.813 1201.44C801.724 1196.43 794.316 1195.69 789.305 1199.78ZM807.581 1222.14C800.263 1228.12 789.44 1227.03 783.456 1219.71C777.479 1212.39 778.565 1201.57 785.882 1195.6C793.208 1189.61 804.023 1190.7 810.008 1198.01C815.992 1205.33 814.899 1216.15 807.581 1222.14" fill="#E3F2FF"/>
<path d="M603.956 1396.15C609.004 1402.33 608.091 1411.42 601.919 1416.46C595.74 1421.51 586.647 1420.6 581.598 1414.43C576.55 1408.26 577.464 1399.16 583.636 1394.12C589.815 1389.07 598.908 1389.98 603.956 1396.15Z" fill="#FFC955"/>
<path d="M585.358 1396.22C580.348 1400.31 579.598 1407.71 583.696 1412.72C587.785 1417.72 595.193 1418.47 600.196 1414.38C605.207 1410.28 605.956 1402.88 601.859 1397.87C597.769 1392.86 590.362 1392.12 585.358 1396.22ZM603.627 1418.57C596.309 1424.55 585.486 1423.46 579.509 1416.14C573.524 1408.83 574.61 1398 581.928 1392.03C589.246 1386.05 600.069 1387.13 606.053 1394.44C612.03 1401.77 610.944 1412.59 603.627 1418.57Z" fill="#E3F2FF"/>
<path d="M640.246 1260.69H516.436C510.714 1260.69 506.077 1256.04 506.077 1250.32V1241.1C506.077 1235.38 510.714 1230.74 516.436 1230.74H640.246C645.969 1230.74 650.612 1235.38 650.612 1241.1V1250.32C650.612 1256.04 645.969 1260.69 640.246 1260.69Z" fill="#EBEBEB"/>
<path d="M640.246 1208.35H516.436C510.714 1208.35 506.077 1203.71 506.077 1197.98V1188.77C506.077 1183.05 510.714 1178.4 516.436 1178.4H640.246C645.969 1178.4 650.612 1183.05 650.612 1188.77V1197.98C650.612 1203.71 645.969 1208.35 640.246 1208.35Z" fill="#EBEBEB"/>
<path d="M402.332 1284.77C402.332 1284.77 398.145 1326.09 405.778 1336.46C405.778 1336.46 385.562 1332.06 380.881 1325.1C376.199 1318.14 402.332 1284.77 402.332 1284.77Z" fill="#16202E"/>
<path d="M528.572 1416.74C528.572 1416.74 535.905 1411.81 537.051 1411.1C538.189 1410.38 541.956 1410.49 546.271 1411.01C550.585 1411.52 556.18 1414.15 556.517 1414.82C556.854 1415.48 557.513 1416.01 557.244 1417.91C556.966 1419.81 555.693 1421.27 555.693 1421.27C555.693 1421.27 556.457 1423.77 554.757 1425.45C554.757 1425.45 555.371 1427.84 553.117 1429.43C553.117 1429.43 553.656 1431.78 551.926 1432.8C551.926 1432.8 548.151 1432.68 546.743 1433.04C545.327 1433.4 537.492 1432.63 530.092 1430.74C530.092 1430.74 521.831 1428.96 528.572 1416.74" fill="#EEA886"/>
<path d="M541.057 1420.15C541.057 1420.15 538.847 1424.01 537.679 1424.78C536.51 1425.54 543.326 1432.88 543.326 1432.88C543.326 1432.88 545.663 1422.97 541.057 1420.15Z" fill="#CF8C6C"/>
<path d="M524.226 1417.44C524.226 1417.44 528.84 1416.93 531.694 1415.62C534.54 1414.3 531.162 1429.98 531.162 1429.98C531.162 1429.98 524.248 1425.21 519.739 1425.08C515.23 1424.93 524.226 1417.44 524.226 1417.44Z" fill="#EEA886"/>
<path d="M333.038 1835.1C333.038 1835.1 347.462 1856.18 352.491 1860.66C352.491 1860.66 362.559 1865.88 362.866 1870.05C363.458 1877.93 363.877 1882.59 350.636 1882.95C337.394 1883.33 329.123 1882.91 326.695 1874.9C324.275 1866.88 320.091 1860.59 320.091 1860.59L319.082 1881.45H316.098C316.098 1881.45 314.763 1860.54 314.573 1857.56C314.391 1854.58 312.431 1843.11 318.727 1838.03C325.021 1832.96 333.038 1835.1 333.038 1835.1Z" fill="#162D40"/>
<path d="M354.413 1861.73C354.413 1861.73 347.256 1863.75 338.745 1861.61C330.231 1859.47 322.06 1839.09 319.572 1837.39L317.363 1829.17H333.958C333.958 1829.17 334.099 1835.25 336.776 1840.46C339.459 1845.67 354.413 1861.73 354.413 1861.73Z" fill="#162D40"/>
<path d="M426.669 1827.22C426.669 1827.22 428.834 1832.33 432.916 1837.66C435.92 1841.56 445.23 1857.61 449.334 1858.72C453.431 1859.84 466.112 1862.08 467.228 1869.16C468.351 1876.25 468.906 1881.28 456.412 1881.84C443.919 1882.4 435.717 1883.15 429.748 1874.38C423.786 1865.62 414.273 1859.28 414.273 1859.28V1882.14H409.427C409.427 1882.14 407.195 1858.35 405.885 1856.68C404.581 1854.99 401.226 1836.73 412.783 1827.22C424.347 1817.71 426.669 1827.22 426.669 1827.22" fill="#162D40"/>
<path d="M449.332 1858.72C449.332 1858.72 438.142 1861.51 433.85 1858.72C429.566 1855.93 414.982 1831.29 410.151 1829.81C410.151 1829.81 414.833 1820.32 426.667 1827.21C426.667 1827.21 446.156 1854.62 449.332 1858.72" fill="#162D40"/>
<path d="M326.688 1484.84C326.688 1484.84 310.912 1505.34 306.635 1529.68C302.354 1554 309.166 1635.66 308.975 1647.69C308.791 1659.71 298.37 1697.13 300.599 1719.78C302.837 1742.43 314.555 1836.98 314.555 1836.98L341.887 1836.48C341.887 1836.48 336.411 1734.46 337.809 1724.96C339.204 1715.45 343.66 1675 344.217 1671.07C344.779 1667.16 375.354 1563.64 375.354 1546.1C375.354 1528.56 364.726 1456.23 326.688 1484.84" fill="#1D3B54"/>
<path d="M405.934 1492.85C405.934 1492.85 431.85 1591.75 434.921 1605.46C437.999 1619.16 444.148 1637.06 443.871 1639.57C443.594 1642.08 440.613 1684.31 440.613 1684.31L433.243 1828.05H405.934C405.934 1828.05 397.171 1736.6 395.763 1718.15C394.37 1699.69 405.837 1671.17 403.036 1663.34C400.242 1655.51 358.006 1565.19 358.006 1565.19C358.006 1565.19 326.037 1464.15 405.934 1492.85Z" fill="#1D3B54"/>
<path d="M397.915 1344.83C397.915 1344.83 408.273 1345.81 416.108 1354.2C423.943 1362.58 431.29 1375.97 433.343 1380.44C435.387 1384.91 464.142 1426.38 465.64 1427.31C467.13 1428.24 479.684 1424.94 489.758 1424.1C506.191 1422.73 530.766 1414.36 530.766 1414.36L534.413 1432.93C534.413 1432.93 473.969 1452.42 460.022 1448.99C442.96 1444.79 403.697 1394.42 403.697 1394.42C403.697 1394.42 374.426 1360.12 397.915 1344.83" fill="#EDDAD3"/>
<path d="M379.824 1337.56C379.824 1337.56 393.246 1343.89 397.912 1344.82C402.579 1345.76 420.659 1369.25 423.828 1377.83C426.996 1386.4 423.828 1399.26 417.304 1414.36C410.773 1429.46 416.937 1434.5 413.948 1449.6C410.967 1464.7 410.967 1505.87 411.529 1514.25C412.083 1522.64 325.212 1538.47 307.873 1523.18C307.873 1523.18 319.605 1484.49 333.512 1469.96C336.511 1466.81 336.198 1445.86 334.147 1440.65C332.093 1435.43 308.973 1396.47 308.973 1396.47C308.973 1396.47 307.273 1356.95 317.361 1349.11C326.124 1342.31 350.013 1339.88 354.3 1338.39C358.59 1336.9 371.068 1336.25 379.824 1337.56" fill="#EDDAD3"/>
<path d="M384.116 1367.48L392.273 1357.93L385.187 1332.79C385.187 1332.79 382.813 1346.79 384.116 1367.48Z" fill="#D1C0BA"/>
<path d="M332.983 1344.82C332.983 1344.82 316.063 1339.98 306.364 1358.63C296.671 1377.27 299.094 1387.33 296.855 1395.72C294.626 1404.11 285.673 1460.22 285.114 1462.65C284.552 1465.08 275.979 1493.6 277.092 1502.36C278.212 1511.12 286.235 1577.49 285.863 1579.73C285.489 1581.97 301.332 1577.58 301.332 1577.58C301.332 1577.58 300.682 1509.82 301.244 1504.22C301.8 1498.63 302.356 1469.27 306.554 1461.71C310.753 1454.16 321.096 1408.02 323.334 1403.28C325.572 1398.52 347.246 1350.88 332.983 1344.82" fill="#EEA886"/>
<path d="M386.235 1322.06C386.235 1322.06 383.561 1346.69 384.115 1354.71C384.115 1354.71 370.161 1368.68 354.3 1338.39C354.3 1338.39 360.979 1325.91 355.953 1308.9C350.929 1291.88 386.235 1322.06 386.235 1322.06Z" fill="#EEA886"/>
<path d="M384.117 1354.71V1367.48L369.122 1354.2L384.117 1354.71Z" fill="#EEA886"/>
<path d="M384.118 1367.48L377.452 1359.24L354.995 1336.86L346.587 1340.6L384.118 1367.48" fill="#D1C0BA"/>
<path d="M392.276 1357.93L402.56 1360.77L385.19 1332.78L392.276 1357.93Z" fill="#FAE6DE"/>
<path d="M377.451 1359.24L368.059 1374.28L346.241 1340.06L355.588 1335.3L377.451 1359.24" fill="#FAE6DE"/>
<path d="M425.283 1419.93C425.283 1419.93 428.638 1397.6 425.066 1384.02C425.066 1384.02 423.096 1394.98 418.287 1412.04L425.283 1419.93Z" fill="#D1C0BA"/>
<path d="M321.006 1416.97C321.006 1416.97 330.29 1386.26 330.836 1384.58C330.836 1384.58 330.202 1412.8 326.647 1426.77C326.647 1426.77 323.23 1420.8 321.006 1416.97Z" fill="#D1C0BA"/>
<path d="M666.753 1263.09L520.675 1447.11L525.768 1451.04L666.753 1263.09Z" fill="#54281A"/>
<path d="M555.393 1414.63C555.393 1414.63 544.435 1413.59 544.046 1415.35C543.664 1417.08 544.585 1417.96 544.585 1417.96L539.874 1419.59C539.874 1419.59 537.365 1422.42 541.177 1424.33C541.177 1424.33 538.571 1426.72 542.473 1428.13C542.473 1428.13 541.454 1430.47 543.147 1431.45C544.847 1432.41 551.925 1432.79 551.925 1432.79C551.925 1432.79 553.453 1432.2 553.116 1429.43C553.116 1429.43 555.371 1428.03 554.756 1425.44C554.756 1425.44 556.382 1424.05 555.693 1421.26C555.693 1421.26 559.071 1417.86 556.517 1414.82C556.517 1414.82 555.858 1414.67 555.393 1414.63" fill="#DB9C7C"/>
<path d="M537.401 1411.09C537.401 1411.09 543.767 1415.15 546.276 1418.89C546.838 1419.74 547.235 1420.67 546.666 1421.5C546.089 1422.35 544.134 1422.6 541.288 1420.99C538.434 1419.36 534.008 1418.58 534.008 1418.58C534.008 1418.58 531.566 1416.06 537.401 1411.09" fill="#EEA886"/>
<path d="M374.922 1238.26C374.922 1238.26 399.639 1237.62 404.178 1266.87C408.732 1296.13 398.223 1321.84 394.104 1325.96C389.977 1330.07 365.267 1326.95 359.447 1311.76C353.616 1296.56 345.096 1285.48 346.375 1272.42C347.656 1259.35 344.532 1237.76 374.922 1238.26" fill="#EEA886"/>
<path d="M405.233 1277.95C405.233 1277.95 411.854 1241.46 379.04 1234.93C346.236 1228.39 334.729 1250.83 331.607 1264.18C328.473 1277.53 332.175 1315.16 332.175 1315.16C332.175 1315.16 354.048 1334.34 367.108 1339.31C367.108 1339.31 356.173 1299.26 360.292 1270.57C360.292 1270.57 386.957 1274.75 404.656 1270.39C404.656 1270.39 405.188 1276.38 405.233 1277.95Z" fill="#16202E"/>
<path d="M385.673 1327.56C385.673 1327.56 377.089 1327.5 365.42 1319.92C365.42 1319.92 373.629 1330.24 385.081 1334.01C385.081 1334.01 385.755 1328.87 385.673 1327.56Z" fill="#A77860"/>
<path d="M348.412 1586.56L252.961 1602.15L241.439 1531.56L336.888 1515.98L348.412 1586.56" fill="#366E9C"/>
<path d="M282.562 1600.92C282.562 1600.92 281.061 1598.49 280.932 1597.1C280.932 1597.1 280.87 1594.57 280.724 1592.77C280.675 1592.2 280.622 1591.7 280.552 1591.39C280.265 1590.06 279.241 1587.24 279.437 1583.87C279.645 1580.5 284.244 1566.18 284.244 1566.18L292.694 1566.47L300.643 1565.61C300.643 1565.61 310.245 1583.94 310.424 1587.1C310.436 1587.4 310.445 1587.72 310.424 1588.01C310.313 1590.7 309.099 1592.65 308.879 1594.06C308.801 1594.58 307.621 1599.65 306.232 1600.35C304.301 1601.32 302.565 1601.2 301.287 1600.46C301.287 1600.46 297.416 1602.2 294.665 1601.45C294.665 1601.45 291.158 1603.15 287.995 1601.24C287.995 1601.24 284.239 1602.58 282.562 1600.92" fill="#EEA886"/>
<path d="M332.981 1344.82C332.981 1344.82 316.061 1339.98 306.362 1358.62C296.669 1377.27 296.722 1385.22 295.419 1394.32C294.196 1402.92 282.376 1453.98 281.814 1456.4C281.258 1458.83 277.367 1490.74 277.09 1502.36C276.884 1511.19 278.956 1569.1 278.582 1571.34C278.21 1573.58 305.361 1567.42 305.361 1567.42C305.361 1567.42 302.353 1514.02 302.918 1508.42C303.471 1502.83 304.665 1474.95 307.4 1466.74C310.61 1457.13 323.287 1408.63 325.526 1403.87C327.764 1399.12 347.244 1350.88 332.981 1344.82" fill="#EDDAD3"/>
<path d="M1207.48 1846.79L1209.24 1830.4C1209.24 1830.4 1186.13 1830.23 1183.42 1832.17C1183.42 1832.17 1185.39 1845.94 1185.62 1848C1185.88 1850.07 1207.48 1846.79 1207.48 1846.79Z" fill="#5C544D"/>
<path d="M1168.2 1881.05C1195.7 1880.81 1208.96 1882.69 1211.91 1878.23C1214.86 1873.77 1207.65 1845.32 1207.65 1845.32C1207.65 1845.32 1201.13 1847.68 1185.4 1846.25C1185.4 1846.25 1178.55 1854.55 1171.93 1858.17C1165.31 1861.78 1154.9 1863.21 1150.98 1866.95C1148.17 1869.66 1140.69 1881.29 1168.2 1881.05" fill="#3C4145"/>
<path d="M1052.66 1846.79L1054.4 1830.4C1054.4 1830.4 1031.29 1830.23 1028.59 1832.17C1028.59 1832.17 1030.54 1845.94 1030.8 1848C1031.04 1850.07 1052.66 1846.79 1052.66 1846.79Z" fill="#5C544D"/>
<path d="M1013.35 1881.05C1040.85 1880.33 1054.12 1882.69 1057.07 1878.23C1060.02 1873.77 1052.8 1845.32 1052.8 1845.32C1052.8 1845.32 1046.67 1847.85 1030.57 1846.25C1030.57 1846.25 1023.71 1854.55 1017.09 1858.17C1010.48 1861.78 986.105 1864.75 982.188 1868.49C979.357 1871.19 974.661 1882.06 1013.35 1881.05" fill="#3C4145"/>
<path d="M1175.74 1476.78C1175.74 1476.78 1187.24 1510.94 1185.73 1540.38C1184.22 1569.81 1191.68 1602.03 1194.72 1632.78C1198.12 1667.06 1212.05 1748.22 1212.55 1766.55C1213.06 1784.9 1210.39 1843.45 1210.39 1843.45L1182.53 1844.1C1182.53 1844.1 1159.13 1702.21 1153.08 1687.74C1147.02 1673.25 1116.96 1570.04 1115.96 1558.46C1114.95 1546.87 1175.74 1476.78 1175.74 1476.78" fill="#DBD8E3"/>
<path d="M1058.63 1482.86C1058.63 1482.86 1043.33 1563.54 1041.31 1581.56C1039.29 1599.57 1037.95 1668.75 1036.94 1680.01C1035.93 1691.27 1030.2 1827.37 1024.82 1844.1H1060.44C1060.44 1844.1 1087.77 1745.16 1087.77 1698.35C1087.77 1651.54 1108.89 1596.59 1122.53 1565.7C1136.16 1534.82 1167.36 1534.08 1175.75 1476.78C1175.75 1476.78 1069.99 1464.69 1058.63 1482.86" fill="#DBD8E3"/>
<path d="M1131.01 1207.12C1131.01 1207.12 1102.94 1196.64 1090 1218C1077.05 1239.37 1078.3 1282.15 1092.45 1287.4C1106.61 1292.67 1127.86 1289.91 1135.1 1276.54C1142.35 1263.18 1148.89 1243.85 1148.57 1230.93C1148.26 1218.01 1138.39 1210.85 1131.01 1207.12" fill="#EEA886"/>
<path d="M1097.16 1286.09C1097.16 1286.09 1098.3 1293.45 1096.42 1297.07C1094.55 1300.7 1131.73 1300.79 1131.73 1300.79C1131.73 1300.79 1134.75 1281.08 1140.48 1264.43C1146.2 1247.76 1097.16 1286.09 1097.16 1286.09" fill="#EEA886"/>
<path d="M1140.48 1264.43C1140.48 1264.43 1137.91 1268.65 1127.44 1267.01C1116.96 1265.37 1104.17 1251.43 1099.8 1249.91C1095.42 1248.37 1095.39 1245.81 1095.39 1245.81L1092.64 1249.8L1088 1250.1C1088 1250.1 1092.24 1237.63 1085.84 1232.55C1079.45 1227.46 1092.48 1192.19 1126.08 1203.94C1126.08 1203.94 1150.16 1208.69 1151.61 1223.33C1153.16 1238.9 1146.25 1257.11 1140.48 1264.43" fill="#FCCCA2"/>
<path d="M1094.22 1296.64C1094.22 1296.64 1094.34 1289.72 1097.47 1289.06C1100.61 1288.39 1132.12 1285.36 1135.98 1286.88V1294.94C1135.98 1294.94 1128.55 1299.51 1094.22 1296.64Z" fill="#E2D2CA"/>
<path d="M1096.07 1240.47C1096.67 1238.01 1102.92 1230.98 1105.32 1238.51C1107.72 1246.04 1101.7 1256.17 1098.34 1255.3C1094.99 1254.43 1094.59 1246.71 1096.07 1240.47Z" fill="#EEA886"/>
<path d="M1094.22 1296.64C1094.22 1296.64 1076.94 1302.85 1056.93 1311.36C1056.93 1311.36 1033.91 1319.95 1031.43 1345.37C1030.1 1358.86 1015.74 1430.45 1013.03 1436.52C1010.34 1442.58 978.488 1539.9 977.364 1541.92C976.241 1543.95 1003.36 1555.2 1005.16 1554.31C1006.96 1553.4 1036.01 1465.53 1038.92 1459.02C1038.92 1459.02 1055.65 1406.34 1056.1 1398.48C1056.1 1398.48 1056.58 1420.87 1057.47 1427.15C1058.37 1433.43 1042.6 1555.44 1043.05 1558.8C1043.5 1562.17 1114.72 1566.45 1143.22 1563.3C1171.72 1560.16 1194.72 1553.61 1194.72 1553.61C1194.72 1553.61 1172.29 1457.32 1172.98 1446.65C1174.48 1423.38 1182.25 1379.59 1182.25 1379.59L1205.5 1423.38L1175.75 1499.91L1182.55 1523.16C1182.55 1523.16 1237.84 1439.64 1239.63 1432.01C1241.43 1424.39 1236.92 1414.66 1234 1408.38C1231.09 1402.1 1211.92 1354.29 1207.44 1347.55C1202.95 1340.81 1195.36 1313.86 1177.03 1306.36C1161.7 1300.08 1135.98 1294.94 1135.98 1294.94L1094.22 1296.64" fill="#63A4FF"/>
<path d="M1056.21 1586.02L925.977 1552.64L949.278 1461.8L1079.51 1495.18L1056.21 1586.02" fill="#F25F54"/>
<path d="M966.026 1561.79C966.026 1561.79 962.304 1567.8 960.941 1569.52C959.592 1571.23 964.289 1572.31 966.296 1570.57C968.318 1568.84 966.026 1561.79 966.026 1561.79" fill="#C98462"/>
<path d="M993.141 1582.32C993.141 1582.32 995.343 1580.03 995.822 1578.56C995.822 1578.56 996.474 1575.81 997.058 1573.89C997.245 1573.28 997.425 1572.75 997.568 1572.43C998.189 1571.06 999.972 1568.23 1000.55 1564.52C1001.13 1560.81 1002.74 1544.15 1002.74 1544.15L992.654 1541.6L984.557 1539.89C984.557 1539.89 967.046 1557.36 966.109 1560.76C966.02 1561.09 965.937 1561.42 965.9 1561.74C965.383 1564.69 966.237 1567.1 966.147 1568.68C966.117 1569.27 966.207 1575.06 967.548 1576.14C969.42 1577.65 971.33 1577.93 972.903 1577.42C972.903 1577.42 976.693 1580.22 979.861 1580.04C979.861 1580.04 983.284 1582.72 987.156 1581.4C987.156 1581.4 990.931 1583.74 993.141 1582.32Z" fill="#DE9D7D"/>
<path d="M1032.52 1476.96C1032.52 1476.96 1009.41 1546.95 1005.16 1554.31C1005.16 1554.31 988.213 1550.74 977.367 1541.92L1002.74 1466.39L1032.52 1476.96" fill="#63A4FF"/>
<path d="M3117.61 1586.1C3117.61 1586.1 3203.41 1334.52 3039.69 1256.52C2875.95 1178.53 2736.95 1291.27 2710.69 1352.28C2684.43 1413.29 2691.38 1524.22 2713.77 1601.57C2736.17 1678.92 2732.91 1796.68 2684.25 1836.06C2635.6 1875.44 2575.27 1940.85 2578.25 2073.99C2580.11 2156.59 2903.33 1862.7 2903.33 1862.7L3117.61 1586.1Z" fill="#252E3B"/>
<path d="M2887.56 1885.36C2887.56 1885.36 2752.99 1915.19 2699.57 1946.4C2646.17 1977.61 2527.55 2121.18 2527.55 2182.91C2527.55 2244.65 3046.28 2302.31 3046.28 2302.31L3144.61 2661.23C3144.61 2661.23 3406.8 2597.26 3438.01 2544.2C3469.23 2491.14 3338.43 2110.88 3316.05 2033.92C3293.21 1955.41 3199.23 1900.67 3089.98 1885.36C2980.73 1870.06 2887.56 1885.36 2887.56 1885.36Z" fill="#FFD255"/>
<path d="M3080.65 1884.13C3080.65 1884.13 3077.63 2047.67 2947.91 2052.52C2818.19 2057.36 2845.2 1895.66 2845.2 1895.66C2845.2 1895.66 2940.07 1857.22 3080.65 1884.13" fill="#EEA886"/>
<path d="M3135.53 1390.62C3135.53 1390.62 3181.41 1653.65 3050.74 1843.66C2915.41 2040.44 3135.53 1390.62 3135.53 1390.62Z" fill="#252E3B"/>
<path d="M3052.82 1768.5C3052.82 1768.5 3043.79 1846.72 3058.86 1895.38C3073.92 1944.02 2860.52 1945.37 2860.63 1905.37C2860.77 1859.92 2882.47 1821.96 2862.03 1744.07C2841.59 1666.17 3052.82 1768.5 3052.82 1768.5" fill="#EEA886"/>
<path d="M2887.28 1778.47C2887.28 1778.47 2954.66 1848.66 3040.82 1785.8C3040.82 1785.8 3033.7 1830.65 2971.73 1836.44C2909.76 1842.24 2887.28 1778.47 2887.28 1778.47" fill="#A77860"/>
<path d="M2971.66 1299.42C2971.66 1299.42 3141.94 1349.8 3117.61 1586.09C3093.29 1822.37 2982.08 1810.2 2971.66 1811.95C2961.23 1813.68 2829.17 1822.37 2787.48 1535.71C2745.77 1249.04 2971.66 1299.42 2971.66 1299.42" fill="#EEA886"/>
<path d="M2927.7 1404.78C2927.7 1404.78 3020.23 1551.95 3117.61 1586.09C3117.61 1586.09 3170.79 1339.15 2951.16 1287.4C2731.54 1235.67 2765.94 1536.83 2782.33 1617.13C2782.33 1617.13 2828.08 1498.99 2927.7 1404.78" fill="#252E3B"/>
<path d="M2803.59 1382.62C2803.59 1382.62 2852.3 1288.31 2934.54 1284.09C3016.79 1279.89 3065.7 1351.22 3065.7 1351.22C3065.7 1351.22 3033.59 1270.9 2934.64 1270.9C2835.7 1270.9 2803.59 1382.62 2803.59 1382.62" fill="#88C0FF"/>
<path d="M3138.42 2124.37L3196.17 2661.17H2436.12L2378.37 2124.37H3138.42Z" fill="#FF7D19"/>
<path d="M2417.11 2636.14H3170.49L3113.46 2105.95H2360.07L2417.11 2636.14ZM3177.88 2642.75H2411.16L2352.7 2099.32H3119.42L3177.88 2642.75Z" fill="#FF822E"/>
<path d="M2834.42 2384.1C2841.24 2417.49 2825.66 2448.89 2799.62 2454.21C2773.58 2459.53 2746.94 2436.78 2740.11 2403.38C2733.28 2369.98 2748.86 2338.6 2774.9 2333.27C2800.95 2327.95 2827.59 2350.71 2834.42 2384.1" fill="#F46F21"/>
<path d="M3124.32 2607.22H3266.15V2661.17H3124.32V2607.22Z" fill="#5FA0FF"/>
<path d="M2683.33 822.201C2622.51 822.201 2573.03 871.675 2573.03 932.486C2573.03 993.305 2622.51 1042.78 2683.33 1042.78C2744.15 1042.78 2793.63 993.305 2793.63 932.486C2793.63 871.675 2744.15 822.201 2683.33 822.201V822.201ZM2683.33 1049.41C2618.85 1049.41 2566.4 996.96 2566.4 932.486C2566.4 868.02 2618.85 815.574 2683.33 815.574C2747.81 815.574 2800.26 868.02 2800.26 932.486C2800.26 996.96 2747.81 1049.41 2683.33 1049.41Z" fill="#64A4FF"/>
<path d="M36.2255 1657.12L26.6727 1654.36C36.752 1619.45 45.8218 1598.19 46.2022 1597.3L55.3363 1601.21C55.2427 1601.43 46.1146 1622.85 36.2255 1657.12V1657.12ZM13.4423 1773.21L3.55024 1772.19C5.54259 1752.74 8.55284 1732.73 12.4971 1712.76L22.2453 1714.69C18.3633 1734.36 15.4024 1754.05 13.4423 1773.21V1773.21ZM4.61756 1892.38C2.04623 1873.1 0.677031 1852.87 0.56543 1832.28L10.5077 1832.22C10.6156 1852.4 11.9555 1872.2 14.4722 1891.06L4.61756 1892.38ZM38.7122 2007.77C30.0163 1990.05 22.7022 1971.08 16.9731 1951.44L26.5207 1948.66C32.085 1967.77 39.1893 1986.18 47.6358 2003.4L38.7122 2007.77ZM110.564 2104.26C95.6717 2090.43 82.078 2075.32 70.1793 2059.36L78.1517 2053.42C89.6938 2068.9 102.875 2083.55 117.328 2096.98L110.564 2104.26ZM1322.93 2107.73L1321.68 2097.87C1342.53 2095.21 1362.12 2093.71 1381.57 2093.26L1381.78 2103.2C1362.69 2103.63 1343.43 2105.11 1322.93 2107.73V2107.73ZM1498.9 2115.08C1479.69 2110.63 1460.11 2107.38 1440.73 2105.44L1441.73 2095.54C1461.52 2097.54 1481.51 2100.85 1501.14 2105.38L1498.9 2115.08ZM1206.73 2131.09L1204.27 2121.46C1225.67 2115.99 1244.73 2111.55 1262.54 2107.87L1264.56 2117.6C1246.9 2121.25 1227.98 2125.67 1206.73 2131.09V2131.09ZM1610.09 2154.46C1591.77 2145.79 1573.41 2138.15 1555.51 2131.75L1558.86 2122.39C1577.06 2128.9 1595.73 2136.66 1614.35 2145.47L1610.09 2154.46ZM1091.9 2162.77L1089.2 2153.2C1097.53 2150.87 1105.76 2148.53 1113.91 2146.23C1124.96 2143.11 1135.84 2140.03 1146.6 2137.02L1149.28 2146.6C1138.53 2149.6 1127.65 2152.68 1116.62 2155.79C1108.46 2158.1 1100.23 2160.42 1091.9 2162.77V2162.77ZM210.515 2171.01C191.892 2162.12 174.235 2152.19 158.04 2141.47L163.526 2133.18C179.341 2143.64 196.588 2153.35 214.801 2162.05L210.515 2171.01ZM976.431 2193.28L974.109 2183.62C992.354 2179.24 1011.21 2174.46 1031.77 2168.98L1034.34 2178.59C1013.69 2184.08 994.751 2188.89 976.431 2193.28V2193.28ZM323.851 2210.41C303.818 2205.56 284.426 2199.93 266.207 2193.66L269.44 2184.27C287.361 2190.42 306.461 2195.97 326.192 2200.74L323.851 2210.41ZM859.309 2217.31L857.661 2207.5C876.821 2204.29 896.475 2200.62 916.083 2196.57L918.091 2206.32C898.355 2210.37 878.581 2214.07 859.309 2217.31V2217.31ZM442.032 2229.94C421.644 2227.92 401.66 2225.33 382.636 2222.23L384.231 2212.42C403.054 2215.48 422.835 2218.05 443.013 2220.05L442.032 2229.94ZM740.674 2232.41L739.813 2222.51C759.429 2220.81 779.3 2218.68 798.887 2216.18L800.145 2226.04C780.432 2228.55 760.418 2230.7 740.674 2232.41ZM561.415 2237.44C541.777 2236.89 521.666 2235.97 501.667 2234.7L502.289 2224.78C522.175 2226.04 542.166 2226.96 561.7 2227.51L561.415 2237.44ZM621.231 2238.05L621.148 2228.11C640.975 2227.94 660.958 2227.4 680.537 2226.48L681.001 2236.41C661.302 2237.33 641.184 2237.88 621.231 2238.05Z" fill="#F5CC3E"/>
<path d="M1351.65 13.4868L1350.59 3.60105C1370.71 1.44419 1390.9 0.320853 1410.61 0.26094L1410.63 10.199C1391.28 10.2589 1371.43 11.3674 1351.65 13.4868V13.4868ZM1527.79 22.706C1508.51 18.4821 1488.91 15.2989 1469.56 13.2319L1470.61 3.34654C1490.33 5.45098 1510.28 8.69367 1529.92 12.9924L1527.79 22.706ZM1235.7 36.6804L1232.95 27.1245C1252.55 21.4777 1272.16 16.6546 1291.23 12.8052L1293.2 22.5487C1274.39 26.3457 1255.05 31.101 1235.7 36.6804ZM1640.17 59.0804C1621.13 51.0296 1603.01 44.2222 1584.78 38.2608L1587.87 28.8168C1606.36 34.8605 1624.74 41.7654 1644.05 49.9286L1640.17 59.0804ZM1124.31 77.1742L1120.35 68.0524C1139.07 59.9192 1157.78 52.4303 1175.96 45.7799L1179.38 55.1113C1161.38 61.6943 1142.86 69.1084 1124.31 77.1742ZM1746.6 111.676C1727.13 101.004 1709.92 91.9501 1694 83.9967L1698.43 75.0997C1714.48 83.1131 1731.8 92.2271 1751.38 102.959L1746.6 111.676ZM1017.9 129.86L1013.08 121.158C1030.9 111.325 1048.73 101.963 1066.08 93.3504L1070.5 102.248C1053.28 110.8 1035.58 120.087 1017.9 129.86ZM1850.69 169.784C1833.84 160.625 1817.11 151.211 1798.56 140.742L1803.45 132.084C1821.96 142.532 1838.65 151.93 1855.44 161.052L1850.69 169.784ZM2485.78 189.848L2485.32 179.917C2505.1 178.989 2525.22 178.779 2545.29 179.311L2545.04 189.249C2525.2 188.724 2505.32 188.926 2485.78 189.848ZM916.029 191.151L910.621 182.808C927.646 171.769 944.701 161.097 961.299 151.091L966.437 159.599C949.929 169.552 932.964 180.164 916.029 191.151V191.151ZM2662.99 200.61C2643.4 197.382 2623.62 194.783 2604.19 192.903L2605.15 183.01C2624.8 184.912 2644.8 187.541 2664.6 190.806L2662.99 200.61ZM2368.26 204.272L2366.31 194.528C2385.81 190.612 2405.74 187.391 2425.53 184.965L2426.75 194.828C2407.19 197.232 2387.51 200.4 2368.26 204.272V204.272ZM1958.75 221.414C1941.24 214.584 1923.3 206.691 1903.87 197.277L1908.2 188.335C1927.39 197.629 1945.11 205.418 1962.36 212.15L1958.75 221.414ZM2778.58 227.241C2759.5 221.617 2740.19 216.539 2721.18 212.143L2723.42 202.46C2742.62 206.901 2762.13 212.03 2781.39 217.707L2778.58 227.241ZM2253.79 235.816L2250.99 226.275C2257.36 224.402 2263.87 222.351 2270.32 220.186C2282.75 216.015 2295.42 212.105 2307.98 208.57L2310.68 218.142C2298.27 221.632 2285.75 225.488 2273.48 229.607C2266.92 231.817 2260.29 233.906 2253.79 235.816V235.816ZM2074.92 251.865C2055.5 249.438 2035.61 245.522 2015.81 240.242L2018.37 230.641C2037.74 235.801 2057.18 239.628 2076.15 242.002L2074.92 251.865ZM2135.08 254.958L2134.86 245.02C2154.13 244.593 2173.86 242.743 2193.5 239.515L2195.11 249.326C2175.01 252.629 2154.82 254.516 2135.08 254.958ZM2890.42 267.128C2872.06 259.444 2853.42 252.217 2835.04 245.649L2838.38 236.288C2856.93 242.916 2875.73 250.21 2894.26 257.954L2890.42 267.128ZM2997.61 318.398C2980.15 308.977 2962.32 299.908 2944.64 291.445L2948.94 282.473C2966.76 291.011 2984.73 300.155 3002.33 309.651L2997.61 318.398ZM3099.49 379.689C3083.14 368.778 3066.25 358.068 3049.27 347.853L3054.39 339.338C3071.51 349.628 3088.54 360.427 3105.01 371.421L3099.49 379.689ZM3194.64 450.918C3194.47 450.768 3177.87 436.03 3148.13 413.929L3154.07 405.953C3184.19 428.338 3201.08 443.347 3201.25 443.496L3194.64 450.918Z" fill="#F5CC3E"/>
<path d="M1956.02 2263.52L1706.16 2190.88L1781.06 2168.3L1956.02 2263.52Z" fill="#F5CC3E"/>
<path d="M1956.02 2263.52L1862.63 2169.73L1805.14 2181.4L1956.02 2263.52Z" fill="#F5CC3E"/>
<path d="M1763.62 2207.58L1765.63 2236.48L1956.02 2263.52L1763.62 2207.58Z" fill="#F5CC3E"/>
<path d="M698.438 356.398L918.683 233.24L842.974 228.245L698.438 356.398Z" fill="#F5CC3E"/>
<path d="M698.438 356.398L766.208 247.402L823.08 245.889L698.438 356.398Z" fill="#F5CC3E"/>
<path d="M868.028 261.564L872.439 289.311L698.438 356.398L868.028 261.564Z" fill="#F5CC3E"/>
<defs>
<linearGradient id="paint0_linear" x1="2899.1" y1="1687.13" x2="4055.51" y2="1687.13" gradientUnits="userSpaceOnUse">
<stop stop-color="#4A55B0"/>
<stop offset="1" stop-color="#223263"/>
</linearGradient>
<linearGradient id="paint1_linear" x1="628.278" y1="976.595" x2="1487.26" y2="888.337" gradientUnits="userSpaceOnUse">
<stop stop-color="#1E2245"/>
<stop offset="1" stop-color="#223263"/>
</linearGradient>
</defs>
</svg>
