<svg height="512pt" viewBox="0 0 512 512" width="512pt" xmlns="http://www.w3.org/2000/svg"><path d="M45 192H0v-40h45zm-26.574 79.004l17.996 35.723 42.437-21.375-17.992-35.723zm59.433-215.41L36.418 34.723 18.426 70.449l41.441 20.867zM476.47 192a79.669 79.669 0 01-8.578 20.605L493.285 238 465 266.285l-25.395-25.394A79.669 79.669 0 01419 249.469V285h-40v-35.531a79.669 79.669 0 01-20.605-8.578L333 266.285 304.715 238l25.394-25.395A79.669 79.669 0 01321.531 192H285v-40h36.531a79.669 79.669 0 018.578-20.605L304.715 106 333 77.715l25.395 25.394A79.669 79.669 0 01379 94.531V59h40v35.531a79.669 79.669 0 0120.605 8.578L465 77.715 493.285 106l-25.394 25.395A79.669 79.669 0 01476.469 152H512v40zM359 171.25c0 21.844 17.2 40.223 39.035 40.738C420.531 212.52 439 194.378 439 172c0-22.055-17.945-40-40-40h-.727C376.59 131.992 359 149.566 359 171.25zm-31.695 135.879a151.993 151.993 0 0039.023 14.348c-17.918 23.992-31.215 45.152-31.215 77.937V452c0 33.086-26.918 60-60 60h-38.222c-33.086 0-60-26.914-60-60v-52.586c0-36.91-16.852-59.086-38.18-87.152C113.207 278.699 84.32 240.687 84.004 172H84l.004-1.145C84.62 76.54 161.539 0 256 0c34.246 0 66.184 10.066 93.02 27.39a152.86 152.86 0 00-42.38 22.715C291.04 43.602 273.935 40 256 40c-72.617 0-131.727 58.937-132 131.492.172 55.524 22.707 85.18 46.559 116.567 18.507 24.355 37.527 49.386 44.007 84.941h82.88c4.816-26.422 16.55-47.035 29.859-65.871zM295.109 452v-39h-78.222v39c0 11.027 8.972 20 20 20h38.222c11.032 0 20-8.973 20-20zm0 0"/></svg>