<svg xmlns="http://www.w3.org/2000/svg" height="512" width="512"><path d="M467 1H45C20.187 1 0 21.187 0 46v420c0 24.813 20.187 45 45 45h422c24.813 0 45-20.187 45-45V46c0-24.813-20.187-45-45-45zM45 31h422c8.271 0 15 6.729 15 15v75H30V46c0-8.271 6.729-15 15-15zm422 450H45c-8.271 0-15-6.729-15-15V151h452v315c0 8.271-6.729 15-15 15z" data-original="#000000" class="active-path" data-old_color="#000000" fill="#FFF"/><path d="M436 181H76c-8.284 0-15 6.716-15 15v90c0 8.284 6.716 15 15 15h360c8.284 0 15-6.716 15-15v-90c0-8.284-6.716-15-15-15zm-15 90H91v-60h330zm-195 60H76c-8.284 0-15 6.716-15 15v90c0 8.284 6.716 15 15 15h150c8.284 0 15-6.716 15-15v-90c0-8.284-6.716-15-15-15zm-15 90H91v-60h120z" data-original="#000000" class="active-path" data-old_color="#000000" fill="#FFF"/><circle cx="76" cy="76" r="15" data-original="#000000" class="active-path" data-old_color="#000000" fill="#FFF"/><circle cx="136" cy="76" r="15" data-original="#000000" class="active-path" data-old_color="#000000" fill="#FFF"/><circle cx="196" cy="76" r="15" data-original="#000000" class="active-path" data-old_color="#000000" fill="#FFF"/><path d="M346 91h90c8.284 0 15-6.716 15-15s-6.716-15-15-15h-90c-8.284 0-15 6.716-15 15s6.716 15 15 15zm90 240H286c-8.284 0-15 6.716-15 15v90c0 8.284 6.716 15 15 15h150c8.284 0 15-6.716 15-15v-90c0-8.284-6.716-15-15-15zm-15 90H301v-60h120z" data-original="#000000" class="active-path" data-old_color="#000000" fill="#FFF"/></svg>