<?xml version="1.0"?>
<svg xmlns="http://www.w3.org/2000/svg" id="Capa_1" enable-background="new 0 0 512 512" height="512px" viewBox="0 0 512 512" width="512px"><g><path d="m467 1h-422c-24.813 0-45 20.187-45 45v420c0 24.813 20.187 45 45 45h422c24.813 0 45-20.187 45-45v-420c0-24.813-20.187-45-45-45zm-422 30h422c8.271 0 15 6.729 15 15v75h-452v-75c0-8.271 6.729-15 15-15zm422 450h-422c-8.271 0-15-6.729-15-15v-315h452v315c0 8.271-6.729 15-15 15z" data-original="#000000" class="active-path" data-old_color="#000000" fill="#FFFFFF"/><path d="m436 181h-360c-8.284 0-15 6.716-15 15v90c0 8.284 6.716 15 15 15h360c8.284 0 15-6.716 15-15v-90c0-8.284-6.716-15-15-15zm-15 90h-330v-60h330z" data-original="#000000" class="active-path" data-old_color="#000000" fill="#FFFFFF"/><path d="m226 331h-150c-8.284 0-15 6.716-15 15v90c0 8.284 6.716 15 15 15h150c8.284 0 15-6.716 15-15v-90c0-8.284-6.716-15-15-15zm-15 90h-120v-60h120z" data-original="#000000" class="active-path" data-old_color="#000000" fill="#FFFFFF"/><circle cx="76" cy="76" r="15" data-original="#000000" class="active-path" data-old_color="#000000" fill="#FFFFFF"/><circle cx="136" cy="76" r="15" data-original="#000000" class="active-path" data-old_color="#000000" fill="#FFFFFF"/><circle cx="196" cy="76" r="15" data-original="#000000" class="active-path" data-old_color="#000000" fill="#FFFFFF"/><path d="m346 91h90c8.284 0 15-6.716 15-15s-6.716-15-15-15h-90c-8.284 0-15 6.716-15 15s6.716 15 15 15z" data-original="#000000" class="active-path" data-old_color="#000000" fill="#FFFFFF"/><path d="m436 331h-150c-8.284 0-15 6.716-15 15v90c0 8.284 6.716 15 15 15h150c8.284 0 15-6.716 15-15v-90c0-8.284-6.716-15-15-15zm-15 90h-120v-60h120z" data-original="#000000" class="active-path" data-old_color="#000000" fill="#FFFFFF"/></g> </svg>
