<svg width="6664" height="6664" fill="none" xmlns="http://www.w3.org/2000/svg"><path d="M3331.89 975.146c-629.43 0-1221.19 245.134-1666.27 690.204-445.07 445.07-690.188 1036.83-690.188 1666.26 0 629.44 245.118 1221.2 690.188 1666.25 445.08 445.09 1036.84 690.22 1666.27 690.22 629.44 0 1221.2-245.13 1666.27-690.22 445.07-445.05 690.19-1036.81 690.19-1666.25 0-629.43-245.12-1221.19-690.19-1666.26-445.07-445.07-1036.83-690.204-1666.27-690.204zm0 4719.534c-631.2 0-1224.62-245.81-1670.94-692.12-446.33-446.34-692.122-1039.76-692.122-1670.95 0-631.2 245.792-1224.62 692.122-1670.94 446.32-446.33 1039.74-692.139 1670.94-692.139s1224.62 245.809 1670.95 692.139c446.32 446.32 692.12 1039.74 692.12 1670.94 0 631.19-245.8 1224.61-692.12 1670.95-446.33 446.31-1039.75 692.12-1670.95 692.12" fill="#B1C2E8"/><path d="M3331.89 694.596c-355.98 0-701.32 69.729-1026.43 207.234-314.01 132.81-596.02 322.95-838.2 565.13-242.17 242.17-432.31 524.18-565.13 838.2-137.5 325.1-207.219 670.44-207.219 1026.43 0 355.98 69.719 701.34 207.219 1026.43 132.82 314.03 322.96 596.04 565.13 838.21 242.18 242.16 524.19 432.32 838.2 565.13 325.11 137.5 670.45 207.22 1026.43 207.22 355.99 0 701.34-69.72 1026.45-207.22 314.01-132.81 596.01-322.97 838.18-565.13 242.18-242.17 432.33-524.18 565.15-838.21 137.5-325.09 207.21-670.45 207.21-1026.43 0-355.99-69.71-701.33-207.21-1026.43-132.82-314.02-322.97-596.03-565.15-838.2-242.17-242.18-524.17-432.32-838.18-565.13-325.11-137.505-670.46-207.234-1026.45-207.234zm0 5281.384c-356.98 0-703.29-69.92-1029.3-207.8-314.89-133.2-597.7-323.86-840.56-566.73-242.85-242.84-433.51-525.65-566.704-840.54-137.897-326.01-207.818-672.32-207.818-1029.32 0-356.99 69.921-703.3 207.818-1029.31 133.194-314.91 323.854-597.7 566.704-840.55 242.86-242.86 525.67-433.54 840.56-566.716 326.01-137.89 672.32-207.819 1029.3-207.819 357 0 703.31 69.929 1029.33 207.819 314.89 133.176 597.7 323.856 840.53 566.716 242.86 242.85 433.54 525.64 566.72 840.55 137.9 326.01 207.82 672.32 207.82 1029.31 0 357-69.92 703.31-207.82 1029.32-133.18 314.89-323.86 597.7-566.72 840.54-242.83 242.87-525.64 433.53-840.53 566.73-326.02 137.88-672.33 207.8-1029.33 207.8z" fill="#B1C2E8"/><path d="M3331.89 1468.43c-251.51 0-495.52 49.26-725.23 146.41-221.85 93.85-421.12 228.19-592.23 399.3-171.1 171.1-305.45 370.37-399.29 592.22-97.15 229.71-146.42 473.7-146.42 725.23 0 251.53 49.27 495.54 146.42 725.24 93.84 221.86 228.19 421.11 399.29 592.24 171.11 171.1 370.38 305.44 592.23 399.29 229.71 97.15 473.72 146.4 725.23 146.4 251.53 0 495.54-49.25 725.24-146.4 221.86-93.85 421.13-228.19 592.23-399.29 171.11-171.13 305.45-370.38 399.29-592.24 97.16-229.7 146.41-473.71 146.41-725.24 0-251.53-49.25-495.52-146.41-725.23-93.84-221.85-228.18-421.12-399.29-592.22-171.1-171.11-370.37-305.45-592.23-399.3-229.7-97.15-473.71-146.41-725.24-146.41zm0 3731.56c-252.22 0-496.92-49.4-727.26-146.83-222.49-94.1-422.3-228.82-593.89-400.4-171.58-171.6-306.3-371.42-400.4-593.9-97.44-230.35-146.85-475.03-146.85-727.27 0-252.22 49.41-496.92 146.85-727.26 94.1-222.48 228.82-422.3 400.4-593.89 171.59-171.58 371.4-306.3 593.89-400.42 230.34-97.42 475.04-146.83 727.26-146.83 252.24 0 496.94 49.41 727.27 146.83 222.48 94.12 422.3 228.84 593.9 400.42 171.58 171.59 306.3 371.41 400.4 593.89 97.43 230.34 146.83 475.04 146.83 727.26 0 252.24-49.4 496.92-146.83 727.27-94.1 222.48-228.82 422.3-400.4 593.9-171.6 171.58-371.42 306.3-593.9 400.4-230.33 97.43-475.03 146.83-727.27 146.83z" fill="#B1C2E8"/><path d="M3331.9 6308.39c-401.86 0-791.71-78.7-1158.71-233.93-354.46-149.93-672.81-364.57-946.19-637.95-273.39-273.37-488.025-591.74-637.953-946.2-155.231-366.99-233.934-756.84-233.934-1158.71 0-132.6 8.57-263.87 25.627-393.46a122.696 122.696 0 0012.22-27.92c-19.648 138.63-29.523 279.25-29.523 421.38 0 400.75 78.487 789.5 233.278 1155.46 149.509 353.49 363.548 670.95 636.165 943.56 272.62 272.63 590.08 486.66 943.56 636.17 365.97 154.8 754.71 233.26 1155.46 233.26 400.74 0 789.48-78.46 1155.45-233.26 43.76-18.51 86.97-38.01 129.6-58.47 2.08 2.1 4.09 4.17 6.18 6.26a2978.55 2978.55 0 01-132.53 59.88c-366.99 155.23-756.84 233.93-1158.7 233.93zm2576.47-1484.41c-1.9-2.21-3.83-4.43-5.77-6.63 61.41-106.16 116.29-216.34 164.48-330.29 154.8-365.96 233.27-754.71 233.27-1155.46 0-400.74-78.47-789.48-233.27-1155.46-67.51-159.64-148.2-311.93-241.5-456.07l6.89-4.66c93.61 144.58 174.56 297.35 242.29 457.49 155.23 367 233.93 756.83 233.93 1158.7s-78.7 791.72-233.93 1158.71c-48.7 115.14-104.23 226.45-166.39 333.67zM398.002 2876.08c0-.29.006-.57.006-.86 0-10.21-1.251-20.14-3.594-29.63 29.479-179.83 75.48-356.14 137.794-527.93.866 5.65 1.786 11.36 2.741 16.99-62.873 176.11-108.597 356.96-136.947 541.43zm930.648-1746.45c249.66-227.539 533.14-409.171 844.54-540.875 367-155.23 756.85-233.929 1158.71-233.929s791.71 78.699 1158.7 233.929c297.41 125.796 569.42 297.165 810.75 510.555h-12.57c-238.91-209.913-507.72-378.667-801.43-502.893C4121.38 441.618 3732.64 363.15 3331.9 363.15c-400.75 0-789.49 78.468-1155.46 233.267-305.94 129.396-584.87 307.135-831.12 529.343-5.57 1.24-11.13 2.54-16.67 3.87" fill="#DCE2F4"/><path d="M3331.89 6663.12c-449.75 0-886.05-88.09-1296.78-261.81-396.71-167.8-753.01-408-1058.957-713.97-305.966-305.97-546.186-662.26-713.972-1058.96C88.452 4217.64.367 3781.34.367 3331.59s88.085-886.05 261.814-1296.78C429.967 1638.1 670.187 1281.8 976.153 975.852 1282.1 669.886 1638.4 429.68 2035.11 261.88 2445.84 88.157 2882.14.057 3331.89.057s886.06 88.1 1296.79 261.823c396.7 167.8 752.99 408.006 1058.96 713.972a3399.601 3399.601 0 01117.41 123.438h-12.59a3377.84 3377.84 0 00-111.42-116.853c-305.11-305.104-660.38-544.648-1055.99-711.971C4215.46 97.22 3780.39 9.381 3331.89 9.381c-448.5 0-883.57 87.839-1293.15 261.085-395.6 167.323-750.9 406.867-1056.001 711.971C677.628 1287.54 438.093 1642.84 270.753 2038.44 97.523 2448.02 9.69 2883.1 9.69 3331.59c0 448.5 87.832 883.57 261.063 1293.14 167.34 395.62 406.875 750.9 711.986 1056.01 305.101 305.1 660.401 544.66 1056.001 711.98 409.58 173.23 844.65 261.07 1293.15 261.07 448.5 0 883.57-87.84 1293.16-261.07 116.26-49.17 229.05-104.59 338.09-166.07 3.99 1.33 7.96 2.66 11.96 3.95-111.64 63.33-227.19 120.29-346.42 170.71-410.73 173.72-847.04 261.81-1296.79 261.81zm2764.94-1471.81c-.99-4.08-1.99-8.17-3.03-12.22 116.76-174.21 216.76-359.37 299.22-554.36 173.25-409.57 261.09-844.64 261.09-1293.14 0-448.49-87.84-883.57-261.09-1293.15-124.31-293.93-288.51-565.62-489.84-810.98v-14.68c205.19 248.35 372.28 523.77 498.43 822.03 173.72 410.73 261.81 847.03 261.81 1296.78s-88.09 886.05-261.81 1296.79c-83.81 198.13-185.68 386.19-304.78 562.93" fill="#E9EBF8"/><path d="M3331.87 264.369c-414.07 0-815.77 81.1-1193.89 241.037-365.25 154.491-693.28 375.649-974.97 657.334-281.687 281.69-502.848 609.72-657.333 974.95C345.741 2515.85 264.64 2917.53 264.64 3331.6c0 414.08 81.101 815.76 241.037 1193.91 154.485 365.24 375.646 693.27 657.333 974.94 281.69 281.71 609.72 502.87 974.97 657.34 378.12 159.95 779.82 241.04 1193.89 241.04 414.08 0 815.77-81.09 1193.91-241.04 365.25-154.47 693.28-375.63 974.96-657.34 281.67-281.67 502.83-609.7 657.32-974.94 159.96-378.15 241.04-779.83 241.04-1193.91 0-414.07-81.08-815.75-241.04-1193.91-154.49-365.23-375.65-693.26-657.32-974.95-281.68-281.685-609.71-502.843-974.96-657.334-378.14-159.937-779.83-241.037-1193.91-241.037zm0 6143.081c-415.24 0-818.04-81.34-1197.25-241.74-366.26-154.92-695.21-376.69-977.7-659.16-282.467-282.47-504.247-611.41-659.165-977.69-160.393-379.2-241.716-782.02-241.716-1197.26 0-415.22 81.323-818.04 241.716-1197.25 154.918-366.26 376.698-695.21 659.165-977.69 282.49-282.482 611.44-504.256 977.7-659.178 379.21-160.383 782.01-241.714 1197.25-241.714s818.06 81.331 1197.26 241.714c366.27 154.922 695.22 376.696 977.69 659.178 282.47 282.48 504.26 611.43 659.17 977.69 160.4 379.21 241.73 782.03 241.73 1197.25 0 415.24-81.33 818.06-241.73 1197.26-154.91 366.28-376.7 695.22-659.17 977.69-282.47 282.47-611.42 504.24-977.69 659.16-379.2 160.4-782.02 241.74-1197.26 241.74" fill="#B1C2E8"/><path d="M3136.29 1136.62c-81.03 0-148.54-57.84-163.53-134.46 108.38-16.476 218.59-25.507 330.05-26.845-2.8 89.545-76.28 161.305-166.52 161.305zm-164.66-140.966c-1.3-8.37-1.96-16.924-1.96-25.648 0-92.024 74.59-166.615 166.62-166.615 91.59 0 165.9 73.899 166.61 165.323-111.87 1.339-222.51 10.4-331.27 26.94z" fill="#BFCCEC"/><path d="M2972.75 1002.16c-.42-2.169-.8-4.323-1.14-6.508 108.76-16.54 219.4-25.602 331.28-26.941v1.293c0 1.784-.04 3.539-.1 5.308-111.45 1.339-221.66 10.37-330.04 26.848z" fill="#B1C2E8"/><path d="M3267.22 1125.71c-1.99-42.65-27.79-70.4-45.64-68.43-17.85 1.98-59.5-3.97-59.5-3.97-3.06-6.79-3.44-15.5-2.64-24.02 19.31-12.48 33.63-40.141 37.05-73.591 4.37-.877 8.92-6.077 11.06-13.201 2.66-8.755.68-17.094-4.42-18.648-1.84-.554-3.84-.123-5.77 1.062.28-45.835-1.26-80.869-61.02-80.869-56.46 0-60.65 34.542-60.91 79.93-1.62-1.323-3.4-1.984-5.2-1.769-5.26.631-8.66 8.508-7.57 17.602 1.09 9.077 6.26 15.924 11.54 15.293l1.89-.569c3.08 32.633 16.54 59.93 34.91 73.22 1 9 .77 18.36-2.47 25.56 0 0-41.65 5.95-59.52 3.97-17.84-1.97-43.62 25.78-45.6 68.43-1.89 40.52 119.72 64.92 131.89 67.26 12.17-2.34 133.79-26.74 131.92-67.26" fill="#7199D7"/><path d="M1846.82 5780.12c-140.03 0-253.55-113.52-253.55-253.53 0-59.02 20.16-113.32 53.97-156.4 130.48 108.11 270.41 202.96 418.8 283.88-43.95 75.37-125.66 126.05-219.22 126.05zm222.85-132.5c-148.05-80.72-287.61-175.31-417.78-283.18 46.5-55.85 116.56-91.41 194.93-91.41 140.02 0 253.54 113.52 253.54 253.56 0 43.82-11.12 85.06-30.69 121.03z" fill="#BFCCEC"/><path d="M2066.02 5654.07c-148.38-80.92-288.32-175.77-418.79-283.88 1.5-1.93 3.06-3.86 4.64-5.75 130.17 107.87 269.74 202.46 417.78 283.18-1.19 2.17-2.39 4.31-3.63 6.45z" fill="#B1C2E8"/><path d="M2046.05 5763.51c-3.01-64.89-42.26-107.14-69.42-104.11-27.17 3.01-90.56-6.05-90.56-6.05-4.65-10.34-5.23-23.57-4.02-36.54 29.37-19 51.19-61.11 56.39-112.01 6.63-1.31 13.56-9.23 16.83-20.08 4.03-13.32 1.02-26.02-6.7-28.37-2.84-.83-5.87-.19-8.81 1.6.42-69.75-1.9-123.04-92.83-123.04-85.95 0-92.32 52.57-92.72 121.61-2.45-2-5.16-3.02-7.89-2.69-8.04.96-13.19 12.95-11.53 26.78 1.66 13.83 9.53 24.25 17.54 23.28l2.89-.86c4.68 49.67 25.16 91.19 53.13 111.42 1.53 13.7 1.16 27.95-3.77 38.9 0 0-63.39 9.06-90.56 6.05-27.16-3.03-66.41 39.22-69.42 104.11-2.86 61.67 182.2 98.8 200.73 102.37 18.52-3.57 203.58-40.7 200.72-102.37" fill="#7199D7"/><path d="M5903.55 2904.19c-104 0-188.34-84.33-188.34-188.34 0-84.27 55.35-155.61 131.68-179.67 37.88 119.67 67 241.69 87.28 365.54-9.97 1.63-20.2 2.47-30.62 2.47zm37.9-3.8a2613.203 2613.203 0 00-87.47-366.29c15.8-4.31 32.42-6.6 49.57-6.6 104.05 0 188.36 84.33 188.36 188.35 0 91.04-64.59 167-150.46 184.54z" fill="#BFCCEC"/><path d="M5934.17 2901.71a2606.649 2606.649 0 00-87.29-365.54c2.34-.73 4.71-1.43 7.1-2.07a2614.603 2614.603 0 0187.47 366.29c-2.42.49-4.84.94-7.28 1.32" fill="#B1C2E8"/><path d="M6051.54 2891.86c-2.25-48.22-31.4-79.6-51.57-77.36-20.19 2.25-67.27-4.47-67.27-4.47-3.45-7.68-3.89-17.53-2.99-27.16 21.82-14.12 38.02-45.4 41.89-83.21 4.92-.98 10.07-6.84 12.52-14.91 2.98-9.89.74-19.34-5.02-21.08-2.07-.63-4.34-.13-6.5 1.19.29-51.82-1.44-91.39-68.98-91.39-63.84 0-68.58 39.05-68.87 90.33-1.83-1.48-3.83-2.25-5.88-2-5.95.72-9.78 9.63-8.55 19.89 1.23 10.28 7.06 18.02 13.03 17.3l2.14-.65c3.48 36.91 18.69 67.76 39.47 82.79 1.13 10.17.87 20.74-2.8 28.9 0 0-47.09 6.72-67.27 4.47-20.17-2.24-49.33 29.14-51.56 77.36-2.14 45.81 135.33 73.38 149.11 76.03 13.75-2.65 151.22-30.22 149.1-76.03M948.573 4287.84c0 44-35.683 79.68-79.689 79.68-44.013 0-79.689-35.68-79.689-79.68 0-44 35.676-79.7 79.689-79.7 44.006 0 79.689 35.7 79.689 79.7zM6055.7 3527.2c0 44.01-35.67 79.69-79.69 79.69-44 0-79.68-35.68-79.68-79.69 0-44.02 35.68-79.7 79.68-79.7 44.02 0 79.69 35.68 79.69 79.7zM4102.43 827.18c-17.14 21.464-48.47 24.972-69.92 7.817-21.48-17.156-24.95-48.451-7.81-69.93 17.15-21.448 48.45-24.94 69.91-7.8 21.48 17.155 24.96 48.465 7.82 69.913zm-257.9 4806.89c4.65 27.09-13.54 52.8-40.62 57.45-27.06 4.65-52.79-13.51-57.43-40.61-4.67-27.07 13.52-52.8 40.6-57.45 27.06-4.64 52.79 13.53 57.45 40.61zm-883.77 731.65c4.65 27.1-13.54 52.79-40.61 57.45-27.07 4.66-52.79-13.52-57.44-40.6-4.66-27.08 13.52-52.79 40.6-57.45 27.08-4.66 52.79 13.52 57.45 40.6zm3441-2470.26c4.64 27.08-13.54 52.8-40.61 57.45-27.08 4.65-52.8-13.52-57.46-40.6-4.65-27.08 13.54-52.81 40.61-57.46 27.08-4.64 52.79 13.53 57.46 40.61M1381.52 961.586c4.64 27.064-13.53 52.794-40.61 57.454-27.07 4.64-52.8-13.54-57.45-40.622-4.64-27.079 13.53-52.805 40.61-57.452 27.08-4.646 52.8 13.541 57.45 40.62z" fill="#7199D7"/><path d="M273.777 2998.36c-67.517-.59-122.089-55.5-122.089-123.15 0-68.01 55.143-123.15 123.16-123.15 12.007 0 23.613 1.72 34.587 4.92a3060.86 3060.86 0 00-35.658 241.38zm8.679-.23c8.624-80.1 20.368-159.6 35.22-238.41 37.851 14.03 66.917 46.14 76.726 85.85a2960.98 2960.98 0 00-13.674 92.55c-20.26 34.02-56.447 57.45-98.272 60.01zm110.492-87.92c1.609-11.38 3.298-22.79 5.042-34.14-.085 11.85-1.839 23.31-5.042 34.14z" fill="#BFCCEC"/><path d="M380.719 2938.11c4.075-30.94 8.63-61.8 13.673-92.54a123.407 123.407 0 013.594 29.63c0 .29-.006.57-.006.86a2951.715 2951.715 0 00-5.042 34.14 122.426 122.426 0 01-12.219 27.91z" fill="#B9C7EA"/><path d="M274.868 2998.36h-1.071a3060.86 3060.86 0 0135.658-241.38c2.79.82 5.543 1.73 8.241 2.74a3050.158 3050.158 0 00-35.22 238.41c-2.519.15-5.054.23-7.608.23z" fill="#B1C2E8"/><path d="M371.616 2990.3c-1.46-31.53-20.53-52.06-33.723-50.59-13.192 1.47-43.976-2.93-43.976-2.93-2.259-5.01-2.548-11.46-1.953-17.75 14.261-9.23 24.858-29.68 27.383-54.39 3.221-.65 6.586-4.49 8.179-9.76 1.954-6.47.498-12.64-3.27-13.78-1.358-.42-2.837-.09-4.272.78.21-33.89-.927-59.77-45.089-59.77-41.741 0-44.835 25.54-45.027 59.08l-3.836-1.31c-3.9.46-6.413 6.28-5.594 13 .798 6.71 4.616 11.77 8.516 11.31l1.406-.43c2.265 24.14 12.218 44.31 25.795 54.13.746 6.66.572 13.57-1.82 18.89 0 0-30.791 4.4-43.989 2.93-13.192-1.47-32.257 19.06-33.717 50.59-1.388 29.94 88.499 47.97 97.49 49.71 8.992-1.74 98.892-19.77 97.497-49.71z" fill="#7199D7"/><path d="M4660.59 4742.31H4557.1c32.88-28.62 64.88-58.48 95.95-89.55 171.58-171.6 306.3-371.42 400.4-593.9 97.43-230.34 146.83-475.02 146.83-727.26 0-252.23-49.4-496.92-146.83-727.27-32.31-76.41-69.42-150.13-111.16-220.97h316.64c2.25 0 4.48-.11 6.68-.34 161.38 302.04 252.82 646.95 252.82 1013.32 0 412.04-115.75 797.07-316.47 1124.32-207.54 9.88-396.19 91.96-541.37 221.65zm-111.46 0h-5.31l-39.02-151.75c62.01-3.4 118.49-15.31 167.23-33.54 53.92-20.19 98.32-48.1 130.28-80.83-47.13 60.39-98.17 118.07-152.96 172.88-32.41 32.4-65.83 63.5-100.22 93.24zm-741.62 0H2114.65a1891.6 1891.6 0 01-100.22-93.24c-17.36-17.37-34.33-35-50.93-52.93 4.17.52 8.43.8 12.74.8h1250.42c26.05 0 49.71-9.92 67.48-26.15 2.38 6.2 4.62 12.77 6.66 19.72 95.6-34.54 220.68-87.24 265.87-119.64 0 0 91.32-69.92 177.86-158.2 8.85-9.02 17.64-18.22 26.28-27.57 3 3.55 6.28 7.03 9.8 10.45 55.95 54.11 86.61 129.15 79.2 207.95l-52.3 238.81zm-1700.83 0h-422.85c-295.57-368.68-472.4-836.68-472.4-1345.97 0-82.18 4.6-163.23 13.57-243.01 6.11 2.14 12.31 4.27 18.46 6.31 71.46 23.68 146.4 39.98 224.04 47.98-2.68 41.09-4.02 82.45-4.02 123.98 0 252.24 49.41 496.92 146.85 727.26 67.94 160.66 157.07 309.51 265.97 444.43 2.93 45.28 35.79 82.16 78.77 91.41a1912.73 1912.73 0 0055.66 58.06c31.07 31.07 63.07 60.93 95.95 89.55zm-230.71-247.78c-106.61-133.1-193.99-279.65-260.84-437.7-97.15-229.7-146.42-473.7-146.42-725.23 0-41.38 1.34-82.52 3.99-123.46 14.95 1.46 30.06 2.63 45.22 3.46 19.94 1.11 39.79 1.66 59.53 1.66 149 0 291.48-31.18 420.9-87.67 354.01-154.49 610.05-498.19 632.95-910.17 1.09-19.91 1.64-39.73 1.64-59.42.02-178.57-44.77-347.85-124.18-496.4 32.11-15.82 64.75-30.74 97.89-44.76 229.71-97.14 473.72-146.41 725.23-146.41 192.73 0 381.02 28.93 561.85 86.13v53.28c0 33.02 26.77 59.79 59.78 59.79h217.62a1851.905 1851.905 0 01170.09 97.41H3202.76c-35.91 0-65.03 29.11-65.03 65.04v518.74c0 21.6 10.72 41.78 28.61 53.89l328.83 222.16c3.94 2.66 8.14 3.85 12.22 3.85 13.57 0 25.59-13.16 20.99-28.33l-65.76-217.03h1473.59c42.27 71.45 79.79 145.86 112.43 223 97.16 229.72 146.41 473.71 146.41 725.24 0 251.53-49.25 495.53-146.41 725.23-56.19 132.88-126.91 257.62-211.36 373.08 33.2-59.7 29.32-128.81-24.8-194.43 0 0 255.02-86.95 130.35-391.51-124.69-304.55-266.55-361.56-266.55-361.56s4.43-5.95 11.6-16.62c57.79 24.98 107.72 71.07 139.24 123.52.79 1.28 1.93 1.8 3.08 1.8 2.63 0 5.26-2.74 3.51-5.64-32.1-53.35-82.79-100.46-141.52-126.2a716.6 716.6 0 0010.06-15.76c44.04 8.88 86.86 25.82 126.69 45.44.6.29 1.18.43 1.75.43 3.54 0 5.88-5.14 2.08-7.02-39.9-19.63-82.44-36.54-126.29-45.69 77.16-126.86 242.99-476.34-242.62-516.33 30.22-32.98 72.28-53.75 113.96-68.59 4.13-1.47 2.94-7.58-.72-7.58-.4 0-.83.08-1.31.24-41.71 14.85-83.17 35.05-114.19 67.27 4.66-21.45 11.78-42.49 19.89-62.62 1.13-2.75-1.15-4.57-3.5-4.57-1.54 0-3.11.77-3.82 2.54-8.91 22.09-16.57 45.14-21.2 68.65-7.57-7.12-24.88-22.88-49.65-42.57-13.25-19.77-28.42-38.22-44.3-54.59-71.41-73.62-167.69-104.99-267.24-104.99-15.85 0-31.79.8-47.71 2.33-1.85.19-3 1.4-3.43 2.84-.97-.02-1.96-.02-2.93-.02-68.83 0-138.82 20.49-203.71 74.7-81.28 67.91-92.87 172.06-72.13 272.19 1.25 15.9 4.14 31.31 5.79 41.55 12.19 74.99 44.9 145.42 84.9 209.92-49.67 8.39-139.24 38.33-120.61 144.95 25.51 145.96 145.6 329.93 3.29 349.08-63.1 8.48-111.69 77.28-102.32 177.76 1.68 17.94 5.2 36.89 10.82 56.68-89.25 158.33-177.78 320.3-177.78 320.3s-64.95 30.84-141.26 67.72l-27.74-809.68c-1.85-53.92-46.12-96.7-100.09-96.7H1946.45c-56.64 0-102.01 46.95-100.07 103.57l29.59 863.81zm2894.87-2729.49h-420.02a1854.841 1854.841 0 00-168.17-97.41h466.69c41.68 31.02 82.21 63.52 121.5 97.41zM2506.28 1655a1060.904 1060.904 0 00-120.5-177.2c293.75-150.2 626.58-234.96 979.15-234.96 182.43 0 359.65 22.71 528.8 65.41v240.83c-180.86-57.05-369.14-85.88-561.85-85.88-252.22 0-496.92 49.4-727.26 146.83-33.3 14.09-66.09 29.08-98.34 44.97" fill="#BFCCEC"/><path d="M4557.11 4742.31h-7.97c34.39-29.74 67.81-60.84 100.22-93.24 54.79-54.81 105.83-112.49 152.96-172.88 14.21-14.57 25.95-30.08 34.97-46.28 84.45-115.46 155.17-240.2 211.36-373.08 97.16-229.7 146.41-473.7 146.41-725.23 0-251.53-49.25-495.52-146.41-725.24-32.64-77.14-70.16-151.55-112.43-223h6.08c41.74 70.84 78.85 144.56 111.16 220.97 97.43 230.35 146.83 475.04 146.83 727.27 0 252.24-49.4 496.92-146.83 727.26-94.1 222.48-228.82 422.3-400.4 593.9a1898.016 1898.016 0 01-95.95 89.55zm-2442.45 0h-7.97a1898.016 1898.016 0 01-95.95-89.55c-19-19.01-37.57-38.37-55.67-58.06 2.77.6 5.59 1.07 8.44 1.44a1936.29 1936.29 0 0050.92 52.93c32.41 32.4 65.84 63.5 100.23 93.24zm-238.35-239.02c-108.9-134.92-198.03-283.77-265.97-444.43-97.44-230.34-146.85-475.02-146.85-727.26 0-41.53 1.34-82.89 4.02-123.98 1.75.18 3.44.35 5.2.52-2.65 40.94-3.99 82.08-3.99 123.46 0 251.53 49.27 495.53 146.42 725.23 66.85 158.05 154.23 304.6 260.84 437.7l.18 5.71c.05 1.02.09 2.03.15 3.05zm2474.52-2738.25h-9.6c-54.85-35.4-111.6-67.9-170.09-97.41h11.52a1854.841 1854.841 0 01168.17 97.41zM2508.77 1659.6c-.83-1.55-1.65-3.06-2.48-4.6 32.25-15.89 65.04-30.88 98.34-44.97 230.34-97.43 475.04-146.83 727.26-146.83 192.71 0 380.99 28.83 561.85 85.88v5.48c-180.83-57.2-369.12-86.13-561.85-86.13-251.51 0-495.52 49.27-725.23 146.41a1870.313 1870.313 0 00-97.89 44.76" fill="#B1C2E8"/><path d="M3860.77 3315.78c-35.47-56.82-65.01-117.99-80.23-183.26 25.9 74.51 66.09 141.17 103.23 181.26 0 0-9.17.13-23 2zm521.29-459.12c-70.19-52.63-181.71-121.19-300.86-135.36 3.42-.08 6.83-.12 10.25-.12 99.16 0 194.71 31.41 265.13 105.79 8.78 9.28 17.34 19.23 25.48 29.69" fill="#BFCCEC"/><path d="M4356.58 2826.97c8.79 9.28 17.34 19.23 25.48 29.7-70.19-52.64-181.71-121.2-300.86-135.37 102.81-2.23 202.54 28.74 275.38 105.67zm-576.04 305.55c25.9 74.52 66.09 141.17 103.23 181.27 0 0-9.17.12-23 2-35.47-56.83-65.01-118-80.23-183.27zm1162.31 711.45c-124.69-304.55-266.55-361.55-266.55-361.55s4.43-5.96 11.6-16.62c57.79 24.97 107.72 71.07 139.25 123.52 2.52 4.18 9.1.35 6.58-3.85-32.09-53.34-82.79-100.45-141.52-126.19 3.05-4.64 6.43-9.93 10.06-15.76 44.04 8.88 86.86 25.82 126.69 45.43 4.39 2.16 8.25-4.41 3.83-6.58-39.89-19.63-82.44-36.54-126.29-45.7 77.16-126.85 242.99-476.33-242.62-516.32 30.22-32.99 72.29-53.76 113.97-68.59 4.58-1.63 2.61-9-2.03-7.34-41.72 14.85-83.18 35.05-114.2 67.27 4.66-21.45 11.79-42.5 19.89-62.62 1.85-4.56-5.52-6.53-7.32-2.03-8.91 22.09-16.57 45.14-21.2 68.65-7.57-7.13-24.88-22.88-49.65-42.57-13.25-19.78-28.42-38.22-44.3-54.59-82.77-85.35-198.97-113.92-314.95-102.66-1.85.18-3 1.4-3.43 2.83-69.78-.58-140.83 19.71-206.63 74.68-81.29 67.92-92.87 172.07-72.13 272.2 1.24 15.89 4.13 31.31 5.78 41.54 12.19 74.99 44.9 145.43 84.9 209.93-49.66 8.38-139.24 38.32-120.61 144.95 25.51 145.95 145.6 329.92 3.29 349.08-142.29 19.14-210.85 345 293.03 649.25 503.86 304.26 982.98 16.17 784.21-224.85 0 0 255.02-86.94 130.35-391.51" fill="#416BBD"/><path d="M4504.8 4590.56l-14.65-56.96 97.41-322.41 116.3-384.91c-3.74-13.67-7.35-25.01-11.14-34.59l33.63 26.68s63.95 489.21-54.32 738.65c-48.75 18.23-105.23 30.14-167.23 33.54zm-861.07-545.05c-5.61-19.78-9.13-38.74-10.81-56.68l177.17-225.47c-30.11 43.35-98.44 161.69-166.36 282.15zm915.1-360.09c-51.23-29.9-181.08-99.18-181.08-99.18l-18.01-184.63 22.85-67.72s14.97 13.41 36.38 13.41c4.27 0 8.8-.54 13.51-1.82-15.48 10.2-32.8 23.72-39.05 36.53-12.31 25.15 13.08 182.52 13.08 182.52l152.32 120.89zm-518.51-44.74l26.07-111.68s-223.31-105.73-43.13-469.15c-32.66 65.78-54.8 146.82-44.22 239.53 13.45 117.78 40.08 154.63 87.35 189 14.45 10.51 37.63 16.61 64.9 18.25-.11 25.61-6.94 68.9-42.05 119.69-.02-.01-.02-.03-.02-.03s-21.71 5.77-48.9 14.39zm-17.06-580.83s.08-.13.2-.4c-.06.14-.12.27-.2.4zm.2-.4c.02-.03.03-.07.05-.09-.02.03-.03.06-.05.09zm.05-.09c.01-.01.01-.01.01-.03 0 0-.01.02-.01.03zm.01-.03c.02-.01.02-.03.02-.05 0 .04 0 .02-.02.05zm.02-.05l.03-.04c-.02.01-.02.03-.03.04zm.03-.04v-.02.02zm0-.02c6.57-13.23 12.63-25.45 18.25-36.8h.01c-9.49 19.16-16.71 33.68-18.26 36.8zm29.23-58.94c37.28-75.21 50.54-101.95 50.54-101.95s-27.71 55.91-50.54 101.95z" fill="#375FB5"/><path d="M4043.83 3022.45c-.67 0-1.35-.01-2.01-.03 3.41-6.89 7.12-14.37 10.97-22.14l3.44.62s.48-.04 1.39-.1c-4.66 6.96-9.28 14.19-13.79 21.65zm-2.03-.03c-70.31-1.28-97.27-41.7-97.27-41.7l108.26 19.56c-3.45 6.95-7.11 14.34-10.99 22.14" fill="#365BB2"/><path d="M4041.82 3022.43h-.02c3.88-7.8 7.54-15.19 10.99-22.14-3.85 7.77-7.55 15.24-10.97 22.14" fill="#3154AD"/><path d="M4046.1 3762.52l-45.69-81.22s-132.55 13.1-180.73 69.29c-48.15 56.21-353.71 615.23-353.71 615.23s-132.33 62.83-241.26 116.42c27.15 16.94 58.34 47.98 76.11 108.28 95.59-34.55 220.68-87.24 265.87-119.65 0 0 295-225.82 327.11-378.35 32.11-152.54 152.3-330 152.3-330z" fill="#F3A273"/><path d="M3744.56 4312.67c-23.68-31.71-64.11-122 50.56-293.12-51.87 119.5-76.59 203.69-24.28 265.54-8.65 9.36-17.43 18.56-26.28 27.58" fill="#ED9060"/><path d="M3224.7 4482.23c-136.09 66.95-291.13 143.23-300.06 147.69-16.04 8.04-144.52-32.11-160.57-24.07-16.06 8.01-104.36 56.18-136.48 64.23-32.12 8.02 80.28 24.08 128.45 0 48.18-24.09 64.22 24.08 104.38 32.11 40.14 8.02 64.22 16.05 88.3 0 0 0 185.25-51.39 352.1-111.68-17.78-60.3-48.96-91.34-76.12-108.28z" fill="#F3A273"/><path d="M4128.91 3481.88s24.08 88.31-80.29 192.69l-56.22 104.36 120.44 136.49 120.43 40.13 256.9-297.04-112.39-72.27-32.13-329.15-216.74 224.79z" fill="#F9A87B"/><path d="M4128.12 3537.81c2.34-12.11 3.13-22.63 3.17-31.19 5.01.31 10.14.45 15.39.45 57.25 0 127.46-17.9 173.39-54.05-45.01 63.46-151.42 80.53-191.95 84.79z" fill="#EB8D5F"/><path d="M4089.24 3626.28s47.68 136.58 288.53-40.05c0 0 150.11 80.1 191.22 105.21 91.37 55.85 110.79 46.52 134.89 134.82l-213.72 707.33 72.26 280.98-771.01 1.31 68.41-312.39c7.41-78.8-23.25-153.84-79.2-207.95-110.19-106.6 37.58-282.97 153.79-604.1 9.6-26.53 154.83-65.16 154.83-65.16" fill="#FF822E"/><path d="M3915.08 4736.2c-45.56 0-82.44-1.32-105.69-2.45l27.94-127.59c201.28-21.99 523.51-132.91 523.51-132.91-15.25-340.13 121.84-517.83 121.84-517.83s65.16 117.09 104.89 255.76l-97.41 322.42 21.46 83.47c-159.92 102.3-433.73 119.13-596.54 119.13z" fill="#E7266B"/><path d="M3797.79 4626.18l-198.78-84.56-82.91-62.25a26.416 26.416 0 00-18.28-5.2l-95.67 8.71c-3.86.34-7.55 1.78-10.65 4.12-16.75 12.71-71.05 54.62-57.43 54.62 16.06 0 48.17-8.02 72.27-24.08 0 0 72.25 0 80.26-8.03 0 0 32.11 32.11 48.18 40.16 16.06 8.01 8.03 0 8.03 0l-107.49 32.66a25.514 25.514 0 00-13.61 9.94c-13.53 19.66-50.53 72.82-63.55 85.84 0 0 40.14 16.06 72.25-32.11s120.43-48.17 128.46-40.14c0 0-112.39 64.23-144.52 128.46 0 0 15.19 39.46 40.14 8.01 48.39-60.94 111.92-79.94 136.49-88.3l-45.74 52.27c-5.75 6.58-5.03 16.6 1.6 22.31l44.14 37.82s8.03-32.11-8.03-48.18l40.14-40.14s44.31 88.3 174.7 36.11v-88.04z" fill="#F9A87B"/><path d="M4148.04 4563.04c-171.37 35.77-363.89 65.28-363.89 65.28l3.48 85.7c175.8 3.83 317.33-7.05 428.42-23.5-3.79-65.6-36.45-104.77-68.01-127.48" fill="#F9A87B"/><path d="M4670.51 3752.36c-103.76-44.99-191.44 202.37-191.44 202.37-112.4 232.8-85.26 538.71-85.26 538.71-37.33 21.78-137.32 46.94-245.76 69.59 31.56 22.71 64.22 61.88 68.01 127.49 231.28-34.28 330.29-92.7 330.29-92.7 96.35-144.51 227.91-800.46 124.16-845.46zm-497.49-878.24s-223.37 167.53-193.95 425.26c13.45 117.78 40.08 154.63 87.34 189.01 55.84 40.62 241.95 15.32 290.54-78.43l25.66-76.06s45.56 40.78 91.47-19.98c45.93-60.77 36.14-157.27-30.05-111.82l41.08-121.72-40.22-106.76-271.87-99.5" fill="#F9A87B"/><path d="M4385.64 3212.36c-42.83 0-63.76-48.04-73.34-83.32-122.4-31.03-139.29-229.54-139.29-229.54-45.14 87.25-93 110.73-124.49 115.38 56.1-89.47 124.49-140.77 124.49-140.77l137.86 50.45c84.11 98.93 182.71 236.62 117.39 274.46-16.18 9.38-30.31 13.34-42.62 13.34z" fill="#EB8D5F"/><path d="M4205.27 3043.21c-18.88-27.48-27.39-57.85-30.68-85.02 24.74 94.06 155.78 159.6 155.78 159.6l-.26 3.34c-56.4-13.26-98.33-39.36-124.84-77.92zm277.41-57.4l-162.46-81.24-228.45-55.84s-279.21 96.46-152.29 152.3c111.36 49 207.08-62.26 228.87-90.24-2.25 34.51.84 88.84 32.72 135.27 27.37 39.82 70.59 66.68 128.67 80.18-2.78 78.83 92.01 93.08 92.01 93.08l40.61-30.46 81.23-25.39-60.91-177.66z" fill="#416BBD"/><path d="M4330.38 2820.55s60.92-27.67 121.84 94.17c0 0 76.15 177.68 0 340.14h-15.23s30.45-300.02-106.61-434.31z" fill="#33393F"/><path d="M4523.29 3270.09c0 39.25-31.82 71.07-71.07 71.07-39.26 0-71.08-31.82-71.08-71.07 0-39.26 31.82-71.08 71.08-71.08 39.25 0 71.07 31.82 71.07 71.08z" fill="#E81380"/><path d="M4198.11 3211.64c-4.08 16.32-11.79 28.45-17.24 27.09-5.43-1.35-6.54-15.69-2.47-32.01 4.07-16.33 11.78-28.45 17.21-27.1 5.45 1.37 6.56 15.7 2.5 32.02zm-136.8-27.02c-1.39 16.77-7.03 29.99-12.62 29.53-5.6-.45-9-14.42-7.62-31.19 1.36-16.75 7.02-29.99 12.61-29.52 5.58.46 9 14.43 7.63 31.18" fill="#33393F"/><path d="M4046.09 3391.1s93.8 26.81 167.52-46.91c0 0 0 87.13-120.61 100.53 0 0-20.11 0-46.91-53.62" fill="#fff"/><path d="M4032.57 3105.54c1.15-4.66 3.5-8.95 6.66-12.82 3.21-3.78 7.45-6.98 12.31-8.9 4.77-1.85 10.14-3.74 15.26-2.48 2.55.44 4.89 1.6 7.17 2.68 2.18 1.35 4.22 2.95 5.94 5l-.36.97c-2.66.73-5.01.97-7.24 1.07-2.26.39-4.37.34-6.4.53-2.03.2-3.99 0-5.96-.05-2-.31-3.97-.12-5.98.12-3.93.74-7.74 2.42-11.23 4.82-3.6 2.37-6.68 5.69-9.22 9.43l-.95-.37m204.68 0c-1.14-4.66-3.49-8.95-6.64-12.82-3.22-3.78-7.45-6.98-12.31-8.9-4.77-1.85-10.16-3.74-15.27-2.48-2.55.44-4.9 1.6-7.17 2.68-2.18 1.35-4.2 2.95-5.93 5l.35.97c2.68.73 5 .97 7.23 1.07 2.26.39 4.39.34 6.4.53 2.05.2 4 0 5.96-.05 2.01-.31 3.98-.12 5.98.12 3.94.74 7.74 2.42 11.25 4.82 3.58 2.37 6.68 5.69 9.2 9.43l.95-.37" fill="#416BBD"/><path d="M4087.87 3328.88s-69.42-26.7-53.4-37.39c12.69-8.46 42.17-53.83 53.85-80.27 1.44-3.26 6.26-2.47 6.55 1.08 2.2 27.37 4.59 81.78-7 116.58" fill="#F68484"/><path d="M4482.68 3270.1c0 16.82-13.65 30.45-30.47 30.45-16.83 0-30.46-13.63-30.46-30.45 0-16.83 13.63-30.46 30.46-30.46 16.82 0 30.47 13.63 30.47 30.46z" fill="#33393F"/><path d="M4387.34 3417.32h-229.55v-11.76h223.49c9.19-17.72 56.87-109.82 61.53-120.24l9.43 5.26c-5.29 11.79-61 119.25-63.37 123.81l-1.53 2.93" fill="#33393F"/><path d="M4178.1 3409.7c0 7.01-13.65 12.69-30.48 12.69-16.8 0-30.45-5.68-30.45-12.69s13.65-12.7 30.45-12.7c16.83 0 30.48 5.69 30.48 12.7z" fill="#33393F"/><path d="M5117.27 4833.7h-3497.8c-25.21 0-45.68-20.48-45.68-45.7 0-25.24 20.47-45.69 45.68-45.69h3497.8c25.23 0 45.69 20.45 45.69 45.69 0 25.22-20.46 45.7-45.69 45.7z" fill="#C0C9CF"/><path d="M1846.38 3630.71l29.78 869.53c1.86 53.93 46.11 96.7 100.08 96.7h1250.42c56.65 0 102.03-46.96 100.09-103.58l-29.79-869.51c-1.85-53.93-46.11-96.7-100.09-96.7H1946.45c-56.63 0-102 46.94-100.07 103.56" fill="#7882C7"/><path d="M2644.6 4596.94h-482.43c33.47-90.18 126.89-296.43 310.18-397.84l111.68 71.09 96.45-71.09s-63.57 247.63-35.88 397.84zm-172.25-397.84s.1-.04.28-.15c-.09.06-.18.11-.28.15zm.28-.15l.03-.02s-.01.02-.03.02zm.03-.02c.05-.03.11-.04.16-.09-.07.05-.1.06-.16.09zm.16-.09c.06-.01.1-.04.16-.09-.06.03-.1.06-.16.09zm.16-.09c.05-.02.13-.06.17-.09-.06.04-.1.07-.17.09zm.17-.09c.02 0 .03 0 .05-.02-.02.02-.03.02-.05.02zm.05-.02c78.87-43.63 105.18-58.19 105.19-58.19 0 0-95.2 52.67-105.19 58.19" fill="#5461B1"/><path d="M2472.32 4199.11h208.14s-314.75 507.67-33 543.2h-434.04s-86.32-203.07 258.9-543.2" fill="#7882C7"/><path d="M2543.35 3845.56c0-9.66 1.51-18.97 4.28-27.69-1.41-.06-2.84-.11-4.28-.11-59.2 0-107.21 47.99-107.21 107.21 0 59.22 48.01 107.21 107.21 107.21 55.62 0 101.35-42.37 106.68-96.59-4.99.83-10.11 1.29-15.36 1.29-50.44 0-91.32-40.88-91.32-91.32" fill="#fff"/><path d="M2631.32 2215.42c-32.36 582.55-530.83 1028.54-1113.38 996.18-582.537-32.35-1028.551-530.83-996.191-1113.36 32.358-582.54 530.831-1028.55 1113.371-996.18 582.53 32.34 1028.56 530.82 996.2 1113.36z" fill="#7199D7"/><path d="M2861.53 2228.2c-39.42 709.7-646.69 1253.07-1356.38 1213.65-709.704-39.43-1253.064-646.7-1213.65-1356.4 39.421-709.71 646.704-1253.064 1356.4-1213.645 709.69 39.434 1253.05 646.705 1213.63 1356.395" fill="#929DB7"/><path d="M1466.27 2246.41s-275.61 0-372.08 48.23c-96.457 48.22-144.696 172.25-124.027 254.93 20.677 82.69-89.576 289.41 27.57 399.65 105.197 99.01 188.157 86.89 223.927 73.39 4.06-1.52 7.52-3.07 10.34-4.47 27.56-13.79 0 365.18 0 365.18s695.94 41.35 737.28 0c41.34-41.34 55.11-909.54-41.34-1005.99-96.47-96.48-365.2-130.92-365.2-130.92h-96.47" fill="#FF822E"/><path d="M1442.14 2001.78l-10.34 244.62 226.15 149.97c8.81 5.71 20.58.65 22.52-9.66l37.28-198.88-220.49-268.73-55.12 82.68" fill="#F8A38C"/><path d="M1684.33 2366.1c-105.03-52.64-197.41-209.27-197.41-209.27-9.18 9.19-19.14 12.25-28.32 12.25-8.97 0-17.2-2.91-23.28-5.89l5.25-124.41 53.6-39.3 144.35 109.12s19.65 15.34 46.05 38.8l33.18 40.44-33.42 178.26" fill="#F38A72"/><path d="M1455.92 1912.24c110.25-6.9 124.04-186.05 124.04-206.71 0-20.68 172.26-75.81 213.6-55.13 39.34 19.66 49.78 145.93 51.68 155.03 60.56-36.67 113.66-167.5 86.12-244.61-34.45-96.47-75.79-62.01-103.35-41.34-27.55 20.68-27.55-75.79-172.26-158.48-144.71-82.68 20.68 96.47-151.58 82.69-172.26-13.79-186.05 158.47-186.05 158.47-89.58 0-151.6 75.79-82.69 151.59 68.9 75.8 13.78 82.68 0 151.59-7.18 35.93 62.47 51.25 130.79 57.69 19.77-26.36 48.46-48.22 89.7-50.79" fill="#205175"/><path d="M1635.12 2015.57c126.75 55.11 244.62-8.75 286.75-36.56-30.6-48.54-56.99-97.22-59.38-142.59a352.299 352.299 0 00-8.77-61.7l1.73-1.08c-1.91-9.09-22.51-103.59-61.85-123.26-41.35-20.67-213.61 34.45-213.61 55.13 0 16.42-8.77 132.88-67.68 183.48 21.35 49.02 58.43 98.61 122.81 126.58" fill="#F8A38C"/><path d="M1921.84 1979.02c-42.13 27.8-160 91.67-286.75 36.56-64.38-27.98-101.46-77.57-122.81-126.59-15.22 13.08-33.73 21.82-56.36 23.24-41.24 2.57-69.93 24.43-89.7 50.79 62.65 5.91 124.16 4.32 124.16 4.32 34.45 392.76 447.87 365.2 516.79 261.84 45.02-67.53-27.63-158.62-85.33-250.16z" fill="#205175"/><path d="M1243.81 1869.56l316.46 17.57-9.02 162.51-316.47-17.59 9.03-162.49z" fill="#650E2D"/><path d="M1221.66 2160.29s0-213.61 34.46-241.18c34.43-27.55 117.13-130.9 158.48-103.35 41.32 27.56 20.66 41.35 48.23 55.13 27.56 13.77 13.77 34.45 34.44 48.22 20.67 13.79 48.25 68.92 34.46 68.92h-62.02s-96.46 179.14-137.8 172.26l-6.89 27.55h-103.36v-27.55" fill="#F8A38C"/><path d="M1321.58 2184.4s13.79 682.15-48.23 723.49c-62.01 41.34-227.39-6.89-192.93-144.7 34.45-137.8 158.48-640.8 158.48-640.8l82.68 62.01z" fill="#F8A38C"/><path d="M1638.57 2060.36s120.53 36.18 175.6 23.94c4.35-.97 8.03 3.22 6.54 7.44-6 16.74-16.77 48.25-16.77 58.2 0 13.79-124.03-6.89-165.37-89.58z" fill="#E7F7F9"/><path d="M1773.58 1853.65s160.95 96.78 117.32 138.46c-43.62 41.68-77.41 35.08-77.41 35.08s-56.28-148.96-39.91-173.54z" fill="#F68793"/><path d="M1638.55 1888.11c-.69-8.56 1.74-17.28 6.91-24.93 5.2-7.6 14.71-13.35 24.58-13.9 10.01-.93 18.65 3.06 26.18 7.24 3.5 2.54 7 5.06 10.04 8 2.88 3.17 5.71 6.28 8.07 9.82-4.22-1.11-7.99-2.66-11.71-4.12-3.71-1.5-7.54-2.44-11.04-3.9-7.21-1.87-14.21-4.03-20.55-3.3-6.29.44-12.03 2.8-17.49 7.32-5.39 4.58-10.19 10.78-14.99 17.77m223.89-66.5c-2.44-6.51-7.24-12.04-13.64-15.85-6.43-3.76-15.36-4.7-22.77-1.69-7.64 2.77-12.57 8.65-16.64 14.31-1.69 3.06-3.37 6.13-4.58 9.31-1.02 3.31-2.02 6.55-2.52 9.95 2.7-2.26 4.92-4.69 7.15-7.04 2.18-2.37 4.66-4.39 6.72-6.65 4.63-3.86 9-7.85 13.88-9.49 4.76-1.85 9.77-2.11 15.31-.68 5.52 1.48 11.17 4.37 17.09 7.83z" fill="#A2524B"/><path d="M1602.56 1834.73c1.64-11.11 6.6-22.39 13.04-31.46 17.67-24.87 46.41-27.99 74.55-22.31 13.05 2.63 15.88-17.85 2.88-20.48-33.3-6.71-67.86-1.53-90.44 25.8-10.45 12.63-18.1 29.26-20.51 45.57-1.94 13.16 18.52 16.05 20.48 2.88zm176.65-85.81c7.49-5.31 16.95-8.74 25.99-10.07 24.66-3.61 42.74 11.61 55.29 31.45 5.82 9.2 19.53-.69 13.73-9.86-14.85-23.46-37.44-40.97-66.35-38.88-13.37.97-27.52 5.83-38.52 13.63-8.88 6.28.98 20.02 9.86 13.73" fill="#205175"/><path d="M3953.5 1099.3h1889.88c33.04 0 59.79 26.76 59.79 59.77v476.8c0 19.85-9.86 38.4-26.31 49.53l-302.24 204.2c-15.69 10.62-36-4.37-30.51-22.49l60.45-199.48H3953.5c-33 0-59.77-26.77-59.77-59.79v-448.77c0-33.01 26.77-59.77 59.77-59.77" fill="#4A55B0"/><path d="M5571.33 1777.33l33.25-109.7h-30.99l.28-.23h195.35l-197.89 109.93" fill="#8C549F"/><path d="M4122.08 1251.54H5701.9c14 0 25.35-11.37 25.35-25.37 0-14.02-11.35-25.37-25.35-25.37H4122.08c-14 0-25.37 11.35-25.37 25.37 0 14 11.37 25.37 25.37 25.37zm0 128.54H5701.9c14 0 25.35-11.37 25.35-25.37 0-14.02-11.35-25.37-25.35-25.37H4122.08c-14 0-25.37 11.35-25.37 25.37 0 14 11.37 25.37 25.37 25.37zm807.86 128.55h779.39c9.93 0 17.94-8.03 17.94-17.94v-14.86c0-9.91-8.01-17.94-17.94-17.94h-779.39c-9.91 0-17.94 8.03-17.94 17.94v14.86c0 9.91 8.03 17.94 17.94 17.94z" fill="#fff"/><path d="M3173.17 5814.98h393.49c14.36 0 26.01 11.65 26.01 25.99v207.4c0 8.62-4.28 16.69-11.44 21.53l-131.45 88.83c-6.85 4.62-15.68-1.9-13.28-9.8l26.29-86.76h-289.62c-14.36 0-25.99-11.64-25.99-26v-195.2c0-14.34 11.63-25.99 25.99-25.99zm2800.64-3851.74h239.91c8.77 0 15.86 7.09 15.86 15.85v126.45c0 5.27-2.61 10.19-6.96 13.14l-80.17 54.16c-4.17 2.82-9.54-1.17-8.1-5.98l16.04-52.9h-176.58c-8.77 0-15.86-7.09-15.86-15.85v-119.02c0-8.76 7.09-15.85 15.86-15.85" fill="#7199D7"/><path d="M5258.92 1765.04H3202.75c-35.91 0-65.04 29.11-65.04 65.03v518.74c0 21.61 10.73 41.79 28.62 53.9l328.83 222.16c17.08 11.54 39.19-4.76 33.21-24.48l-65.76-217.04h1796.31c35.91 0 65.02-29.11 65.02-65.03v-488.25c0-35.92-29.11-65.03-65.02-65.03" fill="#F46F21"/><path d="M3498.8 2502.74l-215.31-119.61h212.56l.27.23h-33.69l36.17 119.38" fill="#F0A42F"/><path d="M5075.52 1930.66H3356.71c-15.23 0-27.6-12.35-27.6-27.6 0-15.25 12.37-27.61 27.6-27.61h1718.81c15.24 0 27.61 12.36 27.61 27.61s-12.37 27.6-27.61 27.6m0 139.85H3356.71c-15.23 0-27.6-12.36-27.6-27.6 0-15.25 12.37-27.61 27.6-27.61h1718.81c15.24 0 27.61 12.36 27.61 27.61 0 15.24-12.37 27.6-27.61 27.6m-878.92 139.87h-847.97c-10.78 0-19.52-8.75-19.52-19.52v-16.17c0-10.79 8.74-19.53 19.52-19.53h847.97c10.77 0 19.51 8.74 19.51 19.53v16.17c0 10.77-8.74 19.52-19.51 19.52z" fill="#fff"/><path d="M6328.29 5396.2c0 598.64-485.29 1083.93-1083.93 1083.93-598.67 0-1083.96-485.29-1083.96-1083.93 0-598.65 485.29-1083.94 1083.96-1083.94 598.64 0 1083.93 485.29 1083.93 1083.94z" fill="#407BFF"/><path d="M5318.69 5490.11c-66.53 152.62-183.94 277.83-273.93 156.51-67.1-90.41-14.59-213.46 16.47-270.27 93.86-30.53 189.27-42.77 189.27-42.77h89.27s52.89.01 118.95 4.21c-47.59 26.42-105.44 72.96-140.03 152.32z" fill="#F8A38C"/><path d="M5136.91 5459.74l-53.57-90.25c11.78-3.48 23.46-6.69 34.86-9.63l18.71 99.88" fill="#F38A72"/><path d="M4912.55 5454.73c33.98-33.98 91.04-59.63 148.69-78.39-31.06 56.81-83.56 179.86-16.47 270.29 89.99 121.3 207.4-3.91 273.93-156.52 34.59-79.37 92.44-125.91 140.03-152.33 78.97 5.05 176.75 16.11 225.37 40.42 89.27 44.65 133.9 159.43 114.78 235.93-19.14 76.53 82.88 267.81-25.51 369.84-97.35 91.62-174.12 80.39-207.23 67.91-3.77-1.4-6.97-2.85-9.56-4.14-25.52-12.75 0 337.95 0 337.95s-644.03 38.25-682.28 0c-38.28-38.28-51.02-841.69 38.25-930.96" fill="#FF822E"/><path d="M5303.03 4683.99s-62.61-90-215.22-19.55c-152.62 70.44-344.36 414.79-105.67 720 0 0 50.88-74.34 234.8-93.9 183.91-19.57 86.09-606.55 86.09-606.55z" fill="#A55EB5"/><path d="M5166.09 4719.21l96.06-67.24c12 5.82 21.22 12.51 27.82 18.26l-123.88 48.98m-127.96 621.35c-214.33-45.51-78.1-393.63-76.96-396.51-11.8 43.16-26.92 105.92-29.85 146.92-7.88 110.39 39.13 219.13 93.9 226.96 11.73 1.67 29.62 4.48 50.96 4.92-14.65 5.79-27.26 11.8-38.05 17.71z" fill="#85449F"/><path d="M5358.18 5107.28l9.57 226.38-209.28 138.78c-8.16 5.28-19.05.58-20.85-8.96l-34.5-184.04 204.05-248.67 51.01 76.51" fill="#F8A38C"/><path d="M5118.17 5359.76l-7.2-38.46c70.31-8.16 158.14-51.01 196.05-213.9l3-2.26 49.6 36.36 4.25 100.3c-13-11.47-35.8-31.88-53.01-49.08 0 0-49.85 143.66-192.69 167.04" fill="#F38A72"/><path d="M4931.3 5090.96c4.91-68.9 44.25-199.14 44.45-194.83 1.76-8.4 20.82-95.84 57.24-114.06 38.25-19.12 197.66 31.88 197.66 51.01 0 15.21 8.11 122.98 62.64 169.81 14.08 12.1 31.22 20.17 52.14 21.48 38.16 2.39 64.73 22.62 83.03 47.02-57.98 5.45-114.91 4-114.91 4-49.63 281.66-234.39 250.24-288.35 242.53-54.77-7.83-101.77-116.56-93.9-226.96" fill="#F8A38C"/><path d="M5386.75 5054.44c-10.89 0-24.03-1.29-39.68-4.06-187.83-33.14-223.49-204.42-236.65-266.03 56.53 11.81 120.26 36.64 120.26 48.73 0 15.22 8.11 122.98 62.64 169.82 14.07 12.09 31.21 20.17 52.14 21.48 27.11 1.69 48.37 12.4 64.97 27.2-6.27 1.86-14.11 2.86-23.68 2.86" fill="#F38A72"/><path d="M5172.25 5193.86s-97.23 29.17-141.66 19.31c-3.51-.78-6.48 2.6-5.26 5.99 4.83 13.51 13.52 38.94 13.52 46.95 0 11.13 100.04-5.55 133.4-72.25" fill="#E7F7F9"/><path d="M5172.25 5054.93c.53-6.92-1.44-13.95-5.59-20.12-4.2-6.14-11.86-10.77-19.83-11.22-8.08-.74-15.05 2.48-21.1 5.85-2.84 2.05-5.67 4.09-8.12 6.45-2.31 2.55-4.6 5.06-6.51 7.92 3.42-.91 6.45-2.14 9.46-3.32 2.99-1.22 6.07-1.97 8.9-3.14 5.83-1.53 11.46-3.26 16.57-2.66 5.08.35 9.72 2.26 14.11 5.9 4.35 3.7 8.21 8.68 12.11 14.34zm-180.64-53.66c1.96-5.25 5.83-9.71 11.01-12.77 5.17-3.03 12.37-3.8 18.36-1.37 6.14 2.24 10.14 6.98 13.41 11.54 1.36 2.47 2.73 4.95 3.7 7.52.81 2.65 1.63 5.28 2.03 8.02-2.17-1.83-3.99-3.77-5.77-5.68-1.76-1.91-3.76-3.54-5.4-5.37-3.76-3.11-7.28-6.32-11.22-7.65-3.83-1.49-7.88-1.7-12.35-.54-4.45 1.19-9 3.53-13.77 6.3" fill="#A2524B"/><path d="M5103.48 4777.93s66.53 230.85 256.32 250.42c189.78 19.57-154.57-281.75-154.57-281.75h-191.74l-58.71 144.8s113.48-35.22 148.7-113.47" fill="#A55EB5"/><path d="M5103.12 4746.61c4.25 0 188.18-101.74 266.44-78.26 78.26 23.48 254.35 270 230.87 516.54-23.46 246.52-356.08 211.31-356.08 211.31s172.17-223.05 15.64-477.41l-117.4-109.56-39.47-62.62z" fill="#A55EB5"/><path d="M5430.36 4932.38L5261.21 5172l123.04 86.86 169.15-239.62-123.04-86.86z" fill="#650E2D"/><path d="M5554.52 5249.67s0-171.18-27.62-193.29c-27.6-22.08-93.88-104.92-127.01-82.84-33.12 22.11-16.55 33.16-38.66 44.2-22.08 11.03-11.05 27.59-27.61 38.64-16.57 11.06-38.64 55.23-27.61 55.23h49.71s77.3 143.58 110.44 138.06l5.52 22.08h82.84v-22.08" fill="#F8A38C"/><path d="M5459.6 5216.18s-2.55 691.34 54.82 729.61c57.41 38.25 210.44-6.39 178.56-133.91-31.88-127.53-146.66-593-146.66-593l-86.72-2.7z" fill="#F8A38C"/><path d="M5060.45 5145.76l-35.22-19.58s25.6-33.28 37.47-56.35c1.56-3.01 6.1-1.95 6.17 1.45.29 18.85-.59 51-8.42 74.48" fill="#F68A91"/><path d="M5196.64 5020.63c-8.19-26.37-30.28-48.34-56.9-55.31-3.66-.95-2.11-6.61 1.56-5.66 28.64 7.51 52.2 31.11 60.99 59.41 1.12 3.63-4.54 5.17-5.65 1.56m-146.87-87.29c-23.54-2.56-48.37 7.3-62.97 25.87-2 2.56-5.93-.6-3.93-3.15 15.71-19.99 42.31-30.46 67.61-27.71 3.23.35 2.51 5.35-.71 4.99zm43.95-186.73l-.11 8.37c-.01 3.03.03 6.05.13 9.06.16 6.04.61 12.02 1.16 18.01 1.19 11.95 3.07 23.78 5.68 35.45 5.22 23.31 13.42 45.86 24.14 66.99 10.8 21.12 24.34 40.68 39.88 58.28 15.71 17.48 33.38 33.02 52.38 46.46-18.03-14.75-34.41-31.38-48.61-49.58-14.03-18.35-25.83-38.25-34.78-59.3-8.91-21.07-15.21-43.14-18.59-65.58-1.69-11.21-2.68-22.52-3.02-33.8-.12-5.63-.15-11.28.1-16.88.12-2.8.26-5.6.46-8.4l.74-9.08h-19.56" fill="#A55EB5"/></svg>