<svg width="6664" height="6664" viewBox="0 0 6664 6664" fill="none" xmlns="http://www.w3.org/2000/svg">
<path d="M3331.89 975.146C2702.46 975.146 2110.7 1220.28 1665.62 1665.35C1220.55 2110.42 975.432 2702.18 975.432 3331.61C975.432 3961.05 1220.55 4552.81 1665.62 4997.86C2110.7 5442.95 2702.46 5688.08 3331.89 5688.08C3961.33 5688.08 4553.09 5442.95 4998.16 4997.86C5443.23 4552.81 5688.35 3961.05 5688.35 3331.61C5688.35 2702.18 5443.23 2110.42 4998.16 1665.35C4553.09 1220.28 3961.33 975.146 3331.89 975.146ZM3331.89 5694.68C2700.69 5694.68 2107.27 5448.87 1660.95 5002.56C1214.62 4556.22 968.828 3962.8 968.828 3331.61C968.828 2700.41 1214.62 2106.99 1660.95 1660.67C2107.27 1214.34 2700.69 968.531 3331.89 968.531C3963.09 968.531 4556.51 1214.34 5002.84 1660.67C5449.16 2106.99 5694.96 2700.41 5694.96 3331.61C5694.96 3962.8 5449.16 4556.22 5002.84 5002.56C4556.51 5448.87 3963.09 5694.68 3331.89 5694.68" fill="#B1C2E8"/>
<path d="M3331.89 694.596C2975.91 694.596 2630.57 764.325 2305.46 901.83C1991.45 1034.64 1709.44 1224.78 1467.26 1466.96C1225.09 1709.13 1034.95 1991.14 902.13 2305.16C764.63 2630.26 694.911 2975.6 694.911 3331.59C694.911 3687.57 764.63 4032.93 902.13 4358.02C1034.95 4672.05 1225.09 4954.06 1467.26 5196.23C1709.44 5438.39 1991.45 5628.55 2305.46 5761.36C2630.57 5898.86 2975.91 5968.58 3331.89 5968.58C3687.88 5968.58 4033.23 5898.86 4358.34 5761.36C4672.35 5628.55 4954.35 5438.39 5196.52 5196.23C5438.7 4954.06 5628.85 4672.05 5761.67 4358.02C5899.17 4032.93 5968.88 3687.57 5968.88 3331.59C5968.88 2975.6 5899.17 2630.26 5761.67 2305.16C5628.85 1991.14 5438.7 1709.13 5196.52 1466.96C4954.35 1224.78 4672.35 1034.64 4358.34 901.83C4033.23 764.325 3687.88 694.596 3331.89 694.596V694.596ZM3331.89 5975.98C2974.91 5975.98 2628.6 5906.06 2302.59 5768.18C1987.7 5634.98 1704.89 5444.32 1462.03 5201.45C1219.18 4958.61 1028.52 4675.8 895.326 4360.91C757.429 4034.9 687.508 3688.59 687.508 3331.59C687.508 2974.6 757.429 2628.29 895.326 2302.28C1028.52 1987.37 1219.18 1704.58 1462.03 1461.73C1704.89 1218.87 1987.7 1028.19 2302.59 895.014C2628.6 757.124 2974.91 687.195 3331.89 687.195C3688.89 687.195 4035.2 757.124 4361.22 895.014C4676.11 1028.19 4958.92 1218.87 5201.75 1461.73C5444.61 1704.58 5635.29 1987.37 5768.47 2302.28C5906.37 2628.29 5976.29 2974.6 5976.29 3331.59C5976.29 3688.59 5906.37 4034.9 5768.47 4360.91C5635.29 4675.8 5444.61 4958.61 5201.75 5201.45C4958.92 5444.32 4676.11 5634.98 4361.22 5768.18C4035.2 5906.06 3688.89 5975.98 3331.89 5975.98Z" fill="#B1C2E8"/>
<path d="M3331.89 1468.43C3080.38 1468.43 2836.37 1517.69 2606.66 1614.84C2384.81 1708.69 2185.54 1843.03 2014.43 2014.14C1843.33 2185.24 1708.98 2384.51 1615.14 2606.36C1517.99 2836.07 1468.72 3080.06 1468.72 3331.59C1468.72 3583.12 1517.99 3827.13 1615.14 4056.83C1708.98 4278.69 1843.33 4477.94 2014.43 4649.07C2185.54 4820.17 2384.81 4954.51 2606.66 5048.36C2836.37 5145.51 3080.38 5194.76 3331.89 5194.76C3583.42 5194.76 3827.43 5145.51 4057.13 5048.36C4278.99 4954.51 4478.26 4820.17 4649.36 4649.07C4820.47 4477.94 4954.81 4278.69 5048.65 4056.83C5145.81 3827.13 5195.06 3583.12 5195.06 3331.59C5195.06 3080.06 5145.81 2836.07 5048.65 2606.36C4954.81 2384.51 4820.47 2185.24 4649.36 2014.14C4478.26 1843.03 4278.99 1708.69 4057.13 1614.84C3827.43 1517.69 3583.42 1468.43 3331.89 1468.43V1468.43ZM3331.89 5199.99C3079.67 5199.99 2834.97 5150.59 2604.63 5053.16C2382.14 4959.06 2182.33 4824.34 2010.74 4652.76C1839.16 4481.16 1704.44 4281.34 1610.34 4058.86C1512.9 3828.51 1463.49 3583.83 1463.49 3331.59C1463.49 3079.37 1512.9 2834.67 1610.34 2604.33C1704.44 2381.85 1839.16 2182.03 2010.74 2010.44C2182.33 1838.86 2382.14 1704.14 2604.63 1610.02C2834.97 1512.6 3079.67 1463.19 3331.89 1463.19C3584.13 1463.19 3828.83 1512.6 4059.16 1610.02C4281.64 1704.14 4481.46 1838.86 4653.06 2010.44C4824.64 2182.03 4959.36 2381.85 5053.46 2604.33C5150.89 2834.67 5200.29 3079.37 5200.29 3331.59C5200.29 3583.83 5150.89 3828.51 5053.46 4058.86C4959.36 4281.34 4824.64 4481.16 4653.06 4652.76C4481.46 4824.34 4281.64 4959.06 4059.16 5053.16C3828.83 5150.59 3584.13 5199.99 3331.89 5199.99Z" fill="#B1C2E8"/>
<path d="M3331.9 6308.39C2930.04 6308.39 2540.19 6229.69 2173.19 6074.46C1818.73 5924.53 1500.38 5709.89 1227 5436.51C953.61 5163.14 738.975 4844.77 589.047 4490.31C433.816 4123.32 355.113 3733.47 355.113 3331.6C355.113 3199 363.683 3067.73 380.74 2938.14C385.908 2929.46 390.032 2920.1 392.96 2910.22C373.312 3048.85 363.437 3189.47 363.437 3331.6C363.437 3732.35 441.924 4121.1 596.715 4487.06C746.224 4840.55 960.263 5158.01 1232.88 5430.62C1505.5 5703.25 1822.96 5917.28 2176.44 6066.79C2542.41 6221.59 2931.15 6300.05 3331.9 6300.05C3732.64 6300.05 4121.38 6221.59 4487.35 6066.79C4531.11 6048.28 4574.32 6028.78 4616.95 6008.32C4619.03 6010.42 4621.04 6012.49 4623.13 6014.58C4579.55 6035.56 4535.37 6055.54 4490.6 6074.46C4123.61 6229.69 3733.76 6308.39 3331.9 6308.39ZM5908.37 4823.98C5906.47 4821.77 5904.54 4819.55 5902.6 4817.35C5964.01 4711.19 6018.89 4601.01 6067.08 4487.06C6221.88 4121.1 6300.35 3732.35 6300.35 3331.6C6300.35 2930.86 6221.88 2542.12 6067.08 2176.14C5999.57 2016.5 5918.88 1864.21 5825.58 1720.07L5832.47 1715.41C5926.08 1859.99 6007.03 2012.76 6074.76 2172.9C6229.99 2539.9 6308.69 2929.73 6308.69 3331.6C6308.69 3733.47 6229.99 4123.32 6074.76 4490.31C6026.06 4605.45 5970.53 4716.76 5908.37 4823.98V4823.98ZM398.002 2876.08C398.002 2875.79 398.008 2875.51 398.008 2875.22C398.008 2865.01 396.757 2855.08 394.414 2845.59C423.893 2665.76 469.894 2489.45 532.208 2317.66C533.074 2323.31 533.994 2329.02 534.949 2334.65C472.076 2510.76 426.352 2691.61 398.002 2876.08ZM1328.65 1129.63C1578.31 902.091 1861.79 720.459 2173.19 588.755C2540.19 433.525 2930.04 354.826 3331.9 354.826C3733.76 354.826 4123.61 433.525 4490.6 588.755C4788.01 714.551 5060.02 885.92 5301.35 1099.31H5288.78C5049.87 889.397 4781.06 720.643 4487.35 596.417C4121.38 441.618 3732.64 363.15 3331.9 363.15C2931.15 363.15 2542.41 441.618 2176.44 596.417C1870.5 725.813 1591.57 903.552 1345.32 1125.76C1339.75 1127 1334.19 1128.3 1328.65 1129.63" fill="#DCE2F4"/>
<path d="M3331.89 6663.12C2882.14 6663.12 2445.84 6575.03 2035.11 6401.31C1638.4 6233.51 1282.1 5993.31 976.153 5687.34C670.187 5381.37 429.967 5025.08 262.181 4628.38C88.452 4217.64 0.367188 3781.34 0.367188 3331.59C0.367188 2881.84 88.452 2445.54 262.181 2034.81C429.967 1638.1 670.187 1281.8 976.153 975.852C1282.1 669.886 1638.4 429.68 2035.11 261.88C2445.84 88.1571 2882.14 0.0569828 3331.89 0.0569828C3781.64 0.0569828 4217.95 88.1571 4628.68 261.88C5025.38 429.68 5381.67 669.886 5687.64 975.852C5727.92 1016.13 5767.06 1057.29 5805.05 1099.29H5792.46C5756.35 1059.57 5719.23 1020.61 5681.04 982.437C5375.93 677.333 5020.66 437.789 4625.05 270.466C4215.46 97.2196 3780.39 9.38099 3331.89 9.38099C2883.39 9.38099 2448.32 97.2196 2038.74 270.466C1643.14 437.789 1287.84 677.333 982.739 982.437C677.628 1287.54 438.093 1642.84 270.753 2038.44C97.5221 2448.02 9.68955 2883.1 9.68955 3331.59C9.68955 3780.09 97.5221 4215.16 270.753 4624.73C438.093 5020.35 677.628 5375.63 982.739 5680.74C1287.84 5985.84 1643.14 6225.4 2038.74 6392.72C2448.32 6565.95 2883.39 6653.79 3331.89 6653.79C3780.39 6653.79 4215.46 6565.95 4625.05 6392.72C4741.31 6343.55 4854.1 6288.13 4963.14 6226.65C4967.13 6227.98 4971.1 6229.31 4975.1 6230.6C4863.46 6293.93 4747.91 6350.89 4628.68 6401.31C4217.95 6575.03 3781.64 6663.12 3331.89 6663.12V6663.12ZM6096.83 5191.31C6095.84 5187.23 6094.84 5183.14 6093.8 5179.09C6210.56 5004.88 6310.56 4819.72 6393.02 4624.73C6566.27 4215.16 6654.11 3780.09 6654.11 3331.59C6654.11 2883.1 6566.27 2448.02 6393.02 2038.44C6268.71 1744.51 6104.51 1472.82 5903.18 1227.46V1212.78C6108.37 1461.13 6275.46 1736.55 6401.61 2034.81C6575.33 2445.54 6663.42 2881.84 6663.42 3331.59C6663.42 3781.34 6575.33 4217.64 6401.61 4628.38C6317.8 4826.51 6215.93 5014.57 6096.83 5191.31" fill="#E9EBF8"/>
<path d="M3331.87 264.369C2917.8 264.369 2516.1 345.469 2137.98 505.406C1772.73 659.897 1444.7 881.055 1163.01 1162.74C881.323 1444.43 660.162 1772.46 505.677 2137.69C345.741 2515.85 264.64 2917.53 264.64 3331.6C264.64 3745.68 345.741 4147.36 505.677 4525.51C660.162 4890.75 881.323 5218.78 1163.01 5500.45C1444.7 5782.16 1772.73 6003.32 2137.98 6157.79C2516.1 6317.74 2917.8 6398.83 3331.87 6398.83C3745.95 6398.83 4147.64 6317.74 4525.78 6157.79C4891.03 6003.32 5219.06 5782.16 5500.74 5500.45C5782.41 5218.78 6003.57 4890.75 6158.06 4525.51C6318.02 4147.36 6399.1 3745.68 6399.1 3331.6C6399.1 2917.53 6318.02 2515.85 6158.06 2137.69C6003.57 1772.46 5782.41 1444.43 5500.74 1162.74C5219.06 881.055 4891.03 659.897 4525.78 505.406C4147.64 345.469 3745.95 264.369 3331.87 264.369V264.369ZM3331.87 6407.45C2916.63 6407.45 2513.83 6326.11 2134.62 6165.71C1768.36 6010.79 1439.41 5789.02 1156.92 5506.55C874.453 5224.08 652.673 4895.14 497.755 4528.86C337.362 4149.66 256.039 3746.84 256.039 3331.6C256.039 2916.38 337.362 2513.56 497.755 2134.35C652.673 1768.09 874.453 1439.14 1156.92 1156.66C1439.41 874.178 1768.36 652.404 2134.62 497.482C2513.83 337.099 2916.63 255.768 3331.87 255.768C3747.11 255.768 4149.93 337.099 4529.13 497.482C4895.4 652.404 5224.35 874.178 5506.82 1156.66C5789.29 1439.14 6011.08 1768.09 6165.99 2134.35C6326.39 2513.56 6407.72 2916.38 6407.72 3331.6C6407.72 3746.84 6326.39 4149.66 6165.99 4528.86C6011.08 4895.14 5789.29 5224.08 5506.82 5506.55C5224.35 5789.02 4895.4 6010.79 4529.13 6165.71C4149.93 6326.11 3747.11 6407.45 3331.87 6407.45" fill="#B1C2E8"/>
<path d="M3136.29 1136.62C3055.26 1136.62 2987.75 1078.78 2972.76 1002.16C3081.14 985.684 3191.35 976.653 3302.81 975.315C3300.01 1064.86 3226.53 1136.62 3136.29 1136.62V1136.62ZM2971.63 995.654C2970.33 987.284 2969.67 978.73 2969.67 970.006C2969.67 877.982 3044.26 803.391 3136.29 803.391C3227.88 803.391 3302.19 877.29 3302.9 968.714C3191.03 970.053 3080.39 979.114 2971.63 995.654Z" fill="#BFCCEC"/>
<path d="M2972.75 1002.16C2972.33 999.991 2971.95 997.837 2971.61 995.652C3080.37 979.112 3191.01 970.05 3302.89 968.711C3302.89 969.142 3302.89 969.573 3302.89 970.004C3302.89 971.788 3302.85 973.543 3302.79 975.312C3191.34 976.651 3081.13 985.682 2972.75 1002.16Z" fill="#B1C2E8"/>
<path d="M3267.22 1125.71C3265.23 1083.06 3239.43 1055.31 3221.58 1057.28C3203.73 1059.26 3162.08 1053.31 3162.08 1053.31C3159.02 1046.52 3158.64 1037.81 3159.44 1029.29C3178.75 1016.81 3193.07 989.149 3196.49 955.699C3200.86 954.822 3205.41 949.622 3207.55 942.498C3210.21 933.743 3208.23 925.404 3203.13 923.85C3201.29 923.296 3199.29 923.727 3197.36 924.912C3197.64 879.077 3196.1 844.043 3136.34 844.043C3079.88 844.043 3075.69 878.585 3075.43 923.973C3073.81 922.65 3072.03 921.989 3070.23 922.204C3064.97 922.835 3061.57 930.712 3062.66 939.806C3063.75 948.883 3068.92 955.73 3074.2 955.099L3076.09 954.53C3079.17 987.163 3092.63 1014.46 3111 1027.75C3112 1036.75 3111.77 1046.11 3108.53 1053.31C3108.53 1053.31 3066.88 1059.26 3049.01 1057.28C3031.17 1055.31 3005.39 1083.06 3003.41 1125.71C3001.52 1166.23 3123.13 1190.63 3135.3 1192.97C3147.47 1190.63 3269.09 1166.23 3267.22 1125.71" fill="#7199D7"/>
<path d="M1846.82 5780.12C1706.79 5780.12 1593.27 5666.6 1593.27 5526.59C1593.27 5467.57 1613.43 5413.27 1647.24 5370.19C1777.72 5478.3 1917.65 5573.15 2066.04 5654.07C2022.09 5729.44 1940.38 5780.12 1846.82 5780.12V5780.12ZM2069.67 5647.62C1921.62 5566.9 1782.06 5472.31 1651.89 5364.44C1698.39 5308.59 1768.45 5273.03 1846.82 5273.03C1986.84 5273.03 2100.36 5386.55 2100.36 5526.59C2100.36 5570.41 2089.24 5611.65 2069.67 5647.62Z" fill="#BFCCEC"/>
<path d="M2066.02 5654.07C1917.64 5573.15 1777.7 5478.3 1647.23 5370.19C1648.73 5368.26 1650.29 5366.33 1651.87 5364.44C1782.04 5472.31 1921.61 5566.9 2069.65 5647.62C2068.46 5649.79 2067.26 5651.93 2066.02 5654.07Z" fill="#B1C2E8"/>
<path d="M2046.05 5763.51C2043.04 5698.62 2003.79 5656.37 1976.63 5659.4C1949.46 5662.41 1886.07 5653.35 1886.07 5653.35C1881.42 5643.01 1880.84 5629.78 1882.05 5616.81C1911.42 5597.81 1933.24 5555.7 1938.44 5504.8C1945.07 5503.49 1952 5495.57 1955.27 5484.72C1959.3 5471.4 1956.29 5458.7 1948.57 5456.35C1945.73 5455.52 1942.7 5456.16 1939.76 5457.95C1940.18 5388.2 1937.86 5334.91 1846.93 5334.91C1760.98 5334.91 1754.61 5387.48 1754.21 5456.52C1751.76 5454.52 1749.05 5453.5 1746.32 5453.83C1738.28 5454.79 1733.13 5466.78 1734.79 5480.61C1736.45 5494.44 1744.32 5504.86 1752.33 5503.89L1755.22 5503.03C1759.9 5552.7 1780.38 5594.22 1808.35 5614.45C1809.88 5628.15 1809.51 5642.4 1804.58 5653.35C1804.58 5653.35 1741.19 5662.41 1714.02 5659.4C1686.86 5656.37 1647.61 5698.62 1644.6 5763.51C1641.74 5825.18 1826.8 5862.31 1845.33 5865.88C1863.85 5862.31 2048.91 5825.18 2046.05 5763.51" fill="#7199D7"/>
<path d="M5903.55 2904.19C5799.55 2904.19 5715.21 2819.86 5715.21 2715.85C5715.21 2631.58 5770.56 2560.24 5846.89 2536.18C5884.77 2655.85 5913.89 2777.87 5934.17 2901.72C5924.2 2903.35 5913.97 2904.19 5903.55 2904.19ZM5941.45 2900.39C5921.13 2776.29 5891.92 2654 5853.98 2534.1C5869.78 2529.79 5886.4 2527.5 5903.55 2527.5C6007.6 2527.5 6091.91 2611.83 6091.91 2715.85C6091.91 2806.89 6027.32 2882.85 5941.45 2900.39Z" fill="#BFCCEC"/>
<path d="M5934.17 2901.71C5913.89 2777.87 5884.76 2655.85 5846.88 2536.17C5849.22 2535.44 5851.59 2534.74 5853.98 2534.1C5891.92 2654 5921.12 2776.29 5941.45 2900.39C5939.03 2900.88 5936.61 2901.33 5934.17 2901.71" fill="#B1C2E8"/>
<path d="M6051.54 2891.86C6049.29 2843.64 6020.14 2812.26 5999.97 2814.5C5979.78 2816.75 5932.7 2810.03 5932.7 2810.03C5929.25 2802.35 5928.81 2792.5 5929.71 2782.87C5951.53 2768.75 5967.73 2737.47 5971.6 2699.66C5976.52 2698.68 5981.67 2692.82 5984.12 2684.75C5987.1 2674.86 5984.86 2665.41 5979.1 2663.67C5977.03 2663.04 5974.76 2663.54 5972.6 2664.86C5972.89 2613.04 5971.16 2573.47 5903.62 2573.47C5839.78 2573.47 5835.04 2612.52 5834.75 2663.8C5832.92 2662.32 5830.92 2661.55 5828.87 2661.8C5822.92 2662.52 5819.09 2671.43 5820.32 2681.69C5821.55 2691.97 5827.38 2699.71 5833.35 2698.99L5835.49 2698.34C5838.97 2735.25 5854.18 2766.1 5874.96 2781.13C5876.09 2791.3 5875.83 2801.87 5872.16 2810.03C5872.16 2810.03 5825.07 2816.75 5804.89 2814.5C5784.72 2812.26 5755.56 2843.64 5753.33 2891.86C5751.19 2937.67 5888.66 2965.24 5902.44 2967.89C5916.19 2965.24 6053.66 2937.67 6051.54 2891.86" fill="#7199D7"/>
<path d="M948.573 4287.84C948.573 4331.84 912.89 4367.52 868.884 4367.52C824.871 4367.52 789.195 4331.84 789.195 4287.84C789.195 4243.84 824.871 4208.14 868.884 4208.14C912.89 4208.14 948.573 4243.84 948.573 4287.84Z" fill="#7199D7"/>
<path d="M6055.7 3527.2C6055.7 3571.21 6020.03 3606.89 5976.01 3606.89C5932.01 3606.89 5896.33 3571.21 5896.33 3527.2C5896.33 3483.18 5932.01 3447.5 5976.01 3447.5C6020.03 3447.5 6055.7 3483.18 6055.7 3527.2Z" fill="#7199D7"/>
<path d="M4102.43 827.18C4085.29 848.644 4053.96 852.152 4032.51 834.997C4011.03 817.841 4007.56 786.546 4024.7 765.067C4041.85 743.619 4073.15 740.127 4094.61 757.267C4116.09 774.422 4119.57 805.732 4102.43 827.18Z" fill="#7199D7"/>
<path d="M3844.53 5634.07C3849.18 5661.16 3830.99 5686.87 3803.91 5691.52C3776.85 5696.17 3751.12 5678.01 3746.48 5650.91C3741.81 5623.84 3760 5598.11 3787.08 5593.46C3814.14 5588.82 3839.87 5606.99 3844.53 5634.07Z" fill="#7199D7"/>
<path d="M2960.76 6365.72C2965.41 6392.82 2947.22 6418.51 2920.15 6423.17C2893.08 6427.83 2867.36 6409.65 2862.71 6382.57C2858.05 6355.49 2876.23 6329.78 2903.31 6325.12C2930.39 6320.46 2956.1 6338.64 2960.76 6365.72Z" fill="#7199D7"/>
<path d="M6401.76 3895.46C6406.4 3922.54 6388.22 3948.26 6361.15 3952.91C6334.07 3957.56 6308.35 3939.39 6303.69 3912.31C6299.04 3885.23 6317.23 3859.5 6344.3 3854.85C6371.38 3850.21 6397.09 3868.38 6401.76 3895.46" fill="#7199D7"/>
<path d="M1381.52 961.586C1386.16 988.65 1367.99 1014.38 1340.91 1019.04C1313.84 1023.68 1288.11 1005.5 1283.46 978.418C1278.82 951.339 1296.99 925.613 1324.07 920.966C1351.15 916.32 1376.87 934.507 1381.52 961.586Z" fill="#7199D7"/>
<path d="M273.777 2998.36C206.26 2997.77 151.688 2942.86 151.688 2875.21C151.688 2807.2 206.831 2752.06 274.848 2752.06C286.855 2752.06 298.461 2753.78 309.435 2756.98C294.374 2836.76 282.475 2917.27 273.777 2998.36ZM282.456 2998.13C291.08 2918.03 302.824 2838.53 317.676 2759.72C355.527 2773.75 384.593 2805.86 394.402 2845.57C389.358 2876.32 384.804 2907.18 380.728 2938.12C360.468 2972.14 324.281 2995.57 282.456 2998.13V2998.13ZM392.948 2910.21C394.557 2898.83 396.246 2887.42 397.99 2876.07C397.905 2887.92 396.151 2899.38 392.948 2910.21Z" fill="#BFCCEC"/>
<path d="M380.719 2938.11C384.794 2907.17 389.349 2876.31 394.392 2845.57C396.736 2855.06 397.986 2864.98 397.986 2875.2C397.986 2875.49 397.98 2875.77 397.98 2876.06C396.237 2887.42 394.548 2898.82 392.938 2910.2C390.01 2920.08 385.887 2929.44 380.719 2938.11Z" fill="#B9C7EA"/>
<path d="M274.868 2998.36C274.506 2998.36 274.158 2998.36 273.797 2998.36C282.495 2917.27 294.394 2836.76 309.455 2756.98C312.245 2757.8 314.998 2758.71 317.696 2759.72C302.844 2838.53 291.1 2918.03 282.476 2998.13C279.957 2998.28 277.422 2998.36 274.868 2998.36Z" fill="#B1C2E8"/>
<path d="M371.616 2990.3C370.156 2958.77 351.086 2938.24 337.893 2939.71C324.701 2941.18 293.917 2936.78 293.917 2936.78C291.658 2931.77 291.369 2925.32 291.964 2919.03C306.225 2909.8 316.822 2889.35 319.347 2864.64C322.568 2863.99 325.933 2860.15 327.526 2854.88C329.48 2848.41 328.024 2842.24 324.256 2841.1C322.898 2840.68 321.419 2841.01 319.984 2841.88C320.194 2807.99 319.057 2782.11 274.895 2782.11C233.154 2782.11 230.06 2807.65 229.868 2841.19L226.032 2839.88C222.132 2840.34 219.619 2846.16 220.438 2852.88C221.236 2859.59 225.054 2864.65 228.954 2864.19L230.36 2863.76C232.625 2887.9 242.578 2908.07 256.155 2917.89C256.901 2924.55 256.727 2931.46 254.335 2936.78C254.335 2936.78 223.544 2941.18 210.346 2939.71C197.154 2938.24 178.089 2958.77 176.629 2990.3C175.241 3020.24 265.128 3038.27 274.119 3040.01C283.111 3038.27 373.011 3020.24 371.616 2990.3Z" fill="#7199D7"/>
<path d="M4660.59 4742.31H4557.1C4589.98 4713.69 4621.98 4683.83 4653.05 4652.76C4824.63 4481.16 4959.35 4281.34 5053.45 4058.86C5150.88 3828.52 5200.28 3583.84 5200.28 3331.6C5200.28 3079.37 5150.88 2834.68 5053.45 2604.33C5021.14 2527.92 4984.03 2454.2 4942.29 2383.36H5258.93C5261.18 2383.36 5263.41 2383.25 5265.61 2383.02C5426.99 2685.06 5518.43 3029.97 5518.43 3396.34C5518.43 3808.38 5402.68 4193.41 5201.96 4520.66C4994.42 4530.54 4805.77 4612.62 4660.59 4742.31V4742.31ZM4549.13 4742.31H4543.82L4504.8 4590.56C4566.81 4587.16 4623.29 4575.25 4672.03 4557.02C4725.95 4536.83 4770.35 4508.92 4802.31 4476.19C4755.18 4536.58 4704.14 4594.26 4649.35 4649.07C4616.94 4681.47 4583.52 4712.57 4549.13 4742.31V4742.31ZM3807.51 4742.31H2114.65C2080.26 4712.57 2046.83 4681.47 2014.43 4649.07C1997.07 4631.7 1980.1 4614.07 1963.5 4596.14C1967.67 4596.66 1971.93 4596.94 1976.24 4596.94H2162.16H2644.59H3226.66C3252.71 4596.94 3276.37 4587.02 3294.14 4570.79C3296.52 4576.99 3298.76 4583.56 3300.8 4590.51C3396.4 4555.97 3521.48 4503.27 3566.67 4470.87C3566.67 4470.87 3657.99 4400.95 3744.53 4312.67C3753.38 4303.65 3762.17 4294.45 3770.81 4285.1C3773.81 4288.65 3777.09 4292.13 3780.61 4295.55C3836.56 4349.66 3867.22 4424.7 3859.81 4503.5L3807.51 4742.31V4742.31ZM2106.68 4742.31H1683.83C1388.26 4373.63 1211.43 3905.63 1211.43 3396.34C1211.43 3314.16 1216.03 3233.11 1225 3153.33C1231.11 3155.47 1237.31 3157.6 1243.46 3159.64C1314.92 3183.32 1389.86 3199.62 1467.5 3207.62C1464.82 3248.71 1463.48 3290.07 1463.48 3331.6C1463.48 3583.84 1512.89 3828.52 1610.33 4058.86C1678.27 4219.52 1767.4 4368.37 1876.3 4503.29C1879.23 4548.57 1912.09 4585.45 1955.07 4594.7C1973.16 4614.39 1991.73 4633.75 2010.73 4652.76C2041.8 4683.83 2073.8 4713.69 2106.68 4742.31V4742.31ZM1875.97 4494.53C1769.36 4361.43 1681.98 4214.88 1615.13 4056.83C1517.98 3827.13 1468.71 3583.13 1468.71 3331.6C1468.71 3290.22 1470.05 3249.08 1472.7 3208.14C1487.65 3209.6 1502.76 3210.77 1517.92 3211.6C1537.86 3212.71 1557.71 3213.26 1577.45 3213.26C1726.45 3213.26 1868.93 3182.08 1998.35 3125.59C2352.36 2971.1 2608.4 2627.4 2631.3 2215.42C2632.39 2195.51 2632.94 2175.69 2632.94 2156C2632.96 1977.43 2588.17 1808.15 2508.76 1659.6C2540.87 1643.78 2573.51 1628.86 2606.65 1614.84C2836.36 1517.7 3080.37 1468.43 3331.88 1468.43C3524.61 1468.43 3712.9 1497.36 3893.73 1554.56V1607.84C3893.73 1640.86 3920.5 1667.63 3953.51 1667.63H4171.13C4229.62 1697.14 4286.37 1729.64 4341.22 1765.04H3202.76C3166.85 1765.04 3137.73 1794.15 3137.73 1830.08V2348.82C3137.73 2370.42 3148.45 2390.6 3166.34 2402.71L3495.17 2624.87C3499.11 2627.53 3503.31 2628.72 3507.39 2628.72C3520.96 2628.72 3532.98 2615.56 3528.38 2600.39L3462.62 2383.36H3496.31H4936.21C4978.48 2454.81 5016 2529.22 5048.64 2606.36C5145.8 2836.08 5195.05 3080.07 5195.05 3331.6C5195.05 3583.13 5145.8 3827.13 5048.64 4056.83C4992.45 4189.71 4921.73 4314.45 4837.28 4429.91C4870.48 4370.21 4866.6 4301.1 4812.48 4235.48C4812.48 4235.48 5067.5 4148.53 4942.83 3843.97C4818.14 3539.42 4676.28 3482.41 4676.28 3482.41C4676.28 3482.41 4680.71 3476.46 4687.88 3465.79C4745.67 3490.77 4795.6 3536.86 4827.12 3589.31C4827.91 3590.59 4829.05 3591.11 4830.2 3591.11C4832.83 3591.11 4835.46 3588.37 4833.71 3585.47C4801.61 3532.12 4750.92 3485.01 4692.19 3459.27C4695.24 3454.64 4698.62 3449.35 4702.25 3443.51C4746.29 3452.39 4789.11 3469.33 4828.94 3488.95C4829.54 3489.24 4830.12 3489.38 4830.69 3489.38C4834.23 3489.38 4836.57 3484.24 4832.77 3482.36C4792.87 3462.73 4750.33 3445.82 4706.48 3436.67C4783.64 3309.81 4949.47 2960.33 4463.86 2920.34C4494.08 2887.36 4536.14 2866.59 4577.82 2851.75C4581.95 2850.28 4580.76 2844.17 4577.1 2844.17C4576.7 2844.17 4576.27 2844.25 4575.79 2844.41C4534.08 2859.26 4492.62 2879.46 4461.6 2911.68C4466.26 2890.23 4473.38 2869.19 4481.49 2849.06C4482.62 2846.31 4480.34 2844.49 4477.99 2844.49C4476.45 2844.49 4474.88 2845.26 4474.17 2847.03C4465.26 2869.12 4457.6 2892.17 4452.97 2915.68C4445.4 2908.56 4428.09 2892.8 4403.32 2873.11C4390.07 2853.34 4374.9 2834.89 4359.02 2818.52C4287.61 2744.9 4191.33 2713.53 4091.78 2713.53C4075.93 2713.53 4059.99 2714.33 4044.07 2715.86C4042.22 2716.05 4041.07 2717.26 4040.64 2718.7C4039.67 2718.68 4038.68 2718.68 4037.71 2718.68C3968.88 2718.68 3898.89 2739.17 3834 2793.38C3752.72 2861.29 3741.13 2965.44 3761.87 3065.57C3763.12 3081.47 3766.01 3096.88 3767.66 3107.12C3779.85 3182.11 3812.56 3252.54 3852.56 3317.04C3802.89 3325.43 3713.32 3355.37 3731.95 3461.99C3757.46 3607.95 3877.55 3791.92 3735.24 3811.07C3672.14 3819.55 3623.55 3888.35 3632.92 3988.83C3634.6 4006.77 3638.12 4025.72 3643.74 4045.51C3554.49 4203.84 3465.96 4365.81 3465.96 4365.81C3465.96 4365.81 3401.01 4396.65 3324.7 4433.53L3296.96 3623.85C3295.11 3569.93 3250.84 3527.15 3196.87 3527.15H1946.45C1889.81 3527.15 1844.44 3574.1 1846.38 3630.72L1875.97 4494.53V4494.53ZM4770.84 1765.04H4350.82C4296.57 1729.7 4240.49 1697.2 4182.65 1667.63H4649.34C4691.02 1698.65 4731.55 1731.15 4770.84 1765.04ZM2506.28 1655C2472.11 1591.86 2431.71 1532.51 2385.78 1477.8C2679.53 1327.6 3012.36 1242.84 3364.93 1242.84C3547.36 1242.84 3724.58 1265.55 3893.73 1308.25V1549.08C3712.87 1492.03 3524.59 1463.2 3331.88 1463.2C3079.66 1463.2 2834.96 1512.6 2604.62 1610.03C2571.32 1624.12 2538.53 1639.11 2506.28 1655" fill="#BFCCEC"/>
<path d="M4557.11 4742.31H4549.14C4583.53 4712.57 4616.95 4681.47 4649.36 4649.07C4704.15 4594.26 4755.19 4536.58 4802.32 4476.19C4816.53 4461.62 4828.27 4446.11 4837.29 4429.91C4921.74 4314.45 4992.46 4189.71 5048.65 4056.83C5145.81 3827.13 5195.06 3583.13 5195.06 3331.6C5195.06 3080.07 5145.81 2836.08 5048.65 2606.36C5016.01 2529.22 4978.49 2454.81 4936.22 2383.36H4942.3C4984.04 2454.2 5021.15 2527.92 5053.46 2604.33C5150.89 2834.68 5200.29 3079.37 5200.29 3331.6C5200.29 3583.84 5150.89 3828.52 5053.46 4058.86C4959.36 4281.34 4824.64 4481.16 4653.06 4652.76C4621.99 4683.83 4589.99 4713.69 4557.11 4742.31V4742.31ZM2114.66 4742.31H2106.69C2073.81 4713.69 2041.81 4683.83 2010.74 4652.76C1991.74 4633.75 1973.17 4614.39 1955.07 4594.7C1957.84 4595.3 1960.66 4595.77 1963.51 4596.14C1980.11 4614.07 1997.08 4631.7 2014.43 4649.07C2046.84 4681.47 2080.27 4712.57 2114.66 4742.31ZM1876.31 4503.29C1767.41 4368.37 1678.28 4219.52 1610.34 4058.86C1512.9 3828.52 1463.49 3583.84 1463.49 3331.6C1463.49 3290.07 1464.83 3248.71 1467.51 3207.62C1469.26 3207.8 1470.95 3207.97 1472.71 3208.14C1470.06 3249.08 1468.72 3290.22 1468.72 3331.6C1468.72 3583.13 1517.99 3827.13 1615.14 4056.83C1681.99 4214.88 1769.37 4361.43 1875.98 4494.53L1876.16 4500.24C1876.21 4501.26 1876.25 4502.27 1876.31 4503.29V4503.29ZM4350.83 1765.04H4341.23C4286.38 1729.64 4229.63 1697.14 4171.14 1667.63H4182.66C4240.5 1697.2 4296.58 1729.7 4350.83 1765.04ZM2508.77 1659.6C2507.94 1658.05 2507.12 1656.54 2506.29 1655C2538.54 1639.11 2571.33 1624.12 2604.63 1610.03C2834.97 1512.6 3079.67 1463.2 3331.89 1463.2C3524.6 1463.2 3712.88 1492.03 3893.74 1549.08V1554.56C3712.91 1497.36 3524.62 1468.43 3331.89 1468.43C3080.38 1468.43 2836.37 1517.7 2606.66 1614.84C2573.52 1628.86 2540.88 1643.78 2508.77 1659.6" fill="#B1C2E8"/>
<path d="M3860.77 3315.78C3825.3 3258.96 3795.76 3197.79 3780.54 3132.52C3806.44 3207.03 3846.63 3273.69 3883.77 3313.78C3883.77 3313.78 3874.6 3313.91 3860.77 3315.78V3315.78ZM4382.06 2856.66C4311.87 2804.03 4200.35 2735.47 4081.2 2721.3C4084.62 2721.22 4088.03 2721.18 4091.45 2721.18C4190.61 2721.18 4286.16 2752.59 4356.58 2826.97C4365.36 2836.25 4373.92 2846.2 4382.06 2856.66" fill="#BFCCEC"/>
<path d="M4356.58 2826.97C4365.37 2836.25 4373.92 2846.2 4382.06 2856.67C4311.87 2804.03 4200.35 2735.47 4081.2 2721.3C4184.01 2719.07 4283.74 2750.04 4356.58 2826.97ZM3780.54 3132.52C3806.44 3207.04 3846.63 3273.69 3883.77 3313.79C3883.77 3313.79 3874.6 3313.91 3860.77 3315.79C3825.3 3258.96 3795.76 3197.79 3780.54 3132.52V3132.52ZM4942.85 3843.97C4818.16 3539.42 4676.3 3482.42 4676.3 3482.42C4676.3 3482.42 4680.73 3476.46 4687.9 3465.8C4745.69 3490.77 4795.62 3536.87 4827.15 3589.32C4829.67 3593.5 4836.25 3589.67 4833.73 3585.47C4801.64 3532.13 4750.94 3485.02 4692.21 3459.28C4695.26 3454.64 4698.64 3449.35 4702.27 3443.52C4746.31 3452.4 4789.13 3469.34 4828.96 3488.95C4833.35 3491.11 4837.21 3484.54 4832.79 3482.37C4792.9 3462.74 4750.35 3445.83 4706.5 3436.67C4783.66 3309.82 4949.49 2960.34 4463.88 2920.35C4494.1 2887.36 4536.17 2866.59 4577.85 2851.76C4582.43 2850.13 4580.46 2842.76 4575.82 2844.42C4534.1 2859.27 4492.64 2879.47 4461.62 2911.69C4466.28 2890.24 4473.41 2869.19 4481.51 2849.07C4483.36 2844.51 4475.99 2842.54 4474.19 2847.04C4465.28 2869.13 4457.62 2892.18 4452.99 2915.69C4445.42 2908.56 4428.11 2892.81 4403.34 2873.12C4390.09 2853.34 4374.92 2834.9 4359.04 2818.53C4276.27 2733.18 4160.07 2704.61 4044.09 2715.87C4042.24 2716.05 4041.09 2717.27 4040.66 2718.7C3970.88 2718.12 3899.83 2738.41 3834.03 2793.38C3752.74 2861.3 3741.16 2965.45 3761.9 3065.58C3763.14 3081.47 3766.03 3096.89 3767.68 3107.12C3779.87 3182.11 3812.58 3252.55 3852.58 3317.05C3802.92 3325.43 3713.34 3355.37 3731.97 3462C3757.48 3607.95 3877.57 3791.92 3735.26 3811.08C3592.97 3830.22 3524.41 4156.08 4028.29 4460.33C4532.15 4764.59 5011.27 4476.5 4812.5 4235.48C4812.5 4235.48 5067.52 4148.54 4942.85 3843.97" fill="#416BBD"/>
<path d="M4504.8 4590.56L4490.15 4533.6L4587.56 4211.19L4703.86 3826.28C4700.12 3812.61 4696.51 3801.27 4692.72 3791.69L4726.35 3818.37C4726.35 3818.37 4790.3 4307.58 4672.03 4557.02C4623.28 4575.25 4566.8 4587.16 4504.8 4590.56V4590.56ZM3643.73 4045.51C3638.12 4025.73 3634.6 4006.77 3632.92 3988.83L3810.09 3763.36C3779.98 3806.71 3711.65 3925.05 3643.73 4045.51ZM4558.83 3685.42C4507.6 3655.52 4377.75 3586.24 4377.75 3586.24L4359.74 3401.61L4382.59 3333.89C4382.59 3333.89 4397.56 3347.3 4418.97 3347.3C4423.24 3347.3 4427.77 3346.76 4432.48 3345.48C4417 3355.68 4399.68 3369.2 4393.43 3382.01C4381.12 3407.16 4406.51 3564.53 4406.51 3564.53L4558.83 3685.42ZM4040.32 3640.68L4066.39 3529C4066.39 3529 3843.08 3423.27 4023.26 3059.85C3990.6 3125.63 3968.46 3206.67 3979.04 3299.38C3992.49 3417.16 4019.12 3454.01 4066.39 3488.38C4080.84 3498.89 4104.02 3504.99 4131.29 3506.63C4131.18 3532.24 4124.35 3575.53 4089.24 3626.32C4089.22 3626.31 4089.22 3626.29 4089.22 3626.29C4089.22 3626.29 4067.51 3632.06 4040.32 3640.68V3640.68ZM4023.26 3059.85C4023.26 3059.85 4023.34 3059.72 4023.46 3059.45C4023.4 3059.59 4023.34 3059.72 4023.26 3059.85ZM4023.46 3059.45C4023.48 3059.42 4023.49 3059.38 4023.51 3059.36C4023.49 3059.39 4023.48 3059.42 4023.46 3059.45ZM4023.51 3059.36C4023.52 3059.35 4023.52 3059.35 4023.52 3059.33C4023.52 3059.33 4023.51 3059.35 4023.51 3059.36ZM4023.52 3059.33C4023.54 3059.32 4023.54 3059.3 4023.54 3059.28C4023.54 3059.32 4023.54 3059.3 4023.52 3059.33ZM4023.54 3059.28L4023.57 3059.24C4023.55 3059.25 4023.55 3059.27 4023.54 3059.28ZM4023.57 3059.24C4023.57 3059.24 4023.57 3059.24 4023.57 3059.22V3059.24ZM4023.57 3059.22C4030.14 3045.99 4036.2 3033.77 4041.82 3022.42H4041.83C4032.34 3041.58 4025.12 3056.1 4023.57 3059.22V3059.22ZM4052.8 3000.28C4090.08 2925.07 4103.34 2898.33 4103.34 2898.33C4103.34 2898.33 4075.63 2954.24 4052.8 3000.28Z" fill="#375FB5"/>
<path d="M4043.83 3022.45C4043.16 3022.45 4042.48 3022.44 4041.82 3022.42C4045.23 3015.53 4048.94 3008.05 4052.79 3000.28L4056.23 3000.9C4056.23 3000.9 4056.71 3000.86 4057.62 3000.8C4052.96 3007.76 4048.34 3014.99 4043.83 3022.45V3022.45ZM4041.8 3022.42C3971.49 3021.14 3944.53 2980.72 3944.53 2980.72L4052.79 3000.28C4049.34 3007.23 4045.68 3014.62 4041.8 3022.42" fill="#365BB2"/>
<path d="M4041.82 3022.43H4041.8C4045.68 3014.63 4049.34 3007.24 4052.79 3000.29C4048.94 3008.06 4045.24 3015.53 4041.82 3022.43" fill="#3154AD"/>
<path d="M4046.1 3762.52L4000.41 3681.3C4000.41 3681.3 3867.86 3694.4 3819.68 3750.59C3771.53 3806.8 3465.97 4365.82 3465.97 4365.82C3465.97 4365.82 3333.64 4428.65 3224.71 4482.24C3251.86 4499.18 3283.05 4530.22 3300.82 4590.52C3396.41 4555.97 3521.5 4503.28 3566.69 4470.87C3566.69 4470.87 3861.69 4245.05 3893.8 4092.52C3925.91 3939.98 4046.1 3762.52 4046.1 3762.52Z" fill="#F3A273"/>
<path d="M3744.56 4312.67C3720.88 4280.96 3680.45 4190.67 3795.12 4019.55C3743.25 4139.05 3718.53 4223.24 3770.84 4285.09C3762.19 4294.45 3753.41 4303.65 3744.56 4312.67" fill="#ED9060"/>
<path d="M3224.7 4482.23C3088.61 4549.18 2933.57 4625.46 2924.64 4629.92C2908.6 4637.96 2780.12 4597.81 2764.07 4605.85C2748.01 4613.86 2659.71 4662.03 2627.59 4670.08C2595.47 4678.1 2707.87 4694.16 2756.04 4670.08C2804.22 4645.99 2820.26 4694.16 2860.42 4702.19C2900.56 4710.21 2924.64 4718.24 2948.72 4702.19C2948.72 4702.19 3133.97 4650.8 3300.82 4590.51C3283.04 4530.21 3251.86 4499.17 3224.7 4482.23Z" fill="#F3A273"/>
<path d="M4128.91 3481.88C4128.91 3481.88 4152.99 3570.19 4048.62 3674.57L3992.4 3778.93L4112.84 3915.42L4233.27 3955.55L4490.17 3658.51L4377.78 3586.24L4345.65 3257.09L4128.91 3481.88Z" fill="#F9A87B"/>
<path d="M4128.12 3537.81C4130.46 3525.7 4131.25 3515.18 4131.29 3506.62C4136.3 3506.93 4141.43 3507.07 4146.68 3507.07C4203.93 3507.07 4274.14 3489.17 4320.07 3453.02C4275.06 3516.48 4168.65 3533.55 4128.12 3537.81Z" fill="#EB8D5F"/>
<path d="M4089.24 3626.28C4089.24 3626.28 4136.92 3762.86 4377.77 3586.23C4377.77 3586.23 4527.88 3666.33 4568.99 3691.44C4660.36 3747.29 4679.78 3737.96 4703.88 3826.26L4490.16 4533.59L4562.42 4814.57L3791.41 4815.88L3859.82 4503.49C3867.23 4424.69 3836.57 4349.65 3780.62 4295.54C3670.43 4188.94 3818.2 4012.57 3934.41 3691.44C3944.01 3664.91 4089.24 3626.28 4089.24 3626.28" fill="#FF822E"/>
<path d="M3915.08 4736.2C3869.52 4736.2 3832.64 4734.88 3809.39 4733.75L3837.33 4606.16C4038.61 4584.17 4360.84 4473.25 4360.84 4473.25C4345.59 4133.12 4482.68 3955.42 4482.68 3955.42C4482.68 3955.42 4547.84 4072.51 4587.57 4211.18L4490.16 4533.6L4511.62 4617.07C4351.7 4719.37 4077.89 4736.2 3915.08 4736.2Z" fill="#E7266B"/>
<path d="M3797.79 4626.18L3599.01 4541.62L3516.1 4479.37C3510.87 4475.43 3504.36 4473.58 3497.82 4474.17L3402.15 4482.88C3398.29 4483.22 3394.6 4484.66 3391.5 4487C3374.75 4499.71 3320.45 4541.62 3334.07 4541.62C3350.13 4541.62 3382.24 4533.6 3406.34 4517.54C3406.34 4517.54 3478.59 4517.54 3486.6 4509.51C3486.6 4509.51 3518.71 4541.62 3534.78 4549.67C3550.84 4557.68 3542.81 4549.67 3542.81 4549.67L3435.32 4582.33C3429.78 4584.01 3424.98 4587.52 3421.71 4592.27C3408.18 4611.93 3371.18 4665.09 3358.16 4678.11C3358.16 4678.11 3398.3 4694.17 3430.41 4646C3462.52 4597.83 3550.84 4597.83 3558.87 4605.86C3558.87 4605.86 3446.48 4670.09 3414.35 4734.32C3414.35 4734.32 3429.54 4773.78 3454.49 4742.33C3502.88 4681.39 3566.41 4662.39 3590.98 4654.03L3545.24 4706.3C3539.49 4712.88 3540.21 4722.9 3546.84 4728.61L3590.98 4766.43C3590.98 4766.43 3599.01 4734.32 3582.95 4718.25L3623.09 4678.11C3623.09 4678.11 3667.4 4766.41 3797.79 4714.22V4626.18Z" fill="#F9A87B"/>
<path d="M4148.04 4563.04C3976.67 4598.81 3784.15 4628.32 3784.15 4628.32L3787.63 4714.02C3963.43 4717.85 4104.96 4706.97 4216.05 4690.52C4212.26 4624.92 4179.6 4585.75 4148.04 4563.04" fill="#F9A87B"/>
<path d="M4670.51 3752.36C4566.75 3707.37 4479.07 3954.73 4479.07 3954.73C4366.67 4187.53 4393.81 4493.44 4393.81 4493.44C4356.48 4515.22 4256.49 4540.38 4148.05 4563.03C4179.61 4585.74 4212.27 4624.91 4216.06 4690.52C4447.34 4656.24 4546.35 4597.82 4546.35 4597.82C4642.7 4453.31 4774.26 3797.36 4670.51 3752.36Z" fill="#F9A87B"/>
<path d="M4173.02 2874.12C4173.02 2874.12 3949.65 3041.65 3979.07 3299.38C3992.52 3417.16 4019.15 3454.01 4066.41 3488.39C4122.25 3529.01 4308.36 3503.71 4356.95 3409.96L4382.61 3333.9C4382.61 3333.9 4428.17 3374.68 4474.08 3313.92C4520.01 3253.15 4510.22 3156.65 4444.03 3202.1L4485.11 3080.38L4444.89 2973.62L4173.02 2874.12" fill="#F9A87B"/>
<path d="M4385.64 3212.36C4342.81 3212.36 4321.88 3164.32 4312.3 3129.04C4189.9 3098.01 4173.01 2899.5 4173.01 2899.5C4127.87 2986.75 4080.01 3010.23 4048.52 3014.88C4104.62 2925.41 4173.01 2874.11 4173.01 2874.11L4310.87 2924.56C4394.98 3023.49 4493.58 3161.18 4428.26 3199.02C4412.08 3208.4 4397.95 3212.36 4385.64 3212.36Z" fill="#EB8D5F"/>
<path d="M4205.27 3043.21C4186.39 3015.73 4177.88 2985.36 4174.59 2958.19C4199.33 3052.25 4330.37 3117.79 4330.37 3117.79L4330.11 3121.13C4273.71 3107.87 4231.78 3081.77 4205.27 3043.21ZM4482.68 2985.81L4320.22 2904.57L4091.77 2848.73C4091.77 2848.73 3812.56 2945.19 3939.48 3001.03C4050.84 3050.03 4146.56 2938.77 4168.35 2910.79C4166.1 2945.3 4169.19 2999.63 4201.07 3046.06C4228.44 3085.88 4271.66 3112.74 4329.74 3126.24C4326.96 3205.07 4421.75 3219.32 4421.75 3219.32L4462.36 3188.86L4543.59 3163.47L4482.68 2985.81Z" fill="#416BBD"/>
<path d="M4330.38 2820.55C4330.38 2820.55 4391.3 2792.88 4452.22 2914.72C4452.22 2914.72 4528.37 3092.4 4452.22 3254.86H4436.99C4436.99 3254.86 4467.44 2954.84 4330.38 2820.55Z" fill="#33393F"/>
<path d="M4523.29 3270.09C4523.29 3309.34 4491.47 3341.16 4452.22 3341.16C4412.96 3341.16 4381.14 3309.34 4381.14 3270.09C4381.14 3230.83 4412.96 3199.01 4452.22 3199.01C4491.47 3199.01 4523.29 3230.83 4523.29 3270.09Z" fill="#E81380"/>
<path d="M4198.11 3211.64C4194.03 3227.96 4186.32 3240.09 4180.87 3238.73C4175.44 3237.38 4174.33 3223.04 4178.4 3206.72C4182.47 3190.39 4190.18 3178.27 4195.61 3179.62C4201.06 3180.99 4202.17 3195.32 4198.11 3211.64Z" fill="#33393F"/>
<path d="M4061.31 3184.62C4059.92 3201.39 4054.28 3214.61 4048.69 3214.15C4043.09 3213.7 4039.69 3199.73 4041.07 3182.96C4042.43 3166.21 4048.09 3152.97 4053.68 3153.44C4059.26 3153.9 4062.68 3167.87 4061.31 3184.62" fill="#33393F"/>
<path d="M4046.09 3391.1C4046.09 3391.1 4139.89 3417.91 4213.61 3344.19C4213.61 3344.19 4213.61 3431.32 4093 3444.72C4093 3444.72 4072.89 3444.72 4046.09 3391.1" fill="white"/>
<path d="M4032.57 3105.54C4033.72 3100.88 4036.07 3096.59 4039.23 3092.72C4042.44 3088.94 4046.68 3085.74 4051.54 3083.82C4056.31 3081.97 4061.68 3080.08 4066.8 3081.34C4069.35 3081.78 4071.69 3082.94 4073.97 3084.02C4076.15 3085.37 4078.19 3086.97 4079.91 3089.02L4079.55 3089.99C4076.89 3090.72 4074.54 3090.96 4072.31 3091.06C4070.05 3091.45 4067.94 3091.4 4065.91 3091.59C4063.88 3091.79 4061.92 3091.59 4059.95 3091.54C4057.95 3091.23 4055.98 3091.42 4053.97 3091.66C4050.04 3092.4 4046.23 3094.08 4042.74 3096.48C4039.14 3098.85 4036.06 3102.17 4033.52 3105.91L4032.57 3105.54" fill="#416BBD"/>
<path d="M4237.25 3105.54C4236.11 3100.88 4233.76 3096.59 4230.61 3092.72C4227.39 3088.94 4223.16 3085.74 4218.3 3083.82C4213.53 3081.97 4208.14 3080.08 4203.03 3081.34C4200.48 3081.78 4198.13 3082.94 4195.86 3084.02C4193.68 3085.37 4191.66 3086.97 4189.93 3089.02L4190.28 3089.99C4192.96 3090.72 4195.28 3090.96 4197.51 3091.06C4199.77 3091.45 4201.9 3091.4 4203.91 3091.59C4205.96 3091.79 4207.91 3091.59 4209.87 3091.54C4211.88 3091.23 4213.85 3091.42 4215.85 3091.66C4219.79 3092.4 4223.59 3094.08 4227.1 3096.48C4230.68 3098.85 4233.78 3102.17 4236.3 3105.91L4237.25 3105.54" fill="#416BBD"/>
<path d="M4087.87 3328.88C4087.87 3328.88 4018.45 3302.18 4034.47 3291.49C4047.16 3283.03 4076.64 3237.66 4088.32 3211.22C4089.76 3207.96 4094.58 3208.75 4094.87 3212.3C4097.07 3239.67 4099.46 3294.08 4087.87 3328.88" fill="#F68484"/>
<path d="M4482.68 3270.1C4482.68 3286.92 4469.03 3300.55 4452.21 3300.55C4435.38 3300.55 4421.75 3286.92 4421.75 3270.1C4421.75 3253.27 4435.38 3239.64 4452.21 3239.64C4469.03 3239.64 4482.68 3253.27 4482.68 3270.1Z" fill="#33393F"/>
<path d="M4387.34 3417.32H4157.79V3405.56H4381.28C4390.47 3387.84 4438.15 3295.74 4442.81 3285.32L4452.24 3290.58C4446.95 3302.37 4391.24 3409.83 4388.87 3414.39L4387.34 3417.32" fill="#33393F"/>
<path d="M4178.1 3409.7C4178.1 3416.71 4164.45 3422.39 4147.62 3422.39C4130.82 3422.39 4117.17 3416.71 4117.17 3409.7C4117.17 3402.69 4130.82 3397 4147.62 3397C4164.45 3397 4178.1 3402.69 4178.1 3409.7Z" fill="#33393F"/>
<path d="M5117.27 4833.7H1619.47C1594.26 4833.7 1573.79 4813.22 1573.79 4788C1573.79 4762.76 1594.26 4742.31 1619.47 4742.31H5117.27C5142.5 4742.31 5162.96 4762.76 5162.96 4788C5162.96 4813.22 5142.5 4833.7 5117.27 4833.7Z" fill="#C0C9CF"/>
<path d="M1846.38 3630.71L1876.16 4500.24C1878.02 4554.17 1922.27 4596.94 1976.24 4596.94H3226.66C3283.31 4596.94 3328.69 4549.98 3326.75 4493.36L3296.96 3623.85C3295.11 3569.92 3250.85 3527.15 3196.87 3527.15H1946.45C1889.82 3527.15 1844.45 3574.09 1846.38 3630.71" fill="#7882C7"/>
<path d="M2644.6 4596.94H2162.17C2195.64 4506.76 2289.06 4300.51 2472.35 4199.1L2584.03 4270.19L2680.48 4199.1C2680.48 4199.1 2616.91 4446.73 2644.6 4596.94ZM2472.35 4199.1C2472.35 4199.1 2472.45 4199.06 2472.63 4198.95C2472.54 4199.01 2472.45 4199.06 2472.35 4199.1ZM2472.63 4198.95L2472.66 4198.93C2472.66 4198.93 2472.65 4198.95 2472.63 4198.95ZM2472.66 4198.93C2472.71 4198.9 2472.77 4198.89 2472.82 4198.84C2472.75 4198.89 2472.72 4198.9 2472.66 4198.93ZM2472.82 4198.84C2472.88 4198.83 2472.92 4198.8 2472.98 4198.75C2472.92 4198.78 2472.88 4198.81 2472.82 4198.84ZM2472.98 4198.75C2473.03 4198.73 2473.11 4198.69 2473.15 4198.66C2473.09 4198.7 2473.05 4198.73 2472.98 4198.75ZM2473.15 4198.66C2473.17 4198.66 2473.18 4198.66 2473.2 4198.64C2473.18 4198.66 2473.17 4198.66 2473.15 4198.66ZM2473.2 4198.64C2552.07 4155.01 2578.38 4140.45 2578.39 4140.45C2578.39 4140.45 2483.19 4193.12 2473.2 4198.64" fill="#5461B1"/>
<path d="M2472.32 4199.11H2680.46C2680.46 4199.11 2365.71 4706.78 2647.46 4742.31H2213.42C2213.42 4742.31 2127.1 4539.24 2472.32 4199.11" fill="#7882C7"/>
<path d="M2543.35 3845.56C2543.35 3835.9 2544.86 3826.59 2547.63 3817.87C2546.22 3817.81 2544.79 3817.76 2543.35 3817.76C2484.15 3817.76 2436.14 3865.75 2436.14 3924.97C2436.14 3984.19 2484.15 4032.18 2543.35 4032.18C2598.97 4032.18 2644.7 3989.81 2650.03 3935.59C2645.04 3936.42 2639.92 3936.88 2634.67 3936.88C2584.23 3936.88 2543.35 3896 2543.35 3845.56" fill="white"/>
<path d="M2631.32 2215.42C2598.96 2797.97 2100.49 3243.96 1517.94 3211.6C935.403 3179.25 489.389 2680.77 521.749 2098.24C554.107 1515.7 1052.58 1069.69 1635.12 1102.06C2217.65 1134.4 2663.68 1632.88 2631.32 2215.42Z" fill="#7199D7"/>
<path d="M2861.53 2228.2C2822.11 2937.9 2214.84 3481.27 1505.15 3441.85C795.446 3402.42 252.086 2795.15 291.5 2085.45C330.921 1375.74 938.204 832.386 1647.9 871.805C2357.59 911.239 2900.95 1518.51 2861.53 2228.2" fill="#929DB7"/>
<path d="M1466.27 2246.41C1466.27 2246.41 1190.66 2246.41 1094.19 2294.64C997.733 2342.86 949.494 2466.89 970.163 2549.57C990.84 2632.26 880.587 2838.98 997.733 2949.22C1102.93 3048.23 1185.89 3036.11 1221.66 3022.61C1225.72 3021.09 1229.18 3019.54 1232 3018.14C1259.56 3004.35 1232 3383.32 1232 3383.32C1232 3383.32 1927.94 3424.67 1969.28 3383.32C2010.62 3341.98 2024.39 2473.78 1927.94 2377.33C1831.47 2280.85 1562.74 2246.41 1562.74 2246.41H1466.27" fill="#FF822E"/>
<path d="M1442.14 2001.78L1431.8 2246.4L1657.95 2396.37C1666.76 2402.08 1678.53 2397.02 1680.47 2386.71L1717.75 2187.83L1497.26 1919.1L1442.14 2001.78" fill="#F8A38C"/>
<path d="M1684.33 2366.1C1579.3 2313.46 1486.92 2156.83 1486.92 2156.83C1477.74 2166.02 1467.78 2169.08 1458.6 2169.08C1449.63 2169.08 1441.4 2166.17 1435.32 2163.19L1440.57 2038.78L1494.17 1999.48L1638.52 2108.6C1638.52 2108.6 1658.17 2123.94 1684.57 2147.4L1717.75 2187.84L1684.33 2366.1" fill="#F38A72"/>
<path d="M1455.92 1912.24C1566.17 1905.34 1579.96 1726.19 1579.96 1705.53C1579.96 1684.85 1752.22 1629.72 1793.56 1650.4C1832.9 1670.06 1843.34 1796.33 1845.24 1805.43C1905.8 1768.76 1958.9 1637.93 1931.36 1560.82C1896.91 1464.35 1855.57 1498.81 1828.01 1519.48C1800.46 1540.16 1800.46 1443.69 1655.75 1361C1511.04 1278.32 1676.43 1457.47 1504.17 1443.69C1331.91 1429.9 1318.12 1602.16 1318.12 1602.16C1228.54 1602.16 1166.52 1677.95 1235.43 1753.75C1304.33 1829.55 1249.21 1836.43 1235.43 1905.34C1228.25 1941.27 1297.9 1956.59 1366.22 1963.03C1385.99 1936.67 1414.68 1914.81 1455.92 1912.24" fill="#205175"/>
<path d="M1635.12 2015.57C1761.87 2070.68 1879.74 2006.82 1921.87 1979.01C1891.27 1930.47 1864.88 1881.79 1862.49 1836.42C1861.32 1814.23 1858.14 1793.64 1853.72 1774.72L1855.45 1773.64C1853.54 1764.55 1832.94 1670.05 1793.6 1650.38C1752.25 1629.71 1579.99 1684.83 1579.99 1705.51C1579.99 1721.93 1571.22 1838.39 1512.31 1888.99C1533.66 1938.01 1570.74 1987.6 1635.12 2015.57" fill="#F8A38C"/>
<path d="M1921.84 1979.02C1879.71 2006.82 1761.84 2070.69 1635.09 2015.58C1570.71 1987.6 1533.63 1938.01 1512.28 1888.99C1497.06 1902.07 1478.55 1910.81 1455.92 1912.23C1414.68 1914.8 1385.99 1936.66 1366.22 1963.02C1428.87 1968.93 1490.38 1967.34 1490.38 1967.34C1524.83 2360.1 1938.25 2332.54 2007.17 2229.18C2052.19 2161.65 1979.54 2070.56 1921.84 1979.02Z" fill="#205175"/>
<path d="M1243.81 1869.56L1560.27 1887.13L1551.25 2049.64L1234.78 2032.05L1243.81 1869.56Z" fill="#650E2D"/>
<path d="M1221.66 2160.29C1221.66 2160.29 1221.66 1946.68 1256.12 1919.11C1290.55 1891.56 1373.25 1788.21 1414.6 1815.76C1455.92 1843.32 1435.26 1857.11 1462.83 1870.89C1490.39 1884.66 1476.6 1905.34 1497.27 1919.11C1517.94 1932.9 1545.52 1988.03 1531.73 1988.03C1517.94 1988.03 1469.71 1988.03 1469.71 1988.03C1469.71 1988.03 1373.25 2167.17 1331.91 2160.29L1325.02 2187.84H1221.66V2160.29" fill="#F8A38C"/>
<path d="M1321.58 2184.4C1321.58 2184.4 1335.37 2866.55 1273.35 2907.89C1211.34 2949.23 1045.96 2901 1080.42 2763.19C1114.87 2625.39 1238.9 2122.39 1238.9 2122.39L1321.58 2184.4Z" fill="#F8A38C"/>
<path d="M1638.57 2060.36C1638.57 2060.36 1759.1 2096.54 1814.17 2084.3C1818.52 2083.33 1822.2 2087.52 1820.71 2091.74C1814.71 2108.48 1803.94 2139.99 1803.94 2149.94C1803.94 2163.73 1679.91 2143.05 1638.57 2060.36Z" fill="#E7F7F9"/>
<path d="M1773.58 1853.65C1773.58 1853.65 1934.53 1950.43 1890.9 1992.11C1847.28 2033.79 1813.49 2027.19 1813.49 2027.19C1813.49 2027.19 1757.21 1878.23 1773.58 1853.65Z" fill="#F68793"/>
<path d="M1638.55 1888.11C1637.86 1879.55 1640.29 1870.83 1645.46 1863.18C1650.66 1855.58 1660.17 1849.83 1670.04 1849.28C1680.05 1848.35 1688.69 1852.34 1696.22 1856.52C1699.72 1859.06 1703.22 1861.58 1706.26 1864.52C1709.14 1867.69 1711.97 1870.8 1714.33 1874.34C1710.11 1873.23 1706.34 1871.68 1702.62 1870.22C1698.91 1868.72 1695.08 1867.78 1691.58 1866.32C1684.37 1864.45 1677.37 1862.29 1671.03 1863.02C1664.74 1863.46 1659 1865.82 1653.54 1870.34C1648.15 1874.92 1643.35 1881.12 1638.55 1888.11" fill="#A2524B"/>
<path d="M1862.44 1821.61C1860 1815.1 1855.2 1809.57 1848.8 1805.76C1842.37 1802 1833.44 1801.06 1826.03 1804.07C1818.39 1806.84 1813.46 1812.72 1809.39 1818.38C1807.7 1821.44 1806.02 1824.51 1804.81 1827.69C1803.79 1831 1802.79 1834.24 1802.29 1837.64C1804.99 1835.38 1807.21 1832.95 1809.44 1830.6C1811.62 1828.23 1814.1 1826.21 1816.16 1823.95C1820.79 1820.09 1825.16 1816.1 1830.04 1814.46C1834.8 1812.61 1839.81 1812.35 1845.35 1813.78C1850.87 1815.26 1856.52 1818.15 1862.44 1821.61Z" fill="#A2524B"/>
<path d="M1602.56 1834.73C1604.2 1823.62 1609.16 1812.34 1615.6 1803.27C1633.27 1778.4 1662.01 1775.28 1690.15 1780.96C1703.2 1783.59 1706.03 1763.11 1693.03 1760.48C1659.73 1753.77 1625.17 1758.95 1602.59 1786.28C1592.14 1798.91 1584.49 1815.54 1582.08 1831.85C1580.14 1845.01 1600.6 1847.9 1602.56 1834.73Z" fill="#205175"/>
<path d="M1779.21 1748.92C1786.7 1743.61 1796.16 1740.18 1805.2 1738.85C1829.86 1735.24 1847.94 1750.46 1860.49 1770.3C1866.31 1779.5 1880.02 1769.61 1874.22 1760.44C1859.37 1736.98 1836.78 1719.47 1807.87 1721.56C1794.5 1722.53 1780.35 1727.39 1769.35 1735.19C1760.47 1741.47 1770.33 1755.21 1779.21 1748.92" fill="#205175"/>
<path d="M3953.5 1099.3H5843.38C5876.42 1099.3 5903.17 1126.06 5903.17 1159.07V1635.87C5903.17 1655.72 5893.31 1674.27 5876.86 1685.4L5574.62 1889.6C5558.93 1900.22 5538.62 1885.23 5544.11 1867.11L5604.56 1667.63H3953.5C3920.5 1667.63 3893.73 1640.86 3893.73 1607.84V1159.07C3893.73 1126.06 3920.5 1099.3 3953.5 1099.3" fill="#4A55B0"/>
<path d="M5571.33 1777.33L5604.58 1667.63H5573.59L5573.87 1667.4H5769.22L5571.33 1777.33" fill="#8C549F"/>
<path d="M4122.08 1251.54H5701.9C5715.9 1251.54 5727.25 1240.17 5727.25 1226.17C5727.25 1212.15 5715.9 1200.8 5701.9 1200.8H4122.08C4108.08 1200.8 4096.71 1212.15 4096.71 1226.17C4096.71 1240.17 4108.08 1251.54 4122.08 1251.54Z" fill="white"/>
<path d="M4122.08 1380.08H5701.9C5715.9 1380.08 5727.25 1368.71 5727.25 1354.71C5727.25 1340.69 5715.9 1329.34 5701.9 1329.34H4122.08C4108.08 1329.34 4096.71 1340.69 4096.71 1354.71C4096.71 1368.71 4108.08 1380.08 4122.08 1380.08Z" fill="white"/>
<path d="M4929.94 1508.63H5709.33C5719.26 1508.63 5727.27 1500.6 5727.27 1490.69V1475.83C5727.27 1465.92 5719.26 1457.89 5709.33 1457.89H4929.94C4920.03 1457.89 4912 1465.92 4912 1475.83V1490.69C4912 1500.6 4920.03 1508.63 4929.94 1508.63Z" fill="white"/>
<path d="M3173.17 5814.98H3566.66C3581.02 5814.98 3592.67 5826.63 3592.67 5840.97V6048.37C3592.67 6056.99 3588.39 6065.06 3581.23 6069.9L3449.78 6158.73C3442.93 6163.35 3434.1 6156.83 3436.5 6148.93L3462.79 6062.17H3173.17C3158.81 6062.17 3147.18 6050.53 3147.18 6036.17V5840.97C3147.18 5826.63 3158.81 5814.98 3173.17 5814.98Z" fill="#7199D7"/>
<path d="M5973.81 1963.24H6213.72C6222.49 1963.24 6229.58 1970.33 6229.58 1979.09V2105.54C6229.58 2110.81 6226.97 2115.73 6222.62 2118.68L6142.45 2172.84C6138.28 2175.66 6132.91 2171.67 6134.35 2166.86L6150.39 2113.96H5973.81C5965.04 2113.96 5957.95 2106.87 5957.95 2098.11V1979.09C5957.95 1970.33 5965.04 1963.24 5973.81 1963.24" fill="#7199D7"/>
<path d="M5258.92 1765.04H3202.75C3166.84 1765.04 3137.71 1794.15 3137.71 1830.07V2348.81C3137.71 2370.42 3148.44 2390.6 3166.33 2402.71L3495.16 2624.87C3512.24 2636.41 3534.35 2620.11 3528.37 2600.39L3462.61 2383.35H5258.92C5294.83 2383.35 5323.94 2354.24 5323.94 2318.32V1830.07C5323.94 1794.15 5294.83 1765.04 5258.92 1765.04" fill="#F46F21"/>
<path d="M3498.8 2502.74L3283.49 2383.13H3496.05L3496.32 2383.36H3462.63L3498.8 2502.74" fill="#F0A42F"/>
<path d="M5075.52 1930.66H3356.71C3341.48 1930.66 3329.11 1918.31 3329.11 1903.06C3329.11 1887.81 3341.48 1875.45 3356.71 1875.45H5075.52C5090.76 1875.45 5103.13 1887.81 5103.13 1903.06C5103.13 1918.31 5090.76 1930.66 5075.52 1930.66" fill="white"/>
<path d="M5075.52 2070.51H3356.71C3341.48 2070.51 3329.11 2058.15 3329.11 2042.91C3329.11 2027.66 3341.48 2015.3 3356.71 2015.3H5075.52C5090.76 2015.3 5103.13 2027.66 5103.13 2042.91C5103.13 2058.15 5090.76 2070.51 5075.52 2070.51" fill="white"/>
<path d="M4196.6 2210.38H3348.63C3337.85 2210.38 3329.11 2201.63 3329.11 2190.86V2174.69C3329.11 2163.9 3337.85 2155.16 3348.63 2155.16H4196.6C4207.37 2155.16 4216.11 2163.9 4216.11 2174.69V2190.86C4216.11 2201.63 4207.37 2210.38 4196.6 2210.38Z" fill="white"/>
<path d="M6328.29 5396.2C6328.29 5994.84 5843 6480.13 5244.36 6480.13C4645.69 6480.13 4160.4 5994.84 4160.4 5396.2C4160.4 4797.55 4645.69 4312.26 5244.36 4312.26C5843 4312.26 6328.29 4797.55 6328.29 5396.2Z" fill="#407BFF"/>
<path d="M5318.69 5490.11C5252.16 5642.73 5134.75 5767.94 5044.76 5646.62C4977.66 5556.21 5030.17 5433.16 5061.23 5376.35C5155.09 5345.82 5250.5 5333.58 5250.5 5333.58H5339.77C5339.77 5333.58 5392.66 5333.59 5458.72 5337.79C5411.13 5364.21 5353.28 5410.75 5318.69 5490.11Z" fill="#F8A38C"/>
<path d="M5136.91 5459.74L5083.34 5369.49C5095.12 5366.01 5106.8 5362.8 5118.2 5359.86L5136.91 5459.74" fill="#F38A72"/>
<path d="M4912.55 5454.73C4946.53 5420.75 5003.59 5395.1 5061.24 5376.34C5030.18 5433.15 4977.68 5556.2 5044.77 5646.63C5134.76 5767.93 5252.17 5642.72 5318.7 5490.11C5353.29 5410.74 5411.14 5364.2 5458.73 5337.78C5537.7 5342.83 5635.48 5353.89 5684.1 5378.2C5773.37 5422.85 5818 5537.63 5798.88 5614.13C5779.74 5690.66 5881.76 5881.94 5773.37 5983.97C5676.02 6075.59 5599.25 6064.36 5566.14 6051.88C5562.37 6050.48 5559.17 6049.03 5556.58 6047.74C5531.06 6034.99 5556.58 6385.69 5556.58 6385.69C5556.58 6385.69 4912.55 6423.94 4874.3 6385.69C4836.02 6347.41 4823.28 5544 4912.55 5454.73" fill="#FF822E"/>
<path d="M5303.03 4683.99C5303.03 4683.99 5240.42 4593.99 5087.81 4664.44C4935.19 4734.88 4743.45 5079.23 4982.14 5384.44C4982.14 5384.44 5033.02 5310.1 5216.94 5290.54C5400.85 5270.97 5303.03 4683.99 5303.03 4683.99Z" fill="#A55EB5"/>
<path d="M5166.09 4719.21L5262.15 4651.97C5274.15 4657.79 5283.37 4664.48 5289.97 4670.23L5166.09 4719.21" fill="#85449F"/>
<path d="M5038.13 5340.56C4823.8 5295.05 4960.03 4946.93 4961.17 4944.05C4949.37 4987.21 4934.25 5049.97 4931.32 5090.97C4923.44 5201.36 4970.45 5310.1 5025.22 5317.93C5036.95 5319.6 5054.84 5322.41 5076.18 5322.85C5061.53 5328.64 5048.92 5334.65 5038.13 5340.56Z" fill="#85449F"/>
<path d="M5358.18 5107.28L5367.75 5333.66L5158.47 5472.44C5150.31 5477.72 5139.42 5473.02 5137.62 5463.48L5103.12 5279.44L5307.17 5030.77L5358.18 5107.28" fill="#F8A38C"/>
<path d="M5118.17 5359.76L5110.97 5321.3C5181.28 5313.14 5269.11 5270.29 5307.02 5107.4L5310.02 5105.14L5359.62 5141.5L5363.87 5241.8C5350.87 5230.33 5328.07 5209.92 5310.86 5192.72C5310.86 5192.72 5261.01 5336.38 5118.17 5359.76" fill="#F38A72"/>
<path d="M4931.3 5090.96C4936.21 5022.06 4975.55 4891.82 4975.75 4896.13C4977.51 4887.73 4996.57 4800.29 5032.99 4782.07C5071.24 4762.95 5230.65 4813.95 5230.65 4833.08C5230.65 4848.29 5238.76 4956.06 5293.29 5002.89C5307.37 5014.99 5324.51 5023.06 5345.43 5024.37C5383.59 5026.76 5410.16 5046.99 5428.46 5071.39C5370.48 5076.84 5313.55 5075.39 5313.55 5075.39C5263.92 5357.05 5079.16 5325.63 5025.2 5317.92C4970.43 5310.09 4923.43 5201.36 4931.3 5090.96" fill="#F8A38C"/>
<path d="M5386.75 5054.44C5375.86 5054.44 5362.72 5053.15 5347.07 5050.38C5159.24 5017.24 5123.58 4845.96 5110.42 4784.35C5166.95 4796.16 5230.68 4820.99 5230.68 4833.08C5230.68 4848.3 5238.79 4956.06 5293.32 5002.9C5307.39 5014.99 5324.53 5023.07 5345.46 5024.38C5372.57 5026.07 5393.83 5036.78 5410.43 5051.58C5404.16 5053.44 5396.32 5054.44 5386.75 5054.44" fill="#F38A72"/>
<path d="M5172.25 5193.86C5172.25 5193.86 5075.02 5223.03 5030.59 5213.17C5027.08 5212.39 5024.11 5215.77 5025.33 5219.16C5030.16 5232.67 5038.85 5258.1 5038.85 5266.11C5038.85 5277.24 5138.89 5260.56 5172.25 5193.86" fill="#E7F7F9"/>
<path d="M5172.25 5054.93C5172.78 5048.01 5170.81 5040.98 5166.66 5034.81C5162.46 5028.67 5154.8 5024.04 5146.83 5023.59C5138.75 5022.85 5131.78 5026.07 5125.73 5029.44C5122.89 5031.49 5120.06 5033.53 5117.61 5035.89C5115.3 5038.44 5113.01 5040.95 5111.1 5043.81C5114.52 5042.9 5117.55 5041.67 5120.56 5040.49C5123.55 5039.27 5126.63 5038.52 5129.46 5037.35C5135.29 5035.82 5140.92 5034.09 5146.03 5034.69C5151.11 5035.04 5155.75 5036.95 5160.14 5040.59C5164.49 5044.29 5168.35 5049.27 5172.25 5054.93Z" fill="#A2524B"/>
<path d="M4991.61 5001.27C4993.57 4996.02 4997.44 4991.56 5002.62 4988.5C5007.79 4985.47 5014.99 4984.7 5020.98 4987.13C5027.12 4989.37 5031.12 4994.11 5034.39 4998.67C5035.75 5001.14 5037.12 5003.62 5038.09 5006.19C5038.9 5008.84 5039.72 5011.47 5040.12 5014.21C5037.95 5012.38 5036.13 5010.44 5034.35 5008.53C5032.59 5006.62 5030.59 5004.99 5028.95 5003.16C5025.19 5000.05 5021.67 4996.84 5017.73 4995.51C5013.9 4994.02 5009.85 4993.81 5005.38 4994.97C5000.93 4996.16 4996.38 4998.5 4991.61 5001.27" fill="#A2524B"/>
<path d="M5103.48 4777.93C5103.48 4777.93 5170.01 5008.78 5359.8 5028.35C5549.58 5047.92 5205.23 4746.6 5205.23 4746.6H5013.49L4954.78 4891.4C4954.78 4891.4 5068.26 4856.18 5103.48 4777.93" fill="#A55EB5"/>
<path d="M5103.12 4746.61C5107.37 4746.61 5291.3 4644.87 5369.56 4668.35C5447.82 4691.83 5623.91 4938.35 5600.43 5184.89C5576.97 5431.41 5244.35 5396.2 5244.35 5396.2C5244.35 5396.2 5416.52 5173.15 5259.99 4918.79L5142.59 4809.23L5103.12 4746.61Z" fill="#A55EB5"/>
<path d="M5430.36 4932.38L5261.21 5172L5384.25 5258.86L5553.4 5019.24L5430.36 4932.38Z" fill="#650E2D"/>
<path d="M5554.52 5249.67C5554.52 5249.67 5554.52 5078.49 5526.9 5056.38C5499.3 5034.3 5433.02 4951.46 5399.89 4973.54C5366.77 4995.65 5383.34 5006.7 5361.23 5017.74C5339.15 5028.77 5350.18 5045.33 5333.62 5056.38C5317.05 5067.44 5294.98 5111.61 5306.01 5111.61C5317.05 5111.61 5355.72 5111.61 5355.72 5111.61C5355.72 5111.61 5433.02 5255.19 5466.16 5249.67L5471.68 5271.75H5554.52V5249.67" fill="#F8A38C"/>
<path d="M5459.6 5216.18C5459.6 5216.18 5457.05 5907.52 5514.42 5945.79C5571.83 5984.04 5724.86 5939.4 5692.98 5811.88C5661.1 5684.35 5546.32 5218.88 5546.32 5218.88L5459.6 5216.18Z" fill="#F8A38C"/>
<path d="M5060.45 5145.76L5025.23 5126.18C5025.23 5126.18 5050.83 5092.9 5062.7 5069.83C5064.26 5066.82 5068.8 5067.88 5068.87 5071.28C5069.16 5090.13 5068.28 5122.28 5060.45 5145.76" fill="#F68A91"/>
<path d="M5196.64 5020.63C5188.45 4994.26 5166.36 4972.29 5139.74 4965.32C5136.08 4964.37 5137.63 4958.71 5141.3 4959.66C5169.94 4967.17 5193.5 4990.77 5202.29 5019.07C5203.41 5022.7 5197.75 5024.24 5196.64 5020.63" fill="#A55EB5"/>
<path d="M5049.77 4933.34C5026.23 4930.78 5001.4 4940.64 4986.8 4959.21C4984.8 4961.77 4980.87 4958.61 4982.87 4956.06C4998.58 4936.07 5025.18 4925.6 5050.48 4928.35C5053.71 4928.7 5052.99 4933.7 5049.77 4933.34Z" fill="#A55EB5"/>
<path d="M5093.72 4746.61L5093.61 4754.98C5093.6 4758.01 5093.64 4761.03 5093.74 4764.04C5093.9 4770.08 5094.35 4776.06 5094.9 4782.05C5096.09 4794 5097.97 4805.83 5100.58 4817.5C5105.8 4840.81 5114 4863.36 5124.72 4884.49C5135.52 4905.61 5149.06 4925.17 5164.6 4942.77C5180.31 4960.25 5197.98 4975.79 5216.98 4989.23C5198.95 4974.48 5182.57 4957.85 5168.37 4939.65C5154.34 4921.3 5142.54 4901.4 5133.59 4880.35C5124.68 4859.28 5118.38 4837.21 5115 4814.77C5113.31 4803.56 5112.32 4792.25 5111.98 4780.97C5111.86 4775.34 5111.83 4769.69 5112.08 4764.09C5112.2 4761.29 5112.34 4758.49 5112.54 4755.69L5113.28 4746.61H5093.72" fill="#A55EB5"/>
</svg>
