<svg width="275" height="218" fill="none" xmlns="http://www.w3.org/2000/svg"><g clip-path="url(#clip0)" fill="#04458F"><path d="M272.981 176.908c-1.401-.375-2.931.422-3.334 1.925l-.063.235-6.298-1.688a35.415 35.415 0 000-12.982l6.298-1.687.063.235c.403 1.503 1.933 2.3 3.334 1.925a2.721 2.721 0 001.924-3.334l-1.535-5.729a2.722 2.722 0 00-5.258 1.409l.063.235-6.3 1.689a35.341 35.341 0 00-6.503-11.23l4.624-4.624.172.172a2.723 2.723 0 003.85-3.849l-4.194-4.194a2.721 2.721 0 10-3.849 3.849l.172.172-4.624 4.624a35.365 35.365 0 00-11.231-6.503l1.688-6.299.235.063c1.509.404 2.961-.532 3.334-1.925a2.722 2.722 0 00-1.924-3.334l-5.729-1.535a2.723 2.723 0 00-1.409 5.259l.235.062-1.688 6.299a35.424 35.424 0 00-12.981 0l-1.688-6.299.235-.062a2.723 2.723 0 00-1.409-5.259l-5.728 1.535a2.722 2.722 0 101.409 5.258l.235-.063 1.688 6.3a35.368 35.368 0 00-11.231 6.503l-4.624-4.624.173-.172a2.723 2.723 0 00-3.85-3.85l-4.193 4.194a2.72 2.72 0 103.849 3.85l.172-.173 4.624 4.624a35.39 35.39 0 00-6.503 11.23l-6.3-1.688.063-.235a2.722 2.722 0 10-5.258-1.409l-1.536 5.729a2.723 2.723 0 005.259 1.409l.063-.235 6.298 1.688a35.426 35.426 0 000 12.982l-6.298 1.687-.063-.235a2.723 2.723 0 00-5.259 1.409l1.535 5.729a2.722 2.722 0 005.259-1.409l-.063-.235 6.3-1.688a35.369 35.369 0 006.502 11.23l-4.624 4.624-.172-.172a2.721 2.721 0 10-3.849 3.849l4.193 4.194a2.723 2.723 0 003.85-3.849l-.172-.173 4.624-4.623a35.35 35.35 0 0011.23 6.502l-1.688 6.3-.235-.063a2.723 2.723 0 00-1.409 5.259l5.729 1.535a2.721 2.721 0 003.333-1.925 2.721 2.721 0 00-1.924-3.334l-.235-.063 1.687-6.298a35.426 35.426 0 0012.982 0l1.687 6.298-.235.063a2.722 2.722 0 001.409 5.259l5.729-1.535a2.723 2.723 0 00-1.409-5.259l-.235.063-1.688-6.3a35.369 35.369 0 0011.23-6.502l4.624 4.623-.172.173a2.721 2.721 0 103.85 3.849l4.193-4.194a2.721 2.721 0 10-3.849-3.849l-.172.172-4.624-4.624a35.35 35.35 0 006.502-11.23l6.3 1.688-.063.235a2.722 2.722 0 005.259 1.409l1.535-5.729a2.721 2.721 0 00-1.924-3.334zm-44.437 23.88c-16.486 0-29.898-13.412-29.898-29.898 0-16.486 13.412-29.898 29.898-29.898 16.485 0 29.897 13.412 29.897 29.898 0 16.486-13.412 29.898-29.897 29.898z"/><path d="M228.544 153.203a2.722 2.722 0 100-5.444 2.722 2.722 0 000 5.444zm0 40.818a2.722 2.722 0 100-5.444 2.722 2.722 0 000 5.444zm-5.831-14.578a2.722 2.722 0 100-5.444 2.722 2.722 0 000 5.444zm11.662 0a2.722 2.722 0 100-5.444 2.722 2.722 0 000 5.444zm0-11.662a2.722 2.722 0 100-5.444 2.722 2.722 0 000 5.444zm-11.662 0a2.722 2.722 0 100-5.444 2.722 2.722 0 000 5.444zm26.24 5.831a2.722 2.722 0 100-5.444 2.722 2.722 0 000 5.444zm-40.818 0a2.722 2.722 0 100-5.445 2.722 2.722 0 000 5.445zm34.841-14.431a2.722 2.722 0 100-5.444 2.722 2.722 0 000 5.444zm-28.863 28.863a2.722 2.722 0 100-5.445 2.722 2.722 0 000 5.445zm28.863 0a2.722 2.722 0 100-5.445 2.722 2.722 0 000 5.445zm-28.863-28.863a2.722 2.722 0 100-5.444 2.722 2.722 0 000 5.444z"/></g><path d="M182.005 0H4.919A4.919 4.919 0 000 4.92v98.38a4.917 4.917 0 004.92 4.919h177.085a4.917 4.917 0 004.919-4.919V4.919A4.917 4.917 0 00182.005 0zM9.838 9.838h14.069A19.76 19.76 0 019.838 23.907V9.838zm0 88.543V84.312a19.76 19.76 0 0114.069 14.069H9.838zm167.248 0h-14.069a19.754 19.754 0 0114.069-14.069v14.069zm0-24.153a29.473 29.473 0 00-24.153 24.153H33.991A29.475 29.475 0 009.838 74.228V33.991A29.474 29.474 0 0033.991 9.838h118.942a29.477 29.477 0 0024.153 24.153v40.237zm0-50.321a19.756 19.756 0 01-14.069-14.069h14.069v14.069z" fill="#04458F"/><path d="M34.433 49.19H49.19v9.839H34.433V49.19zm103.3 0h14.758v9.839h-14.758V49.19zM93.462 14.757a39.352 39.352 0 1039.352 39.352 39.396 39.396 0 00-39.352-39.352zm0 68.867a29.514 29.514 0 1129.514-29.514 29.546 29.546 0 01-29.514 29.514zM78.666 196.762H59.029v-49.151h9.307L54.11 122.976l-14.226 24.635h9.307v54.07a4.919 4.919 0 004.919 4.919h24.556v9.307l24.634-14.226-24.634-14.226v9.307zM270.007 83.575l-14.216 24.644-14.216-24.644h9.297V59.029h-24.546v9.297L201.681 54.11l24.645-14.216v9.297h29.465a4.92 4.92 0 014.919 4.919v29.465h9.297z" fill="#04458F"/><defs><clipPath id="clip0"><path fill="#fff" d="M182.089 124.434H275v92.911h-92.911z"/></clipPath></defs></svg>