<svg width="2021" height="1054" fill="none" xmlns="http://www.w3.org/2000/svg"><path d="M330.948 1041.17h-86.864c-44.172-60.824-75.431-98.05-78.765-217.736-3.347-120.138 132.379-278.08 150.966-329.643 18.331-50.84-39.744-145.35-34.029-198.992C294.868 176.407 400.577 87.176 529.499 63.553c27.124-4.97 54.732-7.284 82.532-7.284 88.755 0 179.294 23.64 260.742 60.1 78.573 35.173 154.597 83.157 240.897 90.157 7.76.628 15.48.914 23.19.914 51.02-.003 100.87-12.494 151.07-19.972 31.09-4.63 63.15-7.08 95.38-7.08 110.81 0 223.46 28.969 304.07 97.833 66.79 57.053 105.35 136.884 113.37 216.582 5.87 58.375-2.06 122.803-26.13 176.377-11.23 24.992-29.84 48.783-45.93 72.698l-23.7-64.624c-5.33-26.805-26.51-48.514-54.27-56.585 2.61-10.294 5.11-20.715 7.31-31.349 11.37-55.004 7.59-117.307-6.7-171.367-6.66-25.221-16.29-49.803-28.66-72.904l1.43-7.652c1.99-10.628-1.63-21.007-8.78-28.082-3.37-23.269-23.33-40.301-46.45-40.301-.96 0-1.92.029-2.88.088-13.35-13.039-27.96-24.796-43.75-34.964-51.55-33.198-111.91-47.423-173.46-47.423-58.82 0-118.73 12.981-173.14 34.802-46.64 18.705-91.81 43.593-141.76 49.888-8.96 1.13-17.9 1.643-26.8 1.643-63.499.003-125.687-26.189-187.926-42.714-44.223-11.742-90.435-18.51-136.28-18.51-54.302 0-108.091 9.487-157.514 31.441-103.345 45.904-176.827 149.523-168.239 263.651 3.888 51.713 23.787 102.745 16.744 154.12-7.146 52.102-38.088 95.689-54.47 144.763-15.627 46.816-21.329 109-11.067 165.405l-.365 1.599c-5.655 24.63 3.617 49.207 21.88 64.247.365.71.731 1.42 1.105 2.12" fill="#E5EDF9"/><path d="M98.961 573.172c-34.9 0-69.338-31.815-86.963-66.343-27.497-53.872-6.129-119.84 47.727-147.346 21.679-11.07 51.382-17.319 80.928-17.319 43.856 0 87.368 13.762 103.797 45.949 27.496 53.872-55.4 99.867-89.27 149.974-16.964 25.094-36.665 35.085-56.219 35.085M1847.57 827.406c-17.95 0-35.38-5.151-46.92-17.666-26.34-28.556 9.36-64.358 17.39-97.302 4.77-19.589 16.12-27.135 29.6-27.135 18.15 0 40.17 13.662 55.29 30.042 26.34 28.557 28.48 69.436 4.78 91.305-13.31 12.287-37.14 20.756-60.14 20.756zm-109.63-619.398c-25.42 0-48.74-36.899-73.52-53.17-40.29-26.457-13.82-65.942 16.74-82.078 9.32-4.915 19.31-7.248 29.16-7.248 22.46 0 44.17 12.129 55.38 33.38 16.13 30.568 15.65 89.665-14.92 105.804-4.34 2.294-8.63 3.312-12.84 3.312" fill="#DDE6F6"/><path d="M332.567 1041.17h-1.619c-.374-.7-.74-1.41-1.105-2.12.887.73 1.795 1.44 2.724 2.12zm-24.239-67.966c-10.262-56.405-4.56-118.589 11.067-165.405 16.382-49.074 47.324-92.661 54.47-144.763 7.043-51.375-12.856-102.407-16.745-154.12-8.587-114.128 64.895-217.747 168.24-263.651 49.423-21.954 103.212-31.441 157.514-31.441 45.845 0 92.057 6.768 136.28 18.51 62.238 16.525 124.426 42.717 187.926 42.714 8.9 0 17.84-.513 26.8-1.643 49.95-6.295 95.12-31.183 141.76-49.888 54.41-21.821 114.32-34.802 173.14-34.802 61.55 0 121.91 14.225 173.46 47.423 15.79 10.168 30.4 21.925 43.75 34.964a46.786 46.786 0 00-20.87 6.346c-7.37-12.06-20.63-19.895-35.34-19.895-1.55 0-3.11.085-4.69.265-9.46 1.067-17.78 5.269-24.13 11.415a54.338 54.338 0 00-24.4-5.798c-2.03 0-4.08.112-6.14.348-29.99 3.391-51.54 30.45-48.15 60.436 1.58 14.025 8.36 26.189 18.18 34.835l-11.11 59.324a31.243 31.243 0 003.21 20.627l-6.15 32.868c-2.8 14.93.27 29.57 7.49 41.661.01.035.03.067.04.103 7.21 17.746 22.63 31.741 42.5 36.309v68.114l-136.92.522c-25.48-15.652-54.85-25.371-85.32-30.086l16.88-58.77c.01-.003.01-.009.01-.015.57-1.97 15.84-55.12 17.18-59.793 0-.009 0-.015.01-.024v-.018l.01-.02v-.012l.01-.044.02-.033v-.018l.01-.032.04-.127-.18-.15c1.92-3.763 6.89-11.813 17.06-18.911 17.6-12.276 19.7-32.614 19.7-32.614 9.4-9.097 19.99-16.858 29.58-25.743 1-.929 2.05-1.943 2.34-3.276.33-1.486-.37-3.008-1.22-4.267-3.19-4.736-8.11-6.856-13.23-6.856-2.82 0-5.7.643-8.39 1.846-4.43 1.984-8.39 4.809-12.11 7.915-1.76 1.471-7.78 5.52-9.6 8.215l33.95-72.512c3.01-6.44 1.04-13.788-4.39-16.327a9.241 9.241 0 00-3.97-.876c-1.55 0-3.12.366-4.6 1.05-1.77.814-3.37 2.123-4.73 3.763.11-.534.17-.847.17-.847-5.09-4.282-10.34-6.151-15.61-6.151-35.92 0-73.22 86.545-73.22 86.545l-13.92 32.864-91.66 169.991c-17.24 3.158-34.51 6.139-52.05 6.139-3.95 0-7.91-.15-11.88-.483-44.22-3.71-83.165-29.134-123.42-47.774a383.513 383.513 0 00-19.949-8.563l-50.328-93.342-13.926-32.865s-37.298-86.545-73.214-86.545c-5.277 0-10.518 1.867-15.612 6.151l.165.847c-1.351-1.64-2.96-2.946-4.723-3.763-1.48-.684-3.048-1.05-4.599-1.05a9.335 9.335 0 00-3.977.876c-5.427 2.542-7.399 9.89-4.383 16.328l33.949 72.511c-1.825-2.695-7.839-6.741-9.602-8.212-3.714-3.105-7.679-5.93-12.113-7.918-2.686-1.203-5.566-1.846-8.384-1.846-5.121 0-10.041 2.123-13.237 6.856-.849 1.262-1.542 2.781-1.214 4.267.294 1.333 1.335 2.35 2.337 3.276 9.593 8.888 20.182 16.649 29.577 25.743 0 0 2.102 20.338 19.696 32.614 5.056 3.527 8.826 7.29 11.577 10.646h-.003c.006.006.015.011.021.02a51.49 51.49 0 012.75 3.677c.955 1.605 1.893 3.501 2.801 5.603l6.6 22.966c-2.6-.08-5.194-.121-7.788-.121-14.245 0-28.39 1.226-42.286 3.86-29.542 5.6-56.708 18.156-78.287 35.934l-12.883-87.698a150.559 150.559 0 00-12.603-41.985l10.86-1.746s-6.096-88.229-95.759-88.229c-10.707 0-22.597 1.257-35.821 4.073a150.069 150.069 0 00-15.463-.796c-7.261 0-14.61.525-22.007 1.613-60.218 8.849-101.865 64.853-93.015 125.089l11.663 79.396c7.661 52.177 50.699 90.411 101.216 93.959v2.497h-49.703c-31.311 0-58.014 19.663-68.482 47.314l-.015-.006-.218.599-.106.289-61.33 167.23 4.864.593-17.656 76.902-.743.342.714-.212-8.013 34.899zm6.332-29.785c-.094.462-.153.757-.179.907.035-.179.097-.498.179-.907.015-.087.036-.181.054-.278-.018.097-.039.189-.054.278zm.387-1.965l-.333 1.687.333-1.687zm.58-2.937l-.58 2.937.58-2.937zm290.001-293.213c-.705-.014-1.4-.05-2.111-.05h-4.363v-13.16l28.481-4.185a120.242 120.242 0 00-3.134 17.277l-18.879.068.006.05zm1045.092-22.635c-7.57-2.199-15.63-3.385-23.99-3.385l-65.95-.525v-78.5a60.265 60.265 0 0014.75-29.609l3.69-19.737 2.88.54c1.94.363 3.88.537 5.79.537 14.88 0 28.23-10.643 31.07-25.779l.32-1.731c2.32-12.412-3.04-24.561-12.69-31.505l16.08-85.926c12.37 23.101 22 47.683 28.66 72.904 14.29 54.06 18.07 116.363 6.7 171.367-2.2 10.634-4.7 21.055-7.31 31.349" fill="#CCD9F1"/><path d="M1315.85 1041.17H696.945l12.063-150.474c13.027-11.878 21.105-25.811 14.239-40.245-.725-1.528-1.878-2.74-3.261-3.583-.247-.366-.451-.731-.716-1.1 0 0-.525.065-1.394.177a8.932 8.932 0 00-2.539-.377c-.209 0-.418.008-.63.023-.649.05-1.351.106-2.096.165l6.526-81.437H912.8a64.141 64.141 0 0032.201-8.631c.454-.21.911-.401 1.365-.62 32.263-15.735 45.134-55.031 28.433-86.81l-67.768-125.69a383.882 383.882 0 0119.949 8.563c40.255 18.639 79.2 44.064 123.42 47.774 3.97.333 7.93.483 11.88.483 17.54 0 34.81-2.981 52.05-6.139l-26.44 49.039c-16.7 31.779-3.83 71.075 28.44 86.81.46.23.93.428 1.4.64a64.042 64.042 0 0032.16 8.611h193.84l-27.88 302.821zM774.639 645.254v-.584l-1.597.006v-.006l-148.541.516a120.38 120.38 0 013.133-17.277l41.768-6.139c6.83-1.006 11.553-7.354 10.551-14.184l-7.126-48.505c21.58-17.778 48.745-30.335 78.287-35.934 13.897-2.634 28.042-3.86 42.286-3.86 2.595 0 5.189.041 7.789.121l35.827 124.673c-14.702.006-20.724.468-30.3.743l-15.073.203h-.067l-16.937.227zm513.581-26.551l-16.92-.068v-.003h-.1l-9-.035c-13.67-.115-19.76-.469-36.53-.484l-.09.337.09-.337 8.51-29.618c30.48 4.716 59.85 14.435 85.33 30.087l-31.29.121" fill="#9AC0E9"/><path d="M2003.11 1050.41H86.525a4.655 4.655 0 01-4.66-4.66c0-2.57 2.086-4.66 4.66-4.66H2003.11c2.58 0 4.67 2.09 4.67 4.66a4.66 4.66 0 01-4.67 4.66z" fill="#A9BDE6"/><path d="M1943.26 609.176c0 7.327-5.93 13.269-13.26 13.269s-13.27-5.942-13.27-13.269c0-7.331 5.94-13.27 13.27-13.27 7.33 0 13.26 5.939 13.26 13.27z" fill="#1A1C44"/><path d="M1845.98 977.781c0 5.697-4.62 10.321-10.32 10.321-5.69 0-10.32-4.624-10.32-10.321 0-5.7 4.63-10.321 10.32-10.321 5.7 0 10.32 4.621 10.32 10.321zM248.166 149.16c0 7.328-5.938 13.27-13.266 13.27-7.326 0-13.266-5.942-13.266-13.27 0-7.331 5.94-13.27 13.266-13.27 7.328 0 13.266 5.939 13.266 13.27z" fill="#5460B6"/><path d="M110.044 939.224c0 7.785-6.308 14.096-14.089 14.096-7.782 0-14.09-6.311-14.09-14.096 0-7.782 6.308-14.092 14.09-14.092 7.781 0 14.089 6.31 14.089 14.092zm43.786-725.186a4.422 4.422 0 11-8.844 0 4.422 4.422 0 118.844 0z" fill="#1A1C44"/><path d="M1279.99 42.831c-4.09 19.135-22.9 31.334-42.04 27.247-19.13-4.087-31.32-22.912-27.24-42.047C1214.8 8.9 1233.62-3.3 1252.75.787c19.13 4.084 31.32 22.91 27.24 42.044z" fill="#324A8B"/><path d="M1838.63 95.917c-1.24 5.809-6.96 9.513-12.77 8.274-5.81-1.241-9.51-6.96-8.27-12.771 1.24-5.81 6.96-9.513 12.77-8.272 5.8 1.242 9.51 6.957 8.27 12.769zM453.47 27.453c-1.241 5.812-6.954 9.516-12.765 8.277-5.81-1.241-9.513-6.96-8.272-12.768 1.241-5.812 6.954-9.516 12.765-8.278 5.81 1.242 9.513 6.96 8.272 12.769" fill="#F9AB34"/><path d="M1927.25 338.128c-1.24 5.809-6.95 9.512-12.76 8.274-5.81-1.242-9.52-6.959-8.28-12.768 1.24-5.813 6.96-9.516 12.77-8.278 5.81 1.242 9.51 6.959 8.27 12.772" fill="#5460B6"/><path d="M1152.95 76.551a8.43 8.43 0 01-10.01 6.488 8.436 8.436 0 01-6.49-10.011c.98-4.56 5.46-7.464 10.01-6.488a8.436 8.436 0 016.49 10.011z" fill="#1A1C44"/><path d="M1187.1 249.508c0 93.595-75.85 169.469-169.42 169.469-93.565 0-169.417-75.874-169.417-169.469 0-93.593 75.852-169.469 169.417-169.469 93.57 0 169.42 75.876 169.42 169.469z" fill="#1C1B21"/><path d="M1169.23 231.633c0 93.595-75.85 169.469-169.414 169.469-93.569 0-169.421-75.874-169.421-169.469 0-93.593 75.852-169.466 169.421-169.466 93.564 0 169.414 75.873 169.414 169.466" fill="#F9AB34"/><path d="M999.816 104.321c-70.363 0-127.607 57.261-127.607 127.643s57.244 127.643 127.607 127.643c70.364 0 127.604-57.261 127.604-127.643s-57.24-127.643-127.604-127.643zm0 264.132c-75.239 0-136.451-61.229-136.451-136.489S924.577 95.475 999.816 95.475c75.244 0 136.444 61.229 136.444 136.489s-61.2 136.489-136.444 136.489z" fill="#FCF2E3"/><path d="M1009.29 268.99c9.29-1.439 13.94-5.629 13.94-12.571v-.395c0-3.403-.99-6.187-2.95-8.348-1.97-2.162-5.63-4.223-10.99-6.187v27.501zm-18.465-88.199c-4.711.657-8.148 2.064-10.312 4.222-2.158 2.162-3.237 4.813-3.237 7.956v.393c0 3.016.914 5.599 2.748 7.758 1.83 2.164 5.43 4.226 10.801 6.189v-26.518zm-.982 112.359a96.67 96.67 0 01-24.645-6.382c-7.924-3.208-15.156-7.298-21.7-12.279l15.318-22.393c5.365 4.061 10.571 7.434 15.612 10.118 5.038 2.686 10.504 4.614 16.397 5.794v-31.234c-7.069-1.964-13.257-4.122-18.558-6.481-5.3-2.359-9.69-5.173-13.16-8.446-3.466-3.273-6.084-7.104-7.853-11.491-1.766-4.388-2.65-9.46-2.65-15.225v-.392c0-5.5.981-10.478 2.945-14.93a34.058 34.058 0 018.346-11.589c3.599-3.27 7.953-5.924 13.059-7.956 5.106-2.029 10.734-3.37 16.889-4.028v-11.391h20.427v11.786c7.06 1.05 13.58 2.784 19.54 5.205 5.95 2.424 11.61 5.535 16.98 9.33l-13.15 22.983a112.927 112.927 0 00-11.98-6.974c-4.06-2.029-8.19-3.565-12.37-4.618v29.662c14.92 4.064 25.75 9.366 32.49 15.912 6.75 6.552 10.12 15.322 10.12 26.321v.395c0 5.5-1.02 10.478-3.04 14.927-2.04 4.456-4.85 8.319-8.45 11.592-3.6 3.273-7.95 5.96-13.06 8.053-5.11 2.097-10.8 3.471-17.08 4.126v19.447h-20.427V293.15z" fill="#1C1B21"/><path d="M1187.1 249.508c0 93.595-75.85 169.469-169.42 169.469-93.565 0-169.417-75.874-169.417-169.469 0-93.593 75.852-169.469 169.417-169.469 93.57 0 169.42 75.876 169.42 169.469z" fill="#1C1B21"/><path d="M1169.23 231.633c0 93.595-75.85 169.469-169.414 169.469-93.569 0-169.421-75.874-169.421-169.469 0-93.593 75.852-169.466 169.421-169.466 93.564 0 169.414 75.873 169.414 169.466" fill="#F09825"/><path d="M999.816 104.321c-70.363 0-127.607 57.261-127.607 127.643s57.244 127.643 127.607 127.643c70.364 0 127.604-57.261 127.604-127.643s-57.24-127.643-127.604-127.643zm0 264.132c-75.239 0-136.451-61.229-136.451-136.489S924.577 95.475 999.816 95.475c75.244 0 136.444 61.229 136.444 136.489s-61.2 136.489-136.444 136.489z" fill="#FCF2E3"/><path d="M907.665 153.202c0 42.348-34.321 76.681-76.657 76.681s-76.66-34.333-76.66-76.681c0-42.351 34.324-76.681 76.66-76.681s76.657 34.33 76.657 76.681z" fill="#1C1B21"/><path d="M899.581 145.116c0 42.351-34.32 76.681-76.659 76.681-42.337 0-76.657-34.33-76.657-76.681 0-42.348 34.32-76.678 76.657-76.678 42.339 0 76.659 34.33 76.659 76.678" fill="#F09825"/><path d="M822.922 87.51c-31.838 0-57.739 25.909-57.739 57.756 0 31.845 25.901 57.756 57.739 57.756 31.838 0 57.74-25.911 57.74-57.756 0-31.847-25.902-57.755-57.74-57.755zm0 119.513c-34.043 0-61.74-27.704-61.74-61.757s27.697-61.757 61.74-61.757c34.044 0 61.74 27.704 61.74 61.757s-27.696 61.757-61.74 61.757z" fill="#FCF2E3"/><path d="M736.345 282.805c0-18.389-14.905-33.298-33.289-33.298 18.384 0 33.289-14.91 33.289-33.298 0 18.388 14.905 33.298 33.289 33.298-18.384 0-33.289 14.909-33.289 33.298zm391.075 167.414c0-13.506-10.95-24.458-24.45-24.458 13.5 0 24.45-10.949 24.45-24.454 0 13.505 10.95 24.454 24.45 24.454-13.5 0-24.45 10.952-24.45 24.458zM967.622 567.992c0-24.835-20.126-44.969-44.957-44.969 24.831 0 44.957-20.132 44.957-44.967 0 24.835 20.125 44.967 44.958 44.967-24.833 0-44.958 20.134-44.958 44.969z" fill="#fff"/><path d="M1122.82 221.039c0-23.272-18.86-42.139-42.12-42.139 23.26 0 42.12-18.869 42.12-42.141 0 23.272 18.87 42.141 42.13 42.141-23.26 0-42.13 18.867-42.13 42.139z" fill="#FCF2E3"/><path d="M1263.65 249.508c0-12.836-10.4-23.243-23.24-23.243 12.84 0 23.24-10.409 23.24-23.245 0 12.836 10.41 23.245 23.24 23.245-12.83 0-23.24 10.407-23.24 23.243z" fill="#fff"/><path d="M551.564 171.952H292.73c-26.62 0-48.2 21.588-48.2 48.216s21.58 48.216 48.2 48.216h213.308l29.351 26.749v-26.749h16.175c26.621 0 48.2-21.588 48.2-48.216s-21.579-48.216-48.2-48.216" fill="#324A8B"/><path d="M316.07 213.516a15.248 15.248 0 005.527-11.76c0-8.443-6.842-15.287-15.282-15.287-8.437 0-15.28 6.844-15.28 15.287 0 4.73 2.15 8.958 5.525 11.76-10.837 3.981-18.582 14.366-18.582 26.586 0 15.656 56.676 15.656 56.676 0 0-12.22-7.747-22.605-18.584-26.586z" fill="#F9AB34"/><path d="M554.804 197.871H369.337a1.474 1.474 0 010-2.949h185.467c.817 0 1.474.658 1.474 1.475 0 .814-.657 1.474-1.474 1.474m-28.772 43.527H369.337a1.474 1.474 0 010-2.948h156.695a1.47 1.47 0 011.474 1.474c0 .814-.657 1.474-1.474 1.474zm-42.672-20.382H369.337a1.475 1.475 0 010-2.949H483.36a1.475 1.475 0 010 2.949zm71.445 0h-57.224a1.473 1.473 0 01-1.474-1.475c0-.814.657-1.474 1.474-1.474h57.224a1.474 1.474 0 110 2.949m-230.154 14.687a4.408 4.408 0 01-3.128-1.294l-11.108-11.112a4.422 4.422 0 016.253-6.254l7.983 7.982 21.444-21.452a4.42 4.42 0 016.253 0 4.426 4.426 0 010 6.257l-24.572 24.579a4.406 4.406 0 01-3.125 1.294" fill="#fff"/><path d="M1705.97 423.044h265.56c27.32 0 49.46 22.149 49.46 49.467 0 27.321-22.14 49.466-49.46 49.466h-218.85l-30.11 27.445v-27.445h-16.6c-27.31 0-49.45-22.145-49.45-49.466 0-27.318 22.14-49.467 49.45-49.467z" fill="#F09825"/><path d="M1965.59 465.242a15.24 15.24 0 005.53-11.763c0-8.442-6.85-15.283-15.29-15.283-8.43 0-15.28 6.841-15.28 15.283a15.24 15.24 0 005.53 11.763c-10.84 3.981-18.58 14.367-18.58 26.587 0 15.655 56.67 15.655 56.67 0 0-12.22-7.74-22.606-18.58-26.587z" fill="#5460B6"/><path d="M1988.86 473.747h-7.32v-7.322c0-.793-.64-1.436-1.44-1.436h-6.67c-.8 0-1.44.643-1.44 1.436v7.322h-7.32c-.79 0-1.44.643-1.44 1.439v6.679c0 .794.65 1.44 1.44 1.44h7.32v7.318c0 .794.64 1.439 1.44 1.439h6.67c.8 0 1.44-.645 1.44-1.439v-7.318h7.32c.8 0 1.44-.646 1.44-1.44v-6.679c0-.796-.64-1.439-1.44-1.439zm-84.56-21.208h-185.46a1.474 1.474 0 110-2.949h185.46a1.474 1.474 0 110 2.949zm-28.77 43.535h-156.69a1.475 1.475 0 110-2.949h156.69c.81 0 1.47.658 1.47 1.475 0 .814-.66 1.474-1.47 1.474m-42.67-20.39h-114.02a1.474 1.474 0 110-2.949h114.02c.81 0 1.47.66 1.47 1.474 0 .817-.66 1.475-1.47 1.475m71.44 0h-57.23c-.81 0-1.47-.658-1.47-1.475 0-.814.66-1.474 1.47-1.474h57.23a1.475 1.475 0 110 2.949z" fill="#fff"/><path d="M1372.17 137.871h182.93c18.82 0 34.07 15.257 34.07 34.077 0 18.822-15.25 34.079-34.07 34.079h-182.93c-18.81 0-34.07-15.257-34.07-34.079 0-18.82 15.26-34.077 34.07-34.077z" fill="#324A8B"/><path d="M1534.46 160.742h-141.84a1.474 1.474 0 010-2.949h141.84a1.474 1.474 0 010 2.949zm-22.01 25.778h-119.83c-.81 0-1.47-.658-1.47-1.475 0-.814.66-1.474 1.47-1.474h119.83a1.475 1.475 0 110 2.949zm-32.63-12.075h-87.2c-.81 0-1.47-.66-1.47-1.474 0-.817.66-1.474 1.47-1.474h87.2c.81 0 1.47.657 1.47 1.474 0 .814-.66 1.474-1.47 1.474zm54.64 0h-43.77c-.81 0-1.47-.66-1.47-1.474 0-.817.66-1.474 1.47-1.474h43.77c.81 0 1.47.657 1.47 1.474 0 .814-.66 1.474-1.47 1.474z" fill="#fff"/><path d="M132.305 620.977h162.663c16.73 0 30.291 13.567 30.291 30.302s-13.561 30.299-30.291 30.299H132.305c-16.731 0-30.292-13.564-30.292-30.299s13.561-30.302 30.292-30.302" fill="#EE9725"/><path d="M276.605 641.477H150.489a1.475 1.475 0 010-2.949h126.116a1.474 1.474 0 010 2.949zm-19.566 22.925h-106.55a1.474 1.474 0 010-2.948h106.55a1.473 1.473 0 110 2.948m-29.016-10.738h-77.534a1.475 1.475 0 010-2.949h77.534a1.475 1.475 0 010 2.949zm48.582 0h-38.912a1.474 1.474 0 010-2.949h38.912a1.474 1.474 0 010 2.949zM1334.55 784.828h-289.01a1.474 1.474 0 010-2.949h289.01a1.474 1.474 0 010 2.949zm0 67.828h-244.17a1.475 1.475 0 110-2.949h244.17c.81 0 1.47.658 1.47 1.475 0 .814-.66 1.474-1.47 1.474zm0-31.773h-177.68c-.81 0-1.47-.658-1.47-1.475 0-.814.66-1.474 1.47-1.474h177.68c.81 0 1.47.66 1.47 1.474 0 .817-.66 1.475-1.47 1.475zm-199.84 0h-89.17c-.81 0-1.47-.658-1.47-1.475 0-.814.66-1.474 1.47-1.474h89.17a1.475 1.475 0 110 2.949zm-127.03 71.539H718.675a1.475 1.475 0 010-2.949h289.005a1.474 1.474 0 110 2.949zm-44.834 67.836H718.675a1.475 1.475 0 010-2.949h244.171a1.475 1.475 0 010 2.949m-66.495-31.766H718.675a1.474 1.474 0 010-2.949h177.676a1.474 1.474 0 110 2.949zm111.329 0h-89.169c-.817 0-1.474-.66-1.474-1.474 0-.817.657-1.475 1.474-1.475h89.169a1.474 1.474 0 110 2.949z" fill="#fff"/><path d="M1225.58 618.453l.09-.337 42.69-148.523-.19-.138c1.92-3.76 6.9-11.819 17.07-18.923 17.6-12.276 19.7-32.614 19.7-32.614 9.4-9.097 19.99-16.858 29.58-25.743 1-.929 2.05-1.943 2.34-3.276.33-1.486-.37-3.008-1.22-4.267-4.95-7.34-14.05-8.401-21.62-5.01-4.43 1.984-8.39 4.809-12.11 7.915-1.76 1.471-7.78 5.52-9.6 8.215l33.95-72.512c3.01-6.44 1.04-13.788-4.39-16.327-2.71-1.274-5.79-1.109-8.57.174-1.77.814-3.37 2.123-4.73 3.763.11-.534.17-.847.17-.847-39.76-33.445-88.83 80.394-88.83 80.394l-13.92 32.864-118.1 219.03c-16.7 31.779-3.83 71.075 28.44 86.81.46.23.93.428 1.4.64a64.042 64.042 0 0032.16 8.611h232.42l50.08-119.065-206.81-.834" fill="#FAB892"/><path d="M1181.65 738.297h4.12v-.127h-4.12v.127zm6.07.055c-.68-.018-1.25-.039-1.8-.054l1.8.054zm-1.8-.054c-.03-.002-.07-.002-.11-.002.04 0 .08 0 .11.002z" fill="#F9AA8B"/><path d="M1271.3 618.641l-.1-.003h.1v.003zm-9.1-.039l-36.62-.147.09-.336c16.77.014 22.86.368 36.53.483z" fill="#C4BCE4"/><path d="M1187.72 738.352s5.8-16.139 12.84-37.194a64.977 64.977 0 004.23-10.374l8.18-28.438c2.15-7.154 4.19-14.169 5.94-20.701l6.67-23.192 36.62.147c2.66.024 5.62.035 9 .035l.1.003-83.58 119.714" fill="#F9AA8B"/><path d="M1259.33 403.164c-.31 0-.61-.094-.88-.289a1.48 1.48 0 01-.31-2.061c14.83-20.126 34.78-9.251 34.97-9.141.71.401.96 1.294.57 2.005-.4.707-1.3.961-2.01.569-.72-.404-17.89-9.675-31.16 8.318-.29.39-.73.599-1.18.599m50.09-92.6c-6.13 7.723-11.83 15.847-16.88 24.292-2.52 4.229-4.8 8.593-6.71 13.069-1.88 4.444-3.4 9.221-3.16 13.727l.01.092c.04.811-.58 1.506-1.39 1.551a1.482 1.482 0 01-1.56-1.392v-.039c-.16-5.481 1.65-10.382 3.66-14.983 2.08-4.603 4.49-9.002 7.13-13.243 5.31-8.475 11.19-16.507 17.55-24.195a.87.87 0 011.23-.118c.37.304.43.85.13 1.224l-.01.015m-10.25-4.204c-3.89 2.677-7.38 6.225-10.51 9.908-3.12 3.724-5.87 7.761-8.34 11.954a104.877 104.877 0 00-6.38 13.134c-.96 2.238-1.68 4.577-2.53 6.853l-2.12 7.004-.02.082a1.478 1.478 0 01-2.83-.852l.01-.026 2.3-7.119c.92-2.321 1.7-4.691 2.73-6.965 1.95-4.594 4.22-9.05 6.78-13.332 2.62-4.252 5.51-8.339 8.8-12.104 3.33-3.751 6.86-7.26 11.16-10.103a.906.906 0 011.26.259c.28.416.17.976-.24 1.257l-.07.05zm-16.07 1.129c-5.65 5.909-10.9 12.294-15.44 19.079-2.24 3.406-4.4 6.888-6.08 10.56-1.71 3.653-3.12 7.451-3.73 11.326v.035a1.477 1.477 0 01-1.69 1.227c-.8-.13-1.35-.884-1.22-1.69v-.035c.79-4.285 2.4-8.254 4.26-12.025 1.87-3.787 4.16-7.296 6.53-10.719 4.82-6.818 10.26-13.102 16.16-18.985a.855.855 0 011.21.003.86.86 0 01.02 1.2l-.02.024" fill="#F5786C"/><path d="M1762 834.712l-57.01-155.455c-6.79-34.109-39.23-59.97-78.26-59.97l-159.26-1.268-179.42.687v119.645h55.68L1315 1050.41l395.09 2.24-2.21-211.314 54.12-6.624z" fill="#324A8B"/><path d="M1343.73 738.352h-55.68V618.706l168.38-.643v1.926c-63.19 6.219-112.41 55.405-112.41 115.204l-.29 3.159" fill="#444885"/><path d="M1251.07 529.727l17.19-59.808c-1.34 4.673-16.61 57.823-17.18 59.793 0 .006 0 .012-.01.015zm17.19-59.808l.01-.024c-.01.009-.01.015-.01.024zm.02-.062v-.012.012zm.03-.089v-.018.018zm.05-.177l-.19-.138c0-.006.01-.009.01-.012l.18.15" fill="#D3C7E8"/><path d="M1251.05 529.75c-.8-.003-10.64-83.537-10.64-83.537l27.77 23.228c0 .003-.01.006-.01.011l.19.139s-.02.044-.04.127c-.01.012-.01.023-.01.032v.018c-.01.012-.01.021-.02.032 0 .015 0 .03-.01.045v.011c0 .006 0 .012-.01.021v.018l-.01.023-17.19 59.808c0 .015-.01.024-.02.024" fill="#F9AA8B"/><path d="M1475.6 879.376l-15.08-76.014-11.64-58.649c-1.36-6.898-8.13-11.424-15.02-10.056l-58.24 11.56c-6.9 1.368-11.42 8.132-10.05 15.033l11.71 59.026 9.28 46.821 5.72 28.816c1.37 6.901 8.13 11.424 15.03 10.053l34.39-6.824 23.85-4.733c6.89-1.368 11.42-8.135 10.05-15.033" fill="#1C1B21"/><path d="M1785.6 949.433l-26.26-114.393-119.41 14.614 6.56 29.099-.61-.15-129.8-32.145-.11.159c-3.59-1.796-10.32-6.078-16.24-14.921-10.88-16.272-29.16-16.72-29.16-16.72-3.52-3.692-6.8-7.635-10.05-11.615l3.04 15.33-.76.404a49.158 49.158 0 01-26.87 5.586c-17.23-1.345-45.38-3.545-57.08-4.456-3.57-.28-7 1.622-8.54 4.857-16.7 35.123 55.03 67.262 71.4 74.059h-.01l.58.236.67.274.62.254.52.209.49.192.19.074.25.097 28.07 10.527 222.23 109.416c2.07.99 4.15 1.85 6.26 2.6 10.78 4.94 23.18 6.54 35.62 3.68 34.7-7.97 56.37-42.563 48.4-77.267" fill="#FAB892"/><path d="M1646.49 878.75l-.61-.15c-3.56-15.679-1.91-10.71-4.6-22.948l5.21 23.098" fill="#6461B6"/><path d="M1777.13 912.555c-.54-.189-82.53-28.981-121.92-31.641l-9.33-2.309.61.15-5.21-23.098c-.36-1.636-.8-3.583-1.33-5.927l.11-.012 137.08 62.837h-.01" fill="#F9AA8B"/><path d="M1628.84 851.125c-.68 0-1.29-.484-1.44-1.174l-17.14-83.062a1.473 1.473 0 011.14-1.743c.11-.023.21-.035.31-.035.67 0 1.29.487 1.43 1.18l16.88 81.726 57.73-7.351c.07-.009.13-.015.2-.015.72 0 1.36.551 1.45 1.291.1.808-.47 1.546-1.27 1.652l-32.67 4.158-15.53 1.899.01.073-10.91 1.389-.19.012" fill="#424AA7"/><path d="M1639.94 849.727l-.01-.074c.01.026.01.05.02.074h-.01zm.12-.012l-.13-.062 15.53-1.899-15.4 1.961z" fill="#AB806B"/><path d="M1639.95 849.727c-.01-.024-.01-.047-.02-.074l.13.062-.11.012" fill="#AB7667"/><path d="M1778.3 918.453c-.02-.118-.1-.492-.23-1.174.11.564.2 1.012.23 1.174z" fill="#F9AA8B"/><path d="M1777.15 912.625c-.01-.026-.01-.05-.01-.073 0 .006 0 .029.01.073z" fill="#FDE9EC"/><path d="M1777.76 915.703c-.17-.823-.36-1.796-.61-3.075.07.339.34 1.728.61 3.075zm.31 1.578c-.09-.427-.18-.914-.28-1.424.11.575.21 1.056.28 1.424zm-.28-1.424l-.03-.153.03.153z" fill="#F9AA8B"/><path d="M1615.32 311.318c-3.63-25.044-26.47-42.864-51.79-40.001a46.803 46.803 0 00-18.41 6.134c-8.15-13.335-23.49-21.503-40.03-19.63-9.46 1.067-17.78 5.269-24.13 11.415-9.13-4.58-19.64-6.685-30.54-5.45-29.99 3.391-51.54 30.45-48.15 60.436 1.58 14.025 8.36 26.189 18.18 34.835l-11.11 59.324c-3.18 17.029 8.04 33.419 25.06 36.61l131.55 24.631c17.02 3.191 33.41-8.033 36.6-25.062l21.55-115.16c1.99-10.628-1.63-21.008-8.78-28.082z" fill="#1C1B21"/><path d="M1423.59 343.758c-.49 0-.97-.242-1.25-.687-23.5-37.197 8.87-61.047 9.2-61.283a1.465 1.465 0 012.05.339c.48.658.32 1.578-.34 2.053-1.25.905-30.41 22.502-8.42 57.316.44.69.23 1.601-.45 2.035-.25.153-.52.227-.79.227z" fill="#FCF2E3"/><path d="M1594.04 427.612l-2.87-.536-29.04-62.436a47.017 47.017 0 01-19.65-7.599c-5.57 6.033-13.23 10.191-22.03 11.188-10.59 1.197-20.6-2.427-27.89-9.091-8.1 7.118-18.35 11.937-29.87 13.24-13.18 1.492-25.78-1.843-36.07-8.59l-20.22 108.086c-2.8 14.93.27 29.571 7.49 41.661 7.19 17.784 22.65 31.753 42.54 36.332v71.38c0 24.796 20.28 45.081 45.07 45.081h14.21c24.79 0 45.07-20.285 45.07-45.081v-81.049c7.31-8.032 12.6-18.085 14.75-29.547l3.69-19.736 2.88.539c17.07 3.197 33.66-8.162 36.86-25.242l.32-1.731c3.19-17.079-8.16-33.669-25.24-36.869" fill="#FAB892"/><path d="M1456.43 549.949c-19.87-4.568-35.29-18.563-42.5-36.309 7.21 17.738 22.65 31.659 42.5 36.23v.079zm104.35-9.687v-.062c7.31-8.032 12.6-18.085 14.75-29.547l3.69-19.736-3.69 19.736a60.257 60.257 0 01-14.75 29.609z" fill="#D9B7D9"/><path d="M1515.69 576.445h-14.4c-17.83 0-33.28-10.521-40.57-25.64l-1.83-.345c-.83-.153-1.65-.324-2.46-.51v-.079c-19.85-4.571-35.29-18.492-42.5-36.23-.01-.035-.03-.067-.04-.103 8.49 14.208 22.75 24.876 40.3 28.161l45.9 8.599c3.72.696 7.42 1.032 11.07 1.032 28.23-.003 53.35-20.075 58.73-48.835l2.64-14.081 6.69 2.504-3.7 19.736c-2.14 11.462-7.43 21.515-14.74 29.547v.062c-.41.451-.82.894-1.25 1.33-4.66 19.902-22.57 34.852-43.84 34.852" fill="#F89F88"/><path d="M1596.57 469.949c-.32 0-.64-.1-.9-.309l-11.47-8.906a1.47 1.47 0 01-.57-1.094c-.02-.427.15-.846.46-1.144l14.14-13.352a1.47 1.47 0 012.08.059c.56.592.54 1.524-.05 2.085l-12.9 12.172 10.12 7.85c.64.501.75 1.427.25 2.07-.28.375-.72.569-1.16.569" fill="#F5786C"/><path d="M1523.63 415.083c-2.22-.065-4.5-1.407-6.77-2.577a129.85 129.85 0 00-6.62-3.356c-2.05-.953-4.43-1.967-6.83-2.916-2.36-.994-4.87-1.885-6.32-3.527-1.41-1.56-1.13-4.019 2.17-5.665 3.14-1.636 9.53-2.026 16.31 1.115 6.75 3.17 10.48 8.28 11.17 11.701.78 3.544-.99 5.31-3.11 5.225m-93.8-8.085c1.91 1.052 4.54 1.194 7.09 1.465 2.57.221 5.15.502 7.37.814 2.24.313 4.8.749 7.33 1.242 2.52.442 5.11 1.029 7.2.536 2.02-.451 3.08-2.403 1.15-5.258-1.8-2.766-7.01-6.23-14.4-7.283-7.4-1.017-13.24.899-15.63 3.078-2.52 2.233-1.96 4.412-.11 5.406m72.12 33.292l.2.039a3.655 3.655 0 004.25-2.917l.88-4.671c.37-1.973-.95-3.889-2.92-4.258l-.2-.038c-1.97-.369-3.89.943-4.25 2.916l-.88 4.671a3.656 3.656 0 002.92 4.258zm-63.54-10.325l.19.035a3.664 3.664 0 004.26-2.913l.87-4.671a3.657 3.657 0 00-2.91-4.258l-.2-.038a3.662 3.662 0 00-4.26 2.913l-.87 4.674a3.658 3.658 0 002.92 4.258" fill="#1C1B21"/><path d="M1518.12 458.688c-.17 0-.34-.009-.51-.027l-13.04-1.469c-2.47-.277-4.27-2.527-3.99-4.995l.03-.251a4.535 4.535 0 014.99-3.986l13.05 1.468a4.526 4.526 0 013.98 4.995l-.02.251a4.539 4.539 0 01-4.49 4.014m-86.04-13.559c-.17 0-.33-.009-.5-.03l-13.05-1.468a4.523 4.523 0 01-3.98-4.992l.02-.251a4.55 4.55 0 014.5-4.016c.16 0 .33.008.5.029l13.05 1.466a4.53 4.53 0 013.98 4.998l-.03.251c-.26 2.3-2.23 4.013-4.49 4.013z" fill="#F9AA8B"/><path d="M1456.55 510.391a1.473 1.473 0 01-.87-2.666c6.18-4.515 13.1-1.982 15.89-.015.67.469.83 1.383.37 2.05-.47.663-1.39.822-2.06.365-.26-.183-6.47-4.396-12.46-.017-.26.191-.57.283-.87.283" fill="#F5786C"/><path d="M1466.52 468.477l34.47-4.927-3.77 11.981a18.427 18.427 0 01-17.57 12.883c-6.25 0-11.5-4.715-12.16-10.937l-.97-9" fill="#fff"/><path d="M1475.43 456.25l-.37-.047-10.69-2.784a14.93 14.93 0 01-10.03-8.634c-1.85-4.308-1.6-9.13.67-13.223l16.28-29.311a1.47 1.47 0 012-.572c.72.395.97 1.292.58 2.005l-16.28 29.309c-1.83 3.293-2.02 7.168-.54 10.63a11.991 11.991 0 008.06 6.942l10.69 2.783a1.482 1.482 0 011.06 1.799 1.472 1.472 0 01-1.43 1.103" fill="#F5786C"/><path d="M974.8 668.26L856.703 449.227l-13.926-32.864s-49.061-113.839-88.827-80.394l.166.846c-1.351-1.639-2.96-2.945-4.723-3.762-2.783-1.283-5.864-1.445-8.576-.174-5.427 2.542-7.399 9.89-4.384 16.327l33.95 72.512c-1.825-2.695-7.839-6.741-9.602-8.213-3.715-3.105-7.68-5.93-12.113-7.917-7.571-3.388-16.668-2.33-21.621 5.01-.849 1.262-1.542 2.78-1.215 4.267.295 1.333 1.336 2.35 2.338 3.276 9.593 8.888 20.182 16.649 29.577 25.743 0 0 2.102 20.338 19.696 32.614 10.182 7.104 15.156 15.166 17.075 18.922l-.183.139 42.779 148.862-62.475.835V764.32H912.8a64.128 64.128 0 0032.201-8.631c.454-.209.911-.401 1.365-.619 32.263-15.735 45.134-55.031 28.434-86.81" fill="#FAB892"/><path d="M791.576 645.031h.068-.068zm15.141-.203c9.575-.275 15.598-.738 30.299-.743l.098.339-30.397.404z" fill="#C4BCE4"/><path d="M874.972 764.32l-83.396-119.291h.068c6.291 0 11.001-.086 15.073-.204l30.396-.404-.097-.339.336-.003c5.516 33.844 37.62 120.241 37.62 120.241zm0 0s.023 0 .067-.003c-.02 0-.044.003-.067.003zm.067-.003h.003-.003zm.003 0h.015-.015zm.015 0h.003-.003zm.003 0c.018 0 .038-.003.062-.003-.021 0-.041.003-.062.003zm.062-.003h.006-.006zm.006 0h.021-.021zm.021 0h.002-.002zm.002 0c.021 0 .045-.003.071-.003-.023 0-.047.003-.071.003zm.071-.003h.03-.03zm.03 0h.012-.012zm.012 0zm.002 0c.012 0 .021 0 .033-.002-.009.002-.021.002-.033.002zm.033-.002h.003-.003zm.003 0c.044 0 .094-.003.147-.003-.05 0-.097.003-.147.003zm.147-.003h.003-.003zm.003 0h.018-.018zm.018 0h.003-.003zm.003 0c.006 0 .012-.003.015-.003-.003 0-.009.003-.015.003zm.015-.003h.008-.008zm.008 0h.015-.015zm.015 0h.006-.006zm.006 0h.015-.015zm.015 0h.009-.009zm.009 0c.041-.003.085-.003.129-.003-.044 0-.085 0-.129.003zm.129-.003h.003-.003zm.003 0c.009-.003.018-.003.027-.003-.009 0-.018 0-.027.003zm.027-.003h.056-.056zm.056 0h.003-.003zm.003 0h.015-.015zm.015 0c.011-.003.026-.003.038-.003-.012 0-.027 0-.038.003zm.038-.003c.118-.003.236-.006.348-.012-.121.006-.239.009-.348.012zm.348-.012zm.003 0c.091 0 .179-.003.265-.006-.091.003-.18.006-.265.006zm.265-.006h.015-.015zm.015 0h.006-.006zm.006 0c.017-.003.035-.003.053-.003-.018 0-.036 0-.053.003zm.053-.003h.011-.011zm.011 0l.056-.003-.056.003zm.056-.003c.051 0 .098-.003.145-.003-.05 0-.097.003-.145.003zm.145-.003h.015-.015zm.015 0c.038-.003.079-.003.118-.006-.039.003-.08.003-.118.006zm.118-.006h.005-.005zm.005 0h.027-.027zm.027 0h.006-.006zm.006 0l.327-.009-.327.009zm.327-.009l.024-.002-.024.002zm.024-.002h.014-.014zm.014 0h.018-.018zm.018 0c.03 0 .062-.003.094-.003-.032 0-.064.003-.094.003zm.094-.003c.145-.003.286-.009.422-.012-.141.003-.283.009-.422.012zm.422-.012h.003-.003zm.003 0c.012 0 .021-.003.029-.003-.008 0-.017.003-.029.003zm.029-.003h.012-.012zm.012 0l3.234-.097-3.234.097z" fill="#F9AA8B"/><path d="M803.365 429.129c-.451 0-.9-.206-1.188-.599-13.263-17.993-30.436-8.722-31.158-8.318a1.474 1.474 0 01-1.441-2.572c.2-.112 20.14-10.978 34.972 9.139a1.474 1.474 0 01-1.185 2.35m-48.798-93.784c3.578 3.574 6.83 7.369 9.931 11.323 3.078 3.961 5.961 8.086 8.541 12.412 2.541 4.349 4.805 8.882 6.606 13.635 1.704 4.786 2.913 9.784 3.317 14.936a1.473 1.473 0 01-1.353 1.586 1.47 1.47 0 01-1.586-1.353l-.003-.021-.003-.065c-.286-4.8-1.324-9.563-2.869-14.192-1.639-4.6-3.747-9.047-6.143-13.344-2.435-4.278-5.189-8.386-8.14-12.346-2.963-3.943-6.132-7.785-9.531-11.318l-.02-.021a.88.88 0 011.253-1.232m9.967-5.674c4.805 2.488 8.331 6.189 11.627 10.082 3.237 3.93 6.055 8.182 8.472 12.632 2.503 4.412 4.567 9.035 6.533 13.695l2.68 7.089 2.385 7.189a1.478 1.478 0 01-.938 1.863 1.473 1.473 0 01-1.863-.934l-.006-.021-.021-.065-2.211-7.121-2.508-7.016c-1.843-4.606-3.786-9.182-6.147-13.535-2.285-4.396-4.952-8.584-8.012-12.444-3.043-3.792-6.613-7.513-10.705-9.725l-.138-.076a.914.914 0 01-.369-1.236.915.915 0 011.221-.377zm16.196 2.499c3.308 2.672 6.235 5.63 9 8.779a84.396 84.396 0 017.574 10.008c2.288 3.509 4.354 7.178 6.067 11.017 1.81 3.801 3.136 7.809 4.348 11.846a1.471 1.471 0 01-.987 1.837 1.479 1.479 0 01-1.837-.988l-.006-.027-.021-.076c-1.073-3.905-2.249-7.806-3.912-11.521-1.565-3.757-3.481-7.367-5.621-10.837a82.209 82.209 0 00-7.143-9.941c-2.609-3.132-5.457-6.139-8.52-8.74l-.038-.033a.863.863 0 01-.101-1.212.865.865 0 011.197-.112" fill="#F5786C"/><path d="M794.589 496.445c-.908-2.102-1.846-3.998-2.801-5.602a42.859 42.859 0 012.73 4.579l-.183.139.254.884zm-5.551-9.28c-.006-.008-.015-.014-.021-.02h.003l.018.02z" fill="#D3C7E8"/><path d="M806.434 537.656s-5.218-25.935-11.845-41.212l-.254-.885.183-.139a42.788 42.788 0 00-2.73-4.579c-.905-1.519-1.825-2.772-2.75-3.677-.006-.009-.012-.015-.018-.021l45.635-5.635-28.221 56.148" fill="#F9AA8B"/><path d="M605.622 645.255l.006.05c-.705-.015-1.401-.05-2.111-.05H459.313c-31.311 0-58.014 19.662-68.482 47.313l-.015-.005-.218.598-.106.289-61.33 167.231 56.934 6.965v185.714h309.87l23.171-289.041h53.905V644.671l-167.42.584z" fill="#fff"/><path d="M774.64 764.32h-53.901 52.303V644.678l1.598-.006V764.32z" fill="#B2C2E8"/><path d="M773.042 764.32h-52.304l.254-3.158c0-62.37-49.255-113.211-110.975-115.782l-.003-.021 163.028-.681V764.32" fill="#F6F6F7"/><path d="M717.142 772.183l-58.238-11.556c-6.895-1.371-13.658 3.155-15.029 10.053l-11.633 58.652-15.076 76.011c-1.371 6.9 3.155 13.665 10.05 15.036l23.84 4.73 34.401 6.827c6.898 1.368 13.661-3.159 15.028-10.056l5.714-28.816 9.289-46.818 11.709-59.029c1.365-6.898-3.157-13.662-10.055-15.034z" fill="#1C1B21"/><path d="M723.247 850.457c-.725-1.527-1.878-2.739-3.261-3.582-.247-.366-.451-.732-.716-1.1 0 0-.525.065-1.394.177a8.834 8.834 0 00-3.17-.354l-57.073 4.455a49.164 49.164 0 01-26.871-5.582l-1.376-.734 2.856-14.405c-3.081 3.777-6.208 7.508-9.528 11.034-1.683.095-11.291.944-20.279 7.65a36.67 36.67 0 00-9.41 9.645c-3.508 5.246-7.296 8.867-10.551 11.339-1.904 1.374-3.599 2.35-4.879 2.993l-.112-.16-129.812 32.145-.595.148 6.588-29.235-119.441-14.475-26.261 114.393c-7.968 34.701 13.7 69.301 48.395 77.271 12.446 2.86 24.848 1.25 35.623-3.68a66.822 66.822 0 006.259-2.6l219.723-108.187 29.784-11.168s1.205-.46 3.31-1.335l-.436-.086c13.59-5.538 89.79-38.482 72.627-74.567" fill="#FAB892"/><path d="M314.48 944.328c.027-.151.086-.446.18-.908l-.18.908zm.18-.908c.015-.088.036-.181.053-.277-.017.096-.038.191-.053.277zm.967-4.897l.743-.342-.029.13-.714.212" fill="#D3C7E8"/><path d="M316.341 938.305l.029-.13 136.286-62.603.18.023c-4.051 17.655-3.281 16.617-5.964 28.969l-93.531 23.163a64.031 64.031 0 00-5.348 1.717c-16.249 4.311-28.628 7.958-31.652 8.861" fill="#F9AA8B"/><path d="M314.714 943.141l.333-1.687-.333 1.687zm.333-1.68l.58-2.937a2191.51 2191.51 0 01-.58 2.937z" fill="#D3C7E8"/><path d="M463.917 876.961l-.182-.012-10.251-1.265.18-.79-17.175-2.082a1.48 1.48 0 011.551-2.005l24.639 3.04 13.72-87.562a1.475 1.475 0 011.468-1.245c.071 0 .145.006.218.015a1.476 1.476 0 011.227 1.684l-13.938 88.975a1.478 1.478 0 01-1.457 1.247" fill="#ADACB0"/><path d="M453.484 875.68l-.648-.08.026-.118-.206.094-14.976-1.848a1.465 1.465 0 01-1.191-.921l17.175 2.082-.18.791z" fill="#AB806B"/><path d="M452.835 875.602l-.179-.024.206-.094-.027.118" fill="#AB7667"/><path d="M494.358 892.32l28.337-6.921-27.906 6.91-.431.011z" fill="#FEF6F8"/><path d="M494.789 892.312l27.906-6.909 56.908-13.897c1.896 10.17-13.234 19.485-24.182 19.485-.767 0-1.516-.047-2.235-.141l-58.397 1.462" fill="#F9B08E"/><path d="M679.953 607.592l-20.008-136.203a150.536 150.536 0 00-12.603-41.985l10.861-1.746s-7.627-110.551-131.581-84.156a150.748 150.748 0 00-37.469.817c-60.219 8.849-101.866 64.853-93.016 125.089l11.663 79.397c8.847 60.235 64.835 101.89 125.054 93.041l136.548-20.07c6.831-1.005 11.553-7.354 10.551-14.184" fill="#1C1B21"/><path d="M597.721 423.32a1.477 1.477 0 01-1.459-1.274 1.478 1.478 0 011.262-1.663l39.86-5.446c.318-.041.61-.215.799-.481.106-.144.271-.448.203-.84-6.444-35.94-39.544-52.522-39.878-52.684a1.477 1.477 0 01-.678-1.973 1.475 1.475 0 011.973-.675c.345.168 34.768 17.366 41.484 54.81a4.013 4.013 0 01-.72 3.096 4.153 4.153 0 01-2.785 1.672l-39.86 5.444-.201.014" fill="#FCF2E3"/><path d="M636.119 431.2l-109.111 17.537-26.482-39.178c5.2 43.713-27.022 71.948-27.022 71.948s-.33-.451-.902-1.279l-.905.168c-17.074 3.196-28.43 19.789-25.235 36.866 3.196 17.082 19.782 28.438 36.856 25.242l2.088-.39c3.729 16.378 12.139 30.565 23.61 41.34v69.949c0 24.794 20.282 45.081 45.069 45.081 24.79 0 45.069-20.287 45.069-45.081v-55.24c17.953-8.266 32.009-22.7 40.034-40.154l.05-.08c9.752-16.342 13.832-36.161 10.056-56.34L636.119 431.2" fill="#FAB892"/><path d="M509.016 583.461c-11.335-10.645-19.743-24.599-23.54-40.729-.009-.044.003-.089.039-.139 3.782 16.177 12.142 30.193 23.501 40.865v.003zm119.232-7.885a82.197 82.197 0 0010.928-17.54c.021-.032.041-.068.062-.103a82.203 82.203 0 01-10.99 17.643z" fill="#5E343B"/><path d="M554.085 624.586c-23.386 0-42.74-18.065-44.857-40.93l-.212-.197v-.003c-11.359-10.672-19.719-24.688-23.501-40.865.406-.581 3.85-1.471 5.866-1.471.773 0 1.336.129 1.442.457 10.831 33.371 42.097 55.862 76.848 55.859 4.935 0 9.947-.454 14.976-1.398 23.711-4.441 43.041-18.81 54.529-38.004a82.197 82.197 0 01-10.928 17.54c-8.871 10.884-20.565 19.536-34.238 24.723-7.55 14.396-22.626 24.289-39.925 24.289" fill="#F89F88"/><path d="M468.396 521.781a1.47 1.47 0 01-1.165-.569 1.477 1.477 0 01.26-2.07l9.805-7.608-12.515-11.81a1.477 1.477 0 01-.059-2.085 1.479 1.479 0 012.085-.059l13.761 12.993c.312.295.48.713.463 1.141-.024.43-.23.831-.569 1.094l-11.161 8.664a1.48 1.48 0 01-.905.309z" fill="#F5786C"/><path d="M546.904 468.022c1.314-.036 2.668-.835 4.021-1.528a76.633 76.633 0 013.926-1.993 76.43 76.43 0 014.057-1.731c1.4-.59 2.889-1.118 3.747-2.094.837-.926.672-2.385-1.286-3.364-1.863-.971-5.66-1.201-9.684.663-4.006 1.881-6.223 4.916-6.633 6.948-.457 2.102.59 3.149 1.852 3.099m78.201-13.598c-1.273.325-2.794-.065-4.286-.359a73.66 73.66 0 00-4.328-.826 74.911 74.911 0 00-4.375-.543c-1.509-.18-3.083-.277-4.18-.976-1.058-.66-1.306-2.108.304-3.588 1.524-1.448 5.109-2.719 9.489-2.041 4.375.699 7.341 3.002 8.296 4.839 1.023 1.896.307 3.194-.92 3.494" fill="#1C1B21"/><path d="M580.927 529.035c-12.096 0-20.165-9.492-20.265-9.616a1.474 1.474 0 012.264-1.887c.472.56 11.657 13.629 27.284 6.414a1.47 1.47 0 011.957.719c.342.74.018 1.616-.722 1.958-3.744 1.728-7.278 2.412-10.518 2.412m8.799-20.582a1.474 1.474 0 01-.283-2.919l10.365-2.041c6.445-1.271 10.652-7.543 9.384-13.986-.457-2.33-2.724-3.842-5.05-3.391-5.451 1.064-10.748-2.489-11.821-7.935l-2.503-12.722a1.473 1.473 0 011.161-1.731 1.478 1.478 0 011.734 1.162l2.503 12.719c.754 3.854 4.513 6.369 8.357 5.611a7.232 7.232 0 015.439 1.094 7.202 7.202 0 013.075 4.621c1.58 8.038-3.67 15.868-11.71 17.451l-10.365 2.041-.286.026" fill="#F5786C"/><path d="M560.358 492.907a3.66 3.66 0 01-4.257-2.917l-.813-4.349a3.657 3.657 0 012.912-4.258 3.656 3.656 0 014.257 2.913l.817 4.353a3.663 3.663 0 01-2.916 4.258m61.82-10.048a3.656 3.656 0 01-4.257-2.914l-.814-4.352a3.658 3.658 0 012.913-4.258 3.66 3.66 0 014.257 2.916l.813 4.35a3.66 3.66 0 01-2.912 4.258" fill="#1C1B21"/><path d="M544.831 510.773c-2.264 0-4.233-1.713-4.49-4.013-.277-2.471 1.516-4.718 3.983-4.995l12.45-1.401c.168-.018.339-.029.504-.029a4.535 4.535 0 014.49 4.016c.277 2.468-1.516 4.715-3.986 4.995l-12.447 1.398a4.09 4.09 0 01-.504.029m83.703-13.187c-2.264 0-4.234-1.716-4.493-4.016a4.533 4.533 0 013.986-4.996l12.449-1.397c.168-.021.336-.03.504-.03 2.261 0 4.23 1.713 4.487 4.013a4.529 4.529 0 01-3.983 4.996l-12.446 1.4c-.171.018-.339.03-.504.03" fill="#F9AA8B"/><path d="M604.617 561.125c-.301 0-.605-.094-.867-.286-5.802-4.243-11.824-.156-12.078.018a1.473 1.473 0 01-1.692-2.415c2.73-1.92 9.484-4.391 15.509.017.658.481.799 1.404.322 2.061a1.472 1.472 0 01-1.194.605z" fill="#F5786C"/><path d="M1058.62 297.992h-26.85l-52.278-85.757v85.757h-26.855V167.656h26.855l52.368 85.936v-85.936h26.76v130.336z" fill="#fff"/><path stroke="#fff" stroke-width="24" d="M911.799 219.994l179.001-3m-179.001 44l179.001-3"/><g clip-path="url(#clip0)"><path d="M819.468 181.398C797.144 148.897 793 145.562 793 133.617c0-16.361 13.208-29.625 29.5-29.625s29.5 13.264 29.5 29.625c0 11.945-4.144 15.28-26.468 47.781-1.465 2.126-4.599 2.125-6.064 0zm3.032-35.437c6.789 0 12.292-5.527 12.292-12.344 0-6.817-5.503-12.344-12.292-12.344s-12.292 5.527-12.292 12.344c0 6.817 5.503 12.344 12.292 12.344z" fill="#fff"/></g><defs><clipPath id="clip0"><path fill="#fff" d="M793 103.992h59v79h-59z"/></clipPath></defs></svg>