<svg width="2021" height="1054" viewBox="0 0 2021 1054" fill="none" xmlns="http://www.w3.org/2000/svg">
<path d="M330.948 1041.17H244.084C199.912 980.346 168.653 943.12 165.319 823.434C161.972 703.296 297.698 545.354 316.285 493.791C334.616 442.951 276.541 348.441 282.256 294.799C294.868 176.407 400.577 87.1756 529.499 63.5526C556.623 58.5839 584.231 56.2691 612.031 56.2691C700.786 56.2691 791.325 79.9098 872.773 116.369C951.346 151.542 1027.37 199.526 1113.67 206.526C1121.43 207.154 1129.15 207.44 1136.86 207.44C1187.88 207.437 1237.73 194.946 1287.93 187.468C1319.02 182.838 1351.08 180.388 1383.31 180.388C1494.12 180.388 1606.77 209.357 1687.38 278.221C1754.17 335.274 1792.73 415.105 1800.75 494.803C1806.62 553.178 1798.69 617.606 1774.62 671.18C1763.39 696.172 1744.78 719.963 1728.69 743.878L1704.99 679.254C1699.66 652.449 1678.48 630.74 1650.72 622.669C1653.33 612.375 1655.83 601.954 1658.03 591.32C1669.4 536.316 1665.62 474.013 1651.33 419.953C1644.67 394.732 1635.04 370.15 1622.67 347.049L1624.1 339.397C1626.09 328.769 1622.47 318.39 1615.32 311.315C1611.95 288.046 1591.99 271.014 1568.87 271.014C1567.91 271.014 1566.95 271.043 1565.99 271.102C1552.64 258.063 1538.03 246.306 1522.24 236.138C1470.69 202.94 1410.33 188.715 1348.78 188.715C1289.96 188.715 1230.05 201.696 1175.64 223.517C1129 242.222 1083.83 267.11 1033.88 273.405C1024.92 274.535 1015.98 275.048 1007.08 275.048C943.581 275.051 881.393 248.859 819.154 232.334C774.931 220.592 728.719 213.824 682.874 213.824C628.572 213.824 574.783 223.311 525.36 245.265C422.015 291.169 348.533 394.788 357.121 508.916C361.009 560.629 380.908 611.661 373.865 663.036C366.719 715.138 335.777 758.725 319.395 807.799C303.768 854.615 298.066 916.799 308.328 973.204L307.963 974.803C302.308 999.433 311.58 1024.01 329.843 1039.05C330.208 1039.76 330.574 1040.47 330.948 1041.17" fill="#E5EDF9"/>
<path d="M98.9614 573.172C64.0613 573.172 29.6225 541.357 11.9979 506.829C-15.4991 452.957 5.86933 386.989 59.7245 359.483C81.4038 348.413 111.107 342.164 140.653 342.164C184.509 342.164 228.021 355.926 244.45 388.113C271.946 441.985 189.05 487.98 155.18 538.087C138.216 563.181 118.515 573.172 98.9614 573.172" fill="#DDE6F6"/>
<path d="M1847.57 827.406C1829.62 827.406 1812.19 822.255 1800.65 809.74C1774.31 781.184 1810.01 745.382 1818.04 712.438C1822.81 692.849 1834.16 685.303 1847.64 685.303C1865.79 685.303 1887.81 698.965 1902.93 715.345C1929.27 743.902 1931.41 784.781 1907.71 806.65C1894.4 818.937 1870.57 827.406 1847.57 827.406Z" fill="#DDE6F6"/>
<path d="M1737.94 208.008C1712.52 208.008 1689.2 171.109 1664.42 154.838C1624.13 128.381 1650.6 88.8962 1681.16 72.7603C1690.48 67.8446 1700.47 65.512 1710.32 65.512C1732.78 65.512 1754.49 77.6405 1765.7 98.8927C1781.83 129.46 1781.35 188.557 1750.78 204.696C1746.44 206.99 1742.15 208.008 1737.94 208.008" fill="#DDE6F6"/>
<path d="M332.567 1041.17H330.948C330.574 1040.47 330.208 1039.76 329.843 1039.05C330.73 1039.78 331.638 1040.49 332.567 1041.17ZM308.328 973.204C298.066 916.799 303.768 854.615 319.395 807.799C335.777 758.725 366.719 715.138 373.865 663.036C380.908 611.661 361.009 560.629 357.12 508.916C348.533 394.788 422.015 291.169 525.36 245.265C574.783 223.311 628.572 213.824 682.874 213.824C728.719 213.824 774.931 220.592 819.154 232.334C881.392 248.859 943.58 275.051 1007.08 275.048C1015.98 275.048 1024.92 274.535 1033.88 273.405C1083.83 267.11 1129 242.222 1175.64 223.517C1230.05 201.696 1289.96 188.715 1348.78 188.715C1410.33 188.715 1470.69 202.94 1522.24 236.138C1538.03 246.306 1552.64 258.063 1565.99 271.102C1565.17 271.152 1564.35 271.223 1563.53 271.315C1556.81 272.075 1550.6 274.243 1545.12 277.448C1537.75 265.388 1524.49 257.553 1509.78 257.553C1508.23 257.553 1506.67 257.638 1505.09 257.818C1495.63 258.885 1487.31 263.087 1480.96 269.233C1473.56 265.52 1465.25 263.435 1456.56 263.435C1454.53 263.435 1452.48 263.547 1450.42 263.783C1420.43 267.174 1398.88 294.233 1402.27 324.219C1403.85 338.244 1410.63 350.408 1420.45 359.054L1409.34 418.378C1407.97 425.706 1409.27 432.916 1412.55 439.005L1406.4 471.873C1403.6 486.803 1406.67 501.443 1413.89 513.534C1413.9 513.569 1413.92 513.601 1413.93 513.637C1421.14 531.383 1436.56 545.378 1456.43 549.946V618.06L1319.51 618.582C1294.03 602.93 1264.66 593.211 1234.19 588.496L1251.07 529.726C1251.08 529.723 1251.08 529.717 1251.08 529.711C1251.65 527.741 1266.92 474.591 1268.26 469.918C1268.26 469.909 1268.26 469.903 1268.27 469.894L1268.27 469.876L1268.28 469.856C1268.28 469.853 1268.28 469.847 1268.28 469.844L1268.29 469.8L1268.31 469.767C1268.31 469.761 1268.31 469.755 1268.31 469.749L1268.32 469.717L1268.36 469.59L1268.18 469.44C1270.1 465.677 1275.07 457.627 1285.24 450.529C1302.84 438.253 1304.94 417.915 1304.94 417.915C1314.34 408.818 1324.93 401.057 1334.52 392.172C1335.52 391.243 1336.57 390.229 1336.86 388.896C1337.19 387.41 1336.49 385.888 1335.64 384.629C1332.45 379.893 1327.53 377.773 1322.41 377.773C1319.59 377.773 1316.71 378.416 1314.02 379.619C1309.59 381.603 1305.63 384.428 1301.91 387.534C1300.15 389.005 1294.13 393.054 1292.31 395.749L1326.26 323.237C1329.27 316.797 1327.3 309.449 1321.87 306.91C1320.61 306.314 1319.26 306.034 1317.9 306.034C1316.35 306.034 1314.78 306.4 1313.3 307.084C1311.53 307.898 1309.93 309.207 1308.57 310.847C1308.68 310.313 1308.74 310 1308.74 310C1303.65 305.718 1298.4 303.849 1293.13 303.849C1257.21 303.849 1219.91 390.394 1219.91 390.394L1205.99 423.258L1114.33 593.249C1097.09 596.407 1079.82 599.388 1062.28 599.388C1058.33 599.388 1054.37 599.238 1050.4 598.905C1006.18 595.195 967.235 569.771 926.98 551.131C920.439 548.103 913.779 545.239 907.031 542.568L856.703 449.226L842.777 416.361C842.777 416.361 805.479 329.816 769.563 329.816C764.286 329.816 759.045 331.683 753.951 335.967C753.951 335.967 754.012 336.283 754.116 336.814C752.765 335.174 751.156 333.868 749.393 333.051C747.913 332.367 746.345 332.001 744.794 332.001C743.432 332.001 742.085 332.284 740.817 332.877C735.39 335.419 733.418 342.767 736.434 349.205L770.383 421.716C768.558 419.021 762.544 414.975 760.781 413.504C757.067 410.399 753.102 407.574 748.668 405.586C745.982 404.383 743.102 403.74 740.284 403.74C735.163 403.74 730.243 405.863 727.047 410.596C726.198 411.858 725.505 413.377 725.833 414.863C726.127 416.196 727.168 417.213 728.17 418.139C737.763 427.027 748.352 434.788 757.747 443.882C757.747 443.882 759.849 464.22 777.443 476.496C782.499 480.023 786.269 483.786 789.02 487.142H789.017C789.023 487.148 789.032 487.153 789.038 487.162C790.102 488.463 791.016 489.701 791.788 490.839C792.743 492.444 793.681 494.34 794.589 496.442L801.189 519.408C798.589 519.328 795.995 519.287 793.401 519.287C779.156 519.287 765.011 520.513 751.115 523.147C721.573 528.747 694.407 541.303 672.828 559.081L659.945 471.383C657.754 456.459 653.418 442.39 647.342 429.398L658.202 427.652C658.202 427.652 652.106 339.423 562.443 339.423C551.736 339.423 539.846 340.68 526.622 343.496C521.524 342.968 516.365 342.7 511.159 342.7C503.898 342.7 496.549 343.225 489.152 344.313C428.934 353.162 387.287 409.166 396.137 469.402L407.8 548.798C415.461 600.975 458.499 639.209 509.016 642.757V645.254H459.313C428.002 645.254 401.299 664.917 390.831 692.568L390.816 692.562L390.598 693.161L390.492 693.45L329.162 860.68L334.026 861.273L316.37 938.175L315.627 938.517C315.627 938.517 315.872 938.444 316.341 938.305L308.328 973.204V973.204ZM314.66 943.419C314.566 943.881 314.507 944.176 314.481 944.326C314.516 944.147 314.578 943.828 314.66 943.419C314.675 943.332 314.696 943.238 314.714 943.141C314.696 943.238 314.675 943.33 314.66 943.419ZM315.047 941.454C314.929 942.05 314.814 942.637 314.714 943.141C314.799 942.71 314.911 942.145 315.047 941.454ZM315.627 938.517C315.627 938.517 315.339 939.977 315.047 941.454C315.206 940.652 315.389 939.726 315.627 938.517ZM605.628 645.304C604.923 645.29 604.228 645.254 603.517 645.254H599.154V632.094L627.635 627.909C626.187 633.518 625.132 639.286 624.501 645.186L605.622 645.254L605.628 645.304V645.304ZM1650.72 622.669C1643.15 620.47 1635.09 619.284 1626.73 619.284L1560.78 618.759V540.259C1568.11 532.22 1573.38 522.126 1575.53 510.65L1579.22 490.913L1582.1 491.453C1584.04 491.816 1585.98 491.99 1587.89 491.99C1602.77 491.99 1616.12 481.347 1618.96 466.211L1619.28 464.48C1621.6 452.068 1616.24 439.919 1606.59 432.975L1622.67 347.049C1635.04 370.15 1644.67 394.732 1651.33 419.953C1665.62 474.013 1669.4 536.316 1658.03 591.32C1655.83 601.954 1653.33 612.375 1650.72 622.669" fill="#CCD9F1"/>
<path d="M1315.85 1041.17H696.945L709.008 890.696C722.035 878.818 730.113 864.885 723.247 850.451C722.522 848.923 721.369 847.711 719.986 846.868C719.739 846.502 719.535 846.137 719.27 845.768C719.27 845.768 718.745 845.833 717.876 845.945C717.059 845.703 716.207 845.568 715.337 845.568C715.128 845.568 714.919 845.576 714.707 845.591C714.058 845.641 713.356 845.697 712.611 845.756L719.137 764.319H720.738H774.639H874.971H912.8C924.533 764.319 935.523 761.166 945.001 755.688C945.455 755.478 945.912 755.287 946.366 755.068C978.629 739.333 991.5 700.037 974.799 668.258L907.031 542.568C913.779 545.239 920.438 548.103 926.98 551.131C967.235 569.77 1006.18 595.195 1050.4 598.905C1054.37 599.238 1058.33 599.388 1062.28 599.388C1079.82 599.388 1097.09 596.407 1114.33 593.249L1087.89 642.288C1071.19 674.067 1084.06 713.363 1116.33 729.098C1116.79 729.328 1117.26 729.526 1117.73 729.738C1127.19 735.208 1138.17 738.349 1149.89 738.349H1187.72H1288.05H1343.73L1315.85 1041.17ZM774.639 645.254V644.67L773.042 644.676V644.67L624.501 645.186C625.132 639.286 626.187 633.518 627.634 627.909L669.402 621.77C676.232 620.764 680.955 614.416 679.953 607.586L672.827 559.081C694.407 541.303 721.572 528.746 751.114 523.147C765.011 520.513 779.156 519.287 793.4 519.287C795.995 519.287 798.589 519.328 801.189 519.408L837.016 644.081C822.314 644.087 816.292 644.549 806.716 644.824L791.643 645.027C791.62 645.027 791.596 645.027 791.576 645.027L774.639 645.254V645.254ZM1288.22 618.703L1271.3 618.635V618.632C1271.27 618.632 1271.23 618.632 1271.2 618.632L1262.2 618.597C1248.53 618.482 1242.44 618.128 1225.67 618.113L1225.58 618.45L1225.67 618.113L1234.18 588.495C1264.66 593.211 1294.03 602.93 1319.51 618.582L1288.22 618.703" fill="#9AC0E9"/>
<path d="M2003.11 1050.41H86.525C83.9511 1050.41 81.8657 1048.33 81.8657 1045.75C81.8657 1043.18 83.9511 1041.09 86.525 1041.09H2003.11C2005.69 1041.09 2007.78 1043.18 2007.78 1045.75C2007.78 1048.33 2005.69 1050.41 2003.11 1050.41Z" fill="#A9BDE6"/>
<path d="M1943.26 609.176C1943.26 616.503 1937.33 622.445 1930 622.445C1922.67 622.445 1916.73 616.503 1916.73 609.176C1916.73 601.845 1922.67 595.906 1930 595.906C1937.33 595.906 1943.26 601.845 1943.26 609.176Z" fill="#1A1C44"/>
<path d="M1845.98 977.781C1845.98 983.478 1841.36 988.102 1835.66 988.102C1829.97 988.102 1825.34 983.478 1825.34 977.781C1825.34 972.081 1829.97 967.46 1835.66 967.46C1841.36 967.46 1845.98 972.081 1845.98 977.781Z" fill="#5460B6"/>
<path d="M248.166 149.16C248.166 156.488 242.228 162.43 234.9 162.43C227.574 162.43 221.634 156.488 221.634 149.16C221.634 141.829 227.574 135.89 234.9 135.89C242.228 135.89 248.166 141.829 248.166 149.16Z" fill="#5460B6"/>
<path d="M110.044 939.224C110.044 947.009 103.736 953.32 95.9551 953.32C88.173 953.32 81.8657 947.009 81.8657 939.224C81.8657 931.442 88.173 925.132 95.9551 925.132C103.736 925.132 110.044 931.442 110.044 939.224Z" fill="#1A1C44"/>
<path d="M153.83 214.038C153.83 216.479 151.852 218.461 149.408 218.461C146.966 218.461 144.986 216.479 144.986 214.038C144.986 211.593 146.966 209.614 149.408 209.614C151.852 209.614 153.83 211.593 153.83 214.038Z" fill="#1A1C44"/>
<path d="M1279.99 42.8313C1275.9 61.9662 1257.09 74.1655 1237.95 70.0784C1218.82 65.9913 1206.63 47.1661 1210.71 28.0312C1214.8 8.8993 1233.62 -3.3 1252.75 0.787064C1271.88 4.87118 1284.07 23.6965 1279.99 42.8313Z" fill="#324A8B"/>
<path d="M1838.63 95.9166C1837.39 101.726 1831.67 105.43 1825.86 104.191C1820.05 102.95 1816.35 97.2318 1817.59 91.4197C1818.83 85.6105 1824.55 81.9068 1830.36 83.1483C1836.16 84.3897 1839.87 90.1045 1838.63 95.9166Z" fill="#F9AB34"/>
<path d="M453.47 27.4527C452.229 33.2648 446.516 36.9686 440.705 35.7301C434.895 34.4886 431.192 28.7709 432.433 22.9617C433.674 17.1496 439.387 13.4459 445.198 14.6844C451.008 15.9259 454.711 21.6436 453.47 27.4527" fill="#F9AB34"/>
<path d="M1927.25 338.128C1926.01 343.937 1920.3 347.64 1914.49 346.402C1908.68 345.16 1904.97 339.443 1906.21 333.634C1907.45 327.821 1913.17 324.118 1918.98 325.356C1924.79 326.598 1928.49 332.315 1927.25 338.128" fill="#5460B6"/>
<path d="M1152.95 76.5514C1151.98 81.1073 1147.5 84.0119 1142.94 83.0388C1138.38 82.0656 1135.48 77.5835 1136.45 73.0275C1137.43 68.4687 1141.91 65.5641 1146.46 66.5401C1151.02 67.5132 1153.92 71.9954 1152.95 76.5514Z" fill="#1A1C44"/>
<path d="M1187.1 249.508C1187.1 343.103 1111.25 418.977 1017.68 418.977C924.115 418.977 848.263 343.103 848.263 249.508C848.263 155.915 924.115 80.0394 1017.68 80.0394C1111.25 80.0394 1187.1 155.915 1187.1 249.508Z" fill="#1C1B21"/>
<path d="M1169.23 231.633C1169.23 325.228 1093.38 401.102 999.816 401.102C906.247 401.102 830.395 325.228 830.395 231.633C830.395 138.04 906.247 62.1672 999.816 62.1672C1093.38 62.1672 1169.23 138.04 1169.23 231.633" fill="#F9AB34"/>
<path d="M999.816 104.321C929.453 104.321 872.209 161.582 872.209 231.964C872.209 302.346 929.453 359.607 999.816 359.607C1070.18 359.607 1127.42 302.346 1127.42 231.964C1127.42 161.582 1070.18 104.321 999.816 104.321ZM999.816 368.453C924.577 368.453 863.365 307.224 863.365 231.964C863.365 156.704 924.577 95.475 999.816 95.475C1075.06 95.475 1136.26 156.704 1136.26 231.964C1136.26 307.224 1075.06 368.453 999.816 368.453Z" fill="#FCF2E3"/>
<path d="M1009.29 268.99C1018.58 267.551 1023.23 263.361 1023.23 256.419V256.024C1023.23 252.621 1022.24 249.837 1020.28 247.676C1018.31 245.514 1014.65 243.453 1009.29 241.489V268.99ZM990.825 180.791C986.114 181.448 982.677 182.855 980.513 185.013C978.355 187.175 977.276 189.826 977.276 192.969V193.362C977.276 196.378 978.19 198.961 980.024 201.12C981.854 203.284 985.454 205.346 990.825 207.309V180.791ZM989.843 293.15C981.332 292.106 973.116 289.977 965.198 286.768C957.274 283.56 950.042 279.47 943.498 274.489L958.816 252.096C964.181 256.157 969.387 259.53 974.428 262.214C979.466 264.9 984.932 266.828 990.825 268.008V236.774C983.756 234.81 977.568 232.652 972.267 230.293C966.967 227.934 962.577 225.12 959.107 221.847C955.641 218.574 953.023 214.743 951.254 210.356C949.488 205.968 948.604 200.896 948.604 195.131V194.739C948.604 189.239 949.585 184.261 951.549 179.809C953.512 175.359 956.292 171.493 959.895 168.22C963.494 164.95 967.848 162.296 972.954 160.264C978.06 158.235 983.688 156.894 989.843 156.236V144.845H1010.27V156.631C1017.33 157.681 1023.85 159.415 1029.81 161.836C1035.76 164.26 1041.42 167.371 1046.79 171.166L1033.64 194.149C1029.71 191.53 1025.71 189.207 1021.66 187.175C1017.6 185.146 1013.47 183.61 1009.29 182.557V212.219C1024.21 216.283 1035.04 221.585 1041.78 228.131C1048.53 234.683 1051.9 243.453 1051.9 254.452V254.847C1051.9 260.347 1050.88 265.325 1048.86 269.774C1046.82 274.23 1044.01 278.093 1040.41 281.366C1036.81 284.639 1032.46 287.326 1027.35 289.419C1022.24 291.516 1016.55 292.89 1010.27 293.545V312.992H989.843V293.15Z" fill="#1C1B21"/>
<path d="M1187.1 249.508C1187.1 343.103 1111.25 418.977 1017.68 418.977C924.115 418.977 848.263 343.103 848.263 249.508C848.263 155.915 924.115 80.0394 1017.68 80.0394C1111.25 80.0394 1187.1 155.915 1187.1 249.508Z" fill="#1C1B21"/>
<path d="M1169.23 231.633C1169.23 325.228 1093.38 401.102 999.816 401.102C906.247 401.102 830.395 325.228 830.395 231.633C830.395 138.04 906.247 62.1672 999.816 62.1672C1093.38 62.1672 1169.23 138.04 1169.23 231.633" fill="#F09825"/>
<path d="M999.816 104.321C929.453 104.321 872.209 161.582 872.209 231.964C872.209 302.346 929.453 359.607 999.816 359.607C1070.18 359.607 1127.42 302.346 1127.42 231.964C1127.42 161.582 1070.18 104.321 999.816 104.321ZM999.816 368.453C924.577 368.453 863.365 307.224 863.365 231.964C863.365 156.704 924.577 95.475 999.816 95.475C1075.06 95.475 1136.26 156.704 1136.26 231.964C1136.26 307.224 1075.06 368.453 999.816 368.453Z" fill="#FCF2E3"/>
<path d="M907.665 153.202C907.665 195.55 873.344 229.883 831.008 229.883C788.672 229.883 754.348 195.55 754.348 153.202C754.348 110.851 788.672 76.5207 831.008 76.5207C873.344 76.5207 907.665 110.851 907.665 153.202Z" fill="#1C1B21"/>
<path d="M899.581 145.116C899.581 187.467 865.261 221.797 822.922 221.797C780.585 221.797 746.265 187.467 746.265 145.116C746.265 102.768 780.585 68.4377 822.922 68.4377C865.261 68.4377 899.581 102.768 899.581 145.116" fill="#F09825"/>
<path d="M822.922 87.5107C791.084 87.5107 765.183 113.419 765.183 145.266C765.183 177.111 791.084 203.022 822.922 203.022C854.76 203.022 880.662 177.111 880.662 145.266C880.662 113.419 854.76 87.5107 822.922 87.5107ZM822.922 207.023C788.879 207.023 761.182 179.319 761.182 145.266C761.182 111.213 788.879 83.5093 822.922 83.5093C856.966 83.5093 884.662 111.213 884.662 145.266C884.662 179.319 856.966 207.023 822.922 207.023Z" fill="#FCF2E3"/>
<path d="M736.345 282.805C736.345 264.416 721.44 249.507 703.056 249.507C721.44 249.507 736.345 234.597 736.345 216.209C736.345 234.597 751.25 249.507 769.634 249.507C751.25 249.507 736.345 264.416 736.345 282.805Z" fill="white"/>
<path d="M1127.42 450.219C1127.42 436.713 1116.47 425.761 1102.97 425.761C1116.47 425.761 1127.42 414.812 1127.42 401.307C1127.42 414.812 1138.37 425.761 1151.87 425.761C1138.37 425.761 1127.42 436.713 1127.42 450.219Z" fill="white"/>
<path d="M967.622 567.992C967.622 543.157 947.496 523.023 922.665 523.023C947.496 523.023 967.622 502.891 967.622 478.056C967.622 502.891 987.747 523.023 1012.58 523.023C987.747 523.023 967.622 543.157 967.622 567.992Z" fill="white"/>
<path d="M1122.82 221.039C1122.82 197.767 1103.96 178.9 1080.7 178.9C1103.96 178.9 1122.82 160.031 1122.82 136.759C1122.82 160.031 1141.69 178.9 1164.95 178.9C1141.69 178.9 1122.82 197.767 1122.82 221.039Z" fill="#FCF2E3"/>
<path d="M1263.65 249.508C1263.65 236.672 1253.25 226.265 1240.41 226.265C1253.25 226.265 1263.65 215.856 1263.65 203.02C1263.65 215.856 1274.06 226.265 1286.89 226.265C1274.06 226.265 1263.65 236.672 1263.65 249.508Z" fill="white"/>
<path d="M551.564 171.952H292.73C266.11 171.952 244.53 193.54 244.53 220.168C244.53 246.796 266.11 268.384 292.73 268.384H506.038L535.389 295.133V268.384H551.564C578.185 268.384 599.764 246.796 599.764 220.168C599.764 193.54 578.185 171.952 551.564 171.952" fill="#324A8B"/>
<path d="M316.07 213.516C319.445 210.714 321.597 206.486 321.597 201.756C321.597 193.313 314.755 186.469 306.315 186.469C297.878 186.469 291.035 193.313 291.035 201.756C291.035 206.486 293.185 210.714 296.56 213.516C285.723 217.497 277.978 227.882 277.978 240.102C277.978 255.758 334.654 255.758 334.654 240.102C334.654 227.882 326.907 217.497 316.07 213.516Z" fill="#F9AB34"/>
<path d="M554.804 197.871H369.337C368.523 197.871 367.863 197.211 367.863 196.397C367.863 195.58 368.523 194.922 369.337 194.922H554.804C555.621 194.922 556.278 195.58 556.278 196.397C556.278 197.211 555.621 197.871 554.804 197.871" fill="white"/>
<path d="M526.032 241.398H369.337C368.523 241.398 367.863 240.738 367.863 239.924C367.863 239.107 368.523 238.45 369.337 238.45H526.032C526.849 238.45 527.506 239.107 527.506 239.924C527.506 240.738 526.849 241.398 526.032 241.398Z" fill="white"/>
<path d="M483.36 221.016H369.337C368.523 221.016 367.863 220.355 367.863 219.541C367.863 218.727 368.523 218.067 369.337 218.067H483.36C484.173 218.067 484.834 218.727 484.834 219.541C484.834 220.355 484.173 221.016 483.36 221.016Z" fill="white"/>
<path d="M554.805 221.016H497.581C496.764 221.016 496.107 220.355 496.107 219.541C496.107 218.727 496.764 218.067 497.581 218.067H554.805C555.621 218.067 556.279 218.727 556.279 219.541C556.279 220.355 555.621 221.016 554.805 221.016" fill="white"/>
<path d="M324.651 235.703C323.519 235.703 322.387 235.273 321.523 234.409L310.415 223.297C308.688 221.569 308.688 218.768 310.415 217.043C312.143 215.315 314.94 215.315 316.668 217.043L324.651 225.025L346.095 203.573C347.822 201.845 350.62 201.845 352.348 203.573C354.075 205.301 354.075 208.102 352.348 209.83L327.776 234.409C326.912 235.273 325.78 235.703 324.651 235.703" fill="white"/>
<path d="M1705.97 423.044H1971.53C1998.85 423.044 2020.99 445.193 2020.99 472.511C2020.99 499.832 1998.85 521.977 1971.53 521.977H1752.68L1722.57 549.422V521.977H1705.97C1678.66 521.977 1656.52 499.832 1656.52 472.511C1656.52 445.193 1678.66 423.044 1705.97 423.044Z" fill="#F09825"/>
<path d="M1965.59 465.242C1968.97 462.438 1971.12 458.212 1971.12 453.479C1971.12 445.037 1964.27 438.196 1955.83 438.196C1947.4 438.196 1940.55 445.037 1940.55 453.479C1940.55 458.212 1942.7 462.438 1946.08 465.242C1935.24 469.223 1927.5 479.609 1927.5 491.829C1927.5 507.484 1984.17 507.484 1984.17 491.829C1984.17 479.609 1976.43 469.223 1965.59 465.242Z" fill="#5460B6"/>
<path d="M1988.86 473.747H1981.54V466.425C1981.54 465.632 1980.9 464.989 1980.1 464.989H1973.43C1972.63 464.989 1971.99 465.632 1971.99 466.425V473.747H1964.67C1963.88 473.747 1963.23 474.39 1963.23 475.186V481.865C1963.23 482.659 1963.88 483.305 1964.67 483.305H1971.99V490.623C1971.99 491.417 1972.63 492.062 1973.43 492.062H1980.1C1980.9 492.062 1981.54 491.417 1981.54 490.623V483.305H1988.86C1989.66 483.305 1990.3 482.659 1990.3 481.865V475.186C1990.3 474.39 1989.66 473.747 1988.86 473.747Z" fill="white"/>
<path d="M1904.3 452.539H1718.84C1718.02 452.539 1717.36 451.881 1717.36 451.065C1717.36 450.251 1718.02 449.59 1718.84 449.59H1904.3C1905.12 449.59 1905.78 450.251 1905.78 451.065C1905.78 451.881 1905.12 452.539 1904.3 452.539Z" fill="white"/>
<path d="M1875.53 496.074H1718.84C1718.02 496.074 1717.36 495.414 1717.36 494.6C1717.36 493.783 1718.02 493.125 1718.84 493.125H1875.53C1876.34 493.125 1877 493.783 1877 494.6C1877 495.414 1876.34 496.074 1875.53 496.074" fill="white"/>
<path d="M1832.86 475.684H1718.84C1718.02 475.684 1717.36 475.026 1717.36 474.209C1717.36 473.395 1718.02 472.735 1718.84 472.735H1832.86C1833.67 472.735 1834.33 473.395 1834.33 474.209C1834.33 475.026 1833.67 475.684 1832.86 475.684" fill="white"/>
<path d="M1904.3 475.684H1847.07C1846.26 475.684 1845.6 475.026 1845.6 474.209C1845.6 473.395 1846.26 472.735 1847.07 472.735H1904.3C1905.12 472.735 1905.78 473.395 1905.78 474.209C1905.78 475.026 1905.12 475.684 1904.3 475.684Z" fill="white"/>
<path d="M1372.17 137.871H1555.1C1573.92 137.871 1589.17 153.128 1589.17 171.948C1589.17 190.77 1573.92 206.027 1555.1 206.027H1383.6H1372.17C1353.36 206.027 1338.1 190.77 1338.1 171.948C1338.1 153.128 1353.36 137.871 1372.17 137.871Z" fill="#324A8B"/>
<path d="M1534.46 160.742H1392.62C1391.81 160.742 1391.15 160.082 1391.15 159.268C1391.15 158.454 1391.81 157.793 1392.62 157.793H1534.46C1535.27 157.793 1535.93 158.454 1535.93 159.268C1535.93 160.082 1535.27 160.742 1534.46 160.742Z" fill="white"/>
<path d="M1512.45 186.52H1392.62C1391.81 186.52 1391.15 185.862 1391.15 185.045C1391.15 184.231 1391.81 183.571 1392.62 183.571H1512.45C1513.27 183.571 1513.93 184.231 1513.93 185.045C1513.93 185.862 1513.27 186.52 1512.45 186.52Z" fill="white"/>
<path d="M1479.82 174.445H1392.62C1391.81 174.445 1391.15 173.785 1391.15 172.971C1391.15 172.154 1391.81 171.497 1392.62 171.497H1479.82C1480.63 171.497 1481.29 172.154 1481.29 172.971C1481.29 173.785 1480.63 174.445 1479.82 174.445Z" fill="white"/>
<path d="M1534.46 174.445H1490.69C1489.88 174.445 1489.22 173.785 1489.22 172.971C1489.22 172.154 1489.88 171.497 1490.69 171.497H1534.46C1535.27 171.497 1535.93 172.154 1535.93 172.971C1535.93 173.785 1535.27 174.445 1534.46 174.445Z" fill="white"/>
<path d="M132.305 620.977H294.968C311.698 620.977 325.259 634.544 325.259 651.279C325.259 668.014 311.698 681.578 294.968 681.578H142.47H132.305C115.574 681.578 102.013 668.014 102.013 651.279C102.013 634.544 115.574 620.977 132.305 620.977" fill="#EE9725"/>
<path d="M276.605 641.477H150.489C149.675 641.477 149.015 640.816 149.015 640.002C149.015 639.185 149.675 638.528 150.489 638.528H276.605C277.42 638.528 278.079 639.185 278.079 640.002C278.079 640.816 277.42 641.477 276.605 641.477Z" fill="white"/>
<path d="M257.039 664.402H150.489C149.675 664.402 149.015 663.742 149.015 662.928C149.015 662.114 149.675 661.454 150.489 661.454H257.039C257.854 661.454 258.513 662.114 258.513 662.928C258.513 663.742 257.854 664.402 257.039 664.402" fill="white"/>
<path d="M228.023 653.664H150.489C149.675 653.664 149.015 653.006 149.015 652.19C149.015 651.376 149.675 650.715 150.489 650.715H228.023C228.837 650.715 229.497 651.376 229.497 652.19C229.497 653.006 228.837 653.664 228.023 653.664Z" fill="white"/>
<path d="M276.605 653.664H237.693C236.878 653.664 236.219 653.006 236.219 652.19C236.219 651.376 236.878 650.715 237.693 650.715H276.605C277.42 650.715 278.079 651.376 278.079 652.19C278.079 653.006 277.42 653.664 276.605 653.664Z" fill="white"/>
<path d="M1334.55 784.828H1045.54C1044.73 784.828 1044.07 784.168 1044.07 783.354C1044.07 782.54 1044.73 781.879 1045.54 781.879H1334.55C1335.36 781.879 1336.02 782.54 1336.02 783.354C1336.02 784.168 1335.36 784.828 1334.55 784.828Z" fill="white"/>
<path d="M1334.55 852.656H1090.38C1089.56 852.656 1088.9 851.996 1088.9 851.182C1088.9 850.365 1089.56 849.707 1090.38 849.707H1334.55C1335.36 849.707 1336.02 850.365 1336.02 851.182C1336.02 851.996 1335.36 852.656 1334.55 852.656Z" fill="white"/>
<path d="M1334.55 820.883H1156.87C1156.06 820.883 1155.4 820.225 1155.4 819.408C1155.4 818.594 1156.06 817.934 1156.87 817.934H1334.55C1335.36 817.934 1336.02 818.594 1336.02 819.408C1336.02 820.225 1335.36 820.883 1334.55 820.883Z" fill="white"/>
<path d="M1134.71 820.883H1045.54C1044.73 820.883 1044.07 820.225 1044.07 819.408C1044.07 818.594 1044.73 817.934 1045.54 817.934H1134.71C1135.53 817.934 1136.19 818.594 1136.19 819.408C1136.19 820.225 1135.53 820.883 1134.71 820.883Z" fill="white"/>
<path d="M1007.68 892.422H718.675C717.861 892.422 717.201 891.764 717.201 890.947C717.201 890.134 717.861 889.473 718.675 889.473H1007.68C1008.5 889.473 1009.16 890.134 1009.16 890.947C1009.16 891.764 1008.5 892.422 1007.68 892.422Z" fill="white"/>
<path d="M962.846 960.258H718.675C717.861 960.258 717.201 959.597 717.201 958.783C717.201 957.969 717.861 957.309 718.675 957.309H962.846C963.659 957.309 964.32 957.969 964.32 958.783C964.32 959.597 963.659 960.258 962.846 960.258" fill="white"/>
<path d="M896.351 928.492H718.675C717.861 928.492 717.201 927.832 717.201 927.018C717.201 926.201 717.861 925.543 718.675 925.543H896.351C897.164 925.543 897.825 926.201 897.825 927.018C897.825 927.832 897.164 928.492 896.351 928.492Z" fill="white"/>
<path d="M1007.68 928.492H918.511C917.694 928.492 917.037 927.832 917.037 927.018C917.037 926.201 917.694 925.543 918.511 925.543H1007.68C1008.5 925.543 1009.16 926.201 1009.16 927.018C1009.16 927.832 1008.5 928.492 1007.68 928.492Z" fill="white"/>
<path d="M1225.58 618.453L1225.67 618.116L1268.36 469.593L1268.17 469.455C1270.09 465.695 1275.07 457.636 1285.24 450.532C1302.84 438.256 1304.94 417.918 1304.94 417.918C1314.34 408.821 1324.93 401.06 1334.52 392.175C1335.52 391.246 1336.57 390.232 1336.86 388.899C1337.19 387.413 1336.49 385.891 1335.64 384.632C1330.69 377.292 1321.59 376.231 1314.02 379.622C1309.59 381.606 1305.63 384.431 1301.91 387.537C1300.15 389.008 1294.13 393.057 1292.31 395.752L1326.26 323.24C1329.27 316.8 1327.3 309.452 1321.87 306.913C1319.16 305.639 1316.08 305.804 1313.3 307.087C1311.53 307.901 1309.93 309.21 1308.57 310.85C1308.68 310.316 1308.74 310.003 1308.74 310.003C1268.98 276.558 1219.91 390.397 1219.91 390.397L1205.99 423.261L1087.89 642.291C1071.19 674.07 1084.06 713.366 1116.33 729.101C1116.79 729.331 1117.26 729.529 1117.73 729.741C1127.19 735.211 1138.17 738.352 1149.89 738.352H1382.31L1432.39 619.287L1225.58 618.453" fill="#FAB892"/>
<path d="M1181.65 738.297H1185.77V738.17H1181.65V738.297Z" fill="#F9AA8B"/>
<path d="M1187.72 738.352C1187.04 738.334 1186.47 738.313 1185.92 738.298C1186.93 738.328 1187.72 738.352 1187.72 738.352ZM1185.92 738.298C1185.89 738.296 1185.85 738.296 1185.81 738.296C1185.85 738.296 1185.89 738.296 1185.92 738.298Z" fill="#F9AA8B"/>
<path d="M1271.3 618.641L1271.2 618.638C1271.23 618.638 1271.27 618.638 1271.3 618.638V618.641ZM1262.2 618.602L1225.58 618.455L1225.67 618.119C1242.44 618.133 1248.53 618.487 1262.2 618.602Z" fill="#C4BCE4"/>
<path d="M1187.72 738.352C1187.72 738.352 1193.52 722.213 1200.56 701.158C1202.23 697.891 1203.66 694.435 1204.79 690.784L1212.97 662.346C1215.12 655.192 1217.16 648.177 1218.91 641.645L1225.58 618.453L1262.2 618.6C1264.86 618.624 1267.82 618.635 1271.2 618.635L1271.3 618.638L1187.72 738.352" fill="#F9AA8B"/>
<path d="M1259.33 403.164C1259.02 403.164 1258.72 403.07 1258.45 402.875C1257.8 402.394 1257.66 401.469 1258.14 400.814C1272.97 380.688 1292.92 391.563 1293.11 391.673C1293.82 392.074 1294.07 392.967 1293.68 393.678C1293.28 394.385 1292.38 394.639 1291.67 394.247C1290.95 393.843 1273.78 384.572 1260.51 402.565C1260.22 402.955 1259.78 403.164 1259.33 403.164" fill="#F5786C"/>
<path d="M1309.42 310.564C1303.29 318.287 1297.59 326.411 1292.54 334.856C1290.02 339.085 1287.74 343.449 1285.83 347.925C1283.95 352.369 1282.43 357.146 1282.67 361.652L1282.68 361.744C1282.72 362.555 1282.1 363.25 1281.29 363.295C1280.47 363.339 1279.78 362.714 1279.73 361.903V361.864C1279.57 356.383 1281.38 351.482 1283.39 346.881C1285.47 342.278 1287.88 337.879 1290.52 333.638C1295.83 325.163 1301.71 317.131 1308.07 309.443C1308.37 309.069 1308.93 309.016 1309.3 309.325C1309.67 309.629 1309.73 310.175 1309.43 310.549L1309.42 310.564" fill="#F5786C"/>
<path d="M1299.17 306.36C1295.28 309.037 1291.79 312.585 1288.66 316.268C1285.54 319.992 1282.79 324.029 1280.32 328.222C1277.89 332.445 1275.76 336.836 1273.94 341.356C1272.98 343.594 1272.26 345.933 1271.41 348.209L1269.29 355.213L1269.27 355.295C1269.03 356.074 1268.21 356.516 1267.43 356.28C1266.65 356.044 1266.21 355.222 1266.44 354.443L1266.45 354.417L1268.75 347.298C1269.67 344.977 1270.45 342.607 1271.48 340.333C1273.43 335.739 1275.7 331.283 1278.26 327.001C1280.88 322.749 1283.77 318.662 1287.06 314.897C1290.39 311.146 1293.92 307.637 1298.22 304.794C1298.64 304.517 1299.21 304.632 1299.48 305.053C1299.76 305.469 1299.65 306.029 1299.24 306.31L1299.17 306.36Z" fill="#F5786C"/>
<path d="M1283.1 307.489C1277.45 313.398 1272.2 319.783 1267.66 326.568C1265.42 329.974 1263.26 333.456 1261.58 337.128C1259.87 340.781 1258.46 344.579 1257.85 348.454L1257.85 348.489C1257.72 349.294 1256.97 349.843 1256.16 349.716C1255.36 349.586 1254.81 348.832 1254.94 348.026L1254.94 347.991C1255.73 343.706 1257.34 339.737 1259.2 335.966C1261.07 332.179 1263.36 328.67 1265.73 325.247C1270.55 318.429 1275.99 312.145 1281.89 306.262C1282.23 305.929 1282.77 305.929 1283.1 306.265C1283.43 306.596 1283.44 307.129 1283.12 307.465L1283.1 307.489" fill="#F5786C"/>
<path d="M1762 834.712L1704.99 679.257C1698.2 645.148 1665.76 619.287 1626.73 619.287L1467.47 618.019L1288.05 618.706V738.351H1343.73L1315 1050.41L1710.09 1052.65L1707.88 841.336L1762 834.712Z" fill="#324A8B"/>
<path d="M1343.73 738.352H1288.05V618.706L1456.43 618.063V619.989C1393.24 626.208 1344.02 675.394 1344.02 735.193L1343.73 738.352" fill="#444885"/>
<path d="M1251.07 529.727L1268.26 469.919C1266.92 474.592 1251.65 527.742 1251.08 529.712C1251.08 529.718 1251.08 529.724 1251.07 529.727ZM1268.26 469.919L1268.27 469.895C1268.26 469.904 1268.26 469.91 1268.26 469.919ZM1268.28 469.857L1268.28 469.845C1268.28 469.848 1268.28 469.854 1268.28 469.857ZM1268.31 469.768L1268.31 469.75C1268.31 469.756 1268.31 469.762 1268.31 469.768ZM1268.36 469.591L1268.17 469.453C1268.17 469.447 1268.18 469.444 1268.18 469.441L1268.36 469.591" fill="#D3C7E8"/>
<path d="M1251.05 529.75C1250.25 529.747 1240.41 446.213 1240.41 446.213L1268.18 469.441C1268.18 469.444 1268.17 469.447 1268.17 469.452L1268.36 469.591C1268.36 469.591 1268.34 469.635 1268.32 469.718C1268.31 469.73 1268.31 469.741 1268.31 469.75L1268.31 469.768C1268.3 469.78 1268.3 469.789 1268.29 469.8C1268.29 469.815 1268.29 469.83 1268.28 469.845L1268.28 469.856C1268.28 469.862 1268.28 469.868 1268.27 469.877C1268.27 469.883 1268.27 469.889 1268.27 469.895L1268.26 469.918L1251.07 529.726C1251.07 529.741 1251.06 529.75 1251.05 529.75" fill="#F9AA8B"/>
<path d="M1475.6 879.376L1460.52 803.362L1448.88 744.713C1447.52 737.815 1440.75 733.289 1433.86 734.657L1375.62 746.217C1368.72 747.585 1364.2 754.349 1365.57 761.25L1377.28 820.276L1386.56 867.097L1392.28 895.913C1393.65 902.814 1400.41 907.337 1407.31 905.966L1441.7 899.142L1465.55 894.409C1472.44 893.041 1476.97 886.274 1475.6 879.376" fill="#1C1B21"/>
<path d="M1785.6 949.433L1759.34 835.04L1639.93 849.654L1646.49 878.753L1645.88 878.603L1516.08 846.458L1515.97 846.617C1512.38 844.821 1505.65 840.539 1499.73 831.696C1488.85 815.424 1470.57 814.976 1470.57 814.976C1467.05 811.284 1463.77 807.341 1460.52 803.361L1463.56 818.691L1462.8 819.095C1454.55 823.469 1445.24 825.409 1435.93 824.681C1418.7 823.336 1390.55 821.136 1378.85 820.225C1375.28 819.945 1371.85 821.847 1370.31 825.082C1353.61 860.205 1425.34 892.344 1441.71 899.141H1441.7L1442.28 899.377L1442.95 899.651L1443.57 899.905L1444.09 900.114L1444.58 900.306L1444.77 900.38L1445.02 900.477L1473.09 911.004L1695.32 1020.42C1697.39 1021.41 1699.47 1022.27 1701.58 1023.02C1712.36 1027.96 1724.76 1029.56 1737.2 1026.7C1771.9 1018.73 1793.57 984.137 1785.6 949.433" fill="#FAB892"/>
<path d="M1646.49 878.75L1645.88 878.6C1642.32 862.921 1643.97 867.89 1641.28 855.652L1646.49 878.75" fill="#6461B6"/>
<path d="M1777.13 912.555C1776.59 912.366 1694.6 883.574 1655.21 880.914L1645.88 878.605L1646.49 878.755L1641.28 855.657C1640.92 854.021 1640.48 852.074 1639.95 849.73L1640.06 849.718L1777.14 912.555H1777.13" fill="#F9AA8B"/>
<path d="M1628.84 851.125C1628.16 851.125 1627.55 850.641 1627.4 849.951L1610.26 766.889C1610.09 766.09 1610.61 765.312 1611.4 765.146C1611.51 765.123 1611.61 765.111 1611.71 765.111C1612.38 765.111 1613 765.598 1613.14 766.291L1630.02 848.017L1687.75 840.666C1687.82 840.657 1687.88 840.651 1687.95 840.651C1688.67 840.651 1689.31 841.202 1689.4 841.942C1689.5 842.75 1688.93 843.488 1688.13 843.594L1655.46 847.752L1639.93 849.651L1639.94 849.724L1629.03 851.113L1628.84 851.125" fill="#424AA7"/>
<path d="M1639.94 849.727L1639.93 849.653C1639.94 849.679 1639.94 849.703 1639.95 849.727H1639.94ZM1640.06 849.715L1639.93 849.653L1655.46 847.754L1640.06 849.715Z" fill="#AB806B"/>
<path d="M1639.95 849.727C1639.94 849.703 1639.94 849.68 1639.93 849.653L1640.06 849.715L1639.95 849.727" fill="#AB7667"/>
<path d="M1778.3 918.453C1778.28 918.335 1778.2 917.961 1778.07 917.279C1778.18 917.843 1778.27 918.291 1778.3 918.453Z" fill="#F9AA8B"/>
<path d="M1777.15 912.625C1777.14 912.599 1777.14 912.575 1777.14 912.552C1777.14 912.558 1777.14 912.581 1777.15 912.625Z" fill="#FDE9EC"/>
<path d="M1777.76 915.703C1777.59 914.88 1777.4 913.907 1777.15 912.628C1777.22 912.967 1777.49 914.356 1777.76 915.703Z" fill="#F9AA8B"/>
<path d="M1778.07 917.281C1777.98 916.854 1777.89 916.367 1777.79 915.857C1777.9 916.432 1778 916.913 1778.07 917.281ZM1777.79 915.857C1777.78 915.807 1777.77 915.757 1777.76 915.704C1777.77 915.754 1777.78 915.807 1777.79 915.857Z" fill="#F9AA8B"/>
<path d="M1615.32 311.318C1611.69 286.274 1588.85 268.454 1563.53 271.317C1556.81 272.078 1550.6 274.246 1545.12 277.451C1536.97 264.116 1521.63 255.948 1505.09 257.821C1495.63 258.888 1487.31 263.09 1480.96 269.236C1471.83 264.656 1461.32 262.551 1450.42 263.786C1420.43 267.177 1398.88 294.236 1402.27 324.222C1403.85 338.247 1410.63 350.411 1420.45 359.057L1409.34 418.381C1406.16 435.41 1417.38 451.8 1434.4 454.991L1565.95 479.622C1582.97 482.813 1599.36 471.589 1602.55 454.56L1624.1 339.4C1626.09 328.772 1622.47 318.392 1615.32 311.318Z" fill="#1C1B21"/>
<path d="M1423.59 343.758C1423.1 343.758 1422.62 343.516 1422.34 343.071C1398.84 305.874 1431.21 282.024 1431.54 281.788C1432.2 281.311 1433.12 281.467 1433.59 282.127C1434.07 282.785 1433.91 283.705 1433.25 284.18C1432 285.085 1402.84 306.682 1424.83 341.496C1425.27 342.186 1425.06 343.097 1424.38 343.531C1424.13 343.684 1423.86 343.758 1423.59 343.758Z" fill="#FCF2E3"/>
<path d="M1594.04 427.612L1591.17 427.076L1562.13 364.64C1554.98 363.608 1548.29 360.972 1542.48 357.041C1536.91 363.074 1529.25 367.232 1520.45 368.229C1509.86 369.426 1499.85 365.802 1492.56 359.138C1484.46 366.256 1474.21 371.075 1462.69 372.378C1449.51 373.87 1436.91 370.535 1426.62 363.788L1406.4 471.874C1403.6 486.804 1406.67 501.445 1413.89 513.535C1421.08 531.319 1436.54 545.288 1456.43 549.867V621.247C1456.43 646.043 1476.71 666.328 1501.5 666.328H1515.71C1540.5 666.328 1560.78 646.043 1560.78 621.247V540.198C1568.09 532.166 1573.38 522.113 1575.53 510.651L1579.22 490.915L1582.1 491.454C1599.17 494.651 1615.76 483.292 1618.96 466.212L1619.28 464.481C1622.47 447.402 1611.12 430.812 1594.04 427.612" fill="#FAB892"/>
<path d="M1456.43 549.949C1436.56 545.381 1421.14 531.386 1413.93 513.64C1421.14 531.378 1436.58 545.299 1456.43 549.87V549.949ZM1560.78 540.262V540.2C1568.09 532.168 1573.38 522.115 1575.53 510.653L1579.22 490.917L1575.53 510.653C1573.38 522.13 1568.11 532.224 1560.78 540.262Z" fill="#D9B7D9"/>
<path d="M1515.69 576.445H1501.29C1483.46 576.445 1468.01 565.924 1460.72 550.805L1458.89 550.46C1458.06 550.307 1457.24 550.136 1456.43 549.95V549.871C1436.58 545.3 1421.14 531.379 1413.93 513.641C1413.92 513.606 1413.9 513.574 1413.89 513.538C1422.38 527.746 1436.64 538.414 1454.19 541.699L1500.09 550.298C1503.81 550.994 1507.51 551.33 1511.16 551.33C1539.39 551.327 1564.51 531.255 1569.89 502.495L1572.53 488.414L1579.22 490.918L1575.52 510.654C1573.38 522.116 1568.09 532.169 1560.78 540.201V540.263C1560.37 540.714 1559.96 541.157 1559.53 541.593C1554.87 561.495 1536.96 576.445 1515.69 576.445" fill="#F89F88"/>
<path d="M1596.57 469.949C1596.25 469.949 1595.93 469.849 1595.67 469.64L1584.2 460.734C1583.86 460.472 1583.65 460.071 1583.63 459.64C1583.61 459.213 1583.78 458.794 1584.09 458.496L1598.23 445.144C1598.82 444.586 1599.76 444.61 1600.31 445.203C1600.87 445.795 1600.85 446.727 1600.26 447.288L1587.36 459.46L1597.48 467.31C1598.12 467.811 1598.23 468.737 1597.73 469.38C1597.45 469.755 1597.01 469.949 1596.57 469.949" fill="#F5786C"/>
<path d="M1523.63 415.083C1521.41 415.018 1519.13 413.676 1516.86 412.506C1514.59 411.279 1512.28 410.102 1510.24 409.15C1508.19 408.197 1505.81 407.183 1503.41 406.234C1501.05 405.24 1498.54 404.349 1497.09 402.707C1495.68 401.147 1495.96 398.688 1499.26 397.042C1502.4 395.406 1508.79 395.016 1515.57 398.157C1522.32 401.327 1526.05 406.437 1526.74 409.858C1527.52 413.402 1525.75 415.168 1523.63 415.083" fill="#1C1B21"/>
<path d="M1429.83 406.998C1431.74 408.05 1434.37 408.192 1436.92 408.463C1439.49 408.684 1442.07 408.965 1444.29 409.277C1446.53 409.59 1449.09 410.026 1451.62 410.519C1454.14 410.961 1456.73 411.548 1458.82 411.055C1460.84 410.604 1461.9 408.652 1459.97 405.797C1458.17 403.031 1452.96 399.567 1445.57 398.514C1438.17 397.497 1432.33 399.413 1429.94 401.592C1427.42 403.825 1427.98 406.004 1429.83 406.998" fill="#1C1B21"/>
<path d="M1501.95 440.29L1502.15 440.329C1504.12 440.697 1506.03 439.385 1506.4 437.412L1507.28 432.741C1507.65 430.768 1506.33 428.852 1504.36 428.483L1504.16 428.445C1502.19 428.076 1500.27 429.388 1499.91 431.361L1499.03 436.032C1498.66 438.005 1499.97 439.922 1501.95 440.29Z" fill="#1C1B21"/>
<path d="M1438.41 429.965L1438.6 430C1440.57 430.369 1442.49 429.057 1442.86 427.087L1443.73 422.416C1444.1 420.443 1442.79 418.527 1440.82 418.158L1440.62 418.12C1438.65 417.751 1436.73 419.06 1436.36 421.033L1435.49 425.707C1435.12 427.68 1436.43 429.593 1438.41 429.965" fill="#1C1B21"/>
<path d="M1518.12 458.688C1517.95 458.688 1517.78 458.679 1517.61 458.661L1504.57 457.192C1502.1 456.915 1500.3 454.665 1500.58 452.197L1500.61 451.946C1500.87 449.643 1502.84 447.933 1505.1 447.933C1505.27 447.933 1505.44 447.942 1505.6 447.96L1518.65 449.428C1521.12 449.705 1522.91 451.955 1522.63 454.423L1522.61 454.674C1522.35 456.974 1520.38 458.688 1518.12 458.688" fill="#F9AA8B"/>
<path d="M1432.08 445.129C1431.91 445.129 1431.75 445.12 1431.58 445.099L1418.53 443.631C1416.06 443.354 1414.27 441.107 1414.55 438.639L1414.57 438.388C1414.84 436.088 1416.8 434.372 1419.07 434.372C1419.23 434.372 1419.4 434.38 1419.57 434.401L1432.62 435.867C1435.09 436.147 1436.88 438.397 1436.6 440.865L1436.57 441.116C1436.31 443.416 1434.34 445.129 1432.08 445.129Z" fill="#F9AA8B"/>
<path d="M1456.55 510.391C1456.1 510.391 1455.65 510.181 1455.36 509.786C1454.88 509.129 1455.02 508.206 1455.68 507.725C1461.86 503.21 1468.78 505.743 1471.57 507.71C1472.24 508.179 1472.4 509.093 1471.94 509.76C1471.47 510.423 1470.55 510.582 1469.88 510.125C1469.62 509.942 1463.41 505.729 1457.42 510.108C1457.16 510.299 1456.85 510.391 1456.55 510.391" fill="#F5786C"/>
<path d="M1466.52 468.477L1500.99 463.55L1497.22 475.531C1494.8 483.198 1487.69 488.414 1479.65 488.414C1473.4 488.414 1468.15 483.699 1467.49 477.477L1466.52 468.477" fill="white"/>
<path d="M1475.43 456.25L1475.06 456.203L1464.37 453.419C1459.84 452.24 1456.18 449.09 1454.34 444.785C1452.49 440.477 1452.74 435.655 1455.01 431.562L1471.29 402.251C1471.69 401.535 1472.59 401.284 1473.29 401.679C1474.01 402.074 1474.26 402.971 1473.87 403.684L1457.59 432.993C1455.76 436.286 1455.57 440.161 1457.05 443.623C1458.53 447.088 1461.47 449.618 1465.11 450.565L1475.8 453.348C1476.59 453.555 1477.06 454.36 1476.86 455.147C1476.69 455.811 1476.09 456.25 1475.43 456.25" fill="#F5786C"/>
<path d="M974.8 668.26L856.703 449.227L842.777 416.363C842.777 416.363 793.716 302.524 753.95 335.969C753.95 335.969 754.012 336.285 754.116 336.815C752.765 335.176 751.156 333.87 749.393 333.053C746.61 331.77 743.529 331.608 740.817 332.879C735.39 335.421 733.418 342.769 736.433 349.206L770.383 421.718C768.558 419.023 762.544 414.977 760.781 413.505C757.066 410.4 753.101 407.575 748.668 405.588C741.097 402.2 732 403.258 727.047 410.598C726.198 411.86 725.505 413.378 725.832 414.865C726.127 416.198 727.168 417.215 728.17 418.141C737.763 427.029 748.352 434.79 757.747 443.884C757.747 443.884 759.849 464.222 777.443 476.498C787.625 483.602 792.599 491.664 794.518 495.42L794.335 495.559L837.114 644.421L774.639 645.256V764.32H912.8C924.533 764.32 935.524 761.168 945.001 755.689C945.455 755.48 945.912 755.288 946.366 755.07C978.629 739.335 991.5 700.039 974.8 668.26" fill="#FAB892"/>
<path d="M791.576 645.031C791.596 645.031 791.62 645.031 791.644 645.031H791.576ZM806.717 644.828C816.292 644.553 822.315 644.09 837.016 644.085L837.114 644.424L806.717 644.828Z" fill="#C4BCE4"/>
<path d="M874.972 764.32L791.576 645.029H791.644C797.935 645.029 802.645 644.943 806.717 644.825L837.113 644.421L837.016 644.082C837.128 644.082 837.24 644.079 837.352 644.079C842.868 677.923 874.972 764.32 874.972 764.32V764.32ZM874.972 764.32C874.972 764.32 874.995 764.32 875.039 764.317C875.019 764.317 874.995 764.32 874.972 764.32ZM875.039 764.317H875.042H875.039ZM875.042 764.317C875.048 764.317 875.051 764.317 875.057 764.317C875.051 764.317 875.048 764.317 875.042 764.317ZM875.057 764.317H875.06H875.057ZM875.06 764.317C875.078 764.317 875.098 764.314 875.122 764.314C875.101 764.314 875.081 764.317 875.06 764.317ZM875.122 764.314C875.122 764.314 875.125 764.314 875.128 764.314C875.125 764.314 875.122 764.314 875.122 764.314ZM875.128 764.314C875.134 764.314 875.14 764.314 875.149 764.314C875.14 764.314 875.134 764.314 875.128 764.314ZM875.149 764.314C875.149 764.314 875.148 764.314 875.151 764.314C875.148 764.314 875.149 764.314 875.149 764.314ZM875.151 764.314C875.172 764.314 875.196 764.311 875.222 764.311C875.199 764.311 875.175 764.314 875.151 764.314ZM875.222 764.311C875.234 764.311 875.243 764.311 875.252 764.311C875.243 764.311 875.231 764.311 875.222 764.311ZM875.252 764.311C875.255 764.311 875.261 764.311 875.264 764.311C875.261 764.311 875.255 764.311 875.252 764.311ZM875.264 764.311C875.266 764.311 875.266 764.311 875.266 764.311C875.266 764.311 875.266 764.311 875.264 764.311ZM875.266 764.311C875.278 764.311 875.287 764.311 875.299 764.309C875.29 764.311 875.278 764.311 875.266 764.311ZM875.299 764.309H875.302H875.299ZM875.302 764.309C875.346 764.309 875.396 764.306 875.449 764.306C875.399 764.306 875.352 764.309 875.302 764.309ZM875.449 764.306H875.452H875.449ZM875.452 764.306C875.458 764.306 875.464 764.306 875.47 764.306C875.464 764.306 875.458 764.306 875.452 764.306ZM875.47 764.306C875.473 764.306 875.47 764.306 875.473 764.306H875.47ZM875.473 764.306C875.479 764.306 875.485 764.303 875.488 764.303C875.485 764.303 875.479 764.306 875.473 764.306ZM875.488 764.303C875.491 764.303 875.493 764.303 875.496 764.303C875.493 764.303 875.491 764.303 875.488 764.303ZM875.496 764.303C875.499 764.303 875.505 764.303 875.511 764.303C875.505 764.303 875.499 764.303 875.496 764.303ZM875.511 764.303C875.511 764.303 875.514 764.303 875.517 764.303C875.514 764.303 875.511 764.303 875.511 764.303ZM875.517 764.303C875.52 764.303 875.526 764.303 875.532 764.303C875.526 764.303 875.52 764.303 875.517 764.303ZM875.532 764.303C875.532 764.303 875.538 764.303 875.541 764.303C875.538 764.303 875.535 764.303 875.532 764.303ZM875.541 764.303C875.582 764.3 875.626 764.3 875.67 764.3C875.626 764.3 875.585 764.3 875.541 764.303ZM875.67 764.3C875.67 764.3 875.67 764.3 875.673 764.3C875.67 764.3 875.67 764.3 875.67 764.3ZM875.673 764.3C875.682 764.297 875.691 764.297 875.7 764.297C875.691 764.297 875.682 764.297 875.673 764.3ZM875.7 764.297C875.72 764.297 875.738 764.297 875.756 764.297C875.738 764.297 875.717 764.297 875.7 764.297ZM875.756 764.297C875.756 764.297 875.756 764.297 875.759 764.297C875.756 764.297 875.756 764.297 875.756 764.297ZM875.759 764.297C875.762 764.297 875.768 764.297 875.774 764.297C875.768 764.297 875.762 764.297 875.759 764.297ZM875.774 764.297C875.785 764.294 875.8 764.294 875.812 764.294C875.8 764.294 875.785 764.294 875.774 764.297ZM875.812 764.294C875.93 764.291 876.048 764.288 876.16 764.282C876.039 764.288 875.921 764.291 875.812 764.294ZM876.16 764.282C876.163 764.282 876.163 764.282 876.163 764.282C876.163 764.282 876.163 764.282 876.16 764.282ZM876.163 764.282C876.254 764.282 876.342 764.279 876.428 764.276C876.337 764.279 876.248 764.282 876.163 764.282ZM876.428 764.276C876.434 764.276 876.437 764.276 876.443 764.276C876.437 764.276 876.434 764.276 876.428 764.276ZM876.443 764.276C876.446 764.276 876.446 764.276 876.449 764.276C876.446 764.276 876.443 764.276 876.443 764.276ZM876.449 764.276C876.466 764.273 876.484 764.273 876.502 764.273C876.484 764.273 876.466 764.273 876.449 764.276ZM876.502 764.273C876.505 764.273 876.511 764.273 876.513 764.273C876.511 764.273 876.505 764.273 876.502 764.273ZM876.513 764.273C876.531 764.273 876.552 764.27 876.569 764.27C876.552 764.27 876.531 764.273 876.513 764.273ZM876.569 764.27C876.62 764.27 876.667 764.267 876.714 764.267C876.664 764.267 876.617 764.27 876.569 764.27ZM876.714 764.267C876.717 764.267 876.723 764.267 876.729 764.267C876.723 764.267 876.72 764.267 876.714 764.267ZM876.729 764.267C876.767 764.264 876.808 764.264 876.847 764.261C876.808 764.264 876.767 764.264 876.729 764.267ZM876.847 764.261C876.849 764.261 876.849 764.261 876.852 764.261C876.849 764.261 876.849 764.261 876.847 764.261ZM876.852 764.261C876.861 764.261 876.87 764.261 876.879 764.261C876.87 764.261 876.861 764.261 876.852 764.261ZM876.879 764.261C876.882 764.261 876.882 764.261 876.885 764.261C876.882 764.261 876.882 764.261 876.879 764.261ZM876.885 764.261C876.997 764.258 877.106 764.255 877.212 764.252C877.103 764.255 876.991 764.258 876.885 764.261ZM877.212 764.252C877.221 764.252 877.227 764.25 877.236 764.25C877.227 764.25 877.221 764.252 877.212 764.252ZM877.236 764.25C877.239 764.25 877.245 764.25 877.25 764.25C877.245 764.25 877.239 764.25 877.236 764.25ZM877.25 764.25C877.256 764.25 877.262 764.25 877.268 764.25C877.262 764.25 877.256 764.25 877.25 764.25ZM877.268 764.25C877.298 764.25 877.33 764.247 877.362 764.247C877.33 764.247 877.298 764.25 877.268 764.25ZM877.362 764.247C877.507 764.244 877.648 764.238 877.784 764.235C877.643 764.238 877.501 764.244 877.362 764.247ZM877.784 764.235H877.787H877.784ZM877.787 764.235C877.799 764.235 877.808 764.232 877.816 764.232C877.808 764.232 877.799 764.235 877.787 764.235ZM877.816 764.232C877.822 764.232 877.825 764.232 877.828 764.232C877.825 764.232 877.822 764.232 877.816 764.232ZM877.828 764.232C880.198 764.161 881.062 764.135 881.062 764.135C881.062 764.135 879.411 764.185 877.828 764.232Z" fill="#F9AA8B"/>
<path d="M803.365 429.129C802.914 429.129 802.465 428.923 802.177 428.53C788.914 410.537 771.741 419.808 771.019 420.212C770.309 420.607 769.413 420.356 769.015 419.646C768.617 418.935 768.87 418.038 769.578 417.64C769.778 417.528 789.718 406.662 804.55 426.779C805.033 427.433 804.892 428.359 804.237 428.84C803.975 429.035 803.668 429.129 803.365 429.129" fill="#F5786C"/>
<path d="M754.567 335.345C758.145 338.919 761.397 342.714 764.498 346.668C767.576 350.629 770.459 354.754 773.039 359.08C775.58 363.429 777.844 367.962 779.645 372.715C781.349 377.501 782.558 382.499 782.962 387.651C783.027 388.465 782.416 389.176 781.609 389.237C780.795 389.302 780.084 388.695 780.023 387.884L780.02 387.863L780.017 387.798C779.731 382.998 778.693 378.235 777.148 373.606C775.509 369.006 773.401 364.559 771.005 360.262C768.57 355.984 765.816 351.876 762.865 347.916C759.902 343.973 756.733 340.131 753.334 336.598L753.314 336.577C752.978 336.226 752.989 335.669 753.337 335.333C753.682 335 754.228 335.009 754.567 335.345" fill="#F5786C"/>
<path d="M764.534 329.671C769.339 332.159 772.865 335.86 776.161 339.753C779.398 343.683 782.216 347.935 784.633 352.385C787.136 356.797 789.2 361.42 791.166 366.08L793.846 373.169L796.231 380.358C796.484 381.133 796.065 381.965 795.293 382.221C794.521 382.478 793.686 382.059 793.43 381.287L793.424 381.266L793.403 381.201L791.192 374.08L788.684 367.064C786.841 362.458 784.898 357.882 782.537 353.529C780.252 349.133 777.585 344.945 774.525 341.085C771.482 337.293 767.912 333.572 763.82 331.36L763.682 331.284C763.24 331.045 763.074 330.49 763.313 330.048C763.549 329.612 764.094 329.444 764.534 329.671Z" fill="#F5786C"/>
<path d="M780.73 332.17C784.038 334.842 786.965 337.8 789.73 340.949C792.493 344.092 795.034 347.433 797.304 350.957C799.592 354.466 801.658 358.135 803.371 361.974C805.181 365.775 806.507 369.783 807.719 373.82C807.955 374.601 807.513 375.424 806.732 375.657C805.953 375.89 805.131 375.447 804.895 374.669L804.889 374.642L804.868 374.566C803.795 370.661 802.619 366.76 800.956 363.045C799.391 359.288 797.475 355.678 795.335 352.208C793.212 348.722 790.812 345.402 788.192 342.267C785.583 339.135 782.735 336.128 779.672 333.527L779.634 333.494C779.274 333.188 779.227 332.645 779.533 332.282C779.837 331.929 780.368 331.878 780.73 332.17" fill="#F5786C"/>
<path d="M794.589 496.445C793.681 494.343 792.743 492.447 791.788 490.843C793.035 492.68 793.925 494.257 794.518 495.422L794.335 495.561L794.589 496.445V496.445ZM789.038 487.165C789.032 487.157 789.023 487.151 789.017 487.145H789.02C789.026 487.151 789.032 487.157 789.038 487.165Z" fill="#D3C7E8"/>
<path d="M806.434 537.656C806.434 537.656 801.216 511.721 794.589 496.444L794.335 495.559L794.518 495.42C793.926 494.256 793.035 492.678 791.788 490.841C790.883 489.322 789.963 488.069 789.038 487.164C789.032 487.155 789.026 487.149 789.02 487.143L834.655 481.508L806.434 537.656" fill="#F9AA8B"/>
<path d="M605.622 645.255L605.628 645.305C604.923 645.29 604.227 645.255 603.517 645.255H459.313C428.002 645.255 401.299 664.917 390.831 692.568L390.816 692.563L390.598 693.161L390.492 693.45L329.162 860.681L386.096 867.646V1053.36H695.966L719.137 764.319H773.042V644.671L605.622 645.255Z" fill="white"/>
<path d="M774.64 764.32H720.739H773.042V644.678L774.64 644.672V645.256V764.32Z" fill="#B2C2E8"/>
<path d="M773.042 764.32H720.738L720.992 761.162C720.992 698.792 671.737 647.951 610.017 645.38L610.014 645.359L773.042 644.678V764.32" fill="#F6F6F7"/>
<path d="M717.142 772.183L658.904 760.627C652.009 759.256 645.246 763.782 643.875 770.68L632.242 829.332L617.166 905.343C615.795 912.243 620.321 919.008 627.216 920.379L651.056 925.109L685.457 931.936C692.355 933.304 699.118 928.777 700.485 921.88L706.199 893.064L715.488 846.246L727.197 787.217C728.562 780.319 724.04 773.555 717.142 772.183Z" fill="#1C1B21"/>
<path d="M723.247 850.457C722.522 848.93 721.369 847.718 719.986 846.875C719.739 846.509 719.535 846.143 719.27 845.775C719.27 845.775 718.745 845.84 717.876 845.952C716.864 845.654 715.794 845.515 714.706 845.598C703.009 846.512 674.861 848.709 657.633 850.053C648.324 850.782 639.014 848.844 630.762 844.471L629.386 843.737L632.242 829.332C629.161 833.109 626.034 836.84 622.714 840.366C621.031 840.461 611.423 841.31 602.435 848.016C599.101 850.366 595.82 853.486 593.025 857.661C589.517 862.907 585.729 866.528 582.474 869C580.57 870.374 578.875 871.35 577.595 871.993L577.483 871.833L447.671 903.978L447.076 904.126L453.664 874.891L334.223 860.416L307.962 974.809C299.994 1009.51 321.662 1044.11 356.357 1052.08C368.803 1054.94 381.205 1053.33 391.98 1048.4C394.088 1047.65 396.175 1046.78 398.239 1045.8L617.962 937.613L647.746 926.445C647.746 926.445 648.951 925.985 651.056 925.11L650.62 925.024C664.21 919.486 740.41 886.542 723.247 850.457" fill="#FAB892"/>
<path d="M314.48 944.328C314.507 944.177 314.566 943.882 314.66 943.42C314.578 943.829 314.516 944.148 314.48 944.328ZM314.66 943.42C314.675 943.332 314.696 943.239 314.713 943.143C314.696 943.239 314.675 943.334 314.66 943.42Z" fill="#D3C7E8"/>
<path d="M315.627 938.523L316.37 938.181L316.341 938.311C315.872 938.45 315.627 938.523 315.627 938.523" fill="#D3C7E8"/>
<path d="M316.341 938.305L316.37 938.175L452.656 875.572L452.836 875.595C448.785 893.25 449.555 892.212 446.872 904.564L353.341 927.727C351.51 928.22 349.735 928.807 347.993 929.444C331.744 933.755 319.365 937.402 316.341 938.305" fill="#F9AA8B"/>
<path d="M314.714 943.141C314.814 942.636 314.929 942.05 315.047 941.454C314.911 942.144 314.799 942.71 314.714 943.141Z" fill="#D3C7E8"/>
<path d="M315.047 941.461C315.338 939.984 315.627 938.524 315.627 938.524C315.389 939.733 315.206 940.659 315.047 941.461Z" fill="#D3C7E8"/>
<path d="M463.917 876.961L463.735 876.949L453.484 875.684L453.664 874.894L436.489 872.812C436.401 872.591 436.365 872.343 436.398 872.089C436.489 871.346 437.132 870.795 437.851 870.795C437.913 870.795 437.978 870.798 438.04 870.807L462.679 873.847L476.399 786.285C476.514 785.551 477.145 785.04 477.867 785.04C477.938 785.04 478.012 785.046 478.085 785.055C478.887 785.182 479.439 785.937 479.312 786.739L465.374 875.714C465.259 876.439 464.634 876.961 463.917 876.961" fill="#ADACB0"/>
<path d="M453.484 875.68L452.836 875.6C452.845 875.562 452.854 875.52 452.862 875.482L452.656 875.576L437.68 873.728C437.126 873.663 436.681 873.294 436.489 872.807L453.664 874.889L453.484 875.68Z" fill="#AB806B"/>
<path d="M452.835 875.602L452.656 875.578L452.862 875.484C452.853 875.522 452.844 875.563 452.835 875.602" fill="#AB7667"/>
<path d="M494.358 892.32L522.695 885.399L494.789 892.309L494.358 892.32Z" fill="#FEF6F8"/>
<path d="M494.789 892.312L522.695 885.403L579.603 871.506C581.499 881.676 566.369 890.991 555.421 890.991C554.654 890.991 553.905 890.944 553.186 890.85L494.789 892.312" fill="#F9B08E"/>
<path d="M679.953 607.592L659.945 471.389C657.755 456.465 653.418 442.397 647.342 429.404L658.203 427.658C658.203 427.658 650.576 317.107 526.622 343.502C514.414 342.24 501.853 342.452 489.153 344.319C428.934 353.168 387.287 409.172 396.137 469.408L407.8 548.805C416.647 609.04 472.635 650.695 532.854 641.846L669.402 621.776C676.233 620.771 680.955 614.422 679.953 607.592" fill="#1C1B21"/>
<path d="M597.721 423.32C596.996 423.32 596.365 422.784 596.262 422.046C596.153 421.238 596.716 420.495 597.524 420.383L637.384 414.937C637.702 414.896 637.994 414.722 638.183 414.456C638.289 414.312 638.454 414.008 638.386 413.616C631.942 377.676 598.842 361.094 598.508 360.932C597.777 360.575 597.474 359.691 597.83 358.959C598.19 358.228 599.077 357.924 599.803 358.284C600.148 358.452 634.571 375.65 641.287 413.094C641.481 414.185 641.228 415.285 640.567 416.19C639.907 417.101 638.893 417.709 637.782 417.862L597.922 423.306L597.721 423.32" fill="#FCF2E3"/>
<path d="M636.119 431.2L527.008 448.737L500.526 409.559C505.726 453.272 473.504 481.507 473.504 481.507C473.504 481.507 473.174 481.056 472.602 480.228L471.697 480.396C454.623 483.592 443.267 500.185 446.462 517.262C449.658 534.344 466.244 545.7 483.318 542.504L485.406 542.114C489.135 558.492 497.545 572.679 509.016 583.454V653.403C509.016 678.197 529.298 698.484 554.085 698.484C578.875 698.484 599.154 678.197 599.154 653.403V598.163C617.107 589.897 631.163 575.463 639.188 558.009L639.238 557.929C648.99 541.587 653.07 521.768 649.294 501.589L636.119 431.2" fill="#FAB892"/>
<path d="M509.016 583.461C497.681 572.816 489.273 558.862 485.476 542.732C485.467 542.688 485.479 542.643 485.515 542.593C489.297 558.77 497.657 572.786 509.016 583.458V583.461V583.461ZM628.248 575.576C632.608 570.221 636.284 564.323 639.176 558.036C639.197 558.004 639.217 557.968 639.238 557.933C636.334 564.261 632.637 570.191 628.248 575.576Z" fill="#5E343B"/>
<path d="M554.085 624.586C530.699 624.586 511.345 606.521 509.228 583.656C509.158 583.591 509.087 583.524 509.016 583.459V583.456C497.657 572.784 489.297 558.768 485.515 542.591C485.921 542.01 489.365 541.12 491.381 541.12C492.154 541.12 492.717 541.249 492.823 541.577C503.654 574.948 534.92 597.439 569.671 597.436C574.606 597.436 579.618 596.982 584.647 596.038C608.358 591.597 627.688 577.228 639.176 558.034C636.284 564.321 632.608 570.219 628.248 575.574C619.377 586.458 607.683 595.11 594.01 600.297C586.46 614.693 571.384 624.586 554.085 624.586" fill="#F89F88"/>
<path d="M468.396 521.781C467.956 521.781 467.523 521.587 467.231 521.212C466.733 520.569 466.848 519.643 467.491 519.142L477.296 511.534L464.781 499.724C464.192 499.167 464.162 498.232 464.722 497.639C465.282 497.049 466.214 497.023 466.807 497.58L480.568 510.573C480.88 510.868 481.048 511.286 481.031 511.714C481.007 512.144 480.801 512.545 480.462 512.808L469.301 521.472C469.029 521.681 468.711 521.781 468.396 521.781Z" fill="#F5786C"/>
<path d="M546.904 468.022C548.218 467.986 549.572 467.187 550.925 466.494C552.269 465.766 553.64 465.067 554.851 464.501C556.066 463.935 557.484 463.333 558.908 462.77C560.308 462.18 561.797 461.652 562.655 460.676C563.492 459.75 563.327 458.291 561.369 457.312C559.506 456.341 555.709 456.111 551.685 457.975C547.679 459.856 545.462 462.891 545.052 464.923C544.595 467.025 545.642 468.072 546.904 468.022" fill="#1C1B21"/>
<path d="M625.105 454.424C623.832 454.749 622.311 454.359 620.819 454.065C619.324 453.737 617.815 453.445 616.491 453.239C615.168 453.029 613.641 452.844 612.116 452.696C610.607 452.516 609.033 452.419 607.936 451.72C606.878 451.06 606.63 449.612 608.24 448.132C609.764 446.684 613.349 445.413 617.729 446.091C622.104 446.79 625.07 449.093 626.025 450.93C627.048 452.826 626.332 454.124 625.105 454.424" fill="#1C1B21"/>
<path d="M580.927 529.035C568.831 529.035 560.762 519.543 560.662 519.419C560.143 518.794 560.229 517.865 560.854 517.343C561.479 516.827 562.407 516.907 562.926 517.532C563.398 518.092 574.583 531.161 590.21 523.946C590.95 523.601 591.825 523.925 592.167 524.665C592.509 525.405 592.185 526.281 591.445 526.623C587.701 528.351 584.167 529.035 580.927 529.035" fill="#F5786C"/>
<path d="M589.726 508.453C589.034 508.453 588.417 507.967 588.279 507.265C588.123 506.466 588.644 505.69 589.443 505.534L599.808 503.493C606.253 502.222 610.46 495.95 609.192 489.507C608.735 487.177 606.468 485.665 604.142 486.116C598.691 487.18 593.394 483.627 592.321 478.181L589.818 465.459C589.661 464.66 590.18 463.885 590.979 463.728C591.778 463.572 592.556 464.091 592.713 464.89L595.216 477.609C595.97 481.463 599.729 483.978 603.573 483.22C605.48 482.852 607.406 483.238 609.012 484.314C610.622 485.393 611.713 487.036 612.087 488.935C613.667 496.973 608.417 504.803 600.377 506.386L590.012 508.427L589.726 508.453" fill="#F5786C"/>
<path d="M560.358 492.907C558.386 493.275 556.47 491.963 556.101 489.99L555.288 485.641C554.919 483.668 556.228 481.751 558.2 481.383C560.173 481.014 562.089 482.323 562.457 484.296L563.274 488.649C563.642 490.621 562.331 492.535 560.358 492.907" fill="#1C1B21"/>
<path d="M622.178 482.859C620.206 483.23 618.29 481.918 617.921 479.945L617.107 475.593C616.736 473.62 618.048 471.706 620.02 471.335C621.992 470.966 623.908 472.278 624.277 474.251L625.09 478.601C625.459 480.574 624.147 482.49 622.178 482.859" fill="#1C1B21"/>
<path d="M544.831 510.773C542.567 510.773 540.598 509.06 540.341 506.76C540.064 504.289 541.857 502.042 544.324 501.765L556.774 500.364C556.942 500.346 557.113 500.335 557.278 500.335C559.542 500.335 561.508 502.048 561.768 504.351C562.045 506.819 560.252 509.066 557.782 509.346L545.335 510.744C545.167 510.765 544.996 510.773 544.831 510.773" fill="#F9AA8B"/>
<path d="M628.534 497.586C626.27 497.586 624.3 495.87 624.041 493.57C623.764 491.101 625.556 488.852 628.027 488.574L640.476 487.177C640.644 487.156 640.812 487.147 640.98 487.147C643.241 487.147 645.21 488.86 645.467 491.16C645.747 493.632 643.952 495.879 641.484 496.156L629.038 497.556C628.867 497.574 628.699 497.586 628.534 497.586" fill="#F9AA8B"/>
<path d="M604.617 561.125C604.316 561.125 604.012 561.031 603.75 560.839C597.948 556.596 591.926 560.683 591.672 560.857C591.003 561.323 590.089 561.157 589.623 560.494C589.157 559.828 589.317 558.91 589.98 558.442C592.71 556.522 599.464 554.051 605.489 558.459C606.147 558.94 606.288 559.863 605.811 560.52C605.522 560.916 605.074 561.125 604.617 561.125Z" fill="#F5786C"/>
<path d="M1058.62 297.992H1031.77L979.492 212.235V297.992H952.637V167.656H979.492L1031.86 253.592V167.656H1058.62V297.992Z" fill="white"/>
<line x1="911.799" y1="219.994" x2="1090.8" y2="216.994" stroke="white" stroke-width="24"/>
<line x1="911.799" y1="260.994" x2="1090.8" y2="257.994" stroke="white" stroke-width="24"/>
<g clip-path="url(#clip0)">
<path d="M819.468 181.398C797.144 148.897 793 145.562 793 133.617C793 117.256 806.208 103.992 822.5 103.992C838.792 103.992 852 117.256 852 133.617C852 145.562 847.856 148.897 825.532 181.398C824.067 183.524 820.933 183.523 819.468 181.398ZM822.5 145.961C829.289 145.961 834.792 140.434 834.792 133.617C834.792 126.8 829.289 121.273 822.5 121.273C815.711 121.273 810.208 126.8 810.208 133.617C810.208 140.434 815.711 145.961 822.5 145.961Z" fill="white"/>
</g>
<defs>
<clipPath id="clip0">
<rect x="793" y="103.992" width="59" height="79" fill="white"/>
</clipPath>
</defs>
</svg>
