<svg xmlns="http://www.w3.org/2000/svg" height="512" viewBox="0 0 512 511" width="512"><path d="M-.984 143.371c0-10.398 4.062-20.598 11.734-28.281l97.754-97.961C119.848 5.762 134.938-.5 150.996-.5s31.152 6.262 42.496 17.629l97.754 97.96c11.492 11.513 14.887 28.665 8.652 43.696-6.226 15.012-20.742 24.711-36.976 24.711H171C171 342.301 300.2 471.5 459.004 471.5H491c11.047 0 20 8.953 20 20s-8.953 20-20 20h-31.996c-87.613 0-169.984-34.117-231.938-96.07-61.949-61.953-96.07-144.32-96.07-231.934 0-22.058 17.945-40.004 40-40.004h91.938a.85.85 0 00.043-.105c-.016-.012-.028-.028-.043-.043l-97.758-97.961c-3.785-3.793-8.82-5.883-14.18-5.883s-10.394 2.09-14.18 5.883l-97.753 97.96-.043.044c.011.035.023.074.039.105h21.937c11.047 0 20 8.957 20 20.004 0 11.043-8.953 20-20 20H39.074c-16.234 0-30.75-9.7-36.976-24.71A40.16 40.16 0 01-.984 143.37zm0 0" data-original="#000000" class="active-path" data-old_color="#000000" fill="#FFF"/></svg>