<svg width="389" height="379" viewBox="0 0 389 379" fill="none" xmlns="http://www.w3.org/2000/svg">
<g clip-path="url(#clip0)">
<path d="M159.614 181.988C160.341 189.977 155.904 198.66 150.505 204.289C147.525 207.397 134.034 219.582 129.428 217.013C132.112 212.624 136.152 209.544 138.641 204.848C140.981 200.436 142.666 195.698 145.24 191.404C147.764 187.188 150.658 184.838 154.394 181.832C158.098 178.852 157.641 179.794 151.812 178.92C144.781 177.865 145.976 177.65 144.24 183.866C142.929 188.554 140.413 192.905 137.31 196.628C134.869 199.558 119.227 213.933 115.217 210.442C120.53 205.852 124.562 199.765 128.169 193.794C132.622 186.421 136.684 182.425 143.945 177.766C140.714 177.073 136.025 174.837 133.38 177.124C130.729 179.413 129.162 185.338 126.67 188.189C124.405 190.781 109.085 204.024 105.622 200.669C105.978 197.088 115.51 190.325 117.997 187.522C122.432 182.528 126.764 179.352 132.046 175.449C129.632 174.94 125.338 173.137 123.229 174.165C121.23 175.141 118.765 180.182 116.969 181.841C110.948 187.396 102.796 190.812 94.6249 191.056C103.932 185.644 111.128 176.992 121.404 173.204C118.421 172.481 114.02 170.46 111.312 171.644C108.693 172.79 105.926 177.182 103.268 178.849C96.737 182.941 87.916 185.518 80.225 184.994C84.637 181.776 90.2169 179.845 94.9139 176.986C96.9749 175.732 109.109 170.672 109.178 170.245C106.782 169.545 103.497 167.852 100.966 168.36C98.1099 168.93 94.9199 172.549 92.1719 173.833C85.6499 176.881 76.865 178.517 69.753 176.981C79.466 175.009 87.738 168.706 97.583 167.188C90.766 166.39 85.82 163.474 80.106 159.888C78.492 158.874 64.265 150.998 64.54 150.388C71.433 149.877 79.4879 152.476 85.5419 155.701C89.6529 157.892 96.95 167.533 101.201 166.849C94.884 160.866 93.498 151.725 88.053 145.136C93.29 148.5 98.088 152.806 100.86 158.496C103.561 164.042 102.033 169.172 109.781 169.082C102.582 162.197 101.659 150.862 96.6849 142.424C102.162 144.281 106.826 151.573 109.057 156.634C110.517 159.942 110.045 165.046 111.47 167.837C112.938 170.713 114.012 170.481 117.804 171.286C118.23 169.729 115.27 167.082 114.513 165.554C113.117 162.74 112.525 159.609 111.873 156.562C111.285 153.817 110.798 151.06 109.934 148.381C109.522 147.108 106.713 142.449 107.021 141.557C107.518 140.117 113.372 147.412 114.029 148.39C116.6 152.21 118.69 156.452 119.573 160.998C120.009 163.244 118.843 170.086 119.753 171.493C120.909 173.284 127.878 173.64 129.945 174.109C129.88 172.172 126.838 170.366 125.866 168.81C124.086 165.968 123.493 162.728 122.551 159.554C120.571 152.88 118.173 146.324 115.982 139.716C121.531 138.69 128.907 156.326 130.058 160.113C130.726 162.308 131.229 164.529 131.408 166.826C131.526 168.374 130.618 172.033 131.204 173.089C132.698 175.79 139.229 175.786 142.23 176.321C135.637 168.474 133.173 161.465 130.815 151.662C130.178 149.01 129.455 146.324 128.347 143.822C127.823 142.638 124.761 138.456 125.033 137.105C125.489 134.83 126.114 136.31 128.009 137.593C135.59 142.72 141.365 153.804 143.206 162.488C143.681 164.728 143.974 167.014 143.919 169.31C143.899 170.174 142.648 175.061 143.096 175.974C144.058 177.934 153.777 178.113 155.687 178.397C149.217 171.198 146.567 165.408 145.014 155.781C144.614 153.306 140.426 133.482 139.613 134.028C140.481 133.446 150.357 145.164 150.733 144.706C155.366 152.67 159.262 159.421 158.958 169.021C158.879 171.545 156.65 177.072 157.828 178.618C158.893 180.018 168.629 179.944 170.076 180.097C166.81 175.333 164.941 171.498 164.055 165.769C163.491 162.108 163.119 158.426 162.317 154.802C161.851 152.705 159.673 148.38 160.023 146.398C164.691 148.025 169.105 157.586 170.7 161.838C171.974 165.237 172.605 168.812 172.477 172.445C172.408 174.418 170.545 178.862 172.191 180.342C174.013 181.978 211.101 183.778 209.891 186.661C209.579 187.406 177.288 181.14 174.368 181.53C170.368 182.064 172.18 181.47 171.104 185.361C170.33 188.153 170.286 190.981 169.18 193.732C166.874 199.453 162.462 203.724 157.896 207.686C159.389 197.78 162.748 188.161 170.265 181.23C168.16 180.986 159.322 178.78 159.614 181.988Z" fill="#285832"/>
<path d="M269.735 153.825C280.773 149.581 292.603 146.228 304.125 142.411C309.364 140.676 314.133 139.004 318.837 137.12C322.731 135.561 326.171 133.789 326.881 129.372C328.759 117.701 313.313 99.6531 326.849 89.6317C339.703 80.1144 340.14 104.072 337.925 110.681C335.824 116.953 330.26 122.573 328.676 128.747C327.415 133.667 327.069 132.44 332.239 130.292C345.995 124.575 340.889 115.564 342.951 103.281C344.14 96.1917 356.301 77.4184 361.072 92.1624C364.956 104.169 350.912 115.84 343.74 123.128C346.984 127.02 364.081 109.42 367.252 107.129C371.608 103.981 384.8 96.8197 388.423 104.965C392.039 113.095 377.7 118.28 372.373 119.451C362.292 121.669 354.044 120.177 344.761 125.703C351.235 128.811 362.535 123.701 370.024 125.419C376.655 126.937 387.796 135.284 376.927 139.759C369.417 142.851 359.127 137.049 353.203 133.02C349.611 130.576 346.861 126.811 342.2 127.187C338.547 127.483 333.329 132.017 330.167 133.797C331.689 136.155 338.083 135.172 340.413 135.407C346.12 135.977 352.111 136.755 357.508 138.808C363.407 141.052 379.119 153.439 368.329 158.567C359.675 162.679 348 154.741 342.161 149.251C333.865 141.449 332.629 131.372 320.593 138.893C331.735 143.437 342.976 151.515 350.172 161.313C355.683 168.817 355.933 185.152 342.188 180.063C332.048 176.308 327.447 160.96 324.977 151.548C324.176 148.493 323.868 140.628 319.367 140.091C313.621 139.405 319.976 145.745 320.847 147.048C323.773 151.431 329.376 169.007 320.311 169.923C309.747 170.992 313.296 152.12 314.4 147.323C315.603 142.107 316.816 142.917 313.12 141.937C309.275 140.919 297.48 147.089 293.401 148.475C284.849 151.381 275.821 152.429 267.727 156.825C267.677 155.324 268.347 154.324 269.735 153.825Z" fill="#4BAD4E"/>
<path d="M317.571 130.213C310.982 122.507 303.747 114.077 300.847 104.115C299.126 98.1988 299.35 87.1495 308.186 88.1628C323.411 89.9081 322.203 131.193 318.693 131.02C318.319 130.752 317.945 130.483 317.571 130.213Z" fill="#4BAD4E"/>
<path d="M314.394 137.605C314.398 137.607 314.402 137.608 314.406 137.611C314.401 137.619 314.397 137.616 314.394 137.605Z" fill="#4BAD4E"/>
<path d="M295.026 123.826C292.67 115.405 302.231 119.71 305.519 122.304C310.334 126.104 313.131 131.673 314.393 137.605C307.394 134.02 297.493 132.646 295.026 123.826Z" fill="#4BAD4E"/>
<path d="M169.81 111.148C169.728 111.193 169.644 111.237 169.561 111.283C169.658 111.264 169.75 111.236 169.81 111.148ZM156.96 95.4802C157.684 95.8388 166.63 101.017 167.014 100.824C167.634 100.513 166.212 95.8121 165.75 95.2748C164.493 93.8081 161.702 93.9135 159.956 93.5428C151.486 91.7481 144.596 86.7562 137.674 81.7548C139.569 80.3108 150.701 86.7001 153.069 87.7028C155.904 88.9041 158.745 90.1201 161.436 91.6281C163.06 92.5388 164.38 94.3761 164.876 92.7628C166.389 87.8481 155.221 87.1228 152.84 86.1081C147.94 84.0201 140.553 80.0762 137.008 75.9828C141.974 77.9495 146.828 80.1722 151.705 82.3455C155.516 84.0428 159.493 87.2881 163.433 88.3055C162.569 82.5615 158.04 82.7801 153.376 80.9975C149.08 79.3561 141.902 75.5975 139.049 71.8428C143.862 72.9481 148.01 75.2642 152.237 77.7468C153.81 78.6722 159.717 83.7135 161.698 82.9202C161.634 81.7388 161.082 78.6775 160.329 77.7535C158.617 75.6522 156.134 76.6561 153.716 76.2321C148.989 75.4041 143.282 71.2855 139.733 68.1401C141.141 67.0708 149.388 71.3548 151.337 72.1708C152.576 72.6895 162.396 78.2522 158.876 72.9882C157.386 70.7615 152.022 70.4241 149.758 69.3975C146.314 67.8375 142.184 65.2348 139.454 62.6095C143.636 63.3295 147.366 65.2401 151.01 67.3255C152.649 68.2641 156.554 71.7815 158.513 71.0735C158.413 70.7775 157.762 69.6695 158.369 69.4615C159.273 69.1521 159.15 71.1921 159.686 71.4895C162.452 65.5588 165.877 59.9028 169.034 54.1748C171.612 57.3215 165.554 64.7175 163.933 67.0508C162.196 69.5468 157.721 74.0068 161.258 77.0455C161.541 76.2642 162.025 75.5348 162.282 74.7975C164.06 69.1041 168.322 63.4322 171.445 58.4148C172.402 60.0962 169.361 66.4388 168.765 68.0348C167.78 70.6668 166.666 72.7602 164.641 74.7108C163.121 76.1748 161.77 76.5842 161.522 78.8535C161.269 81.1775 163.608 86.5122 164.452 88.6455C166.924 86.2815 168.758 80.1855 170.601 76.9748C173.001 72.7908 175.413 68.6175 177.96 64.5228C179.33 66.9708 172.725 78.7815 171.249 81.1361C169.769 83.4988 167.472 85.2788 166.022 87.6202C164.382 90.2682 165.489 91.0842 166.156 93.9522C169.173 90.3295 171.052 84.6442 173.59 80.5148C175.856 76.8322 178.297 70.5335 181.886 67.9868C179.733 74.5655 177.513 81.2961 173.534 87.0295C171.938 89.3308 168.926 91.2615 167.606 93.5828C166.077 96.2748 167.676 98.6508 168.66 101.443C175.041 92.4188 179.692 81.5068 185.352 71.9348C184.657 78.8855 181.23 84.3762 177.442 90.0535C174.59 94.3282 168.046 99.9268 169.949 105.239C173.121 102.527 175.33 97.0788 178.034 93.7028C181.117 89.8548 184.268 86.0561 187.43 82.2748C188.293 85.1895 181.678 93.4962 180.057 96.1495C178.677 98.4122 177.186 100.271 175.149 101.963C173.421 103.396 171.093 104.188 170.656 106.585C170.393 108.02 171.776 111.674 172.609 112.925C173.861 114.809 172.764 114.681 174.894 113.128C177.206 111.444 179.384 108.119 181.497 106.043C183.898 103.683 186.289 101.312 188.689 98.9522C189.001 102.292 182.214 110.065 179.678 111.817C178.368 112.724 175.856 113.177 174.82 114.287C174.052 115.111 173.06 119.064 174.69 119.26C175.701 119.381 178.966 114.929 179.722 114.232C182.186 111.961 184.88 109.96 187.402 107.757C187.038 112.96 181.553 117.288 177.429 119.353C174.56 120.789 174.841 119.879 175.958 123.864C176.616 126.209 178.962 131.341 177.958 133.721C175.981 129.901 177.13 121.849 172.024 121.693C169.373 121.613 167.313 122.468 164.517 121.676C161.82 120.913 159.348 119.389 157.029 117.849C161.421 118.301 165.898 118.283 170.212 119.329C172.506 119.885 172.956 120.971 173.792 119.604C174.588 118.305 172.54 115.533 171.458 115.067C170.318 114.576 168.333 115.462 167.161 115.628C164.573 115.992 162.761 116.041 160.209 115.353C156.278 114.292 152.13 112.744 148.586 110.735C154.036 111.56 159.561 111.86 164.984 112.869C165.448 112.956 174.361 115.699 171.558 112.345C169.71 110.132 161.945 111.078 159.184 110.325C153.861 108.876 148.737 105.685 143.716 103.397C145.338 101.089 155.609 105.502 157.469 106.226C160.628 107.452 167.477 111.868 170.797 111.211C171.589 111.055 169.485 106.327 168.644 105.847C166.265 104.492 161.909 105.709 159.142 104.941C152.865 103.197 146.693 99.6161 140.846 96.7361C142.816 95.5921 168.232 102.953 168.232 104.919C171.288 104.255 164.616 100.879 164.242 100.735C160.638 99.3521 156.986 98.0788 153.36 96.7561C148.53 94.9961 138.762 91.7095 137.136 86.0522C143.844 88.9455 150.41 92.2402 156.96 95.4802Z" fill="#285832"/>
<path d="M177.276 107.023C175.927 108.144 174.652 109.356 173.343 110.525C172.653 109.863 178.895 101.032 179.791 99.684C182.453 95.6813 185.423 91.8586 189.328 89C185.764 95.1093 182.817 102.412 177.276 107.023Z" fill="#285832"/>
<path d="M163.528 83.3107C166.301 74.6774 171.863 63.9627 174.709 61.7627C172.851 69.8601 167.357 80.4441 163.528 83.3107Z" fill="#285832"/>
<path d="M140.869 59.0957C146.047 60.9064 152.405 62.7904 156.689 66.3677C150.301 66.9864 145.701 62.5064 140.869 59.0957Z" fill="#285832"/>
<path d="M159.244 65.4573C158.613 66.24 158.142 67.1106 157.83 68.068C157.748 67.536 156.881 66.7613 156.728 66.3986C156.525 66.228 157.08 64.552 156.75 64.056C155.873 62.7373 154.717 62.4333 153.274 61.9507C148.741 60.4347 145.381 58.2253 141.206 55.8026C143.636 56.0853 154.445 62.496 155.585 61.3346C157.776 59.1026 151.99 58.0453 151.214 57.8253C148.64 57.0933 145.625 55.852 143.876 53.6986C146.378 54.6226 152.06 58.1146 154.608 57.7746C156.62 57.5066 152.137 54.436 152.252 54.5026C149.688 53.0053 147.389 52.08 144.901 50.2093C147.694 51.2133 150.424 52.384 152.994 53.876C153.252 54.0813 153.521 54.1 153.801 53.9333C154.402 53.1546 148.038 46.8173 148.625 44.0187C150.045 46.1987 151.465 48.3786 152.885 50.5586C153.44 46.4506 151.7 43.7826 153.362 39.5986C154.072 42.4226 152.62 50.668 154.818 52.9226C155.777 49.928 157.69 47.3786 159.425 44.8093C157.456 50.3733 152.873 55.2773 156.79 60.976C159.53 57.2826 160.129 52.5026 163.67 49.272C162.834 52.4933 161.986 56.168 159.877 58.82C157.478 61.8347 156.824 61.5173 157.85 65.7746C161.064 62.9026 163.624 56.4066 165.937 52.5933C166.802 56.4773 162.388 63.5706 159.244 65.4573Z" fill="#285832"/>
<path d="M155.855 57.0438C154.837 56.0212 161.558 48.0158 162.266 47.0732C161.025 49.9052 159.542 56.2372 155.855 57.0438Z" fill="#285832"/>
<path d="M281.699 93.7884C281.572 93.7791 281.442 93.7684 281.316 93.759C281.44 93.8097 281.567 93.8457 281.699 93.7884ZM278.385 66.475C278.953 67.415 285.417 79.8844 285.994 79.9457C286.928 80.0444 288.716 73.6324 288.578 72.679C288.205 70.083 284.941 68.1577 283.214 66.4564C274.842 58.2004 270.593 47.4484 266.316 36.6644C269.525 36.403 277.608 51.8577 279.584 54.7377C281.95 58.1884 284.316 61.6591 286.294 65.3524C287.49 67.5844 287.664 70.6484 289.4 69.171C294.696 64.6644 282.464 55.6524 280.48 52.7497C276.398 46.7737 270.821 36.8551 269.741 29.5831C273.988 35.4671 277.917 41.5631 281.913 47.6177C285.036 52.3497 287.224 58.9724 290.986 63.0204C294.169 55.8244 288.835 52.7564 284.801 47.303C281.084 42.2817 275.612 32.7284 275.079 26.3484C279.775 31.1377 282.83 36.8217 285.858 42.7564C286.986 44.9657 290.074 55.0524 292.913 55.5977C293.698 54.2004 295.289 50.299 295.1 48.6924C294.666 45.0364 291.102 44.3657 288.646 42.1084C283.848 37.699 280.319 28.8137 278.545 22.6191C280.929 22.4297 287.242 33.3657 288.876 35.7257C289.914 37.227 297.097 50.7764 296.896 42.1831C296.809 38.5484 290.928 34.2324 289.085 31.403C286.284 27.095 283.452 21.095 282.241 16.0977C286.495 19.983 289.37 24.8991 292.02 29.9511C293.21 32.2244 295.118 39.1044 297.87 39.7297C297.97 39.319 298.03 37.5764 298.876 37.7831C300.133 38.0924 298.513 40.3324 298.91 41.0657C306.372 36.315 314.388 32.3657 322.152 28.135C322.812 33.6177 310.526 37.6297 306.981 39.1044C303.185 40.6844 294.837 42.5017 296.673 48.5644C297.564 47.879 298.645 47.4004 299.474 46.747C305.636 41.543 314.62 38.1884 321.829 34.7457C321.702 37.3657 313.626 42.3844 311.786 43.771C308.752 46.0564 305.962 47.631 302.23 48.375C299.433 48.9337 297.593 48.4124 295.662 50.823C293.688 53.291 292.488 61.1004 291.905 64.1564C296.444 63.2657 302.964 57.6457 307.397 55.3284C313.174 52.3084 318.958 49.3084 324.84 46.4937C324.629 50.2964 308.514 58.9484 305.12 60.5577C301.713 62.1724 297.798 62.5217 294.441 64.135C290.648 65.959 291.32 67.7004 290 71.4657C296.077 69.5377 302.348 64.419 308.245 61.563C313.502 59.015 320.862 53.6084 326.812 53.3297C319.577 59.2684 312.157 65.3284 303.454 68.9644C299.96 70.423 295.117 70.4217 291.926 72.107C288.225 74.0617 288.326 77.9483 287.425 81.8577C301.262 76.2243 314.496 67.167 327.906 60.379C322.068 67.8097 314.17 71.571 305.722 75.2817C299.364 78.075 287.825 79.6764 286.145 87.139C291.737 86.3644 298.213 81.7604 303.752 79.8857C310.065 77.7484 316.421 75.7164 322.777 73.7137C321.649 77.675 308.064 82.3176 304.288 84.1617C301.069 85.7337 298.017 86.7657 294.462 87.2057C291.449 87.5777 288.215 86.7764 285.975 89.195C284.635 90.6417 283.563 95.8297 283.605 97.8697C283.671 100.939 282.508 99.9869 286.069 99.7749C289.933 99.5443 294.833 97.3417 298.754 96.5191C303.209 95.5831 307.66 94.6257 312.114 93.6871C310.048 97.7324 296.654 101.639 292.485 101.783C290.332 101.857 287.132 100.535 285.143 101.044C283.669 101.421 279.666 105.212 281.386 106.631C282.453 107.508 289.413 104.815 290.784 104.573C295.245 103.784 299.774 103.472 304.254 102.804C300.064 108.479 290.658 109.405 284.449 108.743C280.128 108.283 281.11 107.447 279.496 112.819C278.545 115.979 277.5 123.561 274.628 125.545C275.14 119.732 282.296 111.376 276.575 107.456C273.605 105.423 270.633 104.889 268.011 101.936C265.484 99.0896 263.767 95.535 262.235 92.0804C266.923 95.8124 272.052 99.0737 276.22 103.427C278.438 105.744 278.164 107.312 280.111 106.364C281.963 105.463 281.635 100.796 280.737 99.4724C279.791 98.0763 276.881 97.635 275.421 96.9644C272.201 95.4844 270.095 94.2137 267.679 91.5564C263.96 87.4657 260.342 82.6577 257.752 77.767C263.38 82.7004 269.473 87.091 274.936 92.2177C275.403 92.6563 283.594 102.32 282.828 96.4377C282.321 92.5536 272.764 87.9457 270.154 85.0617C265.126 79.5057 261.589 72.107 257.511 65.815C261.041 64.367 269.572 76.9337 271.172 79.123C273.889 82.839 278.51 92.9017 282.78 94.583C283.798 94.983 284.825 88.0417 284.212 86.8777C282.477 83.587 276.617 81.7857 274.014 78.8817C268.109 72.2897 263.657 63.6764 259.068 56.103C262.148 56.2377 285.84 83.271 284.414 85.515C288.388 86.995 283.216 78.251 282.893 77.8124C279.778 73.5924 276.532 69.463 273.348 65.295C269.109 59.7444 260.334 48.8337 262.581 41.1777C268.145 49.399 273.256 57.9737 278.385 66.475Z" fill="#285832"/>
<path d="M293.22 94.5438C290.863 94.8385 288.528 95.2865 286.186 95.6651C285.878 94.4011 299.416 88.8865 301.416 88.0038C307.363 85.3811 313.527 83.1905 320.064 82.7852C311.56 87.1532 302.894 93.3385 293.22 94.5438Z" fill="#285832"/>
<path d="M294.72 57.384C304.153 49.5547 318.28 41.3866 323.129 40.96C315.129 48.848 301.176 56.916 294.72 57.384Z" fill="#285832"/>
<path d="M286.404 13.1201C291.006 18.9814 296.902 25.7921 299.199 33.0188C291.454 29.0441 289.45 20.5574 286.404 13.1201Z" fill="#285832"/>
<path d="M302.778 33.848C301.49 34.2813 300.321 34.9293 299.269 35.7946C299.562 35.128 299.133 33.608 299.222 33.0813C299.113 32.736 300.963 31.228 300.946 30.4213C300.901 28.272 299.801 27.0786 298.503 25.4706C294.425 20.416 292.189 15.4293 289.179 9.604C291.749 11.7066 299.445 26.9493 301.59 26.4586C305.713 25.5133 299.871 20.0667 299.143 19.2467C296.733 16.5253 294.19 12.8986 293.754 9.15599C295.942 12.0453 299.901 20.1973 303.057 21.676C305.551 22.844 302.658 16.0506 302.741 16.212C300.898 12.6213 298.942 9.88002 297.458 5.92135C299.921 9.11469 302.189 12.4506 304.043 16.04C304.189 16.4626 304.482 16.6813 304.922 16.6973C306.175 16.248 303.502 4.34534 306.203 1.57734C306.243 5.10801 306.283 8.63867 306.325 12.168C309.938 7.884 309.887 3.56 314.823 0C313.583 3.74533 305.943 12.1013 306.819 16.2853C310.086 13.5693 314.122 12.0586 317.967 10.3933C311.681 15.3066 302.889 17.552 303.227 26.932C309.038 24.72 313.189 19.6986 319.579 18.604C316.287 21.6706 312.651 25.2466 308.318 26.7293C303.39 28.4173 302.873 27.5733 300.955 33.1906C306.711 32.2626 314.349 26.7173 319.758 24.0586C317.93 29.128 307.739 33.9973 302.778 33.848Z" fill="#285832"/>
<path d="M305.014 21.7545C304.592 19.8399 318.079 15.6198 319.572 15.0625C316.1 17.3878 309.81 23.5345 305.014 21.7545Z" fill="#285832"/>
<path d="M172.907 137.184C172.131 143.169 167.329 148.829 162.303 152.089C159.53 153.89 147.289 160.657 144.225 158.025C146.987 155.234 150.559 153.626 153.225 150.58C155.73 147.718 157.794 144.51 160.455 141.773C163.067 139.085 165.65 137.829 168.979 136.225C172.279 134.636 171.777 135.253 167.507 133.668C162.357 131.754 163.297 131.792 160.949 136.076C159.178 139.306 156.55 142.094 153.582 144.328C151.246 146.085 137.011 154.112 134.553 150.898C139.339 148.386 143.405 144.569 147.129 140.766C151.726 136.072 155.466 133.794 161.739 131.548C159.407 130.516 156.227 128.114 153.843 129.365C151.455 130.617 149.285 134.717 146.925 136.408C144.777 137.945 130.974 145.192 128.909 142.168C129.773 139.594 138.115 136.172 140.466 134.514C144.653 131.562 148.462 129.932 153.111 127.92C151.367 127.154 148.414 125.137 146.646 125.55C144.97 125.942 142.266 129.248 140.63 130.174C135.146 133.281 128.405 134.47 122.174 133.328C130.122 130.858 137.01 125.668 145.423 124.549C143.283 123.536 140.285 121.338 138.037 121.77C135.863 122.188 133.038 124.966 130.747 125.76C125.122 127.709 118.013 128.174 112.274 126.545C116.15 124.894 120.697 124.38 124.73 123.04C126.499 122.452 136.531 120.7 136.654 120.396C134.955 119.496 132.747 117.72 130.747 117.682C128.489 117.641 125.47 119.782 123.177 120.281C117.73 121.464 110.805 121.244 105.671 118.965C113.358 119.089 120.67 115.798 128.379 116.276C123.347 114.586 120.085 111.644 116.353 108.085C115.298 107.08 105.83 98.9929 106.139 98.5889C111.446 99.3289 117.115 102.541 121.165 105.89C123.915 108.164 127.842 116.426 131.175 116.612C127.383 111.196 127.853 104.257 124.822 98.5356C128.231 101.854 131.15 105.794 132.303 110.421C133.43 114.932 131.419 118.452 137.303 119.641C132.995 113.418 134.178 104.944 131.81 97.9409C135.651 100.19 137.973 106.302 138.823 110.381C139.379 113.046 138.174 116.72 138.79 119C139.425 121.349 140.275 121.353 143.015 122.557C143.597 121.482 141.794 119.06 141.474 117.814C140.883 115.521 140.955 113.126 140.967 110.784C140.978 108.672 141.067 106.568 140.857 104.461C140.757 103.458 139.402 99.5823 139.783 98.9769C140.399 98.0009 143.622 104.305 143.958 105.129C145.27 108.352 146.149 111.805 146.063 115.288C146.021 117.006 144.002 121.845 144.457 123.025C145.035 124.528 150.254 125.916 151.743 126.596C152.014 125.162 150.011 123.342 149.533 122.044C148.657 119.668 148.746 117.192 148.559 114.709C148.167 109.486 147.441 104.282 146.878 99.0743C151.251 99.2196 153.91 113.366 154.153 116.334C154.294 118.054 154.306 119.766 154.059 121.484C153.893 122.64 152.598 125.18 152.865 126.05C153.55 128.276 158.497 129.33 160.681 130.208C156.99 123.377 156.287 117.832 156.13 110.25C156.087 108.2 155.986 106.108 155.562 104.092C155.362 103.138 153.737 99.5703 154.166 98.6209C154.89 97.0249 155.118 98.2142 156.341 99.4609C161.231 104.454 163.766 113.529 163.718 120.205C163.705 121.928 163.547 123.654 163.125 125.333C162.966 125.964 161.206 129.35 161.394 130.093C161.798 131.689 169.13 133.393 170.529 133.91C166.825 127.576 165.778 122.894 166.201 115.572C166.309 113.69 166.429 98.4516 165.722 98.7209C166.475 98.4343 172.011 108.638 172.371 108.364C174.558 114.962 176.387 120.552 174.565 127.554C174.085 129.394 171.479 133.093 172.113 134.42C172.689 135.62 180.075 137.142 181.146 137.488C179.463 133.46 178.683 130.341 178.966 125.99C179.146 123.209 179.475 120.445 179.469 117.654C179.465 116.038 178.533 112.508 179.127 111.11C182.393 113.06 184.149 120.797 184.65 124.178C185.051 126.88 184.935 129.609 184.235 132.256C183.855 133.694 181.706 136.657 182.707 138.01C183.815 139.508 211.609 146.83 210.215 148.752C209.854 149.249 186.435 139.421 184.159 139.234C181.041 138.98 182.511 138.837 181.05 141.52C180.001 143.446 179.498 145.517 178.202 147.357C175.506 151.186 171.455 153.609 167.338 155.781C170.114 148.746 174.257 142.225 181.101 138.35C179.546 137.832 173.219 134.78 172.907 137.184Z" fill="#338D40"/>
<path d="M311.486 95.6615C304.78 94.0815 298.918 88.0629 295.804 82.0882C294.086 78.7882 287.838 64.3696 291.19 61.2816C294.032 64.6869 295.44 68.8496 298.586 72.1776C301.542 75.3056 304.94 77.9842 307.738 81.2709C310.483 84.4962 311.607 87.5176 313.036 91.4122C314.454 95.2709 313.811 94.6376 316.114 90.0829C318.891 84.5869 318.739 85.6269 314.15 82.5042C310.688 80.1469 307.83 76.8909 305.644 73.3255C303.923 70.5175 296.479 53.7322 300.416 51.3842C302.707 57.0069 306.564 61.9829 310.446 66.5789C315.238 72.2522 317.383 76.6829 319.198 83.9255C320.644 81.4575 323.744 78.2109 322.604 75.4109C321.462 72.6069 317.062 69.7016 315.419 66.8749C313.926 64.3042 307.318 48.0922 310.995 46.1589C313.815 47.4282 316.723 57.1122 318.328 59.9229C321.188 64.9322 322.592 69.3616 324.331 74.7709C325.404 72.9229 328.044 69.8842 327.782 67.8682C327.532 65.9589 324.098 62.5562 323.236 60.6269C320.354 54.1602 319.795 46.5229 321.824 39.7349C323.694 48.8669 328.779 57.1442 329.062 66.6295C330.464 64.3735 333.312 61.3042 333.084 58.7549C332.866 56.2882 330.043 52.8136 329.411 50.1722C327.858 43.6856 328.164 35.7282 330.69 29.5456C332.107 34.0522 332.159 39.1669 333.206 43.8109C333.664 45.8482 334.478 57.2082 334.807 57.3816C336.03 55.6016 338.306 53.3616 338.583 51.1416C338.895 48.6376 336.819 45.0256 336.523 42.4149C335.818 36.2189 336.882 28.5482 340.072 23.1162C339.03 31.6442 341.907 40.1669 340.459 48.6789C342.968 43.2882 346.692 40.0149 351.172 36.2935C352.439 35.2429 362.734 25.6896 363.156 26.0816C361.691 31.8909 357.379 37.8069 353.099 41.9069C350.194 44.6909 340.35 48.0629 339.748 51.7469C346.344 48.1816 354.168 49.5362 361.022 46.8536C356.852 50.2442 352.036 53.0162 346.646 53.7442C341.391 54.4522 337.63 51.7962 335.59 58.1949C343.162 54.1509 352.646 56.4829 360.876 54.6935C357.87 58.6909 350.658 60.5389 345.926 60.9949C342.834 61.2922 338.804 59.5122 336.143 59.9229C333.399 60.3455 333.295 61.2922 331.607 64.1922C332.758 64.9682 335.722 63.2549 337.172 63.0482C339.847 62.6682 342.558 63.0335 345.216 63.3282C347.614 63.5935 349.992 63.9469 352.41 63.9655C353.559 63.9749 358.12 62.9335 358.763 63.4309C359.8 64.2322 352.263 67.0575 351.286 67.3322C347.472 68.4042 343.448 68.9669 339.503 68.4522C337.555 68.1989 332.3 65.3736 330.906 65.7389C329.132 66.2016 326.942 71.8362 325.996 73.4082C327.591 73.8829 329.892 71.8736 331.423 71.4989C334.224 70.8109 337.026 71.2042 339.867 71.2962C345.844 71.4882 351.839 71.3042 357.819 71.3042C357.139 76.1482 340.764 77.4042 337.366 77.3189C335.395 77.2696 333.448 77.0775 331.528 76.5962C330.235 76.2722 327.503 74.5296 326.484 74.7216C323.875 75.2149 322.098 80.5869 320.843 82.9096C329.034 79.6269 335.414 79.5109 344.042 80.2469C346.376 80.4456 348.762 80.5842 351.102 80.3549C352.208 80.2456 356.45 78.8682 357.478 79.4602C359.206 80.4549 357.828 80.5656 356.268 81.7749C350.024 86.6122 339.422 88.3389 331.846 87.4842C329.891 87.2642 327.948 86.8829 326.092 86.2109C325.395 85.9589 321.755 83.5962 320.89 83.7162C319.03 83.9736 316.235 91.9189 315.483 93.4122C323.111 90.0536 328.55 89.4536 336.815 90.8016C338.94 91.1469 356.23 93.1095 356.007 92.2922C356.244 93.1642 344.007 98.0909 344.275 98.5255C336.524 100.164 329.964 101.527 322.227 98.6589C320.192 97.9055 316.299 94.5656 314.718 95.1122C313.287 95.6056 310.692 103.633 310.172 104.783C314.944 103.396 318.578 102.903 323.486 103.739C326.623 104.273 329.722 104.972 332.892 105.299C334.727 105.488 338.846 104.876 340.364 105.704C337.767 109.1 328.774 110.123 324.875 110.275C321.76 110.396 318.675 109.94 315.751 108.844C314.163 108.249 311.051 105.505 309.395 106.456C307.566 107.507 295.986 137.521 293.968 135.741C293.444 135.28 307.358 110.429 307.835 107.921C308.491 104.487 308.482 106.139 305.606 104.192C303.542 102.795 301.248 101.987 299.311 100.327C295.279 96.8709 293.004 92.0776 291.023 87.2402C298.684 91.1709 305.603 96.5562 309.198 104.629C309.97 102.963 314.179 96.2975 311.486 95.6615Z" fill="#338D40"/>
<path d="M334.167 115.252C322.82 92.1453 296.201 54.7839 263.728 55.1719C222.865 55.6573 222.852 115.09 156.962 154.682C97.705 190.289 48.596 171.733 22.712 214.644C20.725 217.938 8.66202 238.946 12.29 262.576C22.045 326.097 148.341 395.514 246.533 350.634C336.379 309.57 369.817 187.845 334.167 115.252Z" fill="#9AB7E4"/>
<path d="M178.919 265.092H313.939C322.739 265.092 329.939 257.892 329.939 249.092V64.0596C329.939 55.2596 322.739 48.0596 313.939 48.0596H178.919C170.119 48.0596 162.919 55.2596 162.919 64.0596V249.092C162.919 257.892 170.119 265.092 178.919 265.092Z" fill="#DFE9F7"/>
<path d="M173.325 269.952H308.344C317.144 269.952 324.344 262.752 324.344 253.952V68.9189C324.344 60.1189 317.144 52.9189 308.344 52.9189H173.325C164.524 52.9189 157.325 60.1189 157.325 68.9189V253.952C157.325 262.752 164.524 269.952 173.325 269.952Z" fill="white"/>
<path d="M203.367 122.051C205.175 122.053 206.984 122.013 208.791 122.068C209.896 122.101 210.196 121.62 210.197 120.576C210.199 119.557 209.771 119.252 208.849 119.256C205.157 119.276 201.465 119.3 197.773 119.252C196.705 119.237 196.577 119.74 196.548 120.628C196.512 121.687 196.819 122.123 197.943 122.071C199.747 121.988 201.557 122.049 203.367 122.051Z" fill="#DFE9F7"/>
<path d="M250.207 203.618C254.517 203.644 263.366 203.053 272.029 197.422C277.633 193.781 280.781 189.574 281.613 188.422C282.958 186.562 286.381 181.44 287.713 173.87C288.633 168.638 288.326 163.192 286.801 157.533C285.783 153.765 284.045 150.384 281.975 147.129C281.241 145.973 280.621 145.496 279.325 146.634C268.751 155.913 258.121 165.124 247.515 174.366C241.039 180.01 234.617 185.718 228.074 191.284C226.842 192.332 227.173 192.981 228.027 193.748C233.211 198.392 239.049 201.733 246.037 202.761C247.439 202.969 248.818 203.329 250.207 203.618Z" fill="#463E7E"/>
<path d="M223.017 187.18C223.599 187.176 224.024 186.712 224.345 186.322C225.217 185.269 237.452 175.058 241.951 171.021C244.103 169.089 246.305 167.214 248.511 165.344C249.349 164.632 249.636 164.122 248.727 163.096C242.483 156.048 236.292 148.949 230.149 141.81C229.667 141.25 229.305 140.989 228.945 140.977C228.276 140.954 227.744 141.597 227.56 141.822C218.445 152.972 217.271 161.601 217.271 161.601C215.583 173.985 219.941 187.2 223.017 187.18Z" fill="#859CCB"/>
<path d="M251.65 162.084C252.365 162.476 252.578 161.729 252.916 161.439C260.386 155 267.832 148.532 275.286 142.076C276.269 141.225 276.346 140.58 275.198 139.691C270.565 136.101 265.486 133.639 259.729 132.332C256.04 131.496 252.397 131.604 248.721 131.684C246.052 131.741 245.762 132.229 246.257 134.748C247.381 140.46 251.074 161.768 251.65 162.084Z" fill="#9AB7E4"/>
<path d="M245.676 153.301C244.918 149.615 244.181 146.013 243.44 142.415C242.376 137.241 241.222 132.085 240.301 126.887C240.042 125.432 239.482 125.34 238.362 125.613C234.837 126.473 231.652 128.051 228.649 130.075C227.958 130.54 227.87 130.913 228.329 131.505C233.91 138.713 239.497 145.919 245.09 153.116C245.164 153.209 245.358 153.207 245.676 153.301Z" fill="#DFE9F7"/>
<path d="M300.987 148.887C305.672 148.691 310.357 148.683 315.044 148.891C316.085 148.345 315.973 147.339 315.761 146.507C315.52 145.557 314.549 145.815 313.837 145.812C309.637 145.799 305.437 145.792 301.237 145.831C300.275 145.839 299 145.44 298.913 147.144C298.833 148.688 299.925 148.753 300.987 148.887Z" fill="#DFE9F7"/>
<path d="M198.83 144.1C201.248 144.103 203.665 144.081 206.081 144.113C207.086 144.125 207.596 143.852 207.55 142.696C207.508 141.613 207.096 141.243 206.049 141.249C201.216 141.28 196.381 141.288 191.548 141.247C190.313 141.236 190.29 142.008 190.197 142.873C190.08 143.979 190.704 144.116 191.58 144.107C193.997 144.08 196.414 144.097 198.83 144.1Z" fill="#DFE9F7"/>
<path d="M309.873 143.972C311.45 143.972 313.03 143.929 314.606 143.989C315.654 144.029 315.874 143.504 315.857 142.602C315.839 141.758 315.743 141.148 314.655 141.164C311.499 141.205 308.343 141.213 305.189 141.162C304.111 141.145 303.966 141.688 303.973 142.561C303.978 143.396 304.014 144.038 305.141 143.989C306.715 143.921 308.295 143.972 309.873 143.972Z" fill="#DFE9F7"/>
<path d="M202.092 148.88C203.369 148.88 204.648 148.84 205.923 148.892C207.007 148.934 207.573 148.665 207.564 147.393C207.556 146.198 206.991 146.035 206.036 146.045C203.332 146.073 200.627 146.109 197.924 146.036C196.789 146.005 196.545 146.455 196.544 147.488C196.543 148.611 197.008 148.923 198.036 148.875C199.385 148.813 200.74 148.86 202.092 148.86C202.092 148.866 202.092 148.873 202.092 148.88Z" fill="#DFE9F7"/>
<path d="M295.841 145.73C294.306 146.556 292.853 147.3 291.438 148.108C290.015 148.921 288.656 149.848 287.216 150.625C286.68 150.914 286.228 151.248 286.457 151.785C286.76 152.497 287.344 152.046 287.769 151.808C290.422 150.31 293.074 148.809 295.701 147.264C296.038 147.065 296.251 146.622 296.446 146.254C296.473 146.202 296.061 145.917 295.841 145.73Z" fill="#DFE9F7"/>
<path d="M224.668 135.528C222.306 132.968 219.946 130.408 217.58 127.853C217.318 127.57 216.973 127.321 216.597 127.552C216.172 127.812 216.307 128.204 216.586 128.498C218.887 130.921 221.193 133.34 223.522 135.736C223.687 135.906 224.047 135.885 224.317 135.953C224.434 135.812 224.55 135.669 224.668 135.528Z" fill="#DFE9F7"/>
<path d="M216.085 152.041C216.717 152.044 217.042 151.977 217.029 151.596C217.02 151.331 216.921 150.94 216.733 150.829C215.189 149.928 213.43 149.431 212.016 148.271C211.769 148.068 211.441 148.225 211.286 148.552C211.162 148.816 210.992 149.067 211.29 149.348C212.746 150.724 214.792 150.964 216.085 152.041Z" fill="#DFE9F7"/>
<path d="M299.659 120.145C297.553 120.145 295.446 120.183 293.341 120.129C292.301 120.103 291.875 120.419 291.881 121.535C291.886 122.604 292.214 123.004 293.299 122.995C297.662 122.956 302.025 122.968 306.387 122.996C307.402 123.003 307.913 122.672 307.918 121.569C307.925 120.487 307.479 120.109 306.429 120.131C304.174 120.177 301.917 120.144 299.659 120.145Z" fill="#DFE9F7"/>
<path d="M303.828 127.496C304.729 127.496 305.633 127.448 306.529 127.508C307.682 127.588 307.902 126.974 307.902 125.988C307.901 125.002 307.482 124.66 306.54 124.68C304.738 124.72 302.934 124.742 301.134 124.672C300.016 124.628 299.962 125.241 299.973 126.085C299.985 126.905 299.981 127.6 301.125 127.509C302.021 127.438 302.926 127.496 303.828 127.496Z" fill="#DFE9F7"/>
<path d="M276.957 130.771C276.993 131.684 277.562 131.507 278.032 131.231C280.862 129.565 283.672 127.864 286.497 126.189C286.957 125.917 287.192 125.553 286.92 125.093C286.672 124.673 286.269 124.891 285.941 125.084C283.177 126.723 280.416 128.365 277.65 130.001C277.336 130.188 276.934 130.283 276.957 130.771Z" fill="#DFE9F7"/>
<path d="M195.285 126.221C199.97 126.024 204.655 126.016 209.341 126.224C210.383 125.679 210.271 124.673 210.058 123.84C209.817 122.891 208.847 123.149 208.135 123.147C203.934 123.132 199.734 123.125 195.534 123.164C194.573 123.173 193.298 122.773 193.21 124.477C193.131 126.021 194.222 126.087 195.285 126.221Z" fill="#DFE9F7"/>
<path d="M166.04 80.5784C215.217 80.5624 264.395 80.5477 313.573 80.5331C315.696 80.5331 317.42 78.8104 317.435 76.6757C317.457 73.2717 317.479 69.8677 317.5 66.4624C317.515 64.3144 315.789 62.5637 313.652 62.5571C289.379 62.4744 265.107 62.3624 240.833 62.3304C215.907 62.2971 190.98 62.4811 166.055 62.2144C162.891 62.1798 161.505 63.7344 162.02 70.9064C162.157 72.8104 162.175 74.7544 162.177 76.7037C162.18 78.8451 163.909 80.5797 166.04 80.5784Z" fill="#DFE9F7"/>
<path d="M288.907 73.3973C290.544 73.2333 291.524 72.2306 291.512 70.7786C291.497 69.056 290.418 67.9626 288.555 68.1546C286.967 68.3186 286.201 69.3026 286.331 70.916C286.461 72.5253 287.445 73.2533 288.907 73.3973Z" fill="#859CCB"/>
<path d="M299.321 73.4225C300.846 73.1611 301.981 72.3158 301.965 70.7931C301.945 69.0438 300.865 67.9678 298.987 68.1425C297.369 68.2918 296.602 69.2945 296.723 70.9038C296.845 72.4945 297.787 73.2998 299.321 73.4225Z" fill="#859CCB"/>
<path d="M307.064 70.7384C307.338 72.2104 308.128 73.3384 309.664 73.3504C311.454 73.3651 312.449 72.2477 312.302 70.4224C312.174 68.8117 311.11 68.0891 309.552 68.1211C307.873 68.1558 307.264 69.2584 307.064 70.7384Z" fill="#859CCB"/>
<path d="M224.471 218.421H305.319C307.53 218.421 309.338 216.613 309.338 214.404V211.352C309.338 209.143 307.53 207.333 305.319 207.333H224.471C222.262 207.333 220.454 209.143 220.454 211.352V214.404C220.454 216.613 222.262 218.421 224.471 218.421Z" fill="#D0D7F0"/>
<path d="M224.471 231.18H305.319C307.53 231.18 309.338 229.372 309.338 227.162V224.11C309.338 221.901 307.53 220.092 305.319 220.092H224.471C222.262 220.092 220.454 221.901 220.454 224.11V227.162C220.454 229.372 222.262 231.18 224.471 231.18Z" fill="#859CCB"/>
<path d="M224.471 244.491H305.319C307.53 244.491 309.338 242.683 309.338 240.473V237.421C309.338 235.211 307.53 233.404 305.319 233.404H224.471C222.262 233.404 220.454 235.211 220.454 237.421V240.473C220.454 242.683 222.262 244.491 224.471 244.491Z" fill="#D0D7F0"/>
<path d="M224.471 258.062H305.319C307.53 258.062 309.338 256.254 309.338 254.043V250.991C309.338 248.782 307.53 246.975 305.319 246.975H224.471C222.262 246.975 220.454 248.782 220.454 250.991V254.043C220.454 256.254 222.262 258.062 224.471 258.062Z" fill="#D0D7F0"/>
<path d="M236.023 105.022H313.299C315.038 105.022 316.459 103.6 316.459 101.861V99.4601C316.459 97.7214 315.038 96.2988 313.299 96.2988H236.023C234.284 96.2988 232.861 97.7214 232.861 99.4601V101.861C232.861 103.6 234.284 105.022 236.023 105.022Z" fill="#DFE9F7"/>
<path d="M348.67 243.983C349.752 242.075 352.108 242.716 353.547 241.524C356.11 244.589 355.57 249.157 358.608 252.023C359.194 252.575 359.14 253.511 358.478 254.177C357.607 255.051 356.586 255.029 355.406 254.884C351.226 254.371 348.851 245.279 348.67 243.983Z" fill="#BE7047"/>
<path d="M300.172 107.388C300.023 107.725 299.362 109.117 297.774 109.776C295.523 110.711 293.479 109.311 293.336 109.211C292.598 107.641 291.926 106.035 291.099 104.513C290.388 103.208 290.283 103.203 291.967 102.24C292.974 101.667 292.814 100.832 292.252 100.34C290.987 99.2293 290.038 97.8319 290.186 97.4653C290.424 96.8706 294.647 96.8759 297.458 99.4626C300.532 102.292 300.234 106.659 300.172 107.388Z" fill="#BE7047"/>
<path d="M343.869 327.717C343.769 323.801 339.653 325.714 336.107 324.979C335.577 325.676 338.493 334.163 338.687 335.7C338.994 338.124 339.014 340.82 338.729 343.24C338.454 345.555 336.43 347.404 338.954 348.574C347.698 352.622 343.931 330.111 343.869 327.717Z" fill="#BE7047"/>
<path d="M318.846 326.625C317.903 324.026 318.975 323.649 316.819 322.786C315.328 322.19 311.498 322.662 310.444 323.5C312.59 323.902 312.978 331.418 313.087 333.006C313.246 335.304 310.867 341.089 311.463 342.678C312.967 346.689 317.071 342.894 318.155 340.59C320.404 335.816 319.772 331.401 318.846 326.625Z" fill="#BE7047"/>
<path d="M337.909 345.94C337.873 346.136 337.642 347.483 338.404 348.144C339.313 348.935 340.968 348.138 341.868 347.467C342.377 347.088 342.996 346.35 343.461 344.583C344.31 341.358 343.25 339.731 343.613 336.12C343.766 334.587 344.109 333.364 344.36 332.602C344.817 333.042 345.532 333.707 346.461 334.472C347.118 335.012 347.204 335.044 347.357 335.187C348.313 336.071 348.126 337.73 346.828 344.639C346.828 344.639 346.624 345.811 345.862 348.743C345.62 349.678 345.27 350.594 344.882 351.484C344.236 352.97 343.11 353.894 341.412 354.198C339.288 354.578 337.201 355.192 335.012 355.142C334.294 355.126 333.853 354.996 333.665 354.702C333.405 354.294 333.65 353.702 333.784 353.399C334.678 351.375 337.556 346.534 337.909 345.94Z" fill="#3B3368"/>
<path d="M315.497 342.579C317.439 341.055 318.184 338.905 318.488 337.853C319.919 332.895 318.072 329.801 319.291 329.11C320.417 328.471 323.48 330.281 324.16 332.735C324.5 333.962 323.403 336.527 321.192 341.605C320.84 342.414 320.344 343.203 319.937 344.323C319.283 346.126 318.649 348.255 316.907 349.305C315.264 350.294 312.656 350.287 310.792 350.401C310.072 350.443 308.423 350.689 307.812 350.107C307.248 349.571 307.695 348.835 307.997 348.257C308.752 346.817 309.217 346.279 309.953 345.063C311.175 343.047 310.981 341.241 311.425 341.247C311.863 341.253 311.743 343.095 312.757 343.557C313.704 343.985 315.033 342.942 315.497 342.579Z" fill="#3B3368"/>
<path d="M304.813 313.399C304.865 315.201 305.073 321.533 309.113 324.983C309.946 325.712 310.986 326.251 312.287 326.596C313.83 327.013 315.755 327.187 318.185 327.083C318.41 327.065 318.653 327.047 318.913 327.013C320.473 326.857 322.659 326.355 323.959 324.967C327.013 321.723 323.578 314.924 320.491 305.645C318.826 300.599 316.849 293.591 315.41 284.851C315.358 284.556 315.305 284.244 315.253 283.931C315.478 284.4 315.687 284.851 315.878 285.303C320.005 294.233 322.207 301.744 323.457 306.947C325.954 317.353 325.971 324.031 331.626 328.764C333.255 330.135 335.51 331.471 337.73 332.112C339.569 332.667 341.373 332.719 342.743 331.887C343.315 331.539 343.783 331.036 344.147 330.429C346.627 326.355 344.667 317.109 343.541 310.709C337.331 275.295 346.125 269.293 337.678 225.241C337.678 225.241 333.775 204.915 329.579 201.099L329.562 201.081C329.11 200.665 328.642 200.457 328.174 200.492H328.157C328.001 200.509 327.845 200.561 327.689 200.665C325.729 201.863 324.757 209.041 320.595 209.875C318.895 210.221 318.254 209.371 310.657 208.419C309.79 208.313 308.835 208.193 307.657 208.019C305.991 207.793 302.714 207.325 301.795 207.065C296.626 205.625 297.337 191.404 294.753 190.797C293.297 190.449 289.827 194.144 286.497 200.579C286.481 200.613 286.463 200.631 286.463 200.665C284.33 204.757 282.284 209.961 280.844 215.945C280.792 216.136 280.739 216.344 280.687 216.552C280.029 219.379 279.525 222.363 279.195 225.483C275.242 263.969 304.083 291.423 304.813 313.399Z" fill="#463E7E"/>
<path d="M333.269 221.255C333.207 226.058 333.048 230.665 333.643 235.258C333.767 236.223 333.76 237.21 333.74 238.186C333.625 243.513 334.275 248.809 334.344 254.133C334.381 257.042 334.48 259.929 334.361 262.853C334.191 267.003 334.572 271.178 334.74 275.341C334.824 277.378 334.861 279.425 335.092 281.449C335.651 286.331 335.636 291.25 336.057 296.141C336.329 299.307 336.312 302.503 336.944 305.63C337.851 310.111 338.399 314.653 339.459 319.114C340.156 322.054 340.272 325.131 341.176 328.045C341.447 328.922 341.789 329.774 342.096 330.639C342.209 330.958 342.425 331.363 341.961 331.507C341.588 331.625 341.517 331.203 341.383 330.923C340.323 328.723 339.716 326.371 339.369 323.981C338.984 321.321 338.348 318.706 337.951 316.061C337.153 310.751 335.827 305.531 335.531 300.127C335.281 295.573 335.1 291.007 334.725 286.47C334.391 282.418 334.235 278.351 333.809 274.307C333.699 273.251 333.779 272.177 333.744 271.111C333.665 268.767 333.628 266.421 333.463 264.082C333.348 262.461 334.085 260.977 333.977 259.354C333.615 253.877 333.327 248.394 333.009 242.915C333.004 242.826 332.993 242.737 332.996 242.647C333.205 236.391 332.08 220.065 330.888 218.778C329.292 217.054 328.069 215.045 326.812 213.067C326.559 212.669 326.344 212.13 326.769 211.902C327.277 211.631 327.283 212.311 327.493 212.603C329.392 215.251 330.973 218.15 333.6 220.221C334.352 220.813 335.269 221.007 336.035 221.515C336.277 221.675 336.763 221.873 336.451 222.321C336.231 222.637 335.916 222.47 335.621 222.326C334.916 221.985 334.196 221.674 333.269 221.255Z" fill="#3B3368"/>
<path d="M306.389 234.555C307.134 238.249 307.134 242.012 307.708 245.705C308.297 249.539 308.366 253.493 309.182 257.256C310.69 264.229 311.697 271.305 313.57 278.191C314.177 280.411 314.506 282.717 315.409 284.851C315.357 284.556 315.304 284.244 315.252 283.931C315.477 284.4 315.686 284.851 315.877 285.303C315.964 285.199 315.945 285.076 315.964 284.972C316.05 284.192 315.6 283.533 315.425 282.804C314.038 277.133 312.737 271.444 311.749 265.668C311.002 261.385 309.893 257.171 309.338 252.835C308.576 246.885 308.262 240.903 307.24 234.971C306.754 232.144 306.633 229.264 306.701 226.368C306.701 226.056 306.841 225.535 306.337 225.535C305.904 225.519 305.886 225.969 305.886 226.351C305.8 229.091 305.834 231.883 306.389 234.555Z" fill="#3B3368"/>
<path d="M289.958 207.859C289.88 212.024 285.741 216.424 281.637 216.681C281.278 216.704 280.698 216.891 280.617 216.377C280.525 215.797 281.109 215.951 281.468 215.888C285.585 215.168 288.23 212.487 288.922 208.343C288.958 208.127 289.025 207.913 289.09 207.701C289.186 207.388 289.149 206.869 289.621 206.953C290.04 207.028 289.954 207.509 289.958 207.859Z" fill="#3B3368"/>
<path d="M336.798 271.052C337.435 272.36 337.54 273.703 337.714 275.028C337.743 275.252 337.648 275.479 337.384 275.526C337.274 275.543 337.118 275.511 337.038 275.44C336.678 275.124 336.454 271.723 336.798 271.052Z" fill="#3B3368"/>
<path d="M337.722 253.706C337.518 254.118 338.119 255.134 337.384 255.156C336.635 255.18 337.018 254.169 336.934 253.608C336.836 252.962 336.774 252.309 336.711 251.657C336.68 251.332 336.746 250.97 337.104 250.933C337.42 250.9 337.411 251.267 337.503 251.512C337.758 252.191 337.748 252.885 337.722 253.706Z" fill="#3B3368"/>
<path d="M341.621 317.221C341.973 319.077 342.563 320.56 342.456 322.317C341.559 321.457 341.039 318.583 341.621 317.221Z" fill="#3B3368"/>
<path d="M336.132 238.759C336.132 238.303 336.116 238.037 336.136 237.776C336.152 237.576 336.091 237.297 336.389 237.256C336.628 237.225 336.837 237.393 336.863 237.609C336.983 238.604 337.289 239.58 337.189 240.597C337.165 240.839 337.025 241.059 336.82 241.073C336.601 241.089 336.455 240.872 336.407 240.637C336.267 239.952 336.036 239.28 336.132 238.759Z" fill="#3B3368"/>
<path d="M337.387 263.684C337.973 264.962 337.69 266.323 337.655 267.659C337.649 267.883 337.481 268.088 337.242 268.094C336.955 268.1 336.919 267.84 336.918 267.624C336.911 266.331 336.914 265.038 336.914 263.744C337.073 263.724 337.23 263.703 337.387 263.684Z" fill="#3B3368"/>
<path d="M340.74 308.085C339.69 307.037 339.18 304.45 339.587 302.798C340.387 304.548 340.398 306.168 340.74 308.085Z" fill="#3B3368"/>
<path d="M337.194 246.703C337.194 247.008 337.204 247.229 337.193 247.448C337.176 247.8 337.138 248.249 336.724 248.243C336.35 248.235 336.386 247.784 336.389 247.485C336.394 246.649 336.338 245.825 336.152 245.005C336.102 244.791 336.036 244.428 336.408 244.373C336.718 244.327 336.857 244.568 336.926 244.847C337.085 245.484 337.301 246.113 337.194 246.703Z" fill="#3B3368"/>
<path d="M338.297 281.129C338.192 281.556 338.433 282.084 337.969 282.133C337.412 282.192 337.512 281.641 337.457 281.265C337.337 280.444 337.193 279.627 337.07 278.805C337.034 278.565 337.13 278.359 337.37 278.293C337.692 278.204 337.696 278.468 337.744 278.681C337.933 279.531 338.128 280.379 338.297 281.129Z" fill="#3B3368"/>
<path d="M337.967 284.124C338.618 285.231 338.84 286.428 338.774 287.692C338.766 287.867 338.742 288.061 338.503 288.049C338.263 288.039 338.036 287.892 338.047 287.664C338.107 286.485 337.552 285.344 337.967 284.124Z" fill="#3B3368"/>
<path d="M336.323 235.342C335.561 234.2 336.034 232.984 335.693 231.908C335.619 231.673 335.813 231.376 336.118 231.357C336.423 231.337 336.375 231.629 336.425 231.828C336.709 232.97 336.879 234.104 336.323 235.342Z" fill="#3B3368"/>
<path d="M340.99 314.161C340.379 313.153 340.397 312.01 340.13 310.937C340.075 310.716 340.025 310.37 340.365 310.278C340.745 310.177 340.759 310.517 340.831 310.754C341.167 311.869 341.321 312.997 340.99 314.161Z" fill="#3B3368"/>
<path d="M338.676 289.507C338.879 290.709 339.083 291.913 339.28 293.117C339.314 293.325 339.366 293.584 339.074 293.651C338.818 293.709 338.618 293.533 338.583 293.313C338.39 292.055 337.939 290.796 338.676 289.507Z" fill="#3B3368"/>
<path d="M339.434 300.716C338.44 299.544 338.954 298.222 338.607 297.104C338.583 297.024 338.818 296.862 338.932 296.738C339.05 296.853 339.26 296.962 339.27 297.085C339.344 298.225 339.835 299.354 339.434 300.716Z" fill="#3B3368"/>
<path d="M337.669 260.548C336.549 259.652 337.179 258.519 336.746 257.689C336.735 257.671 336.919 257.495 337.022 257.483C337.282 257.455 337.386 257.664 337.493 257.867C337.914 258.663 337.703 259.489 337.669 260.548Z" fill="#3B3368"/>
<path d="M343.207 325.583C343.807 326.384 343.912 327.19 344.083 327.963C344.135 328.2 343.992 328.412 343.767 328.476C343.516 328.548 343.36 328.347 343.332 328.135C343.23 327.354 342.794 326.586 343.207 325.583Z" fill="#3B3368"/>
<path d="M335.898 229.248C335.486 228.227 335.543 227.584 335.574 226.945C335.586 226.669 335.684 226.407 336.024 226.456C336.346 226.501 336.435 226.781 336.386 227.049C336.276 227.659 336.122 228.26 335.898 229.248Z" fill="#3B3368"/>
<path d="M286.428 203.63C286.844 205.14 287.814 206.388 289.15 207.429C289.41 207.637 289.67 207.845 289.948 208.018C294.006 210.724 300.562 211.921 305.418 212.806C312.477 214.089 321.565 214.193 326.56 212.129C326.75 212.042 326.941 211.973 327.114 211.868C328.606 211.157 329.682 210.221 330.098 209.025C331.225 205.798 327.792 200.682 328.156 200.492H328.173C328.346 200.492 328.832 201.324 328.832 201.324C330.705 206.388 332.873 211.33 334.434 216.517C334.954 218.252 335.544 219.933 336.186 221.616H336.202V221.634C336.273 221.86 336.358 222.085 336.464 222.293V222.31C336.845 223.298 337.244 224.269 337.677 225.241C338.561 227.288 339.533 229.3 340.556 231.294C341.545 233.896 342.776 236.41 343.886 238.96C344.216 239.67 344.632 240.329 345.465 240.381C345.604 240.398 345.777 240.398 345.95 240.365C347.616 239.653 349.176 238.717 350.824 237.988C351.846 237.45 352.385 237.017 352.593 236.358C352.749 235.889 352.714 235.317 352.593 234.52C352.472 233.809 352.42 233.097 352.316 232.368C351.744 228.745 352.141 230.965 351.517 228.224C348.24 213.932 345.985 204.116 342.724 195.27C341.268 191.3 339.585 187.501 337.521 183.598C336.55 181.744 329.96 169.29 327.272 170.226C327.012 170.313 326.82 170.522 326.664 170.8C326.49 171.077 326.369 171.441 326.3 171.84C326.265 171.962 326.248 172.065 326.213 172.204C326.213 172.204 326.213 172.204 326.213 172.221C326.178 172.465 326.144 172.742 326.126 173.002V173.02C326.109 173.297 326.092 173.54 326.092 173.8C325.918 173.574 325.78 173.453 325.641 173.401C325.364 173.313 325.086 173.436 324.826 173.609C324.669 173.713 324.513 173.817 324.374 173.904C321.704 175.413 319.033 176.886 316.397 178.43C314.333 179.644 312.217 180.824 309.841 182.073C309.893 181.777 309.962 181.5 310.032 181.222C310.049 181.17 310.084 181.101 310.101 181.033C310.604 179.21 311.385 177.685 312.234 176.21C314.004 173.176 316.276 170.557 318.652 167.989L318.669 167.973C318.704 167.921 318.756 167.885 318.79 167.833C319.414 167.157 319.9 166.48 320.265 165.788C320.038 165.596 319.813 165.388 319.622 165.18C319.778 164.434 319.797 163.949 319.674 163.88C319.813 162.856 319.692 161.833 319.293 160.774C319.345 160.74 319.397 160.688 319.466 160.653C319.466 160.653 320.142 161.521 321.028 162.422C320.976 161.121 320.508 159.786 319.622 158.398C319.414 158.069 319.189 157.757 318.998 157.428C317.958 155.762 318.01 154.965 319.293 153.508C319.674 153.074 320.142 152.693 320.265 152.086C320.194 151.756 320.108 151.218 319.986 150.542C319.986 150.542 319.986 150.542 319.986 150.525C319.31 146.952 318.565 144.073 317.732 141.524C315.686 135.28 311.801 126.59 307.604 117.208C306.078 113.774 304.777 110.861 303.822 108.674C303.389 108.934 302.938 109.196 302.505 109.456C299.938 110.964 297.37 112.473 294.821 114C294.509 114.173 294.18 114.364 293.868 114.554C296.642 121.284 301.845 134.188 305.574 145.253C305.8 145.894 306.614 148.6 307.5 152.242C310.084 162.717 309.252 166.828 308.385 169.342C307.134 172.984 305.193 175.152 303.06 177.685C293.417 189.062 287.624 195.826 286.496 200.578C286.48 200.613 286.462 200.63 286.462 200.665C286.185 201.757 286.185 202.729 286.428 203.63Z" fill="#FF7D19"/>
<path d="M308.089 182.143C309.911 176.679 313.5 172.413 317.333 168.319C318.357 167.227 319.051 166.117 319.415 164.989C319.536 164.625 319.623 164.244 319.675 163.88C319.797 163.949 319.779 164.435 319.623 165.18C319.813 165.388 320.039 165.596 320.265 165.788C321.704 167.019 323.543 168.129 324.756 168.771C323.82 167.504 322.953 166.568 323.196 164.435C323.213 164.331 323.231 164.209 323.248 164.105C322.52 163.793 321.704 163.099 321.028 162.423C320.143 161.521 319.467 160.653 319.467 160.653C319.397 160.688 319.345 160.74 319.293 160.775C319.051 160.081 318.687 159.388 318.201 158.659C317.959 158.277 317.663 157.896 317.42 157.515C316.224 155.641 316.345 154.584 317.907 152.971C318.288 152.555 318.669 152.139 319.051 151.723C319.657 151.496 319.917 151.08 319.987 150.543C319.987 150.543 319.987 150.543 319.987 150.525C320.023 150.352 320.023 150.179 320.023 149.988C320.023 149.155 320.421 148.6 321.236 148.479C322.797 148.253 325.381 145.739 325.78 145.512C326.387 145.373 326.976 145.305 327.584 145.287C330.445 145.148 333.151 146.207 334.816 148.236C334.937 148.357 335.041 148.496 335.145 148.635C335.613 149.259 335.943 149.935 336.187 150.647C336.187 150.647 336.187 150.647 336.187 150.664C337.417 154.288 335.891 158.572 333.532 160.48C333.359 160.619 333.203 160.74 333.029 160.844C332.943 160.896 332.873 160.949 332.787 161.001C329.96 162.856 326.491 166.499 325.485 168.059C325.225 168.441 325.137 168.684 325.208 168.771C325.347 168.925 325.468 169.065 325.589 169.204L325.607 169.221C326.109 169.828 326.456 170.331 326.664 170.8C326.924 171.372 326.959 171.892 326.785 172.465C326.733 172.639 326.647 172.828 326.543 173.02V173.036C326.439 173.28 326.283 173.54 326.092 173.8C326.092 173.817 326.092 173.817 326.092 173.835C325.884 174.147 325.659 174.441 325.381 174.807C325.121 174.859 324.879 174.911 324.653 174.996C323.387 175.413 322.345 176.315 321.184 176.939C320.281 177.441 319.38 177.928 318.496 178.448C318.461 178.465 318.427 178.5 318.375 178.517C317.316 179.107 316.293 179.68 315.252 180.287C315.165 180.339 315.061 180.391 314.975 180.443C312.912 181.623 310.847 182.801 308.801 183.98C308.54 184.137 308.245 184.241 307.847 184.431C307.604 183.564 307.847 182.853 308.089 182.143Z" fill="#BE7047"/>
<path d="M308.211 185.751C309.164 185.177 310.258 184.969 311.212 184.43C313.814 182.957 316.363 181.379 319.034 180.079C320.976 179.143 322.867 178.171 324.444 176.713C324.462 176.713 324.479 176.697 324.496 176.679C325.295 176.332 325.607 175.569 326.006 174.892C326.11 174.701 326.214 174.529 326.352 174.356C326.456 174.164 326.543 173.975 326.63 173.783C326.976 173.107 327.29 172.429 327.619 171.755C327.358 171.979 327.08 172.221 326.786 172.465C326.699 172.55 326.595 172.621 326.491 172.725C326.387 172.794 326.283 172.899 326.162 172.984C326.162 172.984 326.144 173.002 326.127 173.002V173.02C325.971 173.141 325.815 173.28 325.642 173.401C325.347 173.644 325.052 173.869 324.756 174.094C322.919 175.533 320.838 177.008 318.496 178.448C318.462 178.465 318.427 178.5 318.375 178.517C318.254 178.588 318.132 178.673 318.011 178.743C317.074 179.299 316.155 179.817 315.252 180.287C315.166 180.339 315.062 180.391 314.975 180.443C312.998 181.483 311.107 182.366 309.356 183.096C309.512 182.576 309.738 181.933 310.032 181.222C310.05 181.17 310.084 181.101 310.102 181.033C310.431 180.252 310.864 179.366 311.403 178.465C312.894 175.95 314.022 175.204 315.512 173.297C316.918 171.51 317.959 169.62 318.652 167.989L318.67 167.973C319.138 166.88 319.45 165.909 319.623 165.18C319.779 164.435 319.798 163.949 319.675 163.88C319.588 163.845 319.45 163.967 319.034 164.521C318.583 165.093 317.82 166.117 316.432 167.885C313.623 171.493 312.842 172.221 311.264 174.615C310.57 175.673 309.876 176.765 309.2 177.841C308.003 179.765 307.05 181.796 306.599 184.049C306.372 185.073 307.431 186.217 308.211 185.751Z" fill="#D0C3BE"/>
<path d="M354.805 242.339C354.757 243.037 354.631 243.753 353.866 243.781C351.927 243.856 350.255 244.857 348.403 245.227C347.53 245.401 347.245 245.165 346.967 244.408C346.53 243.213 346.354 241.917 345.565 240.853C345.221 240.391 345.598 240.152 345.989 239.964C347.891 239.041 349.726 238 351.502 236.848C352.757 236.033 353.175 236.209 353.561 237.616C353.993 239.185 354.391 240.764 354.805 242.339Z" fill="#D0C3BE"/>
<path d="M304.363 110.031C304.443 110.676 304.039 110.92 303.452 111.033C300.096 111.681 298.184 113.488 296.499 115.492C295.579 116.587 295.376 116.561 294.5 115.465C293.182 113.815 292.123 112.084 291.259 110.284C290.879 109.492 291.191 108.975 292.21 108.684C293.29 108.376 294.387 107.969 295.512 107.901C297.164 107.803 298.64 107.461 300.016 106.855C301.23 106.32 302.095 106.555 302.756 107.388C303.459 108.271 304.136 109.163 304.363 110.031Z" fill="#D0C3BE"/>
<path d="M324.756 168.77C324.756 168.77 324.756 168.788 324.773 168.788C325.052 169.186 325.364 169.62 325.641 170.141C325.676 170.193 325.693 170.261 325.728 170.313C325.936 170.696 326.092 171.129 326.231 171.58C326.231 171.58 326.248 171.58 326.231 171.597C326.248 171.684 326.283 171.754 326.3 171.84C326.369 172.117 326.439 172.413 326.491 172.725C326.508 172.828 326.525 172.916 326.543 173.02V173.036C326.579 173.28 326.612 173.54 326.629 173.782C326.959 176.834 326.525 180.529 326.369 183.686C325.953 192.322 330.653 202.312 335.093 202.729C337.955 202.989 341.528 199.329 342.724 195.27C342.985 194.404 343.124 193.502 343.14 192.636C343.211 187.641 338.788 184.257 339.689 183.217C340.991 181.708 350.113 188.681 351.605 187.102C352.332 186.305 350.46 184.241 348.535 181.222C348.171 180.668 347.805 180.061 347.46 179.436L347.441 179.42C346.419 177.581 345.517 175.465 345.188 173.124C345.188 173.106 345.169 173.106 345.169 173.106C345.049 172.377 344.996 171.632 345.013 170.852C345.013 170.505 345.031 170.141 345.065 169.776C345.36 166.55 346.956 164.469 345.881 160.792C345.292 158.762 343.453 157.358 342.585 155.485C342.395 155.069 342.239 154.653 342.169 154.184C341.892 153.646 341.684 153.126 341.528 152.606C341.528 152.606 341.511 152.606 341.511 152.589C340.245 148.877 340.817 145.477 336.029 143.224C332.735 141.68 329.596 142.685 327.584 145.286C327.133 145.86 326.733 146.518 326.404 147.248C325.711 148.773 325.607 150.248 325.693 151.704C325.797 153.213 326.127 154.704 326.231 156.213C326.265 156.942 326.265 157.653 326.161 158.381C325.884 160.445 323.681 161.972 323.248 164.105C323.231 164.209 323.213 164.33 323.196 164.434C322.953 166.568 323.82 167.504 324.756 168.77Z" fill="#351B39"/>
<path d="M325.349 168.695C328.159 164.655 323.22 184.769 326.303 190.128C322.212 188.467 324.911 170.369 325.349 168.695Z" fill="#351B39"/>
<path d="M336.005 196.086C336.207 197.034 336.045 197.528 335.119 197.758C333.385 198.194 332.563 197.881 331.494 196.446C329.667 193.998 329.045 191.24 328.933 188.238C328.853 186.074 328.693 183.929 328.941 181.762C329.042 180.888 329.058 180.016 329.385 179.144C329.847 179.234 329.885 179.53 329.857 179.913C329.807 180.618 329.827 181.33 329.759 182.034C329.473 185.038 329.709 188.03 330.051 191.008C330.298 193.133 331.349 194.953 332.746 196.522C333.531 197.402 334.591 197.217 336.005 196.086Z" fill="#241527"/>
<path d="M341.506 169.8C340.332 168.218 340.014 166.536 339.592 164.896C339.224 163.462 339.335 162 339.318 160.544C339.267 156.43 337.936 152.788 335.383 149.57C335.083 149.193 334.272 148.653 334.828 148.216C335.368 147.79 335.598 148.72 335.907 149.085C338.66 152.329 340.12 156.104 340.084 160.362C340.063 162.924 340.551 165.35 341.284 167.766C341.458 168.334 341.85 168.884 341.506 169.8Z" fill="#241527"/>
<path d="M347.01 175.616C344.32 173.68 339.063 158.453 341.97 158.329C339.464 158.436 347.004 175.58 347.01 175.616Z" fill="#241527"/>
<path d="M336.155 176.748C336.185 173.956 335.983 171.18 335.257 168.497C334.602 166.08 334.131 163.596 332.946 161.332C332.231 159.965 332.626 158.573 333.302 157.271C333.41 157.065 333.473 156.697 333.845 156.86C334.177 157.004 334.043 157.291 333.983 157.549C333.734 158.645 333.086 159.732 333.707 160.879C335.531 164.249 335.933 168.003 336.522 171.683C336.786 173.339 336.867 175.096 336.155 176.748Z" fill="#241527"/>
<path d="M340.044 177.777C341.016 178.525 341.986 179.256 343.063 179.824C343.408 180.006 343.808 180.282 344.164 179.973C344.575 179.614 344.21 179.19 344.018 178.906C342.959 177.346 342.422 175.608 342.118 173.77C342.062 173.429 341.875 173.104 342.151 172.762C342.616 172.798 342.668 173.209 342.742 173.513C343.204 175.442 344.114 177.18 344.952 178.956C345.516 180.146 344.962 180.944 343.759 180.9C342.468 180.852 340.384 179.2 340.044 177.777Z" fill="#241527"/>
<path d="M327.132 160.273C327.386 159.324 328.38 159.413 328.766 158.702C329.698 156.982 330.243 155.288 329.823 153.276C329.463 151.542 330.247 149.894 330.664 148.233C330.696 148.109 330.918 147.953 331.052 147.95C331.354 147.946 331.362 148.23 331.34 148.437C331.31 148.741 331.208 149.036 331.152 149.337C330.879 150.838 330.518 152.273 330.766 153.886C331.208 156.777 329.446 160.08 327.132 160.273Z" fill="#241527"/>
<path d="M322.28 159.208C325.954 156.369 324.803 149.824 327.932 147.744C328.603 153.501 326.719 157.323 322.28 159.208Z" fill="#351B39"/>
<path d="M343.264 155.986C341.214 155.01 339.044 148.588 337.016 148.297C338.63 147.186 343.254 155.222 343.264 155.986Z" fill="#241527"/>
<path d="M344.121 177.96C344.918 177.876 350.245 180.866 350.006 181.338C349.502 182.337 343.069 178.538 344.121 177.96Z" fill="#241527"/>
<path d="M324.756 168.771C323.82 167.504 322.953 166.568 323.196 164.435C323.213 164.331 323.23 164.209 323.248 164.105C322.52 163.793 321.704 163.098 321.028 162.422C321.097 163.566 320.837 164.695 320.265 165.788C321.704 167.019 323.542 168.129 324.756 168.771Z" fill="#AA643F"/>
<path d="M331.471 208.152C331.281 206.363 330.805 203.808 329.532 200.992C328.519 198.751 327.309 197.027 326.303 195.803C327.568 200.209 328.833 204.617 330.099 209.025C330.556 208.735 331.013 208.443 331.471 208.152Z" fill="#D0C3BE"/>
<path d="M314.028 162.423C314.132 162.051 313.286 161.359 312.454 161.28C311.327 161.172 310.45 162.423 310.45 162.423C310.45 162.423 314.271 159.049 313.059 159.208C311.847 159.367 310.17 161.137 310.17 161.137C310.17 161.137 312.584 156.653 311.563 156.519C310.543 156.384 309.196 162.423 309.196 162.423C308.898 163.728 309.038 164.123 309.232 164.232C309.619 164.451 310.187 163.52 311.618 162.987C312.99 162.477 313.928 162.789 314.028 162.423Z" fill="#D0C3BE"/>
<path d="M323.154 159.961C323.154 160.519 323.606 160.971 324.162 160.971C324.72 160.971 325.172 160.519 325.172 159.961C325.172 159.404 324.72 158.953 324.162 158.953C323.606 158.953 323.154 159.404 323.154 159.961Z" fill="#D0D7F0"/>
<path d="M175.215 269.205C189.602 257.335 187.571 225.773 174.57 218.895C172.239 217.661 169.14 217.001 164.96 217.659C163.047 219.439 153.152 229 152.602 244.623C152.006 261.567 162.871 272.325 164.58 273.964C167.492 273.428 171.555 272.227 175.215 269.205Z" fill="#984226"/>
<path d="M198.188 217.658C201.283 220.324 207.439 226.425 210.047 236.161C215.308 255.8 201.22 271.871 200.009 273.21C195.984 271.875 191.959 270.54 187.935 269.205C187.935 269.205 169.892 212.254 198.188 217.658Z" fill="#984226"/>
<path d="M198.729 210.51C198.278 211.348 194.462 218.268 190.645 217.082C190.313 216.978 189.968 216.81 189.613 216.552C188.801 214.894 187.76 214.35 186.548 214.636C182.726 220.365 178.677 216.682 174.682 215.47C173.301 216.297 171.329 217.233 168.886 217.634C166.865 217.968 165.117 217.837 163.784 217.598C163.197 228.794 162.774 237.601 162.382 243.502C162.297 244.793 162.069 247.477 163.249 249.709C164.396 251.882 166.43 252.532 168.328 253.334C178.23 254.062 188.136 255.124 198.022 252.812C198.482 252.408 198.897 251.904 199.224 251.248C199.224 251.246 199.446 250.8 199.604 250.278C200.141 248.494 198.804 212.529 198.729 210.51Z" fill="#FF822E"/>
<path d="M171.699 219.059C174.291 220.615 176.811 222.38 179.983 222.516C181.082 222.563 182.098 220.291 183.674 218.96C185.648 217.295 186.415 215.181 186.479 212.588C186.563 209.156 188.41 206.248 190.032 203.339C190.984 201.636 193.479 199.96 189.582 198.741C189.351 198.669 189.316 197.905 189.232 197.456C188.867 195.483 187.735 194.085 185.811 193.555C183.776 192.993 182.934 194.747 181.858 195.923C180.948 196.92 180.127 197.995 179.22 198.993C177.995 200.344 176.346 200.831 174.707 200.252C171.703 199.189 172.182 200.701 172.684 202.555C173.614 205.979 174.544 209.369 173.836 213.033C173.415 215.216 172.627 216.811 170.474 217.589C170.647 218.271 171.139 218.693 171.699 219.059Z" fill="#984226"/>
<path d="M175.472 210.024C176.049 213.061 177.949 214.906 180.772 215.3C182.588 215.552 184.32 214.61 185.316 211.793C180.828 215.405 178.208 212.726 175.472 210.024Z" fill="#8B3A25"/>
<path d="M196.864 226.595C197.977 224.959 197.536 223.305 197.933 221.852C197.996 221.623 197.712 221.365 197.46 221.375C197.326 221.38 197.094 221.649 197.093 221.803C197.078 223.287 196.45 224.748 196.864 226.595Z" fill="#2D4AA3"/>
<path d="M164.258 244.208C164.607 243.125 164.928 242.031 164.75 240.855C164.704 240.556 164.536 240.233 164.144 240.301C163.791 240.363 163.879 240.7 163.876 240.932C163.862 242.013 163.87 243.095 163.87 244.176C163.999 244.187 164.128 244.199 164.258 244.208Z" fill="#2D4AA3"/>
<path d="M163.935 226.149C164.855 224.797 164.866 223.609 164.754 222.409C164.739 222.251 164.539 222.016 164.394 221.989C164.263 221.967 163.959 222.176 163.955 222.289C163.923 223.467 163.935 224.644 163.935 226.149Z" fill="#2D4AA3"/>
<path d="M196.57 239.856C197.365 238.625 197.093 237.451 196.517 236.215C195.886 237.125 195.925 238.716 196.57 239.856Z" fill="#2D4AA3"/>
<path d="M197.041 229.843C196.296 230.747 196.137 231.755 196.153 232.803C196.156 233.061 196.166 233.34 196.517 233.347C196.91 233.355 197.034 233.075 197.038 232.743C197.048 231.775 197.041 230.809 197.041 229.843Z" fill="#2D4AA3"/>
<path d="M196.107 241.937C196.107 243.146 196.107 244.072 196.105 244.996C196.105 245.386 196.296 245.577 196.677 245.51C197.111 245.434 196.885 245.128 196.828 244.924C196.577 244.026 197.661 242.908 196.107 241.937Z" fill="#2D4AA3"/>
<path d="M163.662 234.914C163.442 235.91 163.546 236.784 163.653 237.71C164.785 236.861 164.798 236.232 163.662 234.914Z" fill="#2D4AA3"/>
<path d="M164.312 228.767C163.442 229.588 163.776 230.483 163.967 231.351C164.019 231.589 164.388 231.511 164.447 231.36C164.787 230.483 164.418 229.639 164.312 228.767Z" fill="#2D4AA3"/>
<path d="M170.475 217.589C170.475 217.589 166.517 225.204 178.785 222.385C178.785 222.385 172.743 219.859 170.475 217.589Z" fill="#2D4AA3"/>
<path d="M188.185 217.704C188.185 217.704 192.141 225.32 179.873 222.501C179.873 222.501 185.917 219.974 188.185 217.704Z" fill="#2D4AA3"/>
<path d="M161.39 221.516C162.42 220.671 163.96 219.599 166.018 218.761C167.732 218.065 169.284 217.744 170.474 217.589C172.62 217.757 173.666 216.573 174.171 214.68C175.144 211.029 174.907 207.423 173.783 203.853C173.206 202.016 173.043 200.635 175.792 200.987C177.42 201.196 178.78 200.312 179.972 199.244C180.99 198.333 181.795 197.245 182.676 196.219C184.882 193.648 186.71 193.896 188.154 196.924C188.562 197.783 188.615 198.847 189.507 199.423C190.89 200.313 190.452 201.325 189.794 202.395C187.496 206.121 185.558 209.963 185.443 214.476C185.404 216.012 184.434 217.183 183.332 218.156C181.352 219.909 180.495 222.008 181.007 224.624C182.614 228.395 185.467 229.405 188.759 227.379C191.299 226.292 192.404 224.167 193.174 221.687C193.804 219.651 194.104 218.057 194.991 217.884C196.311 217.627 197.287 221.084 199.1 221.112C200.523 221.135 201.699 219.031 202.415 217.439C203.111 213.243 201.334 209.9 198.528 207.028C196.894 205.355 195.884 204.017 197.612 201.629C199.112 199.557 198.292 197.645 195.896 196.896C194.392 196.424 193.88 195.719 193.936 194.228C194.066 190.812 193.407 187.807 189.328 186.995C188.735 186.877 188.632 186.391 188.39 185.999C186.062 182.22 182.263 181.712 178.407 182.025C174.159 182.368 170.832 184.489 169.259 188.62C168.667 190.175 168.034 191.499 166.67 192.632C164.527 194.409 164.664 197.743 166.655 199.716C168.811 201.856 168.776 203.163 166.224 205.137C162.702 207.861 160.828 211.596 160.299 212.979C159.639 214.7 159.395 217.381 161.39 221.516Z" fill="#F0DAD5"/>
<path d="M178.817 184.805C176.561 185.167 174.453 185.612 173.444 188.173C172.732 189.98 171.704 191.7 170.58 193.288C170.102 193.963 169.657 195.703 168.068 194.388C167.821 194.184 167.578 194.693 167.764 194.977C168.165 195.587 168.598 196.209 169.497 195.685C170.077 195.347 170.654 195.051 171.025 194.432C172.273 192.361 173.56 190.312 174.512 188.077C175.122 186.644 177.626 185.477 179.497 185.743C180.03 185.819 180.893 186.479 181.024 185.659C181.133 184.968 180.024 185.032 179.432 184.815C179.249 184.749 179.024 184.805 178.817 184.805Z" fill="#C8A3A3"/>
<path d="M197.061 213.317C196.732 211.747 196.516 209.837 194.807 208.451C193.959 207.761 193.825 206.583 194.069 205.463C194.353 204.157 194.855 202.897 194.867 201.537C194.872 200.997 194.813 200.352 194.116 200.443C193.232 200.559 193.947 201.179 193.955 201.533C193.983 202.7 193.563 203.768 193.283 204.853C192.801 206.721 193.108 208.231 194.555 209.604C195.721 210.712 195.996 212.292 196.109 213.863C196.141 214.3 195.98 214.64 195.691 214.98C195.469 215.241 194.441 215.037 195.084 215.776C195.409 216.148 196.047 216.02 196.508 215.673C197.212 215.144 197.012 214.376 197.061 213.317Z" fill="#C8A3A3"/>
<path d="M172.457 206.852C172.721 205.136 171.961 203.684 171.082 202.256C170.573 201.426 170.13 200.556 169.644 199.712C169.432 199.345 169.366 198.63 168.741 198.937C168.138 199.233 168.597 199.801 168.772 200.157C169.201 201.033 169.665 201.908 170.245 202.688C171.725 204.682 171.873 206.896 171.318 209.18C170.934 210.757 170.837 212.477 169.598 213.748C169.461 213.888 169.357 214.144 169.616 214.262C169.774 214.336 170.097 214.349 170.176 214.25C170.588 213.73 171.106 213.217 171.293 212.609C171.869 210.75 172.676 208.922 172.457 206.852Z" fill="#C8A3A3"/>
<path d="M165.12 216.607C162.956 215.364 162.668 213.551 164.269 211.68C164.868 210.98 165.538 210.344 166.324 209.815C167.42 209.077 168.088 207.968 168.593 206.748C168.832 206.169 168.758 205.608 168.217 205.453C167.298 205.191 167.837 206.023 167.718 206.344C167.112 207.979 165.809 208.976 164.525 210.009C162.944 211.284 162.092 212.919 162.33 215.004C162.508 216.552 163.597 217.224 165.12 216.607Z" fill="#C8A3A3"/>
<path d="M190.825 206.981C190.168 207.385 190.447 207.809 190.565 208.058C191.96 210.973 190.772 213.45 189.304 215.881C188.532 217.157 187.751 218.43 186.928 219.673C186.627 220.128 186.343 220.522 186.799 221.334C188.397 219.156 189.739 216.977 191.009 214.729C192.12 212.764 192.465 210.796 191.693 208.672C191.48 208.081 191.119 207.544 190.825 206.981Z" fill="#C8A3A3"/>
<path d="M186.089 220.477C185.457 221.15 185.055 221.597 184.633 222.025C183.621 223.052 183.328 224.421 184.157 225.144C185.112 225.978 186.264 225.792 187.289 225.16C188.577 224.369 189.071 222.918 189.913 221.762C190.395 221.104 190.712 220.317 191.053 219.566C191.181 219.288 191.597 218.877 191.076 218.654C190.671 218.48 190.447 218.95 190.299 219.244C189.455 220.908 188.521 222.506 187.199 223.84C186.876 224.164 186.589 224.576 186.091 224.634C185.635 224.689 185.141 224.77 184.824 224.3C184.487 223.801 184.747 223.416 185.107 223.077C185.76 222.461 186.273 221.793 186.089 220.477Z" fill="#C8A3A3"/>
<path d="M183.75 186.028C185.593 187.061 186.761 188.66 187.816 190.353C188.056 190.737 188.37 191.22 188.32 191.616C188.109 193.294 189.284 194.266 190.085 195.434C190.28 195.717 190.449 196.154 190.896 195.737C191.212 195.441 191.239 195.037 190.945 194.766C189.78 193.686 189.523 192.273 189.108 190.805C188.527 188.744 187.024 187.15 185.241 185.922C184.813 185.628 184.301 185.586 183.75 186.028Z" fill="#C8A3A3"/>
<path d="M197.717 307.188L185.404 310.847C185.352 318.531 185.61 326.316 186.097 333.271C186.132 333.879 186.132 334.485 186.288 335.04H186.409C188.976 335.024 191.525 334.901 194.074 334.728L194.214 334.711C195.272 331.468 197.006 316.189 197.717 307.188Z" fill="#463E7E"/>
<path d="M178.032 300.094C178.432 300.094 178.796 300.076 179.177 300.076H179.195C179.853 300.024 180.6 300.007 181.293 300.076H181.328C182.68 300.198 183.981 300.614 184.761 301.62C185.524 302.591 185.524 303.788 185.508 304.308C185.491 304.672 185.491 305.054 185.491 305.419H197.839C197.908 304.447 197.96 303.596 197.995 302.886C198.029 302.175 197.943 301.464 197.787 300.787C197.596 299.59 197.787 298.36 197.579 297.18C197.007 293.954 196.641 290.555 192.272 290.07C191.751 290.018 191.421 289.81 191.179 289.514C189.756 289.236 186.895 288.907 184.259 290.432C183.565 290.85 183.165 291.352 182.229 292.93C181.553 294.076 180.616 295.758 179.056 298.36C178.639 299.088 178.275 299.678 178.032 300.094Z" fill="#3B3368"/>
<path d="M178.812 312.789L166.896 316.326C166.948 322.588 167.191 328.797 167.574 334.45C167.591 334.901 167.607 335.334 167.695 335.752C167.695 335.752 167.695 335.768 167.695 335.786C167.712 335.942 167.747 336.081 167.783 336.22H167.955C170.418 336.201 172.88 336.081 175.343 335.908C175.464 335.908 175.568 335.908 175.69 335.89H175.707C176.592 333.133 177.997 321.686 178.812 312.789Z" fill="#463E7E"/>
<path d="M159.526 301.272C159.908 301.272 160.29 301.256 160.689 301.256C161.348 301.203 162.077 301.187 162.788 301.256H162.822C164.174 301.376 165.458 301.794 166.238 302.799C166.984 303.736 167.02 304.864 167.001 305.419H179.402C179.437 304.932 179.454 304.464 179.472 304.066C179.506 303.355 179.437 302.644 179.264 301.967C179.177 301.343 179.177 300.7 179.177 300.076C179.16 299.504 179.16 298.931 179.056 298.36C178.484 295.134 178.118 291.734 173.748 291.248C173.245 291.196 172.916 290.988 172.673 290.694C171.25 290.416 168.389 290.087 165.753 291.612C165.042 292.03 164.661 292.532 163.724 294.11C163.048 295.255 162.093 296.936 160.55 299.538C160.116 300.267 159.769 300.858 159.526 301.272Z" fill="#3B3368"/>
<path d="M194.285 334.717C194.285 334.717 196.163 352.311 190.771 352.923C185.377 353.533 186.359 335.044 186.359 335.044L194.285 334.717Z" fill="#3B3368"/>
<path d="M194.217 334.718C194.217 334.718 192.518 341.342 189.662 341.436C186.805 341.532 186.289 334.88 186.289 334.88L194.217 334.718Z" fill="#984226"/>
<path d="M167.716 335.605C167.716 335.605 165.837 353.2 171.231 353.81C176.624 354.421 175.643 335.932 175.643 335.932L167.716 335.605Z" fill="#3B3368"/>
<path d="M167.786 335.607C167.786 335.607 169.484 342.231 172.34 342.325C175.197 342.42 175.713 335.769 175.713 335.769L167.786 335.607Z" fill="#984226"/>
<path d="M185.405 310.847L197.718 307.187C197.77 306.563 197.805 305.973 197.84 305.419H185.492C185.421 307.204 185.405 309.025 185.405 310.847Z" fill="#221422"/>
<path d="M166.896 316.327L178.812 312.79C179.072 309.944 179.28 307.378 179.402 305.419H167V305.487C166.88 309.043 166.844 312.702 166.896 316.327Z" fill="#221422"/>
<path d="M188.356 202.332C188.356 202.889 188.807 203.341 189.364 203.341C189.921 203.341 190.373 202.889 190.373 202.332C190.373 201.775 189.921 201.324 189.364 201.324C188.807 201.324 188.356 201.775 188.356 202.332Z" fill="#5A7AC5"/>
<path d="M172.684 202.555C172.684 203.112 173.135 203.564 173.692 203.564C174.249 203.564 174.701 203.112 174.701 202.555C174.701 201.999 174.249 201.547 173.692 201.547C173.135 201.547 172.684 201.999 172.684 202.555Z" fill="#5A7AC5"/>
<path d="M25.2852 325.5C27.1092 323.74 29.0972 322.853 31.4082 323.709C27.4762 339.094 23.5512 354.476 19.6242 369.854C19.0042 369.66 18.3852 369.465 17.7652 369.27C20.2722 354.681 22.7792 340.089 25.2852 325.5Z" fill="#929DB7"/>
<path d="M34.3278 325.952C35.8788 323.485 37.4798 323.412 39.1348 325.827C37.1318 340.415 35.1288 355.004 33.1268 369.592C32.4668 369.472 31.8068 369.351 31.1468 369.229C32.2068 354.804 33.2678 340.377 34.3278 325.952Z" fill="#929DB7"/>
<path d="M56.6297 325.674C58.1497 323.21 59.7487 322.846 61.4577 325.425C62.9637 339.75 64.4677 354.075 65.9727 368.399C65.2817 368.584 64.5917 368.767 63.9007 368.951C61.4767 354.526 59.0537 340.099 56.6297 325.674Z" fill="#929DB7"/>
<path d="M64.9753 325.579C66.4833 322.937 68.0453 322.96 69.6573 325.468C72.5873 339.819 75.5173 354.169 78.4473 368.521C77.7883 368.751 77.1293 368.979 76.4713 369.208C72.6393 354.664 68.8073 340.121 64.9753 325.579Z" fill="#E7EDF9"/>
<path d="M77.8011 317.096C77.6931 319.84 77.1571 321.949 76.2991 323.56L76.2841 323.583C76.0081 324.127 75.6711 324.627 75.3171 325.057H75.3031C73.5851 327.144 71.1481 328.029 68.4651 328.323C68.1891 328.345 67.8991 328.368 67.6071 328.391C67.3161 328.415 65.5522 328.459 62.8712 328.528H62.8551C61.5971 328.549 60.1571 328.595 58.5471 328.617C57.4121 328.617 56.2171 328.641 54.9601 328.663C53.4271 328.687 51.8322 328.708 50.1772 328.731C44.3212 328.776 37.8672 328.776 32.3492 328.641C30.6772 328.595 29.0831 328.549 27.6271 328.481C26.2321 328.436 24.9441 328.368 23.8091 328.277H23.7951C21.0651 328.051 19.2111 327.756 18.7651 327.348C18.6751 327.256 18.5971 327.167 18.4911 327.076H18.4752C2.70016 297.34 11.5611 248.304 12.2361 244.788C12.8491 244.72 13.4772 244.675 14.1212 244.675C18.9962 244.675 24.3152 246.875 28.0872 251.14L28.1011 251.161C28.1171 251.184 28.1331 251.207 28.1481 251.229C28.5771 251.705 28.9751 252.228 29.3591 252.772L29.3752 252.795C29.9572 253.635 30.4771 254.496 30.9371 255.448C34.2481 262.275 36.6111 270.327 38.5121 278.288C38.8631 279.763 39.2472 281.169 39.6602 282.507C41.8072 289.403 44.8271 294.415 48.6751 297.703C52.0011 300.561 55.9711 302.148 60.5711 302.533C62.9321 302.739 65.3231 302.921 67.6531 303.555C69.5691 304.055 71.4851 304.712 73.1411 305.801C74.5361 306.731 75.7471 307.977 76.5751 309.748C77.4481 311.561 77.9241 313.943 77.8011 317.096Z" fill="#9098B1"/>
<path d="M18.4757 327.076C6.19571 315.327 -3.2313 271.348 2.5947 252.432C3.6837 248.893 6.19569 246.58 9.33969 245.47L9.46271 245.423L10.5347 245.106C10.8117 245.036 11.0907 244.976 11.3747 244.923C14.7807 244.274 19.6837 244.558 25.7207 248.886C22.4837 252.668 16.5717 260.731 13.3677 273.867C6.91571 300.317 17.1277 324.051 18.4757 327.076Z" fill="#929DB7"/>
<path d="M100.751 307.821C98.2405 306.032 95.5245 304.343 92.3185 303.933C80.7525 302.463 70.3046 297.295 58.8586 295.465C62.0186 293.86 64.5745 290.86 68.8315 291.801C70.7585 290.479 96.8306 298.429 98.6826 298.991C102.347 300.355 106.155 301.519 108.141 305.087C108.444 305.712 111.343 310.357 112.401 312.225C113.957 315.984 115.567 319.777 117.231 323.603C120.293 330.645 123.411 337.496 126.561 344.152C124.145 347.843 120.973 348.701 116.936 346.351C115.493 344.356 114.049 342.363 112.607 340.368C111.797 338.981 110.773 337.455 109.475 335.879C107.111 333.012 104.603 330.916 102.512 329.436C100.663 328.323 99.5805 326.103 96.9315 326.144C97.7805 323.217 99.9716 321.121 102.019 318.887C104.941 315.695 104.321 310.367 100.751 307.821Z" fill="#3B3368"/>
<path d="M38.8843 283.739C47.1903 281.871 56.1273 286.793 59.2183 295.465C62.6063 295.023 66.0663 294.509 69.2393 296.044C76.0433 299.333 83.6033 300.291 90.8913 302.084C97.1953 303.635 103.751 305.103 105.715 311.765C107.672 318.407 102.143 322.101 97.8323 326.144C96.5683 327.504 74.2143 350.019 65.6723 357.717C64.3353 358.923 62.9433 360.089 60.9643 360.357C57.8683 360.529 56.0963 359.072 55.2323 356.501C55.2403 353.799 78.1023 319.821 79.3923 319.097C78.8023 317.471 77.2443 318.113 76.0443 317.916C73.2863 317.461 52.6083 320.928 41.4193 317.885C39.4143 317.341 29.1673 314.555 26.4313 306.384C23.8043 298.541 28.2313 286.135 38.8843 283.739Z" fill="#463E7E"/>
<path d="M37.2324 306.169C37.0954 306.047 81.8764 310.787 81.1984 311.759C82.8104 309.449 37.3154 306.14 37.2324 306.169Z" fill="#3B3368"/>
<path d="M58.7804 356.565C59.7794 356.405 72.5324 339.473 71.6604 338.756C69.8634 337.281 60.5094 353.972 58.7804 356.565Z" fill="#3B3368"/>
<path d="M77.199 245.734C77.3 245.022 77.401 244.311 77.503 243.599C78.165 239.003 78.784 234.464 79.368 229.959C84.761 239.443 86.908 243.655 87.74 245.587C87.875 245.915 88.605 247.144 89.459 248.85C90.911 251.75 93.089 253.222 95.707 253.891C93.589 256.711 91.884 260.675 88.232 262.824C86.804 262.46 85.611 261.975 84.368 261.44C80.277 259.7 77.48 257.003 75.795 255.048C76.277 251.967 76.739 248.862 77.199 245.734Z" fill="#F46F21"/>
<path d="M127.933 353.774C130.924 353.798 133.914 353.882 136.904 353.816C138.11 353.79 139.853 354.086 140.033 352.44C140.162 351.265 138.677 351.009 137.728 350.501C134.089 348.552 126.724 343.201 125.796 343.398C123.952 347.213 120.17 346.082 116.937 346.35C116.502 347.092 116.069 347.836 115.634 348.578C113.941 351.658 114.404 353.496 118.712 353.265C121.801 353.101 124.877 353.33 127.933 353.774Z" fill="#3B3368"/>
<path d="M28.3723 287.649C30.9473 273.319 41.4753 235.006 45.5663 230.061C48.3873 226.639 51.9603 225.182 54.6243 224.549C55.4673 224.358 56.2193 224.245 56.8263 224.189C57.5563 224.109 58.0743 224.098 58.2993 224.098C58.4113 224.798 59.1073 228.446 62.2313 230.206C62.6243 230.433 65.1073 231.698 66.9623 230.862C67.8953 230.443 68.6823 229.518 69.2543 227.949C69.8843 226.593 70.8163 225.679 72.4123 225.713C74.2443 226.334 75.9863 227.034 77.4243 228.085C78.3463 228.751 79.1553 229.551 79.7843 230.557C80.2903 231.359 80.6943 232.285 80.9403 233.379C82.6043 241.025 80.9303 248.33 78.7163 255.581C78.1553 256.755 77.4913 257.883 77.0873 259.114C75.3233 264.366 77.4903 267.395 82.9863 267.423C81.0073 272.174 80.3883 276.923 78.7183 281.675C72.3113 279.725 64.1243 274.27 68.3113 279.645C68.4103 281.817 68.6033 284.161 68.9313 286.647C68.9583 286.847 69.0603 287.478 69.1743 288.35C69.3553 289.746 69.4583 290.893 69.5183 291.655C64.4443 294.473 61.2393 296.349 59.3433 297.575C58.9163 297.851 57.7583 298.473 56.1873 299.257C56.1873 299.257 54.5863 299.927 52.8023 300.319C49.9633 300.943 31.1113 303.174 27.6073 295.541C26.2863 292.662 28.0273 289.575 28.3723 287.649Z" fill="#FF822E"/>
<path d="M68.3594 280.63C68.4274 280.298 68.4764 279.963 68.5074 279.626C68.8704 278.922 69.2274 277.975 68.8284 277.393C68.5444 276.979 68.0484 276.997 67.4004 276.733C66.1224 276.21 53.4804 264.998 48.8144 258.91C53.0324 268.198 60.2674 274.793 68.3594 280.63Z" fill="#B29A32"/>
<path d="M69.4826 246.746C64.7296 247.882 60.5666 244.622 59.8706 244.06C59.1486 239.477 58.4627 234.888 57.9627 230.273C58.2447 228.412 58.6816 228.206 60.1206 229.348C60.6926 229.81 61.3336 230.252 61.8056 230.805C63.1986 232.43 64.6707 233.153 66.5587 231.617C66.5807 231.629 66.6047 231.629 66.6147 231.641C66.6607 231.65 66.6937 231.674 66.7267 231.685C67.4247 232.001 67.8056 232.68 68.4126 233.074C68.6266 233.209 68.8296 233.514 69.0646 233.673C69.2106 233.774 69.3687 233.82 69.5707 233.741C69.6707 233.696 69.7736 233.628 69.8966 233.504C70.4696 232.25 70.1987 230.589 71.6827 229.777C71.7057 229.788 71.7286 229.8 71.7496 229.81C71.7616 229.81 71.7736 229.81 71.7846 229.822C72.4696 230.128 72.8177 230.782 73.2007 231.358C73.9087 232.373 74.5256 232.645 75.5816 231.697C76.9646 230.454 77.2457 230.601 77.8417 232.408C77.8507 232.465 77.8616 232.537 77.8746 232.622C78.6146 237.705 75.5146 245.302 69.4826 246.746Z" fill="#FCEBE6"/>
<path d="M58.7319 222.001C61.7249 224.653 64.7189 227.308 67.7129 229.96C67.9629 231.022 68.1439 232.114 68.7119 233.065C69.0599 233.646 69.3229 234.502 70.3199 233.974C70.7729 232.56 70.8079 231.002 71.7679 229.764C72.8409 228.521 73.8329 227.192 75.0149 226.062C75.8289 225.286 75.8309 224.71 75.1349 223.97C73.0369 222.332 73.9999 219.98 73.7329 217.916C73.6209 217.3 73.1149 217.016 72.6959 216.648C70.4409 214.673 68.3209 212.577 66.9029 210.074C69.0369 211.82 70.9719 214.168 74.1279 214.565C74.3109 214.54 74.5089 214.454 74.6749 214.497C79.4759 215.745 81.4439 213.293 82.4449 209.561C83.5889 205.302 82.9559 194.598 82.9399 194.061C78.3329 192.961 74.5279 190.213 70.4769 187.965C69.3399 187.333 68.1639 186.71 66.8129 186.71C65.3209 186.712 64.8029 187.453 65.2519 188.845C65.3289 189.084 65.2389 188.784 65.3209 189.02C66.5949 192.645 66.1559 193.642 66.1559 193.642C65.6429 194.873 64.1039 194.386 62.9589 195.545C61.5609 196.958 62.3529 199.194 62.6169 202.385C62.9639 206.565 62.1869 209.754 60.8759 215.141C60.4629 216.836 59.8009 219.21 58.7319 222.001Z" fill="#D88456"/>
<path d="M74.1289 214.565C71.1059 213.128 68.4449 211.187 66.0359 208.821C67.6129 212.703 70.3569 215.576 73.7339 217.916C74.1679 216.835 73.9219 215.673 74.1289 214.565Z" fill="#BC7349"/>
<path d="M69.0465 233.964C70.0445 234.096 69.9495 233.208 70.2715 232.68C70.8035 231.804 71.2205 230.256 72.0185 229.521C72.4055 230.116 72.8845 230.633 73.2715 231.228C72.5215 232.312 71.0885 233.646 69.9925 234.365C69.4085 234.746 69.0905 234.745 69.0465 233.964Z" fill="#E0D6D5"/>
<path d="M69.7461 233.974C68.9001 234.105 68.9801 233.218 68.7081 232.69C68.2561 231.812 68.2121 230.694 67.5351 229.96C67.5031 230.782 66.8021 231.088 66.5521 231.742C67.1881 232.826 68.0151 233.657 68.9441 234.374C69.4391 234.756 69.7081 234.756 69.7461 233.974Z" fill="#E0D6D5"/>
<path d="M48.1061 239.353L58.8601 253.841L61.2202 252.553L77.5042 243.599C78.1662 239.003 78.7851 234.464 79.3691 229.959L77.8741 232.623L77.7621 232.825L77.5492 233.188L70.0761 246.489L57.9622 230.273L48.1061 239.353Z" fill="#F46F21"/>
<path d="M71.7688 229.764C71.8968 230.894 72.8738 231.494 73.4088 232.372C73.9748 233.305 74.6728 233.356 75.4508 232.462C75.8668 231.985 76.2658 231.102 76.9658 231.318C77.8168 231.582 77.1588 232.657 77.6488 233.378C77.7268 232.984 77.7848 232.697 77.8418 232.409C77.3168 230.158 77.2178 228.473 77.2408 227.282C77.2508 226.698 77.3008 225.764 76.7058 224.978C76.2468 224.374 75.5948 224.102 75.1348 223.97C75.2098 224.948 74.8348 225.693 74.1338 226.39C73.1568 227.364 72.0408 228.277 71.7688 229.764Z" fill="#D0C3BE"/>
<path d="M65.5543 247.498C65.4343 247.546 65.3283 247.608 65.2393 247.68C64.8033 248.342 65.9713 249.738 66.9503 250.996C70.6423 255.741 74.4963 260.533 77.0703 264.938C75.4843 259.938 70.9393 253.87 65.5543 247.498Z" fill="#B29A32"/>
<path d="M54.6252 224.548C56.1862 227.496 57.4791 230.589 59.3001 233.402C59.4121 233.572 59.5572 233.741 59.6132 233.932C61.1762 239.262 65.6822 242.548 68.5922 246.941C69.0862 247.674 69.5131 247.698 70.1321 246.929C73.2791 243.012 75.4472 238.494 77.9312 234.181C78.6052 233.006 79.2122 231.786 79.7852 230.556C79.1562 229.55 78.3461 228.75 77.4251 228.084C77.4251 228.105 77.4131 228.14 77.4131 228.173C76.7961 232.34 74.6052 235.705 72.3682 239.104C71.1882 240.9 70.2212 242.842 69.1432 244.761C65.8392 240.358 62.5361 236.089 60.4121 231.041C59.9171 229.866 59.2092 228.76 58.4792 227.7C57.7372 226.616 57.2421 225.418 56.8261 224.188C56.2201 224.244 55.4682 224.357 54.6252 224.548Z" fill="#B29A32"/>
<path d="M57.967 230.272C58.44 229.067 58.995 228.675 60.052 229.833C60.925 230.791 62.093 231.48 62.941 232.455C63.952 233.615 64.76 233.784 65.713 232.475C65.925 232.181 66.269 231.983 66.552 231.743C67.507 231.501 68.009 230.925 67.912 229.901C66.211 227.424 63.717 225.773 61.508 223.836C60.695 223.124 60.139 221.857 58.732 222.001C57.763 222.141 57.276 222.856 56.82 223.609C57.113 225.845 57.373 228.088 57.967 230.272Z" fill="#D0C3BE"/>
<path d="M72.4937 366.975C66.6517 366.315 64.7897 362.793 64.8317 357.904C61.8397 358.439 60.6697 356.117 58.9257 354.697C57.4657 353.431 55.9917 353.7 54.5097 354.661C53.6217 358.927 54.9567 362.593 58.0367 365.787C59.1317 366.879 60.2247 367.972 61.3177 369.065C63.9377 371.775 67.3597 371.951 70.8807 371.484C72.7447 371.237 74.5447 370.625 73.9087 368.244C73.4367 367.82 72.9657 367.398 72.4937 366.975Z" fill="#3B3368"/>
<path d="M62.1333 200.821C67.1603 199.897 68.5683 196.724 66.5773 190.969C66.3593 190.337 65.4163 189.729 66.1253 188.935C66.7453 188.241 67.6333 188.357 68.4113 188.663C70.7073 189.567 74.3873 192.269 75.6203 193.188C79.8033 196.301 86.8913 196.609 88.8043 194.025C90.7393 191.413 88.0973 184.887 83.6813 182.535C80.8153 181.008 77.8243 181.588 71.8443 182.744C70.6133 182.981 69.0003 183.475 67.1523 184.453C63.9613 186.144 62.5213 189.064 62.0853 192.937C61.7923 195.557 61.7993 198.197 62.1333 200.821Z" fill="#F0DAD5"/>
<path d="M83.3184 189.602C85.5844 189.616 85.2454 194.088 82.8694 193.884C81.5704 193.773 80.9544 192.245 79.9424 191.46C79.3544 191.004 77.1694 189.156 76.6744 190.166C78.0854 191.236 79.5364 192.174 80.7824 193.506C81.7444 194.534 83.1134 195.362 84.3304 194.348C85.1684 193.649 85.6044 192.177 85.4924 190.988C85.3654 189.625 84.3544 188.36 83.3184 189.602Z" fill="#C8A3A3"/>
<path d="M66.7856 195.547C63.0856 198.016 63.2565 190.36 65.2475 188.336C66.3365 187.231 68.2726 188.512 69.8056 187.644C70.6966 187.139 74.2516 185.643 74.0076 183.811C71.7176 184.929 69.3296 186.525 66.8876 186.847C65.0036 187.093 63.9996 186.915 63.2856 189.487C62.7956 191.255 62.7926 193.676 63.4256 195.997C64.0596 198.32 65.9996 198.28 66.7856 195.547Z" fill="#C8A3A3"/>
<path d="M80.9131 198.713C81.2841 198.893 82.8001 199.682 83.5241 201.508C84.1271 203.021 83.8321 204.361 83.7121 204.813C83.5611 205.169 83.2251 205.832 82.5241 206.382C81.3931 207.272 80.1271 207.229 79.7851 207.205C80.1611 204.374 80.5371 201.544 80.9131 198.713Z" fill="#D88456"/>
<path d="M79.3938 322.299C79.3938 322.299 89.2459 320.184 87.0069 318.752C84.7689 317.32 78.1749 321.12 78.1749 321.12L79.3938 322.299Z" fill="#3B3368"/>
<path d="M78.9768 322.624C78.9768 322.624 88.3038 326.45 87.2558 324C86.2088 321.551 78.6297 320.962 78.6297 320.962L78.9768 322.624Z" fill="#3B3368"/>
<path d="M76.9404 378.604L95.8244 301.068L102.398 303.226L84.0414 378.604H76.9404Z" fill="#E7EDF9"/>
<path d="M192.658 271.514L200.938 305.648L210.362 344.552H217.075C217.189 344.552 217.319 344.586 217.434 344.602L207.994 305.648L199.191 269.359L192.658 271.514Z" fill="#E7EDF9"/>
<path d="M209.773 298.936L211.406 305.648L227.477 372.039H234.549L218.462 305.648L216.306 296.78L209.773 298.936Z" fill="#E7EDF9"/>
<path d="M69.2499 305.648H200.938L192.658 271.514L199.192 269.359L207.994 305.648H211.408L209.774 298.936L216.308 296.78L218.464 305.648H230.713L211.669 262.923C211.408 263.038 211.113 263.103 210.802 263.103H92.0499L69.2499 305.648Z" fill="#E7EDF9"/>
<path d="M209.773 298.936L211.407 305.648H218.463L216.307 296.78L209.773 298.936Z" fill="#E7EDF9"/>
<path d="M192.656 271.514L200.936 305.648H207.992L199.189 269.359L192.656 271.514Z" fill="#E7EDF9"/>
<path d="M212.538 273.209C212.559 261.127 212.54 249.046 212.638 236.966C212.647 235.781 212.434 234.986 211.952 234.461C211.123 233.553 209.776 233.526 209.215 233.525C206.627 233.517 183.54 233.527 151.818 233.611C152.699 252.285 153.084 264.822 152.696 269.014C152.63 269.733 152.376 271.978 153.711 273.318C154.488 274.098 155.82 274.323 158.055 274.333C174.811 274.399 191.566 274.377 208.32 274.338C209.799 274.334 211.368 274.474 212.538 273.209Z" fill="#B5BFE6"/>
<path d="M177.056 254.82C177.097 258.249 180.316 261.524 183.585 261.464C186.884 261.404 189.989 258.091 189.959 254.664C189.925 250.933 187.231 248.468 183.268 248.541C179.549 248.612 177.012 251.176 177.056 254.82Z" fill="#DFE9F7"/>
<path d="M94.8741 281.828H142.58V259.708H94.8741V281.828Z" fill="#859CCB"/>
<path d="M125.728 276.017C131.347 277.955 136.964 279.892 142.581 281.828C147.877 267.249 153.173 252.669 158.469 238.091L140.091 232.032L125.728 276.017Z" fill="#859CCB"/>
<path d="M131.642 262.912L140.56 275.302C140.56 275.302 150.547 253.112 153.893 243.107C154.34 241.77 141.067 236.107 141.067 236.107L131.642 262.912Z" fill="#B5BFE6"/>
<path d="M124.135 278.642L135.316 277.679C135.316 277.679 133.847 274.726 133.113 273.244C131.377 269.735 127.968 262.751 127.968 262.751L120.461 263.232L124.135 278.642Z" fill="#B5BFE6"/>
<path d="M110.387 270.928C110.138 268.924 109.889 266.921 109.639 264.917C109.639 264.799 109.623 264.684 109.618 264.567C109.667 264.477 109.691 264.389 109.753 264.301C111.205 263.845 121.946 261.82 124.574 265.999C125.317 267.179 125.849 268.252 125.366 269.611C125.034 270.543 123.738 270.723 123.167 270.827C121.379 271.153 116.657 271.221 110.387 270.928Z" fill="#D88456"/>
<path d="M83.0527 267.482C85.0737 267.603 86.5967 267.044 86.8957 267.02C95.3457 266.308 103.64 264.332 112.124 263.971C114.192 266.139 113.742 268.714 113.27 271.276C112.674 272.362 111.72 272.948 110.573 273.275C106.24 276.74 95.4157 284.336 82.4727 282.46C80.8077 282.219 79.2287 281.839 77.7377 281.355C78.7277 279.623 79.8247 277.362 80.7017 274.606C81.5777 271.855 81.9897 269.378 82.1837 267.394C82.3797 267.423 82.6817 267.46 83.0527 267.482Z" fill="#FF822E"/>
<path d="M119.711 256.453C118.039 257.922 116.896 259.613 117.406 261.998C119.406 262.271 121.423 262.458 123.4 262.847C125.098 263.182 125.14 263.298 125.612 261.074C125.895 259.746 126.876 259.631 127.619 260.086C128.878 260.854 129.439 261.317 129.696 261.189C130.107 260.982 129.927 258.705 128.758 257.318C126.299 254.403 120.198 256.295 119.711 256.453Z" fill="#D88456"/>
<path d="M95.4521 253.842C96.3211 254.063 97.2381 254.198 98.1931 254.265C105.925 254.797 113.668 255.123 121.41 255.53C120.522 257.714 119.634 259.899 118.746 262.085C112.004 261.759 106.642 262.219 102.834 262.746C98.6062 263.329 93.8182 264.261 88.0012 262.783C87.9932 262.781 87.9852 262.777 87.9762 262.775C91.6292 260.625 93.3341 256.661 95.4521 253.842Z" fill="#F46F21"/>
</g>
<defs>
<clipPath id="clip0">
<rect width="389" height="379" fill="white" transform="matrix(-1 0 0 1 389 0)"/>
</clipPath>
</defs>
</svg>
