<svg width="389" height="379" fill="none" xmlns="http://www.w3.org/2000/svg"><g clip-path="url(#clip0)"><path d="M159.614 181.988c.727 7.989-3.71 16.672-9.109 22.301-2.98 3.108-16.471 15.293-21.077 12.724 2.684-4.389 6.724-7.469 9.213-12.165 2.34-4.412 4.025-9.15 6.599-13.444 2.524-4.216 5.418-6.566 9.154-9.572 3.704-2.98 3.247-2.038-2.582-2.912-7.031-1.055-5.836-1.27-7.572 4.946-1.311 4.688-3.827 9.039-6.93 12.762-2.441 2.93-18.083 17.305-22.093 13.814 5.313-4.59 9.345-10.677 12.952-16.648 4.453-7.373 8.515-11.369 15.776-16.028-3.231-.693-7.92-2.929-10.565-.642-2.651 2.289-4.218 8.214-6.71 11.065-2.265 2.592-17.585 15.835-21.048 12.48.356-3.581 9.888-10.344 12.375-13.147 4.435-4.994 8.767-8.17 14.049-12.073-2.414-.509-6.708-2.312-8.817-1.284-1.999.976-4.464 6.017-6.26 7.676-6.021 5.555-14.173 8.971-22.344 9.215 9.307-5.412 16.503-14.064 26.779-17.852-2.983-.723-7.384-2.744-10.092-1.56-2.619 1.146-5.386 5.538-8.044 7.205-6.531 4.092-15.352 6.669-23.043 6.145 4.412-3.218 9.992-5.149 14.689-8.008 2.06-1.254 14.195-6.314 14.264-6.741-2.396-.7-5.681-2.393-8.212-1.885-2.856.57-6.046 4.189-8.794 5.473-6.522 3.048-15.307 4.684-22.419 3.148 9.713-1.972 17.985-8.275 27.83-9.793-6.817-.798-11.763-3.714-17.477-7.3-1.614-1.014-15.841-8.89-15.566-9.5 6.893-.511 14.948 2.088 21.002 5.313 4.11 2.191 11.408 11.832 15.659 11.148-6.317-5.983-7.703-15.124-13.148-21.713 5.237 3.364 10.035 7.67 12.807 13.36 2.701 5.546 1.173 10.676 8.921 10.586-7.199-6.885-8.122-18.22-13.096-26.658 5.477 1.857 10.141 9.149 12.372 14.21 1.46 3.308.988 8.412 2.413 11.203 1.468 2.876 2.542 2.644 6.334 3.449.426-1.557-2.534-4.204-3.291-5.732-1.396-2.814-1.988-5.945-2.64-8.992-.588-2.745-1.075-5.502-1.939-8.181-.412-1.273-3.221-5.932-2.913-6.824.497-1.44 6.351 5.855 7.008 6.833 2.571 3.82 4.661 8.062 5.544 12.608.436 2.246-.73 9.088.18 10.495 1.156 1.791 8.125 2.147 10.192 2.616-.065-1.937-3.107-3.743-4.079-5.299-1.78-2.842-2.373-6.082-3.315-9.256-1.98-6.674-4.378-13.23-6.569-19.838 5.549-1.026 12.925 16.61 14.076 20.397.668 2.195 1.171 4.416 1.35 6.713.118 1.548-.79 5.207-.204 6.263 1.494 2.701 8.025 2.697 11.026 3.232-6.593-7.847-9.057-14.856-11.415-24.659-.637-2.652-1.36-5.338-2.468-7.84-.524-1.184-3.586-5.366-3.314-6.717.456-2.275 1.081-.795 2.976.488 7.581 5.127 13.356 16.211 15.197 24.895.475 2.24.768 4.526.713 6.822-.02.864-1.271 5.751-.823 6.664.962 1.96 10.681 2.139 12.591 2.423-6.47-7.199-9.12-12.989-10.673-22.616-.4-2.475-4.588-22.299-5.401-21.753.868-.582 10.744 11.136 11.12 10.678 4.633 7.964 8.529 14.715 8.225 24.315-.079 2.524-2.308 8.051-1.13 9.597 1.065 1.4 10.801 1.326 12.248 1.479-3.266-4.764-5.135-8.599-6.021-14.328-.564-3.661-.936-7.343-1.738-10.967-.466-2.097-2.644-6.422-2.294-8.404 4.668 1.627 9.082 11.188 10.677 15.44 1.274 3.399 1.905 6.974 1.777 10.607-.069 1.973-1.932 6.417-.286 7.897 1.822 1.636 38.91 3.436 37.7 6.319-.312.745-32.603-5.521-35.523-5.131-4 .534-2.188-.06-3.264 3.831-.774 2.792-.818 5.62-1.924 8.371-2.306 5.721-6.718 9.992-11.284 13.954 1.493-9.906 4.852-19.525 12.369-26.456-2.105-.244-10.943-2.45-10.651.758z" fill="#285832"/><path d="M269.735 153.825c11.038-4.244 22.868-7.597 34.39-11.414 5.239-1.735 10.008-3.407 14.712-5.291 3.894-1.559 7.334-3.331 8.044-7.748 1.878-11.671-13.568-29.719-.032-39.74 12.854-9.518 13.291 14.44 11.076 21.049-2.101 6.272-7.665 11.892-9.249 18.066-1.261 4.92-1.607 3.693 3.563 1.545 13.756-5.717 8.65-14.728 10.712-27.011 1.189-7.09 13.35-25.863 18.121-11.119 3.884 12.007-10.16 23.678-17.332 30.966 3.244 3.892 20.341-13.708 23.512-15.999 4.356-3.148 17.548-10.31 21.171-2.164 3.616 8.13-10.723 13.315-16.05 14.486-10.081 2.218-18.329.726-27.612 6.252 6.474 3.108 17.774-2.002 25.263-.284 6.631 1.518 17.772 9.865 6.903 14.34-7.51 3.092-17.8-2.71-23.724-6.739-3.592-2.444-6.342-6.209-11.003-5.833-3.653.296-8.871 4.83-12.033 6.61 1.522 2.358 7.916 1.375 10.246 1.61 5.707.57 11.698 1.348 17.095 3.401 5.899 2.244 21.611 14.631 10.821 19.759-8.654 4.112-20.329-3.826-26.168-9.316-8.296-7.802-9.532-17.879-21.568-10.358 11.142 4.544 22.383 12.622 29.579 22.42 5.511 7.504 5.761 23.839-7.984 18.75-10.14-3.755-14.741-19.103-17.211-28.515-.801-3.055-1.109-10.92-5.61-11.457-5.746-.686.609 5.654 1.48 6.957 2.926 4.383 8.529 21.959-.536 22.875-10.564 1.069-7.015-17.803-5.911-22.6 1.203-5.216 2.416-4.406-1.28-5.386-3.845-1.018-15.64 5.152-19.719 6.538-8.552 2.906-17.58 3.954-25.674 8.35-.05-1.501.62-2.501 2.008-3z" fill="#4BAD4E"/><path d="M317.571 130.213c-6.589-7.706-13.824-16.136-16.724-26.098-1.721-5.916-1.497-16.965 7.339-15.952 15.225 1.745 14.017 43.03 10.507 42.857a392.15 392.15 0 01-1.122-.807zm-3.177 7.392l.012.006c-.005.008-.009.005-.012-.006zm-19.368-13.779c-2.356-8.421 7.205-4.116 10.493-1.522 4.815 3.8 7.612 9.369 8.874 15.301-6.999-3.585-16.9-4.959-19.367-13.779z" fill="#4BAD4E"/><path d="M169.81 111.148l-.249.135c.097-.019.189-.047.249-.135zM156.96 95.48c.724.359 9.67 5.537 10.054 5.344.62-.311-.802-5.012-1.264-5.55-1.257-1.466-4.048-1.36-5.794-1.731-8.47-1.795-15.36-6.787-22.282-11.788 1.895-1.444 13.027 4.945 15.395 5.948 2.835 1.201 5.676 2.417 8.367 3.925 1.624.91 2.944 2.748 3.44 1.135 1.513-4.915-9.655-5.64-12.036-6.655-4.9-2.088-12.287-6.032-15.832-10.125 4.966 1.966 9.82 4.19 14.697 6.362 3.811 1.698 7.788 4.943 11.728 5.96-.864-5.744-5.393-5.525-10.057-7.308-4.296-1.64-11.474-5.4-14.327-9.154 4.813 1.105 8.961 3.421 13.188 5.904 1.573.925 7.48 5.966 9.461 5.173-.064-1.181-.616-4.243-1.369-5.166-1.712-2.102-4.195-1.098-6.613-1.522-4.727-.828-10.434-4.947-13.983-8.092 1.408-1.07 9.655 3.215 11.604 4.03 1.239.52 11.059 6.082 7.539.818-1.49-2.227-6.854-2.564-9.118-3.59-3.444-1.56-7.574-4.163-10.304-6.788 4.182.72 7.912 2.63 11.556 4.716 1.639.938 5.544 4.456 7.503 3.748-.1-.296-.751-1.404-.144-1.612.904-.31.781 1.73 1.317 2.028 2.766-5.931 6.191-11.587 9.348-17.315 2.578 3.147-3.48 10.543-5.101 12.876-1.737 2.496-6.212 6.956-2.675 9.995.283-.782.767-1.511 1.024-2.249 1.778-5.693 6.04-11.365 9.163-16.382.957 1.681-2.084 8.024-2.68 9.62-.985 2.632-2.099 4.725-4.124 6.676-1.52 1.464-2.871 1.873-3.119 4.142-.253 2.325 2.086 7.66 2.93 9.793 2.472-2.365 4.306-8.46 6.149-11.671 2.4-4.184 4.812-8.357 7.359-12.452 1.37 2.448-5.235 14.258-6.711 16.613-1.48 2.363-3.777 4.143-5.227 6.484-1.64 2.648-.533 3.464.134 6.332 3.017-3.623 4.896-9.308 7.434-13.437 2.266-3.683 4.707-9.981 8.296-12.528-2.153 6.579-4.373 13.31-8.352 19.043-1.596 2.3-4.608 4.231-5.928 6.553-1.529 2.692.07 5.068 1.054 7.86 6.381-9.024 11.032-19.936 16.692-29.508-.695 6.95-4.122 12.441-7.91 18.118-2.852 4.275-9.396 9.874-7.493 15.186 3.172-2.712 5.381-8.16 8.085-11.536 3.083-3.848 6.234-7.647 9.396-11.428.863 2.914-5.752 11.221-7.373 13.874-1.38 2.263-2.871 4.122-4.908 5.814-1.728 1.433-4.056 2.225-4.493 4.622-.263 1.435 1.12 5.089 1.953 6.34 1.252 1.884.155 1.756 2.285.203 2.312-1.684 4.49-5.009 6.603-7.085 2.401-2.36 4.792-4.731 7.192-7.09.312 3.339-6.475 11.112-9.011 12.864-1.31.907-3.822 1.36-4.858 2.47-.768.824-1.76 4.777-.13 4.973 1.011.121 4.276-4.331 5.032-5.028 2.464-2.271 5.158-4.272 7.68-6.475-.364 5.203-5.849 9.531-9.973 11.596-2.869 1.436-2.588.526-1.471 4.511.658 2.345 3.004 7.477 2 9.857-1.977-3.82-.828-11.872-5.934-12.028-2.651-.08-4.711.775-7.507-.017-2.697-.763-5.169-2.287-7.488-3.827 4.392.452 8.869.434 13.183 1.48 2.294.556 2.744 1.642 3.58.275.796-1.299-1.252-4.071-2.334-4.537-1.14-.491-3.125.395-4.297.561-2.588.364-4.4.413-6.952-.275-3.931-1.061-8.079-2.609-11.623-4.618 5.45.825 10.975 1.125 16.398 2.134.464.087 9.377 2.83 6.574-.524-1.848-2.213-9.613-1.267-12.374-2.02-5.323-1.449-10.447-4.64-15.468-6.928 1.622-2.308 11.893 2.105 13.753 2.829 3.159 1.226 10.008 5.642 13.328 4.985.792-.156-1.312-4.884-2.153-5.364-2.379-1.355-6.735-.138-9.502-.906-6.277-1.744-12.449-5.325-18.296-8.205 1.97-1.144 27.386 6.217 27.386 8.183 3.056-.664-3.616-4.04-3.99-4.184-3.604-1.383-7.256-2.656-10.882-3.979-4.83-1.76-14.598-5.046-16.224-10.704 6.708 2.893 13.274 6.188 19.824 9.428z" fill="#285832"/><path d="M177.276 107.023c-1.349 1.121-2.624 2.333-3.933 3.502-.69-.662 5.552-9.493 6.448-10.841 2.662-4.003 5.632-7.825 9.537-10.684-3.564 6.11-6.511 13.412-12.052 18.023zM163.528 83.31c2.773-8.633 8.335-19.347 11.181-21.547-1.858 8.097-7.352 18.681-11.181 21.548zm-22.659-24.214c5.178 1.81 11.536 3.694 15.82 7.272-6.388.618-10.988-3.862-15.82-7.272z" fill="#285832"/><path d="M159.244 65.457a8.147 8.147 0 00-1.414 2.611c-.082-.532-.949-1.307-1.102-1.67-.203-.17.352-1.846.022-2.342-.877-1.319-2.033-1.623-3.476-2.105-4.533-1.516-7.893-3.726-12.068-6.148 2.43.282 13.239 6.693 14.379 5.532 2.191-2.232-3.595-3.29-4.371-3.51-2.574-.732-5.589-1.973-7.338-4.126 2.502.924 8.184 4.416 10.732 4.076 2.012-.268-2.471-3.339-2.356-3.272-2.564-1.498-4.863-2.423-7.351-4.294 2.793 1.004 5.523 2.175 8.093 3.667.258.205.527.224.807.057.601-.778-5.763-7.116-5.176-9.914l4.26 6.54c.555-4.108-1.185-6.776.477-10.96.71 2.824-.742 11.069 1.456 13.324.959-2.995 2.872-5.544 4.607-8.114-1.969 5.564-6.552 10.468-2.635 16.167 2.74-3.693 3.339-8.473 6.88-11.704-.836 3.221-1.684 6.896-3.793 9.548-2.399 3.015-3.053 2.697-2.027 6.955 3.214-2.872 5.774-9.368 8.087-13.182.865 3.884-3.549 10.978-6.693 12.864z" fill="#285832"/><path d="M155.855 57.044c-1.018-1.023 5.703-9.028 6.411-9.97-1.241 2.831-2.724 9.163-6.411 9.97zm125.844 36.744l-.383-.029c.124.05.251.087.383.03zm-3.314-27.313c.568.94 7.032 13.41 7.609 13.47.934.1 2.722-6.313 2.584-7.266-.373-2.596-3.637-4.521-5.364-6.223-8.372-8.256-12.621-19.008-16.898-29.792 3.209-.261 11.292 15.194 13.268 18.074 2.366 3.45 4.732 6.921 6.71 10.614 1.196 2.232 1.37 5.296 3.106 3.819 5.296-4.507-6.936-13.519-8.92-16.421-4.082-5.976-9.659-15.895-10.739-23.167 4.247 5.884 8.176 11.98 12.172 18.035 3.123 4.732 5.311 11.354 9.073 15.402 3.183-7.196-2.151-10.264-6.185-15.717-3.717-5.021-9.189-14.575-9.722-20.955 4.696 4.79 7.751 10.474 10.779 16.408 1.128 2.21 4.216 12.296 7.055 12.842.785-1.398 2.376-5.299 2.187-6.906-.434-3.656-3.998-4.326-6.454-6.584-4.798-4.409-8.327-13.294-10.101-19.489 2.384-.19 8.697 10.747 10.331 13.107 1.038 1.501 8.221 15.05 8.02 6.457-.087-3.635-5.968-7.95-7.811-10.78-2.801-4.308-5.633-10.308-6.844-15.305 4.254 3.885 7.129 8.801 9.779 13.853 1.19 2.273 3.098 9.153 5.85 9.779.1-.411.16-2.154 1.006-1.947 1.257.31-.363 2.55.034 3.283 7.462-4.751 15.478-8.7 23.242-12.931.66 5.483-11.626 9.495-15.171 10.97-3.796 1.58-12.144 3.397-10.308 9.46.891-.686 1.972-1.165 2.801-1.818 6.162-5.204 15.146-8.559 22.355-12.001-.127 2.62-8.203 7.638-10.043 9.025-3.034 2.285-5.824 3.86-9.556 4.604-2.797.559-4.637.037-6.568 2.448-1.974 2.468-3.174 10.277-3.757 13.333 4.539-.89 11.059-6.51 15.492-8.828 5.777-3.02 11.561-6.02 17.443-8.834-.211 3.802-16.326 12.454-19.72 14.064-3.407 1.614-7.322 1.964-10.679 3.577-3.793 1.824-3.121 3.565-4.441 7.33 6.077-1.927 12.348-7.046 18.245-9.902 5.257-2.548 12.617-7.955 18.567-8.233-7.235 5.938-14.655 11.998-23.358 15.634-3.494 1.459-8.337 1.458-11.528 3.143-3.701 1.955-3.6 5.841-4.501 9.75 13.837-5.633 27.071-14.69 40.481-21.478-5.838 7.43-13.736 11.192-22.184 14.903-6.358 2.793-17.897 4.394-19.577 11.857 5.592-.775 12.068-5.379 17.607-7.253 6.313-2.138 12.669-4.17 19.025-6.172-1.128 3.961-14.713 8.604-18.489 10.448-3.219 1.572-6.271 2.604-9.826 3.044-3.013.372-6.247-.43-8.487 1.989-1.34 1.447-2.412 6.635-2.37 8.675.066 3.069-1.097 2.117 2.464 1.905 3.864-.23 8.764-2.433 12.685-3.256 4.455-.936 8.906-1.893 13.36-2.832-2.066 4.045-15.46 7.952-19.629 8.096-2.153.074-5.353-1.248-7.342-.739-1.474.377-5.477 4.168-3.757 5.587 1.067.877 8.027-1.816 9.398-2.058 4.461-.789 8.99-1.101 13.47-1.769-4.19 5.675-13.596 6.601-19.805 5.939-4.321-.46-3.339-1.296-4.953 4.076-.951 3.16-1.996 10.742-4.868 12.726.512-5.813 7.668-14.169 1.947-18.089-2.97-2.033-5.942-2.567-8.564-5.52-2.527-2.846-4.244-6.401-5.776-9.856 4.688 3.732 9.817 6.994 13.985 11.347 2.218 2.317 1.944 3.885 3.891 2.937 1.852-.901 1.524-5.568.626-6.892-.946-1.396-3.856-1.837-5.316-2.508-3.22-1.48-5.326-2.75-7.742-5.408-3.719-4.09-7.337-8.898-9.927-13.789 5.628 4.933 11.721 9.324 17.184 14.45.467.44 8.658 10.103 7.892 4.22-.507-3.883-10.064-8.491-12.674-11.375-5.028-5.556-8.565-12.955-12.643-19.247 3.53-1.448 12.061 11.119 13.661 13.308 2.717 3.716 7.338 13.779 11.608 15.46 1.018.4 2.045-6.541 1.432-7.705-1.735-3.291-7.595-5.092-10.198-7.996-5.905-6.592-10.357-15.206-14.946-22.779 3.08.135 26.772 27.168 25.346 29.412 3.974 1.48-1.198-7.264-1.521-7.703-3.115-4.22-6.361-8.349-9.545-12.517-4.239-5.55-13.014-16.461-10.767-24.117 5.564 8.221 10.675 16.796 15.804 25.297z" fill="#285832"/><path d="M293.22 94.544c-2.357.294-4.692.743-7.034 1.121-.308-1.264 13.23-6.779 15.23-7.661 5.947-2.623 12.111-4.814 18.648-5.219-8.504 4.368-17.17 10.553-26.844 11.759zm1.5-37.16c9.433-7.83 23.56-15.997 28.409-16.424-8 7.888-21.953 15.956-28.409 16.424zm-8.316-44.264c4.602 5.861 10.498 12.672 12.795 19.899-7.745-3.975-9.749-12.462-12.795-19.899z" fill="#285832"/><path d="M302.778 33.848a10.996 10.996 0 00-3.509 1.947c.293-.667-.136-2.187-.047-2.714-.109-.345 1.741-1.853 1.724-2.66-.045-2.149-1.145-3.342-2.443-4.95-4.078-5.055-6.314-10.042-9.324-15.867 2.57 2.103 10.266 17.345 12.411 16.855 4.123-.946-1.719-6.392-2.447-7.212-2.41-2.722-4.953-6.348-5.389-10.091 2.188 2.89 6.147 11.041 9.303 12.52 2.494 1.168-.399-5.625-.316-5.464-1.843-3.59-3.799-6.332-5.283-10.29 2.463 3.193 4.731 6.529 6.585 10.118.146.423.439.641.879.657 1.253-.449-1.42-12.352 1.281-15.12.04 3.531.08 7.062.122 10.591 3.613-4.284 3.562-8.608 8.498-12.168-1.24 3.745-8.88 12.101-8.004 16.285 3.267-2.716 7.303-4.226 11.148-5.892-6.286 4.914-15.078 7.159-14.74 16.539 5.811-2.212 9.962-7.233 16.352-8.328-3.292 3.067-6.928 6.643-11.261 8.125-4.928 1.688-5.445.844-7.363 6.462 5.756-.928 13.394-6.474 18.803-9.132-1.828 5.069-12.019 9.938-16.98 9.789z" fill="#285832"/><path d="M305.014 21.755c-.422-1.915 13.065-6.135 14.558-6.692-3.472 2.325-9.762 8.472-14.558 6.691z" fill="#285832"/><path d="M172.907 137.184c-.776 5.985-5.578 11.645-10.604 14.905-2.773 1.801-15.014 8.568-18.078 5.936 2.762-2.791 6.334-4.399 9-7.445 2.505-2.862 4.569-6.07 7.23-8.807 2.612-2.688 5.195-3.944 8.524-5.548 3.3-1.589 2.798-.972-1.472-2.557-5.15-1.914-4.21-1.876-6.558 2.408-1.771 3.23-4.399 6.018-7.367 8.252-2.336 1.757-16.571 9.784-19.029 6.57 4.786-2.512 8.852-6.329 12.576-10.132 4.597-4.694 8.337-6.972 14.61-9.218-2.332-1.032-5.512-3.434-7.896-2.183-2.388 1.252-4.558 5.352-6.918 7.043-2.148 1.537-15.951 8.784-18.016 5.76.864-2.574 9.206-5.996 11.557-7.654 4.187-2.952 7.996-4.582 12.645-6.594-1.744-.766-4.697-2.783-6.465-2.37-1.676.392-4.38 3.698-6.016 4.624-5.484 3.107-12.225 4.296-18.456 3.154 7.948-2.47 14.836-7.66 23.249-8.779-2.14-1.013-5.138-3.211-7.386-2.779-2.174.418-4.999 3.196-7.29 3.99-5.625 1.949-12.734 2.414-18.473.785 3.876-1.651 8.423-2.165 12.456-3.505 1.769-.588 11.801-2.34 11.924-2.644-1.699-.9-3.907-2.676-5.907-2.714-2.258-.041-5.277 2.1-7.57 2.599-5.447 1.183-12.372.963-17.506-1.316 7.687.124 14.999-3.167 22.708-2.689-5.032-1.69-8.294-4.632-12.026-8.191-1.055-1.005-10.523-9.092-10.214-9.496 5.307.74 10.976 3.952 15.026 7.301 2.75 2.274 6.677 10.536 10.01 10.722-3.792-5.416-3.322-12.355-6.353-18.076 3.409 3.318 6.328 7.258 7.481 11.885 1.127 4.511-.884 8.031 5 9.22-4.308-6.223-3.125-14.697-5.493-21.7 3.841 2.249 6.163 8.361 7.013 12.44.556 2.665-.649 6.339-.033 8.619.635 2.349 1.485 2.353 4.225 3.557.582-1.075-1.221-3.497-1.541-4.743-.591-2.293-.519-4.688-.507-7.03.011-2.112.1-4.216-.11-6.323-.1-1.003-1.455-4.879-1.074-5.484.616-.976 3.839 5.328 4.175 6.152 1.312 3.223 2.191 6.676 2.105 10.159-.042 1.718-2.061 6.557-1.606 7.737.578 1.503 5.797 2.891 7.286 3.571.271-1.434-1.732-3.254-2.21-4.552-.876-2.376-.787-4.852-.974-7.335-.392-5.223-1.118-10.427-1.681-15.635 4.373.146 7.032 14.292 7.275 17.26.141 1.72.153 3.432-.094 5.15-.166 1.156-1.461 3.696-1.194 4.566.685 2.226 5.632 3.28 7.816 4.158-3.691-6.831-4.394-12.376-4.551-19.958-.043-2.05-.144-4.142-.568-6.158-.2-.954-1.825-4.522-1.396-5.471.724-1.596.952-.407 2.175.84 4.89 4.993 7.425 14.068 7.377 20.744-.013 1.723-.171 3.449-.593 5.128-.159.631-1.919 4.017-1.731 4.76.404 1.596 7.736 3.3 9.135 3.817-3.704-6.334-4.751-11.016-4.328-18.338.108-1.882.228-17.12-.479-16.851.753-.287 6.289 9.917 6.649 9.643 2.187 6.598 4.016 12.188 2.194 19.19-.48 1.84-3.086 5.539-2.452 6.866.576 1.2 7.962 2.722 9.033 3.068-1.683-4.028-2.463-7.147-2.18-11.498.18-2.781.509-5.545.503-8.336-.004-1.616-.936-5.146-.342-6.544 3.266 1.95 5.022 9.687 5.523 13.068.401 2.702.285 5.431-.415 8.078-.38 1.438-2.529 4.401-1.528 5.754 1.108 1.498 28.902 8.82 27.508 10.742-.361.497-23.78-9.331-26.056-9.518-3.118-.254-1.648-.397-3.109 2.286-1.049 1.926-1.552 3.997-2.848 5.837-2.696 3.829-6.747 6.252-10.864 8.424 2.776-7.035 6.919-13.556 13.763-17.431-1.555-.518-7.882-3.57-8.194-1.166zm138.579-41.522c-6.706-1.58-12.568-7.6-15.682-13.574-1.718-3.3-7.966-17.718-4.614-20.806 2.842 3.405 4.25 7.568 7.396 10.896 2.956 3.128 6.354 5.806 9.152 9.093 2.745 3.225 3.869 6.247 5.298 10.141 1.418 3.859.775 3.226 3.078-1.33 2.777-5.495 2.625-4.455-1.964-7.578-3.462-2.357-6.32-5.613-8.506-9.178-1.721-2.808-9.165-19.594-5.228-21.942 2.291 5.623 6.148 10.599 10.03 15.195 4.792 5.673 6.937 10.104 8.752 17.347 1.446-2.469 4.546-5.715 3.406-8.515-1.142-2.804-5.542-5.71-7.185-8.536-1.493-2.57-8.101-18.783-4.424-20.716 2.82 1.27 5.728 10.953 7.333 13.764 2.86 5.01 4.264 9.439 6.003 14.848 1.073-1.848 3.713-4.887 3.451-6.903-.25-1.91-3.684-5.312-4.546-7.241-2.882-6.467-3.441-14.104-1.412-20.892 1.87 9.132 6.955 17.41 7.238 26.894 1.402-2.255 4.25-5.325 4.022-7.874-.218-2.467-3.041-5.941-3.673-8.583-1.553-6.486-1.247-14.444 1.279-20.626 1.417 4.506 1.469 9.62 2.516 14.265.458 2.037 1.272 13.397 1.601 13.57 1.223-1.78 3.499-4.02 3.776-6.24.312-2.503-1.764-6.115-2.06-8.726-.705-6.196.359-13.867 3.549-19.299-1.042 8.528 1.835 17.05.387 25.563 2.509-5.39 6.233-8.664 10.713-12.386 1.267-1.05 11.562-10.603 11.984-10.211-1.465 5.809-5.777 11.725-10.057 15.825-2.905 2.784-12.749 6.156-13.351 9.84 6.596-3.565 14.42-2.21 21.274-4.893-4.17 3.39-8.986 6.162-14.376 6.89-5.255.708-9.016-1.948-11.056 4.45 7.572-4.043 17.056-1.711 25.286-3.5-3.006 3.997-10.218 5.845-14.95 6.3-3.092.298-7.122-1.482-9.783-1.071-2.744.422-2.848 1.37-4.536 4.27 1.151.775 4.115-.938 5.565-1.145 2.675-.38 5.386-.015 8.044.28 2.398.265 4.776.619 7.194.637 1.149.01 5.71-1.032 6.353-.534 1.037.801-6.5 3.627-7.477 3.901-3.814 1.072-7.838 1.635-11.783 1.12-1.948-.253-7.203-3.078-8.597-2.713-1.774.463-3.964 6.097-4.91 7.67 1.595.474 3.896-1.535 5.427-1.91 2.801-.688 5.603-.295 8.444-.203 5.977.192 11.972.008 17.952.008-.68 4.844-17.055 6.1-20.453 6.015-1.971-.05-3.918-.242-5.838-.723-1.293-.324-4.025-2.066-5.044-1.874-2.609.493-4.386 5.865-5.641 8.188 8.191-3.283 14.571-3.4 23.199-2.663 2.334.199 4.72.337 7.06.108 1.106-.11 5.348-1.487 6.376-.895 1.728.995.35 1.106-1.21 2.315-6.244 4.837-16.846 6.564-24.422 5.71-1.955-.22-3.898-.602-5.754-1.274-.697-.252-4.337-2.615-5.202-2.495-1.86.258-4.655 8.203-5.407 9.696 7.628-3.358 13.067-3.958 21.332-2.61 2.125.345 19.415 2.307 19.192 1.49.237.872-12 5.799-11.732 6.233-7.751 1.639-14.311 3.002-22.048.134-2.035-.754-5.928-4.093-7.509-3.547-1.431.494-4.026 8.521-4.546 9.671 4.772-1.387 8.406-1.88 13.314-1.044 3.137.534 6.236 1.233 9.406 1.56 1.835.189 5.954-.423 7.472.405-2.597 3.396-11.59 4.419-15.489 4.571-3.115.121-6.2-.335-9.124-1.431-1.588-.595-4.7-3.339-6.356-2.388-1.829 1.051-13.409 31.065-15.427 29.285-.524-.461 13.39-25.312 13.867-27.82.656-3.434.647-1.782-2.229-3.729-2.064-1.397-4.358-2.205-6.295-3.865-4.032-3.456-6.307-8.25-8.288-13.087 7.661 3.93 14.58 9.316 18.175 17.389.772-1.666 4.981-8.332 2.288-8.968z" fill="#338D40"/><path d="M334.167 115.252c-11.347-23.107-37.966-60.468-70.439-60.08-40.863.485-40.876 59.918-106.766 99.51-59.257 35.607-108.366 17.051-134.25 59.962-1.987 3.294-14.05 24.302-10.422 47.932 9.755 63.521 136.051 132.938 234.243 88.058 89.846-41.064 123.284-162.789 87.634-235.382z" fill="#9AB7E4"/><path d="M178.919 265.092h135.02c8.8 0 16-7.2 16-16V64.06c0-8.8-7.2-16-16-16h-135.02c-8.8 0-16 7.2-16 16v185.032c0 8.8 7.2 16 16 16z" fill="#DFE9F7"/><path d="M173.325 269.952h135.019c8.8 0 16-7.2 16-16V68.919c0-8.8-7.2-16-16-16H173.325c-8.801 0-16 7.2-16 16v185.033c0 8.8 7.199 16 16 16z" fill="#fff"/><path d="M203.367 122.051c1.808.002 3.617-.038 5.424.017 1.105.033 1.405-.448 1.406-1.492.002-1.019-.426-1.324-1.348-1.32-3.692.02-7.384.044-11.076-.004-1.068-.015-1.196.488-1.225 1.376-.036 1.059.271 1.495 1.395 1.443 1.804-.083 3.614-.022 5.424-.02z" fill="#DFE9F7"/><path d="M250.207 203.618c4.31.026 13.159-.565 21.822-6.196 5.604-3.641 8.752-7.848 9.584-9 1.345-1.86 4.768-6.982 6.1-14.552.92-5.232.613-10.678-.912-16.337-1.018-3.768-2.756-7.149-4.826-10.404-.734-1.156-1.354-1.633-2.65-.495-10.574 9.279-21.204 18.49-31.81 27.732-6.476 5.644-12.898 11.352-19.441 16.918-1.232 1.048-.901 1.697-.047 2.464 5.184 4.644 11.022 7.985 18.01 9.013 1.402.208 2.781.568 4.17.857z" fill="#463E7E"/><path d="M223.017 187.18c.582-.004 1.007-.468 1.328-.858.872-1.053 13.107-11.264 17.606-15.301 2.152-1.932 4.354-3.807 6.56-5.677.838-.712 1.125-1.222.216-2.248a1957.47 1957.47 0 01-18.578-21.286c-.482-.56-.844-.821-1.204-.833-.669-.023-1.201.62-1.385.845-9.115 11.15-10.289 19.779-10.289 19.779-1.688 12.384 2.67 25.599 5.746 25.579z" fill="#859CCB"/><path d="M251.65 162.084c.715.392.928-.355 1.266-.645 7.47-6.439 14.916-12.907 22.37-19.363.983-.851 1.06-1.496-.088-2.385-4.633-3.59-9.712-6.052-15.469-7.359-3.689-.836-7.332-.728-11.008-.648-2.669.057-2.959.545-2.464 3.064 1.124 5.712 4.817 27.02 5.393 27.336z" fill="#9AB7E4"/><path d="M245.676 153.301c-.758-3.686-1.495-7.288-2.236-10.886-1.064-5.174-2.218-10.33-3.139-15.528-.259-1.455-.819-1.547-1.939-1.274-3.525.86-6.71 2.438-9.713 4.462-.691.465-.779.838-.32 1.43 5.581 7.208 11.168 14.414 16.761 21.611.074.093.268.091.586.185zm55.311-4.414c4.685-.196 9.37-.204 14.057.004 1.041-.546.929-1.552.717-2.384-.241-.95-1.212-.692-1.924-.695-4.2-.013-8.4-.02-12.6.019-.962.008-2.237-.391-2.324 1.313-.08 1.544 1.012 1.609 2.074 1.743zM198.83 144.1c2.418.003 4.835-.019 7.251.013 1.005.012 1.515-.261 1.469-1.417-.042-1.083-.454-1.453-1.501-1.447-4.833.031-9.668.039-14.501-.002-1.235-.011-1.258.761-1.351 1.626-.117 1.106.507 1.243 1.383 1.234 2.417-.027 4.834-.01 7.25-.007zm111.043-.128c1.577 0 3.157-.043 4.733.017 1.048.04 1.268-.485 1.251-1.387-.018-.844-.114-1.454-1.202-1.438-3.156.041-6.312.049-9.466-.002-1.078-.017-1.223.526-1.216 1.399.005.835.041 1.477 1.168 1.428 1.574-.068 3.154-.017 4.732-.017zm-107.781 4.908c1.277 0 2.556-.04 3.831.012 1.084.042 1.65-.227 1.641-1.499-.008-1.195-.573-1.358-1.528-1.348-2.704.028-5.409.064-8.112-.009-1.135-.031-1.379.419-1.38 1.452-.001 1.123.464 1.435 1.492 1.387 1.349-.062 2.704-.015 4.056-.015v.02zm93.749-3.15c-1.535.826-2.988 1.57-4.403 2.378-1.423.813-2.782 1.74-4.222 2.517-.536.289-.988.623-.759 1.16.303.712.887.261 1.312.023a518.663 518.663 0 007.932-4.544c.337-.199.55-.642.745-1.01.027-.052-.385-.337-.605-.524zm-71.173-10.202c-2.362-2.56-4.722-5.12-7.088-7.675-.262-.283-.607-.532-.983-.301-.425.26-.29.652-.011.946a861.226 861.226 0 006.936 7.238c.165.17.525.149.795.217.117-.141.233-.284.351-.425zm-8.583 16.513c.632.003.957-.064.944-.445-.009-.265-.108-.656-.296-.767-1.544-.901-3.303-1.398-4.717-2.558-.247-.203-.575-.046-.73.281-.124.264-.294.515.004.796 1.456 1.376 3.502 1.616 4.795 2.693zm83.574-31.896c-2.106 0-4.213.038-6.318-.016-1.04-.026-1.466.29-1.46 1.406.005 1.069.333 1.469 1.418 1.46a852.23 852.23 0 0113.088.001c1.015.007 1.526-.324 1.531-1.427.007-1.082-.439-1.46-1.489-1.438-2.255.046-4.512.013-6.77.014zm4.169 7.351c.901 0 1.805-.048 2.701.012 1.153.08 1.373-.534 1.373-1.52-.001-.986-.42-1.328-1.362-1.308-1.802.04-3.606.062-5.406-.008-1.118-.044-1.172.569-1.161 1.413.012.82.008 1.515 1.152 1.424.896-.071 1.801-.013 2.703-.013zm-26.871 3.275c.036.913.605.736 1.075.46 2.83-1.666 5.64-3.367 8.465-5.042.46-.272.695-.636.423-1.096-.248-.42-.651-.202-.979-.009-2.764 1.639-5.525 3.281-8.291 4.917-.314.187-.716.282-.693.77zm-81.672-4.55c4.685-.197 9.37-.205 14.056.003 1.042-.545.93-1.551.717-2.384-.241-.949-1.211-.691-1.923-.693a980.144 980.144 0 00-12.601.017c-.961.009-2.236-.391-2.324 1.313-.079 1.544 1.012 1.61 2.075 1.744zM166.04 80.578c49.177-.016 98.355-.03 147.533-.045 2.123 0 3.847-1.723 3.862-3.857l.065-10.214a3.87 3.87 0 00-3.848-3.905c-24.273-.083-48.545-.195-72.819-.227-24.926-.033-49.853.151-74.778-.116-3.164-.034-4.55 1.52-4.035 8.692.137 1.904.155 3.848.157 5.798.003 2.141 1.732 3.876 3.863 3.874z" fill="#DFE9F7"/><path d="M288.907 73.397c1.637-.164 2.617-1.166 2.605-2.618-.015-1.723-1.094-2.816-2.957-2.624-1.588.164-2.354 1.148-2.224 2.761.13 1.61 1.114 2.337 2.576 2.481zm10.414.025c1.525-.26 2.66-1.106 2.644-2.629-.02-1.75-1.1-2.825-2.978-2.65-1.618.149-2.385 1.151-2.264 2.76.122 1.591 1.064 2.397 2.598 2.52zm7.743-2.684c.274 1.472 1.064 2.6 2.6 2.612 1.79.015 2.785-1.102 2.638-2.928-.128-1.61-1.192-2.333-2.75-2.3-1.679.034-2.288 1.136-2.488 2.616z" fill="#859CCB"/><path d="M224.471 218.421h80.848a4.03 4.03 0 004.019-4.017v-3.052a4.031 4.031 0 00-4.019-4.019h-80.848a4.031 4.031 0 00-4.017 4.019v3.052a4.03 4.03 0 004.017 4.017z" fill="#D0D7F0"/><path d="M224.471 231.18h80.848a4.03 4.03 0 004.019-4.018v-3.052a4.03 4.03 0 00-4.019-4.018h-80.848a4.03 4.03 0 00-4.017 4.018v3.052a4.03 4.03 0 004.017 4.018z" fill="#859CCB"/><path d="M224.471 244.491h80.848a4.03 4.03 0 004.019-4.018v-3.052a4.029 4.029 0 00-4.019-4.017h-80.848a4.029 4.029 0 00-4.017 4.017v3.052a4.03 4.03 0 004.017 4.018zm0 13.571h80.848a4.03 4.03 0 004.019-4.019v-3.052a4.029 4.029 0 00-4.019-4.016h-80.848a4.028 4.028 0 00-4.017 4.016v3.052a4.03 4.03 0 004.017 4.019z" fill="#D0D7F0"/><path d="M236.023 105.022h77.276a3.169 3.169 0 003.16-3.161v-2.4a3.17 3.17 0 00-3.16-3.162h-77.276a3.171 3.171 0 00-3.162 3.161v2.401a3.17 3.17 0 003.162 3.161z" fill="#DFE9F7"/><path d="M348.67 243.983c1.082-1.908 3.438-1.267 4.877-2.459 2.563 3.065 2.023 7.633 5.061 10.499.586.552.532 1.488-.13 2.154-.871.874-1.892.852-3.072.707-4.18-.513-6.555-9.605-6.736-10.901zm-48.498-136.595c-.149.337-.81 1.729-2.398 2.388-2.251.935-4.295-.465-4.438-.565-.738-1.57-1.41-3.176-2.237-4.698-.711-1.305-.816-1.31.868-2.273 1.007-.573.847-1.408.285-1.9-1.265-1.11-2.214-2.508-2.066-2.875.238-.594 4.461-.59 7.272 1.998 3.074 2.829 2.776 7.196 2.714 7.925zm43.697 220.329c-.1-3.916-4.216-2.003-7.762-2.738-.53.697 2.386 9.184 2.58 10.721.307 2.424.327 5.12.042 7.54-.275 2.315-2.299 4.164.225 5.334 8.744 4.048 4.977-18.463 4.915-20.857zm-25.023-1.092c-.943-2.599.129-2.976-2.027-3.839-1.491-.596-5.321-.124-6.375.714 2.146.402 2.534 7.918 2.643 9.506.159 2.298-2.22 8.083-1.624 9.672 1.504 4.011 5.608.216 6.692-2.088 2.249-4.774 1.617-9.189.691-13.965z" fill="#BE7047"/><path d="M337.909 345.94c-.036.196-.267 1.543.495 2.204.909.791 2.564-.006 3.464-.677.509-.379 1.128-1.117 1.593-2.884.849-3.225-.211-4.852.152-8.463.153-1.533.496-2.756.747-3.518a36.28 36.28 0 002.101 1.87c.657.54.743.572.896.715.956.884.769 2.543-.529 9.452 0 0-.204 1.172-.966 4.104-.242.935-.592 1.851-.98 2.741-.646 1.486-1.772 2.41-3.47 2.714-2.124.38-4.211.994-6.4.944-.718-.016-1.159-.146-1.347-.44-.26-.408-.015-1 .119-1.303.894-2.024 3.772-6.865 4.125-7.459zm-22.412-3.361c1.942-1.524 2.687-3.674 2.991-4.726 1.431-4.958-.416-8.052.803-8.743 1.126-.639 4.189 1.171 4.869 3.625.34 1.227-.757 3.792-2.968 8.87-.352.809-.848 1.598-1.255 2.718-.654 1.803-1.288 3.932-3.03 4.982-1.643.989-4.251.982-6.115 1.096-.72.042-2.369.288-2.98-.294-.564-.536-.117-1.272.185-1.85.755-1.44 1.22-1.978 1.956-3.194 1.222-2.016 1.028-3.822 1.472-3.816.438.006.318 1.848 1.332 2.31.947.428 2.276-.615 2.74-.978z" fill="#3B3368"/><path d="M304.813 313.399c.052 1.802.26 8.134 4.3 11.584.833.729 1.873 1.268 3.174 1.613 1.543.417 3.468.591 5.898.487.225-.018.468-.036.728-.07 1.56-.156 3.746-.658 5.046-2.046 3.054-3.244-.381-10.043-3.468-19.322-1.665-5.046-3.642-12.054-5.081-20.794a95.87 95.87 0 01-.157-.92c.225.469.434.92.625 1.372 4.127 8.93 6.329 16.441 7.579 21.644 2.497 10.406 2.514 17.084 8.169 21.817 1.629 1.371 3.884 2.707 6.104 3.348 1.839.555 3.643.607 5.013-.225.572-.348 1.04-.851 1.404-1.458 2.48-4.074.52-13.32-.606-19.72-6.21-35.414 2.584-41.416-5.863-85.468 0 0-3.903-20.326-8.099-24.142l-.017-.018c-.452-.416-.92-.624-1.388-.589h-.017a1.03 1.03 0 00-.468.173c-1.96 1.198-2.932 8.376-7.094 9.21-1.7.346-2.341-.504-9.938-1.456-.867-.106-1.822-.226-3-.4-1.666-.226-4.943-.694-5.862-.954-5.169-1.44-4.458-15.661-7.042-16.268-1.456-.348-4.926 3.347-8.256 9.782-.016.034-.034.052-.034.086-2.133 4.092-4.179 9.296-5.619 15.28a30.77 30.77 0 00-.157.607 73.549 73.549 0 00-1.492 8.931c-3.953 38.486 24.888 65.94 25.618 87.916z" fill="#463E7E"/><path d="M333.269 221.255c-.062 4.803-.221 9.41.374 14.003.124.965.117 1.952.097 2.928-.115 5.327.535 10.623.604 15.947.037 2.909.136 5.796.017 8.72-.17 4.15.211 8.325.379 12.488.084 2.037.121 4.084.352 6.108.559 4.882.544 9.801.965 14.692.272 3.166.255 6.362.887 9.489.907 4.481 1.455 9.023 2.515 13.484.697 2.94.813 6.017 1.717 8.931.271.877.613 1.729.92 2.594.113.319.329.724-.135.868-.373.118-.444-.304-.578-.584-1.06-2.2-1.667-4.552-2.014-6.942-.385-2.66-1.021-5.275-1.418-7.92-.798-5.31-2.124-10.53-2.42-15.934-.25-4.554-.431-9.12-.806-13.657-.334-4.052-.49-8.119-.916-12.163-.11-1.056-.03-2.13-.065-3.196-.079-2.344-.116-4.69-.281-7.029-.115-1.621.622-3.105.514-4.728-.362-5.477-.65-10.96-.968-16.439-.005-.089-.016-.178-.013-.268.209-6.256-.916-22.582-2.108-23.869-1.596-1.724-2.819-3.733-4.076-5.711-.253-.398-.468-.937-.043-1.165.508-.271.514.409.724.701 1.899 2.648 3.48 5.547 6.107 7.618.752.592 1.669.786 2.435 1.294.242.16.728.358.416.806-.22.316-.535.149-.83.005-.705-.341-1.425-.652-2.352-1.071zm-26.88 13.3c.745 3.694.745 7.457 1.319 11.15.589 3.834.658 7.788 1.474 11.551 1.508 6.973 2.515 14.049 4.388 20.935.607 2.22.936 4.526 1.839 6.66a95.87 95.87 0 01-.157-.92c.225.469.434.92.625 1.372.087-.104.068-.227.087-.331.086-.78-.364-1.439-.539-2.168-1.387-5.671-2.688-11.36-3.676-17.136-.747-4.283-1.856-8.497-2.411-12.833-.762-5.95-1.076-11.932-2.098-17.864-.486-2.827-.607-5.707-.539-8.603 0-.312.14-.833-.364-.833-.433-.016-.451.434-.451.816-.086 2.74-.052 5.532.503 8.204zm-16.431-26.696c-.078 4.165-4.217 8.565-8.321 8.822-.359.023-.939.21-1.02-.304-.092-.58.492-.426.851-.489 4.117-.72 6.762-3.401 7.454-7.545.036-.216.103-.43.168-.642.096-.313.059-.832.531-.748.419.075.333.556.337.906z" fill="#3B3368"/><path d="M336.798 271.052c.637 1.308.742 2.651.916 3.976.029.224-.066.451-.33.498a.475.475 0 01-.346-.086c-.36-.316-.584-3.717-.24-4.388zm.924-17.346c-.204.412.397 1.428-.338 1.45-.749.024-.366-.987-.45-1.548-.098-.646-.16-1.299-.223-1.951-.031-.325.035-.687.393-.724.316-.033.307.334.399.579.255.679.245 1.373.219 2.194zm3.899 63.515c.352 1.856.942 3.339.835 5.096-.897-.86-1.417-3.734-.835-5.096zm-5.489-78.462c0-.456-.016-.722.004-.983.016-.2-.045-.479.253-.52a.419.419 0 01.474.353c.12.995.426 1.971.326 2.988-.024.242-.164.462-.369.476-.219.016-.365-.201-.413-.436-.14-.685-.371-1.357-.275-1.878zm1.255 24.925c.586 1.278.303 2.639.268 3.975-.006.224-.174.429-.413.435-.287.006-.323-.254-.324-.47-.007-1.293-.004-2.586-.004-3.88l.473-.06zm3.353 44.401c-1.05-1.048-1.56-3.635-1.153-5.287.8 1.75.811 3.37 1.153 5.287zm-3.546-61.382c0 .305.01.526-.001.745-.017.352-.055.801-.469.795-.374-.008-.338-.459-.335-.758.005-.836-.051-1.66-.237-2.48-.05-.214-.116-.577.256-.632.31-.046.449.195.518.474.159.637.375 1.266.268 1.856zm1.103 34.426c-.105.427.136.955-.328 1.004-.557.059-.457-.492-.512-.868-.12-.821-.264-1.638-.387-2.46-.036-.24.06-.446.3-.512.322-.089.326.175.374.388.189.85.384 1.698.553 2.448zm-.33 2.995c.651 1.107.873 2.304.807 3.568-.008.175-.032.369-.271.357-.24-.01-.467-.157-.456-.385.06-1.179-.495-2.32-.08-3.54zm-1.644-48.782c-.762-1.142-.289-2.358-.63-3.434-.074-.235.12-.532.425-.551.305-.02.257.272.307.471.284 1.142.454 2.276-.102 3.514zm4.667 78.819c-.611-1.008-.593-2.151-.86-3.224-.055-.221-.105-.567.235-.659.38-.101.394.239.466.476.336 1.115.49 2.243.159 3.407zm-2.314-24.654c.203 1.202.407 2.406.604 3.61.034.208.086.467-.206.534a.4.4 0 01-.491-.338c-.193-1.258-.644-2.517.093-3.806zm.758 11.209c-.994-1.172-.48-2.494-.827-3.612-.024-.08.211-.242.325-.366.118.115.328.224.338.347.074 1.14.565 2.269.164 3.631zm-1.765-40.168c-1.12-.896-.49-2.029-.923-2.859-.011-.018.173-.194.276-.206.26-.028.364.181.471.384.421.796.21 1.622.176 2.681zm5.538 65.035c.6.801.705 1.607.876 2.38a.432.432 0 01-.316.513c-.251.072-.407-.129-.435-.341-.102-.781-.538-1.549-.125-2.552zm-7.309-96.335c-.412-1.021-.355-1.664-.324-2.303.012-.276.11-.538.45-.489.322.045.411.325.362.593-.11.61-.264 1.211-.488 2.199z" fill="#3B3368"/><path d="M286.428 203.63c.416 1.51 1.386 2.758 2.722 3.799.26.208.52.416.798.589 4.058 2.706 10.614 3.903 15.47 4.788 7.059 1.283 16.147 1.387 21.142-.677.19-.087.381-.156.554-.261 1.492-.711 2.568-1.647 2.984-2.843 1.127-3.227-2.306-8.343-1.942-8.533h.017c.173 0 .659.832.659.832 1.873 5.064 4.041 10.006 5.602 15.193a73.279 73.279 0 001.752 5.099h.016v.018c.071.226.156.451.262.659v.017c.381.988.78 1.959 1.213 2.931a101.018 101.018 0 002.879 6.053c.989 2.602 2.22 5.116 3.33 7.666.33.71.746 1.369 1.579 1.421.139.017.312.017.485-.016 1.666-.712 3.226-1.648 4.874-2.377 1.022-.538 1.561-.971 1.769-1.63.156-.469.121-1.041 0-1.838-.121-.711-.173-1.423-.277-2.152-.572-3.623-.175-1.403-.799-4.144-3.277-14.292-5.532-24.108-8.793-32.954a93.533 93.533 0 00-5.203-11.672c-.971-1.854-7.561-14.308-10.249-13.372-.26.087-.452.296-.608.574-.174.277-.295.641-.364 1.04-.035.122-.052.225-.087.364v.017c-.035.244-.069.521-.087.781v.018c-.017.277-.034.52-.034.78-.174-.226-.312-.347-.451-.399-.277-.088-.555.035-.815.208-.157.104-.313.208-.452.295-2.67 1.509-5.341 2.982-7.977 4.526a154.92 154.92 0 01-6.556 3.643c.052-.296.121-.573.191-.851.017-.052.052-.121.069-.189.503-1.823 1.284-3.348 2.133-4.823 1.77-3.034 4.042-5.653 6.418-8.221l.017-.016c.035-.052.087-.088.121-.14a9.683 9.683 0 001.475-2.045 7.185 7.185 0 01-.643-.608c.156-.746.175-1.231.052-1.3.139-1.024.018-2.047-.381-3.106.052-.034.104-.086.173-.121a23 23 0 001.562 1.769c-.052-1.301-.52-2.636-1.406-4.024-.208-.329-.433-.641-.624-.97-1.04-1.666-.988-2.463.295-3.92.381-.434.849-.815.972-1.422-.071-.33-.157-.868-.279-1.544v-.017c-.676-3.573-1.421-6.452-2.254-9.001-2.046-6.244-5.931-14.934-10.128-24.316-1.526-3.434-2.827-6.347-3.782-8.534-.433.26-.884.522-1.317.782a1041.047 1041.047 0 00-7.684 4.544c-.312.173-.641.364-.953.554 2.774 6.73 7.977 19.634 11.706 30.699.226.641 1.04 3.347 1.926 6.989 2.584 10.475 1.752 14.586.885 17.1-1.251 3.642-3.192 5.81-5.325 8.343-9.643 11.377-15.436 18.141-16.564 22.893-.016.035-.034.052-.034.087-.277 1.092-.277 2.064-.034 2.965z" fill="#FF7D19"/><path d="M308.089 182.143c1.822-5.464 5.411-9.73 9.244-13.824 1.024-1.092 1.718-2.202 2.082-3.33a6.45 6.45 0 00.26-1.109c.122.069.104.555-.052 1.3.19.208.416.416.642.608 1.439 1.231 3.278 2.341 4.491 2.983-.936-1.267-1.803-2.203-1.56-4.336l.052-.33c-.728-.312-1.544-1.006-2.22-1.682-.885-.902-1.561-1.77-1.561-1.77-.07.035-.122.087-.174.122-.242-.694-.606-1.387-1.092-2.116-.242-.382-.538-.763-.781-1.144-1.196-1.874-1.075-2.931.487-4.544l1.144-1.248c.606-.227.866-.643.936-1.18v-.018c.036-.173.036-.346.036-.537 0-.833.398-1.388 1.213-1.509 1.561-.226 4.145-2.74 4.544-2.967a9.188 9.188 0 011.804-.225c2.861-.139 5.567.92 7.232 2.949.121.121.225.26.329.399.468.624.798 1.3 1.042 2.012v.017c1.23 3.624-.296 7.908-2.655 9.816-.173.139-.329.26-.503.364-.086.052-.156.105-.242.157-2.827 1.855-6.296 5.498-7.302 7.058-.26.382-.348.625-.277.712.139.154.26.294.381.433l.018.017c.502.607.849 1.11 1.057 1.579.26.572.295 1.092.121 1.665a3.02 3.02 0 01-.242.555v.016c-.104.244-.26.504-.451.764v.035c-.208.312-.433.606-.711.972-.26.052-.502.104-.728.189-1.266.417-2.308 1.319-3.469 1.943-.903.502-1.804.989-2.688 1.509-.035.017-.069.052-.121.069a181.51 181.51 0 00-3.123 1.77c-.087.052-.191.104-.277.156-2.063 1.18-4.128 2.358-6.174 3.537-.261.157-.556.261-.954.451-.243-.867 0-1.578.242-2.288z" fill="#BE7047"/><path d="M308.211 185.751c.953-.574 2.047-.782 3.001-1.321 2.602-1.473 5.151-3.051 7.822-4.351 1.942-.936 3.833-1.908 5.41-3.366.018 0 .035-.016.052-.034.799-.347 1.111-1.11 1.51-1.787.104-.191.208-.363.346-.536.104-.192.191-.381.278-.573.346-.676.66-1.354.989-2.028-.261.224-.539.466-.833.71-.087.085-.191.156-.295.26-.104.069-.208.174-.329.259 0 0-.018.018-.035.018v.018c-.156.121-.312.26-.485.381-.295.243-.59.468-.886.693a67.349 67.349 0 01-6.26 4.354c-.034.017-.069.052-.121.069-.121.071-.243.156-.364.226a57.007 57.007 0 01-2.759 1.544c-.086.052-.19.104-.277.156a69.93 69.93 0 01-5.619 2.653c.156-.52.382-1.163.676-1.874.018-.052.052-.121.07-.189.329-.781.762-1.667 1.301-2.568 1.491-2.515 2.619-3.261 4.109-5.168a23.745 23.745 0 003.14-5.308l.018-.016c.468-1.093.78-2.064.953-2.793.156-.745.175-1.231.052-1.3-.087-.035-.225.087-.641.641-.451.572-1.214 1.596-2.602 3.364-2.809 3.608-3.59 4.336-5.168 6.73a196.644 196.644 0 00-2.064 3.226c-1.197 1.924-2.15 3.955-2.601 6.208-.227 1.024.832 2.168 1.612 1.702zm46.594 56.588c-.048.698-.174 1.414-.939 1.442-1.939.075-3.611 1.076-5.463 1.446-.873.174-1.158-.062-1.436-.819-.437-1.195-.613-2.491-1.402-3.555-.344-.462.033-.701.424-.889a51.195 51.195 0 005.513-3.116c1.255-.815 1.673-.639 2.059.768.432 1.569.83 3.148 1.244 4.723zm-50.442-132.308c.08.645-.324.889-.911 1.002-3.356.648-5.268 2.455-6.953 4.459-.92 1.095-1.123 1.069-1.999-.027a26.886 26.886 0 01-3.241-5.181c-.38-.792-.068-1.309.951-1.6 1.08-.308 2.177-.715 3.302-.783 1.652-.098 3.128-.44 4.504-1.046 1.214-.535 2.079-.3 2.74.533.703.883 1.38 1.775 1.607 2.643z" fill="#D0C3BE"/><path d="M324.756 168.77s0 .018.017.018c.279.398.591.832.868 1.353.035.052.052.12.087.172.208.383.364.816.503 1.267 0 0 .017 0 0 .017.017.087.052.157.069.243.069.277.139.573.191.885.017.103.034.191.052.295v.016c.036.244.069.504.086.746.33 3.052-.104 6.747-.26 9.904-.416 8.636 4.284 18.626 8.724 19.043 2.862.26 6.435-3.4 7.631-7.459.261-.866.4-1.768.416-2.634.071-4.995-4.352-8.379-3.451-9.419 1.302-1.509 10.424 5.464 11.916 3.885.727-.797-1.145-2.861-3.07-5.88a27.386 27.386 0 01-1.075-1.786l-.019-.016c-1.022-1.839-1.924-3.955-2.253-6.296 0-.018-.019-.018-.019-.018a12.162 12.162 0 01-.156-2.254c0-.347.018-.711.052-1.076.295-3.226 1.891-5.307.816-8.984-.589-2.03-2.428-3.434-3.296-5.307-.19-.416-.346-.832-.416-1.301a9.193 9.193 0 01-.641-1.578s-.017 0-.017-.017c-1.266-3.712-.694-7.112-5.482-9.365-3.294-1.544-6.433-.539-8.445 2.062a9.477 9.477 0 00-1.18 1.962c-.693 1.525-.797 3-.711 4.456.104 1.509.434 3 .538 4.509.034.729.034 1.44-.07 2.168-.277 2.064-2.48 3.591-2.913 5.724l-.052.329c-.243 2.134.624 3.07 1.56 4.336z" fill="#351B39"/><path d="M325.349 168.695c2.81-4.04-2.129 16.074.954 21.433-4.091-1.661-1.392-19.759-.954-21.433z" fill="#351B39"/><path d="M336.005 196.086c.202.948.04 1.442-.886 1.672-1.734.436-2.556.123-3.625-1.312-1.827-2.448-2.449-5.206-2.561-8.208-.08-2.164-.24-4.309.008-6.476.101-.874.117-1.746.444-2.618.462.09.5.386.472.769-.05.705-.03 1.417-.098 2.121-.286 3.004-.05 5.996.292 8.974.247 2.125 1.298 3.945 2.695 5.514.785.88 1.845.695 3.259-.436zm5.501-26.286c-1.174-1.582-1.492-3.264-1.914-4.904-.368-1.434-.257-2.896-.274-4.352-.051-4.114-1.382-7.756-3.935-10.974-.3-.377-1.111-.917-.555-1.354.54-.426.77.504 1.079.869 2.753 3.244 4.213 7.019 4.177 11.277-.021 2.562.467 4.988 1.2 7.404.174.568.566 1.118.222 2.034zm5.504 5.816c-2.69-1.936-7.947-17.163-5.04-17.287-2.506.107 5.034 17.251 5.04 17.287zm-10.855 1.132c.03-2.792-.172-5.568-.898-8.251-.655-2.417-1.126-4.901-2.311-7.165-.715-1.367-.32-2.759.356-4.061.108-.206.171-.574.543-.411.332.144.198.431.138.689-.249 1.096-.897 2.183-.276 3.33 1.824 3.37 2.226 7.124 2.815 10.804.264 1.656.345 3.413-.367 5.065zm3.889 1.029c.972.748 1.942 1.479 3.019 2.047.345.182.745.458 1.101.149.411-.359.046-.783-.146-1.067-1.059-1.56-1.596-3.298-1.9-5.136-.056-.341-.243-.666.033-1.008.465.036.517.447.591.751.462 1.929 1.372 3.667 2.21 5.443.564 1.19.01 1.988-1.193 1.944-1.291-.048-3.375-1.7-3.715-3.123zm-12.912-17.504c.254-.949 1.248-.86 1.634-1.571.932-1.72 1.477-3.414 1.057-5.426-.36-1.734.424-3.382.841-5.043.032-.124.254-.28.388-.283.302-.004.31.28.288.487-.03.304-.132.599-.188.9-.273 1.501-.634 2.936-.386 4.549.442 2.891-1.32 6.194-3.634 6.387z" fill="#241527"/><path d="M322.28 159.208c3.674-2.839 2.523-9.384 5.652-11.464.671 5.757-1.213 9.579-5.652 11.464z" fill="#351B39"/><path d="M343.264 155.986c-2.05-.976-4.22-7.398-6.248-7.689 1.614-1.111 6.238 6.925 6.248 7.689zm.857 21.974c.797-.084 6.124 2.906 5.885 3.378-.504.999-6.937-2.8-5.885-3.378z" fill="#241527"/><path d="M324.756 168.771c-.936-1.267-1.803-2.203-1.56-4.336.017-.104.034-.226.052-.33-.728-.312-1.544-1.007-2.22-1.683.069 1.144-.191 2.273-.763 3.366 1.439 1.231 3.277 2.341 4.491 2.983z" fill="#AA643F"/><path d="M331.471 208.152a23.368 23.368 0 00-1.939-7.16 23.268 23.268 0 00-3.229-5.189l3.796 13.222 1.372-.873zm-17.443-45.729c.104-.372-.742-1.064-1.574-1.143-1.127-.108-2.004 1.143-2.004 1.143s3.821-3.374 2.609-3.215c-1.212.159-2.889 1.929-2.889 1.929s2.414-4.484 1.393-4.618c-1.02-.135-2.367 5.904-2.367 5.904-.298 1.305-.158 1.7.036 1.809.387.219.955-.712 2.386-1.245 1.372-.51 2.31-.198 2.41-.564z" fill="#D0C3BE"/><path d="M323.154 159.961a1.01 1.01 0 102.019.001 1.01 1.01 0 00-2.019-.001z" fill="#D0D7F0"/><path d="M175.215 269.205c14.387-11.87 12.356-43.432-.645-50.31-2.331-1.234-5.43-1.894-9.61-1.236-1.913 1.78-11.808 11.341-12.358 26.964-.596 16.944 10.269 27.702 11.978 29.341 2.912-.536 6.975-1.737 10.635-4.759z" fill="#984226"/><path d="M198.188 217.658c3.095 2.666 9.251 8.767 11.859 18.503 5.261 19.639-8.827 35.71-10.038 37.049l-12.074-4.005s-18.043-56.951 10.253-51.547z" fill="#984226"/><path d="M198.729 210.51c-.451.838-4.267 7.758-8.084 6.572a3.559 3.559 0 01-1.032-.53c-.812-1.658-1.853-2.202-3.065-1.916-3.822 5.729-7.871 2.046-11.866.834-1.381.827-3.353 1.763-5.796 2.164a14.975 14.975 0 01-5.102-.036c-.587 11.196-1.01 20.003-1.402 25.904-.085 1.291-.313 3.975.867 6.207 1.147 2.173 3.181 2.823 5.079 3.625 9.902.728 19.808 1.79 29.694-.522.46-.404.875-.908 1.202-1.564 0-.002.222-.448.38-.97.537-1.784-.8-37.749-.875-39.768z" fill="#FF822E"/><path d="M171.699 219.059c2.592 1.556 5.112 3.321 8.284 3.457 1.099.047 2.115-2.225 3.691-3.556 1.974-1.665 2.741-3.779 2.805-6.372.084-3.432 1.931-6.34 3.553-9.249.952-1.703 3.447-3.379-.45-4.598-.231-.072-.266-.836-.35-1.285-.365-1.973-1.497-3.371-3.421-3.901-2.035-.562-2.877 1.192-3.953 2.368-.91.997-1.731 2.072-2.638 3.07-1.225 1.351-2.874 1.838-4.513 1.259-3.004-1.063-2.525.449-2.023 2.303.93 3.424 1.86 6.814 1.152 10.478-.421 2.183-1.209 3.778-3.362 4.556.173.682.665 1.104 1.225 1.47z" fill="#984226"/><path d="M175.472 210.024c.577 3.037 2.477 4.882 5.3 5.276 1.816.252 3.548-.69 4.544-3.507-4.488 3.612-7.108.933-9.844-1.769z" fill="#8B3A25"/><path d="M196.864 226.595c1.113-1.636.672-3.29 1.069-4.743.063-.229-.221-.487-.473-.477-.134.005-.366.274-.367.428-.015 1.484-.643 2.945-.229 4.792zm-32.606 17.613c.349-1.083.67-2.177.492-3.353-.046-.299-.214-.622-.606-.554-.353.062-.265.399-.268.631-.014 1.081-.006 2.163-.006 3.244.129.011.258.023.388.032zm-.323-18.059c.92-1.352.931-2.54.819-3.74-.015-.158-.215-.393-.36-.42-.131-.022-.435.187-.439.3-.032 1.178-.02 2.355-.02 3.86zm32.635 13.707c.795-1.231.523-2.405-.053-3.641-.631.91-.592 2.501.053 3.641zm.471-10.013c-.745.904-.904 1.912-.888 2.96.003.258.013.537.364.544.393.008.517-.272.521-.604.01-.968.003-1.934.003-2.9zm-.934 12.094c0 1.209 0 2.135-.002 3.059 0 .39.191.581.572.514.434-.076.208-.382.151-.586-.251-.898.833-2.016-.721-2.987zm-32.445-7.023c-.22.996-.116 1.87-.009 2.796 1.132-.849 1.145-1.478.009-2.796zm.65-6.147c-.87.821-.536 1.716-.345 2.584.052.238.421.16.48.009.34-.877-.029-1.721-.135-2.593zm6.163-11.178s-3.958 7.615 8.31 4.796c0 0-6.042-2.526-8.31-4.796zm17.71.115s3.956 7.616-8.312 4.797c0 0 6.044-2.527 8.312-4.797z" fill="#2D4AA3"/><path d="M161.39 221.516a18.01 18.01 0 014.628-2.755 18.024 18.024 0 014.456-1.172c2.146.168 3.192-1.016 3.697-2.909.973-3.651.736-7.257-.388-10.827-.577-1.837-.74-3.218 2.009-2.866 1.628.209 2.988-.675 4.18-1.743 1.018-.911 1.823-1.999 2.704-3.025 2.206-2.571 4.034-2.323 5.478.705.408.859.461 1.923 1.353 2.499 1.383.89.945 1.902.287 2.972-2.298 3.726-4.236 7.568-4.351 12.081-.039 1.536-1.009 2.707-2.111 3.68-1.98 1.753-2.837 3.852-2.325 6.468 1.607 3.771 4.46 4.781 7.752 2.755 2.54-1.087 3.645-3.212 4.415-5.692.63-2.036.93-3.63 1.817-3.803 1.32-.257 2.296 3.2 4.109 3.228 1.423.023 2.599-2.081 3.315-3.673.696-4.196-1.081-7.539-3.887-10.411-1.634-1.673-2.644-3.011-.916-5.399 1.5-2.072.68-3.984-1.716-4.733-1.504-.472-2.016-1.177-1.96-2.668.13-3.416-.529-6.421-4.608-7.233-.593-.118-.696-.604-.938-.996-2.328-3.779-6.127-4.287-9.983-3.974-4.248.343-7.575 2.464-9.148 6.595-.592 1.555-1.225 2.879-2.589 4.012-2.143 1.777-2.006 5.111-.015 7.084 2.156 2.14 2.121 3.447-.431 5.421-3.522 2.724-5.396 6.459-5.925 7.842-.66 1.721-.904 4.402 1.091 8.537z" fill="#F0DAD5"/><path d="M178.817 184.805c-2.256.362-4.364.807-5.373 3.368-.712 1.807-1.74 3.527-2.864 5.115-.478.675-.923 2.415-2.512 1.1-.247-.204-.49.305-.304.589.401.61.834 1.232 1.733.708.58-.338 1.157-.634 1.528-1.253 1.248-2.071 2.535-4.12 3.487-6.355.61-1.433 3.114-2.6 4.985-2.334.533.076 1.396.736 1.527-.084.109-.691-1-.627-1.592-.844-.183-.066-.408-.01-.615-.01zm18.244 28.512c-.329-1.57-.545-3.48-2.254-4.866-.848-.69-.982-1.868-.738-2.988.284-1.306.786-2.566.798-3.926.005-.54-.054-1.185-.751-1.094-.884.116-.169.736-.161 1.09.028 1.167-.392 2.235-.672 3.32-.482 1.868-.175 3.378 1.272 4.751 1.166 1.108 1.441 2.688 1.554 4.259.032.437-.129.777-.418 1.117-.222.261-1.25.057-.607.796.325.372.963.244 1.424-.103.704-.529.504-1.297.553-2.356zm-24.604-6.465c.264-1.716-.496-3.168-1.375-4.596-.509-.83-.952-1.7-1.438-2.544-.212-.367-.278-1.082-.903-.775-.603.296-.144.864.031 1.22.429.876.893 1.751 1.473 2.531 1.48 1.994 1.628 4.208 1.073 6.492-.384 1.577-.481 3.297-1.72 4.568-.137.14-.241.396.018.514.158.074.481.087.56-.012.412-.52.93-1.033 1.117-1.641.576-1.859 1.383-3.687 1.164-5.757zm-7.337 9.755c-2.164-1.243-2.452-3.056-.851-4.927.599-.7 1.269-1.336 2.055-1.865 1.096-.738 1.764-1.847 2.269-3.067.239-.579.165-1.14-.376-1.295-.919-.262-.38.57-.499.891-.606 1.635-1.909 2.632-3.193 3.665-1.581 1.275-2.433 2.91-2.195 4.995.178 1.548 1.267 2.22 2.79 1.603zm25.705-9.626c-.657.404-.378.828-.26 1.077 1.395 2.915.207 5.392-1.261 7.823a109.906 109.906 0 01-2.376 3.792c-.301.455-.585.849-.129 1.661 1.598-2.178 2.94-4.357 4.21-6.605 1.111-1.965 1.456-3.933.684-6.057-.213-.591-.574-1.128-.868-1.691z" fill="#C8A3A3"/><path d="M186.089 220.477c-.632.673-1.034 1.12-1.456 1.548-1.012 1.027-1.305 2.396-.476 3.119.955.834 2.107.648 3.132.016 1.288-.791 1.782-2.242 2.624-3.398.482-.658.799-1.445 1.14-2.196.128-.278.544-.689.023-.912-.405-.174-.629.296-.777.59-.844 1.664-1.778 3.262-3.1 4.596-.323.324-.61.736-1.108.794-.456.055-.95.136-1.267-.334-.337-.499-.077-.884.283-1.223.653-.616 1.166-1.284.982-2.6zm-2.339-34.449c1.843 1.033 3.011 2.632 4.066 4.325.24.384.554.867.504 1.263-.211 1.678.964 2.65 1.765 3.818.195.283.364.72.811.303.316-.296.343-.7.049-.971-1.165-1.08-1.422-2.493-1.837-3.961-.581-2.061-2.084-3.655-3.867-4.883-.428-.294-.94-.336-1.491.106z" fill="#C8A3A3"/><path d="M197.717 307.188l-12.313 3.659c-.052 7.684.206 15.469.693 22.424.035.608.035 1.214.191 1.769h.121c2.567-.016 5.116-.139 7.665-.312l.14-.017c1.058-3.243 2.792-18.522 3.503-27.523z" fill="#463E7E"/><path d="M178.032 300.094c.4 0 .764-.018 1.145-.018h.018a12.146 12.146 0 012.098 0h.035c1.352.122 2.653.538 3.433 1.544.763.971.763 2.168.747 2.688-.017.364-.017.746-.017 1.111h12.348c.069-.972.121-1.823.156-2.533a7.743 7.743 0 00-.208-2.099c-.191-1.197 0-2.427-.208-3.607-.572-3.226-.938-6.625-5.307-7.11-.521-.052-.851-.26-1.093-.556-1.423-.278-4.284-.607-6.92.918-.694.418-1.094.92-2.03 2.498-.676 1.146-1.613 2.828-3.173 5.43-.417.728-.781 1.318-1.024 1.734z" fill="#3B3368"/><path d="M178.812 312.789l-11.916 3.537a310.02 310.02 0 00.678 18.124c.017.451.033.884.121 1.302v.034c.017.156.052.295.088.434h.172c2.463-.019 4.925-.139 7.388-.312.121 0 .225 0 .347-.018h.017c.885-2.757 2.29-14.204 3.105-23.101z" fill="#463E7E"/><path d="M159.526 301.272c.382 0 .764-.016 1.163-.016a12.056 12.056 0 012.099 0h.034c1.352.12 2.636.538 3.416 1.543.746.937.782 2.065.763 2.62h12.401c.035-.487.052-.955.07-1.353a7.123 7.123 0 00-.208-2.099c-.087-.624-.087-1.267-.087-1.891-.017-.572-.017-1.145-.121-1.716-.572-3.226-.938-6.626-5.308-7.112-.503-.052-.832-.26-1.075-.554-1.423-.278-4.284-.607-6.92.918-.711.418-1.092.92-2.029 2.498-.676 1.145-1.631 2.826-3.174 5.428-.434.729-.781 1.32-1.024 1.734zm34.759 33.445s1.878 17.594-3.514 18.206c-5.394.61-4.412-17.879-4.412-17.879l7.926-.327z" fill="#3B3368"/><path d="M194.217 334.718s-1.699 6.624-4.555 6.718c-2.857.096-3.373-6.556-3.373-6.556l7.928-.162z" fill="#984226"/><path d="M167.716 335.605s-1.879 17.595 3.515 18.205c5.393.611 4.412-17.878 4.412-17.878l-7.927-.327z" fill="#3B3368"/><path d="M167.786 335.607s1.698 6.624 4.554 6.718c2.857.095 3.373-6.556 3.373-6.556l-7.927-.162z" fill="#984226"/><path d="M185.405 310.847l12.313-3.66c.052-.624.087-1.214.122-1.768h-12.348a137.242 137.242 0 00-.087 5.428zm-18.509 5.48l11.916-3.537c.26-2.846.468-5.412.59-7.371H167v.068a226.91 226.91 0 00-.104 10.84z" fill="#221422"/><path d="M188.356 202.332a1.008 1.008 0 102.017.001 1.008 1.008 0 00-2.017-.001zm-15.672.223a1.008 1.008 0 102.017.001 1.008 1.008 0 00-2.017-.001z" fill="#5A7AC5"/><path d="M25.285 325.5c1.824-1.76 3.812-2.647 6.123-1.791-3.932 15.385-7.857 30.767-11.784 46.145l-1.859-.584 7.52-43.77zm9.043.452c1.55-2.467 3.152-2.54 4.807-.125l-6.008 43.765-1.98-.363 3.18-43.277zm22.302-.278c1.52-2.464 3.119-2.828 4.828-.249l4.515 42.974-2.072.552-7.271-43.277z" fill="#929DB7"/><path d="M64.975 325.579c1.508-2.642 3.07-2.619 4.682-.111l8.79 43.053-1.976.687-11.496-43.629z" fill="#E7EDF9"/><path d="M77.801 317.096c-.108 2.744-.644 4.853-1.502 6.464l-.015.023a8.129 8.129 0 01-.967 1.474h-.014c-1.718 2.087-4.155 2.972-6.838 3.266l-.858.068c-.29.024-2.055.068-4.736.137h-.016c-1.258.021-2.698.067-4.308.089-1.135 0-2.33.024-3.587.046-1.533.024-3.128.045-4.783.068-5.856.045-12.31.045-17.828-.09a253.66 253.66 0 01-4.722-.16 81.282 81.282 0 01-3.818-.204h-.014c-2.73-.226-4.584-.521-5.03-.929-.09-.092-.168-.181-.274-.272h-.016c-15.775-29.736-6.914-78.772-6.239-82.288a17.059 17.059 0 011.885-.113c4.875 0 10.194 2.2 13.966 6.465l.014.021.047.068c.43.476.827.999 1.211 1.543l.016.023c.582.84 1.102 1.701 1.562 2.653 3.311 6.827 5.674 14.879 7.575 22.84a66.514 66.514 0 001.148 4.219c2.147 6.896 5.167 11.908 9.015 15.196 3.326 2.858 7.296 4.445 11.896 4.83 2.361.206 4.752.388 7.082 1.022 1.916.5 3.832 1.157 5.488 2.246 1.395.93 2.606 2.176 3.434 3.947.873 1.813 1.35 4.195 1.226 7.348z" fill="#9098B1"/><path d="M18.476 327.076c-12.28-11.749-21.707-55.728-15.881-74.644 1.089-3.539 3.6-5.852 6.745-6.962l.123-.047 1.072-.317c.277-.07.556-.13.84-.183 3.406-.649 8.309-.365 14.346 3.963-3.237 3.782-9.15 11.845-12.353 24.981-6.452 26.45 3.76 50.184 5.108 53.209z" fill="#929DB7"/><path d="M100.751 307.821c-2.51-1.789-5.227-3.478-8.433-3.888-11.566-1.47-22.013-6.638-33.46-8.468 3.16-1.605 5.717-4.605 9.974-3.664 1.927-1.322 27.999 6.628 29.85 7.19 3.665 1.364 7.473 2.528 9.459 6.096.303.625 3.202 5.27 4.26 7.138a708.206 708.206 0 0014.16 31.927c-2.416 3.691-5.588 4.549-9.625 2.199-1.443-1.995-2.887-3.988-4.329-5.983a34.127 34.127 0 00-3.132-4.489 35.894 35.894 0 00-6.963-6.443c-1.849-1.113-2.931-3.333-5.58-3.292.849-2.927 3.04-5.023 5.087-7.257 2.922-3.192 2.302-8.52-1.268-11.066z" fill="#3B3368"/><path d="M38.884 283.739c8.306-1.868 17.243 3.054 20.334 11.726 3.388-.442 6.848-.956 10.021.579 6.804 3.289 14.364 4.247 21.652 6.04 6.304 1.551 12.86 3.019 14.824 9.681 1.957 6.642-3.572 10.336-7.883 14.379-1.264 1.36-23.618 23.875-32.16 31.573-1.337 1.206-2.729 2.372-4.708 2.64-3.096.172-4.868-1.285-5.732-3.856.008-2.702 22.87-36.68 24.16-37.404-.59-1.626-2.148-.984-3.348-1.181-2.758-.455-23.436 3.012-34.625-.031-2.005-.544-12.252-3.33-14.988-11.501-2.627-7.843 1.8-20.249 12.453-22.645z" fill="#463E7E"/><path d="M37.232 306.169c-.137-.122 44.644 4.618 43.966 5.59 1.612-2.31-43.883-5.619-43.966-5.59zm21.548 50.396c1-.16 13.752-17.092 12.88-17.809-1.797-1.475-11.15 15.216-12.88 17.809z" fill="#3B3368"/><path d="M77.199 245.734l.304-2.135a972.62 972.62 0 001.865-13.64c5.393 9.484 7.54 13.696 8.372 15.628.135.328.865 1.557 1.719 3.263 1.452 2.9 3.63 4.372 6.248 5.041-2.118 2.82-3.823 6.784-7.475 8.933-1.428-.364-2.621-.849-3.864-1.384-4.091-1.74-6.888-4.437-8.573-6.392.482-3.081.944-6.186 1.404-9.314z" fill="#F46F21"/><path d="M127.933 353.774c2.991.024 5.981.108 8.971.042 1.206-.026 2.949.27 3.129-1.376.129-1.175-1.356-1.431-2.305-1.939-3.639-1.949-11.004-7.3-11.932-7.103-1.844 3.815-5.626 2.684-8.859 2.952l-1.303 2.228c-1.693 3.08-1.23 4.918 3.078 4.687 3.089-.164 6.165.065 9.221.509z" fill="#3B3368"/><path d="M28.372 287.649c2.575-14.33 13.103-52.643 17.194-57.588 2.821-3.422 6.394-4.879 9.058-5.512a17.33 17.33 0 012.202-.36c.73-.08 1.248-.091 1.473-.091.112.7.808 4.348 3.932 6.108.393.227 2.876 1.492 4.731.656.933-.419 1.72-1.344 2.292-2.913.63-1.356 1.562-2.27 3.158-2.236 1.832.621 3.574 1.321 5.012 2.372.922.666 1.731 1.466 2.36 2.472.506.802.91 1.728 1.156 2.822 1.664 7.646-.01 14.951-2.224 22.202-.56 1.174-1.225 2.302-1.629 3.533-1.764 5.252.403 8.281 5.9 8.309-1.98 4.751-2.599 9.5-4.269 14.252-6.407-1.95-14.594-7.405-10.407-2.03.1 2.172.292 4.516.62 7.002.027.2.13.831.243 1.703a65.86 65.86 0 01.344 3.305c-5.074 2.818-8.279 4.694-10.175 5.92-.427.276-1.585.898-3.156 1.682 0 0-1.6.67-3.385 1.062-2.839.624-21.69 2.855-25.195-4.778-1.32-2.879.42-5.966.765-7.892z" fill="#FF822E"/><path d="M68.36 280.63a9.45 9.45 0 00.147-1.004c.363-.704.72-1.651.321-2.233-.284-.414-.78-.396-1.428-.66-1.278-.523-13.92-11.735-18.586-17.823 4.218 9.288 11.453 15.883 19.545 21.72z" fill="#B29A32"/><path d="M69.483 246.746c-4.753 1.136-8.916-2.124-9.612-2.686-.722-4.583-1.408-9.172-1.908-13.787.282-1.861.719-2.067 2.158-.925.572.462 1.213.904 1.685 1.457 1.393 1.625 2.865 2.348 4.753.812.022.012.046.012.056.024.046.009.079.033.112.044.698.316 1.079.995 1.686 1.389.214.135.417.44.652.599a.502.502 0 00.506.068c.1-.045.203-.113.326-.237.573-1.254.302-2.915 1.786-3.727l.067.033c.012 0 .024 0 .035.012.685.306 1.033.96 1.416 1.536.708 1.015 1.325 1.287 2.38.339 1.384-1.243 1.665-1.096 2.26.711l.034.214c.74 5.083-2.36 12.68-8.392 14.124z" fill="#FCEBE6"/><path d="M58.732 222.001l8.98 7.959c.25 1.062.432 2.154 1 3.105.348.581.61 1.437 1.608.909.453-1.414.488-2.972 1.448-4.21 1.073-1.243 2.065-2.572 3.247-3.702.814-.776.816-1.352.12-2.092-2.098-1.638-1.135-3.99-1.402-6.054-.112-.616-.618-.9-1.037-1.268-2.255-1.975-4.375-4.071-5.793-6.574 2.134 1.746 4.069 4.094 7.225 4.491.183-.025.38-.111.547-.068 4.8 1.248 6.769-1.204 7.77-4.936 1.144-4.259.51-14.963.495-15.5-4.607-1.1-8.412-3.848-12.463-6.096-1.137-.632-2.313-1.255-3.664-1.255-1.492.002-2.01.743-1.561 2.135.077.239-.013-.061.069.175 1.274 3.625.835 4.622.835 4.622-.513 1.231-2.052.744-3.197 1.903-1.398 1.413-.606 3.649-.342 6.84.347 4.18-.43 7.369-1.741 12.756a56.643 56.643 0 01-2.144 6.86z" fill="#D88456"/><path d="M74.129 214.565c-3.023-1.437-5.684-3.378-8.093-5.744 1.577 3.882 4.32 6.755 7.698 9.095.434-1.081.188-2.243.395-3.351z" fill="#BC7349"/><path d="M69.046 233.964c.998.132.903-.756 1.225-1.284.532-.876.95-2.424 1.748-3.159.386.595.865 1.112 1.252 1.707-.75 1.084-2.183 2.418-3.278 3.137-.584.381-.902.38-.947-.401z" fill="#E0D6D5"/><path d="M69.746 233.974c-.846.131-.766-.756-1.038-1.284-.452-.878-.496-1.996-1.173-2.73-.032.822-.733 1.128-.983 1.782.636 1.084 1.463 1.915 2.392 2.632.495.382.764.382.802-.4z" fill="#E0D6D5"/><path d="M48.106 239.353l10.754 14.488 2.36-1.288 16.284-8.954a972.62 972.62 0 001.865-13.64l-1.495 2.664-.112.202-.213.363-7.473 13.301-12.114-16.216-9.856 9.08z" fill="#F46F21"/><path d="M71.769 229.764c.128 1.13 1.105 1.73 1.64 2.608.566.933 1.264.984 2.042.09.416-.477.815-1.36 1.515-1.144.85.264.193 1.339.683 2.06l.193-.969c-.525-2.251-.624-3.936-.601-5.127.01-.584.06-1.518-.535-2.304-.46-.604-1.111-.876-1.571-1.008.075.978-.3 1.723-1.001 2.42-.977.974-2.093 1.887-2.365 3.374z" fill="#D0C3BE"/><path d="M65.554 247.498c-.12.048-.226.11-.315.182-.436.662.732 2.058 1.711 3.316 3.692 4.745 7.546 9.537 10.12 13.942-1.586-5-6.13-11.068-11.516-17.44zm-10.929-22.95c1.561 2.948 2.854 6.041 4.675 8.854.112.17.257.339.313.53 1.563 5.33 6.07 8.616 8.98 13.009.493.733.92.757 1.54-.012 3.146-3.917 5.314-8.435 7.798-12.748a48.088 48.088 0 001.854-3.625c-.629-1.006-1.439-1.806-2.36-2.472 0 .021-.012.056-.012.089-.617 4.167-2.808 7.532-5.045 10.931-1.18 1.796-2.147 3.738-3.225 5.657-3.304-4.403-6.607-8.672-8.73-13.72-.496-1.175-1.204-2.281-1.934-3.341-.742-1.084-1.237-2.282-1.653-3.512-.606.056-1.358.169-2.2.36z" fill="#B29A32"/><path d="M57.967 230.272c.473-1.205 1.028-1.597 2.085-.439.873.958 2.041 1.647 2.889 2.622 1.011 1.16 1.819 1.329 2.772.02.212-.294.556-.492.839-.732.955-.242 1.457-.818 1.36-1.842-1.701-2.477-4.195-4.128-6.404-6.065-.813-.712-1.369-1.979-2.776-1.835-.969.14-1.456.855-1.912 1.608.293 2.236.553 4.479 1.147 6.663z" fill="#D0C3BE"/><path d="M72.494 366.975c-5.842-.66-7.704-4.182-7.662-9.071-2.992.535-4.162-1.787-5.906-3.207-1.46-1.266-2.934-.997-4.416-.036-.888 4.266.447 7.932 3.527 11.126a2534.62 2534.62 0 013.28 3.278c2.62 2.71 6.043 2.886 9.564 2.419 1.864-.247 3.664-.859 3.028-3.24l-1.415-1.269z" fill="#3B3368"/><path d="M62.133 200.821c5.027-.924 6.435-4.097 4.444-9.852-.218-.632-1.16-1.24-.452-2.034.62-.694 1.508-.578 2.286-.272 2.296.904 5.976 3.606 7.21 4.525 4.182 3.113 11.27 3.421 13.183.837 1.935-2.612-.707-9.138-5.123-11.49-2.866-1.527-5.857-.947-11.837.209-1.23.237-2.844.731-4.692 1.709-3.19 1.691-4.63 4.611-5.067 8.484-.293 2.62-.286 5.26.048 7.884z" fill="#F0DAD5"/><path d="M83.318 189.602c2.266.014 1.927 4.486-.449 4.282-1.299-.111-1.915-1.639-2.927-2.424-.588-.456-2.773-2.304-3.268-1.294 1.411 1.07 2.862 2.008 4.108 3.34.962 1.028 2.331 1.856 3.548.842.838-.699 1.274-2.171 1.162-3.36-.127-1.363-1.138-2.628-2.174-1.386zm-16.532 5.945c-3.7 2.469-3.53-5.187-1.538-7.211 1.088-1.105 3.025.176 4.558-.692.89-.505 4.446-2.001 4.202-3.833-2.29 1.118-4.678 2.714-7.12 3.036-1.884.246-2.888.068-3.602 2.64-.49 1.768-.493 4.189.14 6.51.634 2.323 2.574 2.283 3.36-.45z" fill="#C8A3A3"/><path d="M80.913 198.713c.371.18 1.887.969 2.611 2.795a5.318 5.318 0 01.188 3.305 3.943 3.943 0 01-1.188 1.569c-1.13.89-2.397.847-2.739.823l1.128-8.492z" fill="#D88456"/><path d="M79.394 322.299s9.852-2.115 7.613-3.547c-2.238-1.432-8.832 2.368-8.832 2.368l1.219 1.179z" fill="#3B3368"/><path d="M78.977 322.624s9.327 3.826 8.279 1.376c-1.047-2.449-8.626-3.038-8.626-3.038l.347 1.662z" fill="#3B3368"/><path d="M76.94 378.604l18.884-77.536 6.574 2.158-18.357 75.378h-7.1zm115.718-107.09l8.28 34.134 9.424 38.904h6.713c.114 0 .244.034.359.05l-9.44-38.954-8.803-36.289-6.533 2.155zm17.115 27.422l1.633 6.712 16.071 66.391h7.072l-16.087-66.391-2.156-8.868-6.533 2.156z" fill="#E7EDF9"/><path d="M69.25 305.648h131.688l-8.28-34.134 6.534-2.155 8.802 36.289h3.414l-1.634-6.712 6.534-2.156 2.156 8.868h12.249l-19.044-42.725c-.261.115-.556.18-.867.18H92.05l-22.8 42.545z" fill="#E7EDF9"/><path d="M209.773 298.936l1.634 6.712h7.056l-2.156-8.868-6.534 2.156zm-17.117-27.422l8.28 34.134h7.056l-8.803-36.289-6.533 2.155z" fill="#E7EDF9"/><path d="M212.538 273.209c.021-12.082.002-24.163.1-36.243.009-1.185-.204-1.98-.686-2.505-.829-.908-2.176-.935-2.737-.936-2.588-.008-25.675.002-57.397.086.881 18.674 1.266 31.211.878 35.403-.066.719-.32 2.964 1.015 4.304.777.78 2.109 1.005 4.344 1.015 16.756.066 33.511.044 50.265.005 1.479-.004 3.048.136 4.218-1.129z" fill="#B5BFE6"/><path d="M177.056 254.82c.041 3.429 3.26 6.704 6.529 6.644 3.299-.06 6.404-3.373 6.374-6.8-.034-3.731-2.728-6.196-6.691-6.123-3.719.071-6.256 2.635-6.212 6.279z" fill="#DFE9F7"/><path d="M94.874 281.828h47.706v-22.12H94.874v22.12z" fill="#859CCB"/><path d="M125.728 276.017l16.853 5.811 15.888-43.737-18.378-6.059-14.363 43.985z" fill="#859CCB"/><path d="M131.642 262.912l8.918 12.39s9.987-22.19 13.333-32.195c.447-1.337-12.826-7-12.826-7l-9.425 26.805zm-7.507 15.73l11.181-.963s-1.469-2.953-2.203-4.435c-1.736-3.509-5.145-10.493-5.145-10.493l-7.507.481 3.674 15.41z" fill="#B5BFE6"/><path d="M110.387 270.928l-.748-6.011c0-.118-.016-.233-.021-.35.049-.09.073-.178.135-.266 1.452-.456 12.193-2.481 14.821 1.698.743 1.18 1.275 2.253.792 3.612-.332.932-1.628 1.112-2.199 1.216-1.788.326-6.51.394-12.78.101z" fill="#D88456"/><path d="M83.053 267.482c2.02.121 3.544-.438 3.843-.462 8.45-.712 16.744-2.688 25.228-3.049 2.068 2.168 1.618 4.743 1.146 7.305-.596 1.086-1.55 1.672-2.697 1.999-4.333 3.465-15.157 11.061-28.1 9.185a28.576 28.576 0 01-4.735-1.105 34.961 34.961 0 004.446-13.961c.196.029.498.066.869.088z" fill="#FF822E"/><path d="M119.711 256.453c-1.672 1.469-2.815 3.16-2.305 5.545 2 .273 4.017.46 5.994.849 1.698.335 1.74.451 2.212-1.773.283-1.328 1.264-1.443 2.007-.988 1.259.768 1.82 1.231 2.077 1.103.411-.207.231-2.484-.938-3.871-2.459-2.915-8.56-1.023-9.047-.865z" fill="#D88456"/><path d="M95.452 253.842c.87.221 1.786.356 2.741.423 7.732.532 15.475.858 23.217 1.265a22162.3 22162.3 0 00-2.664 6.555c-6.742-.326-12.104.134-15.912.661-4.228.583-9.016 1.515-14.833.037l-.025-.008c3.653-2.15 5.358-6.114 7.476-8.933z" fill="#F46F21"/></g><defs><clipPath id="clip0"><path fill="#fff" transform="matrix(-1 0 0 1 389 0)" d="M0 0h389v379H0z"/></clipPath></defs></svg>