<svg width="364" height="364" fill="none" xmlns="http://www.w3.org/2000/svg"><path d="M319.993 187.37V32.916c0-5.889-4.775-10.664-10.664-10.664h-31.992V10.664c0-5.89-4.775-10.664-10.664-10.664H74.648a10.659 10.659 0 00-7.54 3.124L3.125 67.106A10.707 10.707 0 000 74.648v278.688C0 359.225 4.775 364 10.664 364h256.613C322.232 364 364 319.938 364 268.023c0-33.784-17.549-63.545-44.007-80.653zM298.665 43.58v133.483a95.23 95.23 0 00-21.328-4.563V43.58h21.328zm-234.61-7.242v27.646H36.41l27.646-27.646zM21.328 342.672V85.312H74.72c5.89 0 10.665-4.774 10.665-10.664v-53.32H256.01v151.47c-27.898 3.499-52.106 19.019-67.266 41.194H53.391c-5.889 0-10.664 4.775-10.664 10.664 0 5.89 4.775 10.664 10.664 10.664h124.397a95.22 95.22 0 00-5.064 21.328H53.391c-5.889 0-10.664 4.775-10.664 10.664 0 5.89 4.775 10.665 10.664 10.665h119.171a95.28 95.28 0 004.724 21.328H53.391c-5.889 0-10.664 4.774-10.664 10.664 0 5.889 4.775 10.664 10.664 10.664h134.401a96.776 96.776 0 0019.98 22.039H21.328zm246.695 0c-41.161 0-74.648-33.487-74.648-74.649 0-41.161 33.487-74.648 74.648-74.648 41.162 0 74.649 33.487 74.649 74.648 0 41.162-33.487 74.649-74.649 74.649z" fill="#B00020"/><path d="M285.639 299h14.112v-68.16h-13.632v45.024l-29.76-45.024h-14.112V299h13.632v-45.024L285.639 299zM75.395 182.036h127.898c5.889 0 10.664-4.775 10.664-10.665 0-56.74-.002 14.518 0-42.727 0-5.889-4.775-10.664-10.664-10.664H171.3V86.023c0-5.889-4.774-10.664-10.664-10.664h-42.585c-5.889 0-10.664 4.775-10.664 10.664v21.355c-2.063-.002-34.035-.029-31.992-.026-5.883 0-10.664 4.771-10.664 10.664v53.355c0 5.89 4.775 10.665 10.664 10.665zm117.234-42.728v21.399H171.3v-21.399h21.329zm-63.914-42.62h21.257v64.019h-21.257v-64.02zm-21.328 32.018v32.001H86.059v-32.019l21.328.018z" fill="#B00020"/></svg>