<svg fill="none" height="34" width="173" xmlns="http://www.w3.org/2000/svg" class="flw"><path clip-rule="evenodd" d="M57.603 7.933h.067c.336 0 .538.267.538.6V24a.528.528 0 01-.538.533.528.528 0 01-.537-.533V8.467c0-.267.202-.534.47-.534zm-14.703.8h10.138c.336 0 .537.334.537.6a.528.528 0 01-.537.534h-9.6v6.466h8.66c.269 0 .537.2.537.534a.528.528 0 01-.537.533h-8.593v6.667c-.068.333-.336.6-.672.6a.6.6 0 01-.604-.6V9.333h.067a.6.6 0 01.604-.6zm29.406 4.8A.528.528 0 0071.77 13a.528.528 0 00-.537.533V20c0 2.2-1.813 3.933-4.028 3.867-2.35 0-3.693-1.534-3.693-3.934v-6.4a.528.528 0 00-.537-.533c-.268 0-.537.267-.537.533v6.6c0 2.734 1.746 4.734 4.633 4.734 1.745.066 3.423-.867 4.23-2.4v1.666c0 .334.268.534.536.534a.528.528 0 00.537-.534h-.067v-10.6zm10.205.067c0 .267-.269.467-.537.467H78.28v7.4c0 1.666.94 2.266 2.35 2.266.47 0 .94-.066 1.343-.2.268 0 .47.2.47.467 0 .2-.135.4-.336.467-.537.2-1.141.266-1.678.266-1.746 0-3.223-1-3.223-3.133v-7.533h-1.275c-.269 0-.538-.267-.538-.534 0-.266.269-.466.537-.466h1.276v-3.2c0-.267.202-.534.47-.534h.067c.269 0 .537.267.537.534v3.2h3.693c.268 0 .537.266.537.533zm8.593.467c.269 0 .537-.2.537-.467s-.268-.533-.537-.533h-3.692v-3.2c0-.267-.269-.534-.537-.534h-.067c-.269 0-.47.267-.47.534v3.2h-1.276c-.269 0-.537.2-.537.466 0 .267.268.534.537.534h1.276V21.6c0 2.133 1.477 3.133 3.222 3.133.537 0 1.141-.066 1.679-.266a.502.502 0 00.335-.467.457.457 0 00-.47-.467c-.403.134-.872.2-1.342.2-1.41 0-2.35-.6-2.35-2.266v-7.4h3.692zm2.552 4.733c0-3.4 2.35-6.067 5.505-6.067 3.289 0 5.371 2.667 5.371 6.067 0 .267-.269.533-.537.533h-9.131c.201 2.867 2.283 4.534 4.565 4.534 1.41 0 2.82-.6 3.76-1.6a.514.514 0 01.336-.134c.268 0 .537.267.537.534 0 .133-.067.266-.202.4-1.141 1.266-2.819 1.933-4.498 1.866-3.088 0-5.706-2.4-5.706-6.066V18.8zm1.14-.533c.202-2.534 2.015-4.467 4.298-4.467 2.618 0 4.028 2.133 4.162 4.467h-8.46zm14.099-1.867c.739-1.933 2.552-3.333 4.633-3.467.336 0 .604.267.604.667 0 .267-.201.6-.537.6h-.067c-2.484.267-4.633 2.067-4.633 5.8v4.267c-.067.333-.268.533-.604.533-.268 0-.537-.267-.537-.533V13.6c.067-.333.269-.533.604-.533.269 0 .537.266.537.533v2.8zm22.961-4.067c-.805 0-1.477.534-1.678 1.334l-1.947 6.2-1.947-6.2c-.202-.8-.94-1.4-1.813-1.4h-.201c-.873 0-1.612.533-1.813 1.4L120.51 19.8l-1.88-6.2c-.201-.733-.873-1.333-1.678-1.333h-.067c-.873 0-1.544.733-1.544 1.6 0 .266.067.533.134.8l3.021 8.6c.201.866.94 1.466 1.88 1.533h.134c.873 0 1.611-.6 1.88-1.467l1.947-6.133 1.947 6.133c.201.867 1.007 1.467 1.88 1.467h.134c.94 0 1.745-.6 1.947-1.533l3.021-8.667c.067-.2.134-.467.134-.667v-.066c0-.867-.671-1.534-1.544-1.534zm4.7.6c1.275-.4 2.551-.666 3.894-.6 1.879 0 3.222.534 4.229 1.4a5.465 5.465 0 011.343 3.867v5.467c0 .933-.739 1.666-1.678 1.666-.873 0-1.612-.6-1.679-1.466-.94 1-2.283 1.6-3.692 1.533-2.216 0-4.163-1.333-4.163-3.733 0-2.667 2.014-3.934 4.901-3.934 1.007 0 2.014.134 2.954.467v-.2c0-1.467-.873-2.2-2.618-2.2-.806 0-1.611.067-2.417.333-.134.067-.336.067-.47.067-.806.067-1.477-.533-1.477-1.333 0-.6.336-1.134.873-1.334zm6.176 7.334c0 1.333-1.141 2.133-2.752 2.066-1.075 0-1.88-.533-1.88-1.466V20.8c0-1 .94-1.667 2.417-1.667.738 0 1.544.2 2.215.467v.667zm13.629-6.8c.201-.734.873-1.2 1.611-1.2.94 0 1.679.733 1.679 1.6v.066c0 .267-.068.534-.202.8l-3.625 8.6c-.336.867-1.141 1.4-2.014 1.467h-.202a2.157 2.157 0 01-1.947-1.533l-3.759-8.6a1.757 1.757 0 01-.202-.8c.067-.934.806-1.6 1.679-1.6a1.73 1.73 0 011.678 1.266l2.618 7 2.686-7.066zm4.632 5.6c.135 3.333 3.022 5.933 6.378 5.733 1.544 0 3.021-.467 4.23-1.467.336-.266.47-.6.47-1v-.066c0-.734-.604-1.334-1.343-1.334-.268 0-.604.067-.805.267-.739.533-1.612.867-2.485.8-1.477.067-2.752-.933-2.954-2.4h6.916c.872-.067 1.544-.8 1.477-1.667v-.266c0-3-2.619-5.534-5.841-5.467-3.559 0-6.043 2.867-6.043 6.333v.534zM167.036 15c-1.41 0-2.35 1-2.619 2.6h5.17c-.202-1.533-1.141-2.6-2.551-2.6z" class="flw__type"/><path clip-rule="evenodd" d="M24.908.267c15.105-2.267 5.438 10.6.738 14.2 3.223 2.466 6.512 5.933 7.922 9.866 2.619 7.2-3.826 8.267-8.66 6.467-5.304-1.867-10.004-5.867-13.092-10.533a9.367 9.367 0 01-2.685-.4c1.745 4.933 2.484 10 2.014 14.133 0-8.333-3.961-16.6-9.668-23.467-2.014-2.4.067-4.2 1.88-1.866a53.885 53.885 0 013.357 5.266C8.66 7.133 18.328 1.2 24.908.267zm-2.149 12.266c2.954-1.8 11.95-11.466 3.558-10.6-4.833.534-10.674 5-13.091 7.867 3.357-.4 6.78 1.067 9.533 2.733zm-9.6-.6c2.282-.2 4.766 1 6.646 2.2a16.122 16.122 0 01-5.908 1.534c-3.088 0-3.692-3.467-.738-3.734zM14.434 20c2.686 3 6.378 5.933 10.34 7 2.282.6 4.833.333 3.893-2.933-.94-3-3.357-5.667-5.706-7.667-.672.467-1.41.933-2.149 1.267C18.798 18.8 16.65 19.6 14.434 20z" class="flw__mark"/></svg>