<svg width="692" height="533" viewBox="0 0 692 533" fill="none" xmlns="http://www.w3.org/2000/svg">
<path d="M686.778 531.973H19.2781V528.058H686.778V531.973Z" fill="#2D10A0"/>
<path d="M115.729 437.236C68.7039 440.715 17.2052 414.779 3.71852 369.596C-4.06548 343.515 1.40786 315.248 10.5905 289.627C20.8785 260.919 36.9465 232.624 63.1039 216.95C92.9972 199.038 131.403 200.255 161.328 182.398C203.955 156.96 216.787 101.956 246.987 62.5603C268.965 33.891 301.196 13.2549 336.431 5.29092C381.305 -4.85174 433.7 8.35494 459.8 46.2416C476.392 70.3256 480.564 100.494 486.468 129.138C496.507 177.828 517.3 230.42 562.741 250.584C582.093 259.171 603.879 260.767 623.601 268.463C666.192 285.08 694.781 334.119 684.251 378.607C673.721 423.096 622.208 454.49 578.899 439.843C555.563 431.95 537.587 413.58 517.292 399.612C470.241 367.231 407.493 358.932 353.643 377.97C330.008 386.324 308.401 399.447 285.777 410.24C256.421 424.246 225.212 434.363 193.217 440.242C179.856 442.698 172.655 436.724 160.633 434.278C146.207 431.343 130.179 436.167 115.729 437.236Z" fill="#EEEDFF"/>
<path d="M572.776 99.5098C585.068 104.163 596.526 110.255 606.421 118.106C660.818 161.276 625.75 248.412 564.802 264.936C540.781 271.448 514.618 263.16 490.585 269.63C456.352 278.843 436.86 314.159 408.46 335.379C387.792 350.82 361.634 358.752 335.87 357.39C303.058 355.655 269.608 336.412 259.018 305.308C252.288 285.536 255.272 263.99 256.77 243.156C259.318 207.743 255.228 167.56 227.906 144.884C216.272 135.228 201.608 129.904 189.544 120.788C163.494 101.104 153.357 61.8511 169.226 33.3151C185.096 4.78043 226.593 -6.80491 253.518 11.6644C268.028 21.6178 276.818 37.7311 288.058 51.2684C314.116 82.6538 355.636 100.532 396.342 97.8951C425.889 95.9804 454.438 86.9004 484.134 86.3071C512.169 85.7458 544.649 88.8631 572.776 99.5098Z" stroke="#A08AFC" stroke-width="4" stroke-linecap="round" stroke-linejoin="round"/>
<path d="M188.234 165.599H97.8878C87.3731 165.599 78.8491 157.075 78.8491 146.56V56.2136C78.8491 45.6989 87.3731 37.1749 97.8878 37.1749H188.234C198.749 37.1749 207.273 45.6989 207.273 56.2136V146.56C207.273 157.075 198.749 165.599 188.234 165.599Z" fill="#DEDEFF"/>
<path d="M107.482 123.268V72.4249C107.482 64.8743 115.428 59.9636 122.182 63.3396L173.025 88.7609C180.51 92.5049 180.51 103.188 173.025 106.932L122.182 132.353C115.428 135.73 107.482 130.818 107.482 123.268Z" fill="#9A84FF"/>
<path d="M589.498 165.599H499.151C488.637 165.599 480.113 157.075 480.113 146.56V56.2136C480.113 45.6989 488.637 37.1749 499.151 37.1749H589.498C600.013 37.1749 608.537 45.6989 608.537 56.2136V146.56C608.537 157.075 600.013 165.599 589.498 165.599Z" fill="#DEDEFF"/>
<path d="M501.183 135.988C496.592 135.988 492.87 132.266 492.87 127.674V92.1643C492.87 87.5723 496.592 83.8496 501.183 83.8496C505.775 83.8496 509.498 87.5723 509.498 92.1643V127.674C509.498 132.266 505.775 135.988 501.183 135.988Z" fill="#FFB300"/>
<path d="M529.945 135.988C525.353 135.988 521.63 132.266 521.63 127.674V73.2096C521.63 68.6176 525.353 64.895 529.945 64.895C534.535 64.895 538.258 68.6176 538.258 73.2096V127.674C538.258 132.266 534.535 135.988 529.945 135.988Z" fill="#A08AFC"/>
<path d="M558.705 135.988C554.113 135.988 550.39 132.266 550.39 127.674V103.019C550.39 98.427 554.113 94.7043 558.705 94.7043C563.297 94.7043 567.02 98.427 567.02 103.019V127.674C567.02 132.266 563.297 135.988 558.705 135.988Z" fill="#FDF5FF"/>
<path d="M587.465 135.988C582.875 135.988 579.152 132.266 579.152 127.674V68.019C579.152 63.427 582.875 59.7043 587.465 59.7043C592.057 59.7043 595.78 63.427 595.78 68.019V127.674C595.78 132.266 592.057 135.988 587.465 135.988Z" fill="#293FFF"/>
<path d="M452.607 297.339H235.718C231.479 297.339 228.043 293.903 228.043 289.665V282.502C228.043 278.262 231.479 274.826 235.718 274.826H452.607C456.846 274.826 460.282 278.262 460.282 282.502V289.665C460.282 293.903 456.846 297.339 452.607 297.339Z" fill="#DEDEFF"/>
<path d="M263.447 289.723H241.681C239.67 289.723 238.041 288.093 238.041 286.083C238.041 284.073 239.67 282.442 241.681 282.442H263.447C265.458 282.442 267.087 284.073 267.087 286.083C267.087 288.093 265.458 289.723 263.447 289.723Z" fill="#A08AFC"/>
<path d="M309.247 289.723H287.48C285.469 289.723 283.84 288.093 283.84 286.083C283.84 284.073 285.469 282.442 287.48 282.442H309.247C311.257 282.442 312.887 284.073 312.887 286.083C312.887 288.093 311.257 289.723 309.247 289.723Z" fill="#E66EFF"/>
<path d="M355.046 289.723H333.28C331.269 289.723 329.64 288.093 329.64 286.083C329.64 284.073 331.269 282.442 333.28 282.442H355.046C357.057 282.442 358.686 284.073 358.686 286.083C358.686 288.093 357.057 289.723 355.046 289.723Z" fill="#FDF5FF"/>
<path d="M400.846 289.723H379.079C377.068 289.723 375.438 288.093 375.438 286.083C375.438 284.073 377.068 282.442 379.079 282.442H400.846C402.856 282.442 404.486 284.073 404.486 286.083C404.486 288.093 402.856 289.723 400.846 289.723Z" fill="#293FFF"/>
<path d="M446.645 289.723H424.878C422.868 289.723 421.237 288.093 421.237 286.083C421.237 284.073 422.868 282.442 424.878 282.442H446.645C448.656 282.442 450.285 284.073 450.285 286.083C450.285 288.093 448.656 289.723 446.645 289.723Z" fill="#A08AFC"/>
<path d="M440.21 258.008H246.049C235.534 258.008 227.01 249.484 227.01 238.97V204.067C227.01 193.552 235.534 185.028 246.049 185.028H440.21C450.726 185.028 459.249 193.552 459.249 204.067V238.97C459.249 249.484 450.726 258.008 440.21 258.008Z" fill="#DEDEFF"/>
<path d="M281.262 243.533H254.211C249.522 243.533 245.722 239.732 245.722 235.044V207.993C245.722 203.305 249.522 199.504 254.211 199.504H281.262C285.951 199.504 289.751 203.305 289.751 207.993V235.044C289.751 239.732 285.951 243.533 281.262 243.533Z" fill="#FFB300"/>
<path d="M356.656 243.533H329.604C324.916 243.533 321.114 239.732 321.114 235.044V207.993C321.114 203.305 324.916 199.504 329.604 199.504H356.656C361.345 199.504 365.145 203.305 365.145 207.993V235.044C365.145 239.732 361.345 243.533 356.656 243.533Z" fill="#293FFF"/>
<path d="M432.049 243.533H404.998C400.309 243.533 396.509 239.732 396.509 235.044V207.993C396.509 203.305 400.309 199.504 404.998 199.504H432.049C436.738 199.504 440.538 203.305 440.538 207.993V235.044C440.538 239.732 436.738 243.533 432.049 243.533Z" fill="#A08AFC"/>
<path d="M308.973 221.519C308.973 219.324 307.194 217.546 305 217.546C302.806 217.546 301.028 219.324 301.028 221.519C301.028 223.714 302.806 225.491 305 225.491C307.194 225.491 308.973 223.714 308.973 221.519Z" fill="#FDF5FF"/>
<path d="M383.96 221.519C383.96 219.324 382.182 217.546 379.988 217.546C377.794 217.546 376.015 219.324 376.015 221.519C376.015 223.714 377.794 225.491 379.988 225.491C382.182 225.491 383.96 223.714 383.96 221.519Z" fill="#FDF5FF"/>
<path d="M3.34961 303.33C12.9403 309.674 15.1523 322.677 21.9683 331.937C25.9483 337.346 31.4536 341.39 36.4883 345.833C46.3843 354.566 54.6056 364.999 62.7683 375.37C73.2509 388.69 83.7349 402.009 94.2163 415.327C123.224 377.802 158.344 345.078 184.826 305.727C182.303 328.177 161.894 343.975 152.275 364.415C148.63 372.165 146.483 380.718 141.438 387.637C131.42 401.375 113.183 405.302 102.387 418.158C96.5016 425.167 93.6136 434.454 83.0269 426.806C78.0203 423.19 75.2043 415.491 71.1563 410.778C42.6069 377.523 18.0643 345.335 3.34961 303.33Z" fill="#2D10A0"/>
<path d="M65.039 339.21C70.3403 347.838 77.195 355.58 81.183 364.888C86.499 377.292 86.3243 391.56 91.979 403.812C100.883 398.086 99.875 385.048 103.442 375.081C107.848 362.765 119.651 354.961 128.279 345.128C134.302 338.264 138.862 330.254 143.076 322.154C157.507 294.422 168.588 263.654 165.938 232.505C157.595 268.701 140.532 302.857 116.598 331.265C113.08 335.441 109.38 339.546 106.858 344.388C104.416 349.073 103.171 354.273 101.946 359.41C98.9363 372.041 95.927 384.67 92.9163 397.298C91.5203 384.649 90.123 372 88.727 359.349C88.1856 354.452 87.5163 349.24 84.347 345.464C82.4496 343.202 79.8203 341.681 77.723 339.601C71.9483 333.876 71.0483 325.046 69.6216 317.04C64.2603 286.98 47.131 259.705 43.8896 229.344C47.7456 265.461 45.0803 306.732 65.039 339.21Z" fill="#2D10A0"/>
<path d="M85.282 300.796C89.062 313.48 93.482 325.962 97.9006 338.435C107.077 319.4 116.254 300.364 125.429 281.327C128.901 274.126 132.405 266.83 133.997 258.995C135.153 253.3 135.271 247.456 135.651 241.658C136.897 222.667 140.981 203.991 145.053 185.399C124.363 208.407 131.426 245.807 115.445 272.303C112.686 276.879 109.262 281.071 107.013 285.916C100.755 299.394 104.482 315.611 99.5886 329.642C90.102 313.847 92.4166 293.934 95.086 275.703C95.578 272.342 96.03 268.712 94.4273 265.715C92.87 262.8 89.7193 261.152 87.45 258.75C83.186 254.234 82.3993 247.551 81.83 241.366C79.5713 216.868 78.3913 191.938 74.89 167.61C58.5273 206.696 73.8513 262.446 85.282 300.796Z" fill="#2D10A0"/>
<path d="M102.215 295.433C102.966 287.644 103.739 279.857 104.512 272.072C105.306 264.072 106.102 256.072 106.895 248.072C108.402 232.9 109.914 217.696 112.982 202.761C118.26 177.066 128.175 151.686 126.196 125.529C116.104 145.502 106.046 166.349 105.159 188.709C104.878 195.814 105.536 202.92 105.688 210.028C105.86 218.086 105.382 226.144 104.796 234.184C100.863 288.18 92.1562 341.738 89.4482 395.834C89.0615 403.542 88.7962 411.257 88.6855 418.976C88.6095 424.361 86.8215 434.641 89.7428 438.97C92.6695 435.648 91.6602 427.945 91.9308 423.725C92.3335 417.422 92.7522 411.121 93.1855 404.82C94.0215 392.652 94.9148 380.489 95.8628 368.33C97.7575 344.013 99.8762 319.712 102.215 295.433Z" fill="#2D10A0"/>
<path d="M113.842 507.113H66.5931L50.3411 432.457H130.096L113.842 507.113Z" fill="#FFB300"/>
<path d="M691.098 293.773C680.922 300.503 678.576 314.299 671.345 324.125C667.121 329.862 661.281 334.153 655.938 338.867C645.44 348.134 636.716 359.205 628.054 370.209L594.686 412.603C563.91 372.787 526.648 338.066 498.552 296.315C501.228 320.134 522.882 336.898 533.086 358.585C536.956 366.806 539.233 375.882 544.585 383.223C555.214 397.801 574.565 401.966 586.018 415.607C592.262 423.043 595.328 432.897 606.561 424.782C611.872 420.945 614.86 412.777 619.154 407.775C649.446 372.491 675.486 338.341 691.098 293.773Z" fill="#3C1FD8"/>
<path d="M625.645 331.842C620.02 340.995 612.748 349.21 608.516 359.086C602.876 372.246 603.063 387.384 597.063 400.384C587.616 394.31 588.684 380.476 584.9 369.9C580.225 356.834 567.701 348.551 558.548 338.12C552.157 330.838 547.32 322.34 542.847 313.746C527.536 284.322 515.78 251.675 518.591 218.626C527.443 257.031 545.547 293.27 570.941 323.411C574.673 327.842 578.599 332.198 581.276 337.335C583.865 342.307 585.188 347.822 586.488 353.275C589.68 366.675 592.873 380.075 596.067 393.475C597.549 380.052 599.031 366.631 600.513 353.208C601.087 348.012 601.797 342.482 605.159 338.478C607.173 336.078 609.963 334.462 612.187 332.256C618.315 326.182 619.269 316.814 620.784 308.318C626.472 276.424 644.645 247.484 648.085 215.271C643.993 253.592 646.823 297.38 625.645 331.842Z" fill="#3C1FD8"/>
<path d="M604.167 291.084C600.157 304.541 595.467 317.784 590.779 331.02C581.042 310.823 571.306 290.625 561.571 270.428C557.887 262.785 554.17 255.045 552.481 246.732C551.253 240.691 551.129 234.489 550.725 228.337C549.405 208.188 545.071 188.372 540.75 168.647C562.702 193.059 555.209 232.74 572.165 260.852C575.091 265.707 578.723 270.155 581.11 275.296C587.75 289.597 583.797 306.803 588.987 321.689C599.054 304.931 596.598 283.801 593.765 264.46C593.243 260.893 592.765 257.041 594.465 253.863C596.117 250.771 599.461 249.021 601.867 246.472C606.391 241.68 607.226 234.589 607.83 228.028C610.226 202.035 611.478 175.584 615.194 149.771C632.555 191.243 616.297 250.393 604.167 291.084Z" fill="#3C1FD8"/>
<path d="M586.201 285.393C585.405 277.13 584.585 268.867 583.765 260.607C582.921 252.118 582.078 243.631 581.236 235.142C579.637 219.045 578.033 202.914 574.778 187.067C569.177 159.805 558.657 132.877 560.757 105.123C571.464 126.315 582.137 148.434 583.078 172.158C583.377 179.697 582.677 187.235 582.516 194.778C582.334 203.327 582.841 211.877 583.462 220.409C587.634 277.697 596.874 334.525 599.748 391.921C600.157 400.098 600.44 408.285 600.557 416.474C600.637 422.189 602.534 433.095 599.436 437.689C596.329 434.162 597.4 425.99 597.114 421.513C596.685 414.825 596.241 408.139 595.782 401.454C594.894 388.545 593.948 375.639 592.942 362.739C590.93 336.937 588.682 311.153 586.201 285.393Z" fill="#3C1FD8"/>
<path d="M574.958 507.113H622.207L638.46 432.457H558.706L574.958 507.113Z" fill="#293FFF"/>
<path d="M442.54 389.525C440.288 389.243 438.689 387.187 438.972 384.933L455.41 253.904C455.693 251.651 457.749 250.053 460.002 250.336C462.256 250.619 463.853 252.675 463.57 254.928L447.132 385.957C446.849 388.211 444.793 389.808 442.54 389.525Z" fill="#FDF5FF"/>
<path d="M415.834 389.904C413.569 389.748 411.859 387.784 412.015 385.518L421.125 253.776C421.281 251.511 423.245 249.8 425.51 249.958C427.775 250.114 429.486 252.078 429.329 254.344L420.221 386.086C420.063 388.351 418.099 390.06 415.834 389.904Z" fill="#FFB300"/>
<path d="M433.731 391.454C430.195 391.399 427.373 388.486 427.429 384.948L429.97 223.978C430.026 220.44 432.938 217.619 436.475 217.675C440.011 217.731 442.834 220.643 442.778 224.179L440.237 385.151C440.182 388.688 437.269 391.51 433.731 391.454Z" fill="#3C1FD8"/>
<path d="M455.387 503.926H410.631C404.513 503.926 399.553 498.966 399.553 492.848V367.642H466.466V492.848C466.466 498.966 461.506 503.926 455.387 503.926Z" fill="#A08AFC"/>
<path d="M466.465 377.211H399.552V367.642H466.465V377.211Z" fill="#7769E6"/>
<path d="M130.154 519.459C130.419 521.315 131.03 523.371 132.698 524.226C133.714 524.748 134.918 524.704 136.059 524.647C138.319 524.534 140.612 524.415 142.754 523.684C144.894 522.952 146.9 521.516 147.79 519.435C148.694 517.323 148.362 514.81 149.418 512.768C150.963 509.778 154.864 508.846 156.998 506.242C158.304 504.647 158.834 502.56 159.156 500.524C159.435 498.771 159.584 496.951 159.1 495.243C158.618 493.536 157.39 491.948 155.683 491.462C153.742 490.908 151.671 491.864 150.123 493.16C148.575 494.456 147.339 496.102 145.73 497.32C143.579 498.946 140.918 499.703 138.439 500.764C130.5 504.158 128.998 511.399 130.154 519.459Z" fill="#170D7D"/>
<path d="M177.697 329.024C176.737 351.144 167.67 372.943 161.323 394.571C161.15 395.184 160.963 395.798 160.803 396.411C153.51 421.917 149.87 448.464 150.043 474.984C150.07 479.304 150.203 483.637 150.71 487.931C151.417 493.996 152.883 500.171 151.51 506.118C150.137 512.064 144.683 517.691 138.683 516.597C135.723 516.064 133.123 513.877 132.097 511.064C131.577 509.651 131.43 508.144 131.297 506.651C130.43 497.251 129.563 487.864 128.683 478.464C127.443 464.943 126.19 451.344 127.337 437.811C128.443 424.677 131.79 411.837 133.55 398.771C135.35 385.544 135.51 372.144 135.67 358.798C135.67 351.624 135.83 344.438 135.923 337.251C135.977 332.33 134.03 322.744 136.71 318.504C141.283 311.317 164.523 311.851 172.39 310.61C173.47 310.438 174.67 310.291 175.577 310.904C176.55 311.556 176.83 312.851 176.99 314.024C177.723 319.037 177.91 324.037 177.697 329.024Z" fill="#5D4FF4"/>
<path d="M177.697 329.024C176.737 351.144 167.67 372.943 161.323 394.571C161.15 395.184 160.963 395.797 160.803 396.411C158.923 384.197 157.603 371.584 161.817 360.064C164.177 353.651 168.217 347.704 168.897 340.904C169.203 337.771 168.79 334.556 169.55 331.491C171.377 324.091 174.963 325.491 177.697 329.024Z" fill="#3733D3"/>
<path d="M229.301 510.958C231.629 511.108 233.911 510.364 236.219 510.034C238.528 509.703 241.14 509.888 242.796 511.531C245.443 514.155 243.976 518.963 241.023 521.238C238.721 523.01 235.828 523.783 233.017 524.516C223.691 526.95 214.363 529.382 205.036 531.816C201.756 532.671 198.165 533.506 195.079 532.103C190.895 530.204 189.371 524.596 190.921 520.271C192.472 515.946 196.345 512.835 200.472 510.816C204.785 508.704 210.007 507.526 214.809 507.286C220.093 507.022 224.197 510.626 229.301 510.958Z" fill="#33209F"/>
<path d="M171.469 346.226C173.975 351.735 177.384 356.853 179.247 362.61C181.051 368.182 181.332 374.113 181.599 379.963C181.915 386.921 182.232 393.877 182.549 400.834C184.477 443.185 184.597 476.965 194.948 519.382C195.347 521.014 196.996 522.025 198.631 521.641L210.857 518.759C213.661 518.098 215.612 515.555 215.525 512.677L214.083 465.13C213.164 434.841 212.271 404.242 218.187 374.525C219.508 367.887 221.168 361.299 221.821 354.565C222.528 347.267 222.04 339.914 221.552 332.599L219.595 303.263C219.593 303.246 219.58 303.231 219.564 303.229C214.605 302.414 209.532 303.354 204.643 304.522C194.509 306.942 177.713 310.193 169.765 317.346C162.567 323.826 167.971 338.535 171.469 346.226Z" fill="#7965FF"/>
<path d="M203.26 142.202C203.692 143.601 204.197 145.133 203.588 146.457C203.349 146.978 203.006 147.365 202.576 147.677C201.252 148.63 199.198 148.763 197.502 149.195C194.704 149.879 192.398 151.739 190.226 153.658C190.004 153.853 189.765 154.045 189.541 154.254C187.876 151.813 184.572 151.278 181.641 150.995C175.244 150.399 168.83 150.102 162.404 150.118C162.032 148.019 161.66 145.937 161.288 143.839C161.169 143.139 161.049 142.395 161.317 141.741C161.6 141.042 162.269 140.595 162.954 140.283C165.274 139.241 168.474 139.257 169.62 136.965C169.992 136.221 170.05 135.373 170.096 134.539C170.304 130.73 170.557 126.594 173.086 123.723C173.666 123.069 174.35 122.503 174.901 121.818C175.853 120.643 176.374 119.17 177.266 117.95C178.16 116.73 179.706 115.733 181.15 116.209C181.537 116.343 181.894 116.566 182.281 116.641C183.322 116.819 184.216 115.957 184.825 115.109C186.432 112.847 187.384 110.169 187.637 107.417C187.816 105.378 187.845 102.477 190.033 101.375C192.354 100.23 193.009 103.281 194.213 104.738C195.686 106.523 197.978 107.997 198.276 110.481C198.498 112.326 197.457 114.126 197.576 115.971C197.814 119.646 202.218 121.535 203.781 124.869C204.257 125.866 204.361 127.234 203.498 127.934C203.037 128.321 202.382 128.41 201.95 128.811C201.385 129.333 201.341 130.21 201.37 130.983C201.489 134.778 202.129 138.571 203.26 142.202Z" fill="#FFC0BF"/>
<path d="M192.732 91.6093C191.406 90.2226 189.17 89.952 187.968 88.456C187.495 87.8666 187.231 87.14 186.847 86.4893C185.288 83.8386 181.539 82.7613 178.81 84.1773C177.784 84.7093 176.914 85.532 175.835 85.9466C173.594 86.8106 171.127 85.736 168.738 85.4853C162.754 84.86 157.604 89.3946 153.311 93.6106C151.322 95.564 149.224 97.7226 148.822 100.481C148.51 102.612 149.251 104.925 148.318 106.867C147.47 108.632 145.403 109.663 144.834 111.536C144.4 112.96 144.954 114.479 144.971 115.967C144.996 118.264 143.75 120.368 143.272 122.616C142.674 125.44 143.364 128.512 145.115 130.807C146.451 132.559 148.37 133.887 149.312 135.877C150.324 138.015 150.1 140.707 151.603 142.535C152.244 143.316 153.139 143.847 154.056 144.271C157.363 145.8 161.211 146.036 164.716 145.067C165.375 145.027 166.032 144.96 166.679 144.844C168.678 144.488 170.778 143.72 171.871 142.009C172.455 141.095 172.712 139.969 173.464 139.188C174.132 138.495 175.115 138.16 175.746 137.433C177.066 135.912 176.275 133.584 176.452 131.577C176.606 129.835 177.542 128.224 177.626 126.476C177.762 123.617 175.676 120.464 177.319 118.12C178.062 117.064 179.491 116.555 180.74 116.879C181.99 117.203 182.984 118.324 183.187 119.599C183.338 120.539 183.091 121.495 183.1 122.445C183.111 123.397 183.503 124.475 184.403 124.783C185.62 125.197 186.816 123.871 186.928 122.589C187.042 121.309 186.496 120.072 186.29 118.804C185.668 115.011 188.072 111.361 188.244 107.521C188.311 106.033 188.102 104.348 189.099 103.243C189.48 102.82 189.999 102.543 190.395 102.135C190.807 101.708 191.043 101.14 191.111 100.553C193.46 97.8906 195.012 94.46 192.732 91.6093Z" fill="#160357"/>
<path d="M202.576 147.677C201.252 148.629 199.198 148.764 197.502 149.194C194.705 149.88 192.398 151.738 190.226 153.658C189.958 153.137 189.913 152.482 190.004 151.888C190.152 150.994 190.538 150.177 190.777 149.298C191.58 146.189 190.122 143.109 189.318 140.149C189.17 139.613 188.084 136.31 189.333 136.488C190.033 136.593 191.386 140.7 191.7 141.398C192.309 142.722 192.964 144.106 194.14 144.969C195.94 146.309 198.425 146.04 200.626 146.532C201.37 146.696 202.174 147.082 202.576 147.677Z" fill="#FFA0A0"/>
<path d="M94.6517 243.363C94.1944 244.509 93.7357 245.774 94.1211 246.945C94.3931 247.771 95.0437 248.406 95.6424 249.038C100.145 253.794 102.664 260.03 105.925 265.71C112.304 276.823 121.605 285.921 130.785 294.863C133.262 297.275 135.801 299.731 138.921 301.222C139.272 295.758 139.534 290.29 139.708 284.818C139.784 282.406 139.79 279.809 138.413 277.827C137.513 276.533 136.134 275.674 134.929 274.661C126.694 267.739 127.109 254.43 119.786 246.55C118.594 245.269 117.097 243.827 117.4 242.103C117.541 241.293 118.072 240.613 118.585 239.971C122.164 235.491 125.744 231.013 129.322 226.533C129.51 226.299 110.512 212.411 106.99 214.703C104.268 216.475 101.984 225.777 100.673 228.827C98.6024 233.646 96.5957 238.493 94.6517 243.363Z" fill="#FFA0A0"/>
<path d="M123.964 177.751C118.468 183.11 114.374 189.758 111.102 196.702C108.032 203.219 105.646 210.033 103.266 216.833C103.214 216.979 103.162 217.141 103.217 217.287C103.277 217.446 103.444 217.533 103.596 217.607C108.242 219.855 112.889 222.103 117.536 224.351C121.01 226.033 124.67 227.877 126.696 231.162C127.049 231.735 127.54 232.439 128.198 232.301C128.729 232.189 128.973 231.585 129.124 231.065C130.908 224.905 131.784 218.482 131.712 212.07C131.669 208.215 131.288 204.335 131.824 200.518C132.59 195.062 135.193 190.007 136.1 184.573C136.429 182.589 138.265 169.933 136.726 169.165C134.25 167.927 125.626 176.131 123.964 177.751Z" fill="#0028DD"/>
<path d="M268.517 217.993C263.34 219.674 257.714 218.662 252.374 217.635C248.253 216.847 244.146 216.058 240.025 215.27C238.953 215.062 237.674 214.645 237.51 213.574C237.436 213.142 237.585 212.726 237.718 212.325C239.34 207.83 241.766 203.099 240.397 198.531C239.906 196.895 238.953 195.451 237.986 194.038C232.125 185.469 225.236 177.582 217.513 170.634C210.313 164.133 204.376 156.217 195.582 151.679C195.478 149.283 198.796 148.063 201.013 149.001C203.23 149.938 204.673 152.066 206.444 153.703C207.128 154.342 208.156 154.938 208.929 154.433C209.494 154.075 209.628 153.301 209.569 152.631C209.553 152.527 209.553 152.423 209.524 152.319C209.122 149.715 206.772 147.855 204.866 145.966C202.873 144.002 201.177 140.922 202.694 138.586C202.902 138.274 203.156 137.977 203.498 137.842C203.528 137.827 203.542 137.827 203.573 137.827C205.045 137.293 205.968 139.449 207.173 140.521C209.122 142.231 212.113 140.878 214.701 140.833C217.722 140.803 220.474 142.722 222.364 145.089C224.253 147.454 225.489 150.251 227.066 152.839C231.35 159.922 237.972 165.234 244.593 170.203C252.3 175.975 260.334 181.601 266.212 189.233C267.356 190.721 268.413 192.269 269.469 193.83C271.046 196.137 272.609 198.427 274.17 200.734C275.228 202.281 276.298 203.874 276.76 205.687C278.113 210.97 273.694 216.311 268.517 217.993Z" fill="#FFC0BF"/>
<path d="M209.643 151.754C209.628 151.947 209.613 152.155 209.524 152.319C209.121 149.715 206.772 147.855 204.867 145.966C202.873 144.002 201.177 140.922 202.695 138.587C202.903 138.274 203.156 137.977 203.499 137.842C203.528 137.827 203.543 137.827 203.572 137.827C204.227 137.827 204.837 138.081 205.268 138.602C206.623 140.209 205.417 142.767 206.251 144.702C206.652 145.625 207.485 146.279 208.125 147.053C209.197 148.362 209.747 150.073 209.643 151.754Z" fill="#FFA0A0"/>
<path d="M216.268 166.596C217.668 166.652 219.064 166.414 220.464 166.394C224.67 166.332 228.692 168.228 232.07 170.733C235.447 173.237 238.315 176.353 241.414 179.196C247.308 184.602 254.086 189.044 261.396 192.29C263.36 193.162 265.363 193.949 267.388 194.669C263.66 193.75 259.9 192.825 256.063 192.686C254.844 192.642 253.62 192.678 252.408 192.538C250.044 192.266 247.807 191.34 245.659 190.313C240.095 187.653 234.884 184.25 230.211 180.224C228.172 178.468 226.23 176.589 224.018 175.057C220.858 172.868 217.255 171.437 214.028 169.358C213.227 168.842 210.002 167.124 210.802 165.868C211.363 164.986 215.188 166.552 216.268 166.596Z" fill="#FFA0A0"/>
<path d="M226.139 311.094C223.549 315.186 216.973 313.773 213.105 316.674C211.661 317.745 210.695 319.366 209.251 320.408C207.228 321.881 204.595 322.061 202.244 322.878C197.527 324.501 194.045 328.592 189.433 330.497C185.744 332.013 181.607 332 177.605 331.969C169.897 331.909 162.191 331.836 154.484 331.776C148.056 331.717 140.721 331.24 136.763 326.166C132.001 320.052 135.008 311.406 136.02 303.67C136.049 303.461 136.064 303.269 136.093 303.074C137.016 295.129 135.245 287.14 134.487 279.18C133.967 273.853 133.921 268.482 133.281 263.156C132.284 254.958 129.919 247.028 127.389 239.142C126.541 236.494 125.664 233.845 124.831 231.197C121.499 220.677 118.583 209.802 119.117 198.777C119.639 187.752 124.101 176.429 133.044 169.942C137.001 167.07 141.792 165.122 146.241 162.905C151.121 160.465 155.6 157.682 158.173 152.966C158.739 151.909 159.215 150.778 160.019 149.901C162.145 147.594 165.152 147.714 168.008 147.982C168.588 148.026 169.184 148.086 169.749 148.13C174.376 148.488 178.944 149.172 183.437 150.377C185.327 150.898 187.291 151.522 188.675 152.906C189.82 154.037 190.489 155.554 191.487 156.82C196.099 162.697 205.204 160.852 212.391 163.098C212.941 163.261 213.492 163.456 214.012 163.678C214.236 163.782 214.459 163.872 214.683 163.99C215.336 164.333 215.947 164.78 216.348 165.389C216.944 166.326 216.973 167.517 216.944 168.633C216.869 170.925 216.645 173.261 216.348 175.596V175.612C216.319 175.909 216.275 176.192 216.244 176.489C215.069 185.654 213.253 194.893 217.464 202.853C218.952 205.636 221.124 208.105 221.928 211.156C222.448 213.134 222.36 215.202 222.255 217.241C221.779 227.581 221.303 237.922 220.797 248.248C220.737 249.781 220.664 251.298 220.588 252.83C220.321 258.648 220.053 264.481 220.529 270.284C220.619 271.4 220.737 272.5 220.887 273.616C221.377 277.529 222.167 281.412 222.924 285.281C224.129 291.396 225.349 297.51 226.569 303.64C227.061 306.14 227.507 308.937 226.139 311.094Z" fill="#2A41FF"/>
<path d="M123.437 182.326C123.187 182.326 122.941 182.2 122.801 181.97C122.588 181.62 122.699 181.161 123.048 180.948C123.508 180.666 123.975 180.4 124.443 180.142C132.88 175.486 141.371 173.061 150.399 172.729L150.496 172.725L150.592 172.746C153.88 173.493 157.375 172.632 160.753 171.797L161.727 171.557C169.123 169.756 175.632 169.056 181.632 169.417C186.951 169.736 192.217 170.921 197.311 172.066C202.235 173.174 207.327 174.32 212.407 174.66C212.816 174.688 213.127 175.042 213.099 175.453C213.071 175.864 212.733 176.166 212.305 176.145C207.112 175.797 201.963 174.638 196.984 173.518C191.948 172.385 186.741 171.214 181.544 170.902C175.695 170.553 169.328 171.237 162.077 173.002L161.111 173.241C157.596 174.112 153.961 175.01 150.357 174.218C141.604 174.557 133.36 176.921 125.16 181.446C124.712 181.693 124.265 181.949 123.825 182.217C123.704 182.292 123.569 182.326 123.437 182.326Z" fill="#0028DD"/>
<path d="M180.302 156.381C174.961 156.576 169.619 156.769 164.278 156.962C163.043 157.006 161.807 157.05 160.663 157.468C158.654 158.182 157.211 159.893 155.902 161.574C155.246 162.422 154.489 163.345 153.431 163.522C152.629 163.657 151.825 163.314 151.037 163.106C149.771 162.749 148.433 162.689 147.138 162.928C146.87 162.988 146.573 163.048 146.305 162.942C146.29 162.928 146.261 162.928 146.246 162.898C151.126 160.458 155.605 157.676 158.178 152.96C158.743 151.904 159.219 150.772 160.023 149.894C162.15 147.588 165.155 147.708 168.013 147.974C167.834 149.776 166.971 151.561 168.073 153.421C169.173 155.31 171.613 155.92 173.801 155.965C175.987 156.009 178.234 155.666 180.302 156.381Z" fill="#0028DD"/>
<path d="M220.588 252.831C220.32 258.648 220.054 264.48 220.53 270.283C220.618 271.399 220.738 272.499 220.886 273.615C220.856 273.705 220.827 273.795 220.782 273.884C217.94 273.168 215.931 270.565 214.935 267.813C213.938 265.076 213.715 262.1 213.119 259.243C212.703 257.249 212.078 255.3 211.839 253.276C211.528 250.807 211.766 248.307 211.899 245.823C212.078 242.475 212.048 239.112 211.839 235.765C211.811 235.275 211.766 234.753 211.468 234.365C210.903 233.577 209.683 233.652 208.804 234.099C207.942 234.529 207.227 235.259 206.306 235.572C205.65 232.611 208.804 230.185 209.326 227.209C209.519 226.049 209.311 224.859 209.102 223.699C208.328 219.472 207.54 215.188 205.532 211.393C203.463 207.496 200.22 204.371 197.035 201.321C200.1 201.812 203.166 202.317 206.231 202.808C206.915 202.913 207.763 202.972 208.15 202.392C208.388 202.035 208.343 201.588 208.314 201.172C207.972 197.855 207.466 194.521 207.391 191.173C207.287 185.744 208.343 180.357 209.386 175.016C209.742 173.231 209.831 169.153 212.316 169.153C215.098 169.153 215.336 172.948 215.827 174.867C215.962 175.403 216.11 175.953 216.244 176.489C215.068 185.655 213.254 194.893 217.464 202.853C218.951 205.636 221.124 208.105 221.927 211.156C222.448 213.135 222.359 215.203 222.255 217.241C221.779 227.581 221.303 237.921 220.796 248.248C220.738 249.78 220.663 251.299 220.588 252.831Z" fill="#0028DD"/>
<path d="M225.378 170.87C229.037 173.744 232.704 176.625 236.017 179.893C237.126 180.986 238.213 182.138 239.566 182.912C240.41 183.394 241.336 183.716 242.242 184.068C246.709 185.801 250.825 188.31 254.914 190.808C255.202 190.982 255.506 191.176 255.644 191.484C255.824 191.886 255.665 192.353 255.501 192.764C252.321 200.69 247.006 207.749 240.268 212.997C238.158 214.64 235.514 216.177 232.95 215.422C230.301 214.642 228.669 211.634 225.948 211.161C224.96 210.989 223.945 211.184 222.944 211.137C221.1 211.052 219.378 210.148 217.942 208.988C211.977 204.161 210.756 195.561 211.164 187.898C211.361 184.204 211.829 180.528 212.018 176.833C212.182 173.653 211.256 169.91 211.946 166.829C213.385 160.408 222.834 168.872 225.378 170.87Z" fill="#2A41FF"/>
<path d="M143.057 291.708C143.518 294.416 142.759 297.182 142.015 299.832C141.911 300.234 141.793 300.634 141.539 300.948C141.226 301.32 140.735 301.513 140.275 301.706C138.817 302.288 137.403 302.957 136.019 303.67C136.049 303.461 136.063 303.269 136.094 303.074C137.017 295.129 135.246 287.14 134.487 279.18C133.966 273.853 133.921 268.482 133.282 263.156C132.285 254.958 129.919 247.028 127.39 239.142C127.762 239.842 128.089 240.512 128.387 240.986C130.545 244.528 133.163 247.817 136.123 250.717C138.191 252.726 140.438 254.586 142.09 256.937C145.422 261.742 146.137 268.468 150.838 271.934C145.289 271.816 142.238 265.209 137.135 262.977C139.278 265.641 140.617 268.913 140.945 272.306C141.39 276.8 140.111 281.412 141.226 285.786C141.733 287.794 142.73 289.67 143.057 291.708Z" fill="#0028DD"/>
<path d="M535.424 491.285C535.18 493.534 536.022 495.803 537.352 497.635C538.604 499.361 540.292 500.765 542.216 501.685C544.888 502.961 548.077 503.367 550.194 505.437C552.661 507.85 553.056 511.979 555.864 513.983C557.61 515.231 559.896 515.353 562.041 515.381C564.858 515.419 567.953 515.271 570.044 513.379C572.573 511.086 572.63 507.199 572.501 503.785C572.412 501.466 572.258 498.967 570.789 497.169C570.098 496.323 569.17 495.71 568.245 495.13C562.806 491.719 537.009 476.641 535.424 491.285Z" fill="#514579"/>
<path d="M555.57 364.134C554.995 368.778 554.164 373.403 554.026 378.08C553.53 394.722 561.69 410.228 565.888 426.339C568.303 435.6 569.414 445.144 570.342 454.667C571.762 469.25 572.766 483.9 572.34 498.547C572.31 499.651 572.252 500.812 571.667 501.75C571.07 502.708 570.014 503.275 568.967 503.698C559.751 507.404 547.938 501.266 545.679 491.592C544.124 484.94 546.586 478.092 547.216 471.291C547.79 465.131 546.847 458.939 545.819 452.836C542.69 434.264 538.716 415.744 532.031 398.136C530.32 393.635 528.426 389.176 525.851 385.107C524.824 383.488 523.679 381.9 523.12 380.066C522.542 378.162 522.635 376.127 522.735 374.14C523.414 360.616 524.092 347.095 524.77 333.571C524.948 330.012 525.256 326.135 527.683 323.526C530.49 320.507 535.144 320.247 539.252 320.603C542.631 320.895 548.447 319.834 551.552 321.152C555.235 322.716 554.962 328.248 555.418 331.69C556.843 342.439 556.9 353.371 555.57 364.134Z" fill="#FFB300"/>
<path d="M537.462 402.994C536.911 405.523 536.524 408.082 536.316 410.671C535.036 406.49 533.638 402.355 532.075 398.262C530.364 393.754 528.475 389.291 525.9 385.23C524.875 383.607 523.728 382.015 523.163 380.186C522.583 378.281 522.687 376.243 522.775 374.263C523.208 365.679 523.639 357.109 524.071 348.523C534.084 342.633 533.43 363.73 532.596 370.113C532.104 373.862 531.258 377.775 532.522 381.331C533.816 384.931 537.103 387.579 538.294 391.225C539.544 395.019 538.31 399.111 537.462 402.994Z" fill="#FFB300"/>
<path d="M462.229 508.006C459.086 508.229 455.333 508.862 454.093 511.758C452.707 514.999 455.551 518.421 458.313 520.609C463.455 524.685 469.517 528.087 476.075 528.249C480.649 528.362 485.307 526.897 489.741 528.03C495.069 529.391 500.07 534.385 505.197 532.391C507.97 531.311 509.653 528.354 510.059 525.406C510.466 522.457 509.821 519.475 509.179 516.569C508.998 515.753 508.802 514.901 508.267 514.258C507.705 513.583 506.854 513.235 506.037 512.913C499.885 510.477 492.545 505.974 485.809 505.811C478.21 505.631 469.867 507.419 462.229 508.006Z" fill="#5D5491"/>
<path d="M487.788 430.439C488.982 457.871 484.822 485.411 487.252 512.762C492.846 514.598 498.678 515.707 504.556 516.054C505.988 516.137 507.646 516.082 508.551 514.969C509.298 514.053 509.254 512.755 509.31 511.575C509.507 507.407 511.396 503.539 512.779 499.602C516.6 488.731 516.64 476.93 516.204 465.415C515.275 440.93 512.406 416.194 516.754 392.079C517.654 387.081 518.871 382.114 520.856 377.438C522.77 372.929 525.372 368.751 527.59 364.383C531.362 356.947 534.008 348.941 535.415 340.722C535.723 338.917 535.964 337.017 535.352 335.291C534.538 332.995 532.392 331.474 530.324 330.187C520.411 324.01 509.474 319.645 498.376 315.993C495.454 315.03 492.359 314.105 489.342 314.718C482.567 316.093 481.963 324.563 481.247 329.993C480.182 338.07 479.947 346.235 480.212 354.37C480.746 370.755 483.284 386.982 485.296 403.229C486.415 412.269 487.394 421.335 487.788 430.439Z" fill="#FFB300"/>
<path d="M539.734 163.869C531.67 162.694 523.218 164.48 516.27 168.734C515.243 169.344 514.247 170.029 513.294 170.758C512.967 171.01 512.61 171.278 512.207 171.249C511.851 171.22 511.554 170.981 511.316 170.713C509.663 168.942 509.262 166.041 507.12 164.94C506.57 164.657 505.959 164.524 505.334 164.434C504.099 164.241 502.819 164.197 501.882 163.422C500.618 162.366 500.574 160.477 500.618 158.825C500.782 154.286 500.944 149.734 501.095 145.197C501.139 144.258 501.152 143.308 500.871 142.429C500.722 141.982 500.514 141.566 500.47 141.105C500.379 139.796 501.719 138.918 502.596 137.936C504.575 135.749 504.382 132.461 504.442 129.514C504.516 125.185 508.519 117.373 513.323 122.834C514.484 124.158 515.243 125.84 516.612 126.941C517.743 127.848 519.186 128.28 520.331 129.157C522.266 130.63 523.054 133.145 523.724 135.481C525.836 143.054 528.068 151.282 534.318 156.042C535.687 157.085 537.219 157.918 538.379 159.168C539.555 160.417 540.328 162.248 539.734 163.869Z" fill="#FFC0BF"/>
<path d="M517.219 108.8C518.394 108.624 519.597 108.608 520.747 108.305C522.303 107.893 523.678 106.975 525.187 106.411C528.23 105.271 531.622 105.628 534.799 106.308C536.753 106.727 538.757 107.3 540.257 108.62C542.014 110.168 542.854 112.545 544.581 114.127C546.087 115.509 548.138 116.16 549.717 117.463C552.347 119.636 553.262 123.281 553.378 126.692C553.494 130.104 552.969 133.537 553.407 136.921C553.731 139.432 554.573 142.031 553.743 144.421C552.573 147.797 548.587 149.343 546.754 152.408C545.145 155.099 545.058 159.053 542.222 160.389C540.937 160.995 539.438 160.833 538.027 160.66C536.57 160.479 535.113 160.299 533.654 160.119C532.242 159.943 530.805 159.761 529.505 159.183C526.842 157.997 525.134 155.305 524.221 152.539C523.307 149.771 523.039 146.835 522.351 144.003C521.699 141.32 520.669 138.728 519.298 136.331C518.802 135.465 518.182 134.56 517.223 134.279C515.974 133.913 514.637 134.819 514.065 135.988C513.493 137.157 513.497 138.513 513.511 139.815C512.498 140.664 510.841 139.8 510.345 138.575C509.85 137.349 510.101 135.969 510.171 134.649C510.483 128.713 505.318 125.189 506.529 119.329C507.597 114.164 511.921 109.597 517.219 108.8Z" fill="#160558"/>
<path d="M505.567 178.992C499.955 181.128 492.13 191.925 491.63 192.012C491.095 192.105 489.838 191.492 489.36 191.236C487.576 190.276 486.354 188.552 485.196 186.889L462.626 154.44C457.754 152.521 453.435 148.38 450.971 143.759C449.927 141.8 449.019 139.52 447.02 138.555C446.364 138.237 445.619 138.083 445.048 137.628C444.323 137.049 444.023 136.103 443.759 135.213C442.948 132.48 442.166 129.413 443.487 126.888C444.807 124.371 447.758 123.267 450.454 122.371C452.174 121.799 454.011 121.221 455.768 121.669C457.208 122.036 458.391 123.047 459.434 124.105C462.807 127.529 465.311 131.801 466.651 136.417C467.34 138.796 467.738 141.291 468.875 143.491C470.05 145.761 471.938 147.569 473.791 149.331C480.571 155.78 487.37 162.244 494.834 167.887C499.172 171.167 503.014 174.191 505.567 178.992Z" fill="#FFA0A0"/>
<path d="M551.085 257.633C548.869 270.147 548.795 283.031 550.073 295.841C550.447 299.711 550.952 303.579 551.561 307.432C552.335 312.46 553.288 317.444 554.359 322.384C554.761 324.273 555.104 326.505 553.749 327.875C553.168 328.485 552.351 328.797 551.561 329.095C548.571 330.211 545.552 331.268 542.516 332.264C533.812 335.12 524.603 337.5 515.556 336.044C510.825 335.299 506.272 333.499 502.315 330.821C501.377 330.196 500.484 329.511 499.561 328.857C498.029 327.741 496.481 326.669 494.725 325.955C491.647 324.705 488.075 324.631 485.352 322.727C482.481 320.733 481.349 317.4 481.008 313.8C480.784 311.568 480.859 309.247 480.993 307.075C482.213 287.464 482.645 267.811 481.9 248.185C481.557 238.708 480.933 229.185 481.856 219.737C482.779 210.291 485.368 200.797 490.857 193.06C493.447 189.431 496.615 186.247 499.771 183.092C501.287 181.575 502.805 180.057 504.323 178.539C506.063 176.799 507.804 175.057 509.545 173.317C512.029 170.832 514.529 168.318 517.491 166.459C517.504 166.443 517.535 166.428 517.551 166.413C522.876 163.021 529.319 161.935 535.553 162.07C540.151 162.159 539.049 162.217 539.808 165.58C540.641 169.196 541.905 172.231 544.137 175.222C546.741 178.718 549.925 181.753 552.469 185.279C557.692 192.525 559.939 201.512 560.668 210.409C561.04 215.111 561.024 219.872 560.251 224.514C559.091 231.492 556.279 238.054 554.18 244.808C553.051 248.439 552.157 252.099 551.444 255.803C551.309 256.413 551.189 257.023 551.085 257.633Z" fill="#80B7FF"/>
<path d="M516.27 168.734C515.242 169.345 514.246 170.029 513.294 170.758C512.966 171.012 512.61 171.278 512.207 171.249C511.851 171.22 511.554 170.981 511.315 170.713C509.663 168.942 509.262 166.041 507.121 164.94C506.57 164.657 505.959 164.524 505.334 164.434C505.394 164.374 505.454 164.316 505.527 164.27C507.998 162.441 510.467 161.057 512.714 158.885C513.294 158.334 513.874 157.769 514.291 157.069C515.302 155.314 515.021 153.068 515.838 151.208C516.465 153.692 516.405 156.341 515.659 158.796C515.138 160.521 514.277 162.262 514.543 164.062C514.782 165.684 515.958 167.172 516.27 168.734Z" fill="#FFA0A0"/>
<path d="M534.511 171.561C528.112 171.368 521.671 172.573 515.763 175.059C514.41 175.623 513.071 176.263 511.628 176.576C510.259 176.859 508.83 176.828 507.522 177.26C506.778 177.513 506.094 177.9 505.408 178.301C504.963 178.555 504.604 178.628 504.322 178.539C506.063 176.799 507.804 175.059 509.544 173.317C512.03 170.832 514.53 168.317 517.49 166.459C517.803 166.949 518.07 167.471 518.382 167.931C519.275 169.225 520.808 169.955 522.355 170.283C523.887 170.595 525.48 170.564 527.056 170.609C529.571 170.699 532.071 171.011 534.511 171.561Z" fill="#6197E1"/>
<path d="M551.085 257.633C548.869 270.147 548.795 283.031 550.073 295.841C546.621 305.751 543.512 315.764 542.545 326.179C542.308 320.004 542.545 313.815 543.647 307.744C544.524 302.864 545.983 298.073 546.473 293.149C546.756 290.396 546.725 287.628 546.712 284.861C546.696 282.733 546.681 280.605 546.668 278.493C544.019 284.936 539.093 290.143 534.259 295.172C530.256 299.352 526.239 303.533 522.221 307.715C527.577 301.704 532.993 295.573 536.504 288.328C538.007 285.204 539.139 281.915 540.269 278.641C541.415 275.339 542.545 272.036 543.691 268.732C544.376 266.753 545.06 264.76 546.101 262.945C547.501 260.535 549.479 258.525 551.115 256.264C551.22 256.116 551.339 255.967 551.444 255.803C551.309 256.413 551.189 257.023 551.085 257.633Z" fill="#6197E1"/>
<path d="M533.946 250.387C530.255 251.489 526.582 252.59 522.906 253.691C519.99 254.554 516.895 255.55 514.99 257.901C512.922 260.461 512.714 263.971 512.283 267.215C511.538 272.809 509.887 278.27 507.387 283.329C504.947 288.283 501.719 292.851 499.741 297.999C495.961 307.805 497.091 318.457 499.562 328.858C498.03 327.742 496.481 326.67 494.726 325.955C491.646 324.705 488.075 324.631 485.353 322.727C482.481 320.734 481.35 317.401 481.009 313.801C481.693 309.619 483.819 305.557 485.933 301.807C492.955 289.339 500.454 276.946 504.473 263.213C505.855 258.482 506.822 253.617 508.415 248.93C512.475 237.011 520.689 226.002 520.391 213.415C520.213 205.841 516.775 199.815 512.015 194.206C522.727 200.009 528.038 215.334 526.402 226.879C525.674 232.057 523.753 237.19 524.529 242.354C524.81 244.287 525.674 246.386 527.503 247.114C528.783 247.635 530.255 247.337 531.625 247.575C533.009 247.814 534.451 249.093 533.946 250.387Z" fill="#6197E1"/>
<path d="M477.425 269.801C473.549 283.249 472.96 297.393 472.397 311.379C472.273 314.472 472.149 317.589 472.621 320.649C473.224 324.543 474.77 328.224 475.641 332.065C476.482 335.779 476.702 339.68 478.261 343.155C479.818 346.628 483.262 349.681 487.037 349.188L484.068 320.716C483.929 319.38 483.79 318.021 484.025 316.699C484.321 315.035 485.185 313.537 486.016 312.065C496.672 293.211 504.142 272.561 508.018 251.255C508.188 250.319 508.313 249.235 507.678 248.527C507.206 248 506.453 247.853 505.757 247.735C500.938 246.917 488.121 242.243 484.856 246.421C482.904 248.917 482.428 254.905 481.358 258.02C480.025 261.904 478.924 265.988 477.425 269.801Z" fill="#FFC0BF"/>
<path d="M440.252 166.458H246.007C235.493 166.458 226.969 157.934 226.969 147.42V56.213C226.969 45.6997 235.493 37.1757 246.007 37.1757H440.252C450.767 37.1757 459.291 45.6997 459.291 56.213V147.42C459.291 157.934 450.767 166.458 440.252 166.458Z" fill="#DEDEFF"/>
<path d="M454.708 133.665C453.69 132.467 452.752 131.203 451.898 129.885C451.321 128.991 450.769 128.026 450.712 126.965C450.654 125.903 451.249 124.734 452.282 124.481C453.398 124.207 454.47 125.054 455.189 125.949C456.881 128.054 457.836 130.789 459.968 132.445C460.881 133.154 462.029 133.693 462.504 134.746C462.989 135.826 462.593 137.102 461.997 138.125C461.706 138.622 460.87 140.162 460.228 140.242C459.365 140.347 459.052 139.065 458.649 138.442C457.524 136.705 456.042 135.235 454.708 133.665Z" fill="#FFC0BF"/>
<path d="M280.712 144.019V130.686C297.012 130.686 310.273 117.424 310.273 101.124H323.606C323.606 124.776 304.365 144.019 280.712 144.019Z" fill="#FDF5FF"/>
<path d="M280.712 144.019C257.06 144.019 237.817 124.776 237.817 101.124C237.817 92.5282 240.35 84.2335 245.146 77.1362L256.194 84.6002C252.894 89.4855 251.15 95.1989 251.15 101.124C251.15 117.424 264.412 130.686 280.712 130.686V144.019Z" fill="#293FFF"/>
<path d="M323.607 101.124H310.274C310.274 84.8224 297.012 71.5611 280.712 71.5611C270.876 71.5611 261.711 76.4357 256.195 84.5984L245.146 77.1357C253.144 65.2971 266.44 58.2277 280.712 58.2277C304.364 58.2277 323.607 77.4717 323.607 101.124Z" fill="#FFB300"/>
<path d="M356.067 77.8314C356.067 74.5074 353.372 71.8127 350.047 71.8127C346.723 71.8127 344.028 74.5074 344.028 77.8314C344.028 81.1554 346.723 83.85 350.047 83.85C353.372 83.85 356.067 81.1554 356.067 77.8314Z" fill="#FFB300"/>
<path d="M356.067 103.492C356.067 100.168 353.372 97.4729 350.047 97.4729C346.723 97.4729 344.028 100.168 344.028 103.492C344.028 106.816 346.723 109.51 350.047 109.51C353.372 109.51 356.067 106.816 356.067 103.492Z" fill="#FDF5FF"/>
<path d="M356.067 129.152C356.067 125.828 353.372 123.133 350.047 123.133C346.723 123.133 344.028 125.828 344.028 129.152C344.028 132.476 346.723 135.17 350.047 135.17C353.372 135.17 356.067 132.476 356.067 129.152Z" fill="#293FFF"/>
<path d="M445.434 77.0032H372.74C371.076 77.0032 369.73 75.6552 369.73 73.9939C369.73 72.3326 371.076 70.9846 372.74 70.9846H445.434C447.096 70.9846 448.444 72.3326 448.444 73.9939C448.444 75.6552 447.096 77.0032 445.434 77.0032Z" fill="#FDF5FF"/>
<path d="M445.434 91.7519H372.74C371.076 91.7519 369.73 90.4052 369.73 88.7426C369.73 87.0812 371.076 85.7332 372.74 85.7332H445.434C447.096 85.7332 448.444 87.0812 448.444 88.7426C448.444 90.4052 447.096 91.7519 445.434 91.7519Z" fill="#A08AFC"/>
<path d="M445.434 106.501H372.74C371.076 106.501 369.73 105.154 369.73 103.491C369.73 101.83 371.076 100.482 372.74 100.482H445.434C447.096 100.482 448.444 101.83 448.444 103.491C448.444 105.154 447.096 106.501 445.434 106.501Z" fill="#FFB300"/>
<path d="M445.434 121.249H372.74C371.076 121.249 369.73 119.903 369.73 118.24C369.73 116.579 371.076 115.231 372.74 115.231H445.434C447.096 115.231 448.444 116.579 448.444 118.24C448.444 119.903 447.096 121.249 445.434 121.249Z" fill="#A08AFC"/>
<path d="M445.434 135.999H372.74C371.076 135.999 369.73 134.651 369.73 132.989C369.73 131.327 371.076 129.98 372.74 129.98H445.434C447.096 129.98 448.444 131.327 448.444 132.989C448.444 134.651 447.096 135.999 445.434 135.999Z" fill="#FFB300"/>
<path d="M445.894 151.208H346.579C345.171 151.208 344.029 150.066 344.029 148.657C344.029 147.249 345.171 146.108 346.579 146.108H445.894C447.302 146.108 448.443 147.249 448.443 148.657C448.443 150.066 447.302 151.208 445.894 151.208Z" fill="#293FFF"/>
<path d="M445.894 62.2546H346.579C345.171 62.2546 344.029 61.1132 344.029 59.7039C344.029 58.2959 345.171 57.1546 346.579 57.1546H445.894C447.302 57.1546 448.443 58.2959 448.443 59.7039C448.443 61.1132 447.302 62.2546 445.894 62.2546Z" fill="#A08AFC"/>
<path d="M297.119 101.124C297.119 92.0624 289.774 84.7157 280.711 84.7157C271.65 84.7157 264.304 92.0624 264.304 101.124C264.304 110.185 271.65 117.532 280.711 117.532C289.774 117.532 297.119 110.185 297.119 101.124Z" fill="#B7BCFB"/>
</svg>
