<svg width="692" height="533" fill="none" xmlns="http://www.w3.org/2000/svg"><path d="M686.778 531.973h-667.5v-3.915h667.5v3.915z" fill="#2D10A0"/><path d="M115.729 437.236c-47.025 3.479-98.524-22.457-112.01-67.64-7.784-26.081-2.311-54.348 6.872-79.969 10.287-28.708 26.356-57.003 52.513-72.677 29.893-17.912 68.299-16.695 98.224-34.552 42.627-25.438 55.459-80.442 85.659-119.838 21.978-28.669 54.209-49.305 89.444-57.27C381.305-4.851 433.7 8.356 459.8 46.243c16.592 24.084 20.764 54.252 26.668 82.896 10.039 48.69 30.832 101.282 76.273 121.446 19.352 8.587 41.138 10.183 60.86 17.879 42.591 16.617 71.18 65.656 60.65 110.144-10.53 44.489-62.043 75.883-105.352 61.236-23.336-7.893-41.312-26.263-61.607-40.231-47.051-32.381-109.799-40.68-163.649-21.642-23.635 8.354-45.242 21.477-67.866 32.27a370.932 370.932 0 01-92.56 30.002c-13.361 2.456-20.562-3.518-32.584-5.964-14.426-2.935-30.454 1.889-44.904 2.958z" fill="#EEEDFF"/><path d="M572.776 99.51c12.292 4.653 23.75 10.745 33.645 18.596 54.397 43.17 19.329 130.306-41.619 146.83-24.021 6.512-50.184-1.776-74.217 4.694-34.233 9.213-53.725 44.529-82.125 65.749-20.668 15.441-46.826 23.373-72.59 22.011-32.812-1.735-66.262-20.978-76.852-52.082-6.73-19.772-3.746-41.318-2.248-62.152 2.548-35.413-1.542-75.596-28.864-98.272-11.634-9.656-26.298-14.98-38.362-24.096-26.05-19.684-36.187-58.937-20.318-87.473 15.87-28.535 57.367-40.12 84.292-21.65 14.51 9.953 23.3 26.066 34.54 39.603 26.058 31.386 67.578 49.264 108.284 46.627 29.547-1.915 58.096-10.995 87.792-11.588 28.035-.561 60.515 2.556 88.642 13.203z" stroke="#A08AFC" stroke-width="4" stroke-linecap="round" stroke-linejoin="round"/><path d="M188.234 165.599H97.888c-10.515 0-19.039-8.524-19.039-19.039V56.214c0-10.515 8.524-19.04 19.039-19.04h90.346c10.515 0 19.039 8.525 19.039 19.04v90.346c0 10.515-8.524 19.039-19.039 19.039z" fill="#DEDEFF"/><path d="M107.482 123.268V72.425c0-7.55 7.946-12.461 14.7-9.085l50.843 25.42c7.485 3.745 7.485 14.428 0 18.172l-50.843 25.421c-6.754 3.377-14.7-1.535-14.7-9.085z" fill="#9A84FF"/><path d="M589.498 165.599h-90.347c-10.514 0-19.038-8.524-19.038-19.039V56.214c0-10.515 8.524-19.04 19.038-19.04h90.347c10.515 0 19.039 8.525 19.039 19.04v90.346c0 10.515-8.524 19.039-19.039 19.039z" fill="#DEDEFF"/><path d="M501.183 135.988a8.313 8.313 0 01-8.313-8.314v-35.51a8.314 8.314 0 1116.628 0v35.51a8.314 8.314 0 01-8.315 8.314z" fill="#FFB300"/><path d="M529.945 135.988a8.314 8.314 0 01-8.315-8.314V73.21a8.315 8.315 0 0116.628 0v54.464a8.314 8.314 0 01-8.313 8.314z" fill="#A08AFC"/><path d="M558.705 135.988a8.314 8.314 0 01-8.315-8.314v-24.655a8.315 8.315 0 0116.63 0v24.655a8.314 8.314 0 01-8.315 8.314z" fill="#FDF5FF"/><path d="M587.465 135.988a8.314 8.314 0 01-8.313-8.314V68.019a8.315 8.315 0 1116.628 0v59.655a8.314 8.314 0 01-8.315 8.314z" fill="#293FFF"/><path d="M452.607 297.339H235.718a7.675 7.675 0 01-7.675-7.674v-7.163a7.675 7.675 0 017.675-7.676h216.889a7.675 7.675 0 017.675 7.676v7.163a7.675 7.675 0 01-7.675 7.674z" fill="#DEDEFF"/><path d="M263.447 289.723h-21.766a3.64 3.64 0 110-7.281h21.766a3.64 3.64 0 010 7.281z" fill="#A08AFC"/><path d="M309.247 289.723H287.48a3.64 3.64 0 110-7.281h21.767a3.641 3.641 0 010 7.281z" fill="#E66EFF"/><path d="M355.046 289.723H333.28a3.64 3.64 0 110-7.281h21.766a3.64 3.64 0 010 7.281z" fill="#FDF5FF"/><path d="M400.846 289.723h-21.767a3.64 3.64 0 110-7.281h21.767a3.641 3.641 0 010 7.281z" fill="#293FFF"/><path d="M446.645 289.723h-21.767a3.641 3.641 0 010-7.281h21.767a3.64 3.64 0 010 7.281z" fill="#A08AFC"/><path d="M440.21 258.008H246.049c-10.515 0-19.039-8.524-19.039-19.038v-34.903c0-10.515 8.524-19.039 19.039-19.039H440.21c10.516 0 19.039 8.524 19.039 19.039v34.903c0 10.514-8.523 19.038-19.039 19.038z" fill="#DEDEFF"/><path d="M281.262 243.533h-27.051a8.489 8.489 0 01-8.489-8.489v-27.051c0-4.688 3.8-8.489 8.489-8.489h27.051a8.489 8.489 0 018.489 8.489v27.051c0 4.688-3.8 8.489-8.489 8.489z" fill="#FFB300"/><path d="M356.656 243.533h-27.052a8.49 8.49 0 01-8.49-8.489v-27.051a8.49 8.49 0 018.49-8.489h27.052a8.489 8.489 0 018.489 8.489v27.051c0 4.688-3.8 8.489-8.489 8.489z" fill="#293FFF"/><path d="M432.049 243.533h-27.051a8.489 8.489 0 01-8.489-8.489v-27.051c0-4.688 3.8-8.489 8.489-8.489h27.051a8.489 8.489 0 018.489 8.489v27.051c0 4.688-3.8 8.489-8.489 8.489z" fill="#A08AFC"/><path d="M308.973 221.519a3.973 3.973 0 10-7.945 0 3.973 3.973 0 007.945 0zm74.987 0a3.972 3.972 0 10-7.945 0 3.972 3.972 0 003.973 3.972 3.97 3.97 0 003.972-3.972z" fill="#FDF5FF"/><path d="M3.35 303.33c9.59 6.344 11.802 19.347 18.618 28.607 3.98 5.409 9.486 9.453 14.52 13.896 9.896 8.733 18.118 19.166 26.28 29.537l31.448 39.957c29.008-37.525 64.128-70.249 90.61-109.6-2.523 22.45-22.932 38.248-32.551 58.688-3.645 7.75-5.792 16.303-10.837 23.222-10.018 13.738-28.255 17.665-39.051 30.521-5.885 7.009-8.773 16.296-19.36 8.648-5.007-3.616-7.823-11.315-11.87-16.028-28.55-33.255-53.093-65.443-67.807-107.448z" fill="#2D10A0"/><path d="M65.039 339.21c5.301 8.628 12.156 16.37 16.144 25.678 5.316 12.404 5.141 26.672 10.796 38.924 8.904-5.726 7.896-18.764 11.463-28.731 4.406-12.316 16.209-20.12 24.837-29.953 6.023-6.864 10.583-14.874 14.797-22.974 14.431-27.732 25.512-58.5 22.862-89.649-8.343 36.196-25.406 70.352-49.34 98.76-3.518 4.176-7.218 8.281-9.74 13.123-2.442 4.685-3.687 9.885-4.912 15.022-3.01 12.631-6.019 25.26-9.03 37.888l-4.189-37.949c-.541-4.897-1.21-10.109-4.38-13.885-1.897-2.262-4.527-3.783-6.624-5.863-5.775-5.725-6.675-14.555-8.101-22.561-5.362-30.06-22.491-57.335-25.732-87.696 3.856 36.117 1.19 77.388 21.149 109.866z" fill="#2D10A0"/><path d="M85.282 300.796c3.78 12.684 8.2 25.166 12.619 37.639 9.176-19.035 18.353-38.071 27.528-57.108 3.472-7.201 6.976-14.497 8.568-22.332 1.156-5.695 1.274-11.539 1.654-17.337 1.246-18.991 5.33-37.667 9.402-56.259-20.69 23.008-13.627 60.408-29.608 86.904-2.759 4.576-6.183 8.768-8.432 13.613-6.258 13.478-2.531 29.695-7.424 43.726-9.487-15.795-7.172-35.708-4.503-53.939.492-3.361.944-6.991-.659-9.988-1.557-2.915-4.708-4.563-6.977-6.965-4.264-4.516-5.05-11.199-5.62-17.384-2.259-24.498-3.439-49.428-6.94-73.756-16.363 39.086-1.039 94.836 10.392 133.186z" fill="#2D10A0"/><path d="M102.215 295.433a8241.6 8241.6 0 012.297-23.361c.794-8 1.59-16 2.383-24 1.507-15.172 3.019-30.376 6.087-45.311 5.278-25.695 15.193-51.075 13.214-77.232-10.092 19.973-20.15 40.82-21.037 63.18-.281 7.105.377 14.211.529 21.319.172 8.058-.306 16.116-.892 24.156-3.933 53.996-12.64 107.554-15.348 161.65a647.058 647.058 0 00-.762 23.142c-.077 5.385-1.865 15.665 1.057 19.994 2.927-3.322 1.917-11.025 2.188-15.245a3971.506 3971.506 0 013.932-55.395 4004.313 4004.313 0 016.352-72.897z" fill="#2D10A0"/><path d="M113.842 507.113H66.593l-16.252-74.656h79.755l-16.254 74.656z" fill="#FFB300"/><path d="M691.098 293.773c-10.176 6.73-12.522 20.526-19.753 30.352-4.224 5.737-10.064 10.028-15.407 14.742-10.498 9.267-19.222 20.338-27.884 31.342l-33.368 42.394c-30.776-39.816-68.038-74.537-96.134-116.288 2.676 23.819 24.33 40.583 34.534 62.27 3.87 8.221 6.147 17.297 11.499 24.638 10.629 14.578 29.98 18.743 41.433 32.384 6.244 7.436 9.31 17.29 20.543 9.175 5.311-3.837 8.299-12.005 12.593-17.007 30.292-35.284 56.332-69.434 71.944-114.002z" fill="#3C1FD8"/><path d="M625.645 331.842c-5.625 9.153-12.897 17.368-17.129 27.244-5.64 13.16-5.453 28.298-11.453 41.298-9.447-6.074-8.379-19.908-12.163-30.484-4.675-13.066-17.199-21.349-26.352-31.78-6.391-7.282-11.228-15.78-15.701-24.374-15.311-29.424-27.067-62.071-24.256-95.12 8.852 38.405 26.956 74.644 52.35 104.785 3.732 4.431 7.658 8.787 10.335 13.924 2.589 4.972 3.912 10.487 5.212 15.94l9.579 40.2 4.446-40.267c.574-5.196 1.284-10.726 4.646-14.73 2.014-2.4 4.804-4.016 7.028-6.222 6.128-6.074 7.082-15.442 8.597-23.938 5.688-31.894 23.861-60.834 27.301-93.047-4.092 38.321-1.262 82.109-22.44 116.571z" fill="#3C1FD8"/><path d="M604.167 291.084c-4.01 13.457-8.7 26.7-13.388 39.936-9.737-20.197-19.473-40.395-29.208-60.592-3.684-7.643-7.401-15.383-9.09-23.696-1.228-6.041-1.352-12.243-1.756-18.395-1.32-20.149-5.654-39.965-9.975-59.69 21.952 24.412 14.459 64.093 31.415 92.205 2.926 4.855 6.558 9.303 8.945 14.444 6.64 14.301 2.687 31.507 7.877 46.393 10.067-16.758 7.611-37.888 4.778-57.229-.522-3.567-1-7.419.7-10.597 1.652-3.092 4.996-4.842 7.402-7.391 4.524-4.792 5.359-11.883 5.963-18.444 2.396-25.993 3.648-52.444 7.364-78.257 17.361 41.472 1.103 100.622-11.027 141.313z" fill="#3C1FD8"/><path d="M586.201 285.393a8551.454 8551.454 0 00-2.436-24.786c-.844-8.489-1.687-16.976-2.529-25.465-1.599-16.097-3.203-32.228-6.458-48.075-5.601-27.262-16.121-54.19-14.021-81.944 10.707 21.192 21.38 43.311 22.321 67.035.299 7.539-.401 15.077-.562 22.62-.182 8.549.325 17.099.946 25.631 4.172 57.288 13.412 114.116 16.286 171.512.409 8.177.692 16.364.809 24.553.08 5.715 1.977 16.621-1.121 21.215-3.107-3.527-2.036-11.699-2.322-16.176a4244.54 4244.54 0 00-10.913-136.12z" fill="#3C1FD8"/><path d="M574.958 507.113h47.249l16.253-74.656h-79.754l16.252 74.656z" fill="#293FFF"/><path d="M442.54 389.525a4.112 4.112 0 01-3.568-4.592l16.438-131.029a4.112 4.112 0 018.16 1.024l-16.438 131.029a4.112 4.112 0 01-4.592 3.568z" fill="#FDF5FF"/><path d="M415.834 389.904a4.113 4.113 0 01-3.819-4.386l9.11-131.742a4.112 4.112 0 018.204.568l-9.108 131.742a4.115 4.115 0 01-4.387 3.818z" fill="#FFB300"/><path d="M433.731 391.454a6.404 6.404 0 01-6.302-6.506l2.541-160.97a6.405 6.405 0 0112.808.201l-2.541 160.972a6.404 6.404 0 01-6.506 6.303z" fill="#3C1FD8"/><path d="M455.387 503.926h-44.756c-6.118 0-11.078-4.96-11.078-11.078V367.642h66.913v125.206c0 6.118-4.96 11.078-11.079 11.078z" fill="#A08AFC"/><path d="M466.465 377.211h-66.913v-9.569h66.913v9.569z" fill="#7769E6"/><path d="M130.154 519.459c.265 1.856.876 3.912 2.544 4.767 1.016.522 2.22.478 3.361.421 2.26-.113 4.553-.232 6.695-.963 2.14-.732 4.146-2.168 5.036-4.249.904-2.112.572-4.625 1.628-6.667 1.545-2.99 5.446-3.922 7.58-6.526 1.306-1.595 1.836-3.682 2.158-5.718.279-1.753.428-3.573-.056-5.281-.482-1.707-1.71-3.295-3.417-3.781-1.941-.554-4.012.402-5.56 1.698-1.548 1.296-2.784 2.942-4.393 4.16-2.151 1.626-4.812 2.383-7.291 3.444-7.939 3.394-9.441 10.635-8.285 18.695z" fill="#170D7D"/><path d="M177.697 329.024c-.96 22.12-10.027 43.919-16.374 65.547-.173.613-.36 1.227-.52 1.84a279.664 279.664 0 00-10.76 78.573c.027 4.32.16 8.653.667 12.947.707 6.065 2.173 12.24.8 18.187-1.373 5.946-6.827 11.573-12.827 10.479-2.96-.533-5.56-2.72-6.586-5.533-.52-1.413-.667-2.92-.8-4.413-.867-9.4-1.734-18.787-2.614-28.187-1.24-13.521-2.493-27.12-1.346-40.653 1.106-13.134 4.453-25.974 6.213-39.04 1.8-13.227 1.96-26.627 2.12-39.973 0-7.174.16-14.36.253-21.547.054-4.921-1.893-14.507.787-18.747 4.573-7.187 27.813-6.653 35.68-7.894 1.08-.172 2.28-.319 3.187.294.973.652 1.253 1.947 1.413 3.12.733 5.013.92 10.013.707 15z" fill="#5D4FF4"/><path d="M177.697 329.024c-.96 22.12-10.027 43.919-16.374 65.547-.173.613-.36 1.226-.52 1.84-1.88-12.214-3.2-24.827 1.014-36.347 2.36-6.413 6.4-12.36 7.08-19.16.306-3.133-.107-6.348.653-9.413 1.827-7.4 5.413-6 8.147-2.467z" fill="#3733D3"/><path d="M229.301 510.958c2.328.15 4.61-.594 6.918-.924 2.309-.331 4.921-.146 6.577 1.497 2.647 2.624 1.18 7.432-1.773 9.707-2.302 1.772-5.195 2.545-8.006 3.278l-27.981 7.3c-3.28.855-6.871 1.69-9.957.287-4.184-1.899-5.708-7.507-4.158-11.832 1.551-4.325 5.424-7.436 9.551-9.455 4.313-2.112 9.535-3.29 14.337-3.53 5.284-.264 9.388 3.34 14.492 3.672z" fill="#33209F"/><path d="M171.469 346.226c2.506 5.509 5.915 10.627 7.778 16.384 1.804 5.572 2.085 11.503 2.352 17.353l.95 20.871c1.928 42.351 2.048 76.131 12.399 118.548a3.075 3.075 0 003.683 2.259l12.226-2.882a6.061 6.061 0 004.668-6.082l-1.442-47.547c-.919-30.289-1.812-60.888 4.104-90.605 1.321-6.638 2.981-13.226 3.634-19.96.707-7.298.219-14.651-.269-21.966l-1.957-29.336c-.002-.017-.015-.032-.031-.034-4.959-.815-10.032.125-14.921 1.293-10.134 2.42-26.93 5.671-34.878 12.824-7.198 6.48-1.794 21.189 1.704 28.88z" fill="#7965FF"/><path d="M203.26 142.202c.432 1.399.937 2.931.328 4.255a3.038 3.038 0 01-1.012 1.22c-1.324.953-3.378 1.086-5.074 1.518-2.798.684-5.104 2.544-7.276 4.463-.222.195-.461.387-.685.596-1.665-2.441-4.969-2.976-7.9-3.259a201.867 201.867 0 00-19.237-.877c-.372-2.099-.744-4.181-1.116-6.279-.119-.7-.239-1.444.029-2.098.283-.699.952-1.146 1.637-1.458 2.32-1.042 5.52-1.026 6.666-3.318.372-.744.43-1.592.476-2.426.208-3.809.461-7.945 2.99-10.816.58-.654 1.264-1.22 1.815-1.905.952-1.175 1.473-2.648 2.365-3.868.894-1.22 2.44-2.217 3.884-1.741.387.134.744.357 1.131.432 1.041.178 1.935-.684 2.544-1.532 1.607-2.262 2.559-4.94 2.812-7.692.179-2.039.208-4.94 2.396-6.042 2.321-1.145 2.976 1.906 4.18 3.363 1.473 1.785 3.765 3.259 4.063 5.743.222 1.845-.819 3.645-.7 5.49.238 3.675 4.642 5.564 6.205 8.898.476.997.58 2.365-.283 3.065-.461.387-1.116.476-1.548.877-.565.522-.609 1.399-.58 2.172a42.278 42.278 0 001.89 11.219z" fill="#FFC0BF"/><path d="M192.732 91.61c-1.326-1.387-3.562-1.658-4.764-3.154-.473-.59-.737-1.316-1.121-1.967-1.559-2.65-5.308-3.728-8.037-2.312-1.026.532-1.896 1.355-2.975 1.77-2.241.864-4.708-.211-7.097-.462-5.984-.625-11.134 3.91-15.427 8.126-1.989 1.953-4.087 4.112-4.489 6.87-.312 2.131.429 4.444-.504 6.386-.848 1.765-2.915 2.796-3.484 4.669-.434 1.424.12 2.943.137 4.431.025 2.297-1.221 4.401-1.699 6.649-.598 2.824.092 5.896 1.843 8.191 1.336 1.752 3.255 3.08 4.197 5.07 1.012 2.138.788 4.83 2.291 6.658.641.781 1.536 1.312 2.453 1.736 3.307 1.529 7.155 1.765 10.66.796a16.94 16.94 0 001.963-.223c1.999-.356 4.099-1.124 5.192-2.835.584-.914.841-2.04 1.593-2.821.668-.693 1.651-1.028 2.282-1.755 1.32-1.521.529-3.849.706-5.856.154-1.742 1.09-3.353 1.174-5.101.136-2.859-1.95-6.012-.307-8.356.743-1.056 2.172-1.565 3.421-1.241 1.25.324 2.244 1.445 2.447 2.72.151.94-.096 1.896-.087 2.846.011.952.403 2.03 1.303 2.338 1.217.414 2.413-.912 2.525-2.194.114-1.28-.432-2.517-.638-3.785-.622-3.793 1.782-7.443 1.954-11.283.067-1.488-.142-3.173.855-4.278.381-.423.9-.7 1.296-1.108.412-.427.648-.995.716-1.582 2.349-2.662 3.901-6.093 1.621-8.944z" fill="#160357"/><path d="M202.576 147.677c-1.324.952-3.378 1.087-5.074 1.517-2.797.686-5.104 2.544-7.276 4.464-.268-.521-.313-1.176-.222-1.77.148-.894.534-1.711.773-2.59.803-3.109-.655-6.189-1.459-9.149-.148-.536-1.234-3.839.015-3.661.7.105 2.053 4.212 2.367 4.91.609 1.324 1.264 2.708 2.44 3.571 1.8 1.34 4.285 1.071 6.486 1.563.744.164 1.548.55 1.95 1.145zM94.652 243.363c-.458 1.146-.916 2.411-.53 3.582.271.826.922 1.461 1.52 2.093 4.503 4.756 7.022 10.992 10.283 16.672 6.379 11.113 15.68 20.211 24.86 29.153 2.477 2.412 5.016 4.868 8.136 6.359.351-5.464.613-10.932.787-16.404.076-2.412.082-5.009-1.295-6.991-.9-1.294-2.279-2.153-3.484-3.166-8.235-6.922-7.82-20.231-15.143-28.111-1.192-1.281-2.689-2.723-2.386-4.447.141-.81.672-1.49 1.185-2.132 3.579-4.48 7.159-8.958 10.737-13.438.188-.234-18.81-14.122-22.332-11.83-2.722 1.772-5.006 11.074-6.317 14.124a604.635 604.635 0 00-6.021 14.536z" fill="#FFA0A0"/><path d="M123.964 177.751c-5.496 5.359-9.59 12.007-12.862 18.951-3.07 6.517-5.456 13.331-7.836 20.131-.052.146-.104.308-.049.454.06.159.227.246.379.32l13.94 6.744c3.474 1.682 7.134 3.526 9.16 6.811.353.573.844 1.277 1.502 1.139.531-.112.775-.716.926-1.236a65.755 65.755 0 002.588-18.995c-.043-3.855-.424-7.735.112-11.552.766-5.456 3.369-10.511 4.276-15.945.329-1.984 2.165-14.64.626-15.408-2.476-1.238-11.1 6.966-12.762 8.586z" fill="#0028DD"/><path d="M268.517 217.993c-5.177 1.681-10.803.669-16.143-.358-4.121-.788-8.228-1.577-12.349-2.365-1.072-.208-2.351-.625-2.515-1.696-.074-.432.075-.848.208-1.249 1.622-4.495 4.048-9.226 2.679-13.794-.491-1.636-1.444-3.08-2.411-4.493a131.014 131.014 0 00-20.473-23.404c-7.2-6.501-13.137-14.417-21.931-18.955-.104-2.396 3.214-3.616 5.431-2.678 2.217.937 3.66 3.065 5.431 4.702.684.639 1.712 1.235 2.485.73.565-.358.699-1.132.64-1.802-.016-.104-.016-.208-.045-.312-.402-2.604-2.752-4.464-4.658-6.353-1.993-1.964-3.689-5.044-2.172-7.38.208-.312.462-.609.804-.744.03-.015.044-.015.075-.015 1.472-.534 2.395 1.622 3.6 2.694 1.949 1.71 4.94.357 7.528.312 3.021-.03 5.773 1.889 7.663 4.256 1.889 2.365 3.125 5.162 4.702 7.75 4.284 7.083 10.906 12.395 17.527 17.364 7.707 5.772 15.741 11.398 21.619 19.03 1.144 1.488 2.201 3.036 3.257 4.597 1.577 2.307 3.14 4.597 4.701 6.904 1.058 1.547 2.128 3.14 2.59 4.953 1.353 5.283-3.066 10.624-8.243 12.306z" fill="#FFC0BF"/><path d="M209.643 151.754c-.015.193-.03.401-.119.565-.403-2.604-2.752-4.464-4.657-6.353-1.994-1.964-3.69-5.044-2.172-7.379.208-.313.461-.61.804-.745.029-.015.044-.015.073-.015.655 0 1.265.254 1.696.775 1.355 1.607.149 4.165.983 6.1.401.923 1.234 1.577 1.874 2.351a6.826 6.826 0 011.518 4.701zm6.625 14.842c1.4.056 2.796-.182 4.196-.202 4.206-.062 8.228 1.834 11.606 4.339 3.377 2.504 6.245 5.62 9.344 8.463a74.144 74.144 0 0019.982 13.094 84.622 84.622 0 005.992 2.379c-3.728-.919-7.488-1.844-11.325-1.983-1.219-.044-2.443-.008-3.655-.148-2.364-.272-4.601-1.198-6.749-2.225a69.885 69.885 0 01-15.448-10.089c-2.039-1.756-3.981-3.635-6.193-5.167-3.16-2.189-6.763-3.62-9.99-5.699-.801-.516-4.026-2.234-3.226-3.49.561-.882 4.386.684 5.466.728z" fill="#FFA0A0"/><path d="M226.139 311.094c-2.59 4.092-9.166 2.679-13.034 5.58-1.444 1.071-2.41 2.692-3.854 3.734-2.023 1.473-4.656 1.653-7.007 2.47-4.717 1.623-8.199 5.714-12.811 7.619-3.689 1.516-7.826 1.503-11.828 1.472-7.708-.06-15.414-.133-23.121-.193-6.428-.059-13.763-.536-17.721-5.61-4.762-6.114-1.755-14.76-.743-22.496.029-.209.044-.401.073-.596.923-7.945-.848-15.934-1.606-23.894-.52-5.327-.566-10.698-1.206-16.024-.997-8.198-3.362-16.128-5.892-24.014-.848-2.648-1.725-5.297-2.558-7.945-3.332-10.52-6.248-21.395-5.714-32.42.522-11.025 4.984-22.348 13.927-28.835 3.957-2.872 8.748-4.82 13.197-7.037 4.88-2.44 9.359-5.223 11.932-9.939.566-1.057 1.042-2.188 1.846-3.065 2.126-2.307 5.133-2.187 7.989-1.919.58.044 1.176.104 1.741.148 4.627.358 9.195 1.042 13.688 2.247 1.89.521 3.854 1.145 5.238 2.529 1.145 1.131 1.814 2.648 2.812 3.914 4.612 5.877 13.717 4.032 20.904 6.278.55.163 1.101.358 1.621.58.224.104.447.194.671.312.653.343 1.264.79 1.665 1.399.596.937.625 2.128.596 3.244-.075 2.292-.299 4.628-.596 6.963v.016c-.029.297-.073.58-.104.877-1.175 9.165-2.991 18.404 1.22 26.364 1.488 2.783 3.66 5.252 4.464 8.303.52 1.978.432 4.046.327 6.085-.476 10.34-.952 20.681-1.458 31.007-.06 1.533-.133 3.05-.209 4.582-.267 5.818-.535 11.651-.059 17.454.09 1.116.208 2.216.358 3.332.49 3.913 1.28 7.796 2.037 11.665 1.205 6.115 2.425 12.229 3.645 18.359.492 2.5.938 5.297-.43 7.454z" fill="#2A41FF"/><path d="M123.437 182.326a.744.744 0 01-.389-1.378c.46-.282.927-.548 1.395-.806 8.437-4.656 16.928-7.081 25.956-7.413l.097-.004.096.021c3.288.747 6.783-.114 10.161-.949l.974-.24c7.396-1.801 13.905-2.501 19.905-2.14 5.319.319 10.585 1.504 15.679 2.649 4.924 1.108 10.016 2.254 15.096 2.594a.744.744 0 11-.102 1.485c-5.193-.348-10.342-1.507-15.321-2.627-5.036-1.133-10.243-2.304-15.44-2.616-5.849-.349-12.216.335-19.467 2.1l-.966.239c-3.515.871-7.15 1.769-10.754.977-8.753.339-16.997 2.703-25.197 7.228-.448.247-.895.503-1.335.771a.734.734 0 01-.388.109zm56.865-25.945c-5.341.195-10.683.388-16.024.581-1.235.044-2.471.088-3.615.506-2.009.714-3.452 2.425-4.761 4.106-.656.848-1.413 1.771-2.471 1.948-.802.135-1.606-.208-2.394-.416a8.622 8.622 0 00-3.899-.178c-.268.06-.565.12-.833.014-.015-.014-.044-.014-.059-.044 4.88-2.44 9.359-5.222 11.932-9.938.565-1.056 1.041-2.188 1.845-3.066 2.127-2.306 5.132-2.186 7.99-1.92-.179 1.802-1.042 3.587.06 5.447 1.1 1.889 3.54 2.499 5.728 2.544 2.186.044 4.433-.299 6.501.416z" fill="#0028DD"/><path d="M220.588 252.831c-.268 5.817-.534 11.649-.058 17.452a62.75 62.75 0 00.356 3.332c-.03.09-.059.18-.104.269-2.842-.716-4.851-3.319-5.847-6.071-.997-2.737-1.22-5.713-1.816-8.57-.416-1.994-1.041-3.943-1.28-5.967-.311-2.469-.073-4.969.06-7.453a86.986 86.986 0 00-.06-10.058c-.028-.49-.073-1.012-.371-1.4-.565-.788-1.785-.713-2.664-.266-.862.43-1.577 1.16-2.498 1.473-.656-2.961 2.498-5.387 3.02-8.363.193-1.16-.015-2.35-.224-3.51-.774-4.227-1.562-8.511-3.57-12.306-2.069-3.897-5.312-7.022-8.497-10.072 3.065.491 6.131.996 9.196 1.487.684.105 1.532.164 1.919-.416.238-.357.193-.804.164-1.22-.342-3.317-.848-6.651-.923-9.999-.104-5.429.952-10.816 1.995-16.157.356-1.785.445-5.863 2.93-5.863 2.782 0 3.02 3.795 3.511 5.714.135.536.283 1.086.417 1.622-1.176 9.166-2.99 18.404 1.22 26.364 1.487 2.783 3.66 5.252 4.463 8.303.521 1.979.432 4.047.328 6.085-.476 10.34-.952 20.68-1.459 31.007-.058 1.532-.133 3.051-.208 4.583z" fill="#0028DD"/><path d="M225.378 170.87c3.659 2.874 7.326 5.755 10.639 9.023 1.109 1.093 2.196 2.245 3.549 3.019.844.482 1.77.804 2.676 1.156 4.467 1.733 8.583 4.242 12.672 6.74.288.174.592.368.73.676.18.402.021.869-.143 1.28a48.847 48.847 0 01-15.233 20.233c-2.11 1.643-4.754 3.18-7.318 2.425-2.649-.78-4.281-3.788-7.002-4.261-.988-.172-2.003.023-3.004-.024-1.844-.085-3.566-.989-5.002-2.149-5.965-4.827-7.186-13.427-6.778-21.09.197-3.694.665-7.37.854-11.065.164-3.18-.762-6.923-.072-10.004 1.439-6.421 10.888 2.043 13.432 4.041z" fill="#2A41FF"/><path d="M143.057 291.708c.461 2.708-.298 5.474-1.042 8.124-.104.402-.222.802-.476 1.116-.313.372-.804.565-1.264.758a48.868 48.868 0 00-4.256 1.964c.03-.209.044-.401.075-.596.923-7.945-.848-15.934-1.607-23.894-.521-5.327-.566-10.698-1.205-16.024-.997-8.198-3.363-16.128-5.892-24.014.372.7.699 1.37.997 1.844a50.336 50.336 0 007.736 9.731c2.068 2.009 4.315 3.869 5.967 6.22 3.332 4.805 4.047 11.531 8.748 14.997-5.549-.118-8.6-6.725-13.703-8.957a17.673 17.673 0 013.81 9.329c.445 4.494-.834 9.106.281 13.48.507 2.008 1.504 3.884 1.831 5.922z" fill="#0028DD"/><path d="M535.424 491.285c-.244 2.249.598 4.518 1.928 6.35a12.922 12.922 0 004.864 4.05c2.672 1.276 5.861 1.682 7.978 3.752 2.467 2.413 2.862 6.542 5.67 8.546 1.746 1.248 4.032 1.37 6.177 1.398 2.817.038 5.912-.11 8.003-2.002 2.529-2.293 2.586-6.18 2.457-9.594-.089-2.319-.243-4.818-1.712-6.616-.691-.846-1.619-1.459-2.544-2.039-5.439-3.411-31.236-18.489-32.821-3.845z" fill="#514579"/><path d="M555.57 364.134c-.575 4.644-1.406 9.269-1.544 13.946-.496 16.642 7.664 32.148 11.862 48.259 2.415 9.261 3.526 18.805 4.454 28.328 1.42 14.583 2.424 29.233 1.998 43.88-.03 1.104-.088 2.265-.673 3.203-.597.958-1.653 1.525-2.7 1.948-9.216 3.706-21.029-2.432-23.288-12.106-1.555-6.652.907-13.5 1.537-20.301.574-6.16-.369-12.352-1.397-18.455-3.129-18.572-7.103-37.092-13.788-54.7-1.711-4.501-3.605-8.96-6.18-13.029-1.027-1.619-2.172-3.207-2.731-5.041-.578-1.904-.485-3.939-.385-5.926l2.035-40.569c.178-3.559.486-7.436 2.913-10.045 2.807-3.019 7.461-3.279 11.569-2.923 3.379.292 9.195-.769 12.3.549 3.683 1.564 3.41 7.096 3.866 10.538a127.876 127.876 0 01.152 32.444z" fill="#FFB300"/><path d="M537.462 402.994a57.76 57.76 0 00-1.146 7.677 193.55 193.55 0 00-4.241-12.409c-1.711-4.508-3.6-8.971-6.175-13.032-1.025-1.623-2.172-3.215-2.737-5.044-.58-1.905-.476-3.943-.388-5.923l1.296-25.74c10.013-5.89 9.359 15.207 8.525 21.59-.492 3.749-1.338 7.662-.074 11.218 1.294 3.6 4.581 6.248 5.772 9.894 1.25 3.794.016 7.886-.832 11.769z" fill="#FFB300"/><path d="M462.229 508.006c-3.143.223-6.896.856-8.136 3.752-1.386 3.241 1.458 6.663 4.22 8.851 5.142 4.076 11.204 7.478 17.762 7.64 4.574.113 9.232-1.352 13.666-.219 5.328 1.361 10.329 6.355 15.456 4.361 2.773-1.08 4.456-4.037 4.862-6.985.407-2.949-.238-5.931-.88-8.837-.181-.816-.377-1.668-.912-2.311-.562-.675-1.413-1.023-2.23-1.345-6.152-2.436-13.492-6.939-20.228-7.102-7.599-.18-15.942 1.608-23.58 2.195z" fill="#5D5491"/><path d="M487.788 430.439c1.194 27.432-2.966 54.972-.536 82.323a68.512 68.512 0 0017.304 3.292c1.432.083 3.09.028 3.995-1.085.747-.916.703-2.214.759-3.394.197-4.168 2.086-8.036 3.469-11.973 3.821-10.871 3.861-22.672 3.425-34.187-.929-24.485-3.798-49.221.55-73.336.9-4.998 2.117-9.965 4.102-14.641 1.914-4.509 4.516-8.687 6.734-13.055a83.568 83.568 0 007.825-23.661c.308-1.805.549-3.705-.063-5.431-.814-2.296-2.96-3.817-5.028-5.104-9.913-6.177-20.85-10.542-31.948-14.194-2.922-.963-6.017-1.888-9.034-1.275-6.775 1.375-7.379 9.845-8.095 15.275-1.065 8.077-1.3 16.242-1.035 24.377.534 16.385 3.072 32.612 5.084 48.859 1.119 9.04 2.098 18.106 2.492 27.21z" fill="#FFB300"/><path d="M539.734 163.869c-8.064-1.175-16.516.611-23.464 4.865a30.864 30.864 0 00-2.976 2.024c-.327.252-.684.52-1.087.491-.356-.029-.653-.268-.891-.536-1.653-1.771-2.054-4.672-4.196-5.773-.55-.283-1.161-.416-1.786-.506-1.235-.193-2.515-.237-3.452-1.012-1.264-1.056-1.308-2.945-1.264-4.597.164-4.539.326-9.091.477-13.628.044-.939.057-1.889-.224-2.768-.149-.447-.357-.863-.401-1.324-.091-1.309 1.249-2.187 2.126-3.169 1.979-2.187 1.786-5.475 1.846-8.422.074-4.329 4.077-12.141 8.881-6.68 1.161 1.324 1.92 3.006 3.289 4.107 1.131.907 2.574 1.339 3.719 2.216 1.935 1.473 2.723 3.988 3.393 6.324 2.112 7.573 4.344 15.801 10.594 20.561 1.369 1.043 2.901 1.876 4.061 3.126 1.176 1.249 1.949 3.08 1.355 4.701z" fill="#FFC0BF"/><path d="M517.219 108.8c1.175-.176 2.378-.192 3.528-.495 1.556-.412 2.931-1.33 4.44-1.894 3.043-1.14 6.435-.783 9.612-.103 1.954.419 3.958.992 5.458 2.312 1.757 1.548 2.597 3.925 4.324 5.507 1.506 1.382 3.557 2.033 5.136 3.336 2.63 2.173 3.545 5.818 3.661 9.229.116 3.412-.409 6.845.029 10.229.324 2.511 1.166 5.11.336 7.5-1.17 3.376-5.156 4.922-6.989 7.987-1.609 2.691-1.696 6.645-4.532 7.981-1.285.606-2.784.444-4.195.271a5227.78 5227.78 0 00-4.373-.541c-1.412-.176-2.849-.358-4.149-.936-2.663-1.186-4.371-3.878-5.284-6.644-.914-2.768-1.182-5.704-1.87-8.536a29.516 29.516 0 00-3.053-7.672c-.496-.866-1.116-1.771-2.075-2.052-1.249-.366-2.586.54-3.158 1.709-.572 1.169-.568 2.525-.554 3.827-1.013.849-2.67-.015-3.166-1.24-.495-1.226-.244-2.606-.174-3.926.312-5.936-4.853-9.46-3.642-15.32 1.068-5.165 5.392-9.732 10.69-10.529z" fill="#160558"/><path d="M505.567 178.992c-5.612 2.136-13.437 12.933-13.937 13.02-.535.093-1.792-.52-2.27-.776-1.784-.96-3.006-2.684-4.164-4.347l-22.57-32.449c-4.872-1.919-9.191-6.06-11.655-10.681-1.044-1.959-1.952-4.239-3.951-5.204-.656-.318-1.401-.472-1.972-.927-.725-.579-1.025-1.525-1.289-2.415-.811-2.733-1.593-5.8-.272-8.325 1.32-2.517 4.271-3.621 6.967-4.517 1.72-.572 3.557-1.15 5.314-.702 1.44.367 2.623 1.378 3.666 2.436a29.25 29.25 0 017.217 12.312c.689 2.379 1.087 4.874 2.224 7.074 1.175 2.27 3.063 4.078 4.916 5.84 6.78 6.449 13.579 12.913 21.043 18.556 4.338 3.28 8.18 6.304 10.733 11.105z" fill="#FFA0A0"/><path d="M551.085 257.633c-2.216 12.514-2.29 25.398-1.012 38.208.374 3.87.879 7.738 1.488 11.591.774 5.028 1.727 10.012 2.798 14.952.402 1.889.745 4.121-.61 5.491-.581.61-1.398.922-2.188 1.22a238.372 238.372 0 01-9.045 3.169c-8.704 2.856-17.913 5.236-26.96 3.78a32.825 32.825 0 01-13.241-5.223c-.938-.625-1.831-1.31-2.754-1.964-1.532-1.116-3.08-2.188-4.836-2.902-3.078-1.25-6.65-1.324-9.373-3.228-2.871-1.994-4.003-5.327-4.344-8.927-.224-2.232-.149-4.553-.015-6.725 1.22-19.611 1.652-39.264.907-58.89-.343-9.477-.967-19-.044-28.448.923-9.446 3.512-18.94 9.001-26.677 2.59-3.629 5.758-6.813 8.914-9.968l4.552-4.553 5.222-5.222c2.484-2.485 4.984-4.999 7.946-6.858.013-.016.044-.031.06-.046 5.325-3.392 11.768-4.478 18.002-4.343 4.598.089 3.496.147 4.255 3.51.833 3.616 2.097 6.651 4.329 9.642 2.604 3.496 5.788 6.531 8.332 10.057 5.223 7.246 7.47 16.233 8.199 25.13.372 4.702.356 9.463-.417 14.105-1.16 6.978-3.972 13.54-6.071 20.294a101.646 101.646 0 00-2.736 10.995c-.135.61-.255 1.22-.359 1.83z" fill="#80B7FF"/><path d="M516.27 168.734a30.798 30.798 0 00-2.976 2.024c-.328.254-.684.52-1.087.491-.356-.029-.653-.268-.892-.536-1.652-1.771-2.053-4.672-4.194-5.773-.551-.283-1.162-.416-1.787-.506.06-.06.12-.118.193-.164 2.471-1.829 4.94-3.213 7.187-5.385.58-.551 1.16-1.116 1.577-1.816 1.011-1.755.73-4.001 1.547-5.861a14.24 14.24 0 01-.179 7.588c-.521 1.725-1.382 3.466-1.116 5.266.239 1.622 1.415 3.11 1.727 4.672z" fill="#FFA0A0"/><path d="M534.511 171.561a45.026 45.026 0 00-18.748 3.498c-1.353.564-2.692 1.204-4.135 1.517-1.369.283-2.798.252-4.106.684-.744.253-1.428.64-2.114 1.041-.445.254-.804.327-1.086.238 1.741-1.74 3.482-3.48 5.222-5.222 2.486-2.485 4.986-5 7.946-6.858.313.49.58 1.012.892 1.472.893 1.294 2.426 2.024 3.973 2.352 1.532.312 3.125.281 4.701.326 2.515.09 5.015.402 7.455.952zm16.574 86.072c-2.216 12.514-2.29 25.398-1.012 38.208-3.452 9.91-6.561 19.923-7.528 30.338-.237-6.175 0-12.364 1.102-18.435.877-4.88 2.336-9.671 2.826-14.595.283-2.753.252-5.521.239-8.288-.016-2.128-.031-4.256-.044-6.368-2.649 6.443-7.575 11.65-12.409 16.679-4.003 4.18-8.02 8.361-12.038 12.543 5.356-6.011 10.772-12.142 14.283-19.387 1.503-3.124 2.635-6.413 3.765-9.687 1.146-3.302 2.276-6.605 3.422-9.909.685-1.979 1.369-3.972 2.41-5.787 1.4-2.41 3.378-4.42 5.014-6.681.105-.148.224-.297.329-.461-.135.61-.255 1.22-.359 1.83zm-17.139-7.246c-3.691 1.102-7.364 2.203-11.04 3.304-2.916.863-6.011 1.859-7.916 4.21-2.068 2.56-2.276 6.07-2.707 9.314a51.874 51.874 0 01-4.896 16.114c-2.44 4.954-5.668 9.522-7.646 14.67-3.78 9.806-2.65 20.458-.179 30.859-1.532-1.116-3.081-2.188-4.836-2.903-3.08-1.25-6.651-1.324-9.373-3.228-2.872-1.993-4.003-5.326-4.344-8.926.684-4.182 2.81-8.244 4.924-11.994 7.022-12.468 14.521-24.861 18.54-38.594 1.382-4.731 2.349-9.596 3.942-14.283 4.06-11.919 12.274-22.928 11.976-35.515-.178-7.574-3.616-13.6-8.376-19.209 10.712 5.803 16.023 21.128 14.387 32.673-.728 5.178-2.649 10.311-1.873 15.475.281 1.933 1.145 4.032 2.974 4.76 1.28.521 2.752.223 4.122.461 1.384.239 2.826 1.518 2.321 2.812z" fill="#6197E1"/><path d="M477.425 269.801c-3.876 13.448-4.465 27.592-5.028 41.578-.124 3.093-.248 6.21.224 9.27.603 3.894 2.149 7.575 3.02 11.416.841 3.714 1.061 7.615 2.62 11.09 1.557 3.473 5.001 6.526 8.776 6.033l-2.969-28.472c-.139-1.336-.278-2.695-.043-4.017.296-1.664 1.16-3.162 1.991-4.634a194.698 194.698 0 0022.002-60.81c.17-.936.295-2.02-.34-2.728-.472-.527-1.225-.674-1.921-.792-4.819-.818-17.636-5.492-20.901-1.314-1.952 2.496-2.428 8.484-3.498 11.599-1.333 3.884-2.434 7.968-3.933 11.781z" fill="#FFC0BF"/><path d="M440.252 166.458H246.007c-10.514 0-19.038-8.524-19.038-19.038V56.213c0-10.513 8.524-19.037 19.038-19.037h194.245c10.515 0 19.039 8.524 19.039 19.037v91.207c0 10.514-8.524 19.038-19.039 19.038z" fill="#DEDEFF"/><path d="M454.708 133.665a36.428 36.428 0 01-2.81-3.78c-.577-.894-1.129-1.859-1.186-2.92-.058-1.062.537-2.231 1.57-2.484 1.116-.274 2.188.573 2.907 1.468 1.692 2.105 2.647 4.84 4.779 6.496.913.709 2.061 1.248 2.536 2.301.485 1.08.089 2.356-.507 3.379-.291.497-1.127 2.037-1.769 2.117-.863.105-1.176-1.177-1.579-1.8-1.125-1.737-2.607-3.207-3.941-4.777z" fill="#FFC0BF"/><path d="M280.712 144.019v-13.333c16.3 0 29.561-13.262 29.561-29.562h13.333c0 23.652-19.241 42.895-42.894 42.895z" fill="#FDF5FF"/><path d="M280.712 144.019c-23.652 0-42.895-19.243-42.895-42.895 0-8.596 2.533-16.89 7.329-23.988l11.048 7.464a29.405 29.405 0 00-5.044 16.524c0 16.3 13.262 29.562 29.562 29.562v13.333z" fill="#293FFF"/><path d="M323.607 101.124h-13.333c0-16.302-13.262-29.563-29.562-29.563a29.561 29.561 0 00-24.517 13.037l-11.049-7.462a42.877 42.877 0 0135.566-18.908c23.652 0 42.895 19.244 42.895 42.896zm32.46-23.293a6.02 6.02 0 10-12.038.001 6.02 6.02 0 0012.038 0z" fill="#FFB300"/><path d="M356.067 103.492a6.02 6.02 0 10-12.04 0 6.02 6.02 0 0012.04 0z" fill="#FDF5FF"/><path d="M356.067 129.152a6.02 6.02 0 10-12.039 0 6.02 6.02 0 0012.039 0z" fill="#293FFF"/><path d="M445.434 77.003H372.74a3.01 3.01 0 110-6.018h72.694a3.01 3.01 0 010 6.018z" fill="#FDF5FF"/><path d="M445.434 91.752H372.74a3.01 3.01 0 110-6.019h72.694a3.01 3.01 0 010 6.019z" fill="#A08AFC"/><path d="M445.434 106.501H372.74a3.009 3.009 0 110-6.019h72.694a3.01 3.01 0 010 6.019z" fill="#FFB300"/><path d="M445.434 121.249H372.74a3.009 3.009 0 110-6.018h72.694a3.009 3.009 0 110 6.018z" fill="#A08AFC"/><path d="M445.434 135.999H372.74a3.01 3.01 0 110-6.019h72.694a3.01 3.01 0 110 6.019z" fill="#FFB300"/><path d="M445.894 151.208h-99.315a2.55 2.55 0 010-5.1h99.315a2.55 2.55 0 010 5.1z" fill="#293FFF"/><path d="M445.894 62.255h-99.315a2.55 2.55 0 010-5.1h99.315a2.55 2.55 0 010 5.1z" fill="#A08AFC"/><path d="M297.119 101.124c0-9.062-7.345-16.408-16.408-16.408-9.061 0-16.407 7.346-16.407 16.408 0 9.061 7.346 16.408 16.407 16.408 9.063 0 16.408-7.347 16.408-16.408z" fill="#B7BCFB"/></svg>