<svg width="2219" height="2286" viewBox="0 0 2219 2286" fill="none" xmlns="http://www.w3.org/2000/svg">
<path d="M818.644 1015.73L925.17 954.231L818.644 892.74L712.11 954.231L605.584 1015.73L712.11 1077.23L818.644 1138.72L925.17 1077.23L818.644 1015.73Z" fill="#D9EFFB"/>
<path d="M818.646 862.542V411.559L925.173 350.069V801.044L818.646 862.542" fill="#263C7A"/>
<path d="M818.644 411.559L712.11 350.069V801.044L818.644 862.542V411.559" fill="#4067B1"/>
<path d="M925.17 350.068L818.644 288.563L712.11 350.068L818.644 411.559L925.17 350.068Z" fill="#D9EFFB"/>
<path d="M925.173 883.047L818.646 821.55V862.541L925.173 924.046V883.047" fill="#8CD147"/>
<path d="M712.11 924.046V596.051L818.644 534.553V862.541L712.11 924.046Z" fill="#C23222"/>
<path d="M712.11 596.051L605.584 534.553V862.541L712.11 924.046V596.051" fill="#DC4220"/>
<path d="M818.644 534.556L712.11 473.066L605.584 534.556L712.11 596.054L818.644 534.556Z" fill="#EF4B26"/>
<path d="M712.11 924.046V596.051L818.644 534.553V862.541L712.11 924.046Z" fill="#4067B1"/>
<path d="M712.11 596.051L605.584 534.553V862.541L712.11 924.046V596.051" fill="#5F92D3"/>
<path d="M818.644 534.556L712.11 473.066L605.584 534.556L712.11 596.054L818.644 534.556Z" fill="#D9EFFB"/>
<path d="M818.646 985.538V801.045L925.173 739.555V924.048L818.646 985.538" fill="#263C7A"/>
<path d="M818.644 801.045L712.11 739.555V924.048L818.644 985.538V801.045Z" fill="#4067B1"/>
<path d="M925.17 739.554L818.644 678.048L712.11 739.554L818.644 801.044L925.17 739.554Z" fill="#D9EFFB"/>
<path d="M13.1717 1235.86C10.196 1235.86 8.14658 1235.04 7.00881 1233.4C5.87834 1231.78 5.30226 1229.38 5.27308 1226.23V1195.32H0V1191.63H5.27308V1178.13H10.8086V1191.63H18.0801V1195.32H10.8086V1225.72C10.8086 1227.93 11.0712 1229.44 11.5818 1230.27C12.1069 1231.1 13.1426 1231.51 14.7179 1231.51C15.7317 1231.51 16.7601 1231.41 17.8249 1231.21V1235.38C16.1693 1235.7 14.623 1235.86 13.1717 1235.86" fill="#8AA5D0"/>
<path d="M2180.43 1234.34L2177.26 1221.98L2213.18 1212.78L2216.35 1225.15L2180.43 1234.34Z" fill="#5F92D3"/>
<path d="M2162.11 1252.22L2158.94 1239.85L2194.85 1230.65L2198.02 1243.02L2162.11 1252.22Z" fill="#5F92D3"/>
<path d="M2143.79 1270.08L2140.62 1257.72L2176.53 1248.52L2179.7 1260.88L2143.79 1270.08Z" fill="#5F92D3"/>
<path d="M2125.47 1287.95L2122.3 1275.6L2158.21 1266.39L2161.39 1278.75L2125.47 1287.95" fill="#5F92D3"/>
<path d="M1266.11 2133.68L461.579 1669.24C438.817 1656.1 441.668 1633.15 467.953 1617.99L1015.78 1301.83C1042.06 1286.67 1081.81 1285.02 1104.57 1298.15L1909.09 1762.6C1931.86 1775.74 1929.01 1798.69 1902.72 1813.85L1354.9 2130.01C1328.62 2145.18 1288.86 2146.82 1266.11 2133.68Z" fill="#D9EFFB"/>
<path d="M1938.86 849.001L1121.05 377.285C1110.52 371.211 1100.85 370.27 1093.06 373.515L1093.09 373.428L1091.75 374.048L1091.42 374.201L1064.8 386.729L1093.7 401.117L1093.65 402.707L1093.9 1074.33C1093.9 1107.94 1114.7 1147.18 1140.36 1161.98L1936.36 1621.11L1940.88 1658.57L1969.95 1644.71C1979.52 1639.08 1985.59 1626.37 1985.58 1608.26L1985.32 936.642C1985.31 903.031 1964.51 863.79 1938.86 849.001Z" fill="#263C7A"/>
<path d="M1938.86 849.001L1121.05 377.285C1110.52 371.211 1100.85 370.27 1093.06 373.515L1093.09 373.428L1091.75 374.048L1091.42 374.201L1064.8 386.729L1093.7 401.117L1093.65 402.707L1093.81 845.355L1465.99 1139.38L1971.33 885.091C1962.95 869.529 1951.5 856.286 1938.86 849.001" fill="#4067B1"/>
<path d="M1952.52 859.557L1872.37 893.271L1932.88 939.877L1983.42 918.371C1979.02 896.29 1967.37 874.099 1952.52 859.557Z" fill="#2E4B8D"/>
<path d="M1912.24 1655.01L1094.43 1183.3C1068.78 1168.51 1047.98 1129.27 1047.96 1095.65L1047.71 424.03C1047.7 390.426 1068.48 375.17 1094.14 389.959L1911.94 861.675C1937.59 876.471 1958.4 915.712 1958.4 949.316L1958.65 1620.94C1958.67 1654.54 1937.89 1669.8 1912.24 1655.01Z" fill="#D9EFFB"/>
<path d="M1885.03 1605.05L1121.24 1164.71C1097.77 1151.17 1078.73 1115.26 1078.72 1084.5L1078.49 469.92C1078.48 439.16 1097.5 425.202 1120.97 438.745L1884.76 879.088C1908.23 892.623 1927.27 928.531 1927.28 959.291L1927.51 1573.87C1927.53 1604.63 1908.5 1618.59 1885.03 1605.05" fill="white"/>
<path d="M1885.03 1605.05L1121.24 1164.71C1097.77 1151.17 1078.73 1115.26 1078.72 1084.5L1078.49 469.92C1078.48 439.16 1097.5 425.202 1120.97 438.745L1884.76 879.088C1908.23 892.623 1927.27 928.531 1927.28 959.291L1927.51 1573.87C1927.53 1604.63 1908.5 1618.59 1885.03 1605.05" fill="white"/>
<path d="M1924.44 1675.87L1814.47 1661.35L1104.57 1251.54C1081.81 1238.4 1042.05 1240.05 1015.77 1255.22L512.739 1545.5L446.238 1536.72V1574.45L446.311 1574.46C445.866 1583.17 450.833 1591.57 461.576 1597.76L1266.1 2062.2C1288.86 2075.35 1328.62 2073.7 1354.9 2058.53L1902.72 1742.38C1917.51 1733.85 1924.87 1722.86 1924.44 1712.53V1675.87" fill="#263C7A"/>
<path d="M1391.05 1416.92L1340.61 1387.8H786.108L512.739 1545.5L446.238 1536.72V1574.45L446.311 1574.46C445.866 1583.17 450.833 1591.57 461.576 1597.76L1266.1 2062.2C1278.13 2069.15 1294.91 2071.92 1311.93 2070.8L1391.05 1416.92Z" fill="#4067B1"/>
<path d="M475.754 1540.61L446.238 1536.72V1574.45L446.311 1574.46C445.866 1583.17 450.833 1591.56 461.576 1597.75L475.754 1605.94V1540.61" fill="#5F92D3"/>
<path d="M1274.2 2065.97C1295.77 2074.15 1326.63 2072.36 1349.65 2061.28V1977.13H1274.2V2065.97Z" fill="#2E4B8D"/>
<path d="M1266.11 2024.52L461.579 1560.08C438.817 1546.94 441.668 1523.99 467.953 1508.82L1015.78 1192.68C1042.06 1177.5 1081.81 1175.86 1104.57 1189L1909.09 1653.44C1931.86 1666.58 1929.01 1689.53 1902.72 1704.7L1354.9 2020.84C1328.62 2036.02 1288.86 2037.66 1266.11 2024.52Z" fill="#D9EFFB"/>
<path d="M1902.72 1690.92L1354.9 2007.06C1328.62 2022.23 1288.86 2023.88 1266.1 2010.74L461.577 1546.3C454.108 1541.99 449.455 1536.63 447.428 1530.83C443.869 1541.59 448.405 1552.47 461.577 1560.08L1266.1 2024.52C1288.86 2037.66 1328.62 2036.02 1354.9 2020.84L1902.72 1704.7C1920.38 1694.5 1927.41 1680.8 1923.25 1668.91C1920.65 1676.75 1913.8 1684.52 1902.72 1690.92Z" fill="white"/>
<path d="M803.759 1406.32L767.351 1385.31C764.426 1383.62 764.798 1380.67 768.175 1378.72L811.133 1353.92C814.509 1351.97 819.615 1351.76 822.539 1353.44L858.94 1374.46C861.858 1376.15 861.5 1379.1 858.124 1381.05L815.159 1405.85C811.782 1407.8 806.676 1408.01 803.759 1406.32Z" fill="#263C7A"/>
<path d="M859.97 1438.77L823.562 1417.76C820.645 1416.07 821.017 1413.13 824.386 1411.17L867.351 1386.37C870.728 1384.42 875.833 1384.21 878.758 1385.9L915.159 1406.91C918.076 1408.6 917.719 1411.55 914.342 1413.5L871.37 1438.3C867.993 1440.25 862.895 1440.46 859.97 1438.77" fill="#263C7A"/>
<path d="M916.185 1471.23L879.776 1450.22C876.859 1448.53 877.224 1445.58 880.601 1443.63L923.565 1418.82C926.942 1416.88 932.04 1416.66 934.972 1418.36L971.373 1439.37C974.291 1441.06 973.933 1444 970.557 1445.95L927.584 1470.75C924.207 1472.71 919.102 1472.91 916.185 1471.23" fill="#263C7A"/>
<path d="M993.933 1444.43L957.532 1423.41C954.607 1421.73 954.972 1418.78 958.349 1416.83L994.414 1396C997.791 1394.06 1002.9 1393.85 1005.82 1395.54L1042.22 1416.55C1045.14 1418.24 1044.77 1421.18 1041.41 1423.13L1005.33 1443.96C1001.96 1445.9 996.858 1446.11 993.933 1444.43" fill="#263C7A"/>
<path d="M1050.15 1476.88L1013.75 1455.86C1010.82 1454.18 1011.19 1451.23 1014.57 1449.28L1050.63 1428.46C1054.01 1426.52 1059.11 1426.3 1062.04 1427.99L1098.44 1449.01C1101.36 1450.68 1100.99 1453.64 1097.62 1455.58L1061.55 1476.41C1058.17 1478.35 1053.07 1478.57 1050.15 1476.88" fill="#263C7A"/>
<path d="M1106.37 1509.33L1069.96 1488.32C1067.03 1486.63 1067.4 1483.68 1070.78 1481.73L1106.85 1460.91C1110.22 1458.96 1115.32 1458.75 1118.25 1460.44L1154.65 1481.45C1157.57 1483.14 1157.21 1486.09 1153.84 1488.03L1117.77 1508.85C1114.39 1510.81 1109.28 1511.02 1106.37 1509.33" fill="#263C7A"/>
<path d="M1162.58 1541.79L1126.18 1520.77C1123.25 1519.08 1123.62 1516.13 1126.99 1514.19L1163.06 1493.37C1166.43 1491.41 1171.54 1491.21 1174.46 1492.88L1210.86 1513.9C1213.79 1515.59 1213.42 1518.54 1210.05 1520.49L1173.98 1541.31C1170.61 1543.26 1165.5 1543.47 1162.58 1541.79" fill="#263C7A"/>
<path d="M1218.8 1574.24L1182.39 1553.22C1179.47 1551.53 1179.83 1548.58 1183.21 1546.64L1219.28 1525.82C1222.65 1523.87 1227.76 1523.65 1230.68 1525.34L1267.09 1546.36C1270 1548.04 1269.64 1550.99 1266.27 1552.94L1230.2 1573.76C1226.82 1575.71 1221.71 1575.92 1218.8 1574.24Z" fill="#263C7A"/>
<path d="M1275.01 1606.68L1238.61 1585.67C1235.69 1583.99 1236.05 1581.04 1239.43 1579.09L1275.49 1558.27C1278.87 1556.32 1283.98 1556.1 1286.9 1557.8L1323.3 1578.81C1326.22 1580.5 1325.85 1583.44 1322.49 1585.39L1286.41 1606.22C1283.04 1608.16 1277.93 1608.37 1275.01 1606.68Z" fill="#263C7A"/>
<path d="M1331.23 1639.13L1294.83 1618.12C1291.89 1616.44 1292.27 1613.49 1295.64 1611.54L1331.71 1590.72C1335.09 1588.77 1340.18 1588.56 1343.12 1590.25L1379.52 1611.26C1382.43 1612.95 1382.07 1615.9 1378.7 1617.84L1342.63 1638.67C1339.25 1640.61 1334.15 1640.83 1331.23 1639.13Z" fill="#263C7A"/>
<path d="M1387.44 1671.59L1351.04 1650.58C1348.11 1648.89 1348.49 1645.95 1351.86 1643.99L1387.92 1623.17C1391.3 1621.23 1396.4 1621.01 1399.33 1622.7L1435.73 1643.72C1438.65 1645.41 1438.29 1648.35 1434.91 1650.29L1398.84 1671.12C1395.47 1673.07 1390.36 1673.28 1387.44 1671.59Z" fill="#263C7A"/>
<path d="M1443.65 1704.05L1407.25 1683.03C1404.33 1681.34 1404.69 1678.4 1408.07 1676.44L1444.14 1655.62C1447.51 1653.68 1452.62 1653.47 1455.54 1655.15L1491.94 1676.17C1494.86 1677.86 1494.5 1680.8 1491.13 1682.75L1455.05 1703.57C1451.68 1705.52 1446.57 1705.73 1443.65 1704.05Z" fill="#263C7A"/>
<path d="M1499.87 1736.5L1463.47 1715.48C1460.55 1713.79 1460.91 1710.84 1464.29 1708.9L1500.35 1688.08C1503.73 1686.14 1508.83 1685.92 1511.76 1687.61L1548.16 1708.63C1551.08 1710.3 1550.72 1713.25 1547.34 1715.2L1511.27 1736.02C1507.89 1737.97 1502.79 1738.18 1499.87 1736.5Z" fill="#263C7A"/>
<path d="M1076.76 1429.07L1040.36 1408.05C1037.44 1406.36 1037.8 1403.41 1041.18 1401.46L1077.25 1380.64C1080.62 1378.69 1085.73 1378.49 1088.65 1380.16L1125.05 1401.18C1127.98 1402.87 1127.6 1405.82 1124.24 1407.77L1088.17 1428.59C1084.79 1430.54 1079.69 1430.75 1076.76 1429.07" fill="#4067B1"/>
<path d="M1019.71 1396.13L983.306 1375.11C980.382 1373.43 980.746 1370.47 984.123 1368.53L1020.19 1347.7C1023.57 1345.76 1028.67 1345.55 1031.6 1347.24L1068 1368.25C1070.91 1369.93 1070.56 1372.88 1067.18 1374.83L1031.11 1395.65C1027.74 1397.6 1022.62 1397.81 1019.71 1396.13" fill="#4067B1"/>
<path d="M962.556 1363.14L884.16 1317.87C881.243 1316.19 881.6 1313.24 884.977 1311.29L921.05 1290.47C924.419 1288.52 929.532 1288.32 932.449 1290L1010.85 1335.26C1013.77 1336.95 1013.41 1339.9 1010.03 1341.84L973.955 1362.66C970.593 1364.62 965.481 1364.82 962.556 1363.14Z" fill="#263C7A"/>
<path d="M1002.51 1323.02L938.882 1286.28C935.964 1284.59 936.322 1281.66 939.698 1279.7L975.771 1258.88C979.141 1256.93 984.253 1256.72 987.171 1258.41L1050.8 1295.13C1053.72 1296.82 1053.35 1299.77 1049.97 1301.72L1013.91 1322.54C1010.53 1324.49 1005.43 1324.7 1002.51 1323.02" fill="#263C7A"/>
<path d="M1132.97 1461.52L1096.57 1440.5C1093.66 1438.81 1094.02 1435.86 1097.39 1433.92L1133.46 1413.1C1136.83 1411.15 1141.95 1410.93 1144.86 1412.62L1181.26 1433.63C1184.2 1435.32 1183.82 1438.27 1180.45 1440.22L1144.38 1461.04C1141.01 1462.99 1135.91 1463.2 1132.97 1461.52" fill="#4067B1"/>
<path d="M1189.19 1493.96L1152.79 1472.95C1149.87 1471.27 1150.23 1468.32 1153.61 1466.37L1189.68 1445.55C1193.05 1443.6 1198.16 1443.38 1201.08 1445.07L1237.48 1466.09C1240.4 1467.78 1240.04 1470.72 1236.66 1472.67L1200.6 1493.5C1197.22 1495.44 1192.11 1495.65 1189.19 1493.96Z" fill="#263C7A"/>
<path d="M1245.41 1526.42L1209.01 1505.41C1206.09 1503.72 1206.45 1500.78 1209.82 1498.82L1245.89 1478C1249.27 1476.05 1254.38 1475.84 1257.29 1477.53L1293.7 1498.54C1296.62 1500.23 1296.26 1503.18 1292.88 1505.12L1256.81 1525.95C1253.44 1527.89 1248.33 1528.11 1245.41 1526.42Z" fill="#263C7A"/>
<path d="M1301.63 1558.86L1265.23 1537.85C1262.3 1536.16 1262.67 1533.22 1266.04 1531.27L1302.12 1510.45C1305.49 1508.5 1310.59 1508.29 1313.51 1509.98L1349.92 1530.99C1352.84 1532.68 1352.47 1535.63 1349.1 1537.57L1313.03 1558.4C1309.66 1560.34 1304.55 1560.56 1301.63 1558.86Z" fill="#263C7A"/>
<path d="M1357.83 1591.33L1321.43 1570.31C1318.51 1568.62 1318.88 1565.68 1322.25 1563.72L1358.32 1542.9C1361.7 1540.96 1366.8 1540.75 1369.72 1542.43L1406.12 1563.45C1409.05 1565.14 1408.68 1568.08 1405.31 1570.03L1369.24 1590.85C1365.86 1592.8 1360.76 1593.01 1357.83 1591.33Z" fill="#263C7A"/>
<path d="M1414.05 1623.78L1377.65 1602.76C1374.73 1601.07 1375.09 1598.12 1378.47 1596.18L1414.54 1575.36C1417.92 1573.41 1423.02 1573.2 1425.94 1574.89L1462.34 1595.9C1465.27 1597.58 1464.9 1600.53 1461.52 1602.48L1425.46 1623.31C1422.08 1625.25 1416.98 1625.46 1414.05 1623.78Z" fill="#263C7A"/>
<path d="M1470.27 1656.23L1433.87 1635.21C1430.95 1633.53 1431.31 1630.57 1434.68 1628.63L1470.76 1607.81C1474.13 1605.86 1479.24 1605.65 1482.16 1607.34L1518.56 1628.35C1521.48 1630.03 1521.12 1632.98 1517.74 1634.93L1481.68 1655.75C1478.3 1657.7 1473.19 1657.91 1470.27 1656.23Z" fill="#263C7A"/>
<path d="M1526.48 1688.68L1490.08 1667.67C1487.16 1665.98 1487.52 1663.03 1490.9 1661.09L1526.97 1640.26C1530.35 1638.31 1535.45 1638.11 1538.37 1639.79L1574.77 1660.8C1577.7 1662.49 1577.33 1665.44 1573.96 1667.39L1537.89 1688.21C1534.51 1690.16 1529.41 1690.37 1526.48 1688.68" fill="#263C7A"/>
<path d="M1582.7 1721.13L1546.29 1700.12C1543.38 1698.43 1543.74 1695.48 1547.11 1693.53L1583.18 1672.72C1586.56 1670.76 1591.67 1670.55 1594.58 1672.24L1630.98 1693.25C1633.92 1694.95 1633.54 1697.89 1630.17 1699.83L1594.1 1720.66C1590.73 1722.61 1585.63 1722.82 1582.7 1721.13Z" fill="#263C7A"/>
<path d="M1682.64 1778.82L1603.21 1732.97C1600.29 1731.28 1600.65 1728.34 1604.03 1726.39L1640.09 1705.57C1643.47 1703.62 1648.58 1703.41 1651.5 1705.1L1730.93 1750.94C1733.85 1752.64 1733.48 1755.58 1730.11 1757.54L1694.04 1778.35C1690.67 1780.3 1685.56 1780.51 1682.64 1778.82" fill="#263C7A"/>
<path d="M1792.08 1715.64L1725.05 1676.95C1722.12 1675.26 1722.49 1672.31 1725.86 1670.35L1761.94 1649.54C1765.31 1647.59 1770.41 1647.38 1773.34 1649.07L1840.37 1687.77C1843.29 1689.46 1842.93 1692.4 1839.55 1694.35L1803.49 1715.17C1800.11 1717.12 1795 1717.33 1792.08 1715.64Z" fill="#263C7A"/>
<path d="M1231.42 1455.17L1195.02 1434.15C1192.1 1432.46 1192.46 1429.51 1195.84 1427.57L1231.91 1406.75C1235.29 1404.8 1240.39 1404.59 1243.31 1406.28L1279.71 1427.29C1282.64 1428.97 1282.27 1431.92 1278.89 1433.87L1242.83 1454.69C1239.45 1456.64 1234.35 1456.85 1231.42 1455.17Z" fill="#263C7A"/>
<path d="M1173.81 1421.91L1137.41 1400.89C1134.48 1399.2 1134.85 1396.26 1138.22 1394.31L1174.29 1373.48C1177.67 1371.54 1182.77 1371.33 1185.7 1373.02L1222.1 1394.03C1225.02 1395.71 1224.66 1398.66 1221.28 1400.61L1185.21 1421.43C1181.83 1423.38 1176.73 1423.6 1173.81 1421.91Z" fill="#263C7A"/>
<path d="M1116.19 1388.65L1079.79 1367.64C1076.87 1365.95 1077.24 1363 1080.61 1361.04L1116.68 1340.23C1120.06 1338.28 1125.16 1338.07 1128.08 1339.75L1164.49 1360.77C1167.4 1362.46 1167.04 1365.41 1163.66 1367.35L1127.6 1388.17C1124.22 1390.13 1119.11 1390.33 1116.19 1388.65" fill="#4067B1"/>
<path d="M1058.58 1355.38L1022.18 1334.37C1019.25 1332.69 1019.62 1329.74 1023 1327.79L1059.06 1306.96C1062.44 1305.02 1067.54 1304.8 1070.47 1306.5L1106.87 1327.51C1109.79 1329.2 1109.43 1332.15 1106.05 1334.09L1069.98 1354.92C1066.61 1356.86 1061.5 1357.07 1058.58 1355.38" fill="#263C7A"/>
<path d="M1287.64 1487.62L1251.24 1466.6C1248.32 1464.92 1248.68 1461.96 1252.05 1460.02L1288.13 1439.2C1291.5 1437.25 1296.61 1437.04 1299.53 1438.73L1335.93 1459.74C1338.85 1461.42 1338.49 1464.37 1335.11 1466.32L1299.04 1487.14C1295.67 1489.09 1290.56 1489.3 1287.64 1487.62Z" fill="#263C7A"/>
<path d="M1343.85 1520.07L1307.45 1499.05C1304.54 1497.37 1304.89 1494.41 1308.27 1492.47L1344.34 1471.65C1347.72 1469.7 1352.82 1469.49 1355.74 1471.18L1392.14 1492.19C1395.07 1493.87 1394.7 1496.83 1391.33 1498.77L1355.26 1519.6C1351.88 1521.54 1346.78 1521.75 1343.85 1520.07Z" fill="#263C7A"/>
<path d="M1400.06 1552.52L1363.67 1531.51C1360.74 1529.82 1361.11 1526.87 1364.49 1524.92L1400.56 1504.11C1403.93 1502.15 1409.03 1501.94 1411.96 1503.63L1448.35 1524.64C1451.28 1526.33 1450.91 1529.28 1447.54 1531.22L1411.47 1552.05C1408.1 1554 1402.99 1554.21 1400.06 1552.52Z" fill="#263C7A"/>
<path d="M1456.28 1584.97L1419.88 1563.96C1416.96 1562.27 1417.33 1559.33 1420.7 1557.37L1456.77 1536.56C1460.15 1534.6 1465.25 1534.39 1468.17 1536.08L1504.57 1557.09C1507.5 1558.79 1507.13 1561.73 1503.75 1563.68L1467.69 1584.5C1464.31 1586.45 1459.21 1586.66 1456.28 1584.97Z" fill="#263C7A"/>
<path d="M1512.5 1617.43L1476.1 1596.42C1473.18 1594.72 1473.54 1591.78 1476.91 1589.82L1512.99 1569.01C1516.36 1567.06 1521.47 1566.85 1524.39 1568.54L1560.79 1589.55C1563.71 1591.24 1563.35 1594.18 1559.97 1596.13L1523.91 1616.95C1520.53 1618.91 1515.42 1619.11 1512.5 1617.43Z" fill="#263C7A"/>
<path d="M1568.71 1649.88L1532.31 1628.86C1529.39 1627.18 1529.76 1624.23 1533.13 1622.28L1569.2 1601.45C1572.58 1599.51 1577.68 1599.3 1580.6 1600.99L1617 1622C1619.93 1623.69 1619.56 1626.63 1616.19 1628.58L1580.12 1649.4C1576.74 1651.35 1571.64 1651.56 1568.71 1649.88Z" fill="#263C7A"/>
<path d="M1624.92 1682.33L1588.53 1661.31C1585.61 1659.63 1585.98 1656.68 1589.35 1654.73L1625.42 1633.91C1628.79 1631.97 1633.89 1631.75 1636.82 1633.44L1673.21 1654.46C1676.14 1656.14 1675.77 1659.09 1672.4 1661.03L1636.33 1681.86C1632.96 1683.8 1627.86 1684.01 1624.92 1682.33Z" fill="#263C7A"/>
<path d="M1681.14 1714.78L1644.74 1693.76C1641.82 1692.08 1642.19 1689.13 1645.56 1687.18L1681.63 1666.36C1685.01 1664.42 1690.11 1664.21 1693.03 1665.89L1729.43 1686.91C1732.36 1688.58 1731.99 1691.54 1728.61 1693.49L1692.55 1714.31C1689.17 1716.25 1684.07 1716.47 1681.14 1714.78Z" fill="#263C7A"/>
<path d="M1737.36 1747.23L1700.96 1726.22C1698.04 1724.53 1698.4 1721.58 1701.77 1719.64L1737.85 1698.82C1741.22 1696.86 1746.33 1696.66 1749.24 1698.34L1785.65 1719.35C1788.57 1721.04 1788.21 1723.99 1784.83 1725.94L1748.76 1746.76C1745.39 1748.71 1740.28 1748.92 1737.36 1747.23Z" fill="#263C7A"/>
<path d="M1201.82 1374.9L1165.41 1353.88C1162.5 1352.2 1162.86 1349.24 1166.24 1347.3L1202.3 1326.47C1205.68 1324.53 1210.78 1324.32 1213.71 1326.01L1250.11 1347.02C1253.04 1348.7 1252.66 1351.65 1249.29 1353.6L1213.22 1374.42C1209.84 1376.37 1204.75 1376.58 1201.82 1374.9Z" fill="#263C7A"/>
<path d="M1145.89 1342.61L1109.48 1321.59C1106.57 1319.91 1106.93 1316.95 1110.31 1315.01L1146.37 1294.19C1149.75 1292.24 1154.85 1292.03 1157.78 1293.71L1194.18 1314.73C1197.1 1316.41 1196.73 1319.37 1193.36 1321.31L1157.29 1342.13C1153.91 1344.08 1148.81 1344.29 1145.89 1342.61" fill="#263C7A"/>
<path d="M1089.95 1310.31L1053.55 1289.31C1050.63 1287.61 1050.99 1284.67 1054.37 1282.71L1090.43 1261.9C1093.81 1259.95 1098.92 1259.74 1101.84 1261.42L1138.24 1282.44C1141.17 1284.13 1140.79 1287.08 1137.42 1289.01L1101.35 1309.84C1097.97 1311.79 1092.88 1312 1089.95 1310.31" fill="#263C7A"/>
<path d="M1034.02 1278.02L997.617 1257.01C994.692 1255.31 995.057 1252.38 998.434 1250.42L1034.5 1229.6C1037.88 1227.65 1042.98 1227.44 1045.91 1229.13L1082.31 1250.14C1085.22 1251.84 1084.87 1254.77 1081.49 1256.73L1045.42 1277.55C1042.04 1279.5 1036.94 1279.71 1034.02 1278.02" fill="#263C7A"/>
<path d="M1091.54 1244.82L1055.13 1223.81C1052.21 1222.12 1052.58 1219.17 1055.96 1217.23L1067.88 1210.34C1071.25 1208.39 1076.36 1208.18 1079.28 1209.87L1115.68 1230.88C1118.6 1232.56 1118.24 1235.52 1114.87 1237.46L1102.94 1244.34C1099.56 1246.3 1094.46 1246.51 1091.54 1244.82Z" fill="#263C7A"/>
<path d="M1164.53 1286.96L1128.13 1265.94C1125.21 1264.25 1125.58 1261.31 1128.94 1259.36L1140.87 1252.48C1144.24 1250.53 1149.35 1250.32 1152.27 1252L1188.67 1273.02C1191.6 1274.7 1191.23 1277.65 1187.86 1279.6L1175.93 1286.48C1172.56 1288.43 1167.46 1288.65 1164.53 1286.96Z" fill="#263C7A"/>
<path d="M1220.23 1319.11L1183.83 1298.1C1180.91 1296.41 1181.27 1293.47 1184.65 1291.52L1196.57 1284.63C1199.95 1282.69 1205.06 1282.47 1207.97 1284.16L1244.38 1305.18C1247.3 1306.87 1246.93 1309.81 1243.56 1311.76L1231.64 1318.65C1228.26 1320.59 1223.15 1320.8 1220.23 1319.11Z" fill="#263C7A"/>
<path d="M1275.94 1351.27L1239.54 1330.26C1236.61 1328.57 1236.98 1325.62 1240.35 1323.67L1252.28 1316.79C1255.65 1314.84 1260.76 1314.62 1263.68 1316.32L1300.08 1337.33C1303 1339.02 1302.64 1341.96 1299.26 1343.92L1287.34 1350.8C1283.96 1352.75 1278.85 1352.95 1275.94 1351.27Z" fill="#263C7A"/>
<path d="M1331.64 1383.43L1295.24 1362.41C1292.31 1360.72 1292.68 1357.78 1296.06 1355.84L1307.98 1348.94C1311.36 1347.01 1316.45 1346.79 1319.39 1348.48L1355.79 1369.49C1358.7 1371.17 1358.34 1374.12 1354.97 1376.07L1343.04 1382.95C1339.67 1384.9 1334.56 1385.12 1331.64 1383.43Z" fill="#263C7A"/>
<path d="M1642.62 1562.95L1606.22 1541.93C1603.29 1540.25 1603.66 1537.29 1607.04 1535.35L1618.96 1528.46C1622.34 1526.52 1627.43 1526.31 1630.36 1528L1666.77 1549.01C1669.69 1550.7 1669.32 1553.65 1665.94 1555.59L1654.03 1562.47C1650.65 1564.42 1645.54 1564.63 1642.62 1562.95Z" fill="#263C7A"/>
<path d="M1698.32 1595.1L1661.92 1574.09C1658.99 1572.41 1659.36 1569.45 1662.73 1567.51L1674.66 1560.63C1678.03 1558.68 1683.14 1558.46 1686.06 1560.15L1722.46 1581.17C1725.39 1582.85 1725.02 1585.8 1721.64 1587.74L1709.71 1594.64C1706.35 1596.58 1701.24 1596.79 1698.32 1595.1" fill="#263C7A"/>
<path d="M1754.02 1627.26L1717.62 1606.25C1714.7 1604.56 1715.06 1601.62 1718.44 1599.67L1730.36 1592.78C1733.73 1590.83 1738.84 1590.63 1741.76 1592.31L1778.16 1613.32C1781.09 1615.01 1780.72 1617.96 1777.35 1619.91L1765.42 1626.79C1762.05 1628.74 1756.95 1628.96 1754.02 1627.26Z" fill="#263C7A"/>
<path d="M1809.72 1659.41L1773.32 1638.4C1770.41 1636.71 1770.76 1633.77 1774.14 1631.82L1786.06 1624.94C1789.44 1622.99 1794.55 1622.78 1797.47 1624.46L1833.87 1645.48C1836.79 1647.17 1836.43 1650.11 1833.05 1652.06L1821.13 1658.95C1817.75 1660.89 1812.65 1661.11 1809.72 1659.41Z" fill="#263C7A"/>
<path d="M1258.04 1407.35L1221.63 1386.33C1218.71 1384.65 1219.08 1381.69 1222.45 1379.75L1258.52 1358.93C1261.9 1356.98 1267 1356.77 1269.93 1358.45L1306.33 1379.47C1309.25 1381.15 1308.88 1384.11 1305.5 1386.06L1269.44 1406.88C1266.06 1408.82 1260.96 1409.03 1258.04 1407.35Z" fill="#263C7A"/>
<path d="M1314.26 1439.8L1277.85 1418.78C1274.93 1417.1 1275.3 1414.15 1278.67 1412.2L1314.74 1391.39C1318.12 1389.43 1323.21 1389.22 1326.15 1390.91L1362.55 1411.92C1365.46 1413.61 1365.1 1416.56 1361.72 1418.5L1325.66 1439.33C1322.28 1441.27 1317.18 1441.49 1314.26 1439.8Z" fill="#263C7A"/>
<path d="M1370.47 1472.25L1334.07 1451.24C1331.14 1449.55 1331.51 1446.61 1334.89 1444.65L1370.96 1423.84C1374.33 1421.88 1379.43 1421.67 1382.36 1423.36L1418.76 1444.37C1421.68 1446.07 1421.31 1449.01 1417.93 1450.95L1381.87 1471.78C1378.5 1473.73 1373.39 1473.94 1370.47 1472.25Z" fill="#263C7A"/>
<path d="M1426.68 1504.71L1390.28 1483.7C1387.36 1482 1387.72 1479.06 1391.1 1477.1L1427.17 1456.28C1430.54 1454.34 1435.65 1454.12 1438.57 1455.82L1474.97 1476.83C1477.9 1478.52 1477.53 1481.46 1474.15 1483.41L1438.08 1504.23C1434.71 1506.19 1429.61 1506.39 1426.68 1504.71Z" fill="#263C7A"/>
<path d="M1482.9 1537.16L1446.5 1516.14C1443.57 1514.45 1443.94 1511.51 1447.32 1509.56L1483.38 1488.73C1486.76 1486.79 1491.86 1486.58 1494.79 1488.27L1531.19 1509.28C1534.11 1510.97 1533.74 1513.91 1530.37 1515.86L1494.3 1536.68C1490.92 1538.63 1485.82 1538.84 1482.9 1537.16Z" fill="#263C7A"/>
<path d="M1539.12 1569.61L1502.72 1548.59C1499.79 1546.91 1500.16 1543.96 1503.54 1542.01L1539.6 1521.19C1542.98 1519.25 1548.08 1519.03 1551.01 1520.72L1587.41 1541.74C1590.33 1543.42 1589.96 1546.37 1586.59 1548.31L1550.52 1569.14C1547.14 1571.08 1542.04 1571.29 1539.12 1569.61Z" fill="#263C7A"/>
<path d="M1595.33 1602.06L1558.94 1581.04C1556 1579.36 1556.38 1576.41 1559.75 1574.46L1595.82 1553.64C1599.19 1551.7 1604.29 1551.49 1607.22 1553.17L1643.62 1574.19C1646.54 1575.86 1646.17 1578.82 1642.8 1580.76L1606.73 1601.59C1603.36 1603.53 1598.25 1603.75 1595.33 1602.06Z" fill="#263C7A"/>
<path d="M1651.55 1634.51L1615.14 1613.5C1612.22 1611.81 1612.58 1608.86 1615.96 1606.92L1652.03 1586.1C1655.4 1584.14 1660.51 1583.94 1663.43 1585.62L1699.84 1606.63C1702.76 1608.32 1702.39 1611.27 1699.02 1613.22L1662.95 1634.04C1659.57 1635.99 1654.47 1636.2 1651.55 1634.51Z" fill="#263C7A"/>
<path d="M1707.76 1666.97L1671.36 1645.95C1668.44 1644.26 1668.8 1641.31 1672.18 1639.37L1708.24 1618.55C1711.62 1616.59 1716.73 1616.39 1719.65 1618.07L1756.05 1639.08C1758.97 1640.77 1758.6 1643.72 1755.24 1645.68L1719.16 1666.49C1715.79 1668.44 1710.68 1668.65 1707.76 1666.97Z" fill="#263C7A"/>
<path d="M936.646 1411.35L829.441 1349.47C826.516 1347.78 826.881 1344.83 830.258 1342.89L866.33 1322.06C869.707 1320.11 874.805 1319.91 877.73 1321.59L984.935 1383.48C987.86 1385.17 987.495 1388.11 984.118 1390.06L948.053 1410.88C944.676 1412.83 939.57 1413.04 936.646 1411.35" fill="#263C7A"/>
<path d="M1627.27 1810.04L1520.05 1748.14C1517.14 1746.46 1517.5 1743.52 1520.88 1741.57L1556.94 1720.75C1560.32 1718.8 1565.43 1718.59 1568.35 1720.27L1675.56 1782.16C1678.47 1783.85 1678.11 1786.79 1674.73 1788.75L1638.67 1809.56C1635.29 1811.52 1630.19 1811.73 1627.27 1810.04Z" fill="#263C7A"/>
<path d="M1402.45 1751.94L1366.05 1730.92C1363.13 1729.24 1363.49 1726.29 1366.87 1724.35L1409.84 1699.54C1413.2 1697.59 1418.31 1697.38 1421.24 1699.06L1457.64 1720.08C1460.56 1721.76 1460.19 1724.72 1456.83 1726.66L1413.85 1751.47C1410.48 1753.41 1405.37 1753.63 1402.45 1751.94Z" fill="#263C7A"/>
<path d="M994.216 1516.28L935.994 1482.66C933.076 1480.97 933.441 1478.03 936.818 1476.08L979.776 1451.27C983.152 1449.33 988.258 1449.12 991.182 1450.8L1049.4 1484.41C1052.33 1486.1 1051.96 1489.05 1048.58 1490.99L1005.62 1515.79C1002.24 1517.75 997.134 1517.95 994.216 1516.28" fill="#263C7A"/>
<path d="M1348.29 1720.67L1290.07 1687.06C1287.15 1685.38 1287.52 1682.43 1290.89 1680.48L1333.86 1655.68C1337.23 1653.73 1342.34 1653.52 1345.26 1655.2L1403.48 1688.81C1406.4 1690.5 1406.04 1693.44 1402.66 1695.4L1359.69 1720.2C1356.31 1722.15 1351.21 1722.36 1348.29 1720.67Z" fill="#263C7A"/>
<path d="M1075.32 1563.09L1017.11 1529.48C1014.18 1527.8 1014.55 1524.85 1017.92 1522.91L1060.89 1498.1C1064.26 1496.15 1069.37 1495.93 1072.29 1497.62L1130.51 1531.23C1133.43 1532.92 1133.07 1535.86 1129.69 1537.82L1086.72 1562.62C1083.35 1564.57 1078.25 1564.78 1075.32 1563.09" fill="#263C7A"/>
<path d="M1072.69 1497.85L1325.8 1643.97C1328.93 1645.78 1328.93 1648.72 1325.8 1650.54L1281.99 1675.82C1278.84 1677.64 1273.75 1677.64 1270.61 1675.82L1017.5 1529.71L1072.69 1497.85" fill="#263C7A"/>
<path d="M1559.56 1810.78L1600.11 1834.19C1602.5 1835.57 1602.21 1837.99 1599.44 1839.59L1581.86 1849.73C1579.1 1851.33 1574.91 1851.5 1572.52 1850.12L1531.97 1826.71C1529.57 1825.32 1529.87 1822.91 1532.64 1821.32L1550.22 1811.17C1552.98 1809.57 1557.17 1809.4 1559.56 1810.78Z" fill="#263C7A"/>
<path d="M1502.89 1778.06L1543.44 1801.47C1545.83 1802.84 1545.53 1805.26 1542.76 1806.86L1525.19 1817.01C1522.42 1818.61 1518.23 1818.78 1515.83 1817.4L1475.29 1793.99C1472.9 1792.6 1473.19 1790.19 1475.97 1788.59L1493.54 1778.45C1496.31 1776.85 1500.49 1776.68 1502.89 1778.06Z" fill="#263C7A"/>
<path d="M1446.67 1745.61L1487.22 1769.02C1489.61 1770.39 1489.31 1772.81 1486.55 1774.41L1468.97 1784.56C1466.2 1786.15 1462.01 1786.33 1459.62 1784.94L1419.08 1761.53C1416.68 1760.16 1416.98 1757.74 1419.75 1756.14L1437.32 1746C1440.09 1744.4 1444.27 1744.22 1446.67 1745.61" fill="#263C7A"/>
<path d="M1533.93 1760.14L1574.47 1783.55C1576.87 1784.93 1576.56 1787.34 1573.81 1788.94L1556.22 1799.09C1553.47 1800.69 1549.27 1800.86 1546.88 1799.48L1506.34 1776.07C1503.94 1774.68 1504.24 1772.27 1507 1770.67L1524.58 1760.53C1527.34 1758.93 1531.53 1758.76 1533.93 1760.14Z" fill="#263C7A"/>
<path d="M1594.27 961.041L1559.46 940.943C1556.23 939.076 1553.55 934.051 1553.48 929.712C1553.41 925.373 1555.97 923.375 1559.2 925.235L1594.02 945.34C1597.24 947.2 1599.93 952.224 1599.99 956.563C1600.06 960.895 1597.51 962.908 1594.27 961.041Z" fill="#D9EFFB"/>
<path d="M1677.2 1008.92L1625.86 979.281C1622.64 977.414 1619.96 972.383 1619.89 968.051C1619.82 963.712 1622.39 961.714 1625.62 963.573L1676.95 993.21C1680.19 995.077 1682.85 1000.1 1682.92 1004.44C1682.99 1008.78 1680.44 1010.78 1677.2 1008.92Z" fill="#D9EFFB"/>
<path d="M1577.02 1146.68L1542.21 1126.58C1538.98 1124.71 1536.3 1119.69 1536.23 1115.35C1536.16 1111.01 1538.72 1109.01 1541.95 1110.87L1576.77 1130.98C1580 1132.83 1582.67 1137.86 1582.74 1142.2C1582.81 1146.53 1580.25 1148.55 1577.02 1146.68Z" fill="#D9EFFB"/>
<path d="M1650.95 1189.35L1599.62 1159.72C1596.38 1157.85 1593.71 1152.83 1593.64 1148.49C1593.57 1144.15 1596.13 1142.15 1599.35 1144.02L1650.7 1173.65C1653.93 1175.51 1656.6 1180.54 1656.67 1184.88C1656.75 1189.22 1654.18 1191.22 1650.95 1189.35" fill="#D9EFFB"/>
<path d="M1498.81 938.528L1477.06 925.971C1473.83 924.104 1471.15 919.079 1471.08 914.74C1471.01 910.401 1473.57 908.403 1476.8 910.27L1498.55 922.828C1501.79 924.68 1504.46 929.712 1504.53 934.051C1504.6 938.382 1502.04 940.395 1498.81 938.528" fill="#D9EFFB"/>
<path d="M1573.08 1014.01L1506.63 975.64C1503.39 973.773 1500.72 968.749 1500.65 964.417C1500.59 960.078 1503.14 958.072 1506.37 959.932L1572.83 998.298C1576.05 1000.16 1578.73 1005.2 1578.8 1009.53C1578.87 1013.87 1576.31 1015.87 1573.08 1014.01Z" fill="#D9EFFB"/>
<path d="M1529.45 1054.01L1507.69 1041.46C1504.47 1039.59 1501.79 1034.57 1501.72 1030.23C1501.65 1025.89 1504.21 1023.89 1507.44 1025.76L1529.19 1038.31C1532.42 1040.17 1535.09 1045.2 1535.17 1049.54C1535.23 1053.87 1532.67 1055.88 1529.45 1054.01" fill="#D9EFFB"/>
<path d="M1676.62 1269.38L1618.53 1235.84C1615.3 1233.98 1612.63 1228.95 1612.56 1224.61C1612.48 1220.28 1615.05 1218.26 1618.27 1220.13L1676.37 1253.67C1679.6 1255.53 1682.27 1260.56 1682.34 1264.9C1682.41 1269.24 1679.85 1271.24 1676.62 1269.38Z" fill="#D9EFFB"/>
<path d="M1522.72 1115.33L1508.76 1107.28C1505.53 1105.41 1502.86 1100.38 1502.78 1096.05C1502.72 1091.71 1505.28 1089.7 1508.5 1091.56L1522.47 1099.63C1525.7 1101.5 1528.37 1106.52 1528.44 1110.86C1528.51 1115.2 1525.95 1117.2 1522.72 1115.33" fill="#D9EFFB"/>
<path d="M1527.17 1183.09L1509.83 1173.08C1506.6 1171.22 1503.93 1166.19 1503.86 1161.85C1503.78 1157.51 1506.35 1155.52 1509.57 1157.38L1526.91 1167.39C1530.14 1169.26 1532.81 1174.28 1532.88 1178.62C1532.96 1182.95 1530.4 1184.96 1527.17 1183.09Z" fill="#D9EFFB"/>
<path d="M1594.61 1222.03L1548.91 1195.65C1545.68 1193.78 1543 1188.75 1542.93 1184.42C1542.85 1180.08 1545.42 1178.07 1548.64 1179.93L1594.36 1206.33C1597.58 1208.18 1600.27 1213.22 1600.33 1217.56C1600.4 1221.89 1597.84 1223.9 1594.61 1222.03Z" fill="#D9EFFB"/>
<path d="M1543.22 1224.96L1510.36 1206C1507.13 1204.13 1504.46 1199.1 1504.39 1194.77C1504.31 1190.43 1506.88 1188.42 1510.1 1190.29L1542.97 1209.26C1546.2 1211.12 1548.87 1216.15 1548.94 1220.49C1549.01 1224.83 1546.46 1226.83 1543.22 1224.96Z" fill="#D9EFFB"/>
<path d="M1726.49 1298.3L1705.39 1286.12C1702.16 1284.26 1699.48 1279.23 1699.41 1274.9C1699.34 1270.56 1701.9 1268.55 1705.13 1270.42L1726.24 1282.6C1729.47 1284.46 1732.15 1289.5 1732.21 1293.83C1732.29 1298.17 1729.72 1300.17 1726.49 1298.3" fill="#D9EFFB"/>
<path d="M1610.35 1100.72L1552.25 1067.19C1549.02 1065.32 1546.35 1060.29 1546.28 1055.95C1546.21 1051.62 1548.78 1049.61 1552 1051.48L1610.09 1085.02C1613.33 1086.88 1616 1091.91 1616.07 1096.25C1616.14 1100.59 1613.58 1102.58 1610.35 1100.72Z" fill="#D9EFFB"/>
<path d="M1608.4 1066.99L1507.16 1008.54C1503.93 1006.68 1501.25 1001.65 1501.19 997.312C1501.12 992.98 1503.67 990.975 1506.91 992.842L1608.16 1051.29C1611.38 1053.16 1614.06 1058.18 1614.13 1062.52C1614.2 1066.86 1611.64 1068.86 1608.4 1066.99Z" fill="#D9EFFB"/>
<path d="M1566.31 1107.91L1508.22 1074.37C1505 1072.5 1502.32 1067.48 1502.25 1063.14C1502.18 1058.8 1504.74 1056.79 1507.97 1058.66L1566.06 1092.19C1569.29 1094.06 1571.97 1099.09 1572.04 1103.42C1572.1 1107.76 1569.55 1109.77 1566.31 1107.91" fill="#D9EFFB"/>
<path d="M1654.4 1126.15L1633.3 1113.97C1630.06 1112.11 1627.39 1107.08 1627.32 1102.74C1627.26 1098.4 1629.81 1096.4 1633.05 1098.26L1654.15 1110.44C1657.38 1112.31 1660.05 1117.34 1660.13 1121.67C1660.19 1126.01 1657.63 1128.02 1654.4 1126.15" fill="#D9EFFB"/>
<path d="M1833.78 1099.32L1708.8 1027.16C1705.57 1025.29 1702.9 1020.27 1702.82 1015.93C1702.75 1011.59 1705.32 1009.59 1708.54 1011.46L1833.53 1083.6C1836.76 1085.47 1839.43 1090.5 1839.51 1094.84C1839.58 1099.17 1837.01 1101.18 1833.78 1099.32" fill="#D9EFFB"/>
<path d="M1579.12 1180.49L1509.3 1140.17C1506.06 1138.31 1503.39 1133.28 1503.32 1128.94C1503.25 1124.61 1505.81 1122.6 1509.04 1124.47L1578.87 1164.78C1582.1 1166.64 1584.77 1171.68 1584.84 1176.01C1584.91 1180.35 1582.35 1182.35 1579.12 1180.49Z" fill="#D9EFFB"/>
<path d="M1527.86 922.705L1476.53 893.069C1473.29 891.202 1470.62 886.17 1470.55 881.838C1470.48 877.499 1473.04 875.494 1476.28 877.361L1527.61 906.997C1530.84 908.864 1533.51 913.889 1533.58 918.228C1533.65 922.559 1531.09 924.565 1527.86 922.705" fill="#D9EFFB"/>
<path d="M1541.31 1256.47L1481.86 1222.14C1478.64 1220.28 1475.96 1215.25 1475.89 1210.91C1475.81 1206.57 1478.38 1204.57 1481.6 1206.44L1541.06 1240.75C1544.3 1242.62 1546.97 1247.65 1547.04 1251.99C1547.11 1256.32 1544.55 1258.33 1541.31 1256.47Z" fill="#D9EFFB"/>
<path d="M21.0885 1308.15L327.336 1129.86C388.009 1094.84 445.218 1089.3 488.445 1114.23C531.658 1139.18 555.464 1191.49 555.464 1261.54V1283.98C553.298 1285.44 551.029 1286.87 548.71 1288.29V1261.54C548.71 1194.01 526.108 1143.77 485.068 1120.08C444.022 1096.39 389.205 1101.94 330.712 1135.71L24.4652 1313.99C22.868 1314.95 20.7895 1314.39 19.856 1312.76C18.9224 1311.16 19.4767 1309.08 21.0885 1308.15" fill="#D9EFFB"/>
<path d="M976.14 1095.76V405.691C976.14 267.571 1073.48 98.9972 1193.12 29.9373C1251.7 -3.88536 1306.98 -9.24529 1348.73 14.8564C1390.48 38.9508 1413.47 89.4806 1413.47 157.133V205.249C1411.22 207.502 1408.97 209.756 1406.72 212.002V157.133C1406.72 91.9966 1384.92 43.5378 1345.35 20.6977C1305.78 -2.12781 1252.91 3.21755 1196.49 35.7786C1078.72 103.774 982.893 269.715 982.893 405.691V1095.76C982.893 1210.25 915.525 1345.76 824.154 1427.3C824.154 1424.28 824.154 1421.26 824.154 1418.24C911.914 1337.61 976.14 1206.66 976.14 1095.76" fill="#D9EFFB"/>
<path d="M1413.47 226.365C1424.56 215.835 1476.27 170.22 1551.72 158.691C1637.18 145.623 1672.49 245.552 1672.49 245.552C1672.49 245.552 1682.38 297.453 1682.02 328.176C1681.67 358.885 1679.47 470.445 1679.47 470.445L1408.57 314.415V314.371C1407.49 313.817 1406.71 312.708 1406.71 311.403V232.199C1408.97 229.953 1411.22 228.619 1413.47 226.365Z" fill="#263C7A"/>
<path d="M1605.49 162.862L1348.72 14.8535L1349.73 18.5362C1310.16 -7.02398 1250.35 -9.78065 1170.34 48.8802C1011.44 165.4 992.349 327.614 984.246 358.002C976.143 388.405 979.477 580.985 979.477 580.985C979.477 580.985 978.951 1045.47 978.419 1099.49C977.894 1153.5 962.162 1214.12 931.807 1279.56C901.453 1345.01 823.487 1424.42 823.487 1424.42V1518.96C835.937 1621.17 879.368 1645.01 943.987 1650.84C996.142 1655.53 1051.72 1617.88 1096.11 1576.85C1094.48 1578.56 1093.42 1579.64 1093.42 1579.64V1674.18C1105.87 1776.39 1149.3 1800.23 1213.93 1806.06C1278.55 1811.89 1348.43 1752.69 1395.79 1702.6C1443.14 1652.51 1483.07 1576 1505.25 1506.99C1527.44 1437.98 1520.09 1348.81 1520.09 1348.81C1520.09 1348.81 1520.62 841.072 1521.15 740.975C1521.68 640.878 1524.86 658.351 1557.7 557.722C1590.54 457.085 1677.59 386.647 1677.59 386.647L1886.48 324.449L1605.49 162.862" fill="#D9EFFB"/>
<path d="M1158.5 1797.56C1154.98 1792.77 1109.22 1762.1 1097.58 1708.07C1091.09 1678.02 1091.75 1632.34 1091.75 1632.34C1091.75 1632.34 1091.93 1606.93 1092.54 1583.83L1094.09 1582.52C1094.09 1579.5 1094.09 1576.48 1094.09 1573.46L1092.82 1574.58C1093 1569.35 1093.19 1564.46 1093.42 1560.31C1094.75 1536.3 1077 1485.1 1077 1485.1C1077 1485.1 1051.84 1416.52 976.894 1413.87C910.343 1411.52 840.297 1459.38 825.397 1470.16V1439.2C824.413 1439.87 823.341 1440.51 822.312 1441.17C822.4 1437.01 822.502 1432.77 822.611 1428.61L824.15 1427.3C824.15 1424.28 824.15 1421.26 824.15 1418.23L822.888 1419.35C823.056 1414.13 823.253 1409.24 823.486 1405.08C824.806 1381.08 807.069 1329.88 807.069 1329.88C807.069 1329.88 781.9 1261.3 706.953 1258.64C640.409 1256.29 570.364 1304.16 555.464 1314.94V1283.98C553.297 1285.44 551.029 1286.87 548.71 1288.29V1342.51C548.71 1408.2 570.597 1457.57 610.346 1482.09L610.506 1482.27L611.899 1483.08L612.986 1483.77L613.737 1484.13L888.557 1642.34L888.215 1641.97L1158.5 1797.56" fill="#263C7A"/>
<path d="M758.389 1269.46C758.389 1269.46 756.332 1268.39 752.7 1266.91C751.584 1266.38 750.512 1265.75 749.375 1265.25L488.448 1114.23C488.448 1114.23 440.509 1089.04 382.527 1110.26C324.538 1131.48 20.7051 1313.73 20.7051 1313.73L292.141 1470.09L292.192 1470.07L292.921 1470.26L562.082 1625.32C562.082 1625.32 714.367 1530.99 819.712 1470.12L826.473 1466.24C869.54 1441.47 903.753 1422.98 914.481 1420.13C979.428 1402.92 1024.63 1423.9 1036.4 1430.35L758.389 1269.46" fill="#D9EFFB"/>
<path d="M1036.39 1430.35L1039.54 1432.17C1039.54 1432.17 1038.39 1431.45 1036.39 1430.35Z" fill="#D9EFFB"/>
<path d="M1683.41 381.596C1694.5 371.058 1746.21 325.444 1821.66 313.921C1907.12 300.853 1942.43 400.775 1942.43 400.775C1942.43 400.775 1952.32 452.676 1951.97 483.399C1951.61 514.115 1949.41 625.676 1949.41 625.676L1678.52 469.638V469.602C1677.43 469.04 1676.66 467.939 1676.66 466.626V387.43C1678.91 385.176 1681.16 383.842 1683.41 381.596Z" fill="#263C7A"/>
<path d="M1211.29 1809.84C1241.16 1809.84 1274.22 1799.86 1308.44 1780.11C1427.21 1711.55 1523.84 1544.2 1523.84 1407.07V717.007C1523.84 581.031 1619.66 415.09 1737.44 347.08C1793.85 314.533 1846.72 309.166 1886.29 332.006C1925.86 354.861 1947.65 403.305 1947.65 468.449V622.714C1947.65 624.581 1949.16 626.091 1951.03 626.091C1952.9 626.091 1954.41 624.581 1954.41 622.714V468.449C1954.41 400.789 1931.42 350.266 1889.67 326.165C1847.92 302.063 1792.65 307.423 1734.06 341.239C1614.42 410.306 1517.08 578.887 1517.08 717.007V1407.07C1517.08 1542.06 1421.97 1706.78 1305.06 1774.27C1249.07 1806.59 1196.59 1811.92 1157.31 1789.23C1118.03 1766.57 1096.41 1718.47 1096.41 1653.82V1572.85C1096.41 1502.81 1072.61 1450.49 1029.39 1425.55C986.167 1400.61 928.958 1406.15 868.285 1441.18L562.045 1619.47C560.426 1620.39 559.872 1622.47 560.813 1624.08C561.739 1625.7 563.832 1626.23 565.422 1625.31L871.662 1447.02C930.155 1413.26 984.971 1407.7 1026.01 1431.39C1067.05 1455.09 1089.65 1505.33 1089.65 1572.85V1653.82C1089.65 1720.99 1112.49 1771.15 1153.94 1795.09C1171.02 1804.95 1190.37 1809.84 1211.29 1809.84" fill="#4067B1"/>
<path d="M1232.43 886.133L1187.15 859.996C1182.96 857.575 1179.47 851.041 1179.38 845.397C1179.29 839.76 1182.63 837.156 1186.83 839.577L1232.1 865.714C1236.3 868.142 1239.78 874.676 1239.86 880.313C1239.96 885.958 1236.63 888.561 1232.43 886.133Z" fill="#5F92D3"/>
<path d="M1328.57 941.638L1261.8 903.097C1257.6 900.676 1254.13 894.135 1254.04 888.498C1253.94 882.853 1257.28 880.25 1261.48 882.678L1328.23 921.212C1332.43 923.64 1335.9 930.174 1336 935.811C1336.09 941.449 1332.76 944.059 1328.57 941.638Z" fill="#5F92D3"/>
<path d="M1227.31 713.617L1140.89 663.729C1136.69 661.3 1133.21 654.766 1133.12 649.129C1133.02 643.492 1136.36 640.881 1140.56 643.31L1226.97 693.19C1231.17 695.611 1234.65 702.153 1234.74 707.79C1234.83 713.434 1231.5 716.038 1227.31 713.617Z" fill="#5F92D3"/>
<path d="M1170.56 765.64L1142.28 749.312C1138.07 746.891 1134.6 740.349 1134.5 734.712C1134.41 729.068 1137.74 726.465 1141.95 728.893L1170.23 745.214C1174.43 747.642 1177.91 754.183 1177.99 759.821C1178.09 765.458 1174.76 768.061 1170.56 765.64" fill="#5F92D3"/>
<path d="M1161.82 845.375L1143.67 834.896C1139.46 832.467 1135.99 825.926 1135.9 820.289C1135.8 814.652 1139.14 812.041 1143.33 814.47L1161.48 824.949C1165.69 827.377 1169.16 833.911 1169.26 839.556C1169.35 845.193 1166.01 847.803 1161.82 845.375Z" fill="#5F92D3"/>
<path d="M1275.76 826.369L1200.23 782.767C1196.02 780.339 1192.55 773.798 1192.45 768.161C1192.36 762.516 1195.7 759.913 1199.89 762.341L1275.43 805.943C1279.64 808.371 1283.11 814.913 1283.2 820.55C1283.3 826.187 1279.96 828.79 1275.76 826.369Z" fill="#5F92D3"/>
<path d="M1273.24 782.523L1141.59 706.52C1137.39 704.092 1133.91 697.558 1133.81 691.921C1133.73 686.276 1137.06 683.673 1141.25 686.101L1272.91 762.104C1277.11 764.532 1280.58 771.066 1280.68 776.703C1280.77 782.34 1277.44 784.944 1273.24 782.523Z" fill="#5F92D3"/>
<path d="M1218.51 835.706L1142.97 792.104C1138.77 789.676 1135.29 783.134 1135.2 777.505C1135.11 771.86 1138.44 769.257 1142.64 771.678L1218.18 815.294C1222.38 817.715 1225.86 824.249 1225.95 829.887C1226.04 835.531 1222.71 838.134 1218.51 835.706" fill="#5F92D3"/>
<path d="M1333.06 859.442L1305.61 843.596C1301.41 841.175 1297.93 834.641 1297.84 828.996C1297.75 823.359 1301.08 820.756 1305.28 823.184L1332.72 839.016C1336.92 841.445 1340.4 847.986 1340.49 853.623C1340.59 859.267 1337.25 861.871 1333.06 859.442" fill="#5F92D3"/>
<path d="M1254.86 644.744L1209.59 618.607C1205.39 616.179 1201.91 609.637 1201.82 604.008C1201.73 598.363 1205.06 595.76 1209.25 598.181L1254.53 624.317C1258.72 626.746 1262.21 633.28 1262.3 638.917C1262.39 644.554 1259.06 647.165 1254.86 644.744Z" fill="#5F92D3"/>
<path d="M1362.7 706.999L1295.95 668.459C1291.75 666.037 1288.27 659.496 1288.17 653.859C1288.09 648.215 1291.42 645.611 1295.62 648.04L1362.37 686.573C1366.57 688.994 1370.05 695.536 1370.15 701.173C1370.23 706.817 1366.9 709.421 1362.7 706.999" fill="#5F92D3"/>
<path d="M1232.43 886.133L1187.15 859.996C1182.96 857.575 1179.47 851.041 1179.38 845.397C1179.29 839.76 1182.63 837.156 1186.83 839.577L1232.1 865.714C1236.3 868.142 1239.78 874.676 1239.86 880.313C1239.96 885.958 1236.63 888.561 1232.43 886.133Z" fill="#5F92D3"/>
<path d="M1328.57 941.638L1261.8 903.097C1257.6 900.676 1254.13 894.135 1254.04 888.498C1253.94 882.853 1257.28 880.25 1261.48 882.678L1328.23 921.212C1332.43 923.64 1335.9 930.174 1336 935.811C1336.09 941.449 1332.76 944.059 1328.57 941.638Z" fill="#5F92D3"/>
<path d="M1130.73 615.463L1102.44 599.142C1098.24 596.714 1094.76 590.172 1094.67 584.535C1094.58 578.891 1097.92 576.288 1102.12 578.716L1130.39 595.044C1134.59 597.465 1138.07 604.006 1138.16 609.643C1138.25 615.288 1134.93 617.891 1130.73 615.463" fill="#5F92D3"/>
<path d="M1227.31 713.617L1140.89 663.729C1136.69 661.3 1133.21 654.766 1133.12 649.129C1133.02 643.492 1136.36 640.881 1140.56 643.31L1226.97 693.19C1231.17 695.611 1234.65 702.153 1234.74 707.79C1234.83 713.434 1231.5 716.038 1227.31 713.617Z" fill="#5F92D3"/>
<path d="M1170.56 765.64L1142.28 749.312C1138.07 746.891 1134.6 740.349 1134.5 734.712C1134.41 729.068 1137.74 726.465 1141.95 728.893L1170.23 745.214C1174.43 747.642 1177.91 754.183 1177.99 759.821C1178.09 765.458 1174.76 768.061 1170.56 765.64" fill="#5F92D3"/>
<path d="M1361.94 1045.68L1286.41 1002.07C1282.2 999.654 1278.73 993.112 1278.63 987.475C1278.54 981.831 1281.87 979.227 1286.07 981.648L1361.61 1025.26C1365.81 1027.69 1369.29 1034.22 1369.38 1039.86C1369.48 1045.5 1366.14 1048.11 1361.94 1045.68Z" fill="#5F92D3"/>
<path d="M1161.82 845.375L1143.67 834.896C1139.46 832.467 1135.99 825.926 1135.9 820.289C1135.8 814.652 1139.14 812.041 1143.33 814.47L1161.48 824.949C1165.69 827.377 1169.16 833.911 1169.26 839.556C1169.35 845.193 1166.01 847.803 1161.82 845.375Z" fill="#5F92D3"/>
<path d="M1167.59 933.489L1145.05 920.472C1140.85 918.044 1137.37 911.517 1137.28 905.873C1137.19 900.236 1140.51 897.632 1144.72 900.053L1167.26 913.07C1171.47 915.491 1174.94 922.026 1175.03 927.67C1175.12 933.307 1171.79 935.918 1167.59 933.489" fill="#5F92D3"/>
<path d="M1255.31 984.123L1195.87 949.812C1191.66 947.384 1188.19 940.842 1188.1 935.205C1188 929.568 1191.33 926.965 1195.53 929.386L1254.97 963.697C1259.17 966.125 1262.64 972.667 1262.74 978.304C1262.83 983.941 1259.5 986.552 1255.31 984.123Z" fill="#5F92D3"/>
<path d="M1188.48 987.935L1145.74 963.264C1141.54 960.836 1138.06 954.302 1137.98 948.665C1137.88 943.02 1141.21 940.417 1145.42 942.845L1188.15 967.516C1192.35 969.944 1195.83 976.478 1195.92 982.115C1196.02 987.752 1192.68 990.356 1188.48 987.935Z" fill="#5F92D3"/>
<path d="M1275.76 826.369L1200.23 782.767C1196.02 780.339 1192.55 773.798 1192.45 768.161C1192.36 762.516 1195.7 759.913 1199.89 762.341L1275.43 805.943C1279.64 808.371 1283.11 814.913 1283.2 820.55C1283.3 826.187 1279.96 828.79 1275.76 826.369Z" fill="#5F92D3"/>
<path d="M1273.24 782.523L1141.59 706.52C1137.39 704.092 1133.91 697.558 1133.81 691.921C1133.73 686.276 1137.06 683.673 1141.25 686.101L1272.91 762.104C1277.11 764.532 1280.58 771.066 1280.68 776.703C1280.77 782.34 1277.44 784.944 1273.24 782.523Z" fill="#5F92D3"/>
<path d="M1218.51 835.706L1142.97 792.104C1138.77 789.676 1135.29 783.134 1135.2 777.505C1135.11 771.86 1138.44 769.257 1142.64 771.678L1218.18 815.294C1222.38 817.715 1225.86 824.249 1225.95 829.887C1226.04 835.531 1222.71 838.134 1218.51 835.706" fill="#5F92D3"/>
<path d="M1333.06 859.442L1305.61 843.596C1301.41 841.175 1297.93 834.641 1297.84 828.996C1297.75 823.359 1301.08 820.756 1305.28 823.184L1332.72 839.016C1336.92 841.445 1340.4 847.986 1340.49 853.623C1340.59 859.267 1337.25 861.871 1333.06 859.442" fill="#5F92D3"/>
<path d="M1235.16 930.106L1144.36 877.68C1140.16 875.259 1136.68 868.725 1136.58 863.08C1136.49 857.443 1139.83 854.832 1144.03 857.261L1234.83 909.679C1239.02 912.108 1242.51 918.642 1242.6 924.286C1242.69 929.923 1239.36 932.527 1235.16 930.106" fill="#5F92D3"/>
<path d="M1168.5 594.885L1101.75 556.351C1097.55 553.93 1094.07 547.389 1093.99 541.752C1093.89 536.107 1097.22 533.504 1101.42 535.925L1168.17 574.466C1172.38 576.887 1175.85 583.428 1175.95 589.065C1176.04 594.703 1172.7 597.313 1168.5 594.885" fill="#5F92D3"/>
<path d="M1186 1028.9L1108.68 984.261C1104.49 981.833 1101 975.299 1100.91 969.654C1100.83 964.017 1104.15 961.421 1108.35 963.842L1185.67 1008.47C1189.87 1010.9 1193.35 1017.43 1193.44 1023.08C1193.53 1028.72 1190.2 1031.33 1186 1028.9Z" fill="#5F92D3"/>
<path d="M1221.79 1292.22L1176.51 1266.08C1172.31 1263.66 1168.83 1257.12 1168.74 1251.48C1168.65 1245.84 1171.98 1243.23 1176.19 1245.66L1221.46 1271.79C1225.66 1274.22 1229.13 1280.76 1229.22 1286.4C1229.32 1292.04 1225.98 1294.65 1221.79 1292.22Z" fill="#5F92D3"/>
<path d="M1317.93 1347.71L1251.16 1309.17C1246.96 1306.75 1243.49 1300.22 1243.4 1294.57C1243.3 1288.93 1246.63 1286.32 1250.83 1288.74L1317.59 1327.28C1321.79 1329.71 1325.26 1336.25 1325.36 1341.88C1325.45 1347.53 1322.12 1350.13 1317.93 1347.71Z" fill="#5F92D3"/>
<path d="M1216.66 1119.7L1130.25 1069.81C1126.05 1067.38 1122.57 1060.84 1122.48 1055.2C1122.38 1049.57 1125.72 1046.96 1129.92 1049.38L1216.33 1099.27C1220.53 1101.69 1224.01 1108.23 1224.1 1113.87C1224.19 1119.51 1220.86 1122.12 1216.66 1119.7" fill="#5F92D3"/>
<path d="M1159.92 1171.72L1131.64 1155.39C1127.43 1152.97 1123.96 1146.43 1123.86 1140.79C1123.77 1135.15 1127.11 1132.54 1131.3 1134.96L1159.59 1151.3C1163.79 1153.72 1167.26 1160.25 1167.35 1165.9C1167.45 1171.53 1164.12 1174.14 1159.92 1171.72Z" fill="#5F92D3"/>
<path d="M1151.17 1251.45L1133.02 1240.97C1128.82 1238.55 1125.34 1232.01 1125.26 1226.37C1125.16 1220.73 1128.49 1218.12 1132.69 1220.55L1150.84 1231.02C1155.05 1233.45 1158.52 1239.99 1158.62 1245.63C1158.71 1251.27 1155.37 1253.88 1151.17 1251.45" fill="#5F92D3"/>
<path d="M1265.12 1232.46L1189.59 1188.84C1185.38 1186.42 1181.9 1179.88 1181.81 1174.24C1181.72 1168.6 1185.05 1165.99 1189.25 1168.42L1264.79 1212.03C1268.99 1214.45 1272.47 1220.98 1272.56 1226.63C1272.66 1232.27 1269.32 1234.88 1265.12 1232.46" fill="#5F92D3"/>
<path d="M1262.6 1188.6L1130.94 1112.59C1126.74 1110.17 1123.26 1103.64 1123.16 1097.99C1123.08 1092.36 1126.41 1089.75 1130.61 1092.17L1262.27 1168.18C1266.46 1170.6 1269.94 1177.14 1270.04 1182.78C1270.12 1188.42 1266.8 1191.02 1262.6 1188.6Z" fill="#5F92D3"/>
<path d="M1207.87 1241.79L1132.32 1198.18C1128.13 1195.75 1124.65 1189.22 1124.56 1183.57C1124.46 1177.93 1127.8 1175.34 1132 1177.76L1207.54 1221.36C1211.73 1223.79 1215.22 1230.33 1215.31 1235.97C1215.4 1241.6 1212.07 1244.22 1207.87 1241.79Z" fill="#5F92D3"/>
<path d="M1322.41 1265.52L1294.97 1249.68C1290.77 1247.26 1287.29 1240.71 1287.2 1235.08C1287.1 1229.44 1290.44 1226.83 1294.64 1229.25L1322.08 1245.1C1326.28 1247.53 1329.76 1254.06 1329.85 1259.7C1329.95 1265.34 1326.61 1267.95 1322.41 1265.52Z" fill="#5F92D3"/>
<path d="M1552.75 2237.42L1636.6 2189.02L1720.45 2237.42L1636.6 2285.82L1552.75 2237.42Z" fill="#D9EFFB"/>
<path d="M1730.74 2133.3L1814.58 2084.89L1898.43 2133.3L1814.58 2181.71L1730.74 2133.3Z" fill="#D9EFFB"/>
<path d="M1908.18 2031.65L1992.03 1983.25L2075.88 2031.65L1992.03 2080.06L1908.18 2031.65Z" fill="#D9EFFB"/>
<path d="M1814.58 2133.29V1875.13L1730.74 1826.73V2084.89L1814.58 2133.29" fill="#C23222"/>
<path d="M1814.58 1875.13L1898.43 1826.73V2084.89L1814.58 2133.29V1875.13Z" fill="#FDD147"/>
<path d="M1814.58 2133.29V1875.13L1730.74 1826.73V2084.89L1814.58 2133.29" fill="#FDD147"/>
<path d="M1636.6 2237.42V2092.2L1552.75 2043.79V2189.02L1636.6 2237.42Z" fill="#FDD147"/>
<path d="M1636.6 2092.2L1720.45 2043.79V2189.02L1636.6 2237.42V2092.2Z" fill="#FDD147"/>
<path d="M1552.75 2043.8L1636.6 1995.4L1720.45 2043.8L1636.6 2092.21L1552.75 2043.8Z" fill="#FDD147"/>
<path d="M1992.03 2031.65V1676.69L1908.18 1628.28V1983.25L1992.03 2031.65Z" fill="#FDD147"/>
<path d="M1992.03 1676.69L2075.88 1628.28V1983.25L1992.03 2031.65V1676.69" fill="#FDD147"/>
<path d="M1908.18 1628.29L1992.03 1579.88L2075.88 1628.29L1992.03 1676.69L1908.18 1628.29Z" fill="#FDD147"/>
<path d="M1730.74 1826.73L1814.58 1778.33L1898.43 1826.73L1814.58 1875.13L1730.74 1826.73" fill="#FDD148" fill-opacity="0.964706"/>
<path d="M359.838 1753.11C359.838 1753.11 333.962 1740.06 318.069 1759.49C302.17 1778.93 279.451 1824.8 278.744 1855.8C278.044 1886.81 303.278 1884.71 318.281 1877.38C333.283 1870.03 377.116 1806.47 379.764 1794.01C382.418 1781.56 376.635 1764.72 372.419 1761.42C368.204 1758.13 359.838 1753.11 359.838 1753.11" fill="#5F92D3"/>
<path d="M365.489 1746.87L366.685 1773.68C366.94 1779.39 364.074 1784.82 359.114 1787.63C354.592 1790.2 348.021 1792.17 339.138 1790.74C319.65 1787.61 317.907 1782.04 316.514 1755.23C315.121 1728.42 365.489 1746.87 365.489 1746.87Z" fill="#D9EFFB"/>
<path d="M265.097 1701.56C265.097 1701.56 239.213 1688.51 223.32 1707.94C207.428 1727.37 184.702 1773.25 184.002 1804.25C183.294 1835.25 208.53 1833.16 223.539 1825.82C238.542 1818.48 282.36 1754.91 285.022 1742.46C287.669 1730 281.886 1713.17 277.67 1709.86C273.455 1706.57 265.097 1701.56 265.097 1701.56" fill="#5F92D3"/>
<path d="M270.747 1695.32L271.943 1722.13C272.199 1727.83 269.325 1733.26 264.366 1736.08C259.844 1738.65 253.28 1740.61 244.396 1739.19C224.901 1736.05 223.158 1730.48 221.772 1703.67C220.372 1676.87 270.747 1695.32 270.747 1695.32Z" fill="#D9EFFB"/>
<path d="M501.698 1203.06C494.04 1078.43 366.713 1221.4 366.713 1221.4L279.565 1306.81L201.096 1393C185.765 1409.84 178.64 1432.57 181.601 1455.14L213.341 1696.83C214.909 1708.76 225.128 1717.57 237.169 1717.47C240.568 1717.44 244.462 1717.13 248.926 1716.44C277.246 1712.03 275.152 1685.11 275.152 1685.11L269.347 1459.05L434.155 1359.72C434.155 1359.72 509.356 1327.7 501.698 1203.06" fill="#263C7A"/>
<path d="M596.447 1250.54C588.782 1125.92 461.455 1268.89 461.455 1268.89L374.314 1354.3L295.838 1440.49C280.507 1457.32 273.382 1480.05 276.343 1502.62L308.091 1744.31C309.651 1756.25 319.869 1765.05 331.91 1764.95C335.309 1764.93 339.204 1764.61 343.675 1763.92C371.987 1759.51 369.894 1732.59 369.894 1732.59L364.096 1506.54L528.896 1407.2C528.896 1407.2 604.105 1375.18 596.447 1250.54Z" fill="#263C7A"/>
<path d="M521.116 850.479C617.651 890.493 615.711 947.549 615.711 947.549C615.711 947.549 596.806 1156.72 603.254 1296.42C605.952 1354.81 292.951 1359.27 339.636 1203.47C394.672 1019.77 374.046 871.059 399.806 848.634C425.573 826.202 496.151 840.131 521.116 850.479Z" fill="#5F92D3"/>
<path d="M552.17 901.068C547.123 920.671 521.451 930.997 494.815 924.134C468.187 917.279 450.691 895.832 455.745 876.237C460.792 856.635 486.472 846.309 513.1 853.171C539.728 860.026 557.224 881.481 552.17 901.068Z" fill="#FAB6A9"/>
<path d="M496.572 855.658C478.645 855.658 463.665 863.993 460.208 877.389C458.144 885.411 460.551 894.169 466.976 902.045C473.744 910.337 484.035 916.594 495.967 919.671C520.064 925.877 543.301 917.017 547.706 899.916C549.77 891.894 547.363 883.143 540.938 875.26C534.177 866.968 523.886 860.711 511.947 857.634C506.725 856.292 501.532 855.658 496.572 855.658ZM511.115 930.851C505.448 930.851 499.577 930.129 493.662 928.604C479.834 925.046 467.822 917.688 459.821 907.879C451.492 897.662 448.458 886.024 451.274 875.085C456.948 853.047 485.195 841.204 514.251 848.708C528.08 852.259 540.092 859.625 548.093 869.426C556.422 879.643 559.456 891.289 556.64 902.22C552.126 919.773 533.272 930.851 511.115 930.851Z" fill="white"/>
<path d="M482.407 846.127C482.407 846.127 483.238 850 481.575 880.592C481.043 890.203 514.723 899.18 523.424 890.48C532.125 881.78 528.646 872.723 530.732 840.002C532.825 807.28 482.407 846.127 482.407 846.127" fill="#FAB6A9"/>
<path d="M530.733 840C530.733 840 522.44 870.337 481.568 881.983L482.188 854.403L530.733 840Z" fill="#EB8B8A"/>
<path d="M556.633 762.911C566.902 802.633 543.024 843.172 503.289 853.44C463.563 863.708 423.026 839.832 412.75 800.103C402.481 760.373 426.359 719.849 466.093 709.574C505.828 699.306 546.364 723.189 556.633 762.911Z" fill="#FAB6A9"/>
<path d="M501.756 784.235C501.756 784.235 460.847 801.759 432.52 801.956C404.185 802.16 410.436 778.437 410.436 778.437L494.521 766.288L501.756 784.235" fill="#EB8B8A"/>
<path d="M424.076 788.853C424.076 788.853 459.711 773.721 490.978 780.037C498.33 781.517 505.134 785.448 509.875 791.26C511.421 793.156 513.369 794.899 515.593 795.395C521.136 796.649 530.209 773.656 540.981 773.131C551.761 772.606 558.952 780.234 550.112 794.374C541.273 808.521 544.263 824.353 548.333 826.614C552.395 828.889 595.521 795.869 557.479 720.523C519.444 645.184 422.829 685.767 407.805 701.037C407.805 701.037 391.971 714.827 379.098 702.561C379.098 702.561 364.657 810.643 424.076 788.853Z" fill="#FDD147"/>
<path d="M561.564 1100.37V1156.89C561.564 1163.37 558.837 1169.55 554.045 1173.91L437.92 1279.77L451.121 1299.94L604.471 1188.73C611.633 1183.55 616.25 1175.56 617.176 1166.76L627.532 1068.19L561.564 1100.37" fill="#FAB6A9"/>
<path d="M607.54 919.291C607.54 919.291 642.767 972.264 655.895 1111.7C655.895 1111.7 595.711 1131.17 561.563 1120.12C527.408 1109.07 607.54 919.291 607.54 919.291Z" fill="#5F92D3"/>
<path d="M555.13 986.272C555.13 986.272 541.331 1060.07 540.558 1094.76C540.339 1104.29 546.16 1112.9 555.13 1116.14V986.272Z" fill="#4067B1"/>
<path d="M525.001 1353.26L499.336 1349.87L333.653 1254.23C328.351 1251.17 319.066 1251.55 312.94 1255.09L195.539 1322.84L180.019 1320.79V1336.24H180.034C179.932 1338.27 181.099 1340.23 183.6 1341.68L371.352 1450.06C376.669 1453.13 385.946 1452.76 392.08 1449.2L519.932 1375.43C523.382 1373.43 525.103 1370.87 525.001 1368.46V1353.26" fill="#5F92D3"/>
<path d="M400.511 1292.83L388.747 1286.03H259.334L195.539 1322.84L180.019 1320.79V1336.23H180.034C179.932 1338.27 181.099 1340.23 183.6 1341.67L371.353 1450.06C374.168 1451.68 378.077 1452.33 382.052 1452.07L400.511 1292.83" fill="#4067B1"/>
<path d="M186.904 1321.7L180.019 1320.79V1336.23H180.034C179.932 1338.27 181.099 1340.23 183.6 1341.67L186.904 1343.58V1321.7Z" fill="#5F92D3"/>
<path d="M373.248 1450.94C378.287 1452.85 385.479 1452.44 390.854 1449.85V1423.57H373.248V1450.94Z" fill="white"/>
<path d="M371.351 1434.62L183.599 1326.24C178.289 1323.17 178.953 1317.82 185.087 1314.27L312.939 1240.49C319.065 1236.95 328.35 1236.57 333.652 1239.64L521.419 1348.03C526.728 1351.09 526.057 1356.45 519.931 1359.99L392.079 1433.77C385.945 1437.31 376.668 1437.69 371.351 1434.62" fill="white"/>
<path d="M368.181 1418.19L212.067 1328.07C207.647 1325.52 208.202 1321.07 213.307 1318.12L281.813 1279.6C286.911 1276.66 294.628 1276.34 299.04 1278.89L455.161 1369.01C459.581 1371.56 459.027 1376.02 453.929 1378.96L385.415 1417.49C380.317 1420.42 372.601 1420.74 368.181 1418.19" fill="#D9EFFB"/>
<path d="M320.198 1236.94L318.251 1249.89C316.602 1260.93 316.887 1272.17 319.097 1283.11L321.416 1294.51C322.714 1300.95 327.812 1305.96 334.274 1307.13C339.321 1308.05 344.091 1304.5 344.66 1299.4L347.76 1271.71C347.76 1271.71 354.849 1280.99 358.269 1280.99C361.69 1280.99 354.44 1253.26 346.709 1237.57C338.964 1221.87 320.198 1236.94 320.198 1236.94" fill="#FAB6A9"/>
<path d="M383.837 1031.06L363.7 1070.93C358.93 1080.36 356.129 1090.65 355.451 1101.2L346.706 1237.57L320.195 1236.94L308.161 1083.79C307.797 1079.06 308.023 1074.3 308.847 1069.63L322.595 991.97L383.837 1031.06" fill="#FAB6A9"/>
<path d="M364.993 1445.04L349.254 1424.49L183.695 1328.64C178.386 1325.57 174.097 1317.34 174.104 1310.26L174.243 1174.73L164.725 1162.3L173.674 1157.13L173.681 1157.14C175.395 1156.03 177.671 1156.06 180.172 1157.51L367.801 1266.13C373.11 1269.21 377.406 1277.43 377.399 1284.51L377.238 1432.11C377.231 1436.1 375.867 1438.87 373.73 1439.98L364.993 1445.04" fill="#263C7A"/>
<path d="M250.509 1367.32L238.745 1360.51L174.177 1248.37L174.243 1174.73L164.725 1162.3L173.674 1157.13L173.681 1157.14C175.395 1156.04 177.671 1156.06 180.172 1157.51L367.801 1266.13C370.601 1267.75 373.118 1270.82 374.875 1274.4L250.509 1367.32" fill="#4067B1"/>
<path d="M168.948 1167.81L164.725 1162.3L173.674 1157.13L173.681 1157.14C175.395 1156.04 177.671 1156.06 180.172 1157.51L183.484 1159.43L168.948 1167.81" fill="#5F92D3"/>
<path d="M369.508 1267.34C373.672 1270.74 376.903 1277.18 377.341 1283.14L359.005 1293.72L350.224 1278.46L369.508 1267.34Z" fill="#2E4B8D"/>
<path d="M358.867 1271.31L171.238 1162.69C165.929 1159.61 161.626 1162.86 161.611 1169.94L161.451 1317.54C161.443 1324.62 165.739 1332.85 171.049 1335.93L358.67 1444.55C363.987 1447.61 368.297 1444.37 368.297 1437.29L368.457 1289.69C368.465 1282.61 364.169 1274.38 358.867 1271.31" fill="#5F92D3"/>
<path d="M451.12 1299.94L448.115 1306.17C444.651 1313.34 439.21 1319.37 432.427 1323.55L413.793 1335.04C407.994 1338.61 400.65 1338.9 394.764 1335.48L394.13 1335.1C388.208 1331.38 387.675 1322.88 392.547 1317.86L412.028 1297.85C412.028 1297.85 401.08 1306.23 398.017 1302.86C395.764 1300.38 408.629 1288.32 418.497 1287.91C428.372 1287.52 437.919 1279.77 437.919 1279.77L451.12 1299.94" fill="#FAB6A9"/>
<path d="M401.73 848.345C401.73 848.345 330.336 926.017 301.534 997.28C301.534 997.28 325.952 1041.25 385.714 1058.51C445.475 1075.77 401.73 848.345 401.73 848.345Z" fill="#5F92D3"/>
<path d="M372.264 1053.91L383.838 942.133L356.576 1046.85C361.433 1049.38 366.692 1051.74 372.264 1053.91Z" fill="#4067B1"/>
<path d="M455.211 832.663L436.03 827.398C436.03 827.398 445.183 841.801 458.552 845.469C471.928 849.144 474.013 837.826 474.013 837.826L455.211 832.663" fill="white"/>
<path d="M557.681 801.955C557.681 807.862 552.897 812.639 546.996 812.639C541.096 812.639 536.312 807.862 536.312 801.955C536.312 796.056 541.096 791.279 546.996 791.279C552.897 791.279 557.681 796.056 557.681 801.955Z" fill="white"/>
<path d="M2140.04 783.995L2159.34 823.266L2198.61 803.97L2179.3 764.699L2140.04 783.995ZM2152.69 842.795L2120.51 777.345L2185.95 745.17L2218.13 810.62L2152.69 842.795Z" fill="#FDD147"/>
<path d="M702.235 2198.73C669.379 2217.69 616.108 2217.69 583.252 2198.73C550.402 2179.76 550.395 2149 583.252 2130.05C616.108 2111.08 669.379 2111.08 702.235 2130.05C735.084 2149.01 735.092 2179.76 702.235 2198.73ZM772.156 2089.67C700.682 2048.41 584.798 2048.41 513.323 2089.67C441.848 2130.94 441.856 2197.83 513.33 2239.1C584.805 2280.36 700.689 2280.36 772.164 2239.1C843.631 2197.83 843.624 2130.94 772.156 2089.67Z" fill="#D9EFFB"/>
<path d="M486.331 2065.23L551.614 2066.25C556.449 2059.95 563.312 2054.07 572.232 2048.91C608.137 2028.19 664.587 2026.58 703.701 2044.08L742.495 2007.6L802.234 2008.53C799.281 2006.59 796.247 2004.69 793.052 2002.85C710.039 1954.92 575.448 1954.92 492.436 2002.84C477.163 2011.65 464.735 2021.48 455.079 2031.94L486.331 2065.23Z" fill="#FDA547"/>
<path d="M802.234 1913.73V2008.53L742.494 2007.6V1912.81L802.234 1913.73Z" fill="#F4A54F"/>
<path d="M703.702 1949.28V2044.08L742.495 2007.6V1912.81L703.702 1949.28" fill="#FDA547"/>
<path d="M551.614 1971.45V2066.25L637.5 1996.27L703.702 2044.08V1949.27L642.744 1919.71C642.744 1919.71 558.827 1945.4 554.465 1946.49C550.097 1947.58 551.614 1971.45 551.614 1971.45" fill="#FDA547"/>
<path d="M486.333 1970.43V2065.23L551.616 2066.25V1971.45L486.333 1970.43" fill="#B41086"/>
<path d="M455.079 1937.14V2031.94L486.331 2065.23V1970.43L455.079 1937.14Z" fill="#D1078D"/>
<path d="M486.331 1970.43L551.614 1971.45C556.449 1965.16 563.312 1959.27 572.232 1954.12C608.137 1933.39 664.587 1931.79 703.701 1949.28L742.495 1912.81L802.234 1913.72C799.281 1911.8 796.247 1909.9 793.052 1908.05C710.039 1860.13 575.448 1860.13 492.436 1908.04C477.163 1916.86 464.735 1926.69 455.079 1937.14L486.331 1970.43Z" fill="#FDD147"/>
<path d="M723.365 1960.94V2048.08L779.881 2034.55C779.881 2034.55 776.562 1983.56 775.359 1982.19C774.156 1980.83 723.365 1960.94 723.365 1960.94Z" fill="#5F92D3"/>
<path d="M680.604 2048.08V2142.88L686.708 2149.38L726.552 2126.42C726.552 2126.42 720.367 2054.05 719.638 2052.6C718.916 2051.15 680.604 2048.08 680.604 2048.08" fill="#263C7A"/>
<path d="M757.534 2023.61L723.365 2055.73C751.823 2078.25 748.461 2110 713.249 2130.32C703.607 2135.89 692.478 2140.07 680.604 2142.88L715.918 2180.5L684.63 2209.92C724.357 2205.33 762.253 2194.17 793.06 2176.39C864.418 2135.19 874.366 2072.01 823.036 2024.63L757.534 2023.61Z" fill="#4067B1"/>
<path d="M684.631 2115.13V2209.92L762.101 2180.01L855.273 2091.13L854.931 1990.46L756.354 2068.59L684.631 2115.13" fill="#4067B1"/>
<path d="M757.534 1928.82L723.365 1960.95C751.823 1983.46 748.461 2015.2 713.249 2035.53C703.607 2041.09 692.478 2045.28 680.604 2048.08L715.918 2085.71L684.63 2115.12C724.357 2110.54 762.253 2099.37 793.06 2081.59C864.418 2040.4 874.366 1977.22 823.036 1929.84L757.534 1928.82Z" fill="#D9EFFB"/>
<path d="M684.367 2180.01L653.247 2146.85C624.35 2148.61 594.389 2143.1 572.232 2130.32C549.367 2117.12 539.944 2099.09 543.948 2081.91L469.819 2080.76L441.324 2050.4C416.395 2093.17 433.403 2142.3 492.436 2176.38C535.816 2201.43 593.281 2213.35 650.103 2212.22L684.367 2180.01" fill="#4067B1"/>
<path d="M650.105 2117.43V2212.22L430.233 2090.4V1995.55L462.339 2008.53L650.105 2117.43" fill="#4067B1"/>
<path d="M684.366 2085.21V2180.01L650.103 2212.22V2117.43L684.366 2085.21" fill="#263C7A"/>
<path d="M684.367 2085.21L653.247 2052.05C624.35 2053.81 594.389 2048.31 572.232 2035.52C549.367 2022.32 539.944 2004.29 543.948 1987.11L469.819 1985.96L441.324 1955.6C416.395 1998.38 433.403 2047.51 492.436 2081.58C535.816 2106.63 593.281 2118.56 650.103 2117.43L684.367 2085.21" fill="#5F92D3"/>
<path d="M191.374 476.194C173.272 476.194 158.554 490.917 158.554 509.01C158.554 527.11 173.272 541.826 191.374 541.826C209.469 541.826 224.194 527.11 224.194 509.01C224.194 490.917 209.469 476.194 191.374 476.194ZM191.374 556.411C165.235 556.411 143.967 535.146 143.967 509.01C143.967 482.874 165.235 461.609 191.374 461.609C217.513 461.609 238.78 482.874 238.78 509.01C238.78 535.146 217.513 556.411 191.374 556.411Z" fill="#5F92D3"/>
<path d="M76.213 2037.02C76.213 2056.02 60.8021 2071.43 41.8029 2071.43C22.7892 2071.43 7.39307 2056.02 7.39307 2037.02C7.39307 2018.02 22.7892 2002.62 41.8029 2002.62C60.8021 2002.62 76.213 2018.02 76.213 2037.02Z" fill="#D9EFFB"/>
<path d="M1835.42 68.2008C1835.42 90.844 1817.06 109.199 1794.42 109.199C1771.77 109.199 1753.41 90.844 1753.41 68.2008C1753.41 45.5576 1771.77 27.1951 1794.42 27.1951C1817.06 27.1951 1835.42 45.5576 1835.42 68.2008Z" fill="#D9EFFB"/>
<path d="M1613.68 492.311L1418.67 379.744C1414.81 377.512 1411.32 377.432 1408.59 378.927L1408.6 378.803L1389.68 389.734C1389.68 389.734 1398.06 392.783 1402.98 394.591V536.591C1402.98 548.142 1410.01 561.568 1418.67 566.563L1605.07 674.171V690.827L1624.18 679.823L1624.07 679.786C1627.31 677.817 1629.38 673.5 1629.38 667.287V522.298C1629.38 510.739 1622.35 497.321 1613.68 492.311" fill="#FD7A47" fill-opacity="0.945652"/>
<path d="M1594.42 690.24L1399.41 577.666C1390.74 572.663 1383.72 559.237 1383.72 547.686V402.704C1383.72 391.153 1390.74 385.836 1399.41 390.832L1594.42 503.413C1603.09 508.416 1610.11 521.834 1610.11 533.393V678.382C1610.11 689.934 1603.09 695.25 1594.42 690.24" fill="#FDD147"/>
<path d="M1465 527.699C1465 536.086 1459.1 539.491 1451.83 535.298C1444.57 531.105 1438.67 520.895 1438.67 512.509C1438.67 504.123 1444.57 500.724 1451.83 504.918C1459.1 509.111 1465 519.313 1465 527.699Z" fill="white"/>
<path d="M1504.84 550.714C1504.84 559.107 1498.96 562.498 1491.69 558.305C1484.42 554.112 1478.53 543.91 1478.53 535.516C1478.53 527.129 1484.42 523.731 1491.69 527.924C1498.96 532.118 1504.84 542.32 1504.84 550.714Z" fill="white"/>
<path d="M1544.71 573.729C1544.71 582.116 1538.82 585.514 1531.55 581.321C1524.29 577.121 1518.4 566.926 1518.4 558.532C1518.4 550.138 1524.29 546.74 1531.55 550.94C1538.82 555.134 1544.71 565.336 1544.71 573.729Z" fill="white"/>
<path d="M665.463 270.836L474.144 160.399C470.359 158.211 466.938 158.131 464.254 159.604L464.269 159.487L445.715 170.207C445.715 170.207 453.927 173.197 458.755 174.969V314.27C458.755 325.61 465.64 338.773 474.144 343.688L657.003 449.24V465.59L675.754 454.797L675.652 454.76C678.817 452.821 680.852 448.584 680.852 442.487V300.247C680.852 288.914 673.96 275.751 665.463 270.836" fill="#5F92D3"/>
<path d="M646.565 465.014L455.246 354.576C446.742 349.668 439.85 336.498 439.85 325.158V182.925C439.85 171.593 446.742 166.386 455.246 171.294L646.565 281.739C655.061 286.639 661.954 299.81 661.954 311.142V453.382C661.954 464.715 655.061 469.922 646.565 465.014" fill="#D9EFFB"/>
<path d="M519.588 305.556C519.588 313.789 513.805 317.122 506.672 313.009C499.546 308.896 493.77 298.883 493.77 290.65C493.77 282.424 499.546 279.084 506.672 283.197C513.805 287.317 519.588 297.322 519.588 305.556Z" fill="white"/>
<path d="M558.689 328.132C558.689 336.365 552.913 339.697 545.78 335.577C538.655 331.464 532.871 321.459 532.871 313.226C532.871 305 538.655 301.66 545.78 305.773C552.913 309.893 558.689 319.898 558.689 328.132Z" fill="white"/>
<path d="M597.789 350.705C597.789 358.938 592.013 362.271 584.887 358.158C577.754 354.038 571.978 344.033 571.978 335.799C571.978 327.566 577.754 324.233 584.887 328.354C592.013 332.467 597.789 342.479 597.789 350.705Z" fill="white"/>
</svg>
