<svg width="2219" height="2286" fill="none" xmlns="http://www.w3.org/2000/svg"><path d="M818.644 1015.73l106.526-61.499-106.526-61.491-106.534 61.491-106.526 61.499 106.526 61.5 106.534 61.49 106.526-61.49-106.526-61.5z" fill="#D9EFFB"/><path d="M818.646 862.542V411.559l106.527-61.49v450.975l-106.527 61.498" fill="#263C7A"/><path d="M818.644 411.559l-106.534-61.49v450.975l106.534 61.498V411.559" fill="#4067B1"/><path d="M925.17 350.068l-106.526-61.505-106.534 61.505 106.534 61.491 106.526-61.491z" fill="#D9EFFB"/><path d="M925.173 883.047L818.646 821.55v40.991l106.527 61.505v-40.999" fill="#8CD147"/><path d="M712.11 924.046V596.051l106.534-61.498v327.988L712.11 924.046z" fill="#C23222"/><path d="M712.11 596.051l-106.526-61.498v327.988l106.526 61.505V596.051" fill="#DC4220"/><path d="M818.644 534.556l-106.534-61.49-106.526 61.49 106.526 61.498 106.534-61.498z" fill="#EF4B26"/><path d="M712.11 924.046V596.051l106.534-61.498v327.988L712.11 924.046z" fill="#4067B1"/><path d="M712.11 596.051l-106.526-61.498v327.988l106.526 61.505V596.051" fill="#5F92D3"/><path d="M818.644 534.556l-106.534-61.49-106.526 61.49 106.526 61.498 106.534-61.498z" fill="#D9EFFB"/><path d="M818.646 985.538V801.045l106.527-61.49v184.493l-106.527 61.49" fill="#263C7A"/><path d="M818.644 801.045l-106.534-61.49v184.493l106.534 61.49V801.045z" fill="#4067B1"/><path d="M925.17 739.554l-106.526-61.506-106.534 61.506 106.534 61.49 106.526-61.49z" fill="#D9EFFB"/><path d="M13.172 1235.86c-2.976 0-5.025-.82-6.163-2.46-1.13-1.62-1.707-4.02-1.736-7.17v-30.91H0v-3.69h5.273v-13.5h5.536v13.5h7.271v3.69h-7.27v30.4c0 2.21.262 3.72.773 4.55.525.83 1.56 1.24 3.136 1.24 1.014 0 2.042-.1 3.107-.3v4.17c-1.656.32-3.202.48-4.653.48" fill="#8AA5D0"/><path d="M2180.43 1234.34l-3.17-12.36 35.92-9.2 3.17 12.37-35.92 9.19z" fill="#5F92D3"/><path d="M2162.11 1252.22l-3.17-12.37 35.91-9.2 3.17 12.37-35.91 9.2z" fill="#5F92D3"/><path d="M2143.79 1270.08l-3.17-12.36 35.91-9.2 3.17 12.36-35.91 9.2zm-18.32 17.87l-3.17-12.35 35.91-9.21 3.18 12.36-35.92 9.2" fill="#5F92D3"/><path d="M1266.11 2133.68l-804.531-464.44c-22.762-13.14-19.911-36.09 6.374-51.25l547.827-316.16c26.28-15.16 66.03-16.81 88.79-3.68l804.52 464.45c22.77 13.14 19.92 36.09-6.37 51.25l-547.82 316.16c-26.28 15.17-66.04 16.81-88.79 3.67z" fill="#D9EFFB"/><path d="M1938.86 849.001l-817.81-471.716c-10.53-6.074-20.2-7.015-27.99-3.77l.03-.087-1.34.62-.33.153-26.62 12.528 28.9 14.388-.05 1.59.25 671.623c0 33.61 20.8 72.85 46.46 87.65l796 459.13 4.52 37.46 29.07-13.86c9.57-5.63 15.64-18.34 15.63-36.45l-.26-671.618c-.01-33.611-20.81-72.852-46.46-87.641z" fill="#263C7A"/><path d="M1938.86 849.001l-817.81-471.716c-10.53-6.074-20.2-7.015-27.99-3.77l.03-.087-1.34.62-.33.153-26.62 12.528 28.9 14.388-.05 1.59.16 442.648 372.18 294.025 505.34-254.289c-8.38-15.562-19.83-28.805-32.47-36.09" fill="#4067B1"/><path d="M1952.52 859.557l-80.15 33.714 60.51 46.606 50.54-21.506c-4.4-22.081-16.05-44.272-30.9-58.814z" fill="#2E4B8D"/><path d="M1912.24 1655.01l-817.81-471.71c-25.65-14.79-46.45-54.03-46.47-87.65l-.25-671.62c-.01-33.604 20.77-48.86 46.43-34.071l817.8 471.716c25.65 14.796 46.46 54.037 46.46 87.641l.25 671.624c.02 33.6-20.76 48.86-46.41 34.07z" fill="#D9EFFB"/><path d="M1885.03 1605.05l-763.79-440.34c-23.47-13.54-42.51-49.45-42.52-80.21l-.23-614.58c-.01-30.76 19.01-44.718 42.48-31.175l763.79 440.343c23.47 13.535 42.51 49.443 42.52 80.203l.23 614.579c.02 30.76-19.01 44.72-42.48 31.18" fill="#fff"/><path d="M1885.03 1605.05l-763.79-440.34c-23.47-13.54-42.51-49.45-42.52-80.21l-.23-614.58c-.01-30.76 19.01-44.718 42.48-31.175l763.79 440.343c23.47 13.535 42.51 49.443 42.52 80.203l.23 614.579c.02 30.76-19.01 44.72-42.48 31.18" fill="#fff"/><path d="M1924.44 1675.87l-109.97-14.52-709.9-409.81c-22.76-13.14-62.52-11.49-88.8 3.68L512.739 1545.5l-66.501-8.78v37.73l.073.01c-.445 8.71 4.522 17.11 15.265 23.3L1266.1 2062.2c22.76 13.15 62.52 11.5 88.8-3.67l547.82-316.15c14.79-8.53 22.15-19.52 21.72-29.85v-36.66" fill="#263C7A"/><path d="M1391.05 1416.92l-50.44-29.12H786.108l-273.369 157.7-66.501-8.78v37.73l.073.01c-.445 8.71 4.522 17.11 15.265 23.3L1266.1 2062.2c12.03 6.95 28.81 9.72 45.83 8.6l79.12-653.88z" fill="#4067B1"/><path d="M475.754 1540.61l-29.516-3.89v37.73l.073.01c-.445 8.71 4.522 17.1 15.265 23.29l14.178 8.19v-65.33" fill="#5F92D3"/><path d="M1274.2 2065.97c21.57 8.18 52.43 6.39 75.45-4.69v-84.15h-75.45v88.84z" fill="#2E4B8D"/><path d="M1266.11 2024.52l-804.531-464.44c-22.762-13.14-19.911-36.09 6.374-51.26l547.827-316.14c26.28-15.18 66.03-16.82 88.79-3.68l804.52 464.44c22.77 13.14 19.92 36.09-6.37 51.26l-547.82 316.14c-26.28 15.18-66.04 16.82-88.79 3.68z" fill="#D9EFFB"/><path d="M1902.72 1690.92l-547.82 316.14c-26.28 15.17-66.04 16.82-88.8 3.68L461.577 1546.3c-7.469-4.31-12.122-9.67-14.149-15.47-3.559 10.76.977 21.64 14.149 29.25l804.523 464.44c22.76 13.14 62.52 11.5 88.8-3.68l547.82-316.14c17.66-10.2 24.69-23.9 20.53-35.79-2.6 7.84-9.45 15.61-20.53 22.01z" fill="#fff"/><path d="M803.759 1406.32l-36.408-21.01c-2.925-1.69-2.553-4.64.824-6.59l42.958-24.8c3.376-1.95 8.482-2.16 11.406-.48l36.401 21.02c2.918 1.69 2.56 4.64-.816 6.59l-42.965 24.8c-3.377 1.95-8.483 2.16-11.4.47zm56.211 32.45l-36.408-21.01c-2.917-1.69-2.545-4.63.824-6.59l42.965-24.8c3.377-1.95 8.482-2.16 11.407-.47l36.401 21.01c2.917 1.69 2.56 4.64-.817 6.59l-42.972 24.8c-3.377 1.95-8.475 2.16-11.4.47m56.215 32.46l-36.409-21.01c-2.917-1.69-2.552-4.64.825-6.59l42.964-24.81c3.377-1.94 8.475-2.16 11.407-.46l36.401 21.01c2.918 1.69 2.56 4.63-.816 6.58l-42.973 24.8c-3.377 1.96-8.482 2.16-11.399.48m77.748-26.8l-36.401-21.02c-2.925-1.68-2.56-4.63.817-6.58l36.065-20.83c3.377-1.94 8.486-2.15 11.406-.46l36.4 21.01c2.92 1.69 2.55 4.63-.81 6.58l-36.08 20.83c-3.37 1.94-8.472 2.15-11.397.47m56.217 32.45l-36.4-21.02c-2.93-1.68-2.56-4.63.82-6.58l36.06-20.82c3.38-1.94 8.48-2.16 11.41-.47l36.4 21.02c2.92 1.67 2.55 4.63-.82 6.57l-36.07 20.83c-3.38 1.94-8.48 2.16-11.4.47m56.22 32.45l-36.41-21.01c-2.93-1.69-2.56-4.64.82-6.59l36.07-20.82c3.37-1.95 8.47-2.16 11.4-.47l36.4 21.01c2.92 1.69 2.56 4.64-.81 6.58l-36.07 20.82c-3.38 1.96-8.49 2.17-11.4.48m56.21 32.46l-36.4-21.02c-2.93-1.69-2.56-4.64.81-6.58l36.07-20.82c3.37-1.96 8.48-2.16 11.4-.49l36.4 21.02c2.93 1.69 2.56 4.64-.81 6.59l-36.07 20.82c-3.37 1.95-8.48 2.16-11.4.48m56.22 32.45l-36.41-21.02c-2.92-1.69-2.56-4.64.82-6.58l36.07-20.82c3.37-1.95 8.48-2.17 11.4-.48l36.41 21.02c2.91 1.68 2.55 4.63-.82 6.58l-36.07 20.82c-3.38 1.95-8.49 2.16-11.4.48zm56.21 32.44l-36.4-21.01c-2.92-1.68-2.56-4.63.82-6.58l36.06-20.82c3.38-1.95 8.49-2.17 11.41-.47l36.4 21.01c2.92 1.69 2.55 4.63-.81 6.58l-36.08 20.83c-3.37 1.94-8.48 2.15-11.4.46zm56.22 32.45l-36.4-21.01c-2.94-1.68-2.56-4.63.81-6.58l36.07-20.82c3.38-1.95 8.47-2.16 11.41-.47l36.4 21.01c2.91 1.69 2.55 4.64-.82 6.58l-36.07 20.83c-3.38 1.94-8.48 2.16-11.4.46zm56.21 32.46l-36.4-21.01c-2.93-1.69-2.55-4.63.82-6.59l36.06-20.82c3.38-1.94 8.48-2.16 11.41-.47l36.4 21.02c2.92 1.69 2.56 4.63-.82 6.57l-36.07 20.83c-3.37 1.95-8.48 2.16-11.4.47zm56.21 32.46l-36.4-21.02c-2.92-1.69-2.56-4.63.82-6.59l36.07-20.82c3.37-1.94 8.48-2.15 11.4-.47l36.4 21.02c2.92 1.69 2.56 4.63-.81 6.58l-36.08 20.82c-3.37 1.95-8.48 2.16-11.4.48zm56.22 32.45l-36.4-21.02c-2.92-1.69-2.56-4.64.82-6.58l36.06-20.82c3.38-1.94 8.48-2.16 11.41-.47l36.4 21.02c2.92 1.67 2.56 4.62-.82 6.57l-36.07 20.82c-3.38 1.95-8.48 2.16-11.4.48z" fill="#263C7A"/><path d="M1076.76 1429.07l-36.4-21.02c-2.92-1.69-2.56-4.64.82-6.59l36.07-20.82c3.37-1.95 8.48-2.15 11.4-.48l36.4 21.02c2.93 1.69 2.55 4.64-.81 6.59l-36.07 20.82c-3.38 1.95-8.48 2.16-11.41.48m-57.05-32.94l-36.404-21.02c-2.924-1.68-2.56-4.64.817-6.58l36.067-20.83c3.38-1.94 8.48-2.15 11.41-.46l36.4 21.01c2.91 1.68 2.56 4.63-.82 6.58l-36.07 20.82c-3.37 1.95-8.49 2.16-11.4.48" fill="#4067B1"/><path d="M962.556 1363.14l-78.396-45.27c-2.917-1.68-2.56-4.63.817-6.58l36.073-20.82c3.369-1.95 8.482-2.15 11.399-.47l78.401 45.26c2.92 1.69 2.56 4.64-.82 6.58l-36.075 20.82c-3.362 1.96-8.474 2.16-11.399.48zm39.954-40.12l-63.628-36.74c-2.918-1.69-2.56-4.62.816-6.58l36.073-20.82c3.37-1.95 8.482-2.16 11.4-.47l63.629 36.72c2.92 1.69 2.55 4.64-.83 6.59l-36.06 20.82c-3.38 1.95-8.48 2.16-11.4.48" fill="#263C7A"/><path d="M1132.97 1461.52l-36.4-21.02c-2.91-1.69-2.55-4.64.82-6.58l36.07-20.82c3.37-1.95 8.49-2.17 11.4-.48l36.4 21.01c2.94 1.69 2.56 4.64-.81 6.59l-36.07 20.82c-3.37 1.95-8.47 2.16-11.41.48" fill="#4067B1"/><path d="M1189.19 1493.96l-36.4-21.01c-2.92-1.68-2.56-4.63.82-6.58l36.07-20.82c3.37-1.95 8.48-2.17 11.4-.48l36.4 21.02c2.92 1.69 2.56 4.63-.82 6.58l-36.06 20.83c-3.38 1.94-8.49 2.15-11.41.46zm56.22 32.46l-36.4-21.01c-2.92-1.69-2.56-4.63.81-6.59l36.07-20.82c3.38-1.95 8.49-2.16 11.4-.47l36.41 21.01c2.92 1.69 2.56 4.64-.82 6.58l-36.07 20.83c-3.37 1.94-8.48 2.16-11.4.47zm56.22 32.44l-36.4-21.01c-2.93-1.69-2.56-4.63.81-6.58l36.08-20.82c3.37-1.95 8.47-2.16 11.39-.47l36.41 21.01c2.92 1.69 2.55 4.64-.82 6.58l-36.07 20.83c-3.37 1.94-8.48 2.16-11.4.46zm56.2 32.47l-36.4-21.02c-2.92-1.69-2.55-4.63.82-6.59l36.07-20.82c3.38-1.94 8.48-2.15 11.4-.47l36.4 21.02c2.93 1.69 2.56 4.63-.81 6.58l-36.07 20.82c-3.38 1.95-8.48 2.16-11.41.48zm56.22 32.45l-36.4-21.02c-2.92-1.69-2.56-4.64.82-6.58l36.07-20.82c3.38-1.95 8.48-2.16 11.4-.47l36.4 21.01c2.93 1.68 2.56 4.63-.82 6.58l-36.06 20.83c-3.38 1.94-8.48 2.15-11.41.47zm56.22 32.45l-36.4-21.02c-2.92-1.68-2.56-4.64.81-6.58l36.08-20.82c3.37-1.95 8.48-2.16 11.4-.47l36.4 21.01c2.92 1.68 2.56 4.63-.82 6.58l-36.06 20.82c-3.38 1.95-8.49 2.16-11.41.48zm56.21 32.45l-36.4-21.01c-2.92-1.69-2.56-4.64.82-6.58l36.07-20.83c3.38-1.95 8.48-2.15 11.4-.47l36.4 21.01c2.93 1.69 2.56 4.64-.81 6.59l-36.07 20.82c-3.38 1.95-8.48 2.16-11.41.47m56.22 32.45l-36.41-21.01c-2.91-1.69-2.55-4.64.82-6.59l36.07-20.81c3.38-1.96 8.49-2.17 11.4-.48l36.4 21.01c2.94 1.7 2.56 4.64-.81 6.58l-36.07 20.83c-3.37 1.95-8.47 2.16-11.4.47zm99.94 57.69l-79.43-45.85c-2.92-1.69-2.56-4.63.82-6.58l36.06-20.82c3.38-1.95 8.49-2.16 11.41-.47l79.43 45.84c2.92 1.7 2.55 4.64-.82 6.6l-36.07 20.81c-3.37 1.95-8.48 2.16-11.4.47m109.44-63.18l-67.03-38.69c-2.93-1.69-2.56-4.64.81-6.6l36.08-20.81c3.37-1.95 8.47-2.16 11.4-.47l67.03 38.7c2.92 1.69 2.56 4.63-.82 6.58l-36.06 20.82c-3.38 1.95-8.49 2.16-11.41.47zm-560.66-260.47l-36.4-21.02c-2.92-1.69-2.56-4.64.82-6.58l36.07-20.82c3.38-1.95 8.48-2.16 11.4-.47l36.4 21.01c2.93 1.68 2.56 4.63-.82 6.58l-36.06 20.82c-3.38 1.95-8.48 2.16-11.41.48zm-57.61-33.26l-36.4-21.02c-2.93-1.69-2.56-4.63.81-6.58l36.07-20.83c3.38-1.94 8.48-2.15 11.41-.46l36.4 21.01c2.92 1.68 2.56 4.63-.82 6.58l-36.07 20.82c-3.38 1.95-8.48 2.17-11.4.48z" fill="#263C7A"/><path d="M1116.19 1388.65l-36.4-21.01c-2.92-1.69-2.55-4.64.82-6.6l36.07-20.81c3.38-1.95 8.48-2.16 11.4-.48l36.41 21.02c2.91 1.69 2.55 4.64-.83 6.58l-36.06 20.82c-3.38 1.96-8.49 2.16-11.41.48" fill="#4067B1"/><path d="M1058.58 1355.38l-36.4-21.01c-2.93-1.68-2.56-4.63.82-6.58l36.06-20.83c3.38-1.94 8.48-2.16 11.41-.46l36.4 21.01c2.92 1.69 2.56 4.64-.82 6.58l-36.07 20.83c-3.37 1.94-8.48 2.15-11.4.46m229.06 132.24l-36.4-21.02c-2.92-1.68-2.56-4.64.81-6.58l36.08-20.82c3.37-1.95 8.48-2.16 11.4-.47l36.4 21.01c2.92 1.68 2.56 4.63-.82 6.58l-36.07 20.82c-3.37 1.95-8.48 2.16-11.4.48zm56.21 32.45l-36.4-21.02c-2.91-1.68-2.56-4.64.82-6.58l36.07-20.82c3.38-1.95 8.48-2.16 11.4-.47l36.4 21.01c2.93 1.68 2.56 4.64-.81 6.58l-36.07 20.83c-3.38 1.94-8.48 2.15-11.41.47zm56.21 32.45l-36.39-21.01c-2.93-1.69-2.56-4.64.82-6.59l36.07-20.81c3.37-1.96 8.47-2.17 11.4-.48l36.39 21.01c2.93 1.69 2.56 4.64-.81 6.58l-36.07 20.83c-3.37 1.95-8.48 2.16-11.41.47zm56.22 32.45l-36.4-21.01c-2.92-1.69-2.55-4.63.82-6.59l36.07-20.81c3.38-1.96 8.48-2.17 11.4-.48l36.4 21.01c2.93 1.7 2.56 4.64-.82 6.59l-36.06 20.82c-3.38 1.95-8.48 2.16-11.41.47zm56.22 32.46l-36.4-21.01c-2.92-1.7-2.56-4.64.81-6.6l36.08-20.81c3.37-1.95 8.48-2.16 11.4-.47l36.4 21.01c2.92 1.69 2.56 4.63-.82 6.58l-36.06 20.82c-3.38 1.96-8.49 2.16-11.41.48zm56.21 32.45l-36.4-21.02c-2.92-1.68-2.55-4.63.82-6.58l36.07-20.83c3.38-1.94 8.48-2.15 11.4-.46L1617 1622c2.93 1.69 2.56 4.63-.81 6.58l-36.07 20.82c-3.38 1.95-8.48 2.16-11.41.48zm56.21 32.45l-36.39-21.02c-2.92-1.68-2.55-4.63.82-6.58l36.07-20.82c3.37-1.94 8.47-2.16 11.4-.47l36.39 21.02c2.93 1.68 2.56 4.63-.81 6.57l-36.07 20.83c-3.37 1.94-8.47 2.15-11.41.47zm56.22 32.45l-36.4-21.02c-2.92-1.68-2.55-4.63.82-6.58l36.07-20.82c3.38-1.94 8.48-2.15 11.4-.47l36.4 21.02c2.93 1.67 2.56 4.63-.82 6.58l-36.06 20.82c-3.38 1.94-8.48 2.16-11.41.47zm56.22 32.45l-36.4-21.01c-2.92-1.69-2.56-4.64.81-6.58l36.08-20.82c3.37-1.96 8.48-2.16 11.39-.48l36.41 21.01c2.92 1.69 2.56 4.64-.82 6.59l-36.07 20.82c-3.37 1.95-8.48 2.16-11.4.47zm-535.54-372.33l-36.41-21.02c-2.91-1.68-2.55-4.64.83-6.58l36.06-20.83c3.38-1.94 8.48-2.15 11.41-.46l36.4 21.01c2.93 1.68 2.55 4.63-.82 6.58l-36.07 20.82c-3.38 1.95-8.47 2.16-11.4.48zm-55.93-32.29l-36.41-21.02c-2.91-1.68-2.55-4.64.83-6.58l36.06-20.82c3.38-1.95 8.48-2.16 11.41-.48l36.4 21.02c2.92 1.68 2.55 4.64-.82 6.58l-36.07 20.82c-3.38 1.95-8.48 2.16-11.4.48m-55.94-32.3l-36.4-21c-2.92-1.7-2.56-4.64.82-6.6l36.06-20.81c3.38-1.95 8.49-2.16 11.41-.48l36.4 21.02c2.93 1.69 2.55 4.64-.82 6.57l-36.07 20.83c-3.38 1.95-8.47 2.16-11.4.47m-55.93-32.29l-36.403-21.01c-2.925-1.7-2.56-4.63.817-6.59l36.066-20.82c3.38-1.95 8.48-2.16 11.41-.47l36.4 21.01c2.91 1.7 2.56 4.63-.82 6.59l-36.07 20.82c-3.38 1.95-8.48 2.16-11.4.47m57.52-33.2l-36.41-21.01c-2.92-1.69-2.55-4.64.83-6.58l11.92-6.89c3.37-1.95 8.48-2.16 11.4-.47l36.4 21.01c2.92 1.68 2.56 4.64-.81 6.58l-11.93 6.88c-3.38 1.96-8.48 2.17-11.4.48zm72.99 42.14l-36.4-21.02c-2.92-1.69-2.55-4.63.81-6.58l11.93-6.88c3.37-1.95 8.48-2.16 11.4-.48l36.4 21.02c2.93 1.68 2.56 4.63-.81 6.58l-11.93 6.88c-3.37 1.95-8.47 2.17-11.4.48zm55.7 32.15l-36.4-21.01c-2.92-1.69-2.56-4.63.82-6.58l11.92-6.89c3.38-1.94 8.49-2.16 11.4-.47l36.41 21.02c2.92 1.69 2.55 4.63-.82 6.58l-11.92 6.89c-3.38 1.94-8.49 2.15-11.41.46zm55.71 32.16l-36.4-21.01c-2.93-1.69-2.56-4.64.81-6.59l11.93-6.88c3.37-1.95 8.48-2.17 11.4-.47l36.4 21.01c2.92 1.69 2.56 4.63-.82 6.59l-11.92 6.88c-3.38 1.95-8.49 2.15-11.4.47zm55.7 32.16l-36.4-21.02c-2.93-1.69-2.56-4.63.82-6.57l11.92-6.9c3.38-1.93 8.47-2.15 11.41-.46l36.4 21.01c2.91 1.68 2.55 4.63-.82 6.58l-11.93 6.88c-3.37 1.95-8.48 2.17-11.4.48zm310.98 179.52l-36.4-21.02c-2.93-1.68-2.56-4.64.82-6.58l11.92-6.89c3.38-1.94 8.47-2.15 11.4-.46l36.41 21.01c2.92 1.69 2.55 4.64-.83 6.58l-11.91 6.88c-3.38 1.95-8.49 2.16-11.41.48zm55.7 32.15l-36.4-21.01c-2.93-1.68-2.56-4.64.81-6.58l11.93-6.88c3.37-1.95 8.48-2.17 11.4-.48l36.4 21.02c2.93 1.68 2.56 4.63-.82 6.57l-11.93 6.9c-3.36 1.94-8.47 2.15-11.39.46m55.7 32.16l-36.4-21.01c-2.92-1.69-2.56-4.63.82-6.58l11.92-6.89c3.37-1.95 8.48-2.15 11.4-.47l36.4 21.01c2.93 1.69 2.56 4.64-.81 6.59l-11.93 6.88c-3.37 1.95-8.47 2.17-11.4.47zm55.7 32.15l-36.4-21.01c-2.91-1.69-2.56-4.63.82-6.58l11.92-6.88c3.38-1.95 8.49-2.16 11.41-.48l36.4 21.02c2.92 1.69 2.56 4.63-.82 6.58l-11.92 6.89c-3.38 1.94-8.48 2.16-11.41.46zm-551.68-252.06l-36.41-21.02c-2.92-1.68-2.55-4.64.82-6.58l36.07-20.82c3.38-1.95 8.48-2.16 11.41-.48l36.4 21.02c2.92 1.68 2.55 4.64-.83 6.59l-36.06 20.82c-3.38 1.94-8.48 2.15-11.4.47zm56.22 32.45l-36.41-21.02c-2.92-1.68-2.55-4.63.82-6.58l36.07-20.81c3.38-1.96 8.47-2.17 11.41-.48l36.4 21.01c2.91 1.69 2.55 4.64-.83 6.58l-36.06 20.83c-3.38 1.94-8.48 2.16-11.4.47zm56.21 32.45l-36.4-21.01c-2.93-1.69-2.56-4.63.82-6.59l36.07-20.81c3.37-1.96 8.47-2.17 11.4-.48l36.4 21.01c2.92 1.7 2.55 4.64-.83 6.58l-36.06 20.83c-3.37 1.95-8.48 2.16-11.4.47zm56.21 32.46l-36.4-21.01c-2.92-1.7-2.56-4.64.82-6.6l36.07-20.82c3.37-1.94 8.48-2.16 11.4-.46l36.4 21.01c2.93 1.69 2.56 4.63-.82 6.58l-36.07 20.82c-3.37 1.96-8.47 2.16-11.4.48zm56.22 32.45l-36.4-21.02c-2.93-1.69-2.56-4.63.82-6.58l36.06-20.83c3.38-1.94 8.48-2.15 11.41-.46l36.4 21.01c2.92 1.69 2.55 4.63-.82 6.58l-36.07 20.82c-3.38 1.95-8.48 2.16-11.4.48zm56.22 32.45l-36.4-21.02c-2.93-1.68-2.56-4.63.82-6.58l36.06-20.82c3.38-1.94 8.48-2.16 11.41-.47l36.4 21.02c2.92 1.68 2.55 4.63-.82 6.57l-36.07 20.83c-3.38 1.94-8.48 2.15-11.4.47zm56.21 32.45l-36.39-21.02c-2.94-1.68-2.56-4.63.81-6.58l36.07-20.82c3.37-1.94 8.47-2.15 11.4-.47l36.4 21.02c2.92 1.67 2.55 4.63-.82 6.57l-36.07 20.83c-3.37 1.94-8.48 2.16-11.4.47zm56.22 32.45l-36.41-21.01c-2.92-1.69-2.56-4.64.82-6.58l36.07-20.82c3.37-1.96 8.48-2.16 11.4-.48l36.41 21.01c2.92 1.69 2.55 4.64-.82 6.59l-36.07 20.82c-3.38 1.95-8.48 2.16-11.4.47zm56.21 32.46l-36.4-21.02c-2.92-1.69-2.56-4.64.82-6.58l36.06-20.82c3.38-1.96 8.49-2.16 11.41-.48l36.4 21.01c2.92 1.69 2.55 4.64-.81 6.6l-36.08 20.81c-3.37 1.95-8.48 2.16-11.4.48zm-771.114-255.62l-107.205-61.88c-2.925-1.69-2.56-4.64.817-6.58l36.072-20.83c3.377-1.95 8.475-2.15 11.4-.47l107.205 61.89c2.925 1.69 2.56 4.63-.817 6.58l-36.065 20.82c-3.377 1.95-8.483 2.16-11.407.47m690.624 398.69l-107.22-61.9c-2.91-1.68-2.55-4.62.83-6.57l36.06-20.82c3.38-1.95 8.49-2.16 11.41-.48l107.21 61.89c2.91 1.69 2.55 4.63-.83 6.59l-36.06 20.81c-3.38 1.96-8.48 2.17-11.4.48zm-224.82-58.1l-36.4-21.02c-2.92-1.68-2.56-4.63.82-6.57l42.97-24.81c3.36-1.95 8.47-2.16 11.4-.48l36.4 21.02c2.92 1.68 2.55 4.64-.81 6.58l-42.98 24.81c-3.37 1.94-8.48 2.16-11.4.47zm-408.234-235.66l-58.222-33.62c-2.918-1.69-2.553-4.63.824-6.58l42.958-24.81c3.376-1.94 8.482-2.15 11.406-.47l58.218 33.61c2.93 1.69 2.56 4.64-.82 6.58l-42.96 24.8c-3.38 1.96-8.486 2.16-11.404.49m354.074 204.39l-58.22-33.61c-2.92-1.68-2.55-4.63.82-6.58l42.97-24.8c3.37-1.95 8.48-2.16 11.4-.48l58.22 33.61c2.92 1.69 2.56 4.63-.82 6.59l-42.97 24.8c-3.38 1.95-8.48 2.16-11.4.47zm-272.97-157.58l-58.21-33.61c-2.93-1.68-2.56-4.63.81-6.57l42.97-24.81c3.37-1.95 8.48-2.17 11.4-.48l58.22 33.61c2.92 1.69 2.56 4.63-.82 6.59l-42.97 24.8c-3.37 1.95-8.47 2.16-11.4.47" fill="#263C7A"/><path d="M1072.69 1497.85l253.11 146.12c3.13 1.81 3.13 4.75 0 6.57l-43.81 25.28c-3.15 1.82-8.24 1.82-11.38 0l-253.11-146.11 55.19-31.86m486.87 312.93l40.55 23.41c2.39 1.38 2.1 3.8-.67 5.4l-17.58 10.14c-2.76 1.6-6.95 1.77-9.34.39l-40.55-23.41c-2.4-1.39-2.1-3.8.67-5.39l17.58-10.15c2.76-1.6 6.95-1.77 9.34-.39zm-56.67-32.72l40.55 23.41c2.39 1.37 2.09 3.79-.68 5.39l-17.57 10.15c-2.77 1.6-6.96 1.77-9.36.39l-40.54-23.41c-2.39-1.39-2.1-3.8.68-5.4l17.57-10.14c2.77-1.6 6.95-1.77 9.35-.39zm-56.22-32.45l40.55 23.41c2.39 1.37 2.09 3.79-.67 5.39l-17.58 10.15c-2.77 1.59-6.96 1.77-9.35.38l-40.54-23.41c-2.4-1.37-2.1-3.79.67-5.39l17.57-10.14c2.77-1.6 6.95-1.78 9.35-.39m87.26 14.53l40.54 23.41c2.4 1.38 2.09 3.79-.66 5.39l-17.59 10.15c-2.75 1.6-6.95 1.77-9.34.39l-40.54-23.41c-2.4-1.39-2.1-3.8.66-5.4l17.58-10.14c2.76-1.6 6.95-1.77 9.35-.39z" fill="#263C7A"/><path d="M1594.27 961.041l-34.81-20.098c-3.23-1.867-5.91-6.892-5.98-11.231-.07-4.339 2.49-6.337 5.72-4.477l34.82 20.105c3.22 1.86 5.91 6.884 5.97 11.223.07 4.332-2.48 6.345-5.72 4.478zm82.93 47.879l-51.34-29.639c-3.22-1.867-5.9-6.898-5.97-11.23-.07-4.339 2.5-6.337 5.73-4.478l51.33 29.637c3.24 1.867 5.9 6.89 5.97 11.23.07 4.34-2.48 6.34-5.72 4.48zm-100.18 137.76l-34.81-20.1c-3.23-1.87-5.91-6.89-5.98-11.23-.07-4.34 2.49-6.34 5.72-4.48l34.82 20.11c3.23 1.85 5.9 6.88 5.97 11.22.07 4.33-2.49 6.35-5.72 4.48zm73.93 42.67l-51.33-29.63c-3.24-1.87-5.91-6.89-5.98-11.23-.07-4.34 2.49-6.34 5.71-4.47l51.35 29.63c3.23 1.86 5.9 6.89 5.97 11.23.08 4.34-2.49 6.34-5.72 4.47m-152.14-250.822l-21.75-12.557c-3.23-1.867-5.91-6.892-5.98-11.231-.07-4.339 2.49-6.337 5.72-4.47l21.75 12.558c3.24 1.852 5.91 6.884 5.98 11.223.07 4.331-2.49 6.344-5.72 4.477m74.27 75.482l-66.45-38.37c-3.24-1.867-5.91-6.891-5.98-11.223-.06-4.339 2.49-6.345 5.72-4.485l66.46 38.366c3.22 1.862 5.9 6.902 5.97 11.232.07 4.34-2.49 6.34-5.72 4.48zm-43.63 40l-21.76-12.55c-3.22-1.87-5.9-6.89-5.97-11.23-.07-4.34 2.49-6.34 5.72-4.47l21.75 12.55c3.23 1.86 5.9 6.89 5.98 11.23.06 4.33-2.5 6.34-5.72 4.47m147.17 215.37l-58.09-33.54c-3.23-1.86-5.9-6.89-5.97-11.23-.08-4.33 2.49-6.35 5.71-4.48l58.1 33.54c3.23 1.86 5.9 6.89 5.97 11.23.07 4.34-2.49 6.34-5.72 4.48zm-153.9-154.05l-13.96-8.05c-3.23-1.87-5.9-6.9-5.98-11.23-.06-4.34 2.5-6.35 5.72-4.49l13.97 8.07c3.23 1.87 5.9 6.89 5.97 11.23.07 4.34-2.49 6.34-5.72 4.47m4.45 67.76l-17.34-10.01c-3.23-1.86-5.9-6.89-5.97-11.23-.08-4.34 2.49-6.33 5.71-4.47l17.34 10.01c3.23 1.87 5.9 6.89 5.97 11.23.08 4.33-2.48 6.34-5.71 4.47zm67.44 38.94l-45.7-26.38c-3.23-1.87-5.91-6.9-5.98-11.23-.08-4.34 2.49-6.35 5.71-4.49l45.72 26.4c3.22 1.85 5.91 6.89 5.97 11.23.07 4.33-2.49 6.34-5.72 4.47zm-51.39 2.93l-32.86-18.96c-3.23-1.87-5.9-6.9-5.97-11.23-.08-4.34 2.49-6.35 5.71-4.48l32.87 18.97c3.23 1.86 5.9 6.89 5.97 11.23.07 4.34-2.48 6.34-5.72 4.47zm183.27 73.34l-21.1-12.18c-3.23-1.86-5.91-6.89-5.98-11.22-.07-4.34 2.49-6.35 5.72-4.48l21.11 12.18c3.23 1.86 5.91 6.9 5.97 11.23.08 4.34-2.49 6.34-5.72 4.47m-116.14-197.58l-58.1-33.53c-3.23-1.87-5.9-6.9-5.97-11.24-.07-4.33 2.5-6.34 5.72-4.47l58.09 33.54c3.24 1.86 5.91 6.89 5.98 11.23.07 4.34-2.49 6.33-5.72 4.47zm-1.95-33.73l-101.24-58.45c-3.23-1.86-5.91-6.89-5.97-11.228-.07-4.332 2.48-6.337 5.72-4.47l101.25 58.448c3.22 1.87 5.9 6.89 5.97 11.23.07 4.34-2.49 6.34-5.73 4.47zm-42.09 40.92l-58.09-33.54c-3.22-1.87-5.9-6.89-5.97-11.23-.07-4.34 2.49-6.35 5.72-4.48l58.09 33.53c3.23 1.87 5.91 6.9 5.98 11.23.06 4.34-2.49 6.35-5.73 4.49m88.09 18.24l-21.1-12.18c-3.24-1.86-5.91-6.89-5.98-11.23-.06-4.34 2.49-6.34 5.73-4.48l21.1 12.18c3.23 1.87 5.9 6.9 5.98 11.23.06 4.34-2.5 6.35-5.73 4.48m179.38-26.83l-124.98-72.16c-3.23-1.87-5.9-6.89-5.98-11.23-.07-4.34 2.5-6.34 5.72-4.47l124.99 72.14c3.23 1.87 5.9 6.9 5.98 11.24.07 4.33-2.5 6.34-5.73 4.48m-254.66 81.17l-69.82-40.32c-3.24-1.86-5.91-6.89-5.98-11.23-.07-4.33 2.49-6.34 5.72-4.47l69.83 40.31c3.23 1.86 5.9 6.9 5.97 11.23.07 4.34-2.49 6.34-5.72 4.48zm-51.26-257.785l-51.33-29.636c-3.24-1.867-5.91-6.899-5.98-11.231-.07-4.339 2.49-6.344 5.73-4.477l51.33 29.636c3.23 1.867 5.9 6.892 5.97 11.231.07 4.331-2.49 6.337-5.72 4.477m13.45 333.765l-59.45-34.33c-3.22-1.86-5.9-6.89-5.97-11.23-.08-4.34 2.49-6.34 5.71-4.47l59.46 34.31c3.24 1.87 5.91 6.9 5.98 11.24.07 4.33-2.49 6.34-5.73 4.48zM21.088 1308.15l306.248-178.29c60.673-35.02 117.882-40.56 161.109-15.63 43.213 24.95 67.019 77.26 67.019 147.31v22.44a184.426 184.426 0 01-6.754 4.31v-26.75c0-67.53-22.602-117.77-63.642-141.46-41.046-23.69-95.863-18.14-154.356 15.63L24.465 1313.99c-1.597.96-3.675.4-4.609-1.23-.934-1.6-.38-3.68 1.232-4.61m955.052-212.39V405.691c0-138.12 97.34-306.694 216.98-375.754 58.58-33.822 113.86-39.182 155.61-15.08 41.75 24.094 64.74 74.624 64.74 142.276v48.116c-2.25 2.253-4.5 4.507-6.75 6.753v-54.869c0-65.136-21.8-113.595-61.37-136.435-39.57-22.826-92.44-17.48-148.86 15.08-117.77 67.996-213.597 233.937-213.597 369.913v690.069c0 114.49-67.368 250-158.739 331.54v-9.06c87.76-80.63 151.986-211.58 151.986-322.48" fill="#D9EFFB"/><path d="M1413.47 226.365c11.09-10.53 62.8-56.145 138.25-67.674 85.46-13.068 120.77 86.861 120.77 86.861s9.89 51.901 9.53 82.624c-.35 30.709-2.55 142.269-2.55 142.269l-270.9-156.03v-.044c-1.08-.554-1.86-1.663-1.86-2.968v-79.204c2.26-2.246 4.51-3.58 6.76-5.834z" fill="#263C7A"/><path d="M1605.49 162.862L1348.72 14.854l1.01 3.682c-39.57-25.56-99.38-28.317-179.39 30.344-158.9 116.52-177.991 278.734-186.094 309.122-8.103 30.403-4.769 222.983-4.769 222.983s-.526 464.485-1.058 518.505c-.525 54.01-16.257 114.63-46.612 180.07-30.354 65.45-108.32 144.86-108.32 144.86v94.54c12.45 102.21 55.881 126.05 120.5 131.88 52.155 4.69 107.733-32.96 152.123-73.99-1.63 1.71-2.69 2.79-2.69 2.79v94.54c12.45 102.21 55.88 126.05 120.51 131.88 64.62 5.83 134.5-53.37 181.86-103.46 47.35-50.09 87.28-126.6 109.46-195.61 22.19-69.01 14.84-158.18 14.84-158.18s.53-507.738 1.06-607.835c.53-100.097 3.71-82.624 36.55-183.253 32.84-100.637 119.89-171.075 119.89-171.075l208.89-62.198-280.99-161.587" fill="#D9EFFB"/><path d="M1158.5 1797.56c-3.52-4.79-49.28-35.46-60.92-89.49-6.49-30.05-5.83-75.73-5.83-75.73s.18-25.41.79-48.51l1.55-1.31v-9.06l-1.27 1.12c.18-5.23.37-10.12.6-14.27 1.33-24.01-16.42-75.21-16.42-75.21s-25.16-68.58-100.106-71.23c-66.551-2.35-136.597 45.51-151.497 56.29v-30.96c-.984.67-2.056 1.31-3.085 1.97.088-4.16.19-8.4.299-12.56l1.539-1.31v-9.07l-1.262 1.12c.168-5.22.365-10.11.598-14.27 1.32-24-16.417-75.2-16.417-75.2s-25.169-68.58-100.116-71.24c-66.544-2.35-136.589 45.52-151.489 56.3v-30.96a185.285 185.285 0 01-6.754 4.31v54.22c0 65.69 21.887 115.06 61.636 139.58l.16.18 1.393.81 1.087.69.751.36 274.82 158.21-.342-.37 270.285 155.59" fill="#263C7A"/><path d="M758.389 1269.46s-2.057-1.07-5.689-2.55c-1.116-.53-2.188-1.16-3.325-1.66l-260.927-151.02s-47.939-25.19-105.921-3.97c-57.989 21.22-361.822 203.47-361.822 203.47l271.436 156.36.051-.02.729.19 269.161 155.06s152.285-94.33 257.63-155.2l6.761-3.88c43.067-24.77 77.28-43.26 88.008-46.11 64.947-17.21 110.149 3.77 121.919 10.22l-278.011-160.89" fill="#D9EFFB"/><path d="M1036.39 1430.35l3.15 1.82s-1.15-.72-3.15-1.82z" fill="#D9EFFB"/><path d="M1683.41 381.596c11.09-10.538 62.8-56.152 138.25-67.675 85.46-13.068 120.77 86.854 120.77 86.854s9.89 51.901 9.54 82.624c-.36 30.716-2.56 142.277-2.56 142.277l-270.89-156.038v-.036c-1.09-.562-1.86-1.663-1.86-2.976V387.43c2.25-2.254 4.5-3.588 6.75-5.834z" fill="#263C7A"/><path d="M1211.29 1809.84c29.87 0 62.93-9.98 97.15-29.73 118.77-68.56 215.4-235.91 215.4-373.04V717.007c0-135.976 95.82-301.917 213.6-369.927 56.41-32.547 109.28-37.914 148.85-15.074 39.57 22.855 61.36 71.299 61.36 136.443v154.265a3.375 3.375 0 003.38 3.377c1.87 0 3.38-1.51 3.38-3.377V468.449c0-67.66-22.99-118.183-64.74-142.284-41.75-24.102-97.02-18.742-155.61 15.074-119.64 69.067-216.98 237.648-216.98 375.768v690.063c0 134.99-95.11 299.71-212.02 367.2-55.99 32.32-108.47 37.65-147.75 14.96-39.28-22.66-60.9-70.76-60.9-135.41v-80.97c0-70.04-23.8-122.36-67.02-147.3-43.223-24.94-100.432-19.4-161.105 15.63l-306.24 178.29a3.36 3.36 0 00-1.232 4.61c.926 1.62 3.019 2.15 4.609 1.23l306.24-178.29c58.493-33.76 113.309-39.32 154.348-15.63 41.04 23.7 63.64 73.94 63.64 141.46v80.97c0 67.17 22.84 117.33 64.29 141.27 17.08 9.86 36.43 14.75 57.35 14.75" fill="#4067B1"/><path d="M1232.43 886.133l-45.28-26.137c-4.19-2.421-7.68-8.955-7.77-14.599-.09-5.637 3.25-8.241 7.45-5.82l45.27 26.137c4.2 2.428 7.68 8.962 7.76 14.599.1 5.645-3.23 8.248-7.43 5.82zm96.14 55.505l-66.77-38.541c-4.2-2.421-7.67-8.962-7.76-14.599-.1-5.645 3.24-8.248 7.44-5.82l66.75 38.534c4.2 2.428 7.67 8.962 7.77 14.599.09 5.638-3.24 8.248-7.43 5.827zm-101.26-228.021l-86.42-49.888c-4.2-2.429-7.68-8.963-7.77-14.6-.1-5.637 3.24-8.248 7.44-5.819l86.41 49.88c4.2 2.421 7.68 8.963 7.77 14.6.09 5.644-3.24 8.248-7.43 5.827zm-56.75 52.023l-28.28-16.328c-4.21-2.421-7.68-8.963-7.78-14.6-.09-5.644 3.24-8.247 7.45-5.819l28.28 16.321c4.2 2.428 7.68 8.969 7.76 14.607.1 5.637-3.23 8.24-7.43 5.819m-8.74 79.735l-18.15-10.479c-4.21-2.429-7.68-8.97-7.77-14.607-.1-5.637 3.24-8.248 7.43-5.819l18.15 10.479c4.21 2.428 7.68 8.962 7.78 14.607.09 5.637-3.25 8.247-7.44 5.819zm113.94-19.006l-75.53-43.602c-4.21-2.428-7.68-8.969-7.78-14.606-.09-5.645 3.25-8.248 7.44-5.82l75.54 43.602c4.21 2.428 7.68 8.97 7.77 14.607.1 5.637-3.24 8.24-7.44 5.819zm-2.52-43.846l-131.65-76.003c-4.2-2.428-7.68-8.962-7.78-14.599-.08-5.645 3.25-8.248 7.44-5.82l131.66 76.003c4.2 2.428 7.67 8.962 7.77 14.599.09 5.637-3.24 8.241-7.44 5.82zm-54.73 53.183l-75.54-43.602c-4.2-2.428-7.68-8.97-7.77-14.599-.09-5.645 3.24-8.248 7.44-5.827l75.54 43.616c4.2 2.421 7.68 8.955 7.77 14.593.09 5.644-3.24 8.247-7.44 5.819m114.55 23.736l-27.45-15.846c-4.2-2.421-7.68-8.955-7.77-14.6-.09-5.637 3.24-8.24 7.44-5.812l27.44 15.832c4.2 2.429 7.68 8.97 7.77 14.607.1 5.644-3.24 8.248-7.43 5.819m-78.2-214.698l-45.27-26.137c-4.2-2.428-7.68-8.97-7.77-14.599-.09-5.645 3.24-8.248 7.43-5.827l45.28 26.136c4.19 2.429 7.68 8.963 7.77 14.6.09 5.637-3.24 8.248-7.44 5.827zm107.84 62.255l-66.75-38.54c-4.2-2.422-7.68-8.963-7.78-14.6-.08-5.644 3.25-8.248 7.45-5.819l66.75 38.533c4.2 2.421 7.68 8.963 7.78 14.6.08 5.644-3.25 8.248-7.45 5.826" fill="#5F92D3"/><path d="M1232.43 886.133l-45.28-26.137c-4.19-2.421-7.68-8.955-7.77-14.599-.09-5.637 3.25-8.241 7.45-5.82l45.27 26.137c4.2 2.428 7.68 8.962 7.76 14.599.1 5.645-3.23 8.248-7.43 5.82zm96.14 55.505l-66.77-38.541c-4.2-2.421-7.67-8.962-7.76-14.599-.1-5.645 3.24-8.248 7.44-5.82l66.75 38.534c4.2 2.428 7.67 8.962 7.77 14.599.09 5.638-3.24 8.248-7.43 5.827zm-197.84-326.175l-28.29-16.321c-4.2-2.428-7.68-8.97-7.77-14.607-.09-5.644 3.25-8.247 7.45-5.819l28.27 16.328c4.2 2.421 7.68 8.962 7.77 14.599.09 5.645-3.23 8.248-7.43 5.82m96.58 98.154l-86.42-49.888c-4.2-2.429-7.68-8.963-7.77-14.6-.1-5.637 3.24-8.248 7.44-5.819l86.41 49.88c4.2 2.421 7.68 8.963 7.77 14.6.09 5.644-3.24 8.248-7.43 5.827zm-56.75 52.023l-28.28-16.328c-4.21-2.421-7.68-8.963-7.78-14.6-.09-5.644 3.24-8.247 7.45-5.819l28.28 16.321c4.2 2.428 7.68 8.969 7.76 14.607.1 5.637-3.23 8.24-7.43 5.819m191.38 280.04l-75.53-43.61c-4.21-2.416-7.68-8.958-7.78-14.595-.09-5.644 3.24-8.248 7.44-5.827l75.54 43.612c4.2 2.43 7.68 8.96 7.77 14.6.1 5.64-3.24 8.25-7.44 5.82zm-200.12-200.305l-18.15-10.479c-4.21-2.429-7.68-8.97-7.77-14.607-.1-5.637 3.24-8.248 7.43-5.819l18.15 10.479c4.21 2.428 7.68 8.962 7.78 14.607.09 5.637-3.25 8.247-7.44 5.819zm5.77 88.114l-22.54-13.017c-4.2-2.428-7.68-8.955-7.77-14.599-.09-5.637 3.23-8.241 7.44-5.82l22.54 13.017c4.21 2.421 7.68 8.956 7.77 14.6.09 5.637-3.24 8.248-7.44 5.819m87.72 50.634l-59.44-34.311c-4.21-2.428-7.68-8.97-7.77-14.607-.1-5.637 3.23-8.24 7.43-5.819l59.44 34.311c4.2 2.428 7.67 8.97 7.77 14.607.09 5.637-3.24 8.248-7.43 5.819zm-66.83 3.812l-42.74-24.671c-4.2-2.428-7.68-8.962-7.76-14.599-.1-5.645 3.23-8.248 7.44-5.82l42.73 24.671c4.2 2.428 7.68 8.962 7.77 14.599.1 5.637-3.24 8.241-7.44 5.82zm87.28-161.566l-75.53-43.602c-4.21-2.428-7.68-8.969-7.78-14.606-.09-5.645 3.25-8.248 7.44-5.82l75.54 43.602c4.21 2.428 7.68 8.97 7.77 14.607.1 5.637-3.24 8.24-7.44 5.819zm-2.52-43.846l-131.65-76.003c-4.2-2.428-7.68-8.962-7.78-14.599-.08-5.645 3.25-8.248 7.44-5.82l131.66 76.003c4.2 2.428 7.67 8.962 7.77 14.599.09 5.637-3.24 8.241-7.44 5.82zm-54.73 53.183l-75.54-43.602c-4.2-2.428-7.68-8.97-7.77-14.599-.09-5.645 3.24-8.248 7.44-5.827l75.54 43.616c4.2 2.421 7.68 8.955 7.77 14.593.09 5.644-3.24 8.247-7.44 5.819m114.55 23.736l-27.45-15.846c-4.2-2.421-7.68-8.955-7.77-14.6-.09-5.637 3.24-8.24 7.44-5.812l27.44 15.832c4.2 2.429 7.68 8.97 7.77 14.607.1 5.644-3.24 8.248-7.43 5.819m-97.9 70.664l-90.8-52.426c-4.2-2.421-7.68-8.955-7.78-14.6-.09-5.637 3.25-8.248 7.45-5.819l90.8 52.418c4.19 2.429 7.68 8.963 7.77 14.607.09 5.637-3.24 8.241-7.44 5.82m-66.66-335.221l-66.75-38.534c-4.2-2.421-7.68-8.962-7.76-14.599-.1-5.645 3.23-8.248 7.43-5.827l66.75 38.541c4.21 2.421 7.68 8.962 7.78 14.599.09 5.638-3.25 8.248-7.45 5.82M1186 1028.9l-77.32-44.639c-4.19-2.428-7.68-8.962-7.77-14.607-.08-5.637 3.24-8.233 7.44-5.812l77.32 44.628c4.2 2.43 7.68 8.96 7.77 14.61.09 5.64-3.24 8.25-7.44 5.82zm35.79 263.32l-45.28-26.14c-4.2-2.42-7.68-8.96-7.77-14.6-.09-5.64 3.24-8.25 7.45-5.82l45.27 26.13c4.2 2.43 7.67 8.97 7.76 14.61.1 5.64-3.24 8.25-7.43 5.82zm96.14 55.49l-66.77-38.54c-4.2-2.42-7.67-8.95-7.76-14.6-.1-5.64 3.23-8.25 7.43-5.83l66.76 38.54c4.2 2.43 7.67 8.97 7.77 14.6.09 5.65-3.24 8.25-7.43 5.83zm-101.27-228.01l-86.41-49.89c-4.2-2.43-7.68-8.97-7.77-14.61-.1-5.63 3.24-8.24 7.44-5.82l86.41 49.89c4.2 2.42 7.68 8.96 7.77 14.6.09 5.64-3.24 8.25-7.44 5.83m-56.74 52.02l-28.28-16.33c-4.21-2.42-7.68-8.96-7.78-14.6-.09-5.64 3.25-8.25 7.44-5.83l28.29 16.34c4.2 2.42 7.67 8.95 7.76 14.6.1 5.63-3.23 8.24-7.43 5.82zm-8.75 79.73l-18.15-10.48c-4.2-2.42-7.68-8.96-7.76-14.6-.1-5.64 3.23-8.25 7.43-5.82l18.15 10.47c4.21 2.43 7.68 8.97 7.78 14.61.09 5.64-3.25 8.25-7.45 5.82m113.95-18.99l-75.53-43.62c-4.21-2.42-7.69-8.96-7.78-14.6-.09-5.64 3.24-8.25 7.44-5.82l75.54 43.61c4.2 2.42 7.68 8.95 7.77 14.6.1 5.64-3.24 8.25-7.44 5.83m-2.52-43.86l-131.66-76.01c-4.2-2.42-7.68-8.95-7.78-14.6-.08-5.63 3.25-8.24 7.45-5.82l131.66 76.01c4.19 2.42 7.67 8.96 7.77 14.6.08 5.64-3.24 8.24-7.44 5.82zm-54.73 53.19l-75.55-43.61c-4.19-2.43-7.67-8.96-7.76-14.61-.1-5.64 3.24-8.23 7.44-5.81l75.54 43.6c4.19 2.43 7.68 8.97 7.77 14.61.09 5.63-3.24 8.25-7.44 5.82zm114.54 23.73l-27.44-15.84c-4.2-2.42-7.68-8.97-7.77-14.6-.1-5.64 3.24-8.25 7.44-5.83l27.44 15.85c4.2 2.43 7.68 8.96 7.77 14.6.1 5.64-3.24 8.25-7.44 5.82z" fill="#5F92D3"/><path d="M1552.75 2237.42l83.85-48.4 83.85 48.4-83.85 48.4-83.85-48.4zm177.99-104.12l83.84-48.41 83.85 48.41-83.85 48.41-83.84-48.41zm177.44-101.65l83.85-48.4 83.85 48.4-83.85 48.41-83.85-48.41z" fill="#D9EFFB"/><path d="M1814.58 2133.29v-258.16l-83.84-48.4v258.16l83.84 48.4" fill="#C23222"/><path d="M1814.58 1875.13l83.85-48.4v258.16l-83.85 48.4v-258.16zm0 258.16v-258.16l-83.84-48.4v258.16l83.84 48.4m-177.98 104.13V2092.2l-83.85-48.41v145.23l83.85 48.4zm0-145.22l83.85-48.41v145.23l-83.85 48.4V2092.2z" fill="#FDD147"/><path d="M1552.75 2043.8l83.85-48.4 83.85 48.4-83.85 48.41-83.85-48.41zm439.28-12.15v-354.96l-83.85-48.41v354.97l83.85 48.4zm0-354.96l83.85-48.41v354.97l-83.85 48.4v-354.96" fill="#FDD147"/><path d="M1908.18 1628.29l83.85-48.41 83.85 48.41-83.85 48.4-83.85-48.4z" fill="#FDD147"/><path d="M1730.74 1826.73l83.84-48.4 83.85 48.4-83.85 48.4-83.84-48.4" fill="#FDD148" fill-opacity=".965"/><path d="M359.838 1753.11s-25.876-13.05-41.769 6.38c-15.899 19.44-38.618 65.31-39.325 96.31-.7 31.01 24.534 28.91 39.537 21.58 15.002-7.35 58.835-70.91 61.483-83.37 2.654-12.45-3.129-29.29-7.345-32.59-4.215-3.29-12.581-8.31-12.581-8.31" fill="#5F92D3"/><path d="M365.489 1746.87l1.196 26.81c.255 5.71-2.611 11.14-7.571 13.95-4.522 2.57-11.093 4.54-19.976 3.11-19.488-3.13-21.231-8.7-22.624-35.51-1.393-26.81 48.975-8.36 48.975-8.36z" fill="#D9EFFB"/><path d="M265.097 1701.56s-25.884-13.05-41.777 6.38c-15.892 19.43-38.618 65.31-39.318 96.31-.708 31 24.528 28.91 39.537 21.57 15.003-7.34 58.821-70.91 61.483-83.36 2.647-12.46-3.136-29.29-7.352-32.6-4.215-3.29-12.573-8.3-12.573-8.3" fill="#5F92D3"/><path d="M270.747 1695.32l1.196 26.81c.256 5.7-2.618 11.13-7.577 13.95-4.522 2.57-11.086 4.53-19.97 3.11-19.495-3.14-21.238-8.71-22.624-35.52-1.4-26.8 48.975-8.35 48.975-8.35z" fill="#D9EFFB"/><path d="M501.698 1203.06c-7.658-124.63-134.985 18.34-134.985 18.34l-87.148 85.41-78.469 86.19a77.351 77.351 0 00-19.495 62.14l31.74 241.69c1.568 11.93 11.787 20.74 23.828 20.64 3.399-.03 7.293-.34 11.757-1.03 28.32-4.41 26.226-31.33 26.226-31.33l-5.805-226.06 164.808-99.33s75.201-32.02 67.543-156.66" fill="#263C7A"/><path d="M596.447 1250.54c-7.665-124.62-134.992 18.35-134.992 18.35l-87.141 85.41-78.476 86.19a77.319 77.319 0 00-19.495 62.13l31.748 241.69c1.56 11.94 11.778 20.74 23.819 20.64 3.399-.02 7.294-.34 11.765-1.03 28.312-4.41 26.219-31.33 26.219-31.33l-5.798-226.05 164.8-99.34s75.209-32.02 67.551-156.66z" fill="#263C7A"/><path d="M521.116 850.479c96.535 40.014 94.595 97.07 94.595 97.07s-18.905 209.171-12.457 348.871c2.698 58.39-310.303 62.85-263.618-92.95 55.036-183.7 34.41-332.411 60.17-354.836 25.767-22.432 96.345-8.503 121.31 1.845z" fill="#5F92D3"/><path d="M552.17 901.068c-5.047 19.603-30.719 29.929-57.355 23.066-26.628-6.855-44.124-28.302-39.07-47.897 5.047-19.602 30.727-29.928 57.355-23.066 26.628 6.855 44.124 28.31 39.07 47.897z" fill="#FAB6A9"/><path d="M496.572 855.658c-17.927 0-32.907 8.335-36.364 21.731-2.064 8.022.343 16.78 6.768 24.656 6.768 8.292 17.059 14.549 28.991 17.626 24.097 6.206 47.334-2.654 51.739-19.755 2.064-8.022-.343-16.773-6.768-24.656-6.761-8.292-17.052-14.549-28.991-17.626-5.222-1.342-10.415-1.976-15.375-1.976zm14.543 75.193c-5.667 0-11.538-.722-17.453-2.247-13.828-3.558-25.84-10.916-33.841-20.725-8.329-10.217-11.363-21.855-8.547-32.794 5.674-22.038 33.921-33.881 62.977-26.377 13.829 3.551 25.841 10.917 33.842 20.718 8.329 10.217 11.363 21.863 8.547 32.794-4.514 17.553-23.368 28.631-45.525 28.631z" fill="#fff"/><path d="M482.407 846.127s.831 3.873-.832 34.465c-.532 9.611 33.148 18.588 41.849 9.888 8.701-8.7 5.222-17.757 7.308-50.478 2.093-32.722-48.325 6.125-48.325 6.125" fill="#FAB6A9"/><path d="M530.733 840s-8.293 30.337-49.165 41.983l.62-27.58L530.733 840z" fill="#EB8B8A"/><path d="M556.633 762.911c10.269 39.722-13.609 80.261-53.344 90.529-39.726 10.268-80.263-13.608-90.539-53.337-10.269-39.73 13.609-80.254 53.343-90.529 39.735-10.268 80.271 13.615 90.54 53.337z" fill="#FAB6A9"/><path d="M501.756 784.235s-40.909 17.524-69.236 17.721c-28.335.204-22.084-23.519-22.084-23.519l84.085-12.149 7.235 17.947" fill="#EB8B8A"/><path d="M424.076 788.853s35.635-15.132 66.902-8.816c7.352 1.48 14.156 5.411 18.897 11.223 1.546 1.896 3.494 3.639 5.718 4.135 5.543 1.254 14.616-21.739 25.388-22.264 10.78-.525 17.971 7.103 9.131 21.243-8.839 14.147-5.849 29.979-1.779 32.24 4.062 2.275 47.188-30.745 9.146-106.091-38.035-75.339-134.65-34.756-149.674-19.486 0 0-15.834 13.79-28.707 1.524 0 0-14.441 108.082 44.978 86.292z" fill="#FDD147"/><path d="M561.564 1100.37v56.52c0 6.48-2.727 12.66-7.519 17.02L437.92 1279.77l13.201 20.17 153.35-111.21a31.128 31.128 0 0012.705-21.97l10.356-98.57-65.968 32.18" fill="#FAB6A9"/><path d="M607.54 919.291s35.227 52.973 48.355 192.409c0 0-60.184 19.47-94.332 8.42-34.155-11.05 45.977-200.829 45.977-200.829z" fill="#5F92D3"/><path d="M555.13 986.272s-13.799 73.798-14.572 108.488c-.219 9.53 5.602 18.14 14.572 21.38V986.272z" fill="#4067B1"/><path d="M525.001 1353.26l-25.665-3.39-165.683-95.64c-5.302-3.06-14.587-2.68-20.713.86l-117.401 67.75-15.52-2.05v15.45h.015c-.102 2.03 1.065 3.99 3.566 5.44l187.752 108.38c5.317 3.07 14.594 2.7 20.728-.86l127.852-73.77c3.45-2 5.171-4.56 5.069-6.97v-15.2" fill="#5F92D3"/><path d="M400.511 1292.83l-11.764-6.8H259.334l-63.795 36.81-15.52-2.05v15.44h.015c-.102 2.04 1.065 4 3.566 5.44l187.753 108.39c2.815 1.62 6.724 2.27 10.699 2.01l18.459-159.24" fill="#4067B1"/><path d="M186.904 1321.7l-6.885-.91v15.44h.015c-.102 2.04 1.065 4 3.566 5.44l3.304 1.91v-21.88z" fill="#5F92D3"/><path d="M373.248 1450.94c5.039 1.91 12.231 1.5 17.606-1.09v-26.28h-17.606v27.37z" fill="#fff"/><path d="M371.351 1434.62l-187.752-108.38c-5.31-3.07-4.646-8.42 1.488-11.97l127.852-73.78c6.126-3.54 15.411-3.92 20.713-.85l187.767 108.39c5.309 3.06 4.638 8.42-1.488 11.96l-127.852 73.78c-6.134 3.54-15.411 3.92-20.728.85" fill="#fff"/><path d="M368.181 1418.19l-156.114-90.12c-4.42-2.55-3.865-7 1.24-9.95l68.506-38.52c5.098-2.94 12.815-3.26 17.227-.71l156.121 90.12c4.42 2.55 3.866 7.01-1.232 9.95l-68.514 38.53c-5.098 2.93-12.814 3.25-17.234.7" fill="#D9EFFB"/><path d="M320.198 1236.94l-1.947 12.95a96.078 96.078 0 00.846 33.22l2.319 11.4a16.048 16.048 0 0012.858 12.62c5.047.92 9.817-2.63 10.386-7.73l3.1-27.69s7.089 9.28 10.509 9.28c3.421 0-3.829-27.73-11.56-43.42-7.745-15.7-26.511-.63-26.511-.63" fill="#FAB6A9"/><path d="M383.837 1031.06l-20.137 39.87a78.133 78.133 0 00-8.249 30.27l-8.745 136.37-26.511-.63-12.034-153.15c-.364-4.73-.138-9.49.686-14.16l13.748-77.66 61.242 39.09" fill="#FAB6A9"/><path d="M364.993 1445.04l-15.739-20.55-165.559-95.85c-5.309-3.07-9.598-11.3-9.591-18.38l.139-135.53-9.518-12.43 8.949-5.17.007.01c1.714-1.11 3.99-1.08 6.491.37l187.629 108.62c5.309 3.08 9.605 11.3 9.598 18.38l-.161 147.6c-.007 3.99-1.371 6.76-3.508 7.87l-8.737 5.06" fill="#263C7A"/><path d="M250.509 1367.32l-11.764-6.81-64.568-112.14.066-73.64-9.518-12.43 8.949-5.17.007.01c1.714-1.1 3.99-1.08 6.491.37l187.629 108.62c2.8 1.62 5.317 4.69 7.074 8.27l-124.366 92.92" fill="#4067B1"/><path d="M168.948 1167.81l-4.223-5.51 8.949-5.17.007.01c1.714-1.1 3.99-1.08 6.491.37l3.312 1.92-14.536 8.38" fill="#5F92D3"/><path d="M369.508 1267.34c4.164 3.4 7.395 9.84 7.833 15.8l-18.336 10.58-8.781-15.26 19.284-11.12z" fill="#2E4B8D"/><path d="M358.867 1271.31l-187.629-108.62c-5.309-3.08-9.612.17-9.627 7.25l-.16 147.6c-.008 7.08 4.288 15.31 9.598 18.39l187.621 108.62c5.317 3.06 9.627-.18 9.627-7.26l.16-147.6c.008-7.08-4.288-15.31-9.59-18.38" fill="#5F92D3"/><path d="M451.12 1299.94l-3.005 6.23a41.742 41.742 0 01-15.688 17.38l-18.634 11.49c-5.799 3.57-13.143 3.86-19.029.44l-.634-.38c-5.922-3.72-6.455-12.22-1.583-17.24l19.481-20.01s-10.948 8.38-14.011 5.01c-2.253-2.48 10.612-14.54 20.48-14.95 9.875-.39 19.422-8.14 19.422-8.14l13.201 20.17" fill="#FAB6A9"/><path d="M401.73 848.345s-71.394 77.672-100.196 148.935c0 0 24.418 43.97 84.18 61.23 59.761 17.26 16.016-210.165 16.016-210.165z" fill="#5F92D3"/><path d="M372.264 1053.91l11.574-111.777-27.262 104.717c4.857 2.53 10.116 4.89 15.688 7.06z" fill="#4067B1"/><path d="M455.211 832.663l-19.181-5.265s9.153 14.403 22.522 18.071c13.376 3.675 15.461-7.643 15.461-7.643l-18.802-5.163m102.47-30.708c0 5.907-4.784 10.684-10.685 10.684-5.9 0-10.684-4.777-10.684-10.684 0-5.899 4.784-10.676 10.684-10.676 5.901 0 10.685 4.777 10.685 10.676z" fill="#fff"/><path d="M2140.04 783.995l19.3 39.271 39.27-19.296-19.31-39.271-39.26 19.296zm12.65 58.8l-32.18-65.45 65.44-32.175 32.18 65.45-65.44 32.175z" fill="#FDD147"/><path d="M702.235 2198.73c-32.856 18.96-86.127 18.96-118.983 0-32.85-18.97-32.857-49.73 0-68.68 32.856-18.97 86.127-18.97 118.983 0 32.849 18.96 32.857 49.71 0 68.68zm69.921-109.06c-71.474-41.26-187.358-41.26-258.833 0-71.475 41.27-71.467 108.16.007 149.43 71.475 41.26 187.359 41.26 258.834 0 71.467-41.27 71.46-108.16-.008-149.43z" fill="#D9EFFB"/><path d="M486.331 2065.23l65.283 1.02c4.835-6.3 11.698-12.18 20.618-17.34 35.905-20.72 92.355-22.33 131.469-4.83l38.794-36.48 59.739.93a183.001 183.001 0 00-9.182-5.68c-83.013-47.93-217.604-47.93-300.616-.01-15.273 8.81-27.701 18.64-37.357 29.1l31.252 33.29z" fill="#FDA547"/><path d="M802.234 1913.73v94.8l-59.74-.93v-94.79l59.74.92z" fill="#F4A54F"/><path d="M703.702 1949.28v94.8l38.793-36.48v-94.79l-38.793 36.47m-152.088 22.17v94.8l85.886-69.98 66.202 47.81v-94.81l-60.958-29.56s-83.917 25.69-88.279 26.78c-4.368 1.09-2.851 24.96-2.851 24.96" fill="#FDA547"/><path d="M486.333 1970.43v94.8l65.283 1.02v-94.8l-65.283-1.02" fill="#B41086"/><path d="M455.079 1937.14v94.8l31.252 33.29v-94.8l-31.252-33.29z" fill="#D1078D"/><path d="M486.331 1970.43l65.283 1.02c4.835-6.29 11.698-12.18 20.618-17.33 35.905-20.73 92.355-22.33 131.469-4.84l38.794-36.47 59.739.91c-2.953-1.92-5.987-3.82-9.182-5.67-83.013-47.92-217.604-47.92-300.616-.01-15.273 8.82-27.701 18.65-37.357 29.1l31.252 33.29z" fill="#FDD147"/><path d="M723.365 1960.94v87.14l56.516-13.53s-3.319-50.99-4.522-52.36c-1.203-1.36-51.994-21.25-51.994-21.25z" fill="#5F92D3"/><path d="M680.604 2048.08v94.8l6.104 6.5 39.844-22.96s-6.185-72.37-6.914-73.82c-.722-1.45-39.034-4.52-39.034-4.52" fill="#263C7A"/><path d="M757.534 2023.61l-34.169 32.12c28.458 22.52 25.096 54.27-10.116 74.59-9.642 5.57-20.771 9.75-32.645 12.56l35.314 37.62-31.288 29.42c39.727-4.59 77.623-15.75 108.43-33.53 71.358-41.2 81.306-104.38 29.976-151.76l-65.502-1.02z" fill="#4067B1"/><path d="M684.631 2115.13v94.79l77.47-29.91 93.172-88.88-.342-100.67-98.577 78.13-71.723 46.54" fill="#4067B1"/><path d="M757.534 1928.82l-34.169 32.13c28.458 22.51 25.096 54.25-10.116 74.58-9.642 5.56-20.771 9.75-32.645 12.55l35.314 37.63-31.288 29.41c39.727-4.58 77.623-15.75 108.43-33.53 71.358-41.19 81.306-104.37 29.976-151.75l-65.502-1.02z" fill="#D9EFFB"/><path d="M684.367 2180.01l-31.12-33.16c-28.897 1.76-58.858-3.75-81.015-16.53-22.865-13.2-32.288-31.23-28.284-48.41l-74.129-1.15-28.495-30.36c-24.929 42.77-7.921 91.9 51.112 125.98 43.38 25.05 100.845 36.97 157.667 35.84l34.264-32.21" fill="#4067B1"/><path d="M650.105 2117.43v94.79L430.233 2090.4v-94.85l32.106 12.98 187.766 108.9" fill="#4067B1"/><path d="M684.366 2085.21v94.8l-34.263 32.21v-94.79l34.263-32.22" fill="#263C7A"/><path d="M684.367 2085.21l-31.12-33.16c-28.897 1.76-58.858-3.74-81.015-16.53-22.865-13.2-32.288-31.23-28.284-48.41l-74.129-1.15-28.495-30.36c-24.929 42.78-7.921 91.91 51.112 125.98 43.38 25.05 100.845 36.98 157.667 35.85l34.264-32.22M191.374 476.194c-18.102 0-32.82 14.723-32.82 32.816 0 18.1 14.718 32.816 32.82 32.816 18.095 0 32.82-14.716 32.82-32.816 0-18.093-14.725-32.816-32.82-32.816zm0 80.217c-26.139 0-47.407-21.265-47.407-47.401 0-26.136 21.268-47.401 47.407-47.401 26.139 0 47.406 21.265 47.406 47.401 0 26.136-21.267 47.401-47.406 47.401z" fill="#5F92D3"/><path d="M76.213 2037.02c0 19-15.41 34.41-34.41 34.41-19.014 0-34.41-15.41-34.41-34.41 0-19 15.396-34.4 34.41-34.4 19 0 34.41 15.4 34.41 34.4zM1835.42 68.2c0 22.644-18.36 40.999-41 40.999-22.65 0-41.01-18.355-41.01-40.998 0-22.643 18.36-41.006 41.01-41.006 22.64 0 41 18.363 41 41.006z" fill="#D9EFFB"/><path d="M1613.68 492.311l-195.01-112.567c-3.86-2.232-7.35-2.312-10.08-.817l.01-.124-18.92 10.931s8.38 3.049 13.3 4.857v142c0 11.551 7.03 24.977 15.69 29.972l186.4 107.608v16.656l19.11-11.004-.11-.037c3.24-1.969 5.31-6.286 5.31-12.499V522.298c0-11.559-7.03-24.977-15.7-29.987" fill="#FD7A47" fill-opacity=".946"/><path d="M1594.42 690.24l-195.01-112.574c-8.67-5.003-15.69-18.429-15.69-29.98V402.704c0-11.551 7.02-16.868 15.69-11.872l195.01 112.581c8.67 5.003 15.69 18.421 15.69 29.98v144.989c0 11.552-7.02 16.868-15.69 11.858" fill="#FDD147"/><path d="M1465 527.699c0 8.387-5.9 11.792-13.17 7.599-7.26-4.193-13.16-14.403-13.16-22.789 0-8.386 5.9-11.785 13.16-7.591 7.27 4.193 13.17 14.395 13.17 22.781zm39.84 23.015c0 8.393-5.88 11.784-13.15 7.591-7.27-4.193-13.16-14.395-13.16-22.789 0-8.387 5.89-11.785 13.16-7.592 7.27 4.194 13.15 14.396 13.15 22.79zm39.87 23.015c0 8.387-5.89 11.785-13.16 7.592-7.26-4.2-13.15-14.395-13.15-22.789 0-8.394 5.89-11.792 13.15-7.592 7.27 4.194 13.16 14.396 13.16 22.789z" fill="#fff"/><path d="M665.463 270.836L474.144 160.399c-3.785-2.188-7.206-2.268-9.89-.795l.015-.117-18.554 10.72s8.212 2.99 13.04 4.762V314.27c0 11.34 6.885 24.503 15.389 29.418L657.003 449.24v16.35l18.751-10.793-.102-.037c3.165-1.939 5.2-6.176 5.2-12.273v-142.24c0-11.333-6.892-24.496-15.389-29.411" fill="#5F92D3"/><path d="M646.565 465.014L455.246 354.576c-8.504-4.908-15.396-18.078-15.396-29.418V182.925c0-11.332 6.892-16.539 15.396-11.631l191.319 110.445c8.496 4.9 15.389 18.071 15.389 29.403v142.24c0 11.333-6.893 16.54-15.389 11.632" fill="#D9EFFB"/><path d="M519.588 305.556c0 8.233-5.783 11.566-12.916 7.453-7.126-4.113-12.902-14.126-12.902-22.359 0-8.226 5.776-11.566 12.902-7.453 7.133 4.12 12.916 14.125 12.916 22.359zm39.101 22.576c0 8.233-5.776 11.565-12.909 7.445-7.125-4.113-12.909-14.118-12.909-22.351 0-8.226 5.784-11.566 12.909-7.453 7.133 4.12 12.909 14.125 12.909 22.359zm39.1 22.573c0 8.233-5.776 11.566-12.902 7.453-7.133-4.12-12.909-14.125-12.909-22.359 0-8.233 5.776-11.566 12.909-7.445 7.126 4.113 12.902 14.125 12.902 22.351z" fill="#fff"/></svg>