<svg width="2632" height="2527" fill="none" xmlns="http://www.w3.org/2000/svg"><path d="M1777.41 2160.03H836.614l-67.283 251.48H1844.7l-67.29-251.48z" fill="url(#paint0_linear)"/><path d="M844.028 2226.82h61.56c2.573 0 4.507 2 4.027 4.16l-5.96 26.77c-.36 1.66-2.054 2.86-4.027 2.86h-62.613c-2.627 0-4.574-2.08-4-4.27l7.013-26.77c.413-1.6 2.08-2.75 4-2.75zm89.786 0h46.534l-6.2 33.79h-47.414l7.08-33.79zm69.806 0h46.53l-4.87 33.78-47.425.06 5.765-33.84zm69.8 0h46.54l-3.54 33.79H1069l4.42-33.79zm69.81 0h46.53l-2.21 33.79h-47.42l3.1-33.79zm69.8 0h46.53l-.88 33.78-47.43.06 1.78-33.84m558.59 0h-69.82l7.52 33.79h71.14l-8.84-33.79m-93.07 0h-46.53l6.19 33.78h47.43l-7.09-33.78zm-69.81 0h-46.53l4.87 33.79 47.42.05-5.76-33.84zm-69.8 0h-46.53l3.54 33.78h47.42l-4.43-33.78zm-69.79-.01h-46.54l2.22 33.79h47.41l-3.09-33.79m-69.82.01h-46.53l.88 33.78 47.42.06-1.77-33.84m-116.49 0h46.54l.77 33.79h-47.31v-33.79zm-459.292 58.96h97.253l-5.546 34.84h-99.08l7.373-34.84m963.262 0h-120.22l6.86 34.84h122.48l-9.12-34.84m-144.24 0h-48.09l5.49 34.84h48.98l-6.38-34.84zm-72.13 0h-48.08l4.11 34.84h49l-5.03-34.84zm-72.12 0h-48.08l2.72 34.84h49.01l-3.65-34.84zm-72.12 0h-48.08l1.37 34.84h49l-2.29-34.84m-617.171 62.1h99.413l-7.253 34.62H799.962l9.067-34.62zm124.266 0h49.707l-5.894 34.62h-50.613l6.8-34.62zm74.565 0h372.78l1.39 34.62h-379.61l5.44-34.62m397.67 0h49.7l2.73 34.62h-50.61l-1.82-34.62m74.56 0h49.7l4.08 34.62h-50.61l-3.17-34.62m74.55 0h49.71l5.44 34.62h-50.61l-4.54-34.62zm74.56.01h49.71l6.79 34.61h-50.62l-5.88-34.61zm74.55-.01h99.41l9.07 34.62H1711l-7.25-34.62zm-349.56-62.1h-47.69v34.84h48.6l-.91-34.84zm-72.12 0h-48.08l-1.37 34.84h48.98l.47-34.84zm-72.12 0h-48.08l-2.75 34.84h49l1.83-34.84zm-72.12 0h-48.1l-4.1 34.84h49l3.2-34.84zm-72.13 0h-48.08l-5.47 34.84h48.99l4.56-34.84zm-72.125 0h-48.08l-6.84 34.84h48.987l5.933-34.84zm-147.28-80.19l7.907-30.16h22.6l-7.387 30.16h-23.12zm53.093-30.16h45.2l-6.333 30.16h-45.974l7.107-30.16zm67.787 0h45.185l-5.13 30.16h-45.975l5.92-30.16zm67.785 0h45.19l-3.95 30.16h-45.97l4.73-30.16zm67.79 0h45.19l-2.76 30.16h-45.99l3.56-30.16zm67.79 0h45.18l-1.57 30.16h-45.99l2.38-30.16zm67.78 0h45.19l-.4 30.16h-45.98l1.19-30.16zm67.79 0h45.19l.78 30.16h-45.97v-30.16zm67.78 0h45.19l1.97 30.16h-45.98l-1.18-30.16zm67.79 0h45.2l3.16 30.16h-45.99l-2.37-30.16zm67.77 0h45.2l4.34 30.16H1513l-3.55-30.16zm67.78 0h45.2l5.53 30.16h-45.97l-4.76-30.16zm67.79 0h45.2l6.72 30.16h-45.97l-5.95-30.16zm67.81 0h45.18l7.91 30.16h-46l-7.09-30.16z" fill="#fff"/><path d="M1844.7 2426.35H769.331v-14.84H1844.7v14.84z" fill="url(#paint1_linear)"/><path d="M1236.24 2076.94h148V1627.4h-148v449.54z" fill="url(#paint2_linear)"/><path d="M716.237 1843.96H1904.23c24.85 0 44.99-20.15 44.99-44.99V987.39c0-24.842-20.14-44.984-44.99-44.984H716.237c-24.854 0-44.987 20.142-44.987 44.984v811.58c0 24.84 20.133 44.99 44.987 44.99z" fill="url(#paint3_linear)"/><path d="M716.432 1680.07H1901.79V986.561H716.432v693.509z" fill="url(#paint4_linear)"/><path d="M1763.82 1767.31c0 22.77 19.94 41.23 44.55 41.23 24.62 0 44.57-18.46 44.57-41.23 0-22.76-19.95-41.21-44.57-41.21-24.61 0-44.55 18.45-44.55 41.21z" fill="#696969"/><path d="M1643.15 2093.9H977.322v-33.93h665.828v33.93z" fill="url(#paint5_linear)"/><path d="M1595.12 381.717h-132.76v-13.59h132.76v13.59zm133 102.363h-95.85v-13.592h95.85v13.592z" fill="#E0E0E0"/><path d="M1806.65 484.09h-63.6v-13.603h63.6v13.603z" fill="#1487E3"/><path d="M1972.8 484.078h-153.57v-13.594h153.57v13.594zm-410.26 205.858h-98.7v-13.591h98.7v13.591z" fill="#E0E0E0"/><path d="M1715.19 381.719h-94.26v-13.584h94.26v13.584z" fill="#78C2FF"/><path d="M1715.19 535.256h-94.26v-13.599h94.26v13.599z" fill="#1487E3"/><path d="M1614.09 586.436h-40.27v-13.595h40.27v13.595z" fill="#E0E0E0"/><path d="M1624 638.367h-90.45v-13.592H1624v13.592z" fill="#78C2FF"/><path d="M1762.53 638.375h-124.87v-13.591h124.87v13.591zm-204.43-51.563h-94.25v-13.594h94.25v13.594zm-38.33 51.567h-55.92v-13.598h55.92v13.598z" fill="#1487E3"/><path d="M1685.83 586.816h-52.76v-13.591h52.76v13.591z" fill="#FF8761"/><path d="M1557.73 484.086h-94.25v-13.592h94.25v13.592zm40.1 51.16h-134.35v-13.59h134.35v13.59z" fill="#78C2FF"/><path d="M1860.63 381.713h-120.07v-13.578h120.07v13.578zm320.57 102.371h-120.07v-13.601h120.07v13.601zm-156.33 51.176h-120.09v-13.592h120.09v13.592z" fill="#1487E3"/><path d="M2069.51 381.721h-120.06v-13.598h120.06v13.598zm-186.69 153.541h-70.4v-13.594h70.4v13.594z" fill="#FF8761"/><path d="M1926.77 381.732h-43.95v-13.6h43.95v13.6zM1784.5 535.271h-43.95v-13.597h43.95v13.597z" fill="#E0E0E0"/><path d="M1531.11 432.895h-68.77v-13.594h68.77v13.594zm168.98 257.417h-54.28v-13.593h54.28v13.593zm-129.9-257.41h-22.2V419.31h22.2v13.592z" fill="#1487E3"/><path d="M2187.28 432.9h-183.51v-13.592h183.51V432.9z" fill="#E0E0E0"/><path d="M1986.82 432.902h-60.05v-13.595h60.05v13.595z" fill="#1487E3"/><path d="M2046.87 484.078h-60.05v-13.594h60.05v13.594z" fill="#FF8761"/><path d="M1910.88 432.908h-127.73v-13.604h127.73v13.604z" fill="#1487E3"/><path d="M1765.03 432.906h-43.96v-13.588h43.96v13.588z" fill="#78C2FF"/><path d="M1617.09 484.072h-43.95v-13.597h43.95v13.597zm8.76 206.233h-43.96v-13.588h43.96v13.588z" fill="#FF8761"/><path d="M1704.3 432.91h-76.58v-13.601h76.58v13.601z" fill="#1487E3"/><path d="M1470.85 1094.74h-4.54V824.447h243.88V710.072h4.52v118.902h-243.86v265.766z" fill="#FF976A"/><path d="M767.735 1605.98h-.053c.24.1.28.12.053 0z" fill="#323657"/><path d="M2237.21 708.406h-38.89v-5.417h34.36v-40.943h4.53v46.36m-812.85-.004h-38.88v-46.364h4.53v40.952h34.35v5.412zm-34.34-311.961h-4.53v-46.403h38.86v5.401h-34.33v41.002zm847.19-.017h-4.53v-40.962h-34.36v-5.399h38.89v46.361zm0 196.351h-4.53V465.697h4.53v127.078zm-847.21-.011h-4.52V465.702h4.52v127.062z" fill="#6AAFE8"/><path d="M2121.22 1010.56h154.22V903.069h-154.22v107.491zm158.74 4.53h-163.27V898.536h163.27v116.554z" fill="#D9D9D9"/><path d="M2198.33 969.127l-80.8-66.582 2.87-3.498 77.93 64.212 77.94-64.212 2.88 3.498-80.82 66.582" fill="#D9D9D9"/><path d="M2276.05 1014.38l-58.59-61.781 3.29-3.119 58.6 61.79-3.3 3.11zm-155.46 0l-3.27-3.11 58.6-61.79 3.28 3.119-58.61 61.781zm-101.77 176.42h98.05v-68.34h-98.05v68.34zm100.94 2.89h-103.81v-74.12h103.81v74.12z" fill="#D9D9D9"/><path d="M2067.84 1164.47l-51.38-42.34 1.81-2.22 49.57 40.83 49.56-40.83 1.82 2.22-51.38 42.34z" fill="#D9D9D9"/><path d="M2117.26 1193.24l-37.26-39.28 2.08-1.99 37.27 39.29-2.09 1.98m-98.84 0l-2.09-1.98 37.26-39.29 2.08 1.99-37.25 39.28m-108.05-304.987h130.53v-90.988h-130.53v90.988zm134.37 3.839h-138.19v-98.649h138.19v98.649z" fill="#D9D9D9"/><path d="M1975.63 853.193l-68.39-56.354 2.44-2.97 65.95 54.357 65.96-54.357 2.45 2.97-68.41 56.354z" fill="#D9D9D9"/><path d="M2041.43 891.498l-49.6-52.294 2.78-2.64 49.6 52.294-2.78 2.64zm-131.58-.004l-2.78-2.645 49.6-52.295 2.78 2.645-49.6 52.295z" fill="#D9D9D9"/><path d="M1058.71 579.324H895.469v-13.04h163.241v13.04zm-16.84-23.226H912.321v-13.027h129.549v13.027z" fill="#D6D6D6"/><path d="M1004.66 364.109c0 15.079-12.224 27.315-27.319 27.315-15.094 0-27.329-12.236-27.329-27.315 0-15.095 12.235-27.33 27.329-27.33 15.095 0 27.319 12.235 27.319 27.33zm21.97 89.067v51.966c-15.09 6.872-31.878 10.676-49.538 10.676-17.66 0-34.431-3.804-49.536-10.676v-51.966c0-27.336 22.185-49.522 49.536-49.522 27.368 0 49.538 22.186 49.538 49.522z" fill="#D9D9D9"/><path d="M977.096 279.389c-64.294 0-116.576 52.296-116.576 116.59 0 45.629 26.831 87.307 68.392 106.193 15.17 6.902 31.383 10.397 48.184 10.397 16.815 0 33.024-3.495 48.194-10.397 41.56-18.886 68.4-60.564 68.4-106.193 0-64.294-52.3-116.59-116.594-116.59zm0 239.672c-17.741 0-34.864-3.687-50.872-10.971-43.866-19.928-72.209-63.941-72.209-112.111 0-67.877 55.218-123.095 123.081-123.095 67.874 0 123.094 55.218 123.094 123.095 0 48.17-28.34 92.183-72.22 112.111-16 7.284-33.119 10.971-50.874 10.971" fill="url(#paint6_linear)"/><path d="M741.695 704.471h-81.533v-10.04h81.533v10.04zm19.773-17.879H640.375v-10.04h121.093v10.04z" fill="#D6D6D6"/><path d="M722.161 538.671c0 11.627-9.426 21.054-21.053 21.054s-21.053-9.427-21.053-21.054c0-11.626 9.426-21.053 21.053-21.053s21.053 9.427 21.053 21.053zm16.921 68.626v40.027c-11.627 5.293-24.547 8.227-38.16 8.227-13.6 0-26.534-2.934-38.16-8.227v-40.027c0-21.066 17.08-38.16 38.16-38.16s38.16 17.094 38.16 38.16z" fill="#E0E0E0"/><path d="M700.924 473.401c-49.535 0-89.832 40.297-89.832 89.832 0 35.145 20.702 67.269 52.705 81.821 11.679 5.314 24.167 7.997 37.127 7.997 12.961 0 25.449-2.683 37.115-7.997 32.029-14.552 52.704-46.676 52.704-81.821 0-49.535-40.284-89.832-89.819-89.832zm0 184.667c-13.688 0-26.851-2.845-39.191-8.456-33.796-15.36-55.644-49.265-55.644-86.379 0-52.3 42.536-94.836 94.835-94.836 52.287 0 94.836 42.536 94.836 94.836 0 37.114-21.835 71.019-55.645 86.379-12.326 5.611-25.516 8.456-39.191 8.456z" fill="url(#paint7_linear)"/><path d="M710.298 385.053h-58.286v-7.175h58.286v7.175zm14.133-12.768h-86.583v-7.187h86.583v7.187z" fill="#D6D6D6"/><path d="M696.32 266.531c0 8.312-6.734 15.039-15.041 15.039-8.32 0-15.052-6.727-15.052-15.039s6.732-15.054 15.052-15.054c8.307 0 15.041 6.742 15.041 15.054zm12.107 49.069v28.613c-8.317 3.78-17.568 5.881-27.286 5.881-9.732 0-18.971-2.101-27.278-5.881V315.6c0-15.072 12.2-27.285 27.278-27.285 15.073 0 27.286 12.213 27.286 27.285z" fill="#E0E0E0"/><path d="M681.144 219.867c-35.413 0-64.227 28.819-64.227 64.221 0 25.135 14.8 48.09 37.68 58.493 8.346 3.804 17.28 5.728 26.547 5.728 9.253 0 18.187-1.924 26.533-5.728 22.892-10.403 37.685-33.358 37.685-58.493 0-35.402-28.805-64.221-64.218-64.221zm0 132.02c-9.787 0-19.214-2.03-28.028-6.044-24.159-10.989-39.772-35.222-39.772-61.755 0-37.387 30.413-67.798 67.8-67.798 37.369 0 67.795 30.411 67.795 67.798 0 26.533-15.604 50.766-39.781 61.755-8.814 4.014-18.241 6.044-28.014 6.044z" fill="url(#paint8_linear)"/><path d="M1994.24 1079.74h-203.11v-4.84h198.29V969.135h71.27v4.836h-66.45v105.769z" fill="#FF976A"/><path d="M1002.76 1631.34H426.642c-10.422 0-18.87-8.44-18.87-18.87V1319h613.858v293.47c0 10.43-8.45 18.87-18.87 18.87z" fill="#F7F7F7"/><path d="M1021.63 1332.58H407.772v-35.76c0-10.42 8.448-18.87 18.87-18.87h576.118c10.42 0 18.87 8.45 18.87 18.87v35.76z" fill="url(#paint9_linear)"/><path d="M553.162 1440.62v-19.07h3.707v15.83h9.733v3.24h-13.44z" fill="url(#paint10_linear)"/><path d="M570.255 1431.09c0 .82.12 1.62.373 2.38.254.78.614 1.46 1.094 2.06a5.366 5.366 0 001.733 1.41c.693.36 1.48.55 2.36.55.894 0 1.68-.19 2.373-.56.694-.36 1.28-.86 1.747-1.46.48-.61.84-1.3 1.08-2.06.24-.76.36-1.54.36-2.32 0-.83-.133-1.62-.387-2.39-.266-.77-.626-1.45-1.106-2.04a5.062 5.062 0 00-1.747-1.41 5.08 5.08 0 00-2.32-.54c-.893 0-1.693.19-2.4.56-.693.36-1.28.86-1.733 1.46-.467.6-.827 1.28-1.067 2.04s-.36 1.53-.36 2.32zm5.533 9.68c-1.4 0-2.666-.28-3.8-.83a9.344 9.344 0 01-2.933-2.17c-.813-.91-1.44-1.94-1.893-3.11a9.738 9.738 0 01-.667-3.57c0-1.27.227-2.5.707-3.66a10.28 10.28 0 011.96-3.09c.84-.89 1.826-1.6 2.973-2.13 1.147-.54 2.387-.79 3.733-.79 1.374 0 2.64.28 3.774.84a9.728 9.728 0 012.92 2.21c.8.92 1.426 1.96 1.88 3.12.44 1.16.666 2.35.666 3.55 0 1.27-.226 2.48-.693 3.64a10.232 10.232 0 01-1.933 3.07c-.827.88-1.814 1.58-2.96 2.12-1.147.53-2.387.8-3.734.8" fill="url(#paint11_linear)"/><path d="M601.201 1438.47c-1.52 1.52-3.293 2.3-5.319 2.3a8.477 8.477 0 01-3.534-.76 8.915 8.915 0 01-2.866-2.07c-.827-.88-1.467-1.91-1.947-3.11-.467-1.18-.707-2.48-.707-3.85 0-1.31.24-2.53.707-3.69.48-1.16 1.133-2.18 1.973-3.04a9.363 9.363 0 012.933-2.07c1.134-.51 2.36-.76 3.68-.76 1.8 0 3.334.37 4.614 1.12 1.28.76 2.24 1.77 2.893 3.04l-2.773 2.04c-.48-.95-1.16-1.68-2.027-2.17a5.495 5.495 0 00-2.84-.76c-.8 0-1.547.17-2.213.52-.667.33-1.24.8-1.72 1.4-.48.58-.84 1.26-1.107 2.04a7.709 7.709 0 00-.387 2.44c0 .89.147 1.73.427 2.52.293.77.68 1.45 1.187 2.02a5.278 5.278 0 001.786 1.35c.694.33 1.44.51 2.24.51 1.854 0 3.52-.88 5-2.62v-1.34h-3.84v-2.71h6.907v9.8h-3.067v-2.15" fill="url(#paint12_linear)"/><path d="M607.441 1440.62v-19.07h3.707v19.07h-3.707z" fill="url(#paint13_linear)"/><path d="M618.828 1428.41v12.21h-3.707v-19.07h2.88l9.933 12.52v-12.49h3.707v19.04h-3l-9.813-12.21" fill="url(#paint14_linear)"/><path d="M556.869 1480.46h4.306c.68 0 1.24-.28 1.707-.83.453-.56.68-1.32.68-2.27 0-.48-.067-.92-.213-1.3a3.466 3.466 0 00-.56-.98c-.24-.26-.507-.46-.827-.6-.32-.13-.627-.21-.947-.21h-4.146v6.19zm-3.707 9.64v-19.07h8.093c.88 0 1.68.17 2.427.55a6.08 6.08 0 011.92 1.45c.533.6.96 1.28 1.267 2.04.306.76.453 1.53.453 2.29 0 .82-.147 1.59-.427 2.36a6.783 6.783 0 01-1.213 2.03 5.677 5.677 0 01-1.88 1.41c-.733.36-1.547.55-2.413.55h-4.52v6.39h-3.707" fill="url(#paint15_linear)"/><path d="M578.389 1482.74l-2.627-7.5-2.747 7.5h5.374zm-4.267-11.71h3.28l7.253 19.07h-3.813l-1.774-4.75h-6.666l-1.747 4.75h-3.813l7.28-19.07z" fill="url(#paint16_linear)"/><path d="M597.815 1476.02c-.12-.12-.347-.3-.68-.51a8.167 8.167 0 00-1.214-.63 9.217 9.217 0 00-1.546-.52 6.861 6.861 0 00-1.694-.22c-1.013 0-1.773.2-2.28.57-.506.37-.746.91-.746 1.59 0 .38.093.72.28.97.186.27.453.49.813.69.36.19.813.38 1.36.54.547.16 1.173.33 1.893.5.934.26 1.774.52 2.547.82.76.28 1.4.64 1.933 1.06.52.43.934.95 1.214 1.55.293.6.44 1.35.44 2.21 0 1.03-.2 1.9-.587 2.63a4.946 4.946 0 01-1.56 1.76c-.653.44-1.4.77-2.253.97-.854.22-1.747.32-2.667.32-1.44 0-2.853-.22-4.253-.65-1.4-.43-2.654-1.04-3.76-1.83l1.64-3.2c.16.16.453.38.88.64.413.26.906.52 1.48.78.573.26 1.213.48 1.906.65.707.19 1.427.28 2.16.28 2.04 0 3.054-.65 3.054-1.96 0-.41-.107-.76-.347-1.05-.227-.28-.56-.54-.987-.75-.44-.23-.96-.41-1.56-.6-.613-.17-1.293-.37-2.04-.59-.92-.25-1.706-.52-2.386-.82-.667-.3-1.227-.64-1.68-1.04-.44-.4-.774-.87-1-1.4-.227-.54-.334-1.16-.334-1.9 0-.97.174-1.82.534-2.57.36-.76.853-1.39 1.493-1.89.627-.5 1.373-.88 2.213-1.14.84-.26 1.747-.38 2.72-.38 1.334 0 2.574.2 3.707.62 1.12.42 2.107.92 2.947 1.5l-1.64 3" fill="url(#paint17_linear)"/><path d="M614.295 1476.02c-.134-.12-.36-.3-.694-.51a8.586 8.586 0 00-1.2-.63c-.48-.21-1-.38-1.546-.52-.56-.14-1.12-.22-1.694-.22-1.026 0-1.786.2-2.293.57-.493.37-.747.91-.747 1.59 0 .38.094.72.28.97.187.27.467.49.827.69.347.19.8.38 1.347.54.546.16 1.186.33 1.893.5.933.26 1.787.52 2.547.82.76.28 1.4.64 1.933 1.06.52.43.933.95 1.227 1.55.28.6.426 1.35.426 2.21 0 1.03-.199 1.9-.586 2.63a4.783 4.783 0 01-1.547 1.76c-.653.44-1.413.77-2.267.97-.853.22-1.733.32-2.666.32-1.44 0-2.853-.22-4.253-.65a13.317 13.317 0 01-3.761-1.83l1.64-3.2c.16.16.454.38.88.64.414.26.92.52 1.48.78.587.26 1.214.48 1.92.65.694.19 1.414.28 2.147.28 2.04 0 3.067-.65 3.067-1.96 0-.41-.12-.76-.36-1.05-.227-.28-.56-.54-.987-.75-.427-.23-.946-.41-1.56-.6-.613-.17-1.293-.37-2.04-.59-.92-.25-1.707-.52-2.387-.82-.666-.3-1.226-.64-1.68-1.04a4.01 4.01 0 01-1-1.4c-.226-.54-.333-1.16-.333-1.9 0-.97.173-1.82.533-2.57a5.15 5.15 0 011.494-1.89c.64-.5 1.373-.88 2.213-1.14.84-.26 1.747-.38 2.72-.38 1.333 0 2.573.2 3.707.62 1.12.42 2.106.92 2.946 1.5l-1.626 3" fill="url(#paint18_linear)"/><path d="M625.548 1471.08h3.413l2.147 6.31 2.147-6.31h3.44l-3.254 8.68 2.427 6.1 5.4-14.83h4.027l-7.76 19.07h-3.12l-3.307-8-3.307 8h-3.12l-7.706-19.07h3.973l5.427 14.83 2.373-6.1-3.2-8.68" fill="url(#paint19_linear)"/><path d="M649.161 1480.56c0 .83.134 1.63.374 2.39.253.77.626 1.45 1.093 2.05.48.59 1.053 1.06 1.747 1.42.693.36 1.48.54 2.346.54.907 0 1.694-.18 2.387-.56.68-.36 1.267-.85 1.747-1.46.466-.6.826-1.3 1.066-2.06.24-.76.374-1.53.374-2.32 0-.82-.134-1.62-.4-2.38a6.378 6.378 0 00-1.094-2.04 5.334 5.334 0 00-1.746-1.42 5.228 5.228 0 00-2.334-.53c-.893 0-1.693.19-2.386.56-.694.36-1.28.85-1.747 1.45-.467.6-.813 1.28-1.067 2.04-.24.76-.36 1.54-.36 2.32zm5.534 9.68c-1.387 0-2.654-.28-3.8-.82a9.301 9.301 0 01-2.92-2.18 9.794 9.794 0 01-1.907-3.1 10.05 10.05 0 01-.667-3.58c0-1.26.24-2.49.72-3.65a9.797 9.797 0 011.96-3.09c.827-.9 1.814-1.6 2.96-2.14 1.147-.53 2.4-.78 3.734-.78 1.386 0 2.64.28 3.786.84a9.335 9.335 0 012.907 2.21c.813.92 1.44 1.96 1.88 3.12a9.71 9.71 0 01.68 3.55c0 1.26-.24 2.48-.707 3.64a9.8 9.8 0 01-1.933 3.06 9.471 9.471 0 01-2.96 2.12c-1.133.54-2.387.8-3.733.8" fill="url(#paint20_linear)"/><path d="M670.575 1480.46h4.653c.347 0 .654-.08.96-.24.294-.16.547-.39.76-.67.214-.27.387-.6.507-.97.133-.38.186-.79.186-1.22 0-.44-.066-.85-.213-1.22a2.978 2.978 0 00-.573-.99c-.24-.28-.52-.49-.84-.64a2.039 2.039 0 00-.947-.24h-4.493v6.19zm-3.707 9.64v-19.07h8.44c.88 0 1.693.17 2.427.55.746.36 1.386.85 1.933 1.45.533.6.947 1.28 1.254 2.04.306.76.466 1.53.466 2.29 0 1.24-.32 2.36-.933 3.38-.613 1.01-1.453 1.74-2.507 2.18l4.347 7.18h-4.16l-3.907-6.39h-3.653v6.39h-3.707" fill="url(#paint21_linear)"/><path d="M697.334 1480.54c0-.91-.12-1.76-.373-2.52-.253-.78-.613-1.44-1.093-2a4.982 4.982 0 00-1.787-1.28c-.72-.31-1.52-.47-2.413-.47h-3.227v12.59h3.227c.92 0 1.733-.16 2.44-.5a5.034 5.034 0 001.773-1.32c.467-.57.827-1.24 1.08-2.01.253-.76.373-1.6.373-2.49zm-12.6 9.56v-19.07h6.934c1.56 0 2.933.24 4.106.75 1.174.5 2.147 1.18 2.934 2.04a8.334 8.334 0 011.773 3.02c.4 1.16.587 2.39.587 3.7 0 1.45-.214 2.76-.654 3.93-.44 1.17-1.066 2.17-1.893 3.01a8.63 8.63 0 01-2.973 1.94c-1.147.45-2.44.68-3.88.68h-6.934" fill="url(#paint22_linear)"/><path d="M670.202 1431.09c0 3.52-2.84 6.36-6.347 6.36a6.35 6.35 0 01-6.36-6.36c0-3.51 2.84-6.35 6.36-6.35a6.346 6.346 0 016.347 6.35zm26.186 0c0 3.52-2.853 6.36-6.36 6.36a6.359 6.359 0 01-6.36-6.36c0-3.51 2.853-6.35 6.36-6.35s6.36 2.84 6.36 6.35zm26.174 0a6.36 6.36 0 01-6.36 6.36 6.359 6.359 0 01-6.36-6.36c0-3.51 2.853-6.35 6.36-6.35 3.506 0 6.36 2.84 6.36 6.35zm26.173 0a6.36 6.36 0 01-6.36 6.36 6.359 6.359 0 01-6.36-6.36c0-3.51 2.853-6.35 6.36-6.35 3.506 0 6.36 2.84 6.36 6.35zm26.173 0a6.35 6.35 0 01-6.36 6.36 6.348 6.348 0 01-6.347-6.36c0-3.51 2.84-6.35 6.347-6.35 3.52 0 6.36 2.84 6.36 6.35zm26.174 0c0 3.52-2.84 6.36-6.347 6.36a6.35 6.35 0 01-6.36-6.36c0-3.51 2.84-6.35 6.36-6.35a6.346 6.346 0 016.347 6.35zm-67.321 49.41c0 3.51-2.84 6.35-6.346 6.35-3.52 0-6.36-2.84-6.36-6.35a6.35 6.35 0 016.36-6.36 6.347 6.347 0 016.346 6.36zm25.36 0c0 3.51-2.853 6.35-6.36 6.35-3.506 0-6.36-2.84-6.36-6.35a6.36 6.36 0 016.36-6.36c3.507 0 6.36 2.84 6.36 6.36zm25.347 0c0 3.51-2.84 6.35-6.346 6.35-3.52 0-6.36-2.84-6.36-6.35a6.35 6.35 0 016.36-6.36 6.347 6.347 0 016.346 6.36zm25.36 0c0 3.51-2.853 6.35-6.36 6.35-3.506 0-6.36-2.84-6.36-6.35a6.36 6.36 0 016.36-6.36c3.507 0 6.36 2.84 6.36 6.36zm25.347 0c0 3.51-2.84 6.35-6.36 6.35a6.345 6.345 0 01-6.346-6.35c0-3.52 2.84-6.36 6.346-6.36a6.35 6.35 0 016.36 6.36zm25.346 0c0 3.51-2.84 6.35-6.347 6.35-3.506 0-6.36-2.84-6.36-6.35a6.36 6.36 0 016.36-6.36 6.348 6.348 0 016.347 6.36zm25.361 0c0 3.51-2.854 6.35-6.36 6.35a6.346 6.346 0 01-6.347-6.35c0-3.52 2.84-6.36 6.347-6.36a6.36 6.36 0 016.36 6.36z" fill="#404040"/><path d="M496.498 1521.88h436.397v-133.62H496.498v133.62zm441.464 5.06H491.44V1383.2h446.522v143.74z" fill="url(#paint23_linear)"/><path d="M636.428 1596.1H442.435v-15.78h193.993v15.78zm352.294 0H854.175v-15.78h134.547v15.78z" fill="#E6E6E6"/><path d="M199.015 982.339s-13.9-25.52-21.806-34.694c-7.908-9.186-34.181-16.08-30.61-27.813 3.571-11.733 38.772-6.627 48.464 4.853 9.693 11.48 39.281 15.56 40.303 20.4 1.018 4.854-10.275 31.374-16.616 35.72-6.341 4.334-19.735 1.534-19.735 1.534m-59.086 21.611s-22.644-17.959-33.546-23.239c-10.903-5.293-37.751-1.173-39.132-13.373-1.383-12.187 32.949-21.48 46.404-14.787 13.452 6.68 42.229-1.32 45.09 2.72 2.86 4.04 3.028 32.88-1.069 39.374-4.097 6.495-17.747 9.305-17.747 9.305" fill="#342F40"/><path d="M190.217 1050.69s9.884-67.604 9.438-79.324c-.128-3.347 20.342-2.107 19.386 4.333-2.083 14.027 7.364 68.361 5.722 78.311-1.641 9.94-35.388 2.94-34.546-3.32z" fill="#4499C9"/><path d="M159.243 1070.11s-18.524-65.64-22.838-76.545c-1.922-4.854 16.954-12.387 19.513-3.72 4.016 13.595 33.905 59.815 36.348 69.595 2.445 9.79-31.308 16.76-33.023 10.67z" fill="#4499C9"/><path d="M172.106 1115.74s-18.576-69.14-21.637-76.27l23.964-13.84s17.222 21.74 22.67 50.06c2.062 10.7-24.997 40.05-24.997 40.05z" fill="#4499C9"/><path d="M727.468 938.485s-30.293 7.667-44.72 30.573c-14.413 22.92-26.866 49.302-53.946 61.282-27.094 11.96-27.267 42.81-25.16 47.57 2.106 4.76 47.053 86.17 65.213 89.79 18.16 3.61 5.507-29.23 1.88-53.25-3.64-24.04 45.64-33.3 65.627-59.38 20-26.09 25.04-50.12 25.04-50.12l-33.934-66.465z" fill="#2E334D"/><path d="M722.188 1050.35s-.893-.29-2.373-.43a17.2 17.2 0 00-7.08.84c-.72.24-1.667.74-2.773 1.39-7.2 4.24-24.24 15.76-26.547 16.03-2.653.32-.413-39.43-.413-39.43s9.08-16.04 10.213-26.6c1.147-10.572 28.973 48.2 28.973 48.2" fill="#EEA886"/><path d="M509.06 1091.88s-33.288-23.34-72.313-16.06c-39.027 7.26-43.236 25.5-56.627 26.33-13.392.83-58.157-3-94.888 7.72-36.73 10.71-67.722 11.85-71.93 8.8-4.208-3.07 17.508-24.2 10.696-81.92l-30.98-5.87s-15.302 57.56-20.402 69.8c-5.454 13.1-15.942 37.75-1.02 59.18 14.922 21.42 56.627 11.77 81.88 16.09 25.251 4.32 138.28 1.55 158.018.49 21.428-1.14 86.089-4.21 86.089-4.21l11.477-80.35z" fill="#4499C9"/><path d="M782.455 970.912s2.12 32.898-5.174 42.748c-2.92 3.95-4.906 6.09-6.24 7.25-1.866 1.63-3.32 3.68-4.16 6.03-2.253 6.32-3.64 15.23-5.44 17.12-1.96 2.08-7.64-3.2-9.693-3.2-2.053-.01-22.08 17.27-26.88 13.73-4.787-3.54-34.013-33.18-31.547-53.52 2.454-20.331 11.414-50.691 44.32-50.505 32.907.187 42.294 12.174 44.814 20.347" fill="#EEA886"/><path d="M683.028 1127.84c-.64 1.36-12.733 20.68-25.986 31.88-5.507 4.67-11.2 7.92-16.36 7.92-1.574 0-3.107.03-4.614.06-15.2.41-26.893 2.74-47.426 3.77-21.334 1.07-73.078-1.92-74.607-1.92-1.531 0-16.452 2.68-16.452 2.68-5.357-6.51 8.799-79.96 11.477-80.35 2.679-.38 19.896 6.12 36.348 3.44 16.447-2.68 22.954-4.2 47.447-32.9 24.48-28.7 48.973-35.96 59.307-33.67 10.32 2.29 30.866 0 30.866 0s.88 97.19 0 99.09z" fill="#385369"/><path d="M719.962 1050.07c-1.72-.16-4.347-.13-7.2.83-.72.24-1.694.6-2.8 1.25-5.294-8.25-10.2-27.81-10.36-28.48 3.533 10.71 20.36 26.4 20.36 26.4z" fill="#A77860"/><path d="M657.042 1159.73c-5.507 4.66-11.2 7.92-16.36 7.92-1.574 0-3.107.02-4.614.05l6.267-60.89 14.707 52.92" fill="#233442"/><path d="M776.095 1264.59l-14.693 13.36c-12.667-6.79-44.427-29.64-50.534-34.84-6.4-5.45-49.12-41.19-54.986-49.33-5.92-8.15-13.414-92.31-12.654-96.18.76-3.8 37.147-5.74 41.267 3.16 0 0 1.907 48 2.88 56.04.92 8.03 4 15.3 9.52 22.06 7.627 9.34 23.867 31.08 39.587 48.64 3.746 4.18 34.76 32.92 39.613 37.09" fill="#EEA886"/><path d="M687.482 1101.83s2.293-63.92-18.494-63.13c-26.28 1-30.226 33.16-26.653 68.1 0 0 39.28.39 45.147-4.97z" fill="#385369"/><path d="M769.014 1258.34s1.96 3.08 4.787 4.04c4.893 1.65 12.133-1.53 15.707 4.88 3.573 6.41-13.667 22.41-18.294 23.39-4.626.97-12.053-6.23-17.84-20.44-5.8-14.22 15.64-11.87 15.64-11.87" fill="#EEA886"/><path d="M787.989 1265.26s8.786 6.69 17.68 15.28c7.8 7.53 15.733 17.44 13.733 19.31-2.733 2.54-8.053-5.95-16.28-12.94-7.587-6.42-7.147-3.94-7.147-3.94s-.093-.71 6.827 7.82c7.427 9.19 15.107 20.08 12.813 21.66-1.44 1-1.506 1.25-4.746-1.67 1.506 2.07 1.16 2.75.346 3.41-4.146 3.48-17.16-8.41-22.333-13.13 3.96 3.65 6.467 6.73 2.453 7.21-4.586.54-22.24-17.06-29.16-22.78-7.56-6.24 25.814-20.23 25.814-20.23z" fill="#EEA886"/><path d="M777.281 1013.66s-4.146 10.16-9.72 11.72c-5.573 1.54-5.813-11.32-12.826-18.35-7.027-7.01-21.147-17.785-21.147-17.785l11.08-1.4s25.667 12.545 32.613 25.815z" fill="#102530"/><path d="M768.628 994.457s8.001 11.483 11.254 13.663c0 0 9.96-8.1 2.36-38.983-7.6-30.88-36.267-33.786-54.774-30.653-23.04 3.907-46.226 81.856-45.04 89.456 1.2 7.58 27.014-40.296 49.627-36.443 22.613 3.854 22.8 5.12 36.573 2.96" fill="#2E334D"/><path d="M524.018 1094.81s-7.018 50.3-3.559 75.05c0 0 3.657 2.72 10.939.52 0 0 1.818-54.91 5.896-74.4 0 0-2.242-1.69-13.276-1.17z" fill="#E0E0E0"/><path d="M531.109 1132.86h-5.43V0h5.43v1132.86z" fill="#E0E0E0"/><path d="M1232.1 1151.36s1.8 14.71 4.18 21.19c2.39 6.48 15.36 21.45 9.88 35.83-5.93 15.6-31.86.57-42.44-4.19-10.58-4.76-8.17-13.39-9.3-23.96-1.12-10.57-6.28-10.85-4.39-18.29 1.91-7.43 13.48-21.67 13.48-21.67l28.59 11.09" fill="#2F3352"/><path d="M1208.51 1132.58s-6.64 9.29-6.47 9.54c.19.26 28.44 17.46 30.4 11.88 1.57-4.42 2.23-10.85 2.23-10.85l-26.16-10.57" fill="#EEA886"/><path d="M1112.73 1161.77s-8.61 7.56-16.36 19.16c-7.74 11.61-28.27 12.22-29.15 28.08-.88 15.84 27.93 16.33 43.05 11.17 15.13-5.16 17.41-20.64 26.56-24.51 9.14-3.86 13.9-7 13.2-14.56-.71-7.56-5.78-19.81-5.78-19.81s-5.68 1.81-9.01 2.17c-3.35.38-14.59.51-22.51-1.7z" fill="#2F3352"/><path d="M1216.41 732.417s-5.78 34.48-10.46 57.254c-1.9 9.226-3.6 16.546-4.67 18.84-1.33 2.893-12.21 14.586-25.53 28.293-23.38 24.067-54.24 54.36-54.24 54.36l-12.08-22.92s27.42-32.147 46.02-53.6c8.6-9.933 15.31-17.56 16.55-18.667 3.88-3.48 8.39-37.733 14.73-65.96 6.35-28.24 19.06-43.84 19.06-43.84l10.62 46.24" fill="#385369"/><path d="M1114.08 1151.2l-1.35 10.56s15 5.31 31.52-.46l.35-9.39-30.52-.71" fill="#EEA886"/><path d="M1327.02 886.498c.86 3.067-158.87 0-158.87 0s44.19-32.16 47.04-40.76c2.87-8.586-11.24-60.133-13.08-76.906-1.48-13.427-5.17-73.48 3.68-82.654 9.24-9.586 42.55-19.64 42.55-19.64l48.54 1.8s8.02 1.68 13.75 4.347c5.72 2.653 38.48 14.32 43.8 30.68 5.32 16.373-32.68 68.987-32.68 68.987s-.08 2.373-.19 6.24v.013c-.14 5.16-.37 13.013-.57 21.533-.25 11.027-.47 23.174-.47 32.054 0 20.866 5.64 51.24 6.5 54.306" fill="#385369"/><path d="M1327.01 886.498s21.74 31.907 22.04 53.694c.31 21.786-38.56 94.758-44.44 105.198-17.68 31.37-66.17 99.07-66.17 99.07s-8.36-.22-34.44-10.34c0 0 32.27-89.41 36.35-98.69 17.34-39.372 27.02-67.292 21.18-74.038-5.82-6.76-21.72-13.52-26.32-17.507-4.6-4-84.78 15.147-93.18 17.32-21.76 5.64-11.84 43.495-7.03 60.465 8.05 28.4 15.09 130.93 15.09 130.93s-15.49 6.6-41.45 1.02c0 0-50.96-185.135-52.6-203.548-1.64-18.4-2.44-48.76 123.16-71.84l147.81 8.266" fill="#4499C9"/><path d="M1261.65 561.058s-42.14-9.506-32.52 43.534c9.63 53.04 19.78 57.2 45.19 46.226 25.43-10.973 23.16-44.96 24.44-61.613 1.28-16.667-23.67-27.573-37.11-28.147z" fill="#EEA886"/><path d="M1250.51 680.151s18.66 19.786 48.16 1.813c0 0-6.6-42.893-3.12-63.773 3.46-20.894-38.5 32.36-38.5 32.36.56.293.92 2.28 1 5.12.08 2.4-.05 5.413-.44 8.507-.86 6.933-3.02 14.266-7.1 15.973" fill="#EEA886"/><path d="M1296.71 616.418s-1.1-16.72-7.2-17.24c-6.11-.52-7.04 6.213-7.04 6.213l-6.16 1.16s1.94-14.64-4.15-17.2c-6.09-2.56-39.49 8.054-44.39 3.76-4.89-4.293-2.58-34.013 6.27-38.08 8.84-4.066 33.28-13.173 51.19-1.053 0 0 13.94-1.587 16.01 9.667 2.08 11.266-.75 44.4-4.53 52.773" fill="#3A3F47"/><path d="M1257.62 664.178c30.44-9.387 32.73-27.72 32.76-28-10.03 17.226-32.32 19.493-32.32 19.493.08 2.4-.06 5.413-.44 8.507" fill="#A77860"/><path d="M1149.87 884.258s110.32 13.6 177.14 2.24l-127.69-15.96s-.76 3.267-49.45 13.72" fill="#385369"/><path d="M1232.38 865.526l-8.22 4.16s1.87 13.053 6.38 17.013l9.21-2.36s-1.92-14.32-7.37-18.813z" fill="#EEA886"/><path d="M1360.03 838.791c-1.64 1.893-23.33 10.627-47.83 20.067-33.46 12.893-71.23 25.08-71.23 25.08l-8.59-18.414s39.54-21.493 66.25-36.56c12.63-7.106 22.39-12.8 23.76-14.106 4.29-4.094 5.41-10.654 2.25-22.094-3.16-11.44-10.44-64.026-11.25-70.173-.81-6.133 2.04-22.507 17.38-23.32 15.35-.813 23.15 3.52 23.15 3.52s3.85 1.6 6.72 38.827c2.87 37.226 3.28 92.666-.61 97.173" fill="#385369"/><path d="M1321.56 778.592v.013c-.15 5.16-.37 13.014-.57 21.534-14.98-36.707-6.32-66-6.18-66.494-1.61 9.96 6.63 44.467 6.75 44.947m-115.61 11.08c-1.89 9.226-3.6 16.546-4.67 18.84-5.1-24.747-.5-56.44-.5-56.44.69 15.133 5.17 37.6 5.17 37.6z" fill="#233442"/><path d="M1230 885.431l-156.8-2.307 79.17 40.2 77.63-37.893z" fill="#444C94"/><path d="M1152.38 923.324l77.62-30.08v-7.813l-83.77 30.213 6.15 7.68" fill="#303669"/><path d="M1225.93 869.965s-9.78-1.52-16.56-3.094c-5.24-1.226-18.26.454-21.58 3.814-3.32 3.373-13.87 26.786-15.87 28.226-1.99 1.427 1.03 4.734 4.53 3.067 0 0 3.22 10.253 11.16 6.413 7.94-3.826 13.34-12.213 17.5-13.68 4.14-1.48 28.37-8.92 28.37-8.92s-1.31-18.32-7.55-15.826z" fill="#EEA886"/><path d="M1190.19 869.152s-6.29 3.04-7.95 4.4c-1.64 1.347-8.29 6.333-9.9 7.507-1.62 1.173 2.42 4.506 14.33-.654 11.91-5.146 3.52-11.253 3.52-11.253z" fill="#EEA886"/><path d="M1152.38 923.324l-46.64-127.346-150.365 2.453 44.453 117.347 152.552 7.546z" fill="#303669"/><path d="M1229.79 608.071s13.44-1.533 56.25-6.16v5.893s-8.77 1.574-14.25 3.12c-5.47 1.547-14.23 8.187-22.39 6.147-10.95-2.733-10.69 4.013-17.83 2.693-3.1-.586-1.78-11.693-1.78-11.693z" fill="#102530"/><path d="M1282.6 598.312c.56-4.68 9.8-6.4 10.55.627.75 7.013-4.2 19.32-7.71 18.106-3.52-1.213-3.61-12.28-2.84-18.733" fill="#EEA886"/><path d="M1257.84 662.005s14.59 3.92 38.07-2.96c0 0 .79 7.6 2.89 8.32 2.12.72 3.8 1.733 14.15 6.306 3.17 1.414-20.69 50.734-53.77 47.454-33.07-3.267-35.16-29.854-21.24-51.12 0 0 15.33-5.627 19.7-6.067 0 0 .03-1.427.2-1.933" fill="#385369"/><path d="M561.428 2452.2s17.64-7.16 24.893-10.22c7.24-3.07 8.32-9.8 11.373-5.32 3.04 4.49 18.16 18.28 26.32 20.02 8.16 1.75 61.147 9.79 62.187 21.79 1.04 12.01-23.653 16.23-58.52 18.05-34.84 1.83-35.707 10.82-58.947 4.88-7.24-1.85-7.306-49.2-7.306-49.2zM47.603 2256.63s8.73 16.25 12.45 22.95c3.72 6.68 10.342 7.02 6.322 10.44-4.023 3.41-15.776 19.48-16.617 27.56-.842 8.06-3.093 60.16-14.6 62.41-11.506 2.27-18.163-21.19-23.56-54.72-5.394-33.51-14.188-33.4-10.87-56.51 1.035-7.2 46.875-12.13 46.875-12.13" fill="#152B3D"/><path d="M632.415 1886.15s8.48-15.45 9.84-17.77c1.373-2.32 8.147-5.58 16.267-8.62 8.106-3.05 20.426-3.53 21.64-2.66 1.2.88 2.84 1.2 4.106 4.81 1.267 3.63.347 7.37.347 7.37s3.653 3.74 2.173 8.28c0 0 3.28 3.67.747 8.55 0 0 3.107 3.67.973 7.05 0 0-6.786 3.27-8.96 5.2-2.16 1.94-16.746 7.75-31.6 11.19 0 0-16.24 4.43-15.533-23.4" fill="#EEA886"/><path d="M656.695 1880.04s-.88 8.8-2.373 11.16c-1.507 2.35 16.88 10.12 16.88 10.12s-3.827-19.93-14.507-21.28" fill="#CF8C6C"/><path d="M348.861 1992.99c-14.43 10.87-33.805 53.45-47.329 86.72-.296.6-27.029 67.04-39.267 85.32-18.384 27.45-46.749 23.72-86.189 38.72-32.041 12.17-132.185 51.19-132.185 51.19l20.184 40.17s155.917-38.28 205.021-58.63c24.892-10.32 106.967-71.94 106.979-71.96a634.686 634.686 0 0027.404-23.84h.004a635.007 635.007 0 0016.065-15.28c7.833-7.72 12.292-12.54 12.292-12.54s-70.864-129-82.979-119.87z" fill="#4499C9"/><path d="M473.586 1788.9l43.468 109.87s2.164 15.22 33.895 4.93c32.4-10.49 84.333-24.32 84.333-24.32s14.8 31.65 10.973 33.88c-11.08 6.47-99.426 36.68-136.673 46.84-29.556 8.07-87.649-140.52-87.649-140.52l51.653-30.68" fill="#385369"/><path d="M550.495 2221.28c.653-18.36-19.992-70.14-35.558-101.56h.002c-24.407-50.2-49.215-102.42-49.215-102.42s-141.673-.08-141.427 15.09c.468 28.76 74.462 98.53 85.436 111.24 0 0 31.166 24.97 41.844 44.32 15.582 28.24 18.402 48.05 28.627 84.95 9.157 33.02 75.784 182.76 75.784 182.76l48.8-14.96s-55.293-190.92-54.293-219.42" fill="#4499C9"/><path d="M317.237 2023.31s96.704-103.13 88.376-169.81c-.677-5.4-1.009-10.73-1.017-15.97-.021-6.87.507-13.58 1.52-20.11 6.064-39.04 29.62-71.33 58.931-87.32 0 0-.279-8.52 40.429 30.59 2.247 2.16 24.933 42.06 28.017 85.46 3.78 53.11-11.432 63.76-30.173 104.15-13.699 29.52-33.412 55.23-37.596 67 0 0-10.872 17.37-148.487 6.01z" fill="#385369"/><path d="M508.026 1726.71s-.491 2.17-1.191 5.53c-.514 2.47-1.145 5.59-1.781 8.96-1.719 9.16-3.451 20.23-2.975 25.46.89 9.74-36.033-34.91-36.033-34.91s6.781-30.91 8.777-66.24c1.991-35.33 33.203 61.2 33.203 61.2" fill="#EEA886"/><path d="M507.162 1732.09c-.516 2.46-1.472 5.74-2.108 9.12-12.506-11.79-21.982-25.78-24.814-30.15 5.456 7.32 26.922 21.03 26.922 21.03" fill="#A77860"/><path d="M678.002 1857.82s-20.374 8.22-19.454 11.66c.92 3.46 3.347 4.16 3.347 4.16l-6.84 7.19s-1.853 7.32 6.667 7.19c0 0-2.44 6.65 5.773 5.56 0 0 .347 5.1 4.24 5.26 3.893.16 16.773-5.68 16.773-5.68s2.174-2.45-.973-7.05c0 0 2.707-4.53-.747-8.55 0 0 1.587-3.97-2.173-8.28 0 0 2.853-9.12-4.453-12.18 0 0-1.307.37-2.16.72" fill="#DB9C7C"/><path d="M642.868 1868.04s15.013 1.35 22.88 5.68c1.787.99 3.333 2.27 3.093 4.28-.24 2.03-3.467 4.26-10 4-6.533-.25-15.093 2.42-15.093 2.42s-6.64-2.23-.88-16.38m-98.086-220.17s11.447 21.35 5.74 24.64c-4.713 2.74 5.466 23.68 6.786 27.1 1.334 3.42-8.533 5.89-10.64 8.08-2.098 2.2-8.376 29.25-16.505 30.05-8.128.79-44.717-12.03-54.664-22.43-9.946-10.38-18.016-57.22-11.314-76.97 6.701-19.73 60.392-27.76 80.597 9.53" fill="#EEA886"/><path d="M547.188 1652.25s4.36-15.5-16.922-32.63c-21.28-17.12-53.72 3.49-57.784 6.64-3.616 2.8-25.238 20.75-16.988 46.97 13.786 43.82 14.376 41.98 14.376 41.98s2.769-25.88 10.757-27.72c8.671-2 22.993-3.92 22.993-3.92s-7.473-19.99 4.286-22.79c11.76-2.8 27.405-12.97 39.282-8.53" fill="#202338"/><path d="M470.769 1627.66s-28.412 5.8-23.766 27.29c4.646 21.5 17.237 45.62 19.042 50.66 1.807 5.04 4.724-77.95 4.724-77.95" fill="#202338"/><path d="M707.149 2216.63H156.537c-20.807 0-37.674-16.87-37.674-37.68v-314.43c0-20.8 16.867-37.66 37.674-37.66h550.612c20.8 0 37.666 16.86 37.666 37.66v314.43c0 20.81-16.866 37.68-37.666 37.68" fill="url(#paint24_linear)"/><path d="M744.815 2076.07H118.863v75.35h625.952v-75.35" fill="#5C5C5C"/><path d="M323.884 2039.38H184.317c-11.608 0-21.019-9.41-21.019-21.03v-65.44c0-11.61 9.411-21.02 21.019-21.02h139.567c11.608 0 21.018 9.41 21.018 21.02v65.44c0 11.62-9.41 21.03-21.018 21.03z" fill="#fff"/><path d="M707.148 2039.38H483.037v-17.64h224.111v17.64z" fill="url(#paint25_linear)"/><path d="M707.148 2009.43H483.037v-17.64h224.111v17.64z" fill="url(#paint26_linear)"/><path d="M356.208 2025.06s-3.354-2.91-4.202-4.89c0 0-1.264-3.72-2.324-6.32-.34-.83-.654-1.54-.906-1.98-1.044-1.82-3.886-5.53-5.164-10.62-1.28-5.08-1.145-28.47-1.145-28.47l12.655-3.51 11.38-4.98s22.798 22.66 24.538 27.28c.168.45.318.89.424 1.33 1.095 4.04.21 7.51.544 9.69.118.82.75 8.88-.99 10.56-2.41 2.35-5.028 2.99-7.274 2.48 0 0-4.92 4.38-9.346 4.55 0 0-4.408 4.19-9.978 2.83 0 0-4.948 3.74-8.212 2.05" fill="#EEA886"/><path d="M460.665 1799.76s24.642-1.57 12.392-38.9c-16.531-50.39-65.658.62-169.438 43.1 0 0-29.074 11.76-20.748 42.83 8.328 31.07 51.634 120.95 54.046 130.87l29.585-13.38s-13.412-49.66-18.473-75.3c-5.062-25.64-8.643-49.47-8.643-49.47l121.279-39.75" fill="#385369"/><path d="M552.842 1666.17s2.266 4.88-.627 16.89c-2.893 12.01-19.099-6.33-25.96-5.77-6.864.56-31.009 3.24-31.009 3.24l-5.123-5.5s60.692-18.94 62.719-8.86" fill="#102530"/><path d="M498.547 1684.99c-.58-2.33-3.239-12.8-11.435-11.24-8.196 1.55-5.468 14.43.862 21.95 6.33 7.53 13.814 2.34 10.573-10.71" fill="#EEA886"/><path d="M2049.48 1412.09c1.4-160.71 132.84-289.85 293.54-288.44 160.72 1.41 289.84 132.84 288.43 293.54-1.4 160.71-132.83 289.84-293.53 288.43-160.72-1.4-289.85-132.83-288.44-293.53z" fill="#F8BB66"/><path d="M2355.25 1705.26l5.12-580.94c152.53 10.31 272.45 137.99 271.08 292.88-1.36 154.87-123.48 280.43-276.2 288.06zm-305.75-293.18c1.18-136.22 95.8-249.76 222.46-280.33l-4.96 564.52c-126.11-32.79-218.7-147.98-217.5-284.19z" fill="#F8BB66"/><path d="M2119.31 1412.7c1.07-122.15 100.95-220.3 223.09-219.22 122.17 1.07 220.31 100.95 219.24 223.1-1.07 122.15-100.96 220.29-223.1 219.23-122.16-1.09-220.3-100.97-219.23-223.11" fill="#FF822E"/><path d="M2340.54 1705.63h-2.36 2.36c1.09 0 2.17 0 3.25-.01-1.08.01-2.16.01-3.25.01zm-2.67-.01h-.36.36zm-.42 0h-.44.44zm-.46 0c-24.16-.3-47.61-3.52-69.97-9.35 22.38 5.83 45.81 9.05 69.97 9.35zm-63.01-574.36c.04 0 .06-.01.08-.01-.02.01-.04.01-.08.01zm.48-.11c.04-.01.1-.02.14-.03-.04.01-.1.02-.14.03zm.47-.1zm.44-.1c.37-.08.71-.17 1.06-.25-.35.08-.69.16-1.06.25zm1.1-.25c.15-.04.29-.07.42-.1-.13.03-.27.06-.42.1zm.44-.1c19.85-4.43 40.47-6.82 61.62-6.96-21.15.14-41.77 2.53-61.62 6.96zm74.31-6.77h-.06.06zm-.41-.01c-.09-.01-.17-.01-.25-.01.08 0 .16 0 .25.01zm-.34-.01c-2.49-.09-4.95-.14-7.43-.16-.87-.01-1.74-.02-2.62-.02-.29 0-.58 0-.87.01.29-.01.58-.01.87-.01.87 0 1.75.01 2.62.02 2.48.02 4.94.07 7.43.16zm-11.9-.17h.41-.41zm.5 0h.41-.41z" fill="#FAFAFA"/><path d="M2192.87 1696.49s-1.85-7.47.29-11.54c2.15-4.06 5.43-15.08 4.93-16.46-.49-1.39-15.18-8.76-20.58-12.81-3.85-2.86-31.85-31.39-32.24-29.38-.38 2.03-.93 16.65 12.16 33.91 13.1 17.26 18.57 36.94 20.88 43.33 2.29 6.4 14.56-7.05 14.56-7.05m267.03 2.14s-3.94-12.29-1.77-17.29c2.18-5 11.54-10.71 24.05-16.55 11.63-5.43 38.27-20.72 39.55-19.53 1.26 1.2 1.46 9.01-16.93 24.85-18.42 15.85-25.04 19.49-24.82 27.43.21 7.94-20.08 1.09-20.08 1.09m-111.83 147.78s-44.54 30.49-42.37 11.86c2.21-18.62-2.58-37.93-2.58-37.93s44.22-19.22 42.22-5.37c-.46 3.21-.58 6.62-.46 9.97.13 3.93.57 7.79 1.09 11.12.94 6.04 2.1 10.35 2.1 10.35" fill="#FAB99B"/><path d="M2491.53 2480.68s13.75 7.72 19.38 13c5.63 5.28 30.91 2.56 36.3 16.6 5.37 14.03-18.48 21.12-44.29 13.58-25.81-7.55-30.22-12.83-38.92-17.04-9.12-4.44.55-27.78.55-27.78l26.98 1.64m-259.42-35.7s.09 10.8 1.69 21.44c1.6 10.62 14.62 33.26 13.63 41.76-.98 8.5-16.83 21.36-34.24.74-12.96-15.36-8.62-40.45-12.68-47.54-4.06-7.08-3.24-22.83 6.2-32.88 9.42-10.06 25.4 16.48 25.4 16.48" fill="#545A91"/><path d="M2419.04 2081.33s68.14 129.04 70.5 147.13c2.36 18.11 4.98 212.12 7.86 224.8 2.89 12.67-4.25 18.71-4.25 18.71s-22.75 9.05-29.56-1.22c-6.8-10.25-4.72-16.29-4.72-16.29s-22.53-155.99-25.41-181.64c-2.88-25.65-75.46-135.17-82.01-125.21-6.56 9.94-18.6 104.09-24.1 117.66-5.51 13.59-87.28 172.6-93.55 172.6-6.29 0-29.89-3.62-26.2-22.33 3.65-18.71 56.85-156.6 56.85-172.29 0-15.68 16.66-162.22 20.91-181.88 4.26-19.67 133.68 19.96 133.68 19.96" fill="#4499C9"/><path d="M2491.4 2482.26l.61-8.07-28-2.23.7 8.34s.65 4.56 13.96 5.5c13.32.95 12.73-3.54 12.73-3.54m-257.61-44.39s-2.26 9.5-2.78 11.45c-.52 1.98-16.97 4.04-21.83-4.75-4.83-8.81-2.46-10.82-1.98-14.86.34-2.82 1.84-5.72 1.84-5.72l24.75 13.88z" fill="#DB9C7C"/><path d="M2499.16 2471.96s-16.82 8.52-39.39 2.42c0 0-3.93-10.85-.91-19.92 0 0 15.47 7.89 38.16-3.87 0 0 3.86 9.3 2.14 21.37m-259.73-33.2s-30.93.31-35.64-20.81c0 0 3.8-11.41 7.28-14.45 0 0 5.2 17.2 33.68 18.84 0 0-1.92 10.54-5.32 16.42" fill="#545A91"/><path d="M2311.6 1729.34s42.42-14.99 44.39 37.48c2.01 53.24-3.84 59.21-21.03 63.13-17.19 3.92-36.19-1.97-51.28-41.6-14.39-37.73 1.22-55.89 27.92-59.01" fill="#FAB99B"/><path d="M2485.64 1792.8c-3.23 7.96-37.78 59.92-41.92 69.36-4.14 9.46-20.98 33.66-22.44 37.21-1.47 3.54-6.25 43.03-10.69 54.56-4.43 11.5-.21 90.07 1.54 102.77 1.79 12.69 6.94 24.62 6.94 24.62s-70.16 15.22-139.53 20.52c0 0 4.52-33.26 3.64-45.96-.89-12.69-16.26-92.17-22.77-104.57-6.49-12.4-66.11-99.77-68.47-103.31-2.37-3.54-27.75-44.28-28.93-53.73-1.17-9.44 5.8-84.05 5.84-94.04.06-12.41.14-10.69.14-10.69l26.73 2.04s1.91 42.29 3.68 54.25c1.77 11.95 11.51 50.03 13.28 56.67 1.77 6.64 43.83 64.64 51.37 64.64 4.68 0 17.8-4.82 28.41-9.08 6.43-2.59 11.92-4.98 14.07-5.98 5.77-2.65 37.14-11.12 48.05-9.98 0 0 2.59.34 6.55.73 9 .89 25.08 1.94 33.3-.73 11.82-3.84 18.02-13.28 25.1-20.96 7.07-7.68 30.4-34.64 32.17-40.24 1.77-5.62 3.02-55.43 3.7-69.48.66-14.26.64-15.96.36-17.74-.3-1.77 29.94-8.49 29.36-3.46-.6 5.01-.76 36.73.52 54.76 1.25 17.62 3.26 39.85 0 47.82" fill="#385369"/><path d="M2288.23 1799.04s-4.25-7.46-.35-10.18c3.92-2.72 6.46 1.09 6.46 1.09l4.21-.69s-8.3-15.54 4.82-18.41c13.15-2.85 40.68-5.19 47.78-10.46 0 0 2.88 12.02 3.15 14.31.27 2.31 1.91-.54 1.91-.54s2.53-37.97-21.92-50.74c-24.43-12.79-51.08 2.44-55.42 16.92-4.36 14.48-5.5 28.77 9.36 58.7" fill="#665249"/><path d="M2288.78 1779.34s-4.67-3.68-5.39.18c-.72 3.86 7.93 20.22 10.18 20.34 2.23.1.75-16.04-4.79-20.52" fill="#FAB99B"/><path d="M2345.98 1836.06c-26.79 4.94-36.78-10.64-36.78-10.64 17.39 11.77 35.76 1.04 35.93.9.31 3.96.33 6.4.85 9.74" fill="#A77860"/><path d="M2345.23 1910.19c-32.26 1.96-52.76-52.13-52.76-52.13 6.43-2.59 11.92-4.98 14.07-5.98 5.77-2.65 36.77-11.4 48.05-9.98 0 0 2.6.34 6.54.73 0 0 16.39 65.39-15.9 67.36" fill="#FAB99B"/><rect x="1315.29" y="1128.99" width="529" height="495" rx="11" fill="#FF822E"/><g filter="url(#filter0_d)"><path d="M1315.29 1140.99c0-11.04 8.96-20 20-20h489c11.05 0 20 8.96 20 20v63h-529v-63z" fill="#4A55B0"/></g><rect x="1358.29" y="1241.99" width="428" height="23" rx="6" fill="#fff" fill-opacity=".47"/><rect x="1358.29" y="1436.99" width="428" height="23" rx="6" fill="#fff" fill-opacity=".47"/><rect x="1358.29" y="1486.99" width="428" height="23" rx="6" fill="#fff" fill-opacity=".47"/><rect x="1358.29" y="1537.99" width="428" height="23" rx="6" fill="#fff" fill-opacity=".47"/><rect x="1358.29" y="1281.99" width="235" height="23" rx="6" fill="#fff" fill-opacity=".47"/><rect x="1357.29" y="1325.99" width="204" height="23" rx="6" fill="#fff" fill-opacity=".47"/><rect x="1357.29" y="1374.99" width="204" height="23" rx="6" fill="#fff" fill-opacity=".47"/><g clip-path="url(#clip0)" fill="#fff"><rect x="1627.29" y="1285.99" width="159" height="136" rx="7" fill-opacity=".49"/><ellipse cx="1707.29" cy="1436.49" rx="82" ry="72.5"/></g><circle cx="1707.29" cy="1339.99" r="35" fill="#fff"/><path d="M2432.2 1514h-44.34l-86.31-141.59V1514h-44.34v-215.19h44.34l86.46 141.88v-141.88h44.19V1514z" fill="#fff" fill-opacity=".59"/><path stroke="#fff" stroke-opacity=".5" stroke-width="33" d="M2195.55 1366.51l299 9.97m-307 62.03l299 9.97"/><defs><linearGradient id="paint0_linear" x1="990.963" y1="2205.5" x2="2454.55" y2="2205.5" gradientUnits="userSpaceOnUse"><stop stop-color="#FFE9D9"/><stop offset="1" stop-color="#D9D3CA"/></linearGradient><linearGradient id="paint1_linear" x1="493.826" y1="2366.73" x2="1795.86" y2="2366.73" gradientUnits="userSpaceOnUse"><stop stop-color="#E37E30"/><stop offset="1" stop-color="#DED6CC"/></linearGradient><linearGradient id="paint2_linear" x1="1310.24" y1="2289.42" x2="1310.24" y2="2085.96" gradientUnits="userSpaceOnUse"><stop stop-color="#FFE9D9"/><stop offset="1" stop-color="#BABABA"/></linearGradient><linearGradient id="paint3_linear" x1="1853.06" y1="597.143" x2="1853.06" y2="1742.15" gradientUnits="userSpaceOnUse"><stop stop-color="#FFE9D9"/><stop offset="1" stop-color="#D9D3CA"/></linearGradient><linearGradient id="paint4_linear" x1="1072.73" y1="1017.27" x2="2539.07" y2="1017.27" gradientUnits="userSpaceOnUse"><stop stop-color="#45516A"/><stop offset=".468" stop-color="#404B61"/><stop offset="1" stop-color="#2F3E5C"/></linearGradient><linearGradient id="paint5_linear" x1="1557.74" y1="1988.36" x2="1557.74" y2="2026.29" gradientUnits="userSpaceOnUse"><stop stop-color="#FFE9D9"/><stop offset="1" stop-color="#FFE9D9"/></linearGradient><linearGradient id="paint6_linear" x1="1156" y1="72.159" x2="1156" y2="354.254" gradientUnits="userSpaceOnUse"><stop stop-color="#D3DAE0"/><stop offset="1" stop-color="#fff"/></linearGradient><linearGradient id="paint7_linear" x1="717.984" y1="472.942" x2="717.984" y2="672.528" gradientUnits="userSpaceOnUse"><stop stop-color="#D3DAE0"/><stop offset="1" stop-color="#fff"/></linearGradient><linearGradient id="paint8_linear" x1="868.256" y1="-72.358" x2="868.256" y2="86.695" gradientUnits="userSpaceOnUse"><stop stop-color="#D3DAE0"/><stop offset="1" stop-color="#fff"/></linearGradient><linearGradient id="paint9_linear" x1="853.442" y1="1365.79" x2="14.791" y2="1018.85" gradientUnits="userSpaceOnUse"><stop stop-color="#FF7575"/><stop offset="1" stop-color="#FFD455"/></linearGradient><linearGradient id="paint10_linear" x1="559.882" y1="1501.14" x2="559.882" y2="1254.43" gradientUnits="userSpaceOnUse"><stop stop-color="#FF7575"/><stop offset="1" stop-color="#FFD455"/></linearGradient><linearGradient id="paint11_linear" x1="575.802" y1="1501.14" x2="575.802" y2="1254.44" gradientUnits="userSpaceOnUse"><stop stop-color="#FF7575"/><stop offset="1" stop-color="#FFD455"/></linearGradient><linearGradient id="paint12_linear" x1="595.548" y1="1501.14" x2="595.548" y2="1254.44" gradientUnits="userSpaceOnUse"><stop stop-color="#FF7575"/><stop offset="1" stop-color="#FFD455"/></linearGradient><linearGradient id="paint13_linear" x1="609.295" y1="1501.14" x2="609.295" y2="1254.43" gradientUnits="userSpaceOnUse"><stop stop-color="#FF7575"/><stop offset="1" stop-color="#FFD455"/></linearGradient><linearGradient id="paint14_linear" x1="623.388" y1="1501.14" x2="623.388" y2="1254.43" gradientUnits="userSpaceOnUse"><stop stop-color="#FF7575"/><stop offset="1" stop-color="#FFD455"/></linearGradient><linearGradient id="paint15_linear" x1="560.242" y1="1501.14" x2="560.242" y2="1254.43" gradientUnits="userSpaceOnUse"><stop stop-color="#FF7575"/><stop offset="1" stop-color="#FFD455"/></linearGradient><linearGradient id="paint16_linear" x1="575.749" y1="1501.14" x2="575.748" y2="1254.43" gradientUnits="userSpaceOnUse"><stop stop-color="#FF7575"/><stop offset="1" stop-color="#FFD455"/></linearGradient><linearGradient id="paint17_linear" x1="592.588" y1="1501.14" x2="592.588" y2="1254.43" gradientUnits="userSpaceOnUse"><stop stop-color="#FF7575"/><stop offset="1" stop-color="#FFD455"/></linearGradient><linearGradient id="paint18_linear" x1="609.068" y1="1501.14" x2="609.068" y2="1254.43" gradientUnits="userSpaceOnUse"><stop stop-color="#FF7575"/><stop offset="1" stop-color="#FFD455"/></linearGradient><linearGradient id="paint19_linear" x1="631.135" y1="1501.14" x2="631.135" y2="1254.43" gradientUnits="userSpaceOnUse"><stop stop-color="#FF7575"/><stop offset="1" stop-color="#FFD455"/></linearGradient><linearGradient id="paint20_linear" x1="654.708" y1="1501.14" x2="654.708" y2="1254.42" gradientUnits="userSpaceOnUse"><stop stop-color="#FF7575"/><stop offset="1" stop-color="#FFD455"/></linearGradient><linearGradient id="paint21_linear" x1="674.588" y1="1501.14" x2="674.588" y2="1254.43" gradientUnits="userSpaceOnUse"><stop stop-color="#FF7575"/><stop offset="1" stop-color="#FFD455"/></linearGradient><linearGradient id="paint22_linear" x1="692.908" y1="1501.14" x2="692.908" y2="1254.43" gradientUnits="userSpaceOnUse"><stop stop-color="#FF7575"/><stop offset="1" stop-color="#FFD455"/></linearGradient><linearGradient id="paint23_linear" x1="491.44" y1="1455.07" x2="937.958" y2="1455.07" gradientUnits="userSpaceOnUse"><stop stop-color="#FF9F55"/><stop offset="1" stop-color="#FFD255"/></linearGradient><linearGradient id="paint24_linear" x1="598.349" y1="2172.51" x2="122.862" y2="1741.95" gradientUnits="userSpaceOnUse"><stop stop-color="#FF7575"/><stop offset="1" stop-color="#FFD455"/></linearGradient><linearGradient id="paint25_linear" x1="595.094" y1="2201.67" x2="595.094" y2="1984.97" gradientUnits="userSpaceOnUse"><stop stop-color="#FF7575"/><stop offset="1" stop-color="#FFD455"/></linearGradient><linearGradient id="paint26_linear" x1="595.094" y1="2201.67" x2="595.094" y2="1984.97" gradientUnits="userSpaceOnUse"><stop stop-color="#FF7575"/><stop offset="1" stop-color="#FFD455"/></linearGradient><clipPath id="clip0"><path fill="#fff" d="M1627.29 1285.99h159v136h-159z"/></clipPath><filter id="filter0_d" x="1311.29" y="1120.99" width="537" height="91" filterUnits="userSpaceOnUse" color-interpolation-filters="sRGB"><feFlood flood-opacity="0" result="BackgroundImageFix"/><feColorMatrix in="SourceAlpha" values="0 0 0 0 0 0 0 0 0 0 0 0 0 0 0 0 0 0 127 0"/><feOffset dy="4"/><feGaussianBlur stdDeviation="2"/><feColorMatrix values="0 0 0 0 0 0 0 0 0 0 0 0 0 0 0 0 0 0 0.25 0"/><feBlend in2="BackgroundImageFix" result="effect1_dropShadow"/><feBlend in="SourceGraphic" in2="effect1_dropShadow" result="shape"/></filter></defs></svg>