<svg width="2632" height="2527" viewBox="0 0 2632 2527" fill="none" xmlns="http://www.w3.org/2000/svg">
<path d="M1777.41 2160.03H1307.01H836.614L769.331 2411.51H1307.01H1844.7L1777.41 2160.03Z" fill="url(#paint0_linear)"/>
<path d="M844.028 2226.82H905.588C908.161 2226.82 910.095 2228.82 909.615 2230.98L903.655 2257.75C903.295 2259.41 901.601 2260.61 899.628 2260.61H837.015C834.388 2260.61 832.441 2258.53 833.015 2256.34L840.028 2229.57C840.441 2227.97 842.108 2226.82 844.028 2226.82Z" fill="white"/>
<path d="M933.814 2226.82H980.348L974.148 2260.61H926.734L933.814 2226.82Z" fill="white"/>
<path d="M1003.62 2226.82H1050.15L1045.28 2260.6L997.855 2260.66L1003.62 2226.82Z" fill="white"/>
<path d="M1073.42 2226.82H1119.96L1116.42 2260.61H1069L1073.42 2226.82Z" fill="white"/>
<path d="M1143.23 2226.82H1189.76L1187.55 2260.61H1140.13L1143.23 2226.82Z" fill="white"/>
<path d="M1213.03 2226.82H1259.56L1258.68 2260.6L1211.25 2260.66L1213.03 2226.82" fill="white"/>
<path d="M1771.62 2226.82H1701.8L1709.32 2260.61H1780.46L1771.62 2226.82" fill="white"/>
<path d="M1678.55 2226.82H1632.02L1638.21 2260.6H1685.64L1678.55 2226.82Z" fill="white"/>
<path d="M1608.74 2226.82H1562.21L1567.08 2260.61L1614.5 2260.66L1608.74 2226.82Z" fill="white"/>
<path d="M1538.94 2226.82H1492.41L1495.95 2260.6H1543.37L1538.94 2226.82Z" fill="white"/>
<path d="M1469.15 2226.81H1422.61L1424.83 2260.6H1472.24L1469.15 2226.81" fill="white"/>
<path d="M1399.33 2226.82H1352.8L1353.68 2260.6L1401.1 2260.66L1399.33 2226.82" fill="white"/>
<path d="M1282.84 2226.82H1329.38L1330.15 2260.61H1282.84V2226.82Z" fill="white"/>
<path d="M823.548 2285.78H920.801L915.255 2320.62H816.175L823.548 2285.78" fill="white"/>
<path d="M1786.81 2285.78H1666.59L1673.45 2320.62H1795.93L1786.81 2285.78" fill="white"/>
<path d="M1642.57 2285.78H1594.48L1599.97 2320.62H1648.95L1642.57 2285.78Z" fill="white"/>
<path d="M1570.44 2285.78H1522.36L1526.47 2320.62H1575.47L1570.44 2285.78Z" fill="white"/>
<path d="M1498.32 2285.78H1450.24L1452.96 2320.62H1501.97L1498.32 2285.78Z" fill="white"/>
<path d="M1426.2 2285.78H1378.12L1379.49 2320.62H1428.49L1426.2 2285.78" fill="white"/>
<path d="M809.029 2347.88H908.442L901.189 2382.5H799.962L809.029 2347.88Z" fill="white"/>
<path d="M933.295 2347.88H983.002L977.108 2382.5H926.495L933.295 2347.88Z" fill="white"/>
<path d="M1007.86 2347.88H1380.64L1382.03 2382.5H1002.42L1007.86 2347.88" fill="white"/>
<path d="M1405.53 2347.88H1455.23L1457.96 2382.5H1407.35L1405.53 2347.88" fill="white"/>
<path d="M1480.09 2347.88H1529.79L1533.87 2382.5H1483.26L1480.09 2347.88" fill="white"/>
<path d="M1554.64 2347.88H1604.35L1609.79 2382.5H1559.18L1554.64 2347.88Z" fill="white"/>
<path d="M1629.2 2347.89H1678.91L1685.7 2382.5H1635.08L1629.2 2347.89Z" fill="white"/>
<path d="M1703.75 2347.88H1803.16L1812.23 2382.5H1711L1703.75 2347.88Z" fill="white"/>
<path d="M1354.19 2285.78H1306.5V2320.62H1355.1L1354.19 2285.78Z" fill="white"/>
<path d="M1282.07 2285.78H1233.99L1232.62 2320.62H1281.6L1282.07 2285.78Z" fill="white"/>
<path d="M1209.95 2285.78H1161.87L1159.12 2320.62H1208.12L1209.95 2285.78Z" fill="white"/>
<path d="M1137.83 2285.78H1089.73L1085.63 2320.62H1134.63L1137.83 2285.78Z" fill="white"/>
<path d="M1065.7 2285.78H1017.62L1012.15 2320.62H1061.14L1065.7 2285.78Z" fill="white"/>
<path d="M993.575 2285.78H945.495L938.655 2320.62H987.642L993.575 2285.78Z" fill="white"/>
<path d="M846.295 2205.59L854.202 2175.43H876.802L869.415 2205.59H846.295Z" fill="white"/>
<path d="M899.388 2175.43H944.588L938.255 2205.59H892.281L899.388 2175.43Z" fill="white"/>
<path d="M967.175 2175.43H1012.36L1007.23 2205.59H961.255L967.175 2175.43Z" fill="white"/>
<path d="M1034.96 2175.43H1080.15L1076.2 2205.59H1030.23L1034.96 2175.43Z" fill="white"/>
<path d="M1102.75 2175.43H1147.94L1145.18 2205.59H1099.19L1102.75 2175.43Z" fill="white"/>
<path d="M1170.54 2175.43H1215.72L1214.15 2205.59H1168.16L1170.54 2175.43Z" fill="white"/>
<path d="M1238.32 2175.43H1283.51L1283.11 2205.59H1237.13L1238.32 2175.43Z" fill="white"/>
<path d="M1306.11 2175.43H1351.3L1352.08 2205.59H1306.11V2175.43Z" fill="white"/>
<path d="M1373.89 2175.43H1419.08L1421.05 2205.59H1375.07L1373.89 2175.43Z" fill="white"/>
<path d="M1441.68 2175.43H1486.88L1490.04 2205.59H1444.05L1441.68 2175.43Z" fill="white"/>
<path d="M1509.45 2175.43H1554.65L1558.99 2205.59H1513L1509.45 2175.43Z" fill="white"/>
<path d="M1577.23 2175.43H1622.43L1627.96 2205.59H1581.99L1577.23 2175.43Z" fill="white"/>
<path d="M1645.02 2175.43H1690.22L1696.94 2205.59H1650.97L1645.02 2175.43Z" fill="white"/>
<path d="M1712.83 2175.43H1758.01L1765.92 2205.59H1719.92L1712.83 2175.43Z" fill="white"/>
<path d="M1844.7 2426.35H769.331V2411.51H1844.7V2426.35Z" fill="url(#paint1_linear)"/>
<path d="M1236.24 2076.94H1384.24V1627.4H1236.24V2076.94Z" fill="url(#paint2_linear)"/>
<path d="M716.237 1843.96H1904.23C1929.08 1843.96 1949.22 1823.81 1949.22 1798.97V987.39C1949.22 962.548 1929.08 942.406 1904.23 942.406H716.237C691.383 942.406 671.25 962.548 671.25 987.39V1798.97C671.25 1823.81 691.383 1843.96 716.237 1843.96Z" fill="url(#paint3_linear)"/>
<path d="M716.432 1680.07H1901.79V986.561H716.432V1680.07Z" fill="url(#paint4_linear)"/>
<path d="M1763.82 1767.31C1763.82 1790.08 1783.76 1808.54 1808.37 1808.54C1832.99 1808.54 1852.94 1790.08 1852.94 1767.31C1852.94 1744.55 1832.99 1726.1 1808.37 1726.1C1783.76 1726.1 1763.82 1744.55 1763.82 1767.31Z" fill="#696969"/>
<path d="M1643.15 2093.9H977.322V2059.97H1643.15V2093.9Z" fill="url(#paint5_linear)"/>
<path d="M1595.12 381.717H1462.36V368.127H1595.12V381.717Z" fill="#E0E0E0"/>
<path d="M1728.12 484.08H1632.27V470.488H1728.12V484.08Z" fill="#E0E0E0"/>
<path d="M1806.65 484.09H1743.05V470.487H1806.65V484.09Z" fill="#1487E3"/>
<path d="M1972.8 484.078H1819.23V470.484H1972.8V484.078Z" fill="#E0E0E0"/>
<path d="M1562.54 689.936H1463.84V676.345H1562.54V689.936Z" fill="#E0E0E0"/>
<path d="M1715.19 381.719H1620.93V368.135H1715.19V381.719Z" fill="#78C2FF"/>
<path d="M1715.19 535.256H1620.93V521.657H1715.19V535.256Z" fill="#1487E3"/>
<path d="M1614.09 586.436H1573.82V572.841H1614.09V586.436Z" fill="#E0E0E0"/>
<path d="M1624 638.367H1533.55V624.775H1624V638.367Z" fill="#78C2FF"/>
<path d="M1762.53 638.375H1637.66V624.784H1762.53V638.375Z" fill="#1487E3"/>
<path d="M1558.1 586.812H1463.85V573.218H1558.1V586.812Z" fill="#1487E3"/>
<path d="M1519.77 638.379H1463.85V624.781H1519.77V638.379Z" fill="#1487E3"/>
<path d="M1685.83 586.816H1633.07V573.225H1685.83V586.816Z" fill="#FF8761"/>
<path d="M1557.73 484.086H1463.48V470.494H1557.73V484.086Z" fill="#78C2FF"/>
<path d="M1597.83 535.246H1463.48V521.656H1597.83V535.246Z" fill="#78C2FF"/>
<path d="M1860.63 381.713H1740.56V368.135H1860.63V381.713Z" fill="#1487E3"/>
<path d="M2181.2 484.084H2061.13V470.483H2181.2V484.084Z" fill="#1487E3"/>
<path d="M2024.87 535.26H1904.78V521.668H2024.87V535.26Z" fill="#1487E3"/>
<path d="M2069.51 381.721H1949.45V368.123H2069.51V381.721Z" fill="#FF8761"/>
<path d="M1882.82 535.262H1812.42V521.668H1882.82V535.262Z" fill="#FF8761"/>
<path d="M1926.77 381.732H1882.82V368.132H1926.77V381.732Z" fill="#E0E0E0"/>
<path d="M1784.5 535.271H1740.55V521.674H1784.5V535.271Z" fill="#E0E0E0"/>
<path d="M1531.11 432.895H1462.34V419.301H1531.11V432.895Z" fill="#1487E3"/>
<path d="M1700.09 690.312H1645.81V676.719H1700.09V690.312Z" fill="#1487E3"/>
<path d="M1570.19 432.902H1547.99V419.31H1570.19V432.902Z" fill="#1487E3"/>
<path d="M2187.28 432.9H2003.77V419.308H2187.28V432.9Z" fill="#E0E0E0"/>
<path d="M1986.82 432.902H1926.77V419.307H1986.82V432.902Z" fill="#1487E3"/>
<path d="M2046.87 484.078H1986.82V470.484H2046.87V484.078Z" fill="#FF8761"/>
<path d="M1910.88 432.908H1783.15V419.304H1910.88V432.908Z" fill="#1487E3"/>
<path d="M1765.03 432.906H1721.07V419.318H1765.03V432.906Z" fill="#78C2FF"/>
<path d="M1617.09 484.072H1573.14V470.475H1617.09V484.072Z" fill="#FF8761"/>
<path d="M1625.85 690.305H1581.89V676.717H1625.85V690.305Z" fill="#FF8761"/>
<path d="M1704.3 432.91H1627.72V419.309H1704.3V432.91Z" fill="#1487E3"/>
<path d="M1470.85 1094.74H1466.31V824.447H1710.19V710.072H1714.71V828.974H1470.85V1094.74Z" fill="#FF976A"/>
<path d="M767.735 1605.98H767.682C767.922 1606.08 767.962 1606.1 767.735 1605.98Z" fill="#323657"/>
<path d="M2237.21 708.406H2198.32V702.989H2232.68V662.046H2237.21V708.406" fill="#6AAFE8"/>
<path d="M1424.36 708.402H1385.48V662.038H1390.01V702.99H1424.36V708.402Z" fill="#6AAFE8"/>
<path d="M1390.02 396.441H1385.49V350.038H1424.35V355.439H1390.02V396.441Z" fill="#6AAFE8"/>
<path d="M2237.21 396.424H2232.68V355.462H2198.32V350.063H2237.21V396.424Z" fill="#6AAFE8"/>
<path d="M2237.21 592.775H2232.68V465.697H2237.21V592.775Z" fill="#6AAFE8"/>
<path d="M1390 592.764H1385.48V465.702H1390V592.764Z" fill="#6AAFE8"/>
<path d="M2121.22 1010.56H2275.44V903.069H2121.22V1010.56ZM2279.96 1015.09H2116.69V898.536H2279.96V1015.09Z" fill="#D9D9D9"/>
<path d="M2198.33 969.127L2117.53 902.545L2120.4 899.047L2198.33 963.259L2276.27 899.047L2279.15 902.545L2198.33 969.127" fill="#D9D9D9"/>
<path d="M2276.05 1014.38L2217.46 952.599L2220.75 949.48L2279.35 1011.27L2276.05 1014.38Z" fill="#D9D9D9"/>
<path d="M2120.59 1014.38L2117.32 1011.27L2175.92 949.48L2179.2 952.599L2120.59 1014.38Z" fill="#D9D9D9"/>
<path d="M2018.82 1190.8H2116.87V1122.46H2018.82V1190.8ZM2119.76 1193.69H2015.95V1119.57H2119.76V1193.69Z" fill="#D9D9D9"/>
<path d="M2067.84 1164.47L2016.46 1122.13L2018.27 1119.91L2067.84 1160.74L2117.4 1119.91L2119.22 1122.13L2067.84 1164.47Z" fill="#D9D9D9"/>
<path d="M2117.26 1193.24L2080 1153.96L2082.08 1151.97L2119.35 1191.26L2117.26 1193.24" fill="#D9D9D9"/>
<path d="M2018.42 1193.24L2016.33 1191.26L2053.59 1151.97L2055.67 1153.96L2018.42 1193.24" fill="#D9D9D9"/>
<path d="M1910.37 888.253H2040.9V797.265H1910.37V888.253ZM2044.74 892.092H1906.55V793.443H2044.74V892.092Z" fill="#D9D9D9"/>
<path d="M1975.63 853.193L1907.24 796.839L1909.68 793.869L1975.63 848.226L2041.59 793.869L2044.04 796.839L1975.63 853.193Z" fill="#D9D9D9"/>
<path d="M2041.43 891.498L1991.83 839.204L1994.61 836.564L2044.21 888.858L2041.43 891.498Z" fill="#D9D9D9"/>
<path d="M1909.85 891.494L1907.07 888.849L1956.67 836.554L1959.45 839.199L1909.85 891.494Z" fill="#D9D9D9"/>
<path d="M1058.71 579.324H895.469V566.284H1058.71V579.324Z" fill="#D6D6D6"/>
<path d="M1041.87 556.098H912.321V543.071H1041.87V556.098Z" fill="#D6D6D6"/>
<path d="M1004.66 364.109C1004.66 379.188 992.436 391.424 977.341 391.424C962.247 391.424 950.012 379.188 950.012 364.109C950.012 349.014 962.247 336.779 977.341 336.779C992.436 336.779 1004.66 349.014 1004.66 364.109Z" fill="#D9D9D9"/>
<path d="M1026.63 453.176V505.142C1011.54 512.014 994.752 515.818 977.092 515.818C959.432 515.818 942.661 512.014 927.556 505.142V453.176C927.556 425.84 949.741 403.654 977.092 403.654C1004.46 403.654 1026.63 425.84 1026.63 453.176Z" fill="#D9D9D9"/>
<path d="M977.096 279.389C912.802 279.389 860.52 331.685 860.52 395.979C860.52 441.608 887.351 483.286 928.912 502.172C944.082 509.074 960.295 512.569 977.096 512.569C993.911 512.569 1010.12 509.074 1025.29 502.172C1066.85 483.286 1093.69 441.608 1093.69 395.979C1093.69 331.685 1041.39 279.389 977.096 279.389V279.389ZM977.096 519.061C959.355 519.061 942.232 515.374 926.224 508.09C882.358 488.162 854.015 444.149 854.015 395.979C854.015 328.102 909.233 272.884 977.096 272.884C1044.97 272.884 1100.19 328.102 1100.19 395.979C1100.19 444.149 1071.85 488.162 1027.97 508.09C1011.97 515.374 994.851 519.061 977.096 519.061" fill="url(#paint6_linear)"/>
<path d="M741.695 704.471H660.162V694.431H741.695V704.471Z" fill="#D6D6D6"/>
<path d="M761.468 686.592H640.375V676.552H761.468V686.592Z" fill="#D6D6D6"/>
<path d="M722.161 538.671C722.161 550.298 712.735 559.725 701.108 559.725C689.481 559.725 680.055 550.298 680.055 538.671C680.055 527.045 689.481 517.618 701.108 517.618C712.735 517.618 722.161 527.045 722.161 538.671Z" fill="#E0E0E0"/>
<path d="M739.082 607.297V647.324C727.455 652.617 714.535 655.551 700.922 655.551C687.322 655.551 674.388 652.617 662.762 647.324V607.297C662.762 586.231 679.842 569.137 700.922 569.137C722.002 569.137 739.082 586.231 739.082 607.297Z" fill="#E0E0E0"/>
<path d="M700.924 473.401C651.389 473.401 611.092 513.698 611.092 563.233C611.092 598.378 631.794 630.502 663.797 645.054C675.476 650.368 687.964 653.051 700.924 653.051C713.885 653.051 726.373 650.368 738.039 645.054C770.068 630.502 790.743 598.378 790.743 563.233C790.743 513.698 750.459 473.401 700.924 473.401V473.401ZM700.924 658.068C687.236 658.068 674.073 655.223 661.733 649.612C627.937 634.252 606.089 600.347 606.089 563.233C606.089 510.933 648.625 468.397 700.924 468.397C753.211 468.397 795.76 510.933 795.76 563.233C795.76 600.347 773.925 634.252 740.115 649.612C727.789 655.223 714.599 658.068 700.924 658.068Z" fill="url(#paint7_linear)"/>
<path d="M710.298 385.053H652.012V377.878H710.298V385.053Z" fill="#D6D6D6"/>
<path d="M724.431 372.285H637.848V365.098H724.431V372.285Z" fill="#D6D6D6"/>
<path d="M696.32 266.531C696.32 274.843 689.586 281.57 681.279 281.57C672.959 281.57 666.227 274.843 666.227 266.531C666.227 258.219 672.959 251.477 681.279 251.477C689.586 251.477 696.32 258.219 696.32 266.531Z" fill="#E0E0E0"/>
<path d="M708.427 315.6V344.213C700.11 347.993 690.859 350.094 681.141 350.094C671.409 350.094 662.17 347.993 653.863 344.213V315.6C653.863 300.528 666.063 288.315 681.141 288.315C696.214 288.315 708.427 300.528 708.427 315.6Z" fill="#E0E0E0"/>
<path d="M681.144 219.867C645.731 219.867 616.917 248.686 616.917 284.088C616.917 309.223 631.717 332.178 654.597 342.581C662.943 346.385 671.877 348.309 681.144 348.309C690.397 348.309 699.331 346.385 707.677 342.581C730.569 332.178 745.362 309.223 745.362 284.088C745.362 248.686 716.557 219.867 681.144 219.867ZM681.144 351.887C671.357 351.887 661.93 349.857 653.116 345.843C628.957 334.854 613.344 310.621 613.344 284.088C613.344 246.701 643.757 216.29 681.144 216.29C718.513 216.29 748.939 246.701 748.939 284.088C748.939 310.621 733.335 334.854 709.158 345.843C700.344 349.857 690.917 351.887 681.144 351.887Z" fill="url(#paint8_linear)"/>
<path d="M1994.24 1079.74H1791.13V1074.9H1989.42V969.135H2060.69V973.971H1994.24V1079.74Z" fill="#FF976A"/>
<path d="M1002.76 1631.34H426.642C416.22 1631.34 407.772 1622.9 407.772 1612.47V1319H1021.63V1612.47C1021.63 1622.9 1013.18 1631.34 1002.76 1631.34Z" fill="#F7F7F7"/>
<path d="M1021.63 1332.58H407.772V1296.82C407.772 1286.4 416.22 1277.95 426.642 1277.95H1002.76C1013.18 1277.95 1021.63 1286.4 1021.63 1296.82V1332.58Z" fill="url(#paint9_linear)"/>
<path d="M553.162 1440.62V1421.55H556.869V1437.38H566.602V1440.62H553.162Z" fill="url(#paint10_linear)"/>
<path d="M570.255 1431.09C570.255 1431.91 570.375 1432.71 570.628 1433.47C570.882 1434.25 571.242 1434.93 571.722 1435.53C572.188 1436.11 572.775 1436.59 573.455 1436.94C574.148 1437.3 574.935 1437.49 575.815 1437.49C576.709 1437.49 577.495 1437.3 578.188 1436.93C578.882 1436.57 579.468 1436.07 579.935 1435.47C580.415 1434.86 580.775 1434.17 581.015 1433.41C581.255 1432.65 581.375 1431.87 581.375 1431.09C581.375 1430.26 581.242 1429.47 580.988 1428.7C580.722 1427.93 580.362 1427.25 579.882 1426.66C579.402 1426.06 578.828 1425.59 578.135 1425.25C577.442 1424.9 576.669 1424.71 575.815 1424.71C574.922 1424.71 574.122 1424.9 573.415 1425.27C572.722 1425.63 572.135 1426.13 571.682 1426.73C571.215 1427.33 570.855 1428.01 570.615 1428.77C570.375 1429.53 570.255 1430.3 570.255 1431.09V1431.09ZM575.788 1440.77C574.388 1440.77 573.122 1440.49 571.988 1439.94C570.842 1439.39 569.868 1438.67 569.055 1437.77C568.242 1436.86 567.615 1435.83 567.162 1434.66C566.708 1433.5 566.495 1432.3 566.495 1431.09C566.495 1429.82 566.722 1428.59 567.202 1427.43C567.682 1426.27 568.335 1425.23 569.162 1424.34C570.002 1423.45 570.988 1422.74 572.135 1422.21C573.282 1421.67 574.522 1421.42 575.868 1421.42C577.242 1421.42 578.508 1421.7 579.642 1422.26C580.775 1422.82 581.748 1423.57 582.562 1424.47C583.362 1425.39 583.988 1426.43 584.442 1427.59C584.882 1428.75 585.108 1429.94 585.108 1431.14C585.108 1432.41 584.882 1433.62 584.415 1434.78C583.949 1435.94 583.295 1436.95 582.482 1437.85C581.655 1438.73 580.668 1439.43 579.522 1439.97C578.375 1440.5 577.135 1440.77 575.788 1440.77" fill="url(#paint11_linear)"/>
<path d="M601.201 1438.47C599.681 1439.99 597.908 1440.77 595.882 1440.77C594.628 1440.77 593.455 1440.51 592.348 1440.01C591.255 1439.51 590.295 1438.82 589.482 1437.94C588.655 1437.06 588.015 1436.03 587.535 1434.83C587.068 1433.65 586.828 1432.35 586.828 1430.98C586.828 1429.67 587.068 1428.45 587.535 1427.29C588.015 1426.13 588.668 1425.11 589.508 1424.25C590.335 1423.38 591.321 1422.69 592.441 1422.18C593.575 1421.67 594.801 1421.42 596.121 1421.42C597.921 1421.42 599.455 1421.79 600.735 1422.54C602.015 1423.3 602.975 1424.31 603.628 1425.58L600.855 1427.62C600.375 1426.67 599.695 1425.94 598.828 1425.45C597.961 1424.94 597.015 1424.69 595.988 1424.69C595.188 1424.69 594.441 1424.86 593.775 1425.21C593.108 1425.54 592.535 1426.01 592.055 1426.61C591.575 1427.19 591.215 1427.87 590.948 1428.65C590.695 1429.41 590.561 1430.23 590.561 1431.09C590.561 1431.98 590.708 1432.82 590.988 1433.61C591.281 1434.38 591.668 1435.06 592.175 1435.63C592.681 1436.21 593.268 1436.66 593.961 1436.98C594.655 1437.31 595.401 1437.49 596.201 1437.49C598.055 1437.49 599.721 1436.61 601.201 1434.87V1433.53H597.361V1430.82H604.268V1440.62H601.201V1438.47" fill="url(#paint12_linear)"/>
<path d="M607.441 1440.62V1421.55H611.148V1440.62H607.441Z" fill="url(#paint13_linear)"/>
<path d="M618.828 1428.41V1440.62H615.121V1421.55H618.001L627.934 1434.07V1421.58H631.641V1440.62H628.641L618.828 1428.41" fill="url(#paint14_linear)"/>
<path d="M556.869 1480.46H561.175C561.855 1480.46 562.415 1480.18 562.882 1479.63C563.335 1479.07 563.562 1478.31 563.562 1477.36C563.562 1476.88 563.495 1476.44 563.349 1476.06C563.202 1475.68 563.015 1475.35 562.789 1475.08C562.549 1474.82 562.282 1474.62 561.962 1474.48C561.642 1474.35 561.335 1474.27 561.015 1474.27H556.869V1480.46ZM553.162 1490.1V1471.03H561.255C562.135 1471.03 562.935 1471.2 563.682 1471.58C564.429 1471.94 565.069 1472.43 565.602 1473.03C566.135 1473.63 566.562 1474.31 566.869 1475.07C567.175 1475.83 567.322 1476.6 567.322 1477.36C567.322 1478.18 567.175 1478.95 566.895 1479.72C566.602 1480.48 566.202 1481.15 565.682 1481.75C565.162 1482.34 564.535 1482.82 563.802 1483.16C563.069 1483.52 562.255 1483.71 561.389 1483.71H556.869V1490.1H553.162" fill="url(#paint15_linear)"/>
<path d="M578.389 1482.74L575.762 1475.24L573.015 1482.74H578.389ZM574.122 1471.03H577.402L584.655 1490.1H580.842L579.068 1485.35H572.402L570.655 1490.1H566.842L574.122 1471.03Z" fill="url(#paint16_linear)"/>
<path d="M597.815 1476.02C597.695 1475.9 597.468 1475.72 597.135 1475.51C596.801 1475.3 596.401 1475.08 595.921 1474.88C595.455 1474.67 594.935 1474.5 594.375 1474.36C593.828 1474.22 593.255 1474.14 592.681 1474.14C591.668 1474.14 590.908 1474.34 590.401 1474.71C589.895 1475.08 589.655 1475.62 589.655 1476.3C589.655 1476.68 589.748 1477.02 589.935 1477.27C590.121 1477.54 590.388 1477.76 590.748 1477.96C591.108 1478.15 591.561 1478.34 592.108 1478.5C592.655 1478.66 593.281 1478.83 594.001 1479C594.935 1479.26 595.775 1479.52 596.548 1479.82C597.308 1480.1 597.948 1480.46 598.481 1480.88C599.001 1481.31 599.415 1481.83 599.695 1482.43C599.988 1483.03 600.135 1483.78 600.135 1484.64C600.135 1485.67 599.935 1486.54 599.548 1487.27C599.161 1487.99 598.641 1488.58 597.988 1489.03C597.335 1489.47 596.588 1489.8 595.735 1490C594.881 1490.22 593.988 1490.32 593.068 1490.32C591.628 1490.32 590.215 1490.1 588.815 1489.67C587.415 1489.24 586.161 1488.63 585.055 1487.84L586.695 1484.64C586.855 1484.8 587.148 1485.02 587.575 1485.28C587.988 1485.54 588.481 1485.8 589.055 1486.06C589.628 1486.32 590.268 1486.54 590.961 1486.71C591.668 1486.9 592.388 1486.99 593.121 1486.99C595.161 1486.99 596.175 1486.34 596.175 1485.03C596.175 1484.62 596.068 1484.27 595.828 1483.98C595.601 1483.7 595.268 1483.44 594.841 1483.23C594.401 1483 593.881 1482.82 593.281 1482.63C592.668 1482.46 591.988 1482.26 591.241 1482.04C590.321 1481.79 589.535 1481.52 588.855 1481.22C588.188 1480.92 587.628 1480.58 587.175 1480.18C586.735 1479.78 586.401 1479.31 586.175 1478.78C585.948 1478.24 585.841 1477.62 585.841 1476.88C585.841 1475.91 586.015 1475.06 586.375 1474.31C586.735 1473.55 587.228 1472.92 587.868 1472.42C588.495 1471.92 589.241 1471.54 590.081 1471.28C590.921 1471.02 591.828 1470.9 592.801 1470.9C594.135 1470.9 595.375 1471.1 596.508 1471.52C597.628 1471.94 598.615 1472.44 599.455 1473.02L597.815 1476.02" fill="url(#paint17_linear)"/>
<path d="M614.295 1476.02C614.161 1475.9 613.935 1475.72 613.601 1475.51C613.268 1475.3 612.868 1475.08 612.401 1474.88C611.921 1474.67 611.401 1474.5 610.855 1474.36C610.295 1474.22 609.735 1474.14 609.161 1474.14C608.135 1474.14 607.375 1474.34 606.868 1474.71C606.375 1475.08 606.121 1475.62 606.121 1476.3C606.121 1476.68 606.215 1477.02 606.401 1477.27C606.588 1477.54 606.868 1477.76 607.228 1477.96C607.575 1478.15 608.028 1478.34 608.575 1478.5C609.121 1478.66 609.761 1478.83 610.468 1479C611.401 1479.26 612.255 1479.52 613.015 1479.82C613.775 1480.1 614.415 1480.46 614.948 1480.88C615.468 1481.31 615.881 1481.83 616.175 1482.43C616.455 1483.03 616.601 1483.78 616.601 1484.64C616.601 1485.67 616.402 1486.54 616.015 1487.27C615.642 1487.99 615.121 1488.58 614.468 1489.03C613.815 1489.47 613.055 1489.8 612.201 1490C611.348 1490.22 610.468 1490.32 609.535 1490.32C608.095 1490.32 606.682 1490.1 605.282 1489.67C603.895 1489.24 602.641 1488.63 601.521 1487.84L603.161 1484.64C603.321 1484.8 603.615 1485.02 604.041 1485.28C604.455 1485.54 604.961 1485.8 605.521 1486.06C606.108 1486.32 606.735 1486.54 607.441 1486.71C608.135 1486.9 608.855 1486.99 609.588 1486.99C611.628 1486.99 612.655 1486.34 612.655 1485.03C612.655 1484.62 612.535 1484.27 612.295 1483.98C612.068 1483.7 611.735 1483.44 611.308 1483.23C610.881 1483 610.362 1482.82 609.748 1482.63C609.135 1482.46 608.455 1482.26 607.708 1482.04C606.788 1481.79 606.001 1481.52 605.321 1481.22C604.655 1480.92 604.095 1480.58 603.641 1480.18C603.201 1479.78 602.868 1479.31 602.641 1478.78C602.415 1478.24 602.308 1477.62 602.308 1476.88C602.308 1475.91 602.481 1475.06 602.841 1474.31C603.201 1473.55 603.695 1472.92 604.335 1472.42C604.975 1471.92 605.708 1471.54 606.548 1471.28C607.388 1471.02 608.295 1470.9 609.268 1470.9C610.601 1470.9 611.841 1471.1 612.975 1471.52C614.095 1471.94 615.081 1472.44 615.921 1473.02L614.295 1476.02" fill="url(#paint18_linear)"/>
<path d="M625.548 1471.08H628.961L631.108 1477.39L633.255 1471.08H636.695L633.441 1479.76L635.868 1485.86L641.268 1471.03H645.295L637.535 1490.1H634.415L631.108 1482.1L627.801 1490.1H624.681L616.975 1471.03H620.948L626.375 1485.86L628.748 1479.76L625.548 1471.08" fill="url(#paint19_linear)"/>
<path d="M649.161 1480.56C649.161 1481.39 649.295 1482.19 649.535 1482.95C649.788 1483.72 650.161 1484.4 650.628 1485C651.108 1485.59 651.681 1486.06 652.375 1486.42C653.068 1486.78 653.855 1486.96 654.721 1486.96C655.628 1486.96 656.415 1486.78 657.108 1486.4C657.788 1486.04 658.375 1485.55 658.855 1484.94C659.321 1484.34 659.681 1483.64 659.921 1482.88C660.161 1482.12 660.295 1481.35 660.295 1480.56C660.295 1479.74 660.161 1478.94 659.895 1478.18C659.641 1477.4 659.268 1476.72 658.801 1476.14C658.321 1475.54 657.735 1475.07 657.055 1474.72C656.361 1474.38 655.588 1474.19 654.721 1474.19C653.828 1474.19 653.028 1474.38 652.335 1474.75C651.641 1475.11 651.055 1475.6 650.588 1476.2C650.121 1476.8 649.775 1477.48 649.521 1478.24C649.281 1479 649.161 1479.78 649.161 1480.56V1480.56ZM654.695 1490.24C653.308 1490.24 652.041 1489.96 650.895 1489.42C649.761 1488.87 648.788 1488.15 647.975 1487.24C647.148 1486.34 646.521 1485.3 646.068 1484.14C645.628 1482.98 645.401 1481.78 645.401 1480.56C645.401 1479.3 645.641 1478.07 646.121 1476.91C646.588 1475.75 647.241 1474.71 648.081 1473.82C648.908 1472.92 649.895 1472.22 651.041 1471.68C652.188 1471.15 653.441 1470.9 654.775 1470.9C656.161 1470.9 657.415 1471.18 658.561 1471.74C659.695 1472.3 660.668 1473.04 661.468 1473.95C662.281 1474.87 662.908 1475.91 663.348 1477.07C663.801 1478.23 664.028 1479.42 664.028 1480.62C664.028 1481.88 663.788 1483.1 663.321 1484.26C662.855 1485.42 662.215 1486.43 661.388 1487.32C660.561 1488.2 659.575 1488.91 658.428 1489.44C657.295 1489.98 656.041 1490.24 654.695 1490.24" fill="url(#paint20_linear)"/>
<path d="M670.575 1480.46H675.228C675.575 1480.46 675.882 1480.38 676.188 1480.22C676.482 1480.06 676.735 1479.83 676.948 1479.55C677.162 1479.28 677.335 1478.95 677.455 1478.58C677.588 1478.2 677.641 1477.79 677.641 1477.36C677.641 1476.92 677.575 1476.51 677.428 1476.14C677.295 1475.75 677.095 1475.43 676.855 1475.15C676.615 1474.87 676.335 1474.66 676.015 1474.51C675.708 1474.35 675.388 1474.27 675.068 1474.27H670.575V1480.46ZM666.868 1490.1V1471.03H675.308C676.188 1471.03 677.001 1471.2 677.735 1471.58C678.481 1471.94 679.121 1472.43 679.668 1473.03C680.201 1473.63 680.615 1474.31 680.922 1475.07C681.228 1475.83 681.388 1476.6 681.388 1477.36C681.388 1478.6 681.068 1479.72 680.455 1480.74C679.842 1481.75 679.002 1482.48 677.948 1482.92L682.295 1490.1H678.135L674.228 1483.71H670.575V1490.1H666.868" fill="url(#paint21_linear)"/>
<path d="M697.334 1480.54C697.334 1479.63 697.214 1478.78 696.961 1478.02C696.708 1477.24 696.348 1476.58 695.868 1476.02C695.374 1475.47 694.788 1475.04 694.081 1474.74C693.361 1474.43 692.561 1474.27 691.668 1474.27H688.441V1486.86H691.668C692.588 1486.86 693.401 1486.7 694.108 1486.36C694.814 1486.04 695.401 1485.6 695.881 1485.04C696.348 1484.47 696.708 1483.8 696.961 1483.03C697.214 1482.27 697.334 1481.43 697.334 1480.54V1480.54ZM684.734 1490.1V1471.03H691.668C693.228 1471.03 694.601 1471.27 695.774 1471.78C696.948 1472.28 697.921 1472.96 698.708 1473.82C699.494 1474.68 700.094 1475.68 700.481 1476.84C700.881 1478 701.068 1479.23 701.068 1480.54C701.068 1481.99 700.854 1483.3 700.414 1484.47C699.974 1485.64 699.348 1486.64 698.521 1487.48C697.694 1488.31 696.708 1488.96 695.548 1489.42C694.401 1489.87 693.108 1490.1 691.668 1490.1H684.734" fill="url(#paint22_linear)"/>
<path d="M670.202 1431.09C670.202 1434.61 667.362 1437.45 663.855 1437.45C660.335 1437.45 657.495 1434.61 657.495 1431.09C657.495 1427.58 660.335 1424.74 663.855 1424.74C667.362 1424.74 670.202 1427.58 670.202 1431.09Z" fill="#404040"/>
<path d="M696.388 1431.09C696.388 1434.61 693.535 1437.45 690.028 1437.45C686.521 1437.45 683.668 1434.61 683.668 1431.09C683.668 1427.58 686.521 1424.74 690.028 1424.74C693.535 1424.74 696.388 1427.58 696.388 1431.09Z" fill="#404040"/>
<path d="M722.562 1431.09C722.562 1434.61 719.708 1437.45 716.202 1437.45C712.695 1437.45 709.842 1434.61 709.842 1431.09C709.842 1427.58 712.695 1424.74 716.202 1424.74C719.708 1424.74 722.562 1427.58 722.562 1431.09Z" fill="#404040"/>
<path d="M748.735 1431.09C748.735 1434.61 745.881 1437.45 742.375 1437.45C738.868 1437.45 736.015 1434.61 736.015 1431.09C736.015 1427.58 738.868 1424.74 742.375 1424.74C745.881 1424.74 748.735 1427.58 748.735 1431.09Z" fill="#404040"/>
<path d="M774.908 1431.09C774.908 1434.61 772.068 1437.45 768.548 1437.45C765.041 1437.45 762.201 1434.61 762.201 1431.09C762.201 1427.58 765.041 1424.74 768.548 1424.74C772.068 1424.74 774.908 1427.58 774.908 1431.09Z" fill="#404040"/>
<path d="M801.082 1431.09C801.082 1434.61 798.242 1437.45 794.735 1437.45C791.215 1437.45 788.375 1434.61 788.375 1431.09C788.375 1427.58 791.215 1424.74 794.735 1424.74C798.242 1424.74 801.082 1427.58 801.082 1431.09Z" fill="#404040"/>
<path d="M733.761 1480.5C733.761 1484.01 730.921 1486.85 727.415 1486.85C723.895 1486.85 721.055 1484.01 721.055 1480.5C721.055 1476.98 723.895 1474.14 727.415 1474.14C730.921 1474.14 733.761 1476.98 733.761 1480.5Z" fill="#404040"/>
<path d="M759.121 1480.5C759.121 1484.01 756.268 1486.85 752.761 1486.85C749.255 1486.85 746.401 1484.01 746.401 1480.5C746.401 1476.98 749.255 1474.14 752.761 1474.14C756.268 1474.14 759.121 1476.98 759.121 1480.5Z" fill="#404040"/>
<path d="M784.468 1480.5C784.468 1484.01 781.628 1486.85 778.122 1486.85C774.602 1486.85 771.762 1484.01 771.762 1480.5C771.762 1476.98 774.602 1474.14 778.122 1474.14C781.628 1474.14 784.468 1476.98 784.468 1480.5Z" fill="#404040"/>
<path d="M809.828 1480.5C809.828 1484.01 806.975 1486.85 803.468 1486.85C799.962 1486.85 797.108 1484.01 797.108 1480.5C797.108 1476.98 799.962 1474.14 803.468 1474.14C806.975 1474.14 809.828 1476.98 809.828 1480.5Z" fill="#404040"/>
<path d="M835.175 1480.5C835.175 1484.01 832.335 1486.85 828.815 1486.85C825.309 1486.85 822.469 1484.01 822.469 1480.5C822.469 1476.98 825.309 1474.14 828.815 1474.14C832.335 1474.14 835.175 1476.98 835.175 1480.5Z" fill="#404040"/>
<path d="M860.521 1480.5C860.521 1484.01 857.681 1486.85 854.174 1486.85C850.668 1486.85 847.814 1484.01 847.814 1480.5C847.814 1476.98 850.668 1474.14 854.174 1474.14C857.681 1474.14 860.521 1476.98 860.521 1480.5Z" fill="#404040"/>
<path d="M885.882 1480.5C885.882 1484.01 883.028 1486.85 879.522 1486.85C876.015 1486.85 873.175 1484.01 873.175 1480.5C873.175 1476.98 876.015 1474.14 879.522 1474.14C883.028 1474.14 885.882 1476.98 885.882 1480.5Z" fill="#404040"/>
<path d="M496.498 1521.88H932.895V1388.26H496.498V1521.88ZM937.962 1526.94H491.44V1383.2H937.962V1526.94Z" fill="url(#paint23_linear)"/>
<path d="M636.428 1596.1H442.435V1580.32H636.428V1596.1Z" fill="#E6E6E6"/>
<path d="M988.722 1596.1H854.175V1580.32H988.722V1596.1Z" fill="#E6E6E6"/>
<path d="M199.015 982.339C199.015 982.339 185.115 956.819 177.209 947.645C169.301 938.459 143.028 931.565 146.599 919.832C150.17 908.099 185.371 913.205 195.063 924.685C204.756 936.165 234.344 940.245 235.366 945.085C236.384 949.939 225.091 976.459 218.75 980.805C212.409 985.139 199.015 982.339 199.015 982.339" fill="#342F40"/>
<path d="M139.929 1003.95C139.929 1003.95 117.285 985.991 106.383 980.711C95.4799 975.418 68.6319 979.538 67.2505 967.338C65.8679 955.151 100.2 945.858 113.655 952.551C127.107 959.231 155.884 951.231 158.745 955.271C161.605 959.311 161.773 988.151 157.676 994.645C153.579 1001.14 139.929 1003.95 139.929 1003.95" fill="#342F40"/>
<path d="M190.217 1050.69C190.217 1050.69 200.101 983.086 199.655 971.366C199.527 968.019 219.997 969.259 219.041 975.699C216.958 989.726 226.405 1044.06 224.763 1054.01C223.122 1063.95 189.375 1056.95 190.217 1050.69Z" fill="#4499C9"/>
<path d="M159.243 1070.11C159.243 1070.11 140.719 1004.47 136.405 993.565C134.483 988.711 153.359 981.178 155.918 989.845C159.934 1003.44 189.823 1049.66 192.266 1059.44C194.711 1069.23 160.958 1076.2 159.243 1070.11Z" fill="#4499C9"/>
<path d="M172.106 1115.74C172.106 1115.74 153.53 1046.6 150.469 1039.47L174.433 1025.63C174.433 1025.63 191.655 1047.37 197.103 1075.69C199.165 1086.39 172.106 1115.74 172.106 1115.74Z" fill="#4499C9"/>
<path d="M727.468 938.485C727.468 938.485 697.175 946.152 682.748 969.058C668.335 991.978 655.882 1018.36 628.802 1030.34C601.708 1042.3 601.535 1073.15 603.642 1077.91C605.748 1082.67 650.695 1164.08 668.855 1167.7C687.015 1171.31 674.362 1138.47 670.735 1114.45C667.095 1090.41 716.375 1081.15 736.362 1055.07C756.362 1028.98 761.402 1004.95 761.402 1004.95L727.468 938.485Z" fill="#2E334D"/>
<path d="M722.188 1050.35C722.188 1050.35 721.295 1050.06 719.815 1049.92C718.095 1049.76 715.588 1049.8 712.735 1050.76C712.015 1051 711.068 1051.5 709.962 1052.15C702.762 1056.39 685.722 1067.91 683.415 1068.18C680.762 1068.5 683.002 1028.75 683.002 1028.75C683.002 1028.75 692.082 1012.71 693.215 1002.15C694.362 991.578 722.188 1050.35 722.188 1050.35" fill="#EEA886"/>
<path d="M509.06 1091.88C509.06 1091.88 475.772 1068.54 436.747 1075.82C397.72 1083.08 393.511 1101.32 380.12 1102.15C366.728 1102.98 321.963 1099.15 285.232 1109.87C248.502 1120.58 217.51 1121.72 213.302 1118.67C209.094 1115.6 230.81 1094.47 223.998 1036.75L193.018 1030.88C193.018 1030.88 177.716 1088.44 172.616 1100.68C167.162 1113.78 156.674 1138.43 171.596 1159.86C186.518 1181.28 228.223 1171.63 253.476 1175.95C278.727 1180.27 391.756 1177.5 411.494 1176.44C432.922 1175.3 497.583 1172.23 497.583 1172.23L509.06 1091.88Z" fill="#4499C9"/>
<path d="M782.455 970.912C782.455 970.912 784.575 1003.81 777.281 1013.66C774.361 1017.61 772.375 1019.75 771.041 1020.91C769.175 1022.54 767.721 1024.59 766.881 1026.94C764.628 1033.26 763.241 1042.17 761.441 1044.06C759.481 1046.14 753.801 1040.86 751.748 1040.86C749.695 1040.85 729.668 1058.13 724.868 1054.59C720.081 1051.05 690.855 1021.41 693.321 1001.07C695.775 980.739 704.735 950.379 737.641 950.565C770.548 950.752 779.935 962.739 782.455 970.912" fill="#EEA886"/>
<path d="M683.028 1127.84C682.388 1129.2 670.295 1148.52 657.042 1159.72C651.535 1164.39 645.842 1167.64 640.682 1167.64C639.108 1167.64 637.575 1167.67 636.068 1167.7C620.868 1168.11 609.175 1170.44 588.642 1171.47C567.308 1172.54 515.564 1169.55 514.035 1169.55C512.504 1169.55 497.583 1172.23 497.583 1172.23C492.226 1165.72 506.382 1092.27 509.06 1091.88C511.739 1091.5 528.956 1098 545.408 1095.32C561.855 1092.64 568.362 1091.12 592.855 1062.42C617.335 1033.72 641.828 1026.46 652.162 1028.75C662.482 1031.04 683.028 1028.75 683.028 1028.75C683.028 1028.75 683.908 1125.94 683.028 1127.84Z" fill="#385369"/>
<path d="M719.962 1050.07C718.242 1049.91 715.615 1049.94 712.762 1050.9C712.042 1051.14 711.068 1051.5 709.962 1052.15C704.668 1043.9 699.762 1024.34 699.602 1023.67C703.135 1034.38 719.962 1050.07 719.962 1050.07Z" fill="#A77860"/>
<path d="M657.042 1159.73C651.535 1164.39 645.842 1167.65 640.682 1167.65C639.108 1167.65 637.575 1167.67 636.068 1167.7L642.335 1106.81L657.042 1159.73" fill="#233442"/>
<path d="M776.095 1264.59L761.402 1277.95C748.735 1271.16 716.975 1248.31 710.868 1243.11C704.468 1237.66 661.748 1201.92 655.882 1193.78C649.962 1185.63 642.468 1101.47 643.228 1097.6C643.988 1093.8 680.375 1091.86 684.495 1100.76C684.495 1100.76 686.402 1148.76 687.375 1156.8C688.295 1164.83 691.375 1172.1 696.895 1178.86C704.522 1188.2 720.762 1209.94 736.482 1227.5C740.228 1231.68 771.242 1260.42 776.095 1264.59" fill="#EEA886"/>
<path d="M687.482 1101.83C687.482 1101.83 689.775 1037.91 668.988 1038.7C642.708 1039.7 638.762 1071.86 642.335 1106.8C642.335 1106.8 681.615 1107.19 687.482 1101.83Z" fill="#385369"/>
<path d="M769.014 1258.34C769.014 1258.34 770.974 1261.42 773.801 1262.38C778.694 1264.03 785.934 1260.85 789.508 1267.26C793.081 1273.67 775.841 1289.67 771.214 1290.65C766.588 1291.62 759.161 1284.42 753.374 1270.21C747.574 1255.99 769.014 1258.34 769.014 1258.34" fill="#EEA886"/>
<path d="M787.989 1265.26C787.989 1265.26 796.775 1271.95 805.669 1280.54C813.469 1288.07 821.402 1297.98 819.402 1299.85C816.669 1302.39 811.349 1293.9 803.122 1286.91C795.535 1280.49 795.975 1282.97 795.975 1282.97C795.975 1282.97 795.882 1282.26 802.802 1290.79C810.229 1299.98 817.909 1310.87 815.615 1312.45C814.175 1313.45 814.109 1313.7 810.869 1310.78C812.375 1312.85 812.029 1313.53 811.215 1314.19C807.069 1317.67 794.055 1305.78 788.882 1301.06C792.842 1304.71 795.349 1307.79 791.335 1308.27C786.749 1308.81 769.095 1291.21 762.175 1285.49C754.615 1279.25 787.989 1265.26 787.989 1265.26Z" fill="#EEA886"/>
<path d="M777.281 1013.66C777.281 1013.66 773.135 1023.82 767.561 1025.38C761.988 1026.92 761.748 1014.06 754.735 1007.03C747.708 1000.02 733.588 989.245 733.588 989.245L744.668 987.845C744.668 987.845 770.335 1000.39 777.281 1013.66Z" fill="#102530"/>
<path d="M768.628 994.457C768.628 994.457 776.629 1005.94 779.882 1008.12C779.882 1008.12 789.842 1000.02 782.242 969.137C774.642 938.257 745.975 935.351 727.468 938.484C704.428 942.391 681.242 1020.34 682.428 1027.94C683.628 1035.52 709.442 987.644 732.055 991.497C754.668 995.351 754.855 996.617 768.628 994.457" fill="#2E334D"/>
<path d="M524.018 1094.81C524.018 1094.81 517 1145.11 520.459 1169.86C520.459 1169.86 524.116 1172.58 531.398 1170.38C531.398 1170.38 533.216 1115.47 537.294 1095.98C537.294 1095.98 535.052 1094.29 524.018 1094.81Z" fill="#E0E0E0"/>
<path d="M531.109 1132.86H525.679V0.000825986H531.109V1132.86Z" fill="#E0E0E0"/>
<path d="M1232.1 1151.36C1232.1 1151.36 1233.9 1166.07 1236.28 1172.55C1238.67 1179.03 1251.64 1194 1246.16 1208.38C1240.23 1223.98 1214.3 1208.95 1203.72 1204.19C1193.14 1199.43 1195.55 1190.8 1194.42 1180.23C1193.3 1169.66 1188.14 1169.38 1190.03 1161.94C1191.94 1154.51 1203.51 1140.27 1203.51 1140.27L1232.1 1151.36" fill="#2F3352"/>
<path d="M1208.51 1132.58C1208.51 1132.58 1201.87 1141.87 1202.04 1142.12C1202.23 1142.38 1230.48 1159.58 1232.44 1154C1234.01 1149.58 1234.67 1143.15 1234.67 1143.15L1208.51 1132.58" fill="#EEA886"/>
<path d="M1112.73 1161.77C1112.73 1161.77 1104.12 1169.33 1096.37 1180.93C1088.63 1192.54 1068.1 1193.15 1067.22 1209.01C1066.34 1224.85 1095.15 1225.34 1110.27 1220.18C1125.4 1215.02 1127.68 1199.54 1136.83 1195.67C1145.97 1191.81 1150.73 1188.67 1150.03 1181.11C1149.32 1173.55 1144.25 1161.3 1144.25 1161.3C1144.25 1161.3 1138.57 1163.11 1135.24 1163.47C1131.89 1163.85 1120.65 1163.98 1112.73 1161.77Z" fill="#2F3352"/>
<path d="M1216.41 732.417C1216.41 732.417 1210.63 766.897 1205.95 789.671C1204.05 798.897 1202.35 806.217 1201.28 808.511C1199.95 811.404 1189.07 823.097 1175.75 836.804C1152.37 860.871 1121.51 891.164 1121.51 891.164L1109.43 868.244C1109.43 868.244 1136.85 836.097 1155.45 814.644C1164.05 804.711 1170.76 797.084 1172 795.977C1175.88 792.497 1180.39 758.244 1186.73 730.017C1193.08 701.777 1205.79 686.177 1205.79 686.177L1216.41 732.417" fill="#385369"/>
<path d="M1114.08 1151.2L1112.73 1161.76C1112.73 1161.76 1127.73 1167.07 1144.25 1161.3L1144.6 1151.91L1114.08 1151.2" fill="#EEA886"/>
<path d="M1327.02 886.498C1327.88 889.565 1168.15 886.498 1168.15 886.498C1168.15 886.498 1212.34 854.338 1215.19 845.738C1218.06 837.152 1203.95 785.605 1202.11 768.832C1200.63 755.405 1196.94 695.352 1205.79 686.178C1215.03 676.592 1248.34 666.538 1248.34 666.538L1296.88 668.338C1296.88 668.338 1304.9 670.018 1310.63 672.685C1316.35 675.338 1349.11 687.005 1354.43 703.365C1359.75 719.738 1321.75 772.352 1321.75 772.352C1321.75 772.352 1321.67 774.725 1321.56 778.592V778.605C1321.42 783.765 1321.19 791.618 1320.99 800.138C1320.74 811.165 1320.52 823.312 1320.52 832.192C1320.52 853.058 1326.16 883.432 1327.02 886.498" fill="#385369"/>
<path d="M1327.01 886.498C1327.01 886.498 1348.75 918.405 1349.05 940.192C1349.36 961.978 1310.49 1034.95 1304.61 1045.39C1286.93 1076.76 1238.44 1144.46 1238.44 1144.46C1238.44 1144.46 1230.08 1144.24 1204 1134.12C1204 1134.12 1236.27 1044.71 1240.35 1035.43C1257.69 996.058 1267.37 968.138 1261.53 961.392C1255.71 954.632 1239.81 947.872 1235.21 943.885C1230.61 939.885 1150.43 959.032 1142.03 961.205C1120.27 966.845 1130.19 1004.7 1135 1021.67C1143.05 1050.07 1150.09 1152.6 1150.09 1152.6C1150.09 1152.6 1134.6 1159.2 1108.64 1153.62C1108.64 1153.62 1057.68 968.485 1056.04 950.072C1054.4 931.672 1053.6 901.312 1179.2 878.232L1327.01 886.498" fill="#4499C9"/>
<path d="M1261.65 561.058C1261.65 561.058 1219.51 551.552 1229.13 604.592C1238.76 657.632 1248.91 661.792 1274.32 650.818C1299.75 639.845 1297.48 605.858 1298.76 589.205C1300.04 572.538 1275.09 561.632 1261.65 561.058Z" fill="#EEA886"/>
<path d="M1250.51 680.151C1250.51 680.151 1269.17 699.937 1298.67 681.964C1298.67 681.964 1292.07 639.071 1295.55 618.191C1299.01 597.297 1257.05 650.551 1257.05 650.551C1257.61 650.844 1257.97 652.831 1258.05 655.671C1258.13 658.071 1258 661.084 1257.61 664.178C1256.75 671.111 1254.59 678.444 1250.51 680.151" fill="#EEA886"/>
<path d="M1296.71 616.418C1296.71 616.418 1295.61 599.698 1289.51 599.178C1283.4 598.658 1282.47 605.391 1282.47 605.391L1276.31 606.551C1276.31 606.551 1278.25 591.911 1272.16 589.351C1266.07 586.791 1232.67 597.405 1227.77 593.111C1222.88 588.818 1225.19 559.098 1234.04 555.031C1242.88 550.965 1267.32 541.858 1285.23 553.978C1285.23 553.978 1299.17 552.391 1301.24 563.645C1303.32 574.911 1300.49 608.045 1296.71 616.418" fill="#3A3F47"/>
<path d="M1257.62 664.178C1288.06 654.791 1290.35 636.458 1290.38 636.178C1280.35 653.404 1258.06 655.671 1258.06 655.671C1258.14 658.071 1258 661.084 1257.62 664.178" fill="#A77860"/>
<path d="M1149.87 884.258C1149.87 884.258 1260.19 897.858 1327.01 886.498L1199.32 870.538C1199.32 870.538 1198.56 873.805 1149.87 884.258" fill="#385369"/>
<path d="M1232.38 865.526L1224.16 869.686C1224.16 869.686 1226.03 882.739 1230.54 886.699L1239.75 884.339C1239.75 884.339 1237.83 870.019 1232.38 865.526Z" fill="#EEA886"/>
<path d="M1360.03 838.791C1358.39 840.684 1336.7 849.418 1312.2 858.858C1278.74 871.751 1240.97 883.938 1240.97 883.938L1232.38 865.524C1232.38 865.524 1271.92 844.031 1298.63 828.964C1311.26 821.858 1321.02 816.164 1322.39 814.858C1326.68 810.764 1327.8 804.204 1324.64 792.764C1321.48 781.324 1314.2 728.738 1313.39 722.591C1312.58 716.458 1315.43 700.084 1330.77 699.271C1346.12 698.458 1353.92 702.791 1353.92 702.791C1353.92 702.791 1357.77 704.391 1360.64 741.618C1363.51 778.844 1363.92 834.284 1360.03 838.791" fill="#385369"/>
<path d="M1321.56 778.592V778.605C1321.41 783.765 1321.19 791.619 1320.99 800.139C1306.01 763.432 1314.67 734.139 1314.81 733.645C1313.2 743.605 1321.44 778.112 1321.56 778.592" fill="#233442"/>
<path d="M1205.95 789.672C1204.06 798.898 1202.35 806.218 1201.28 808.512C1196.18 783.765 1200.78 752.072 1200.78 752.072C1201.47 767.205 1205.95 789.672 1205.95 789.672Z" fill="#233442"/>
<path d="M1230 885.431L1073.2 883.124L1152.37 923.324L1230 885.431Z" fill="#444C94"/>
<path d="M1152.38 923.324L1230 893.244V885.431L1146.23 915.644L1152.38 923.324" fill="#303669"/>
<path d="M1225.93 869.965C1225.93 869.965 1216.15 868.445 1209.37 866.871C1204.13 865.645 1191.11 867.325 1187.79 870.685C1184.47 874.058 1173.92 897.471 1171.92 898.911C1169.93 900.338 1172.95 903.645 1176.45 901.978C1176.45 901.978 1179.67 912.231 1187.61 908.391C1195.55 904.565 1200.95 896.178 1205.11 894.711C1209.25 893.231 1233.48 885.791 1233.48 885.791C1233.48 885.791 1232.17 867.471 1225.93 869.965Z" fill="#EEA886"/>
<path d="M1190.19 869.152C1190.19 869.152 1183.9 872.192 1182.24 873.552C1180.6 874.899 1173.95 879.885 1172.34 881.059C1170.72 882.232 1174.76 885.565 1186.67 880.405C1198.58 875.259 1190.19 869.152 1190.19 869.152Z" fill="#EEA886"/>
<path d="M1152.38 923.324L1105.74 795.978L955.375 798.431L999.828 915.778L1152.38 923.324Z" fill="#303669"/>
<path d="M1229.79 608.071C1229.79 608.071 1243.23 606.538 1286.04 601.911V607.804C1286.04 607.804 1277.27 609.378 1271.79 610.924C1266.32 612.471 1257.56 619.111 1249.4 617.071C1238.45 614.338 1238.71 621.084 1231.57 619.764C1228.47 619.178 1229.79 608.071 1229.79 608.071Z" fill="#102530"/>
<path d="M1282.6 598.312C1283.16 593.632 1292.4 591.912 1293.15 598.939C1293.9 605.952 1288.95 618.259 1285.44 617.045C1281.92 615.832 1281.83 604.765 1282.6 598.312" fill="#EEA886"/>
<path d="M1257.84 662.005C1257.84 662.005 1272.43 665.925 1295.91 659.045C1295.91 659.045 1296.7 666.645 1298.8 667.365C1300.92 668.085 1302.6 669.098 1312.95 673.671C1316.12 675.085 1292.26 724.405 1259.18 721.125C1226.11 717.858 1224.02 691.271 1237.94 670.005C1237.94 670.005 1253.27 664.378 1257.64 663.938C1257.64 663.938 1257.67 662.511 1257.84 662.005" fill="#385369"/>
<path d="M561.428 2452.2C561.428 2452.2 579.068 2445.04 586.321 2441.98C593.561 2438.91 594.641 2432.18 597.694 2436.66C600.734 2441.15 615.854 2454.94 624.014 2456.68C632.174 2458.43 685.161 2466.47 686.201 2478.47C687.241 2490.48 662.548 2494.7 627.681 2496.52C592.841 2498.35 591.974 2507.34 568.734 2501.4C561.494 2499.55 561.428 2452.2 561.428 2452.2Z" fill="#152B3D"/>
<path d="M47.6029 2256.63C47.6029 2256.63 56.3322 2272.88 60.0522 2279.58C63.7722 2286.26 70.3949 2286.6 66.3749 2290.02C62.3522 2293.43 50.5989 2309.5 49.7576 2317.58C48.9162 2325.64 46.6655 2377.74 35.1589 2379.99C23.6522 2382.26 16.9949 2358.8 11.5975 2325.27C6.2042 2291.76 -2.59047 2291.87 0.728199 2268.76C1.76287 2261.56 47.6029 2256.63 47.6029 2256.63" fill="#152B3D"/>
<path d="M632.415 1886.15C632.415 1886.15 640.895 1870.7 642.255 1868.38C643.628 1866.06 650.402 1862.8 658.522 1859.76C666.628 1856.71 678.948 1856.23 680.162 1857.1C681.362 1857.98 683.002 1858.3 684.268 1861.91C685.535 1865.54 684.615 1869.28 684.615 1869.28C684.615 1869.28 688.268 1873.02 686.788 1877.56C686.788 1877.56 690.068 1881.23 687.535 1886.11C687.535 1886.11 690.642 1889.78 688.508 1893.16C688.508 1893.16 681.722 1896.43 679.548 1898.36C677.388 1900.3 662.802 1906.11 647.948 1909.55C647.948 1909.55 631.708 1913.98 632.415 1886.15" fill="#EEA886"/>
<path d="M656.695 1880.04C656.695 1880.04 655.815 1888.84 654.322 1891.2C652.815 1893.55 671.202 1901.32 671.202 1901.32C671.202 1901.32 667.375 1881.39 656.695 1880.04" fill="#CF8C6C"/>
<path d="M348.861 1992.99C334.431 2003.86 315.056 2046.44 301.532 2079.71C301.236 2080.31 274.503 2146.75 262.265 2165.03C243.881 2192.48 215.516 2188.75 176.076 2203.75C144.035 2215.92 43.8906 2254.94 43.8906 2254.94L64.0746 2295.11C64.0746 2295.11 219.992 2256.83 269.096 2236.48C293.988 2226.16 376.063 2164.54 376.075 2164.52C386.323 2156.12 395.583 2147.95 403.479 2140.68H403.483C409.761 2134.91 415.177 2129.71 419.548 2125.4C427.381 2117.68 431.84 2112.86 431.84 2112.86C431.84 2112.86 360.976 1983.86 348.861 1992.99Z" fill="#4499C9"/>
<path d="M473.586 1788.9L517.054 1898.77C517.054 1898.77 519.218 1913.99 550.949 1903.7C583.349 1893.21 635.282 1879.38 635.282 1879.38C635.282 1879.38 650.082 1911.03 646.255 1913.26C635.175 1919.73 546.829 1949.94 509.582 1960.1C480.026 1968.17 421.933 1819.58 421.933 1819.58L473.586 1788.9" fill="#385369"/>
<path d="M550.495 2221.28C551.148 2202.92 530.503 2151.14 514.937 2119.72H514.939C490.532 2069.52 465.724 2017.3 465.724 2017.3C465.724 2017.3 324.051 2017.22 324.297 2032.39C324.765 2061.15 398.759 2130.92 409.733 2143.63C409.733 2143.63 440.899 2168.6 451.577 2187.95C467.159 2216.19 469.979 2236 480.204 2272.9C489.361 2305.92 555.988 2455.66 555.988 2455.66L604.788 2440.7C604.788 2440.7 549.495 2249.78 550.495 2221.28" fill="#4499C9"/>
<path d="M317.237 2023.31C317.237 2023.31 413.941 1920.18 405.613 1853.5C404.936 1848.1 404.604 1842.77 404.596 1837.53C404.575 1830.66 405.103 1823.95 406.116 1817.42C412.18 1778.38 435.736 1746.09 465.047 1730.1C465.047 1730.1 464.768 1721.58 505.476 1760.69C507.723 1762.85 530.409 1802.75 533.493 1846.15C537.273 1899.26 522.061 1909.91 503.32 1950.3C489.621 1979.82 469.908 2005.53 465.724 2017.3C465.724 2017.3 454.852 2034.67 317.237 2023.31Z" fill="#385369"/>
<path d="M508.026 1726.71C508.026 1726.71 507.535 1728.88 506.835 1732.24C506.321 1734.71 505.69 1737.83 505.054 1741.2C503.335 1750.36 501.603 1761.43 502.079 1766.66C502.969 1776.4 466.046 1731.75 466.046 1731.75C466.046 1731.75 472.827 1700.84 474.823 1665.51C476.814 1630.18 508.026 1726.71 508.026 1726.71" fill="#EEA886"/>
<path d="M507.162 1732.09C506.646 1734.55 505.69 1737.83 505.054 1741.21C492.548 1729.42 483.072 1715.43 480.24 1711.06C485.696 1718.38 507.162 1732.09 507.162 1732.09" fill="#A77860"/>
<path d="M678.002 1857.82C678.002 1857.82 657.628 1866.04 658.548 1869.48C659.468 1872.94 661.895 1873.64 661.895 1873.64L655.055 1880.83C655.055 1880.83 653.202 1888.15 661.722 1888.02C661.722 1888.02 659.282 1894.67 667.495 1893.58C667.495 1893.58 667.842 1898.68 671.735 1898.84C675.628 1899 688.508 1893.16 688.508 1893.16C688.508 1893.16 690.682 1890.71 687.535 1886.11C687.535 1886.11 690.242 1881.58 686.788 1877.56C686.788 1877.56 688.375 1873.59 684.615 1869.28C684.615 1869.28 687.468 1860.16 680.162 1857.1C680.162 1857.1 678.855 1857.47 678.002 1857.82" fill="#DB9C7C"/>
<path d="M642.868 1868.04C642.868 1868.04 657.881 1869.39 665.748 1873.72C667.535 1874.71 669.081 1875.99 668.841 1878C668.601 1880.03 665.374 1882.26 658.841 1882C652.308 1881.75 643.748 1884.42 643.748 1884.42C643.748 1884.42 637.108 1882.19 642.868 1868.04" fill="#EEA886"/>
<path d="M544.782 1647.87C544.782 1647.87 556.229 1669.22 550.522 1672.51C545.809 1675.25 555.988 1696.19 557.308 1699.61C558.642 1703.03 548.775 1705.5 546.668 1707.69C544.57 1709.89 538.292 1736.94 530.163 1737.74C522.035 1738.53 485.446 1725.71 475.499 1715.31C465.553 1704.93 457.483 1658.09 464.185 1638.34C470.886 1618.61 524.577 1610.58 544.782 1647.87" fill="#EEA886"/>
<path d="M547.188 1652.25C547.188 1652.25 551.548 1636.75 530.266 1619.62C508.986 1602.5 476.546 1623.11 472.482 1626.26C468.866 1629.06 447.244 1647.01 455.494 1673.23C469.28 1717.05 469.87 1715.21 469.87 1715.21C469.87 1715.21 472.639 1689.33 480.627 1687.49C489.298 1685.49 503.62 1683.57 503.62 1683.57C503.62 1683.57 496.147 1663.58 507.906 1660.78C519.666 1657.98 535.311 1647.81 547.188 1652.25" fill="#202338"/>
<path d="M470.769 1627.66C470.769 1627.66 442.357 1633.46 447.003 1654.95C451.649 1676.45 464.24 1700.57 466.045 1705.61C467.852 1710.65 470.769 1627.66 470.769 1627.66" fill="#202338"/>
<path d="M707.149 2216.63H156.537C135.73 2216.63 118.863 2199.76 118.863 2178.95V1864.52C118.863 1843.72 135.73 1826.86 156.537 1826.86H707.149C727.949 1826.86 744.815 1843.72 744.815 1864.52V2178.95C744.815 2199.76 727.949 2216.63 707.149 2216.63" fill="url(#paint24_linear)"/>
<path d="M744.815 2076.07H118.863V2151.42H744.815V2076.07" fill="#5C5C5C"/>
<path d="M323.884 2039.38H184.317C172.709 2039.38 163.298 2029.97 163.298 2018.35V1952.91C163.298 1941.3 172.709 1931.89 184.317 1931.89H323.884C335.492 1931.89 344.902 1941.3 344.902 1952.91V2018.35C344.902 2029.97 335.492 2039.38 323.884 2039.38Z" fill="white"/>
<path d="M707.148 2039.38H483.037V2021.74H707.148V2039.38Z" fill="url(#paint25_linear)"/>
<path d="M707.148 2009.43H483.037V1991.79H707.148V2009.43Z" fill="url(#paint26_linear)"/>
<path d="M356.208 2025.06C356.208 2025.06 352.854 2022.15 352.006 2020.17C352.006 2020.17 350.742 2016.45 349.682 2013.85C349.342 2013.02 349.028 2012.31 348.776 2011.87C347.732 2010.05 344.89 2006.34 343.612 2001.25C342.332 1996.17 342.467 1972.78 342.467 1972.78L355.122 1969.27L366.502 1964.29C366.502 1964.29 389.3 1986.95 391.04 1991.57C391.208 1992.02 391.358 1992.46 391.464 1992.9C392.559 1996.94 391.674 2000.41 392.008 2002.59C392.126 2003.41 392.758 2011.47 391.018 2013.15C388.608 2015.5 385.99 2016.14 383.744 2015.63C383.744 2015.63 378.824 2020.01 374.398 2020.18C374.398 2020.18 369.99 2024.37 364.42 2023.01C364.42 2023.01 359.472 2026.75 356.208 2025.06" fill="#EEA886"/>
<path d="M460.665 1799.76C460.665 1799.76 485.307 1798.19 473.057 1760.86C456.526 1710.47 407.399 1761.48 303.619 1803.96C303.619 1803.96 274.545 1815.72 282.871 1846.79C291.199 1877.86 334.505 1967.74 336.917 1977.66L366.502 1964.28C366.502 1964.28 353.09 1914.62 348.029 1888.98C342.967 1863.34 339.386 1839.51 339.386 1839.51L460.665 1799.76" fill="#385369"/>
<path d="M552.842 1666.17C552.842 1666.17 555.108 1671.05 552.215 1683.06C549.322 1695.07 533.116 1676.73 526.255 1677.29C519.391 1677.85 495.246 1680.53 495.246 1680.53L490.123 1675.03C490.123 1675.03 550.815 1656.09 552.842 1666.17" fill="#102530"/>
<path d="M498.547 1684.99C497.967 1682.66 495.308 1672.19 487.112 1673.75C478.916 1675.3 481.644 1688.18 487.974 1695.7C494.304 1703.23 501.788 1698.04 498.547 1684.99" fill="#EEA886"/>
<path d="M2049.48 1412.09C2050.88 1251.38 2182.32 1122.24 2343.02 1123.65C2503.74 1125.06 2632.86 1256.49 2631.45 1417.19C2630.05 1577.9 2498.62 1707.03 2337.92 1705.62C2177.2 1704.22 2048.07 1572.79 2049.48 1412.09Z" fill="#F8BB66"/>
<path d="M2355.25 1705.26L2360.37 1124.32C2512.9 1134.63 2632.82 1262.31 2631.45 1417.2C2630.09 1572.07 2507.97 1697.63 2355.25 1705.26Z" fill="#F8BB66"/>
<path d="M2049.5 1412.08C2050.68 1275.86 2145.3 1162.32 2271.96 1131.75L2267 1696.27C2140.89 1663.48 2048.3 1548.29 2049.5 1412.08Z" fill="#F8BB66"/>
<path d="M2119.31 1412.7C2120.38 1290.55 2220.26 1192.4 2342.4 1193.48C2464.57 1194.55 2562.71 1294.43 2561.64 1416.58C2560.57 1538.73 2460.68 1636.87 2338.54 1635.81C2216.38 1634.72 2118.24 1534.84 2119.31 1412.7" fill="#FF822E"/>
<path d="M2340.54 1705.63C2339.75 1705.63 2338.97 1705.63 2338.18 1705.63C2338.97 1705.63 2339.75 1705.63 2340.54 1705.63C2341.63 1705.63 2342.71 1705.63 2343.79 1705.62C2342.71 1705.63 2341.63 1705.63 2340.54 1705.63ZM2337.87 1705.62C2337.76 1705.62 2337.62 1705.62 2337.51 1705.62C2337.62 1705.62 2337.76 1705.62 2337.87 1705.62ZM2337.45 1705.62C2337.29 1705.62 2337.14 1705.62 2337.01 1705.62C2337.14 1705.62 2337.29 1705.62 2337.45 1705.62ZM2336.99 1705.62C2312.83 1705.32 2289.38 1702.1 2267.02 1696.27C2289.4 1702.1 2312.83 1705.32 2336.99 1705.62Z" fill="#FAFAFA"/>
<path d="M2273.98 1131.26C2274.02 1131.26 2274.04 1131.25 2274.06 1131.25C2274.04 1131.26 2274.02 1131.26 2273.98 1131.26ZM2274.46 1131.15C2274.5 1131.14 2274.56 1131.13 2274.6 1131.12C2274.56 1131.13 2274.5 1131.14 2274.46 1131.15ZM2274.93 1131.05C2274.98 1131.03 2275.04 1131.02 2275.12 1131.01C2275.04 1131.02 2274.98 1131.03 2274.93 1131.05ZM2275.37 1130.95C2275.74 1130.87 2276.08 1130.78 2276.43 1130.7C2276.08 1130.78 2275.74 1130.86 2275.37 1130.95ZM2276.47 1130.7C2276.62 1130.66 2276.76 1130.63 2276.89 1130.6C2276.76 1130.63 2276.62 1130.66 2276.47 1130.7ZM2276.91 1130.6C2296.76 1126.17 2317.38 1123.78 2338.53 1123.64C2317.38 1123.78 2296.76 1126.17 2276.91 1130.6ZM2351.22 1123.83C2351.2 1123.83 2351.2 1123.83 2351.16 1123.83C2351.2 1123.83 2351.2 1123.83 2351.22 1123.83ZM2350.81 1123.82C2350.72 1123.81 2350.64 1123.81 2350.56 1123.81C2350.64 1123.81 2350.72 1123.81 2350.81 1123.82ZM2350.47 1123.81C2347.98 1123.72 2345.52 1123.67 2343.04 1123.65C2342.17 1123.64 2341.3 1123.63 2340.42 1123.63C2340.13 1123.63 2339.84 1123.63 2339.55 1123.64C2339.84 1123.63 2340.13 1123.63 2340.42 1123.63C2341.29 1123.63 2342.17 1123.64 2343.04 1123.65C2345.52 1123.67 2347.98 1123.72 2350.47 1123.81ZM2338.57 1123.64C2338.71 1123.64 2338.84 1123.64 2338.98 1123.64C2338.84 1123.64 2338.71 1123.64 2338.57 1123.64ZM2339.07 1123.64C2339.21 1123.64 2339.34 1123.64 2339.48 1123.64C2339.34 1123.64 2339.21 1123.64 2339.07 1123.64Z" fill="#FAFAFA"/>
<path d="M2192.87 1696.49C2192.87 1696.49 2191.02 1689.02 2193.16 1684.95C2195.31 1680.89 2198.59 1669.87 2198.09 1668.49C2197.6 1667.1 2182.91 1659.73 2177.51 1655.68C2173.66 1652.82 2145.66 1624.29 2145.27 1626.3C2144.89 1628.33 2144.34 1642.95 2157.43 1660.21C2170.53 1677.47 2176 1697.15 2178.31 1703.54C2180.6 1709.94 2192.87 1696.49 2192.87 1696.49" fill="#FAB99B"/>
<path d="M2459.9 1698.63C2459.9 1698.63 2455.96 1686.34 2458.13 1681.34C2460.31 1676.34 2469.67 1670.63 2482.18 1664.79C2493.81 1659.36 2520.45 1644.07 2521.73 1645.26C2522.99 1646.46 2523.19 1654.27 2504.8 1670.11C2486.38 1685.96 2479.76 1689.6 2479.98 1697.54C2480.19 1705.48 2459.9 1698.63 2459.9 1698.63" fill="#FAB99B"/>
<path d="M2348.07 1846.41C2348.07 1846.41 2303.53 1876.9 2305.7 1858.27C2307.91 1839.65 2303.12 1820.34 2303.12 1820.34C2303.12 1820.34 2347.34 1801.12 2345.34 1814.97C2344.88 1818.18 2344.76 1821.59 2344.88 1824.94C2345.01 1828.87 2345.45 1832.73 2345.97 1836.06C2346.91 1842.1 2348.07 1846.41 2348.07 1846.41" fill="#FAB99B"/>
<path d="M2491.53 2480.68C2491.53 2480.68 2505.28 2488.4 2510.91 2493.68C2516.54 2498.96 2541.82 2496.24 2547.21 2510.28C2552.58 2524.31 2528.73 2531.4 2502.92 2523.86C2477.11 2516.31 2472.7 2511.03 2464 2506.82C2454.88 2502.38 2464.55 2479.04 2464.55 2479.04L2491.53 2480.68" fill="#545A91"/>
<path d="M2232.11 2444.98C2232.11 2444.98 2232.2 2455.78 2233.8 2466.42C2235.4 2477.04 2248.42 2499.68 2247.43 2508.18C2246.45 2516.68 2230.6 2529.54 2213.19 2508.92C2200.23 2493.56 2204.57 2468.47 2200.51 2461.38C2196.45 2454.3 2197.27 2438.55 2206.71 2428.5C2216.13 2418.44 2232.11 2444.98 2232.11 2444.98" fill="#545A91"/>
<path d="M2419.04 2081.33C2419.04 2081.33 2487.18 2210.37 2489.54 2228.46C2491.9 2246.57 2494.52 2440.58 2497.4 2453.26C2500.29 2465.93 2493.15 2471.97 2493.15 2471.97C2493.15 2471.97 2470.4 2481.02 2463.59 2470.75C2456.79 2460.5 2458.87 2454.46 2458.87 2454.46C2458.87 2454.46 2436.34 2298.47 2433.46 2272.82C2430.58 2247.17 2358 2137.65 2351.45 2147.61C2344.89 2157.55 2332.85 2251.7 2327.35 2265.27C2321.84 2278.86 2240.07 2437.87 2233.8 2437.87C2227.51 2437.87 2203.91 2434.25 2207.6 2415.54C2211.25 2396.83 2264.45 2258.94 2264.45 2243.25C2264.45 2227.57 2281.11 2081.03 2285.36 2061.37C2289.62 2041.7 2419.04 2081.33 2419.04 2081.33" fill="#4499C9"/>
<path d="M2491.4 2482.26L2492.01 2474.19L2464.01 2471.96L2464.71 2480.3C2464.71 2480.3 2465.36 2484.86 2478.67 2485.8C2491.99 2486.75 2491.4 2482.26 2491.4 2482.26" fill="#DB9C7C"/>
<path d="M2233.79 2437.87C2233.79 2437.87 2231.53 2447.37 2231.01 2449.32C2230.49 2451.3 2214.04 2453.36 2209.18 2444.57C2204.35 2435.76 2206.72 2433.75 2207.2 2429.71C2207.54 2426.89 2209.04 2423.99 2209.04 2423.99L2233.79 2437.87Z" fill="#DB9C7C"/>
<path d="M2499.16 2471.96C2499.16 2471.96 2482.34 2480.48 2459.77 2474.38C2459.77 2474.38 2455.84 2463.53 2458.86 2454.46C2458.86 2454.46 2474.33 2462.35 2497.02 2450.59C2497.02 2450.59 2500.88 2459.89 2499.16 2471.96" fill="#545A91"/>
<path d="M2239.43 2438.76C2239.43 2438.76 2208.5 2439.07 2203.79 2417.95C2203.79 2417.95 2207.59 2406.54 2211.07 2403.5C2211.07 2403.5 2216.27 2420.7 2244.75 2422.34C2244.75 2422.34 2242.83 2432.88 2239.43 2438.76" fill="#545A91"/>
<path d="M2311.6 1729.34C2311.6 1729.34 2354.02 1714.35 2355.99 1766.82C2358 1820.06 2352.15 1826.03 2334.96 1829.95C2317.77 1833.87 2298.77 1827.98 2283.68 1788.35C2269.29 1750.62 2284.9 1732.46 2311.6 1729.34" fill="#FAB99B"/>
<path d="M2485.64 1792.8C2482.41 1800.76 2447.86 1852.72 2443.72 1862.16C2439.58 1871.62 2422.74 1895.82 2421.28 1899.37C2419.81 1902.91 2415.03 1942.4 2410.59 1953.93C2406.16 1965.43 2410.38 2044 2412.13 2056.7C2413.92 2069.39 2419.07 2081.32 2419.07 2081.32C2419.07 2081.32 2348.91 2096.54 2279.54 2101.84C2279.54 2101.84 2284.06 2068.58 2283.18 2055.88C2282.29 2043.19 2266.92 1963.71 2260.41 1951.31C2253.92 1938.91 2194.3 1851.54 2191.94 1848C2189.57 1844.46 2164.19 1803.72 2163.01 1794.27C2161.84 1784.83 2168.81 1710.22 2168.85 1700.23C2168.91 1687.82 2168.99 1689.54 2168.99 1689.54L2195.72 1691.58C2195.72 1691.58 2197.63 1733.87 2199.4 1745.83C2201.17 1757.78 2210.91 1795.86 2212.68 1802.5C2214.45 1809.14 2256.51 1867.14 2264.05 1867.14C2268.73 1867.14 2281.85 1862.32 2292.46 1858.06C2298.89 1855.47 2304.38 1853.08 2306.53 1852.08C2312.3 1849.43 2343.67 1840.96 2354.58 1842.1C2354.58 1842.1 2357.17 1842.44 2361.13 1842.83C2370.13 1843.72 2386.21 1844.77 2394.43 1842.1C2406.25 1838.26 2412.45 1828.82 2419.53 1821.14C2426.6 1813.46 2449.93 1786.5 2451.7 1780.9C2453.47 1775.28 2454.72 1725.47 2455.4 1711.42C2456.06 1697.16 2456.04 1695.46 2455.76 1693.68C2455.46 1691.91 2485.7 1685.19 2485.12 1690.22C2484.52 1695.23 2484.36 1726.95 2485.64 1744.98C2486.89 1762.6 2488.9 1784.83 2485.64 1792.8" fill="#385369"/>
<path d="M2288.23 1799.04C2288.23 1799.04 2283.98 1791.58 2287.88 1788.86C2291.8 1786.14 2294.34 1789.95 2294.34 1789.95L2298.55 1789.26C2298.55 1789.26 2290.25 1773.72 2303.37 1770.85C2316.52 1768 2344.05 1765.66 2351.15 1760.39C2351.15 1760.39 2354.03 1772.41 2354.3 1774.7C2354.57 1777.01 2356.21 1774.16 2356.21 1774.16C2356.21 1774.16 2358.74 1736.19 2334.29 1723.42C2309.86 1710.63 2283.21 1725.86 2278.87 1740.34C2274.51 1754.82 2273.37 1769.11 2288.23 1799.04" fill="#665249"/>
<path d="M2288.78 1779.34C2288.78 1779.34 2284.11 1775.66 2283.39 1779.52C2282.67 1783.38 2291.32 1799.74 2293.57 1799.86C2295.8 1799.96 2294.32 1783.82 2288.78 1779.34" fill="#FAB99B"/>
<path d="M2345.98 1836.06C2319.19 1841 2309.2 1825.42 2309.2 1825.42C2326.59 1837.19 2344.96 1826.46 2345.13 1826.32C2345.44 1830.28 2345.46 1832.72 2345.98 1836.06" fill="#A77860"/>
<path d="M2345.23 1910.19C2312.97 1912.15 2292.47 1858.06 2292.47 1858.06C2298.9 1855.47 2304.39 1853.08 2306.54 1852.08C2312.31 1849.43 2343.31 1840.68 2354.59 1842.1C2354.59 1842.1 2357.19 1842.44 2361.13 1842.83C2361.13 1842.83 2377.52 1908.22 2345.23 1910.19" fill="#FAB99B"/>
<rect x="1315.29" y="1128.99" width="529" height="495" rx="11" fill="#FF822E"/>
<g filter="url(#filter0_d)">
<path d="M1315.29 1140.99C1315.29 1129.95 1324.25 1120.99 1335.29 1120.99H1824.29C1835.34 1120.99 1844.29 1129.95 1844.29 1140.99V1203.99H1315.29V1140.99Z" fill="#4A55B0"/>
</g>
<rect x="1358.29" y="1241.99" width="428" height="23" rx="6" fill="white" fill-opacity="0.47"/>
<rect x="1358.29" y="1436.99" width="428" height="23" rx="6" fill="white" fill-opacity="0.47"/>
<rect x="1358.29" y="1486.99" width="428" height="23" rx="6" fill="white" fill-opacity="0.47"/>
<rect x="1358.29" y="1537.99" width="428" height="23" rx="6" fill="white" fill-opacity="0.47"/>
<rect x="1358.29" y="1281.99" width="235" height="23" rx="6" fill="white" fill-opacity="0.47"/>
<rect x="1357.29" y="1325.99" width="204" height="23" rx="6" fill="white" fill-opacity="0.47"/>
<rect x="1357.29" y="1374.99" width="204" height="23" rx="6" fill="white" fill-opacity="0.47"/>
<g clip-path="url(#clip0)">
<rect x="1627.29" y="1285.99" width="159" height="136" rx="7" fill="white" fill-opacity="0.49"/>
<ellipse cx="1707.29" cy="1436.49" rx="82" ry="72.5" fill="white"/>
</g>
<circle cx="1707.29" cy="1339.99" r="35" fill="white"/>
<path d="M2432.2 1514H2387.86L2301.55 1372.41V1514H2257.21V1298.81H2301.55L2388.01 1440.69V1298.81H2432.2V1514Z" fill="white" fill-opacity="0.59"/>
<line x1="2195.55" y1="1366.51" x2="2494.55" y2="1376.48" stroke="white" stroke-opacity="0.5" stroke-width="33"/>
<line x1="2187.55" y1="1438.51" x2="2486.55" y2="1448.48" stroke="white" stroke-opacity="0.5" stroke-width="33"/>
<defs>
<filter id="filter0_d" x="1311.29" y="1120.99" width="537" height="91" filterUnits="userSpaceOnUse" color-interpolation-filters="sRGB">
<feFlood flood-opacity="0" result="BackgroundImageFix"/>
<feColorMatrix in="SourceAlpha" type="matrix" values="0 0 0 0 0 0 0 0 0 0 0 0 0 0 0 0 0 0 127 0"/>
<feOffset dy="4"/>
<feGaussianBlur stdDeviation="2"/>
<feColorMatrix type="matrix" values="0 0 0 0 0 0 0 0 0 0 0 0 0 0 0 0 0 0 0.25 0"/>
<feBlend mode="normal" in2="BackgroundImageFix" result="effect1_dropShadow"/>
<feBlend mode="normal" in="SourceGraphic" in2="effect1_dropShadow" result="shape"/>
</filter>
<linearGradient id="paint0_linear" x1="990.963" y1="2205.5" x2="2454.55" y2="2205.5" gradientUnits="userSpaceOnUse">
<stop stop-color="#FFE9D9"/>
<stop offset="1" stop-color="#D9D3CA"/>
</linearGradient>
<linearGradient id="paint1_linear" x1="493.826" y1="2366.73" x2="1795.86" y2="2366.73" gradientUnits="userSpaceOnUse">
<stop stop-color="#E37E30"/>
<stop offset="1" stop-color="#DED6CC"/>
</linearGradient>
<linearGradient id="paint2_linear" x1="1310.24" y1="2289.42" x2="1310.24" y2="2085.96" gradientUnits="userSpaceOnUse">
<stop stop-color="#FFE9D9"/>
<stop offset="1" stop-color="#BABABA"/>
</linearGradient>
<linearGradient id="paint3_linear" x1="1853.06" y1="597.143" x2="1853.06" y2="1742.15" gradientUnits="userSpaceOnUse">
<stop stop-color="#FFE9D9"/>
<stop offset="1" stop-color="#D9D3CA"/>
</linearGradient>
<linearGradient id="paint4_linear" x1="1072.73" y1="1017.27" x2="2539.07" y2="1017.27" gradientUnits="userSpaceOnUse">
<stop stop-color="#45516A"/>
<stop offset="0.468241" stop-color="#404B61"/>
<stop offset="1" stop-color="#2F3E5C"/>
</linearGradient>
<linearGradient id="paint5_linear" x1="1557.74" y1="1988.36" x2="1557.74" y2="2026.29" gradientUnits="userSpaceOnUse">
<stop stop-color="#FFE9D9"/>
<stop offset="1" stop-color="#FFE9D9"/>
</linearGradient>
<linearGradient id="paint6_linear" x1="1156" y1="72.1591" x2="1156" y2="354.254" gradientUnits="userSpaceOnUse">
<stop stop-color="#D3DAE0"/>
<stop offset="1" stop-color="white"/>
</linearGradient>
<linearGradient id="paint7_linear" x1="717.984" y1="472.942" x2="717.984" y2="672.528" gradientUnits="userSpaceOnUse">
<stop stop-color="#D3DAE0"/>
<stop offset="1" stop-color="white"/>
</linearGradient>
<linearGradient id="paint8_linear" x1="868.256" y1="-72.3577" x2="868.256" y2="86.6952" gradientUnits="userSpaceOnUse">
<stop stop-color="#D3DAE0"/>
<stop offset="1" stop-color="white"/>
</linearGradient>
<linearGradient id="paint9_linear" x1="853.442" y1="1365.79" x2="14.791" y2="1018.85" gradientUnits="userSpaceOnUse">
<stop stop-color="#FF7575"/>
<stop offset="1" stop-color="#FFD455"/>
</linearGradient>
<linearGradient id="paint10_linear" x1="559.882" y1="1501.14" x2="559.882" y2="1254.43" gradientUnits="userSpaceOnUse">
<stop stop-color="#FF7575"/>
<stop offset="1" stop-color="#FFD455"/>
</linearGradient>
<linearGradient id="paint11_linear" x1="575.802" y1="1501.14" x2="575.802" y2="1254.44" gradientUnits="userSpaceOnUse">
<stop stop-color="#FF7575"/>
<stop offset="1" stop-color="#FFD455"/>
</linearGradient>
<linearGradient id="paint12_linear" x1="595.548" y1="1501.14" x2="595.548" y2="1254.44" gradientUnits="userSpaceOnUse">
<stop stop-color="#FF7575"/>
<stop offset="1" stop-color="#FFD455"/>
</linearGradient>
<linearGradient id="paint13_linear" x1="609.295" y1="1501.14" x2="609.295" y2="1254.43" gradientUnits="userSpaceOnUse">
<stop stop-color="#FF7575"/>
<stop offset="1" stop-color="#FFD455"/>
</linearGradient>
<linearGradient id="paint14_linear" x1="623.388" y1="1501.14" x2="623.388" y2="1254.43" gradientUnits="userSpaceOnUse">
<stop stop-color="#FF7575"/>
<stop offset="1" stop-color="#FFD455"/>
</linearGradient>
<linearGradient id="paint15_linear" x1="560.242" y1="1501.14" x2="560.242" y2="1254.43" gradientUnits="userSpaceOnUse">
<stop stop-color="#FF7575"/>
<stop offset="1" stop-color="#FFD455"/>
</linearGradient>
<linearGradient id="paint16_linear" x1="575.749" y1="1501.14" x2="575.748" y2="1254.43" gradientUnits="userSpaceOnUse">
<stop stop-color="#FF7575"/>
<stop offset="1" stop-color="#FFD455"/>
</linearGradient>
<linearGradient id="paint17_linear" x1="592.588" y1="1501.14" x2="592.588" y2="1254.43" gradientUnits="userSpaceOnUse">
<stop stop-color="#FF7575"/>
<stop offset="1" stop-color="#FFD455"/>
</linearGradient>
<linearGradient id="paint18_linear" x1="609.068" y1="1501.14" x2="609.068" y2="1254.43" gradientUnits="userSpaceOnUse">
<stop stop-color="#FF7575"/>
<stop offset="1" stop-color="#FFD455"/>
</linearGradient>
<linearGradient id="paint19_linear" x1="631.135" y1="1501.14" x2="631.135" y2="1254.43" gradientUnits="userSpaceOnUse">
<stop stop-color="#FF7575"/>
<stop offset="1" stop-color="#FFD455"/>
</linearGradient>
<linearGradient id="paint20_linear" x1="654.708" y1="1501.14" x2="654.708" y2="1254.42" gradientUnits="userSpaceOnUse">
<stop stop-color="#FF7575"/>
<stop offset="1" stop-color="#FFD455"/>
</linearGradient>
<linearGradient id="paint21_linear" x1="674.588" y1="1501.14" x2="674.588" y2="1254.43" gradientUnits="userSpaceOnUse">
<stop stop-color="#FF7575"/>
<stop offset="1" stop-color="#FFD455"/>
</linearGradient>
<linearGradient id="paint22_linear" x1="692.908" y1="1501.14" x2="692.908" y2="1254.43" gradientUnits="userSpaceOnUse">
<stop stop-color="#FF7575"/>
<stop offset="1" stop-color="#FFD455"/>
</linearGradient>
<linearGradient id="paint23_linear" x1="491.44" y1="1455.07" x2="937.958" y2="1455.07" gradientUnits="userSpaceOnUse">
<stop stop-color="#FF9F55"/>
<stop offset="1" stop-color="#FFD255"/>
</linearGradient>
<linearGradient id="paint24_linear" x1="598.349" y1="2172.51" x2="122.862" y2="1741.95" gradientUnits="userSpaceOnUse">
<stop stop-color="#FF7575"/>
<stop offset="1" stop-color="#FFD455"/>
</linearGradient>
<linearGradient id="paint25_linear" x1="595.094" y1="2201.67" x2="595.094" y2="1984.97" gradientUnits="userSpaceOnUse">
<stop stop-color="#FF7575"/>
<stop offset="1" stop-color="#FFD455"/>
</linearGradient>
<linearGradient id="paint26_linear" x1="595.094" y1="2201.67" x2="595.094" y2="1984.97" gradientUnits="userSpaceOnUse">
<stop stop-color="#FF7575"/>
<stop offset="1" stop-color="#FFD455"/>
</linearGradient>
<clipPath id="clip0">
<rect x="1627.29" y="1285.99" width="159" height="136" fill="white"/>
</clipPath>
</defs>
</svg>
