<svg xmlns="http://www.w3.org/2000/svg" width="512" height="512"><path d="M0 96h96V0H0v96zm32-64h32v32H32V32zM224 0h-96v96h96V0zm-32 64h-32V32h32v32zM352 0h-96v96h96V0zm-32 64h-32V32h32v32zM0 224h96v-96H0v96zm32-64h32v32H32v-32zm192-32h-96v96h96v-96zm-32 64h-32v-32h32v32zM0 352h96v-96H0v96zm32-64h32v32H32v-32zm434.704 6.512l-9.184 30.656 22.48 6.736v94.768l-48 64V512h32v-10.672l48-64V308.096z" data-original="#000000" class="active-path" data-old_color="#000000" fill="#FFF"/><path d="M352 176c0-26.51-21.49-48-48-48s-48 21.49-48 48v179.808l-27.776-33.328c-18.694-22.432-52.032-25.462-74.464-6.768-22.432 18.694-25.462 52.032-6.768 74.464L240 501.792V512h32v-21.792L171.568 369.696a20.606 20.606 0 01-4.8-13.36 20.799 20.799 0 017.28-15.84c8.939-7.27 22.026-6.175 29.632 2.48l27.776 33.328a31.791 31.791 0 0024.432 11.536c17.7.009 32.073-14.3 32.144-32V176c0-8.837 7.163-16 16-16s16 7.163 16 16v107.904l45.568 13.68 9.2-30.656-22.8-6.832V176zm44.219 130.681l9.2-30.65 30.65 9.2-9.2 30.65z" data-original="#000000" class="active-path" data-old_color="#000000" fill="#FFF"/></svg>