<svg xmlns="http://www.w3.org/2000/svg" height="512" width="512"><path d="M170 226c0-33.084-26.916-60-60-60s-60 26.916-60 60 26.916 60 60 60 60-26.916 60-60zm-60 40c-22.056 0-40-17.944-40-40s17.944-40 40-40 40 17.944 40 40-17.944 40-40 40z" data-original="#000000" class="active-path" data-old_color="#000000" fill="#04458F"/><path d="M502 196H352c-5.522 0-10 4.477-10 10v10H230.284c-3.674 0-7.244.663-10.582 1.92C215.551 161.024 167.937 116 110 116 49.346 116 0 165.346 0 226c0 49.65 33.068 91.716 78.335 105.347C62.299 344.186 52 363.908 52 386c0 5.523 4.477 10 10 10h183.432c13.355 0 25.911-5.201 35.356-14.645L326.143 336H342v10c0 5.523 4.478 10 10 10h150c5.522 0 10-4.477 10-10V206c0-5.523-4.478-10-10-10zM110 316c-49.626 0-90-40.374-90-90s40.374-90 90-90 90 40.374 90 90c0 2.752-.141 5.518-.388 8.245l-44.683 44.683c-10.026 10.026-13.307 24.272-9.865 37.071H122c-2.954 0-5.859.205-8.718.562A9.994 9.994 0 00110 316zm212 0a10.003 10.003 0 00-7.071 2.929l-48.284 48.284c-5.666 5.667-13.2 8.787-21.213 8.787H73.004c4.646-22.794 24.85-40 48.996-40h36.227c6.938 5.505 15.353 8.266 23.773 8.266 9.804 0 19.607-3.731 27.071-11.195l40-40c3.905-3.905 3.905-10.237 0-14.143-3.905-3.904-10.237-3.904-14.143 0l-40 40c-3.453 3.454-8.045 5.355-12.929 5.355s-9.476-1.902-12.929-5.355c-7.129-7.129-7.129-18.729 0-25.857l54.142-54.142a9.934 9.934 0 017.071-2.929H342v80zm40-100h30v120h-30zm130 120h-80V216h80z" data-original="#000000" class="active-path" data-old_color="#000000" fill="#04458F"/></svg>