<svg fill="#0C104E" xmlns="http://www.w3.org/2000/svg" width="491.2" height="491.2"><path d="M433.838 64.469h-101.15c-3.598 20.292-15.401 37.588-31.753 48.839h132.902c4.708 0 8.537 3.829 8.537 8.519v310.469c0 4.697-3.829 8.518-8.537 8.518H57.362c-4.708 0-8.537-3.819-8.537-8.518v-310.47c0-4.69 3.829-8.519 8.537-8.519h102.721c1.371-4.07 3.072-8.036 5.49-11.706l20.053-30.368c-.625-2.222-.984-4.503-1.377-6.766H57.362C25.736 64.467 0 90.204 0 121.824v310.468c0 31.629 25.736 57.356 57.362 57.356h376.476c31.624 0 57.362-25.729 57.362-57.356V121.826c0-31.62-25.738-57.357-57.362-57.357z"/><path d="M192.719 176.656c-7.13-5.481-17.335-4.088-22.823 3.023l-48.144 62.911-22.072-15.297c-7.388-5.126-17.526-3.283-22.663 4.121-5.099 7.394-3.269 17.529 4.119 22.65l34.861 24.125a16.192 16.192 0 009.256 2.896c4.904 0 9.744-2.209 12.918-6.387l57.589-75.225c5.463-7.146 4.086-17.358-3.041-22.817zm192.751 47.181H217.61c-8.997 0-16.29 7.293-16.29 16.276 0 8.992 7.293 16.276 16.29 16.276h167.86c8.994 0 16.254-7.284 16.254-16.276-.001-8.982-7.26-16.276-16.254-16.276zM169.895 298.48l-48.144 62.912-22.072-15.298c-7.388-5.137-17.526-3.27-22.663 4.12-5.099 7.394-3.269 17.536 4.119 22.655l34.861 24.121a16.134 16.134 0 009.256 2.891c4.904 0 9.744-2.209 12.918-6.375l57.589-75.235c5.464-7.144 4.087-17.354-3.041-22.816-7.129-5.47-17.334-4.095-22.823 3.025zm215.575 44.159H217.61c-8.997 0-16.29 7.289-16.29 16.276 0 8.992 7.293 16.285 16.29 16.285h167.86c8.994 0 16.254-7.293 16.254-16.285-.001-8.987-7.26-16.276-16.254-16.276zM197.753 143.402c2.915 1.939 6.184 2.854 9.488 2.854 5.592 0 11.086-2.723 14.387-7.741l16.646-25.208 10.172-15.375a49.076 49.076 0 0010.009 1.042c26.879 0 48.689-21.813 48.689-48.711S285.333 1.552 258.455 1.552c-26.917 0-48.73 21.813-48.73 48.711 0 10.899 3.697 20.852 9.746 28.96l-26.619 40.315c-5.234 7.929-3.043 18.623 4.901 23.864z"/></svg>