<?xml version="1.0" encoding="iso-8859-1"?>
<!-- Generator: Adobe Illustrator 16.0.0, SVG Export Plug-In . SVG Version: 6.00 Build 0)  -->
<!DOCTYPE svg PUBLIC "-//W3C//DTD SVG 1.1//EN" "http://www.w3.org/Graphics/SVG/1.1/DTD/svg11.dtd">
<svg fill="#0C104E" version="1.1" id="Capa_1" xmlns="http://www.w3.org/2000/svg" xmlns:xlink="http://www.w3.org/1999/xlink" x="0px" y="0px"
	 width="491.2px" height="491.2px" viewBox="0 0 491.2 491.2" style="enable-background:new 0 0 491.2 491.2;" xml:space="preserve"
	>
<g>
	<g>
		<g>
			<path d="M433.838,64.469h-101.15c-3.598,20.292-15.401,37.588-31.753,48.839h132.902c4.708,0,8.537,3.829,8.537,8.519v310.469
				c0,4.697-3.829,8.518-8.537,8.518H57.362c-4.708,0-8.537-3.819-8.537-8.518v-310.47c0-4.69,3.829-8.519,8.537-8.519h102.721
				c1.371-4.07,3.072-8.036,5.49-11.706l20.053-30.368c-0.625-2.222-0.984-4.503-1.377-6.766H57.362
				C25.736,64.467,0,90.204,0,121.824v310.468c0,31.629,25.736,57.356,57.362,57.356h376.476c31.624,0,57.362-25.729,57.362-57.356
				V121.826C491.2,90.206,465.462,64.469,433.838,64.469z"/>
			<path d="M192.719,176.656c-7.13-5.481-17.335-4.088-22.823,3.023l-48.144,62.911L99.68,227.293
				c-7.388-5.126-17.526-3.283-22.663,4.121c-5.099,7.394-3.269,17.529,4.119,22.65l34.861,24.125
				c2.814,1.954,6.052,2.896,9.256,2.896c4.904,0,9.744-2.209,12.918-6.387l57.589-75.225
				C201.223,192.327,199.846,182.115,192.719,176.656z"/>
			<path d="M385.47,223.837H217.61c-8.997,0-16.29,7.293-16.29,16.276c0,8.992,7.293,16.276,16.29,16.276h167.86
				c8.994,0,16.254-7.284,16.254-16.276C401.723,231.131,394.464,223.837,385.47,223.837z"/>
			<path d="M169.895,298.48l-48.144,62.912l-22.072-15.298c-7.388-5.137-17.526-3.27-22.663,4.12
				c-5.099,7.394-3.269,17.536,4.119,22.655l34.861,24.121c2.814,1.961,6.052,2.891,9.256,2.891c4.904,0,9.744-2.209,12.918-6.375
				l57.589-75.235c5.464-7.144,4.087-17.354-3.041-22.816C185.589,289.985,175.384,291.36,169.895,298.48z"/>
			<path d="M385.47,342.639H217.61c-8.997,0-16.29,7.289-16.29,16.276c0,8.992,7.293,16.285,16.29,16.285h167.86
				c8.994,0,16.254-7.293,16.254-16.285C401.723,349.928,394.464,342.639,385.47,342.639z"/>
			<path d="M197.753,143.402c2.915,1.939,6.184,2.854,9.488,2.854c5.592,0,11.086-2.723,14.387-7.741l16.646-25.208l10.172-15.375
				c3.204,0.669,6.572,1.042,10.009,1.042c26.879,0,48.689-21.813,48.689-48.711S285.333,1.552,258.455,1.552
				c-26.917,0-48.73,21.813-48.73,48.711c0,10.899,3.697,20.852,9.746,28.96l-26.619,40.315
				C187.618,127.467,189.809,138.161,197.753,143.402z"/>
		</g>
	</g>
</g>
<g>
</g>
<g>
</g>
<g>
</g>
<g>
</g>
<g>
</g>
<g>
</g>
<g>
</g>
<g>
</g>
<g>
</g>
<g>
</g>
<g>
</g>
<g>
</g>
<g>
</g>
<g>
</g>
<g>
</g>
</svg>
