<?xml version="1.0"?>
<svg xmlns="http://www.w3.org/2000/svg" id="Layer_5" enable-background="new 0 0 64 64" height="512px" viewBox="0 0 64 64" width="512px" class=""><g><path d="m63 32v-10c0-4.379-3.145-8.033-7.294-8.833 1.405-1.281 2.294-3.12 2.294-5.167 0-3.859-3.141-7-7-7s-7 3.141-7 7c0 1.958.81 3.728 2.111 5h-13.611c-1.434 0-2.667.869-3.207 2.107l-8.37 5.151c-.789.485-1.695.742-2.621.742h-.412c1.3-1.272 2.11-3.042 2.11-5 0-3.859-3.141-7-7-7s-7 3.141-7 7c0 2.236 1.058 4.226 2.696 5.509-4.456 1.406-7.696 5.577-7.696 10.491v7c0 2.206 1.794 4 4 4h1v14c-2.757 0-5 2.243-5 5v1h24v-1c0-2.757-2.243-5-5-5v-24.736c0-1.703.854-3.272 2.283-4.197l12.467-8.067h8.25c.552 0 1 .448 1 1l.002 32h-.002c-2.757 0-5 2.243-5 5v5h24v-5c0-2.757-2.243-5-5-5v-16c2.757 0 5-2.243 5-5zm-17-24c0-2.757 2.243-5 5-5s5 2.243 5 5-2.243 5-5 5-5-2.243-5-5zm-38 8c0-2.757 2.243-5 5-5s5 2.243 5 5-2.243 5-5 5-5-2.243-5-5zm14.829 45h-19.658c.413-1.164 1.525-2 2.829-2h14c1.304 0 2.416.836 2.829 2zm-1.632-34.613c-2.002 1.296-3.197 3.493-3.197 5.877v24.736h-4v-18h-2v18h-4v-27h-2v11h-1c-1.103 0-2-.897-2-2v-7c0-4.963 4.037-9 9-9h1 5.302c1.295 0 2.563-.358 3.669-1.038l7.202-4.432c.332 1.067 1.152 1.909 2.206 2.269zm39.803 31.613v3h-20v-3c0-1.654 1.346-3 3-3h14c1.654 0 3 1.346 3 3zm-5-38v33h-4v-23h-2v23h-3.998l-.002-32c0-1.654-1.346-3-3-3h-10.5c-.827 0-1.5-.673-1.5-1.5s.673-1.5 1.5-1.5h21.5c3.859 0 7 3.141 7 7v10c0 1.654-1.346 3-3 3v-15z" data-original="#000000" class="active-path" data-old_color="#000000" fill="#BDBDBD"/><path d="m33 6c0-2.757-2.243-5-5-5h-4c-2.757 0-5 2.243-5 5v5h9c2.757 0 5-2.243 5-5zm-12 0c0-1.654 1.346-3 3-3h4c1.654 0 3 1.346 3 3s-1.346 3-3 3h-7z" data-original="#000000" class="active-path" data-old_color="#000000" fill="#BDBDBD"/><path d="m23 5h2v2h-2z" data-original="#000000" class="active-path" data-old_color="#000000" fill="#BDBDBD"/><path d="m27 5h2v2h-2z" data-original="#000000" class="active-path" data-old_color="#000000" fill="#BDBDBD"/><path d="m42 29v-5h-9c-2.757 0-5 2.243-5 5s2.243 5 5 5h4c2.757 0 5-2.243 5-5zm-2 0c0 1.654-1.346 3-3 3h-4c-1.654 0-3-1.346-3-3s1.346-3 3-3h7z" data-original="#000000" class="active-path" data-old_color="#000000" fill="#BDBDBD"/><path d="m36 28h2v2h-2z" data-original="#000000" class="active-path" data-old_color="#000000" fill="#BDBDBD"/><path d="m32 28h2v2h-2z" data-original="#000000" class="active-path" data-old_color="#000000" fill="#BDBDBD"/></g> </svg>
