<svg xmlns="http://www.w3.org/2000/svg" height="512" viewBox="0 0 64 64" width="512"><path d="M63 32V22c0-4.379-3.145-8.033-7.294-8.833A6.977 6.977 0 0058 8c0-3.859-3.141-7-7-7s-7 3.141-7 7c0 1.958.81 3.728 2.111 5H32.5a3.503 3.503 0 00-3.207 2.107l-8.37 5.151a5.002 5.002 0 01-2.621.742h-.412A6.977 6.977 0 0020 16c0-3.859-3.141-7-7-7s-7 3.141-7 7a6.987 6.987 0 002.696 5.509C4.24 22.915 1 27.086 1 32v7c0 2.206 1.794 4 4 4h1v14c-2.757 0-5 2.243-5 5v1h24v-1c0-2.757-2.243-5-5-5V32.264c0-1.703.854-3.272 2.283-4.197L34.75 20H43a1 1 0 011 1l.002 32H44c-2.757 0-5 2.243-5 5v5h24v-5c0-2.757-2.243-5-5-5V37c2.757 0 5-2.243 5-5zM46 8c0-2.757 2.243-5 5-5s5 2.243 5 5-2.243 5-5 5-5-2.243-5-5zM8 16c0-2.757 2.243-5 5-5s5 2.243 5 5-2.243 5-5 5-5-2.243-5-5zm14.829 45H3.171A3.006 3.006 0 016 59h14c1.304 0 2.416.836 2.829 2zm-1.632-34.613A6.975 6.975 0 0018 32.264V57h-4V39h-2v18H8V30H6v11H5c-1.103 0-2-.897-2-2v-7c0-4.963 4.037-9 9-9h6.302a7 7 0 003.669-1.038l7.202-4.432a3.493 3.493 0 002.206 2.269zM61 58v3H41v-3c0-1.654 1.346-3 3-3h14c1.654 0 3 1.346 3 3zm-5-38v33h-4V30h-2v23h-3.998L46 21c0-1.654-1.346-3-3-3H32.5c-.827 0-1.5-.673-1.5-1.5s.673-1.5 1.5-1.5H54c3.859 0 7 3.141 7 7v10c0 1.654-1.346 3-3 3V20z" data-original="#000000" class="active-path" data-old_color="#000000" fill="#BDBDBD"/><path d="M33 6c0-2.757-2.243-5-5-5h-4c-2.757 0-5 2.243-5 5v5h9c2.757 0 5-2.243 5-5zM21 6c0-1.654 1.346-3 3-3h4c1.654 0 3 1.346 3 3s-1.346 3-3 3h-7z" data-original="#000000" class="active-path" data-old_color="#000000" fill="#BDBDBD"/><path d="M23 5h2v2h-2zm4 0h2v2h-2zm15 24v-5h-9c-2.757 0-5 2.243-5 5s2.243 5 5 5h4c2.757 0 5-2.243 5-5zm-2 0c0 1.654-1.346 3-3 3h-4c-1.654 0-3-1.346-3-3s1.346-3 3-3h7z" data-original="#000000" class="active-path" data-old_color="#000000" fill="#BDBDBD"/><path d="M36 28h2v2h-2zm-4 0h2v2h-2z" data-original="#000000" class="active-path" data-old_color="#000000" fill="#BDBDBD"/></svg>