<svg width="2288" height="1730" viewBox="0 0 2288 1730" fill="none" xmlns="http://www.w3.org/2000/svg">
<path d="M1660.26 1348.58H519.433V543.634C519.433 521.569 537.328 503.676 559.4 503.676H1620.29C1642.37 503.676 1660.26 521.569 1660.26 543.634V751.619H1617.91V545.064H559.762V1195.01H1617.91V1127.25H1660.26V1348.58Z" fill="url(#paint0_linear)"/>
<path d="M1617.91 1195.01H559.762V545.063H1617.91V751.618H1280.56C1271.21 751.618 1263.63 759.198 1263.63 768.549V1110.32C1263.63 1119.67 1271.21 1127.25 1280.56 1127.25H1617.91V1195.01" fill="url(#paint1_linear)"/>
<path d="M184.413 544.04H443.865C438.807 518.711 416.056 499.895 390.002 499.895C384.083 499.895 378.262 500.831 372.697 502.683L371.276 503.151L370.419 501.928C356.025 481.504 332.553 469.314 307.617 469.314C278.416 469.314 252.126 485.528 239.014 511.634L238.293 513.064L236.736 512.684C233.383 511.853 229.919 511.435 226.439 511.435C206.552 511.435 189.26 525.005 184.413 544.04V544.04ZM448.611 548.064H179.456L179.925 545.669C184.244 523.503 203.81 507.411 226.439 507.411C229.708 507.411 232.961 507.749 236.141 508.419C250.164 481.774 277.408 465.29 307.617 465.29C333.363 465.29 357.633 477.641 372.845 498.41C378.388 496.723 384.155 495.871 390.002 495.871C419.287 495.871 443.789 516.847 448.252 545.745L448.611 548.064" fill="#6AAFE8"/>
<path d="M1357.43 74.4979C1356.22 87.2911 1352.2 168.348 1437.1 212.283C1522.01 168.348 1517.98 87.2911 1516.77 74.4979C1464.04 74.1689 1442.58 59.486 1437.1 54.8251C1431.62 59.486 1410.15 74.1689 1357.43 74.4979ZM1437.1 216.805L1436.19 216.336C1340.67 167.576 1353.5 73.148 1353.64 72.199L1353.89 70.478H1355.62C1416.36 70.478 1435.44 50.9107 1435.63 50.7166L1437.11 49.1433L1438.58 50.721C1438.76 50.9108 1457.85 70.478 1518.57 70.478H1520.31L1520.56 72.199C1520.7 73.148 1533.53 167.576 1438.01 216.336L1437.1 216.805" fill="#6AAFE8"/>
<path d="M1959.75 1471.79C1945.37 1406.1 1976.44 1389.7 2006.48 1373.86C2031.03 1360.89 2054.22 1348.66 2052.98 1309.94C2051.35 1258.62 2086.31 1239.95 2117.16 1223.48C2140.12 1211.22 2161.79 1199.64 2165.02 1176.29C2172.81 1120.1 2224.65 1050.25 2225.16 1049.56L2228.39 1051.97C2227.87 1052.65 2176.65 1121.68 2169.01 1176.85C2165.5 1202.22 2142.94 1214.27 2119.06 1227.02C2087.78 1243.72 2055.44 1260.99 2057 1309.82C2058.32 1351.04 2032.92 1364.45 2008.35 1377.41C1978.32 1393.25 1949.95 1408.22 1963.68 1470.93L1959.75 1471.79" fill="url(#paint2_linear)"/>
<path d="M1937.52 1422.81C1950.59 1440.91 1962.46 1450.13 1973.75 1450.97C1989.54 1452.13 2003.93 1437.14 2020.6 1419.79C2042.07 1397.43 2066.4 1372.09 2103.19 1368.91C2147.37 1365.09 2151.3 1325.41 2155.11 1287.04C2158.51 1252.75 2161.71 1220.35 2193.14 1215.8C2222.75 1211.51 2241.81 1201.57 2249.78 1186.25C2256.43 1173.48 2255.04 1156.99 2245.75 1138.57C2236.96 1121.12 2249.65 1096.55 2263.08 1070.54C2277.65 1042.33 2292.72 1013.15 2277.62 995.165C2275.34 992.457 2272.59 991.082 2269.19 990.955C2252.13 990.39 2223.19 1020.16 2192.57 1051.73C2157.07 1088.33 2120.37 1126.15 2093.52 1126.15L2092.49 1126.13C2068.22 1125.23 2059.82 1153.53 2050.09 1186.28C2039.41 1222.28 2027.3 1263.09 1989.86 1272C1959.99 1279.12 1946.92 1283.09 1943.3 1289.23C1940.75 1293.56 1942.51 1299.83 1945.42 1310.21C1947.56 1317.85 1950.23 1327.36 1952.24 1339.88C1960.09 1388.79 1942.07 1416.69 1937.52 1422.81V1422.81ZM1975.53 1455.05C1974.84 1455.05 1974.15 1455.02 1973.45 1454.97C1960.46 1454.01 1947.73 1444.14 1933.37 1423.92L1932.47 1422.65L1933.48 1421.46C1933.71 1421.17 1956.72 1393.15 1948.27 1340.51C1946.3 1328.23 1943.67 1318.84 1941.55 1311.29C1938.46 1300.27 1936.42 1293 1939.84 1287.19C1944.18 1279.82 1955.9 1275.96 1988.93 1268.09C2024.11 1259.72 2035.86 1220.09 2046.24 1185.13C2056.02 1152.21 2065.27 1121.15 2092.64 1122.11C2117.79 1123.08 2155.98 1083.67 2189.68 1048.94C2220.95 1016.71 2250.46 986.341 2269.33 986.94C2273.86 987.104 2277.69 989.002 2280.69 992.583C2297.52 1012.61 2281.82 1043.01 2266.65 1072.39C2253.7 1097.46 2241.47 1121.14 2249.34 1136.76C2259.23 1156.38 2260.62 1174.14 2253.34 1188.1C2244.74 1204.63 2224.68 1215.29 2193.72 1219.77C2165.4 1223.88 2162.35 1254.75 2159.11 1287.43C2155.33 1325.58 2151.04 1368.8 2103.53 1372.92C2068.26 1375.97 2044.48 1400.73 2023.5 1422.57C2006.81 1439.95 1992.31 1455.05 1975.53 1455.05" fill="url(#paint3_linear)"/>
<path d="M1893.25 897.165C1890.1 897.165 1887.74 897.904 1885.99 899.393C1878.59 905.686 1879.16 927.143 1880.21 966.1C1880.56 979.024 1880.95 993.673 1881.14 1010.63C1881.59 1049.13 1893.21 1073.69 1901.69 1091.63C1913.36 1116.34 1920.41 1131.24 1882.28 1153.21C1867.33 1161.83 1858.68 1171.74 1855.85 1183.52C1850.35 1206.38 1868.02 1233.61 1885.12 1259.94C1891.75 1270.17 1898.62 1280.73 1904.06 1290.96C1911.12 1304.22 1918.27 1324.58 1925.83 1346.13C1940.54 1388.03 1957.22 1435.51 1975.95 1437.22C1983.1 1437.85 1990.62 1431.38 1998.3 1417.94C2016.31 1386.44 2015.28 1359.22 2014.1 1327.69C2012.52 1285.55 2010.73 1237.78 2055.35 1167.27C2073.27 1138.94 2079.48 1116.62 2074.33 1099.04C2068.02 1077.53 2045.82 1067.17 2026.24 1058.03C2011.73 1051.27 1999.2 1045.42 1996.66 1036.06C1995.41 1031.43 1996.67 1026.47 2000.53 1020.88C2012.67 1003.3 2016.7 990.054 2012.83 980.391C2007.27 966.459 1984.65 960.001 1963.25 955.526C1936.31 949.882 1927.13 932.749 1919.76 918.989C1914.23 908.685 1909.47 899.789 1898.78 897.76C1896.71 897.364 1894.87 897.165 1893.25 897.165V897.165ZM1976.99 1441.28C1976.53 1441.28 1976.05 1441.26 1975.58 1441.22C1954.28 1439.28 1937.89 1392.6 1922.05 1347.47C1914.53 1326.06 1907.43 1305.83 1900.51 1292.85C1895.15 1282.78 1888.34 1272.28 1881.74 1262.12C1864.19 1235.08 1846.04 1207.12 1851.95 1182.58C1855.05 1169.67 1864.31 1158.93 1880.27 1149.74C1915.19 1129.61 1909.82 1118.25 1898.05 1093.35C1889.41 1075.08 1877.58 1050.06 1877.12 1010.68C1876.93 993.749 1876.54 979.117 1876.19 966.206C1875.08 924.701 1874.52 903.872 1883.38 896.334C1887.05 893.213 1892.19 892.412 1899.54 893.808C1912.11 896.199 1917.54 906.352 1923.3 917.091C1930.64 930.8 1938.96 946.33 1964.08 951.586C1987.65 956.517 2010.32 963.24 2016.57 978.902C2020.97 989.911 2016.81 1004.39 2003.84 1023.17C2000.69 1027.72 1999.61 1031.59 2000.54 1035.01C2002.6 1042.57 2014.34 1048.04 2027.94 1054.39C2047.28 1063.42 2071.37 1074.65 2078.19 1097.92C2083.69 1116.67 2077.32 1140.06 2058.75 1169.42C2014.79 1238.88 2016.56 1285.99 2018.12 1327.54C2019.28 1358.34 2020.36 1387.43 2001.79 1419.93C1993.59 1434.28 1985.46 1441.28 1976.99 1441.28" fill="url(#paint4_linear)"/>
<path d="M1977.42 1466.2L1973.58 1464.98C1995.06 1397.1 1956.2 1244.78 1944.63 1207.71C1938.93 1189.49 1944.19 1162.04 1949.29 1135.51C1955.86 1101.24 1962.66 1065.79 1945.32 1052.51C1912.77 1027.56 1914.49 969.838 1914.58 967.391L1918.59 967.543C1918.57 968.117 1916.87 1025.64 1947.77 1049.32C1967.08 1064.11 1960.04 1100.79 1953.23 1136.26C1948.24 1162.31 1943.07 1189.25 1948.46 1206.51C1962.79 1252.36 1998.85 1398.47 1977.42 1466.2" fill="url(#paint5_linear)"/>
<path d="M1948.63 1450.48C1932.92 1450.48 1918.35 1395.11 1898.4 1369.73C1874.86 1339.77 1865.23 1292.69 1837.4 1258.46C1809.59 1224.23 1731.48 1213.53 1765.72 1158.97C1773.28 1146.92 1778.07 1135.87 1780.92 1125.61C1786.63 1122.89 1790.58 1117.06 1790.58 1110.32V1011C1791.82 1010.77 1793.08 1010.65 1794.35 1010.65C1802.62 1010.65 1811.13 1015.58 1814.94 1025.23C1842.76 1095.84 1897.09 1083.91 1890.85 1114.79C1876.7 1184.76 1919.8 1194.27 1962.66 1225.3C2005.52 1256.32 1962.66 1286.8 1960.52 1334.94C1958.38 1383.09 1976.51 1417.87 1957.25 1444.62C1954.31 1448.69 1951.45 1450.48 1948.63 1450.48" fill="url(#paint6_linear)"/>
<path d="M1988.43 1450.81C1988.19 1449.39 1964.4 1308.36 1911.12 1269.71C1856.8 1230.31 1846.93 1193.9 1827.95 1108.05L1831.88 1107.18C1850.62 1191.97 1860.35 1227.92 1913.48 1266.47C1968.1 1306.08 1991.43 1444.29 1992.4 1450.15L1988.43 1450.81Z" fill="white"/>
<path d="M1940.36 1445.76C1940.36 1445.76 1956.19 1406.61 1927.38 1350.98C1898.57 1295.33 1875.25 1303.9 1944.7 1261.09C2014.15 1218.29 1945.14 1083.47 2004.26 1066.36C2063.38 1049.23 2114.74 831.021 2159.69 858.809C2204.64 886.593 2144.71 993.595 2176.81 1025.69C2208.92 1057.8 2213.2 1098.64 2146.85 1131.71C2080.5 1164.79 2193.94 1291.06 2104.04 1329.58C2014.15 1368.09 2039.93 1519.14 1940.36 1445.76" fill="url(#paint7_linear)"/>
<path d="M1967.82 1487.27C1967.72 1486.77 1958.06 1436.65 1988.59 1371.9C2019.71 1305.92 2034.6 1233.8 2028.43 1178.97C2025.09 1149.27 2044.11 1137.66 2062.52 1126.43C2080.63 1115.37 2099.36 1103.93 2098.33 1074.68C2097.4 1048.25 2108.58 986.287 2109.06 983.663L2113.02 984.385C2112.9 985.022 2101.42 1048.54 2102.35 1074.54C2103.46 1106.14 2083.71 1118.2 2064.61 1129.86C2046.49 1140.92 2029.37 1151.37 2032.43 1178.52C2038.67 1234.06 2023.65 1306.99 1992.23 1373.6C1962.3 1437.09 1971.66 1485.99 1971.76 1486.47L1967.82 1487.27" fill="white"/>
<path d="M2040.46 1210.72C2060.65 1191.97 2087.34 1189.27 2081.78 1217.08C2076.22 1244.88 2057.15 1252.83 2066.69 1270.31C2076.22 1287.79 2092.11 1305.27 2065.1 1326.73C2038.08 1348.18 2022.98 1350.56 2015.03 1391.09C2007.08 1431.61 2008.67 1459.28 1973.71 1461.01C1938.74 1462.74 1952.25 1411.74 1963.38 1388.7C1963.38 1388.7 1980.06 1362.41 1968.94 1327.88C1957.81 1293.35 1936.36 1274.71 1981.65 1262.98C2026.95 1251.24 2026.85 1223.36 2040.46 1210.72" fill="white"/>
<path d="M1976.23 1486.91C1976.12 1481.96 1973.72 1365.22 1995.56 1345.58C2017.86 1325.51 2022.14 1290.04 2022.71 1270.7C2023.46 1245.48 2056.03 1230.51 2057.43 1229.89L2059.07 1233.55C2058.76 1233.69 2027.4 1248.11 2026.73 1270.81C2026.01 1295.23 2020.49 1328.55 1998.24 1348.56C1977.77 1366.99 1980.22 1485.63 1980.25 1486.83L1976.23 1486.91" fill="url(#paint8_linear)"/>
<path d="M2058.25 1439.27L2022.03 1576.68H1941.08L1904.86 1439.27H2058.25" fill="url(#paint9_linear)"/>
<path d="M2058.25 1439.27C2058.25 1439.27 1978.51 1454.24 1978.51 1576.68H1941.08L1904.86 1439.27H2058.25" fill="url(#paint10_linear)"/>
<path d="M631.204 1092.27H524.592V1080.2H631.204V1092.27Z" fill="#1487E3"/>
<path d="M502.338 747.188H332.182V529.615H336.202V743.168H502.338V747.188" fill="#78C2FF"/>
<path d="M1222.57 603.828H1218.55V379.477H1435.09V190.797H1439.11V383.497H1222.57V603.828Z" fill="#78C2FF"/>
<path d="M1922.11 853.744H1696.8V849.72H1918.08V718.916H1922.11V853.744Z" fill="#78C2FF"/>
<path d="M237.685 1035.53C237.685 1035.53 232.863 1103.21 246.085 1111.31C254.37 1116.39 287.406 1133.5 286.427 1136.72C285.448 1139.93 267.772 1165.27 267.772 1165.27C267.772 1165.27 204.316 1123.49 202.27 1110.32C200.271 1097.46 205.392 1011.22 214.116 1007.25C220.651 1004.27 224.097 1006.73 232.336 1012.85C243.887 1021.42 237.685 1035.53 237.685 1035.53" fill="#FF7E55"/>
<path d="M230.307 1528.08C230.307 1528.08 228.333 1541.78 228.092 1543.83C227.843 1545.89 206.139 1542.62 206.139 1542.62L204.38 1526.32C204.38 1526.32 227.599 1526.15 230.307 1528.08Z" fill="#424773"/>
<path d="M228.325 1542.09C228.325 1542.09 235.192 1550.35 241.849 1553.95C248.502 1557.54 258.947 1558.96 262.887 1562.69C265.722 1565.38 273.227 1576.95 245.6 1576.71C217.972 1576.48 204.658 1578.35 201.701 1573.91C198.74 1569.48 205.983 1541.17 205.983 1541.17C205.983 1541.17 212.522 1543.52 228.325 1542.09Z" fill="#292C47"/>
<path d="M338.936 1528.08C338.936 1528.08 336.957 1541.78 336.713 1543.83C336.464 1545.89 314.763 1542.62 314.763 1542.62L313.009 1526.32C313.009 1526.32 336.228 1526.15 338.936 1528.08Z" fill="#424773"/>
<path d="M336.949 1542.09C336.949 1542.09 343.821 1550.35 350.474 1553.94C357.126 1557.54 381.603 1560.5 385.534 1564.22C388.373 1566.91 393.094 1577.73 354.228 1576.71C326.609 1575.99 313.287 1578.35 310.321 1573.91C307.364 1569.48 314.607 1541.17 314.607 1541.17C314.607 1541.17 320.771 1543.68 336.949 1542.09Z" fill="#292C47"/>
<path d="M238.095 1176.18C238.095 1176.18 217.702 1208.59 219.221 1237.87C220.744 1267.16 217.407 1298.44 214.34 1329.03C210.927 1363.14 201.621 1434.11 201.114 1452.35C200.604 1470.6 201.781 1539.25 201.781 1539.25L237.154 1538.98C237.154 1538.98 249.713 1400.3 255.8 1385.9C261.883 1371.49 286.862 1267.31 287.878 1255.79C288.891 1244.27 238.095 1176.18 238.095 1176.18Z" fill="#292C47"/>
<path d="M345.454 1180.57C345.454 1180.57 353.511 1260.19 355.54 1278.12C357.565 1296.04 356.182 1373.7 357.19 1384.91C358.211 1396.11 350.415 1514.6 348.495 1537.16L309.613 1536.91C309.613 1536.91 306.93 1441.07 306.93 1394.5C306.93 1347.93 294.978 1293.72 281.285 1262.99C267.591 1232.26 236.247 1231.54 227.831 1174.53C227.831 1174.53 334.059 1162.5 345.454 1180.57" fill="#292C47"/>
<path d="M259.639 903.033C259.639 903.033 283.938 886.802 301.002 904.188C318.067 921.571 326.453 962.447 314.202 970.609C301.947 978.767 281.158 980.905 271.291 969.833C261.424 958.769 250.89 941.885 248.304 929.56C245.709 917.226 253.476 908.221 259.639 903.033" fill="#EEA886"/>
<path d="M305.938 973.355C305.938 973.355 305.622 990.434 307.503 994.074C309.389 997.714 272.042 997.807 272.042 997.807C272.042 997.807 269.008 978.007 263.258 961.279C257.509 944.546 305.938 973.355 305.938 973.355" fill="#EEA886"/>
<path d="M264.195 961.008C264.195 961.008 267.68 964.555 277.543 960.535C287.406 956.516 296.687 939.947 300.606 937.45C304.537 934.945 303.981 932.422 303.981 932.422L307.583 935.704L312.19 934.915C312.19 934.915 305.174 923.708 310.254 917.267C315.333 910.822 294.472 879.343 264.33 898.564C264.33 898.564 240.744 911.463 245.038 925.589C249.341 939.719 256.863 955.195 264.195 961.008" fill="#754836"/>
<path d="M309.718 993.638C309.718 993.638 309.604 986.686 306.448 986.016C303.297 985.349 271.645 982.304 267.772 983.831V991.929C267.772 991.929 275.235 996.519 309.718 993.638Z" fill="#E2D2CA"/>
<path d="M302.074 927.363C300.935 925.089 293.19 919.656 292.582 927.569C291.975 935.486 300.197 943.998 303.276 942.383C306.36 940.763 304.968 933.116 302.074 927.363" fill="#EEA886"/>
<path d="M252.615 907.209C252.615 907.209 217.862 916.527 262.786 959.66L252.615 907.209Z" fill="#754836"/>
<path d="M563.107 1091.96L527.692 1091.63C530.751 1089.85 535.691 1086.65 534.598 1085.19C533.037 1083.12 523.01 1087.68 518.934 1088.1C515.197 1088.48 508.932 1088 504.178 1089.73L492.994 1094.5L503.246 1103.98C503.246 1103.98 521.769 1106.64 527.19 1107.02C536.007 1107.64 562.985 1097.14 563.428 1095.55C564.234 1092.68 563.107 1091.96 563.107 1091.96" fill="#EEA886"/>
<path d="M355.949 1003.28C333.426 999.319 309.718 993.638 309.718 993.638L267.772 991.925C267.772 991.925 229.278 1000.4 214.116 1007.25C212.677 1007.9 212.677 1041.59 208.725 1050.42L221.296 1076.93C221.296 1076.93 228.556 1129.46 230.062 1152.81C230.754 1163.54 215.09 1253.37 215.09 1253.37C215.09 1253.37 231.872 1258.31 260.504 1261.46C289.131 1264.62 360.661 1260.32 361.109 1256.95C361.564 1253.56 347.259 1131.06 346.622 1124.72C345.652 1114.98 349.436 1069.99 349.436 1069.99C354.831 1077.23 386.015 1104.41 401.24 1113.04C412.069 1119.18 438.634 1115.43 446.459 1114.64C463.393 1112.9 510.177 1109.55 511.092 1107.89C511.822 1106.9 508.401 1089.84 506.443 1089.18C504.73 1088.61 444.337 1085.63 429.188 1086.41C423.042 1086.74 402.991 1064.35 402.991 1064.35C402.991 1064.35 368.377 1008.86 355.949 1003.28" fill="#FF7E55"/>
<path d="M97.9917 833.747H208.864V931.014L191.939 914.095H97.9917V833.747Z" fill="#FFCB55"/>
<path d="M1779.31 574.438H1879.84V473.914H1779.31V574.438ZM1883.43 578.031H1775.71V470.325H1883.43V578.031Z" fill="#6AAFE8"/>
<path d="M1908.56 506.229H2147.95V487.083H1908.56V506.229ZM2151.54 509.818H1904.98V483.49H2151.54V509.818Z" fill="#6AAFE8"/>
<path d="M1779.31 628.666H2147.95V609.521H1779.31V628.666ZM2151.54 632.256H1775.71V605.931H2151.54V632.256Z" fill="#6AAFE8"/>
<path d="M1779.31 679.229H2011.5V660.083H1779.31V679.229ZM2015.09 682.822H1775.71V656.489H2015.09V682.822" fill="#6AAFE8"/>
<path d="M1908.56 556.451H2068.35V537.306H1908.56V556.451ZM2071.94 560.045H1904.98V533.712H2071.94V560.045Z" fill="#6AAFE8"/>
<path d="M1736.52 736.485H2190.74V416.655H1736.52V736.485ZM2194.33 740.074H1732.93V413.065H2194.33V740.074Z" fill="#6AAFE8"/>
<path d="M1570.24 266.617H1535.72V262.593H1566.22V232.127H1570.24V266.617Z" fill="#6AAFE8"/>
<path d="M1338.1 266.617H1303.57V232.127H1307.6V262.593H1338.1V266.617" fill="#6AAFE8"/>
<path d="M1307.61 34.5195H1303.58V-0.000518703H1338.08V4.02347H1307.61V34.5195" fill="#6AAFE8"/>
<path d="M1570.24 34.5078H1566.22V4.04121H1535.72V0.0172266H1570.24V34.5078" fill="#6AAFE8"/>
<path d="M1570.24 180.586H1566.22V86.048H1570.24V180.586Z" fill="#6AAFE8"/>
<path d="M1307.6 180.586H1303.57V86.048H1307.6V180.586Z" fill="#6AAFE8"/>
<path d="M334.194 506.106C328.263 506.106 323.437 510.927 323.437 516.853C323.437 522.784 328.263 527.605 334.194 527.605C340.121 527.605 344.943 522.784 344.943 516.853C344.943 510.927 340.121 506.106 334.194 506.106ZM334.194 531.629C326.044 531.629 319.416 525.002 319.416 516.853C319.416 508.708 326.044 502.082 334.194 502.082C342.34 502.082 348.967 508.708 348.967 516.853C348.967 525.002 342.34 531.629 334.194 531.629Z" fill="#78C2FF"/>
<path d="M1437.1 167.279C1431.17 167.279 1426.35 172.101 1426.35 178.031C1426.35 183.957 1431.17 188.783 1437.1 188.783C1443.03 188.783 1447.85 183.957 1447.85 178.031C1447.85 172.101 1443.03 167.279 1437.1 167.279ZM1437.1 192.807C1428.95 192.807 1422.33 186.176 1422.33 178.031C1422.33 169.886 1428.95 163.26 1437.1 163.26C1445.24 163.26 1451.88 169.886 1451.88 178.031C1451.88 186.176 1445.24 192.807 1437.1 192.807Z" fill="#78C2FF"/>
<path d="M1920.1 696.096C1914.17 696.096 1909.34 700.921 1909.34 706.847C1909.34 712.774 1914.17 717.599 1920.1 717.599C1926.02 717.599 1930.85 712.774 1930.85 706.847C1930.85 700.921 1926.02 696.096 1920.1 696.096ZM1920.1 721.623C1911.95 721.623 1905.32 714.992 1905.32 706.847C1905.32 698.702 1911.95 692.072 1920.1 692.072C1928.24 692.072 1934.87 698.702 1934.87 706.847C1934.87 714.992 1928.24 721.623 1920.1 721.623Z" fill="#78C2FF"/>
<path d="M334.793 117.361H428.171V23.9955H334.793V117.361ZM432.196 121.381H330.773V19.9674H432.196V121.381Z" fill="#A1D4FF"/>
<path d="M383.493 94.8809H379.472V47.6139H383.493V94.8809Z" fill="#A1D4FF"/>
<path d="M405.117 73.2559H357.848V69.2319H405.117V73.2559Z" fill="#A1D4FF"/>
<path d="M1836.86 239.691H1973.79V144.255H1836.86V239.691ZM1977.82 243.715H1832.84V140.235H1977.82V243.715Z" fill="#A1D4FF"/>
<path d="M1905.33 202.91L1833.57 143.799L1836.14 140.695L1905.33 197.701L1974.53 140.695L1977.09 143.799L1905.33 202.91Z" fill="#A1D4FF"/>
<path d="M1974.35 243.088L1922.31 188.237L1925.24 185.466L1977.27 240.321L1974.35 243.088Z" fill="#A1D4FF"/>
<path d="M1836.31 243.088L1833.39 240.321L1885.42 185.466L1888.34 188.237L1836.31 243.088" fill="#A1D4FF"/>
<path d="M686.598 313.504C683.814 313.504 681.068 314.807 679.334 317.241C677.955 319.177 677.414 321.535 677.807 323.88C678.203 326.226 679.49 328.28 681.426 329.655C683.363 331.034 685.717 331.574 688.066 331.182C690.408 330.785 692.462 329.499 693.837 327.563C695.217 325.627 695.761 323.269 695.365 320.924C694.972 318.583 693.686 316.528 691.749 315.153C690.184 314.04 688.383 313.504 686.598 313.504V313.504ZM686.56 334.324C684.105 334.324 681.713 333.565 679.676 332.114C674.318 328.305 673.061 320.848 676.875 315.495C680.684 310.138 688.147 308.881 693.496 312.694C696.09 314.537 697.816 317.283 698.343 320.426C698.87 323.564 698.145 326.719 696.297 329.313C694.453 331.907 691.707 333.628 688.564 334.155C687.898 334.269 687.227 334.324 686.56 334.324V334.324ZM679.102 339.339L679.984 339.677C681.583 340.293 683.261 340.676 684.987 340.824L685.923 340.904L687.219 344.283L693.158 343.283L693.272 339.668L694.137 339.28C695.711 338.58 697.17 337.665 698.482 336.564L699.208 335.952L702.511 337.429L706 332.523L703.523 329.887L703.861 329.001C704.481 327.407 704.856 325.724 705.013 324.003L705.093 323.062L708.468 321.771L707.472 315.832L703.852 315.714L703.464 314.854C702.764 313.285 701.853 311.821 700.748 310.505L700.136 309.784L701.612 306.485L696.71 302.993L694.07 305.465L693.188 305.127C691.585 304.516 689.906 304.132 688.189 303.984L687.252 303.9L685.953 300.521L680.017 301.521L679.899 305.14L679.034 305.524C677.461 306.228 676.001 307.139 674.685 308.244L673.968 308.852L670.665 307.38L667.172 312.285L669.648 314.921L669.306 315.803C668.695 317.397 668.307 319.08 668.159 320.801L668.079 321.742L664.7 323.037L665.704 328.972L669.323 329.09L669.703 329.95C670.403 331.523 671.323 332.987 672.428 334.299L673.036 335.02L671.563 338.323L676.465 341.815L679.102 339.339ZM685.282 347.67L683.772 343.726C682.422 343.549 681.097 343.245 679.806 342.819L676.727 345.704L667.796 339.348L669.522 335.497C668.686 334.417 667.965 333.261 667.357 332.046L663.135 331.911L661.316 321.101L665.261 319.591C665.434 318.237 665.742 316.912 666.172 315.626L663.282 312.547L669.64 303.617L673.491 305.338C674.571 304.511 675.723 303.786 676.942 303.178L677.077 298.956L687.885 297.138L689.395 301.078C690.745 301.255 692.078 301.559 693.365 301.989L696.445 299.1L705.38 305.456L703.654 309.311C704.485 310.387 705.202 311.543 705.814 312.762L710.037 312.892L711.855 323.703L707.915 325.213C707.734 326.567 707.43 327.896 707 329.182L709.893 332.257L703.532 341.191L699.68 339.47C698.605 340.297 697.453 341.018 696.234 341.63L696.094 345.848L685.282 347.67" fill="#A1D4FF"/>
<path d="M603.614 281.644C596.734 281.644 589.942 284.858 585.66 290.881C582.247 295.673 580.91 301.502 581.884 307.297C582.863 313.089 586.036 318.159 590.824 321.567C600.712 328.602 614.481 326.283 621.518 316.396C624.923 311.612 626.264 305.779 625.289 299.983C624.311 294.188 621.138 289.122 616.346 285.714C612.482 282.964 608.027 281.644 603.614 281.644V281.644ZM603.551 329.657C598.333 329.657 593.06 328.092 588.491 324.844C576.801 316.522 574.059 300.241 582.378 288.548C590.701 276.856 606.981 274.114 618.679 282.436C630.373 290.754 633.119 307.04 624.796 318.728C619.725 325.857 611.693 329.657 603.551 329.657V329.657ZM586.656 344.411L587.833 344.859C591.655 346.326 595.671 347.242 599.763 347.596L601.02 347.706L604.108 355.762L620.177 353.054L620.451 344.433L621.598 343.918C625.357 342.243 628.85 340.059 631.976 337.427L632.942 336.617L640.818 340.13L650.264 326.852L644.366 320.567L644.813 319.39C646.277 315.573 647.197 311.558 647.551 307.462L647.656 306.205L655.718 303.117L653.006 287.051L644.383 286.777L643.868 285.63C642.193 281.871 640.004 278.379 637.376 275.257L636.566 274.291L640.08 266.417L626.808 256.968L620.514 262.869L619.341 262.418C615.519 260.954 611.507 260.035 607.411 259.685L606.15 259.575L603.07 251.519L586.997 254.222L586.723 262.848L585.572 263.363C581.817 265.037 578.324 267.222 575.194 269.854L574.232 270.664L566.356 267.15L556.91 280.424L562.812 286.714L562.357 287.89C560.893 291.708 559.977 295.723 559.623 299.819L559.513 301.076L551.456 304.159L554.164 320.23L562.791 320.5L563.302 321.651C564.976 325.405 567.162 328.898 569.798 332.027L570.604 332.993L567.09 340.864L580.37 350.312L586.656 344.411ZM601.526 360.275L598.156 351.477C594.544 351.072 590.997 350.262 587.588 349.06L580.724 355.501L562.074 342.231L565.913 333.635C563.66 330.804 561.728 327.721 560.163 324.444L550.743 324.144L546.942 301.578L555.742 298.212C556.147 294.601 556.961 291.054 558.163 287.642L551.722 280.779L564.985 262.135L573.586 265.974C576.417 263.717 579.505 261.789 582.783 260.22L583.078 250.806L605.648 247.001L609.018 255.8C612.625 256.209 616.169 257.019 619.59 258.225L626.454 251.78L645.096 265.05L641.257 273.642C643.514 276.476 645.442 279.556 647.015 282.837L656.427 283.137L660.232 305.703L651.432 309.069C651.027 312.68 650.213 316.223 649.007 319.639L655.457 326.502L642.181 345.145L633.588 341.307C630.757 343.564 627.673 345.491 624.391 347.06L624.096 356.475L601.526 360.275" fill="#A1D4FF"/>
<path d="M75.0609 371.006C39.4257 371.006 10.4393 342.016 10.4393 306.387C10.4393 270.757 39.4257 241.771 75.0609 241.771C110.697 241.771 139.686 270.757 139.686 306.387H135.662C135.662 272.976 108.476 245.795 75.0609 245.795C41.6421 245.795 14.4601 272.976 14.4601 306.387C14.4601 339.797 41.6421 366.982 75.0609 366.982V371.006ZM75.0609 381.438C33.6744 381.438 0 347.769 0 306.387H4.02071C4.02071 345.555 35.8909 377.414 75.0609 377.414C114.231 377.414 146.102 345.555 146.102 306.387C146.102 267.223 114.231 235.36 75.0609 235.36V231.336C116.448 231.336 150.122 265.004 150.122 306.387C150.122 347.769 116.448 381.438 75.0609 381.438Z" fill="#78C2FF"/>
<path d="M65.8664 331.252L38.7915 304.181L41.6374 301.338L65.8664 325.562L108.489 282.947L111.331 285.79L65.8664 331.252" fill="#78C2FF"/>
<path d="M1660.21 1226.6H519.833L395.039 1692.97H1785L1660.21 1226.6Z" fill="url(#paint11_linear)"/>
<path d="M562.977 1308.42H633.039C635.967 1308.42 638.177 1310.69 637.629 1313.15L630.846 1343.62C630.424 1345.5 628.496 1346.86 626.256 1346.86H554.991C552 1346.86 549.777 1344.5 550.431 1342L558.416 1311.53C558.889 1309.72 560.783 1308.42 562.977 1308.42Z" fill="white"/>
<path d="M665.168 1308.42H718.132L711.087 1346.86H657.111L665.168 1308.42" fill="white"/>
<path d="M744.621 1308.41H797.586L792.047 1346.86L738.065 1346.91L744.621 1308.41" fill="white"/>
<path d="M824.07 1308.42H877.038L873.009 1346.86H819.032L824.07 1308.42Z" fill="white"/>
<path d="M903.522 1308.42H956.491L953.968 1346.86H899.996L903.522 1308.42Z" fill="white"/>
<path d="M982.971 1308.41H1035.94L1034.94 1346.86L980.959 1346.91L982.971 1308.41" fill="white"/>
<path d="M1618.77 1308.42H1539.31L1547.87 1346.86H1628.84L1618.77 1308.42Z" fill="white"/>
<path d="M1512.83 1308.42H1459.86L1466.91 1346.86H1520.89L1512.83 1308.42" fill="white"/>
<path d="M1433.38 1308.41H1380.41L1385.95 1346.86L1439.93 1346.91L1433.38 1308.41" fill="white"/>
<path d="M1353.93 1308.42H1300.96L1304.98 1346.86H1358.96L1353.93 1308.42Z" fill="white"/>
<path d="M1274.48 1308.42H1221.5L1224.03 1346.86H1278L1274.48 1308.42Z" fill="white"/>
<path d="M1195.02 1308.41H1142.05L1143.06 1346.86L1197.04 1346.91L1195.02 1308.41" fill="white"/>
<path d="M1062.42 1308.42H1115.4L1116.27 1346.86H1062.42V1308.42" fill="white"/>
<path d="M539.669 1375.5H650.357L644.046 1415.17H531.266L539.669 1375.5" fill="white"/>
<path d="M1636.05 1375.5H1499.23L1507.03 1415.17H1646.44L1636.05 1375.5Z" fill="white"/>
<path d="M1471.87 1375.5H1417.14L1423.38 1415.17H1479.14L1471.87 1375.5" fill="white"/>
<path d="M1389.78 1375.5H1335.05L1339.73 1415.17H1395.49L1389.78 1375.5Z" fill="white"/>
<path d="M1307.7 1375.5H1252.97L1256.08 1415.17H1311.85L1307.7 1375.5Z" fill="white"/>
<path d="M1225.61 1375.5H1170.88L1172.44 1415.17H1228.2L1225.61 1375.5Z" fill="white"/>
<path d="M523.136 1446.19H636.292L628.036 1485.59H512.813L523.136 1446.19" fill="white"/>
<path d="M664.581 1446.19H721.157L714.449 1485.59H656.84L664.581 1446.19Z" fill="white"/>
<path d="M749.447 1446.19H1173.74L1175.32 1485.59H743.254L749.447 1446.19" fill="white"/>
<path d="M1202.07 1446.19H1258.64L1261.74 1485.59H1204.13L1202.07 1446.19Z" fill="white"/>
<path d="M1286.93 1446.19H1343.51L1348.15 1485.59H1290.54L1286.93 1446.19" fill="white"/>
<path d="M1371.8 1446.19H1428.37L1434.57 1485.59H1376.96L1371.8 1446.19Z" fill="white"/>
<path d="M1456.66 1446.19H1513.24L1520.98 1485.59H1463.37L1456.66 1446.19" fill="white"/>
<path d="M1541.53 1446.19H1654.68L1665 1485.59H1549.79L1541.53 1446.19" fill="white"/>
<path d="M1143.63 1375.5H1089.35V1415.17H1144.67L1143.63 1375.5Z" fill="white"/>
<path d="M1061.55 1375.5H1006.82L1005.26 1415.17H1061.02L1061.55 1375.5Z" fill="white"/>
<path d="M979.457 1375.5H924.737L921.616 1415.17H977.381L979.457 1375.5Z" fill="white"/>
<path d="M897.372 1375.5H842.648L837.966 1415.17H893.735L897.372 1375.5Z" fill="white"/>
<path d="M815.282 1375.5H760.559L754.319 1415.17H810.085L815.282 1375.5" fill="white"/>
<path d="M733.192 1375.5H678.469L670.677 1415.17H726.443L733.192 1375.5" fill="white"/>
<path d="M565.562 1284.25L574.552 1249.93H600.269L591.878 1284.25H565.562" fill="white"/>
<path d="M625.99 1249.93H677.423L670.226 1284.25H617.894L625.99 1249.93" fill="white"/>
<path d="M703.143 1249.93H754.577L748.734 1284.25H696.398L703.143 1249.93" fill="white"/>
<path d="M780.297 1249.93H831.731L827.234 1284.25H774.902L780.297 1249.93" fill="white"/>
<path d="M857.447 1249.93H908.884L905.737 1284.25H853.401L857.447 1249.93" fill="white"/>
<path d="M934.601 1249.93H986.038L984.241 1284.25H931.905L934.601 1249.93" fill="white"/>
<path d="M1011.75 1249.93H1063.19L1062.74 1284.25H1010.41L1011.75 1249.93" fill="white"/>
<path d="M1088.91 1249.93H1140.35L1141.24 1284.25H1088.91V1249.93" fill="white"/>
<path d="M1166.06 1249.93H1217.5L1219.75 1284.25H1167.41L1166.06 1249.93" fill="white"/>
<path d="M1243.22 1249.93H1294.65L1298.25 1284.25H1245.92L1243.22 1249.93" fill="white"/>
<path d="M1320.37 1249.93H1371.81L1376.75 1284.25H1324.42L1320.37 1249.93" fill="white"/>
<path d="M1397.52 1249.93H1448.96L1455.25 1284.25H1402.92L1397.52 1249.93" fill="white"/>
<path d="M1474.68 1249.93H1526.11L1533.76 1284.25H1481.42L1474.68 1249.93" fill="white"/>
<path d="M1551.83 1249.93H1603.26L1612.26 1284.25H1559.92L1551.83 1249.93" fill="white"/>
<path d="M1748.69 1729.27H431.348C411.297 1729.27 395.039 1713.02 395.039 1692.96H1785C1785 1713.02 1768.74 1729.27 1748.69 1729.27Z" fill="url(#paint12_linear)"/>
<path d="M1251.6 1542.26C1250.24 1534.05 1243.14 1528.03 1234.82 1528.03H1090.02H945.219C936.896 1528.03 929.8 1534.05 928.442 1542.26L910.348 1651.73C908.635 1662.09 916.629 1671.5 927.125 1671.5H1090.02H1252.91C1263.41 1671.5 1271.4 1662.09 1269.7 1651.73L1251.6 1542.26Z" fill="#4D78EB"/>
<path d="M749.088 612.273H631.204V600.206H749.088V612.273Z" fill="#E0E0E0"/>
<path d="M867.188 703.145H782.078V691.081H867.188V703.145Z" fill="#E0E0E0"/>
<path d="M936.921 703.145H880.447V691.081H936.921V703.145Z" fill="#1487E3"/>
<path d="M689.024 931.67H632.546V919.598H689.024V931.67Z" fill="#1487E3"/>
<path d="M1084.45 703.145H948.088V691.081H1084.45V703.145" fill="#E0E0E0"/>
<path d="M720.166 885.898H632.546V873.831H720.166V885.898Z" fill="#E0E0E0"/>
<path d="M808.182 977.102H754.691V965.038H808.182V977.102Z" fill="#E0E0E0"/>
<path d="M738.525 977.102H632.546V965.038H738.525V977.102Z" fill="#1487E3"/>
<path d="M690.999 1022.54H632.546V1010.47H690.999V1022.54Z" fill="#E0E0E0"/>
<path d="M855.7 612.273H772.016V600.206H855.7V612.273Z" fill="#78C2FF"/>
<path d="M855.7 748.582H772.016V736.514H855.7V748.582Z" fill="#1487E3"/>
<path d="M765.933 794.02H730.176V781.948H765.933V794.02Z" fill="#E0E0E0"/>
<path d="M774.737 840.125H694.424V828.062H774.737V840.125Z" fill="#78C2FF"/>
<path d="M897.743 840.125H786.874V828.062H897.743V840.125Z" fill="#1487E3"/>
<path d="M716.23 794.354H632.546V782.286H716.23V794.354Z" fill="#1487E3"/>
<path d="M682.199 840.125H632.546V828.062H682.199V840.125Z" fill="#1487E3"/>
<path d="M829.638 794.354H782.791V782.286H829.638V794.354Z" fill="#FF8761"/>
<path d="M680.789 1067.98H633.95V1055.91H680.789V1067.98Z" fill="#FF8761"/>
<path d="M715.892 703.145H632.212V691.081H715.892V703.145Z" fill="#78C2FF"/>
<path d="M789.899 931.67H706.215V919.598H789.899V931.67Z" fill="#78C2FF"/>
<path d="M790.929 1022.54H707.249V1010.47H790.929V1022.54Z" fill="#78C2FF"/>
<path d="M939.583 1022.54H855.903V1010.47H939.583V1022.54Z" fill="#78C2FF"/>
<path d="M751.501 748.582H632.212V736.514H751.501V748.582Z" fill="#78C2FF"/>
<path d="M1274.89 612.273H1191.21V600.206H1274.89V612.273Z" fill="#78C2FF"/>
<path d="M976.779 1067.98H893.099V1055.91H976.779V1067.98Z" fill="#78C2FF"/>
<path d="M1356.94 612.273H1300.92V600.206H1356.94V612.273Z" fill="#78C2FF"/>
<path d="M1546.46 657.707H1490.45V645.644H1546.46V657.707Z" fill="#78C2FF"/>
<path d="M984.853 612.273H878.232V600.206H984.853V612.273" fill="#1487E3"/>
<path d="M1400.25 657.707H1293.64V645.644H1400.25V657.707Z" fill="#1487E3"/>
<path d="M1269.5 703.145H1162.88V691.081H1269.5V703.145Z" fill="#1487E3"/>
<path d="M1130.69 748.582H1024.07V736.514H1130.69V748.582Z" fill="#1487E3"/>
<path d="M1358.7 703.145H1282.91V691.081H1358.7V703.145Z" fill="#78C2FF"/>
<path d="M1170.31 612.273H1063.7V600.206H1170.31V612.273Z" fill="#FF8761"/>
<path d="M1004.56 748.582H942.047V736.514H1004.56V748.582Z" fill="#FF8761"/>
<path d="M955.61 932.342H893.099V920.27H955.61V932.342Z" fill="#FF8761"/>
<path d="M1043.59 612.273H1004.56V600.206H1043.59V612.273Z" fill="#E0E0E0"/>
<path d="M917.254 748.582H878.232V736.514H917.254V748.582Z" fill="#E0E0E0"/>
<path d="M1464.99 657.707H1425.96V645.644H1464.99V657.707Z" fill="#E0E0E0"/>
<path d="M692.26 657.707H631.204V645.644H692.26V657.707Z" fill="#1487E3"/>
<path d="M842.307 886.23H794.109V874.163H842.307V886.23Z" fill="#1487E3"/>
<path d="M726.958 657.707H707.249V645.644H726.958V657.707Z" fill="#1487E3"/>
<path d="M1274.89 657.707H1111.95V645.644H1274.89V657.707Z" fill="#E0E0E0"/>
<path d="M1118.55 1022.54H955.609V1010.47H1118.55V1022.54Z" fill="#E0E0E0"/>
<path d="M761.558 657.707H741.444V645.644H761.558V657.707Z" fill="#FF8761"/>
<path d="M1096.89 657.707H1043.59V645.644H1096.89V657.707Z" fill="#1487E3"/>
<path d="M1150.2 703.145H1096.89V691.081H1150.2V703.145Z" fill="#FF8761"/>
<path d="M876.089 1067.98H822.783V1055.91H876.089V1067.98" fill="#FF8761"/>
<path d="M1029.48 657.707H916.052V645.644H1029.48V657.707Z" fill="#1487E3"/>
<path d="M876.743 932.342H810.478V920.27H876.743V932.342Z" fill="#1487E3"/>
<path d="M839.349 1022.54H806.212V1010.47H839.349V1022.54Z" fill="#1487E3"/>
<path d="M899.962 657.707H860.932V645.644H899.962V657.707Z" fill="#78C2FF"/>
<path d="M768.6 703.145H729.578V691.081H768.6V703.145Z" fill="#FF8761"/>
<path d="M776.378 886.23H737.356V874.163H776.378V886.23Z" fill="#FF8761"/>
<path d="M846.049 657.707H778.053V645.644H846.049V657.707Z" fill="#1487E3"/>
<path d="M1660.26 1127.25H1790.97V751.616H1660.26V1127.25Z" fill="#FDFDFD"/>
<path d="M1617.91 1127.25H1660.26V751.616H1617.91V1127.25Z" fill="url(#paint13_linear)"/>
<path d="M1617.91 1127.25H1280.56C1271.21 1127.25 1263.63 1119.67 1263.63 1110.31V768.547C1263.63 759.196 1271.21 751.616 1280.56 751.616H1617.91V1127.25Z" fill="url(#paint14_linear)"/>
<path d="M1780.92 1125.61C1790.97 1089.4 1776.77 1063.09 1774.28 1038.08C1772.64 1021.73 1780.9 1012.81 1790.58 1011V1110.32C1790.58 1117.07 1786.63 1122.89 1780.92 1125.61Z" fill="url(#paint15_linear)"/>
<path d="M1696.8 853.744H1790.58V849.719H1696.8V853.744Z" fill="#DFF0FF"/>
<path d="M1733.67 971.039H1648.77C1645.18 971.039 1642.27 968.129 1642.27 964.548V951.434C1642.27 947.848 1645.18 944.938 1648.77 944.938H1733.67C1737.27 944.938 1740.17 947.848 1740.17 951.434V964.548C1740.17 968.129 1737.27 971.039 1733.67 971.039Z" fill="#4AAFFF"/>
<path d="M1733.67 1019.91H1648.77C1645.18 1019.91 1642.27 1017 1642.27 1013.41V1000.3C1642.27 996.718 1645.18 993.807 1648.77 993.807H1733.67C1737.27 993.807 1740.17 996.718 1740.17 1000.3V1013.41C1740.17 1017 1737.27 1019.91 1733.67 1019.91Z" fill="#4AAFFF"/>
<path d="M1733.67 1068.78H1648.77C1645.18 1068.78 1642.27 1065.87 1642.27 1062.28V1049.17C1642.27 1045.58 1645.18 1042.67 1648.77 1042.67H1733.67C1737.27 1042.67 1740.17 1045.58 1740.17 1049.17V1062.28C1740.17 1065.87 1737.27 1068.78 1733.67 1068.78Z" fill="#4AAFFF"/>
<path d="M1494.72 1038.36C1450.79 1054.07 1403.44 1039.89 1374.9 1006.35C1368.1 998.355 1362.37 989.261 1358 979.201C1357.04 976.986 1356.14 974.713 1355.31 972.405C1347.01 949.194 1347.06 925.025 1353.89 903.196C1363.76 871.675 1387.77 844.997 1421.27 833.026C1432.33 829.069 1443.6 827.015 1454.73 826.674C1500.71 825.286 1544.34 853.323 1560.67 898.97C1580.96 955.673 1551.42 1018.08 1494.72 1038.36V1038.36ZM1594.95 886.717C1573.17 825.834 1514.98 788.446 1453.64 790.289C1438.79 790.736 1423.77 793.478 1409.01 798.75C1364.34 814.732 1332.31 850.311 1319.15 892.344C1310.03 921.477 1309.97 953.703 1321.04 984.663C1322.14 987.746 1323.34 990.766 1324.62 993.727C1330.44 1007.14 1338.09 1019.27 1347.17 1029.93C1385.23 1074.67 1448.38 1093.58 1506.97 1072.63C1582.61 1045.58 1622 962.346 1594.95 886.717" fill="#4AAFFF"/>
<path d="M1353.9 903.197L1319.15 892.344C1332.31 850.312 1364.34 814.733 1409.02 798.751C1423.77 793.479 1438.79 790.737 1453.64 790.29L1454.73 826.674C1443.6 827.016 1432.33 829.07 1421.27 833.027C1387.77 844.997 1363.76 871.676 1353.9 903.197" fill="#1A598C"/>
<path d="M1358 979.202L1324.62 993.729C1323.34 990.767 1322.14 987.747 1321.04 984.664C1309.97 953.704 1310.03 921.478 1319.15 892.345L1353.89 903.198C1347.06 925.026 1347.01 949.195 1355.31 972.407C1356.14 974.714 1357.04 976.987 1358 979.202" fill="#2273B5"/>
<path d="M1347.17 1029.93C1338.09 1019.27 1330.44 1007.14 1324.62 993.727L1358 979.2C1362.37 989.26 1368.1 998.354 1374.9 1006.35L1347.17 1029.93Z" fill="#3788CC"/>
<path d="M1506.55 1021.95C1506.55 1021.95 1499.5 1009.62 1510.68 976.577C1521.48 944.626 1558.89 947.519 1570.77 967.994C1582.67 988.459 1578.65 1001.18 1561.15 1024.29C1543.64 1047.41 1513.81 1032.51 1506.55 1021.95Z" fill="#EEA886"/>
<path d="M1593.43 1590.38C1593.43 1590.38 1595.28 1603.94 1595.51 1605.99C1595.74 1608.02 1616.11 1604.78 1616.11 1604.78L1617.76 1588.63C1617.76 1588.63 1595.98 1588.46 1593.43 1590.38" fill="#EEA886"/>
<path d="M1595.29 1604.26C1595.29 1604.26 1588.84 1612.44 1582.61 1616C1576.37 1619.57 1566.56 1620.97 1562.87 1624.66C1560.21 1627.32 1553.17 1638.79 1579.09 1638.55C1605 1638.33 1617.49 1640.18 1620.27 1635.78C1623.04 1631.38 1616.25 1603.34 1616.25 1603.34C1616.25 1603.34 1609.91 1605.13 1595.29 1604.26" fill="#414773"/>
<path d="M1452.45 1590.38C1452.45 1590.38 1454.31 1603.94 1454.54 1605.99C1454.77 1608.02 1475.13 1604.78 1475.13 1604.78L1476.78 1588.63C1476.78 1588.63 1455 1588.46 1452.45 1590.38" fill="#EEA886"/>
<path d="M1454.33 1604.26C1454.33 1604.26 1447.87 1612.44 1441.63 1615.99C1435.39 1619.56 1412.43 1622.49 1408.74 1626.18C1406.08 1628.84 1401.65 1639.56 1438.11 1638.55C1464.02 1637.84 1476.52 1640.18 1479.3 1635.78C1482.07 1631.38 1475.28 1603.34 1475.28 1603.34C1475.28 1603.34 1467.23 1604.77 1454.33 1604.26" fill="#414773"/>
<path d="M1586.58 1252.52C1586.58 1252.52 1597.02 1284.95 1595.64 1312.91C1594.27 1340.86 1601.04 1371.45 1603.8 1400.65C1606.9 1433.2 1619.53 1510.26 1619.98 1527.68C1620.44 1545.09 1618.02 1600.7 1618.02 1600.7L1592.73 1601.3C1592.73 1601.3 1571.5 1466.58 1566 1452.83C1560.5 1439.08 1533.23 1341.08 1532.31 1330.08C1531.4 1319.08 1586.58 1252.52 1586.58 1252.52" fill="#2D314F"/>
<path d="M1481.75 1249.14C1481.75 1249.14 1466.4 1334.9 1464.56 1352.02C1462.73 1369.12 1461.5 1434.81 1460.59 1445.5C1459.67 1456.19 1454.48 1585.42 1449.59 1601.3H1477.78C1477.78 1601.3 1506.73 1507.36 1506.73 1462.91C1506.73 1418.46 1525.9 1366.28 1538.27 1336.96C1550.65 1307.63 1578.97 1306.93 1586.58 1252.52C1586.58 1252.52 1492.04 1231.89 1481.75 1249.14" fill="#2D314F"/>
<path d="M1516.77 1030.66C1516.77 1030.66 1519.95 1039.92 1516.77 1046.52C1513.59 1053.13 1557.4 1049.17 1557.4 1049.17C1557.4 1049.17 1555.42 1035.52 1561.15 1024.29C1566.87 1013.06 1516.77 1030.66 1516.77 1030.66" fill="#EEA886"/>
<path d="M1588.61 1259.59C1588.61 1259.59 1572.85 1275.78 1480.33 1257.07L1481.75 1249.14L1586.92 1253.11L1588.61 1259.59" fill="#2B3B57"/>
<path d="M1510.14 1048.67C1510.14 1048.67 1493.96 1050.32 1489.33 1051.2C1484.71 1052.08 1453.59 1045.63 1447.21 1044.97C1440.82 1044.31 1413.6 1025.67 1412.71 1023.46C1411.84 1021.26 1396.16 981.564 1395.28 972.98C1394.39 964.384 1380 968.821 1381.23 974.739C1383.54 985.807 1386.5 1012.67 1388.13 1020.45C1389.89 1028.86 1394.59 1047.9 1397.23 1050.25C1399.87 1052.59 1424.39 1071.23 1448.38 1079.15C1472.39 1087.08 1490.45 1098.75 1490.45 1098.75H1608.71C1608.71 1098.75 1654.72 1033 1655.71 1023.09C1656.69 1013.19 1623.58 947.351 1616.97 939.093C1610.36 930.838 1600.81 941.788 1600.81 941.788C1600.81 941.788 1620.61 999.853 1623.24 1008.11C1625.89 1016.36 1600.23 1052.63 1593.18 1052.74C1586.13 1052.85 1568.05 1050.54 1560.01 1050.21C1551.97 1049.87 1543.49 1046.35 1543.49 1046.35L1510.14 1048.67Z" fill="#EEA886"/>
<path d="M1459.17 1092.58C1459.17 1092.58 1473.65 1102.21 1474.97 1118.71C1476.29 1135.23 1481.58 1161.31 1484.22 1170.22C1486.86 1179.15 1481.91 1243.86 1481.25 1248.48C1480.58 1253.11 1572.76 1264.09 1586.92 1253.11C1586.92 1253.11 1590.88 1192.68 1592.53 1175.51C1594.19 1158.34 1602.11 1116.74 1604.75 1111.13C1607.39 1105.51 1639.43 1060.59 1640.75 1054.66C1640.75 1054.66 1624.17 1028.25 1612.29 1027.92C1612.29 1027.92 1593.41 1050.04 1587.25 1051.03C1581.09 1052.02 1543.36 1045.11 1543.35 1045.05C1543.35 1045.05 1539.23 1050.66 1517.34 1044.05C1517.34 1044.05 1491.26 1046.99 1487.03 1047.53C1481.89 1048.19 1446.19 1043.06 1446.19 1043.06C1446.19 1043.06 1431.86 1067.24 1434.37 1079.45L1459.17 1092.58" fill="#FFC655"/>
<path d="M1396.1 978.135C1396.1 978.135 1392.87 962.832 1396.76 958.437C1398.98 955.94 1404.3 949.313 1404.79 948.343C1405.28 947.369 1410.99 944.083 1410.99 942.501C1410.99 940.919 1405.4 938.975 1400.54 943.475C1395.67 947.976 1392.63 948.95 1390.68 948.461C1388.73 947.976 1385.94 931.8 1385.69 927.789C1385.45 923.773 1383.9 913.19 1381.39 913.924C1378.88 914.65 1379 919.273 1379 919.273C1379 919.273 1376.08 911.242 1374.14 912.827C1372.19 914.405 1372.44 918.302 1372.44 918.302C1372.44 918.302 1368.78 913.798 1367.81 917.083C1366.84 920.369 1367.81 923.284 1367.81 923.284C1367.81 923.284 1364.04 921.217 1363.8 926.325C1363.55 931.433 1364.89 946.394 1367.57 951.747C1370.24 957.1 1380.26 971.095 1381.45 976.561C1382.65 982.032 1396.1 978.135 1396.1 978.135Z" fill="#EEA886"/>
<path d="M1604.04 951.262C1604.04 951.262 1593.03 932.766 1589.29 931.117C1585.55 929.463 1580.26 928.527 1575.64 925.224C1571.02 921.925 1564.91 919.175 1565.24 918.074C1565.57 916.974 1571.02 917.412 1576.85 919.943C1582.69 922.474 1585.24 921.251 1585.79 919.93C1586.35 918.61 1582.69 909.284 1580.92 907.082C1579.16 904.88 1566.61 892.26 1568.71 890.388C1570.8 888.519 1578.94 895.458 1580.26 896.883C1580.26 896.883 1573.77 883.238 1576.3 882.576C1578.83 881.914 1583.56 886.756 1583.56 886.756C1583.56 886.756 1583.02 875.093 1595.56 894.023C1595.56 894.023 1592.92 887.747 1596.78 889.843C1600.63 891.931 1604.37 903.712 1605.58 909.655C1606.79 915.594 1612.29 934.529 1616.97 939.093C1621.65 943.661 1604.04 951.262 1604.04 951.262" fill="#EEA886"/>
<path d="M1561.15 1024.29C1561.15 1024.29 1555.35 1024.8 1543.02 1020.55C1530.69 1016.29 1529.77 994.738 1527.11 997.285C1521.66 1002.5 1516.53 998.901 1514.47 995.818C1514.47 995.818 1520.49 987.896 1517.7 984.075C1514.91 980.262 1510.37 977.478 1510.37 977.478C1510.37 977.478 1519.04 935.69 1558.51 954.726C1604.74 977.035 1561.15 1024.29 1561.15 1024.29Z" fill="#353A3D"/>
<path d="M1516.77 1046.53L1518.16 1040.48C1518.16 1040.48 1543.35 1039.97 1557.09 1041.96L1558.54 1049.18C1558.54 1049.18 1540.94 1057.16 1516.77 1046.53Z" fill="#D4D8E8"/>
<path d="M1522.98 992.001C1525.27 988.205 1533.73 985.64 1534.72 996.405C1535.5 1004.76 1519.61 1013.87 1519.46 1006.09C1519.31 998.311 1521.46 994.532 1522.98 992.001Z" fill="#EEA886"/>
<path d="M1395.5 974.666C1395.5 974.666 1386.42 974.885 1382.01 978.867C1382.01 978.867 1381.72 981.398 1382.74 983.385C1382.74 983.385 1390.62 979.711 1396.66 979.023C1396.66 979.023 1396.56 975.721 1395.5 974.666Z" fill="#E55353"/>
<path d="M1384.79 976.926C1383.95 978.913 1384.88 981.207 1386.87 982.047C1388.85 982.882 1391.15 981.954 1391.99 979.967C1392.83 977.976 1391.9 975.686 1389.91 974.847C1387.92 974.007 1385.63 974.939 1384.79 976.926Z" fill="#353A3D"/>
<path d="M1161.57 654.004C1161.57 654.004 1174.56 676.022 1180.04 679.62C1187.49 684.5 1182.82 689.435 1179.29 689.439C1175.75 689.443 1157.7 690.734 1153.72 686.221C1149.74 681.708 1147.77 668.176 1144.07 664.637C1140.37 661.103 1136.55 647.036 1145.87 643.619C1154.12 640.591 1161.57 654.004 1161.57 654.004" fill="#6069A8"/>
<path d="M1155.95 644.325C1155.95 644.325 1170.82 670.105 1173.39 673.919C1175.95 677.727 1168.56 677.719 1163.97 675.909C1159.4 674.1 1147.88 655.608 1146.22 652.242C1144.25 648.222 1145.87 643.621 1145.87 643.621L1155.95 644.325" fill="#202338"/>
<path d="M1140.87 658.197L1144.31 684.627L1146.13 684.707L1145.56 665.692L1140.87 658.197Z" fill="#6069A8"/>
<path d="M1032.76 654.004C1032.76 654.004 1045.75 676.022 1051.23 679.62C1058.68 684.5 1054.01 689.435 1050.48 689.439C1046.94 689.443 1028.88 690.734 1024.91 686.221C1020.93 681.708 1018.96 668.176 1015.26 664.637C1011.56 661.103 1007.61 646.673 1017.05 643.619C1025.34 640.936 1032.76 654.004 1032.76 654.004" fill="#6069A8"/>
<path d="M1027.91 644.376C1027.91 644.376 1042.01 670.105 1044.58 673.919C1047.14 677.727 1039.74 677.719 1035.16 675.909C1030.58 674.1 1019.06 655.608 1017.41 652.242C1015.44 648.222 1017.05 643.621 1017.05 643.621L1027.91 644.376" fill="#202338"/>
<path d="M1012.06 658.197L1015.49 684.627L1017.31 684.707L1016.75 665.692L1012.06 658.197Z" fill="#6069A8"/>
<path d="M975.125 453.633L1092.67 507.185C1092.67 507.185 1105.79 511.454 1107.26 526.018C1111.85 571.488 1145.87 643.62 1145.87 643.62C1156.78 648.952 1155.95 644.325 1155.95 644.325C1149.07 622.248 1140.7 531.266 1137.71 494.687C1137.08 486.939 1136.68 481.632 1136.6 479.937C1136.54 478.781 1135.28 477.275 1133.1 475.512C1116.97 462.432 1050.6 435.357 1050.6 435.357C1000.77 434.091 975.125 453.633 975.125 453.633" fill="#202338"/>
<path d="M952.969 476.628C956.605 508.394 1001.96 504.758 1001.96 504.758H1056.93C1056.93 504.758 1042.5 536.882 1036.91 563.979C1031 592.737 1017.05 643.619 1017.05 643.619C1017.05 643.619 1017.96 645.344 1027.91 644.374C1027.91 644.374 1071.06 558.39 1087.58 536.773C1091.13 532.12 1101.32 506.867 1103.07 491.805C1103.67 486.739 1103.3 482.825 1101.4 481.239C1099.49 479.64 1095.11 476.628 1089.27 472.942C1072.05 462.085 1042.15 445.373 1025.49 441.632C1003.17 436.616 967.886 427.219 967.886 427.219C967.886 427.219 949.333 444.863 952.969 476.628" fill="#202338"/>
<path d="M990.379 231.932C990.379 231.932 982.153 216.313 986.161 199.682C990.173 183.05 1005.6 166.478 1028.21 174.091C1050.81 181.7 1069.07 199.251 1055.53 219.548C1041.98 239.845 1067.79 249.011 1061.21 258.67C1054.64 268.33 1057.13 278.415 1059.91 280.663C1062.7 282.907 1071.68 290.917 1070.69 300.403C1069.7 309.885 1026.84 272.763 1026.84 272.763C1026.84 272.763 1003.5 225.871 990.379 231.932Z" fill="#464240"/>
<path d="M1059.26 431.549C1059.26 431.549 1055.86 448.083 968.067 427.204C968.067 427.204 997.496 417.431 1059.26 431.549Z" fill="#EB4747"/>
<path d="M967.071 431.845C965.704 434.444 964.346 437.042 962.988 439.64C995.078 440.572 1027.17 441.509 1059.26 442.445C1054.19 425.447 1055.83 402.433 1056.72 384.962C1057.81 363.624 1069.59 348.789 1068.34 327.205C1074.69 328.235 1075.78 328.429 1082.15 329.399C1072.42 301.699 1069.09 287.974 1038.88 277.311C1029.05 273.839 1022.59 273.152 1011.94 274.029C976.955 276.91 966.405 277.323 949.222 309.022C976.12 313.307 971.691 322.962 979.849 349.717C983.828 362.763 987.983 377.324 985.848 391.083C983.747 404.631 967.071 419.491 967.071 431.845" fill="#325BB3"/>
<path d="M1022.9 284.022C1008.58 281.318 1011.63 273.354 1011.63 273.354C1011.63 273.354 1012.29 268.862 1012.55 263.181C1012.62 261.73 1012.65 260.194 1012.65 258.638C1012.64 256.28 1012.53 253.867 1012.26 251.598C1011.08 241.989 1038.24 247.722 1038.24 247.722C1038.24 247.722 1036.68 267.167 1040.42 272.992C1044.17 278.821 1037.22 286.725 1022.9 284.022Z" fill="#EEA886"/>
<path d="M995.585 273.302C995.585 273.302 1024.47 306.646 1035.14 314.373C1035.14 314.373 1047.41 303.292 1039.85 274.028C1039.85 274.028 1025.9 267.043 995.585 273.302Z" fill="#EEA886"/>
<path d="M996.373 193.05C996.373 193.05 981.372 221.948 996.247 249.318C1011.13 276.685 1040.35 237.398 1042.24 232.788C1044.13 228.178 1054.15 202.106 1034.22 194.181C1014.29 186.259 1000.62 185.209 996.373 193.05Z" fill="#EEA886"/>
<path d="M1001.36 203.306C1001.36 203.306 991.033 216.867 989.809 226.885C989.809 226.885 985.701 207.942 997.323 189.741C1008.94 171.545 1038.49 188.876 1042.45 196.148C1046.41 203.42 1058.01 209.827 1038.52 241.074C1038.52 241.074 1003.48 216.732 1001.36 203.306" fill="#464240"/>
<path d="M1025.33 252.202C1025.33 252.202 1022.72 257.892 1012.55 263.182C1012.62 261.731 1012.65 260.195 1012.64 258.639C1012.64 258.639 1019.53 257.808 1025.33 252.202" fill="#A77860"/>
<path d="M873.744 405.842C873.744 405.842 866.614 409.014 863.227 407.576C859.852 406.138 854.621 405.859 852.975 405.855C850.769 405.851 843.867 403.387 843.981 406.087C844.104 408.782 855.19 410.663 857.46 411.507C859.729 412.346 850.672 417.332 849.833 419.547C848.989 421.761 859.215 436.296 864.982 432.154C870.748 428.012 873.87 419.745 875.043 419.222C876.22 418.695 879.375 416.375 879.375 416.375L873.744 405.842" fill="#EEA886"/>
<path d="M850.921 418.26C850.921 418.26 834.202 432.121 833.941 433.993C833.679 435.866 834.561 436.744 836.181 435.512C837.801 434.28 852.764 422.592 852.764 422.592C852.764 422.592 836.008 442.375 835.447 443.842C835.114 444.703 836.721 446.491 837.657 445.914C838.594 445.336 856.409 426.709 856.409 426.709C856.409 426.709 840.8 445.213 840.72 446.597C840.644 447.807 842.521 449.115 843.783 447.824C845.044 446.534 860.577 430.21 860.577 430.21C860.577 430.21 850.136 444.416 850.777 445.665C851.174 446.432 852.494 448.035 855.063 444.281C857.632 440.527 864.694 432.344 864.694 432.344L850.921 418.26" fill="#EEA886"/>
<path d="M1051.19 504.763H1001.96C1001.96 504.763 956.605 508.395 952.973 476.633C949.332 444.863 967.886 427.219 967.886 427.219C967.886 427.219 991.847 433.601 1012.77 438.65C1023.24 436.427 1035.86 434.98 1050.6 435.356C1050.6 435.356 1139.27 464.65 1136.6 480.075C1136.6 480.075 1099.51 460.246 1051.19 504.763" fill="#FF7E55"/>
<path d="M1019.15 449.751L1113.01 448.368L1065.62 472.432L1019.15 449.751Z" fill="#5E5853"/>
<path d="M1048.31 437.761C1048.31 437.761 1027.19 445.935 1001.31 438.541L1000.1 428.878L1053.4 431.843L1048.31 437.761" fill="#325BB3"/>
<path d="M1065.62 472.432L1019.15 454.429V449.752L1069.3 467.838L1065.62 472.432Z" fill="#91887F"/>
<path d="M1047.98 442.232C1047.73 445.699 1051.24 448.2 1054.44 446.834L1059.89 444.51C1061.53 443.81 1062.48 442.084 1062.2 440.321C1059.93 426.128 1055.06 370.868 1062.18 361.381C1064.81 357.88 1066.44 354.805 1067.37 352.123C1072.07 364.233 1077.91 379.835 1080.24 388.225L1124.58 447.214L1139.46 450.984C1120.9 406.282 1105.99 382.598 1105.99 382.598C1103.09 374.807 1094.77 351.216 1087.4 330.21C1082.74 316.945 1078.47 304.712 1076.18 298.141C1075.01 294.809 1072.72 291.995 1069.68 290.19C1062.82 286.082 1051.37 279.611 1040.99 274.575L1040.87 274.516L1039.88 274.035L1039.85 274.031L1039.85 274.027C1059.58 303.882 1051.89 388.195 1047.99 442.114L1047.98 442.232Z" fill="#EDDAD3"/>
<path d="M974.724 276.576C968.4 277.55 952.724 292.769 944.405 308.126C934.905 325.656 925.231 345.612 917.984 352.175C904.657 364.251 867.348 406.925 865.576 405.891C864.893 405.495 875.806 418.634 877.194 419.245C877.886 419.553 938.511 367.027 944.333 359.025C949.859 351.437 964.62 319.595 969.037 320.295L969.046 320.321L969.054 320.333C969.391 321.055 974.758 332.696 979.849 349.716L980.102 350.564C983.608 362.433 983.283 375.319 981.385 389.8C979.951 400.728 971.792 418.596 966.873 427.293C966.278 428.339 966.43 430.33 967.071 431.845C967.455 432.747 968.008 433.481 968.687 433.73L986.481 440.323L990.666 441.875C993.678 442.989 996.838 442.406 999.196 440.694C1001.13 439.289 1002.53 437.126 1002.87 434.506C1006.83 404.069 1011.83 372.97 1015.83 361.256C1033.34 309.852 1008.98 271.227 1008.98 271.227C1008.98 271.227 980.271 274.505 974.724 276.576" fill="#EDDAD3"/>
<path d="M1065.62 472.432L1093.54 396.208L1183.55 397.676L1156.94 467.918L1065.62 472.432" fill="#6E6760"/>
<path d="M1122.34 429.927C1119.6 435.418 1120.43 441.395 1124.2 443.281C1127.97 445.166 1133.25 442.243 1136 436.756C1138.74 431.268 1137.92 425.287 1134.14 423.401C1130.38 421.516 1125.09 424.439 1122.34 429.927Z" fill="#807066"/>
<path d="M1027.46 221.83C1027.46 221.83 1033.22 230.798 1027.9 238.542C1022.57 246.282 1029.24 253.887 1030.4 262.07C1031.56 270.253 1008.16 292.03 1034.18 302.985C1060.19 313.939 1068.47 295.831 1061.83 285.864C1055.2 275.897 1050.49 267.811 1049.92 253.604C1049.37 239.394 1044.69 217.245 1027.46 221.83Z" fill="#464240"/>
<path d="M839.033 114.197H949.901V211.473L932.981 194.55H839.033V114.197Z" fill="#78C2FF"/>
<defs>
<linearGradient id="paint0_linear" x1="485.022" y1="926.13" x2="1752.41" y2="926.13" gradientUnits="userSpaceOnUse">
<stop stop-color="#40D5E6"/>
<stop offset="1" stop-color="#5577FF"/>
</linearGradient>
<linearGradient id="paint1_linear" x1="559.762" y1="870.034" x2="1617.91" y2="870.034" gradientUnits="userSpaceOnUse">
<stop stop-color="#404B61"/>
<stop offset="0.468241" stop-color="#404B61"/>
<stop offset="1" stop-color="#2F3E5C"/>
</linearGradient>
<linearGradient id="paint2_linear" x1="1956.13" y1="1260.68" x2="2228.39" y2="1260.68" gradientUnits="userSpaceOnUse">
<stop stop-color="#3076A1"/>
<stop offset="1" stop-color="#639C38"/>
</linearGradient>
<linearGradient id="paint3_linear" x1="1932.47" y1="1220.99" x2="2287.95" y2="1220.99" gradientUnits="userSpaceOnUse">
<stop stop-color="#3076A1"/>
<stop offset="1" stop-color="#639C38"/>
</linearGradient>
<linearGradient id="paint4_linear" x1="1850.81" y1="1167.21" x2="2080.1" y2="1167.21" gradientUnits="userSpaceOnUse">
<stop stop-color="#3076A1"/>
<stop offset="1" stop-color="#639C38"/>
</linearGradient>
<linearGradient id="paint5_linear" x1="1914.53" y1="1216.79" x2="1984.05" y2="1216.79" gradientUnits="userSpaceOnUse">
<stop stop-color="#3076A1"/>
<stop offset="1" stop-color="#639C38"/>
</linearGradient>
<linearGradient id="paint6_linear" x1="1757.19" y1="1230.57" x2="1981.63" y2="1230.57" gradientUnits="userSpaceOnUse">
<stop stop-color="#3076A1"/>
<stop offset="1" stop-color="#639C38"/>
</linearGradient>
<linearGradient id="paint7_linear" x1="1907.46" y1="1739" x2="2096.24" y2="1004.76" gradientUnits="userSpaceOnUse">
<stop stop-color="#3076A1"/>
<stop offset="1" stop-color="#639C38"/>
</linearGradient>
<linearGradient id="paint8_linear" x1="1976.1" y1="1358.4" x2="2059.07" y2="1358.4" gradientUnits="userSpaceOnUse">
<stop stop-color="#3076A1"/>
<stop offset="1" stop-color="#639C38"/>
</linearGradient>
<linearGradient id="paint9_linear" x1="1904.86" y1="1507.97" x2="2058.25" y2="1507.97" gradientUnits="userSpaceOnUse">
<stop stop-color="#FF9340"/>
<stop offset="1" stop-color="#FFCE45"/>
</linearGradient>
<linearGradient id="paint10_linear" x1="1904.86" y1="1507.97" x2="2058.25" y2="1507.97" gradientUnits="userSpaceOnUse">
<stop stop-color="#C97332"/>
<stop offset="1" stop-color="#FFCE45"/>
</linearGradient>
<linearGradient id="paint11_linear" x1="1090.02" y1="1181.51" x2="1090.02" y2="1884.13" gradientUnits="userSpaceOnUse">
<stop stop-color="#40D5E6"/>
<stop offset="1" stop-color="#5577FF"/>
</linearGradient>
<linearGradient id="paint12_linear" x1="-249.188" y1="1711.12" x2="1140.77" y2="1711.12" gradientUnits="userSpaceOnUse">
<stop stop-color="#40D5E6"/>
<stop offset="1" stop-color="#5577FF"/>
</linearGradient>
<linearGradient id="paint13_linear" x1="485.014" y1="926.127" x2="1752.41" y2="926.127" gradientUnits="userSpaceOnUse">
<stop stop-color="#D1F5F9"/>
<stop offset="1" stop-color="#D6DEFF"/>
</linearGradient>
<linearGradient id="paint14_linear" x1="559.763" y1="870.032" x2="1617.91" y2="870.032" gradientUnits="userSpaceOnUse">
<stop stop-color="#D1D4D9"/>
<stop offset="0.468241" stop-color="#D1D4D9"/>
<stop offset="1" stop-color="#CDD1D8"/>
</linearGradient>
<linearGradient id="paint15_linear" x1="1757.19" y1="1230.57" x2="1981.63" y2="1230.57" gradientUnits="userSpaceOnUse">
<stop stop-color="#CDDEE9"/>
<stop offset="1" stop-color="#DAE7CF"/>
</linearGradient>
</defs>
</svg>
