<svg width="2288" height="1730" fill="none" xmlns="http://www.w3.org/2000/svg"><path d="M1660.26 1348.58H519.433V543.634c0-22.065 17.895-39.958 39.967-39.958h1060.89c22.08 0 39.97 17.893 39.97 39.958v207.985h-42.35V545.064H559.762v649.946H1617.91v-67.76h42.35v221.33z" fill="url(#paint0_linear)"/><path d="M1617.91 1195.01H559.762V545.063H1617.91v206.555h-337.35c-9.35 0-16.93 7.58-16.93 16.931v341.771c0 9.35 7.58 16.93 16.93 16.93h337.35v67.76" fill="url(#paint1_linear)"/><path d="M184.413 544.04h259.452c-5.058-25.329-27.809-44.145-53.863-44.145a54.69 54.69 0 00-17.305 2.788l-1.421.468-.857-1.223c-14.394-20.424-37.866-32.614-62.802-32.614-29.201 0-55.491 16.214-68.603 42.32l-.721 1.43-1.557-.38a42.839 42.839 0 00-10.297-1.249c-19.887 0-37.179 13.57-42.026 32.605zm264.198 4.024H179.456l.469-2.395c4.319-22.166 23.885-38.258 46.514-38.258 3.269 0 6.522.338 9.702 1.008 14.023-26.645 41.267-43.129 71.476-43.129 25.746 0 50.016 12.351 65.228 33.12a58.844 58.844 0 0117.157-2.539c29.285 0 53.787 20.976 58.25 49.874l.359 2.319M1357.43 74.498c-1.21 12.793-5.23 93.85 79.67 137.785 84.91-43.935 80.88-124.992 79.67-137.785-52.73-.33-74.19-15.012-79.67-19.673-5.48 4.661-26.95 19.344-79.67 19.673zm79.67 142.307l-.91-.469c-95.52-48.76-82.69-143.188-82.55-144.137l.25-1.721h1.73c60.74 0 79.82-19.567 80.01-19.761l1.48-1.574 1.47 1.578c.18.19 19.27 19.757 79.99 19.757h1.74l.25 1.721c.14.949 12.97 95.377-82.55 144.137l-.91.469" fill="#6AAFE8"/><path d="M1959.75 1471.79c-14.38-65.69 16.69-82.09 46.73-97.93 24.55-12.97 47.74-25.2 46.5-63.92-1.63-51.32 33.33-69.99 64.18-86.46 22.96-12.26 44.63-23.84 47.86-47.19 7.79-56.19 59.63-126.04 60.14-126.73l3.23 2.41c-.52.68-51.74 69.71-59.38 124.88-3.51 25.37-26.07 37.42-49.95 50.17-31.28 16.7-63.62 33.97-62.06 82.8 1.32 41.22-24.08 54.63-48.65 67.59-30.03 15.84-58.4 30.81-44.67 93.52l-3.93.86" fill="url(#paint2_linear)"/><path d="M1937.52 1422.81c13.07 18.1 24.94 27.32 36.23 28.16 15.79 1.16 30.18-13.83 46.85-31.18 21.47-22.36 45.8-47.7 82.59-50.88 44.18-3.82 48.11-43.5 51.92-81.87 3.4-34.29 6.6-66.69 38.03-71.24 29.61-4.29 48.67-14.23 56.64-29.55 6.65-12.77 5.26-29.26-4.03-47.68-8.79-17.45 3.9-42.02 17.33-68.03 14.57-28.21 29.64-57.39 14.54-75.375-2.28-2.708-5.03-4.083-8.43-4.21-17.06-.565-46 29.205-76.62 60.775-35.5 36.6-72.2 74.42-99.05 74.42l-1.03-.02c-24.27-.9-32.67 27.4-42.4 60.15-10.68 36-22.79 76.81-60.23 85.72-29.87 7.12-42.94 11.09-46.56 17.23-2.55 4.33-.79 10.6 2.12 20.98 2.14 7.64 4.81 17.15 6.82 29.67 7.85 48.91-10.17 76.81-14.72 82.93zm38.01 32.24c-.69 0-1.38-.03-2.08-.08-12.99-.96-25.72-10.83-40.08-31.05l-.9-1.27 1.01-1.19c.23-.29 23.24-28.31 14.79-80.95-1.97-12.28-4.6-21.67-6.72-29.22-3.09-11.02-5.13-18.29-1.71-24.1 4.34-7.37 16.06-11.23 49.09-19.1 35.18-8.37 46.93-48 57.31-82.96 9.78-32.92 19.03-63.98 46.4-63.02 25.15.97 63.34-38.44 97.04-73.17 31.27-32.23 60.78-62.599 79.65-62 4.53.164 8.36 2.062 11.36 5.643 16.83 20.027 1.13 50.427-14.04 79.807-12.95 25.07-25.18 48.75-17.31 64.37 9.89 19.62 11.28 37.38 4 51.34-8.6 16.53-28.66 27.19-59.62 31.67-28.32 4.11-31.37 34.98-34.61 67.66-3.78 38.15-8.07 81.37-55.58 85.49-35.27 3.05-59.05 27.81-80.03 49.65-16.69 17.38-31.19 32.48-47.97 32.48" fill="url(#paint3_linear)"/><path d="M1893.25 897.165c-3.15 0-5.51.739-7.26 2.228-7.4 6.293-6.83 27.75-5.78 66.707.35 12.924.74 27.573.93 44.53.45 38.5 12.07 63.06 20.55 81 11.67 24.71 18.72 39.61-19.41 61.58-14.95 8.62-23.6 18.53-26.43 30.31-5.5 22.86 12.17 50.09 29.27 76.42 6.63 10.23 13.5 20.79 18.94 31.02 7.06 13.26 14.21 33.62 21.77 55.17 14.71 41.9 31.39 89.38 50.12 91.09 7.15.63 14.67-5.84 22.35-19.28 18.01-31.5 16.98-58.72 15.8-90.25-1.58-42.14-3.37-89.91 41.25-160.42 17.92-28.33 24.13-50.65 18.98-68.23-6.31-21.51-28.51-31.87-48.09-41.01-14.51-6.76-27.04-12.61-29.58-21.97-1.25-4.63.01-9.59 3.87-15.18 12.14-17.58 16.17-30.826 12.3-40.489-5.56-13.932-28.18-20.39-49.58-24.865-26.94-5.644-36.12-22.777-43.49-36.537-5.53-10.304-10.29-19.2-20.98-21.229-2.07-.396-3.91-.595-5.53-.595zm83.74 544.115c-.46 0-.94-.02-1.41-.06-21.3-1.94-37.69-48.62-53.53-93.75-7.52-21.41-14.62-41.64-21.54-54.62-5.36-10.07-12.17-20.57-18.77-30.73-17.55-27.04-35.7-55-29.79-79.54 3.1-12.91 12.36-23.65 28.32-32.84 34.92-20.13 29.55-31.49 17.78-56.39-8.64-18.27-20.47-43.29-20.93-82.67-.19-16.931-.58-31.563-.93-44.474-1.11-41.505-1.67-62.334 7.19-69.872 3.67-3.121 8.81-3.922 16.16-2.526 12.57 2.391 18 12.544 23.76 23.283 7.34 13.709 15.66 29.239 40.78 34.495 23.57 4.931 46.24 11.654 52.49 27.316 4.4 11.009.24 25.488-12.73 44.268-3.15 4.55-4.23 8.42-3.3 11.84 2.06 7.56 13.8 13.03 27.4 19.38 19.34 9.03 43.43 20.26 50.25 43.53 5.5 18.75-.87 42.14-19.44 71.5-43.96 69.46-42.19 116.57-40.63 158.12 1.16 30.8 2.24 59.89-16.33 92.39-8.2 14.35-16.33 21.35-24.8 21.35" fill="url(#paint4_linear)"/><path d="M1977.42 1466.2l-3.84-1.22c21.48-67.88-17.38-220.2-28.95-257.27-5.7-18.22-.44-45.67 4.66-72.2 6.57-34.27 13.37-69.72-3.97-83-32.55-24.95-30.83-82.672-30.74-85.119l4.01.152c-.02.574-1.72 58.097 29.18 81.777 19.31 14.79 12.27 51.47 5.46 86.94-4.99 26.05-10.16 52.99-4.77 70.25 14.33 45.85 50.39 191.96 28.96 259.69" fill="url(#paint5_linear)"/><path d="M1948.63 1450.48c-15.71 0-30.28-55.37-50.23-80.75-23.54-29.96-33.17-77.04-61-111.27-27.81-34.23-105.92-44.93-71.68-99.49 7.56-12.05 12.35-23.1 15.2-33.36 5.71-2.72 9.66-8.55 9.66-15.29V1011c1.24-.23 2.5-.35 3.77-.35 8.27 0 16.78 4.93 20.59 14.58 27.82 70.61 82.15 58.68 75.91 89.56-14.15 69.97 28.95 79.48 71.81 110.51 42.86 31.02 0 61.5-2.14 109.64-2.14 48.15 15.99 82.93-3.27 109.68-2.94 4.07-5.8 5.86-8.62 5.86" fill="url(#paint6_linear)"/><path d="M1988.43 1450.81c-.24-1.42-24.03-142.45-77.31-181.1-54.32-39.4-64.19-75.81-83.17-161.66l3.93-.87c18.74 84.79 28.47 120.74 81.6 159.29 54.62 39.61 77.95 177.82 78.92 183.68l-3.97.66z" fill="#fff"/><path d="M1940.36 1445.76s15.83-39.15-12.98-94.78c-28.81-55.65-52.13-47.08 17.32-89.89 69.45-42.8.44-177.62 59.56-194.73 59.12-17.13 110.48-235.339 155.43-207.551 44.95 27.784-14.98 134.786 17.12 166.881 32.11 32.11 36.39 72.95-29.96 106.02-66.35 33.08 47.09 159.35-42.81 197.87-89.89 38.51-64.11 189.56-163.68 116.18" fill="url(#paint7_linear)"/><path d="M1967.82 1487.27c-.1-.5-9.76-50.62 20.77-115.37 31.12-65.98 46.01-138.1 39.84-192.93-3.34-29.7 15.68-41.31 34.09-52.54 18.11-11.06 36.84-22.5 35.81-51.75-.93-26.43 10.25-88.393 10.73-91.017l3.96.722c-.12.637-11.6 64.155-10.67 90.155 1.11 31.6-18.64 43.66-37.74 55.32-18.12 11.06-35.24 21.51-32.18 48.66 6.24 55.54-8.78 128.47-40.2 195.08-29.93 63.49-20.57 112.39-20.47 112.87l-3.94.8" fill="#fff"/><path d="M2040.46 1210.72c20.19-18.75 46.88-21.45 41.32 6.36-5.56 27.8-24.63 35.75-15.09 53.23 9.53 17.48 25.42 34.96-1.59 56.42-27.02 21.45-42.12 23.83-50.07 64.36-7.95 40.52-6.36 68.19-41.32 69.92-34.97 1.73-21.46-49.27-10.33-72.31 0 0 16.68-26.29 5.56-60.82-11.13-34.53-32.58-53.17 12.71-64.9 45.3-11.74 45.2-39.62 58.81-52.26" fill="#fff"/><path d="M1976.23 1486.91c-.11-4.95-2.51-121.69 19.33-141.33 22.3-20.07 26.58-55.54 27.15-74.88.75-25.22 33.32-40.19 34.72-40.81l1.64 3.66c-.31.14-31.67 14.56-32.34 37.26-.72 24.42-6.24 57.74-28.49 77.75-20.47 18.43-18.02 137.07-17.99 138.27l-4.02.08" fill="url(#paint8_linear)"/><path d="M2058.25 1439.27l-36.22 137.41h-80.95l-36.22-137.41h153.39" fill="url(#paint9_linear)"/><path d="M2058.25 1439.27s-79.74 14.97-79.74 137.41h-37.43l-36.22-137.41h153.39" fill="url(#paint10_linear)"/><path d="M631.204 1092.27H524.592v-12.07h106.612v12.07z" fill="#1487E3"/><path d="M502.338 747.188H332.182V529.615h4.02v213.553h166.136v4.02m720.232-143.36h-4.02V379.477h216.54v-188.68h4.02v192.7h-216.54v220.331zm699.54 249.916H1696.8v-4.024h221.28V718.916h4.03v134.828z" fill="#78C2FF"/><path d="M237.685 1035.53s-4.822 67.68 8.4 75.78c8.285 5.08 41.321 22.19 40.342 25.41-.979 3.21-18.655 28.55-18.655 28.55s-63.456-41.78-65.502-54.95c-1.999-12.86 3.122-99.1 11.846-103.07 6.535-2.98 9.981-.52 18.22 5.6 11.551 8.57 5.349 22.68 5.349 22.68" fill="#FF7E55"/><path d="M230.307 1528.08s-1.974 13.7-2.215 15.75c-.249 2.06-21.953-1.21-21.953-1.21l-1.759-16.3s23.219-.17 25.927 1.76z" fill="#424773"/><path d="M228.325 1542.09s6.867 8.26 13.524 11.86c6.653 3.59 17.098 5.01 21.038 8.74 2.835 2.69 10.34 14.26-17.287 14.02-27.628-.23-40.942 1.64-43.899-2.8-2.961-4.43 4.282-32.74 4.282-32.74s6.539 2.35 22.342.92z" fill="#292C47"/><path d="M338.936 1528.08s-1.979 13.7-2.223 15.75c-.249 2.06-21.95-1.21-21.95-1.21l-1.754-16.3s23.219-.17 25.927 1.76z" fill="#424773"/><path d="M336.949 1542.09s6.872 8.26 13.525 11.85c6.652 3.6 31.129 6.56 35.06 10.28 2.839 2.69 7.56 13.51-31.306 12.49-27.619-.72-40.941 1.64-43.907-2.8-2.957-4.43 4.286-32.74 4.286-32.74s6.164 2.51 22.342.92zm-98.854-365.91s-20.393 32.41-18.874 61.69c1.523 29.29-1.814 60.57-4.881 91.16-3.413 34.11-12.719 105.08-13.226 123.32-.51 18.25.667 86.9.667 86.9l35.373-.27s12.559-138.68 18.646-153.08c6.083-14.41 31.062-118.59 32.078-130.11 1.013-11.52-49.783-79.61-49.783-79.61z" fill="#292C47"/><path d="M345.454 1180.57s8.057 79.62 10.086 97.55c2.025 17.92.642 95.58 1.65 106.79 1.021 11.2-6.775 129.69-8.695 152.25l-38.882-.25s-2.683-95.84-2.683-142.41c0-46.57-11.952-100.78-25.645-131.51-13.694-30.73-45.038-31.45-53.454-88.46 0 0 106.228-12.03 117.623 6.04" fill="#292C47"/><path d="M259.639 903.033s24.299-16.231 41.363 1.155c17.065 17.383 25.451 58.259 13.2 66.421-12.255 8.158-33.044 10.296-42.911-.776-9.867-11.064-20.401-27.948-22.987-40.273-2.595-12.334 5.172-21.339 11.335-26.527" fill="#EEA886"/><path d="M305.938 973.355s-.316 17.079 1.565 20.719c1.886 3.64-35.461 3.733-35.461 3.733s-3.034-19.8-8.784-36.528c-5.749-16.733 42.68 12.076 42.68 12.076" fill="#EEA886"/><path d="M264.195 961.008s3.485 3.547 13.348-.473c9.863-4.019 19.144-20.588 23.063-23.085 3.931-2.505 3.375-5.028 3.375-5.028l3.602 3.282 4.607-.789s-7.016-11.207-1.936-17.648c5.079-6.445-15.782-37.924-45.924-18.703 0 0-23.586 12.899-19.292 27.025 4.303 14.13 11.825 29.606 19.157 35.419" fill="#754836"/><path d="M309.718 993.638s-.114-6.952-3.27-7.622c-3.151-.667-34.803-3.712-38.676-2.185v8.098s7.463 4.59 41.946 1.709z" fill="#E2D2CA"/><path d="M302.074 927.363c-1.139-2.274-8.884-7.707-9.492.206-.607 7.917 7.615 16.429 10.694 14.814 3.084-1.62 1.692-9.267-1.202-15.02" fill="#EEA886"/><path d="M252.615 907.209s-34.753 9.318 10.171 52.451l-10.171-52.451z" fill="#754836"/><path d="M563.107 1091.96l-35.415-.33c3.059-1.78 7.999-4.98 6.906-6.44-1.561-2.07-11.588 2.49-15.664 2.91-3.737.38-10.002-.1-14.756 1.63l-11.184 4.77 10.252 9.48s18.523 2.66 23.944 3.04c8.817.62 35.795-9.88 36.238-11.47.806-2.87-.321-3.59-.321-3.59" fill="#EEA886"/><path d="M355.949 1003.28c-22.523-3.961-46.231-9.642-46.231-9.642l-41.946-1.713s-38.494 8.475-53.656 15.325c-1.439.65-1.439 34.34-5.391 43.17l12.571 26.51s7.26 52.53 8.766 75.88c.692 10.73-14.972 100.56-14.972 100.56s16.782 4.94 45.414 8.09c28.627 3.16 100.157-1.14 100.605-4.51.455-3.39-13.85-125.89-14.487-132.23-.97-9.74 2.814-54.73 2.814-54.73 5.395 7.24 36.579 34.42 51.804 43.05 10.829 6.14 37.394 2.39 45.219 1.6 16.934-1.74 63.718-5.09 64.633-6.75.73-.99-2.691-18.05-4.649-18.71-1.713-.57-62.106-3.55-77.255-2.77-6.146.33-26.197-22.06-26.197-22.06s-34.614-55.49-47.042-61.07" fill="#FF7E55"/><path d="M97.992 833.747h110.872v97.267l-16.925-16.919H97.992v-80.348z" fill="#FFCB55"/><path d="M1779.31 574.438h100.53V473.914h-100.53v100.524zm104.12 3.593h-107.72V470.325h107.72v107.706zm25.13-71.802h239.39v-19.146h-239.39v19.146zm242.98 3.589h-246.56V483.49h246.56v26.328zm-372.23 118.848h368.64v-19.145h-368.64v19.145zm372.23 3.59h-375.83v-26.325h375.83v26.325zm-372.23 46.973h232.19v-19.146h-232.19v19.146zm235.78 3.593h-239.38v-26.333h239.38v26.333m-106.53-126.371h159.79v-19.145h-159.79v19.145zm163.38 3.594h-166.96v-26.333h166.96v26.333z" fill="#6AAFE8"/><path d="M1736.52 736.485h454.22v-319.83h-454.22v319.83zm457.81 3.589h-461.4V413.065h461.4v327.009zm-624.09-473.457h-34.52v-4.024h30.5v-30.466h4.02v34.49zm-232.14 0h-34.53v-34.49h4.03v30.466h30.5v4.024M1307.61 34.52h-4.03V0h34.5v4.023h-30.47V34.52m262.63-.012h-4.02V4.04h-30.5V.017h34.52v34.49m0 146.079h-4.02V86.048h4.02v94.538zm-262.64 0h-4.03V86.048h4.03v94.538z" fill="#6AAFE8"/><path d="M334.194 506.106c-5.931 0-10.757 4.821-10.757 10.747 0 5.931 4.826 10.752 10.757 10.752 5.927 0 10.749-4.821 10.749-10.752 0-5.926-4.822-10.747-10.749-10.747zm0 25.523c-8.15 0-14.778-6.627-14.778-14.776 0-8.145 6.628-14.771 14.778-14.771 8.146 0 14.773 6.626 14.773 14.771 0 8.149-6.627 14.776-14.773 14.776zM1437.1 167.279c-5.93 0-10.75 4.822-10.75 10.752 0 5.926 4.82 10.752 10.75 10.752s10.75-4.826 10.75-10.752c0-5.93-4.82-10.752-10.75-10.752zm0 25.528c-8.15 0-14.77-6.631-14.77-14.776s6.62-14.771 14.77-14.771c8.14 0 14.78 6.626 14.78 14.771s-6.64 14.776-14.78 14.776zm483 503.289c-5.93 0-10.76 4.825-10.76 10.751 0 5.927 4.83 10.752 10.76 10.752 5.92 0 10.75-4.825 10.75-10.752 0-5.926-4.83-10.751-10.75-10.751zm0 25.527c-8.15 0-14.78-6.631-14.78-14.776s6.63-14.775 14.78-14.775c8.14 0 14.77 6.63 14.77 14.775s-6.63 14.776-14.77 14.776z" fill="#78C2FF"/><path d="M334.793 117.361h93.378V23.996h-93.378v93.365zm97.403 4.02H330.773V19.967h101.423v101.414z" fill="#A1D4FF"/><path d="M383.493 94.88h-4.021V47.615h4.021V94.88z" fill="#A1D4FF"/><path d="M405.117 73.256h-47.269v-4.024h47.269v4.024zM1836.86 239.691h136.93v-95.436h-136.93v95.436zm140.96 4.024h-144.98v-103.48h144.98v103.48z" fill="#A1D4FF"/><path d="M1905.33 202.91l-71.76-59.111 2.57-3.104 69.19 57.006 69.2-57.006 2.56 3.104-71.76 59.111z" fill="#A1D4FF"/><path d="M1974.35 243.088l-52.04-54.851 2.93-2.771 52.03 54.855-2.92 2.767zm-138.04 0l-2.92-2.767 52.03-54.855 2.92 2.771-52.03 54.851M686.598 313.504a8.904 8.904 0 00-7.264 3.737 8.847 8.847 0 00-1.527 6.639 8.846 8.846 0 003.619 5.775 8.851 8.851 0 006.64 1.527 8.85 8.85 0 005.771-3.619 8.83 8.83 0 001.528-6.639 8.83 8.83 0 00-3.616-5.771 8.86 8.86 0 00-5.151-1.649zm-.038 20.82c-2.455 0-4.847-.759-6.884-2.21-5.358-3.809-6.615-11.266-2.801-16.619 3.809-5.357 11.272-6.614 16.621-2.801a11.826 11.826 0 014.847 7.732 11.834 11.834 0 01-2.046 8.887 11.824 11.824 0 01-7.733 4.842 11.88 11.88 0 01-2.004.169zm-7.458 5.015l.882.338c1.599.616 3.277.999 5.003 1.147l.936.08 1.296 3.379 5.939-1 .114-3.615.865-.388a18.364 18.364 0 004.345-2.716l.726-.612 3.303 1.477 3.489-4.906-2.477-2.636.338-.886a18.37 18.37 0 001.152-4.998l.08-.941 3.375-1.291-.996-5.939-3.62-.118-.388-.86a18.441 18.441 0 00-2.716-4.349l-.612-.721 1.476-3.299-4.902-3.492-2.64 2.472-.882-.338a18.475 18.475 0 00-4.999-1.143l-.937-.084-1.299-3.379-5.936 1-.118 3.619-.865.384a18.505 18.505 0 00-4.349 2.72l-.717.608-3.303-1.472-3.493 4.905 2.476 2.636-.342.882a18.363 18.363 0 00-1.147 4.998l-.08.941-3.379 1.295 1.004 5.935 3.619.118.38.86c.7 1.573 1.62 3.037 2.725 4.349l.608.721-1.473 3.303 4.902 3.492 2.637-2.476zm6.18 8.331l-1.51-3.944a21.61 21.61 0 01-3.966-.907l-3.079 2.885-8.931-6.356 1.726-3.851a20.935 20.935 0 01-2.165-3.451l-4.222-.135-1.819-10.81 3.945-1.51c.173-1.354.481-2.679.911-3.965l-2.89-3.079 6.358-8.93 3.851 1.721a21.35 21.35 0 013.451-2.16l.135-4.222 10.808-1.818 1.51 3.94c1.35.177 2.683.481 3.97.911l3.08-2.889 8.935 6.356-1.726 3.855a21.177 21.177 0 012.16 3.451l4.223.13 1.818 10.811-3.94 1.51a21.49 21.49 0 01-.915 3.969l2.893 3.075-6.361 8.934-3.852-1.721a21.365 21.365 0 01-3.446 2.16l-.14 4.218-10.812 1.822m-81.668-66.026c-6.88 0-13.672 3.214-17.954 9.237a21.86 21.86 0 00-3.776 16.416 21.877 21.877 0 008.94 14.27c9.888 7.035 23.657 4.716 30.694-5.171a21.872 21.872 0 003.771-16.413 21.853 21.853 0 00-8.943-14.269 21.889 21.889 0 00-12.732-4.07zm-.063 48.013a25.925 25.925 0 01-15.06-4.813c-11.69-8.322-14.432-24.603-6.113-36.296 8.323-11.692 24.603-14.434 36.301-6.112 11.694 8.318 14.44 24.604 6.117 36.292-5.071 7.129-13.103 10.929-21.245 10.929zm-16.895 14.754l1.177.448a43.822 43.822 0 0011.93 2.737l1.257.11 3.088 8.056 16.069-2.708.274-8.621 1.147-.515a43.758 43.758 0 0010.378-6.491l.966-.81 7.876 3.513 9.446-13.278-5.898-6.285.447-1.177a43.844 43.844 0 002.738-11.928l.105-1.257 8.062-3.088-2.712-16.066-8.623-.274-.515-1.147a43.78 43.78 0 00-6.492-10.373l-.81-.966 3.514-7.874-13.272-9.449-6.294 5.901-1.173-.451a43.745 43.745 0 00-11.93-2.733l-1.261-.11-3.08-8.056-16.073 2.703-.274 8.626-1.151.515a43.887 43.887 0 00-10.378 6.491l-.962.81-7.876-3.514-9.446 13.274 5.902 6.29-.455 1.176a43.853 43.853 0 00-2.734 11.929l-.11 1.257-8.057 3.083 2.708 16.071 8.627.27.511 1.151a43.765 43.765 0 006.496 10.376l.806.966-3.514 7.871 13.28 9.448 6.286-5.901zm14.87 15.864l-3.37-8.798a47.8 47.8 0 01-10.568-2.417l-6.864 6.441-18.65-13.27 3.839-8.596a47.944 47.944 0 01-5.75-9.191l-9.42-.3-3.801-22.566 8.8-3.366a47.877 47.877 0 012.421-10.57l-6.441-6.863 13.263-18.644 8.601 3.839a47.977 47.977 0 019.197-5.754l.295-9.414 22.57-3.805 3.37 8.799a48.07 48.07 0 0110.572 2.425l6.864-6.445 18.642 13.27-3.839 8.592a48.178 48.178 0 015.758 9.195l9.412.3 3.805 22.566-8.8 3.366a47.711 47.711 0 01-2.425 10.57l6.45 6.863-13.276 18.643-8.593-3.838a47.85 47.85 0 01-9.197 5.753l-.295 9.415-22.57 3.8" fill="#A1D4FF"/><path d="M75.06 371.006c-35.634 0-64.62-28.99-64.62-64.619 0-35.63 28.986-64.616 64.62-64.616 35.637 0 64.626 28.986 64.626 64.616h-4.024c0-33.411-27.186-60.592-60.601-60.592-33.419 0-60.6 27.181-60.6 60.592 0 33.41 27.181 60.595 60.6 60.595v4.024zm0 10.432C33.675 381.438 0 347.769 0 306.387h4.02c0 39.168 31.87 71.027 71.04 71.027 39.171 0 71.042-31.859 71.042-71.027 0-39.164-31.871-71.027-71.041-71.027v-4.024c41.387 0 75.061 33.668 75.061 75.051 0 41.382-33.674 75.051-75.061 75.051z" fill="#78C2FF"/><path d="M65.866 331.252l-27.075-27.071 2.846-2.843 24.23 24.224 42.622-42.615 2.842 2.843-45.465 45.462" fill="#78C2FF"/><path d="M1660.21 1226.6H519.833l-124.794 466.37H1785l-124.79-466.37z" fill="url(#paint11_linear)"/><path d="M562.977 1308.42h70.062c2.928 0 5.138 2.27 4.59 4.73l-6.783 30.47c-.422 1.88-2.35 3.24-4.59 3.24h-71.265c-2.991 0-5.214-2.36-4.56-4.86l7.985-30.47c.473-1.81 2.367-3.11 4.561-3.11zm102.191 0h52.964l-7.045 38.44h-53.976l8.057-38.44m79.453-.01h52.965l-5.539 38.45-53.982.05 6.556-38.5m79.449.01h52.968l-4.029 38.44h-53.977l5.038-38.44zm79.452 0h52.969l-2.523 38.44h-53.972l3.526-38.44zm79.449-.01h52.969l-1 38.45-53.981.05 2.012-38.5m635.799.01h-79.46l8.56 38.44h80.97l-10.07-38.44zm-105.94 0h-52.97l7.05 38.44h53.98l-8.06-38.44m-79.45-.01h-52.97l5.54 38.45 53.98.05-6.55-38.5m-79.45.01h-52.97l4.02 38.44h53.98l-5.03-38.44zm-79.45 0h-52.98l2.53 38.44H1278l-3.52-38.44zm-79.46-.01h-52.97l1.01 38.45 53.98.05-2.02-38.5m-132.6.01h52.98l.87 38.44h-53.85v-38.44m-522.751 67.08h110.688l-6.311 39.67h-112.78l8.403-39.67m1096.381 0h-136.82l7.8 39.67h139.41l-10.39-39.67zm-164.18 0h-54.73l6.24 39.67h55.76l-7.27-39.67m-82.09 0h-54.73l4.68 39.67h55.76l-5.71-39.67zm-82.08 0h-54.73l3.11 39.67h55.77l-4.15-39.67zm-82.09 0h-54.73l1.56 39.67h55.76l-2.59-39.67zm-702.474 70.69h113.156l-8.256 39.4H512.813l10.323-39.4m141.445 0h56.576l-6.708 39.4H656.84l7.741-39.4zm84.866 0h424.293l1.58 39.4H743.254l6.193-39.4m452.623 0h56.57l3.1 39.4h-57.61l-2.06-39.4zm84.86 0h56.58l4.64 39.4h-57.61l-3.61-39.4m84.87 0h56.57l6.2 39.4h-57.61l-5.16-39.4zm84.86 0h56.58l7.74 39.4h-57.61l-6.71-39.4m84.87 0h113.15l10.32 39.4h-115.21l-8.26-39.4m-397.9-70.69h-54.28v39.67h55.32l-1.04-39.67zm-82.08 0h-54.73l-1.56 39.67h55.76l.53-39.67zm-82.093 0h-54.72l-3.121 39.67h55.765l2.076-39.67zm-82.085 0h-54.724l-4.682 39.67h55.769l3.637-39.67zm-82.09 0h-54.723l-6.24 39.67h55.766l5.197-39.67m-82.09 0h-54.723l-7.792 39.67h55.766l6.749-39.67m-167.63-91.25l8.99-34.32h25.717l-8.391 34.32h-26.316m60.428-34.32h51.433l-7.197 34.32h-52.332l8.096-34.32m77.153 0h51.434l-5.843 34.32h-52.336l6.745-34.32m77.154 0h51.434l-4.497 34.32h-52.332l5.395-34.32m77.15 0h51.437l-3.147 34.32h-52.336l4.046-34.32m77.154 0h51.437l-1.797 34.32h-52.336l2.696-34.32m77.149 0h51.44l-.45 34.32h-52.33l1.34-34.32m77.16 0h51.44l.89 34.32h-52.33v-34.32m77.15 0h51.44l2.25 34.32h-52.34l-1.35-34.32m77.16 0h51.43l3.6 34.32h-52.33l-2.7-34.32m77.15 0h51.44l4.94 34.32h-52.33l-4.05-34.32m77.15 0h51.44l6.29 34.32h-52.33l-5.4-34.32m77.16 0h51.43l7.65 34.32h-52.34l-6.74-34.32m77.15 0h51.43l9 34.32h-52.34l-8.09-34.32" fill="#fff"/><path d="M1748.69 1729.27H431.348c-20.051 0-36.309-16.25-36.309-36.31H1785c0 20.06-16.26 36.31-36.31 36.31z" fill="url(#paint12_linear)"/><path d="M1251.6 1542.26a17.01 17.01 0 00-16.78-14.23H945.219a17.002 17.002 0 00-16.777 14.23l-18.094 109.47c-1.713 10.36 6.281 19.77 16.777 19.77h325.785c10.5 0 18.49-9.41 16.79-19.77l-18.1-109.47z" fill="#4D78EB"/><path d="M749.088 612.273H631.204v-12.067h117.884v12.067zm118.1 90.872h-85.11v-12.064h85.11v12.064z" fill="#E0E0E0"/><path d="M936.921 703.145h-56.474v-12.064h56.474v12.064zM689.024 931.67h-56.478v-12.072h56.478v12.072z" fill="#1487E3"/><path d="M1084.45 703.145H948.088v-12.064h136.362v12.064M720.166 885.898h-87.62v-12.067h87.62v12.067zm88.016 91.204h-53.491v-12.064h53.491v12.064z" fill="#E0E0E0"/><path d="M738.525 977.102H632.546v-12.064h105.979v12.064z" fill="#1487E3"/><path d="M690.999 1022.54h-58.453v-12.07h58.453v12.07z" fill="#E0E0E0"/><path d="M855.7 612.273h-83.684v-12.067H855.7v12.067z" fill="#78C2FF"/><path d="M855.7 748.582h-83.684v-12.068H855.7v12.068z" fill="#1487E3"/><path d="M765.933 794.02h-35.757v-12.072h35.757v12.072z" fill="#E0E0E0"/><path d="M774.737 840.125h-80.313v-12.063h80.313v12.063z" fill="#78C2FF"/><path d="M897.743 840.125H786.874v-12.063h110.869v12.063zM716.23 794.354h-83.684v-12.068h83.684v12.068zm-34.031 45.771h-49.653v-12.063h49.653v12.063z" fill="#1487E3"/><path d="M829.638 794.354h-46.847v-12.068h46.847v12.068zM680.789 1067.98H633.95v-12.07h46.839v12.07z" fill="#FF8761"/><path d="M715.892 703.145h-83.68v-12.064h83.68v12.064zm74.007 228.525h-83.684v-12.072h83.684v12.072zm1.03 90.87h-83.68v-12.07h83.68v12.07zm148.654 0h-83.68v-12.07h83.68v12.07zM751.501 748.582H632.212v-12.068h119.289v12.068zm523.389-136.309h-83.68v-12.067h83.68v12.067zM976.779 1067.98h-83.68v-12.07h83.68v12.07zm380.161-455.707h-56.02v-12.067h56.02v12.067zm189.52 45.434h-56.01v-12.063h56.01v12.063z" fill="#78C2FF"/><path d="M984.853 612.273H878.232v-12.067h106.621v12.067m415.397 45.434h-106.61v-12.063h106.61v12.063zm-130.75 45.438h-106.62v-12.064h106.62v12.064zm-138.81 45.437h-106.62v-12.068h106.62v12.068z" fill="#1487E3"/><path d="M1358.7 703.145h-75.79v-12.064h75.79v12.064z" fill="#78C2FF"/><path d="M1170.31 612.273H1063.7v-12.067h106.61v12.067zm-165.75 136.309h-62.513v-12.068h62.513v12.068zm-48.95 183.76h-62.511V920.27h62.511v12.072z" fill="#FF8761"/><path d="M1043.59 612.273h-39.03v-12.067h39.03v12.067zM917.254 748.582h-39.022v-12.068h39.022v12.068zm547.736-90.875h-39.03v-12.063h39.03v12.063z" fill="#E0E0E0"/><path d="M692.26 657.707h-61.056v-12.063h61.056v12.063zM842.307 886.23h-48.198v-12.067h48.198v12.067zM726.958 657.707h-19.709v-12.063h19.709v12.063z" fill="#1487E3"/><path d="M1274.89 657.707h-162.94v-12.063h162.94v12.063zm-156.34 364.833H955.609v-12.07h162.941v12.07z" fill="#E0E0E0"/><path d="M761.558 657.707h-20.114v-12.063h20.114v12.063z" fill="#FF8761"/><path d="M1096.89 657.707h-53.3v-12.063h53.3v12.063z" fill="#1487E3"/><path d="M1150.2 703.145h-53.31v-12.064h53.31v12.064zM876.089 1067.98h-53.306v-12.07h53.306v12.07" fill="#FF8761"/><path d="M1029.48 657.707H916.052v-12.063h113.428v12.063zM876.743 932.342h-66.265V920.27h66.265v12.072zm-37.394 90.198h-33.137v-12.07h33.137v12.07z" fill="#1487E3"/><path d="M899.962 657.707h-39.03v-12.063h39.03v12.063z" fill="#78C2FF"/><path d="M768.6 703.145h-39.022v-12.064H768.6v12.064zm7.778 183.085h-39.022v-12.067h39.022v12.067z" fill="#FF8761"/><path d="M846.049 657.707h-67.996v-12.063h67.996v12.063z" fill="#1487E3"/><path d="M1660.26 1127.25h130.71V751.616h-130.71v375.634z" fill="#FDFDFD"/><path d="M1617.91 1127.25h42.35V751.616h-42.35v375.634z" fill="url(#paint13_linear)"/><path d="M1617.91 1127.25h-337.35c-9.35 0-16.93-7.58-16.93-16.94V768.547c0-9.351 7.58-16.931 16.93-16.931h337.35v375.634z" fill="url(#paint14_linear)"/><path d="M1780.92 1125.61c10.05-36.21-4.15-62.52-6.64-87.53-1.64-16.35 6.62-25.27 16.3-27.08v99.32c0 6.75-3.95 12.57-9.66 15.29z" fill="url(#paint15_linear)"/><path d="M1696.8 853.744h93.78v-4.025h-93.78v4.025z" fill="#DFF0FF"/><path d="M1733.67 971.039h-84.9c-3.59 0-6.5-2.91-6.5-6.491v-13.114a6.499 6.499 0 016.5-6.496h84.9c3.6 0 6.5 2.91 6.5 6.496v13.114c0 3.581-2.9 6.491-6.5 6.491zm0 48.871h-84.9a6.5 6.5 0 01-6.5-6.5v-13.11a6.499 6.499 0 016.5-6.493h84.9c3.6 0 6.5 2.911 6.5 6.493v13.11c0 3.59-2.9 6.5-6.5 6.5zm0 48.87h-84.9a6.5 6.5 0 01-6.5-6.5v-13.11a6.5 6.5 0 016.5-6.5h84.9c3.6 0 6.5 2.91 6.5 6.5v13.11c0 3.59-2.9 6.5-6.5 6.5zm-238.95-30.42c-43.93 15.71-91.28 1.53-119.82-32.01a108.653 108.653 0 01-16.9-27.149c-.96-2.215-1.86-4.488-2.69-6.796-8.3-23.211-8.25-47.38-1.42-69.209 9.87-31.521 33.88-58.199 67.38-70.17a109.085 109.085 0 0133.46-6.352c45.98-1.388 89.61 26.649 105.94 72.296 20.29 56.703-9.25 119.11-65.95 139.39zm100.23-151.643c-21.78-60.883-79.97-98.271-141.31-96.428-14.85.447-29.87 3.189-44.63 8.461-44.67 15.982-76.7 51.561-89.86 93.594-9.12 29.133-9.18 61.359 1.89 92.319 1.1 3.083 2.3 6.103 3.58 9.064a144.38 144.38 0 0022.55 36.203c38.06 44.74 101.21 63.65 159.8 42.7 75.64-27.05 115.03-110.284 87.98-185.913" fill="#4AAFFF"/><path d="M1353.9 903.197l-34.75-10.853c13.16-42.032 45.19-77.611 89.87-93.593 14.75-5.272 29.77-8.014 44.62-8.461l1.09 36.384c-11.13.342-22.4 2.396-33.46 6.353-33.5 11.97-57.51 38.649-67.37 70.17" fill="#1A598C"/><path d="M1358 979.202l-33.38 14.527a149.491 149.491 0 01-3.58-9.065c-11.07-30.96-11.01-63.186-1.89-92.319l34.74 10.853c-6.83 21.828-6.88 45.997 1.42 69.209.83 2.307 1.73 4.58 2.69 6.795" fill="#2273B5"/><path d="M1347.17 1029.93a144.38 144.38 0 01-22.55-36.203L1358 979.2a108.677 108.677 0 0016.9 27.15l-27.73 23.58z" fill="#3788CC"/><path d="M1506.55 1021.95s-7.05-12.33 4.13-45.373c10.8-31.951 48.21-29.058 60.09-8.583 11.9 20.465 7.88 33.186-9.62 56.296-17.51 23.12-47.34 8.22-54.6-2.34zm86.88 568.43s1.85 13.56 2.08 15.61c.23 2.03 20.6-1.21 20.6-1.21l1.65-16.15s-21.78-.17-24.33 1.75" fill="#EEA886"/><path d="M1595.29 1604.26s-6.45 8.18-12.68 11.74c-6.24 3.57-16.05 4.97-19.74 8.66-2.66 2.66-9.7 14.13 16.22 13.89 25.91-.22 38.4 1.63 41.18-2.77 2.77-4.4-4.02-32.44-4.02-32.44s-6.34 1.79-20.96.92" fill="#414773"/><path d="M1452.45 1590.38s1.86 13.56 2.09 15.61c.23 2.03 20.59-1.21 20.59-1.21l1.65-16.15s-21.78-.17-24.33 1.75" fill="#EEA886"/><path d="M1454.33 1604.26s-6.46 8.18-12.7 11.73c-6.24 3.57-29.2 6.5-32.89 10.19-2.66 2.66-7.09 13.38 29.37 12.37 25.91-.71 38.41 1.63 41.19-2.77 2.77-4.4-4.02-32.44-4.02-32.44s-8.05 1.43-20.95.92" fill="#414773"/><path d="M1586.58 1252.52s10.44 32.43 9.06 60.39c-1.37 27.95 5.4 58.54 8.16 87.74 3.1 32.55 15.73 109.61 16.18 127.03.46 17.41-1.96 73.02-1.96 73.02l-25.29.6s-21.23-134.72-26.73-148.47-32.77-111.75-33.69-122.75c-.91-11 54.27-77.56 54.27-77.56" fill="#2D314F"/><path d="M1481.75 1249.14s-15.35 85.76-17.19 102.88c-1.83 17.1-3.06 82.79-3.97 93.48-.92 10.69-6.11 139.92-11 155.8h28.19s28.95-93.94 28.95-138.39c0-44.45 19.17-96.63 31.54-125.95 12.38-29.33 40.7-30.03 48.31-84.44 0 0-94.54-20.63-104.83-3.38" fill="#2D314F"/><path d="M1516.77 1030.66s3.18 9.26 0 15.86c-3.18 6.61 40.63 2.65 40.63 2.65s-1.98-13.65 3.75-24.88c5.72-11.23-44.38 6.37-44.38 6.37" fill="#EEA886"/><path d="M1588.61 1259.59s-15.76 16.19-108.28-2.52l1.42-7.93 105.17 3.97 1.69 6.48" fill="#2B3B57"/><path d="M1510.14 1048.67s-16.18 1.65-20.81 2.53c-4.62.88-35.74-5.57-42.12-6.23-6.39-.66-33.61-19.3-34.5-21.51-.87-2.2-16.55-41.896-17.43-50.48-.89-8.596-15.28-4.159-14.05 1.759 2.31 11.068 5.27 37.931 6.9 45.711 1.76 8.41 6.46 27.45 9.1 29.8 2.64 2.34 27.16 20.98 51.15 28.9 24.01 7.93 42.07 19.6 42.07 19.6h118.26s46.01-65.75 47-75.66c.98-9.9-32.13-75.739-38.74-83.997-6.61-8.255-16.16 2.695-16.16 2.695s19.8 58.065 22.43 66.322c2.65 8.25-23.01 44.52-30.06 44.63-7.05.11-25.13-2.2-33.17-2.53-8.04-.34-16.52-3.86-16.52-3.86l-33.35 2.32z" fill="#EEA886"/><path d="M1459.17 1092.58s14.48 9.63 15.8 26.13c1.32 16.52 6.61 42.6 9.25 51.51 2.64 8.93-2.31 73.64-2.97 78.26-.67 4.63 91.51 15.61 105.67 4.63 0 0 3.96-60.43 5.61-77.6 1.66-17.17 9.58-58.77 12.22-64.38 2.64-5.62 34.68-50.54 36-56.47 0 0-16.58-26.41-28.46-26.74 0 0-18.88 22.12-25.04 23.11-6.16.99-43.89-5.92-43.9-5.98 0 0-4.12 5.61-26.01-1 0 0-26.08 2.94-30.31 3.48-5.14.66-40.84-4.47-40.84-4.47s-14.33 24.18-11.82 36.39l24.8 13.13" fill="#FFC655"/><path d="M1396.1 978.135s-3.23-15.303.66-19.698c2.22-2.497 7.54-9.124 8.03-10.094.49-.974 6.2-4.26 6.2-5.842 0-1.582-5.59-3.526-10.45.974-4.87 4.501-7.91 5.475-9.86 4.986-1.95-.485-4.74-16.661-4.99-20.672-.24-4.016-1.79-14.599-4.3-13.865-2.51.726-2.39 5.349-2.39 5.349s-2.92-8.031-4.86-6.446c-1.95 1.578-1.7 5.475-1.7 5.475s-3.66-4.504-4.63-1.219c-.97 3.286 0 6.201 0 6.201s-3.77-2.067-4.01 3.041c-.25 5.108 1.09 20.069 3.77 25.422 2.67 5.353 12.69 19.348 13.88 24.814 1.2 5.471 14.65 1.574 14.65 1.574zm207.94-26.873s-11.01-18.496-14.75-20.145c-3.74-1.654-9.03-2.59-13.65-5.893-4.62-3.299-10.73-6.049-10.4-7.15.33-1.1 5.78-.662 11.61 1.869 5.84 2.531 8.39 1.308 8.94-.013.56-1.32-3.1-10.646-4.87-12.848-1.76-2.202-14.31-14.822-12.21-16.694 2.09-1.869 10.23 5.07 11.55 6.495 0 0-6.49-13.645-3.96-14.307 2.53-.662 7.26 4.18 7.26 4.18s-.54-11.663 12 7.267c0 0-2.64-6.276 1.22-4.18 3.85 2.088 7.59 13.869 8.8 19.812 1.21 5.939 6.71 24.874 11.39 29.438 4.68 4.568-12.93 12.169-12.93 12.169" fill="#EEA886"/><path d="M1561.15 1024.29s-5.8.51-18.13-3.74c-12.33-4.26-13.25-25.812-15.91-23.265-5.45 5.215-10.58 1.616-12.64-1.467 0 0 6.02-7.922 3.23-11.743-2.79-3.813-7.33-6.597-7.33-6.597s8.67-41.788 48.14-22.752c46.23 22.309 2.64 69.564 2.64 69.564z" fill="#353A3D"/><path d="M1516.77 1046.53l1.39-6.05s25.19-.51 38.93 1.48l1.45 7.22s-17.6 7.98-41.77-2.65z" fill="#D4D8E8"/><path d="M1522.98 992.001c2.29-3.796 10.75-6.361 11.74 4.404.78 8.355-15.11 17.465-15.26 9.685-.15-7.779 2-11.558 3.52-14.089z" fill="#EEA886"/><path d="M1395.5 974.666s-9.08.219-13.49 4.201c0 0-.29 2.531.73 4.518 0 0 7.88-3.674 13.92-4.362 0 0-.1-3.302-1.16-4.357z" fill="#E55353"/><path d="M1384.79 976.926a3.908 3.908 0 002.08 5.121 3.916 3.916 0 005.12-2.08 3.907 3.907 0 00-7.2-3.041z" fill="#353A3D"/><path d="M1161.57 654.004s12.99 22.018 18.47 25.616c7.45 4.88 2.78 9.815-.75 9.819-3.54.004-21.59 1.295-25.57-3.218-3.98-4.513-5.95-18.045-9.65-21.584-3.7-3.534-7.52-17.601 1.8-21.018 8.25-3.028 15.7 10.385 15.7 10.385" fill="#6069A8"/><path d="M1155.95 644.325s14.87 25.78 17.44 29.594c2.56 3.808-4.83 3.8-9.42 1.99-4.57-1.809-16.09-20.301-17.75-23.667-1.97-4.02-.35-8.621-.35-8.621l10.08.704" fill="#202338"/><path d="M1140.87 658.197l3.44 26.43 1.82.08-.57-19.015-4.69-7.495zm-108.11-4.193s12.99 22.018 18.47 25.616c7.45 4.88 2.78 9.815-.75 9.819-3.54.004-21.6 1.295-25.57-3.218-3.98-4.513-5.95-18.045-9.65-21.584-3.7-3.534-7.65-17.964 1.79-21.018 8.29-2.683 15.71 10.385 15.71 10.385" fill="#6069A8"/><path d="M1027.91 644.376s14.1 25.729 16.67 29.543c2.56 3.808-4.84 3.8-9.42 1.99-4.58-1.809-16.1-20.301-17.75-23.667-1.97-4.02-.36-8.621-.36-8.621l10.86.755" fill="#202338"/><path d="M1012.06 658.197l3.43 26.43 1.82.08-.56-19.015-4.69-7.495z" fill="#6069A8"/><path d="M975.125 453.633l117.545 53.552s13.12 4.269 14.59 18.833c4.59 45.47 38.61 117.602 38.61 117.602 10.91 5.332 10.08.705 10.08.705-6.88-22.077-15.25-113.059-18.24-149.638-.63-7.748-1.03-13.055-1.11-14.75-.06-1.156-1.32-2.662-3.5-4.425-16.13-13.08-82.5-40.155-82.5-40.155-49.83-1.266-75.475 18.276-75.475 18.276" fill="#202338"/><path d="M952.969 476.628c3.636 31.766 48.991 28.13 48.991 28.13h54.97s-14.43 32.124-20.02 59.221c-5.91 28.758-19.86 79.64-19.86 79.64s.91 1.725 10.86.755c0 0 43.15-85.984 59.67-107.601 3.55-4.653 13.74-29.906 15.49-44.968.6-5.066.23-8.98-1.67-10.566-1.91-1.599-6.29-4.611-12.13-8.297-17.22-10.857-47.12-27.569-63.78-31.31-22.32-5.016-57.604-14.413-57.604-14.413s-18.553 17.644-14.917 49.409" fill="#202338"/><path d="M990.379 231.932s-8.226-15.619-4.218-32.25c4.012-16.632 19.439-33.204 42.049-25.591 22.6 7.609 40.86 25.16 27.32 45.457-13.55 20.297 12.26 29.463 5.68 39.122-6.57 9.66-4.08 19.745-1.3 21.993 2.79 2.244 11.77 10.254 10.78 19.74-.99 9.482-43.85-27.64-43.85-27.64s-23.34-46.892-36.461-40.831z" fill="#464240"/><path d="M1059.26 431.549s-3.4 16.534-91.193-4.345c0 0 29.429-9.773 91.193 4.345z" fill="#EB4747"/><path d="M967.071 431.845a3437.556 3437.556 0 00-4.083 7.795c32.09.932 64.182 1.869 96.272 2.805-5.07-16.998-3.43-40.012-2.54-57.483 1.09-21.338 12.87-36.173 11.62-57.757 6.35 1.03 7.44 1.224 13.81 2.194-9.73-27.7-13.06-41.425-43.27-52.088-9.83-3.472-16.29-4.159-26.94-3.282-34.985 2.881-45.535 3.294-62.718 34.993 26.898 4.285 22.469 13.94 30.627 40.695 3.979 13.046 8.134 27.607 5.999 41.366-2.101 13.548-18.777 28.408-18.777 40.762" fill="#325BB3"/><path d="M1022.9 284.022c-14.32-2.704-11.27-10.668-11.27-10.668s.66-4.492.92-10.173c.07-1.451.1-2.987.1-4.543-.01-2.358-.12-4.771-.39-7.04-1.18-9.609 25.98-3.876 25.98-3.876s-1.56 19.445 2.18 25.27c3.75 5.829-3.2 13.733-17.52 11.03z" fill="#EEA886"/><path d="M995.585 273.302s28.885 33.344 39.555 41.071c0 0 12.27-11.081 4.71-40.345 0 0-13.95-6.985-44.265-.726zm.788-80.252s-15.001 28.898-.126 56.268c14.883 27.367 44.103-11.92 45.993-16.53 1.89-4.61 11.91-30.682-8.02-38.607-19.93-7.922-33.6-8.972-37.847-1.131z" fill="#EEA886"/><path d="M1001.36 203.306s-10.327 13.561-11.551 23.579c0 0-4.108-18.943 7.514-37.144 11.617-18.196 41.167-.865 45.127 6.407 3.96 7.272 15.56 13.679-3.93 44.926 0 0-35.04-24.342-37.16-37.768" fill="#464240"/><path d="M1025.33 252.202s-2.61 5.69-12.78 10.98c.07-1.451.1-2.987.09-4.543 0 0 6.89-.831 12.69-6.437" fill="#A77860"/><path d="M873.744 405.842s-7.13 3.172-10.517 1.734c-3.375-1.438-8.606-1.717-10.252-1.721-2.206-.004-9.108-2.468-8.994.232.123 2.695 11.209 4.576 13.479 5.42 2.269.839-6.788 5.825-7.627 8.04-.844 2.214 9.382 16.749 15.149 12.607 5.766-4.142 8.888-12.409 10.061-12.932 1.177-.527 4.332-2.847 4.332-2.847l-5.631-10.533" fill="#EEA886"/><path d="M850.921 418.26s-16.719 13.861-16.98 15.733c-.262 1.873.62 2.751 2.24 1.519s16.583-12.92 16.583-12.92-16.756 19.783-17.317 21.25c-.333.861 1.274 2.649 2.21 2.072.937-.578 18.752-19.205 18.752-19.205s-15.609 18.504-15.689 19.888c-.076 1.21 1.801 2.518 3.063 1.227 1.261-1.29 16.794-17.614 16.794-17.614s-10.441 14.206-9.8 15.455c.397.767 1.717 2.37 4.286-1.384 2.569-3.754 9.631-11.937 9.631-11.937l-13.773-14.084" fill="#EEA886"/><path d="M1051.19 504.763h-49.23s-45.355 3.632-48.987-28.13c-3.641-31.77 14.913-49.414 14.913-49.414s23.961 6.382 44.884 11.431c10.47-2.223 23.09-3.67 37.83-3.294 0 0 88.67 29.294 86 44.719 0 0-37.09-19.829-85.41 24.688" fill="#FF7E55"/><path d="M1019.15 449.751l93.86-1.383-47.39 24.064-46.47-22.681z" fill="#5E5853"/><path d="M1048.31 437.761s-21.12 8.174-47 .78l-1.21-9.663 53.3 2.965-5.09 5.918" fill="#325BB3"/><path d="M1065.62 472.432l-46.47-18.003v-4.677l50.15 18.086-3.68 4.594z" fill="#91887F"/><path d="M1047.98 442.232c-.25 3.467 3.26 5.968 6.46 4.602l5.45-2.324a3.887 3.887 0 002.31-4.189c-2.27-14.193-7.14-69.453-.02-78.94 2.63-3.501 4.26-6.576 5.19-9.258 4.7 12.11 10.54 27.712 12.87 36.102l44.34 58.989 14.88 3.77c-18.56-44.702-33.47-68.386-33.47-68.386-2.9-7.791-11.22-31.382-18.59-52.388-4.66-13.265-8.93-25.498-11.22-32.069a15.015 15.015 0 00-6.5-7.951c-6.86-4.108-18.31-10.579-28.69-15.615l-.12-.059-.99-.481-.03-.004v-.004c19.73 29.855 12.04 114.168 8.14 168.087l-.01.118zm-73.256-165.656c-6.324.974-22 16.193-30.319 31.55-9.5 17.53-19.174 37.486-26.421 44.049-13.327 12.076-50.636 54.75-52.408 53.716-.683-.396 10.23 12.743 11.618 13.354.692.308 61.317-52.218 67.139-60.22 5.526-7.588 20.287-39.43 24.704-38.73l.009.026.008.012c.337.722 5.704 12.363 10.795 29.383l.253.848c3.506 11.869 3.181 24.755 1.283 39.236-1.434 10.928-9.593 28.796-14.512 37.493-.595 1.046-.443 3.037.198 4.552.384.902.937 1.636 1.616 1.885l17.794 6.593 4.185 1.552c3.012 1.114 6.172.531 8.53-1.181a9.04 9.04 0 003.674-6.188c3.96-30.437 8.96-61.536 12.96-73.25 17.51-51.404-6.85-90.029-6.85-90.029s-28.709 3.278-34.256 5.349" fill="#EDDAD3"/><path d="M1065.62 472.432l27.92-76.224 90.01 1.468-26.61 70.242-91.32 4.514" fill="#6E6760"/><path d="M1122.34 429.927c-2.74 5.491-1.91 11.468 1.86 13.354 3.77 1.885 9.05-1.038 11.8-6.525 2.74-5.488 1.92-11.469-1.86-13.355-3.76-1.885-9.05 1.038-11.8 6.526z" fill="#807066"/><path d="M1027.46 221.83s5.76 8.968.44 16.712c-5.33 7.74 1.34 15.345 2.5 23.528 1.16 8.183-22.24 29.96 3.78 40.915 26.01 10.954 34.29-7.154 27.65-17.121-6.63-9.967-11.34-18.053-11.91-32.26-.55-14.21-5.23-36.359-22.46-31.774z" fill="#464240"/><path d="M839.033 114.197h110.868v97.276l-16.92-16.923h-93.948v-80.353z" fill="#78C2FF"/><defs><linearGradient id="paint0_linear" x1="485.022" y1="926.13" x2="1752.41" y2="926.13" gradientUnits="userSpaceOnUse"><stop stop-color="#40D5E6"/><stop offset="1" stop-color="#57F"/></linearGradient><linearGradient id="paint1_linear" x1="559.762" y1="870.034" x2="1617.91" y2="870.034" gradientUnits="userSpaceOnUse"><stop stop-color="#404B61"/><stop offset=".468" stop-color="#404B61"/><stop offset="1" stop-color="#2F3E5C"/></linearGradient><linearGradient id="paint2_linear" x1="1956.13" y1="1260.68" x2="2228.39" y2="1260.68" gradientUnits="userSpaceOnUse"><stop stop-color="#3076A1"/><stop offset="1" stop-color="#639C38"/></linearGradient><linearGradient id="paint3_linear" x1="1932.47" y1="1220.99" x2="2287.95" y2="1220.99" gradientUnits="userSpaceOnUse"><stop stop-color="#3076A1"/><stop offset="1" stop-color="#639C38"/></linearGradient><linearGradient id="paint4_linear" x1="1850.81" y1="1167.21" x2="2080.1" y2="1167.21" gradientUnits="userSpaceOnUse"><stop stop-color="#3076A1"/><stop offset="1" stop-color="#639C38"/></linearGradient><linearGradient id="paint5_linear" x1="1914.53" y1="1216.79" x2="1984.05" y2="1216.79" gradientUnits="userSpaceOnUse"><stop stop-color="#3076A1"/><stop offset="1" stop-color="#639C38"/></linearGradient><linearGradient id="paint6_linear" x1="1757.19" y1="1230.57" x2="1981.63" y2="1230.57" gradientUnits="userSpaceOnUse"><stop stop-color="#3076A1"/><stop offset="1" stop-color="#639C38"/></linearGradient><linearGradient id="paint7_linear" x1="1907.46" y1="1739" x2="2096.24" y2="1004.76" gradientUnits="userSpaceOnUse"><stop stop-color="#3076A1"/><stop offset="1" stop-color="#639C38"/></linearGradient><linearGradient id="paint8_linear" x1="1976.1" y1="1358.4" x2="2059.07" y2="1358.4" gradientUnits="userSpaceOnUse"><stop stop-color="#3076A1"/><stop offset="1" stop-color="#639C38"/></linearGradient><linearGradient id="paint9_linear" x1="1904.86" y1="1507.97" x2="2058.25" y2="1507.97" gradientUnits="userSpaceOnUse"><stop stop-color="#FF9340"/><stop offset="1" stop-color="#FFCE45"/></linearGradient><linearGradient id="paint10_linear" x1="1904.86" y1="1507.97" x2="2058.25" y2="1507.97" gradientUnits="userSpaceOnUse"><stop stop-color="#C97332"/><stop offset="1" stop-color="#FFCE45"/></linearGradient><linearGradient id="paint11_linear" x1="1090.02" y1="1181.51" x2="1090.02" y2="1884.13" gradientUnits="userSpaceOnUse"><stop stop-color="#40D5E6"/><stop offset="1" stop-color="#57F"/></linearGradient><linearGradient id="paint12_linear" x1="-249.188" y1="1711.12" x2="1140.77" y2="1711.12" gradientUnits="userSpaceOnUse"><stop stop-color="#40D5E6"/><stop offset="1" stop-color="#57F"/></linearGradient><linearGradient id="paint13_linear" x1="485.014" y1="926.127" x2="1752.41" y2="926.127" gradientUnits="userSpaceOnUse"><stop stop-color="#D1F5F9"/><stop offset="1" stop-color="#D6DEFF"/></linearGradient><linearGradient id="paint14_linear" x1="559.763" y1="870.032" x2="1617.91" y2="870.032" gradientUnits="userSpaceOnUse"><stop stop-color="#D1D4D9"/><stop offset=".468" stop-color="#D1D4D9"/><stop offset="1" stop-color="#CDD1D8"/></linearGradient><linearGradient id="paint15_linear" x1="1757.19" y1="1230.57" x2="1981.63" y2="1230.57" gradientUnits="userSpaceOnUse"><stop stop-color="#CDDEE9"/><stop offset="1" stop-color="#DAE7CF"/></linearGradient></defs></svg>