<svg fill="#fff" xmlns="http://www.w3.org/2000/svg" viewBox="0 0 64 64" width="512" height="512"><path d="M17 54h-1.138A6.981 6.981 0 0017 50.183v-2.515a4.983 4.983 0 00-.271-1.625l-3.093-8.993a3.006 3.006 0 00-2.036-2.1l1.885-7.043a2.966 2.966 0 00-1.19-3.242 2.8 2.8 0 00-.9-.428 2.83 2.83 0 00-.8-.111A2.966 2.966 0 007.709 26.3L2.373 42.7a5.048 5.048 0 00-.136 2.581l1.542 5.992A6.991 6.991 0 014 53.013V54H3a1 1 0 00-1 1v6a1 1 0 001 1h14a1 1 0 001-1v-6a1 1 0 00-1-1zM5.716 50.77l-1.53-5.939a3 3 0 01.089-1.517L9.628 26.86a.988.988 0 011.221-.694.884.884 0 01.306.146.983.983 0 01.4 1.079L9.49 35.1a2.972 2.972 0 00-1.75 2.72 2.752 2.752 0 00.1.777l1.81 6.762a1 1 0 101.932-.518l-1.813-6.785a.837.837 0 01-.029-.236.971.971 0 01.663-.93 2.83 2.83 0 01.133-.043 1.013 1.013 0 011.188.788l3.113 9.059a2.981 2.981 0 01.163.974v2.515a4.987 4.987 0 01-.84 2.774L13.465 54H6v-.987a9.032 9.032 0 00-.284-2.243zM16 60H4v-4h12zm30-5v6a1 1 0 001 1h14a1 1 0 001-1v-6a1 1 0 00-1-1h-1v-.987a6.991 6.991 0 01.221-1.745l1.542-5.992a5.048 5.048 0 00-.136-2.581L56.291 26.3a2.966 2.966 0 00-2.881-2.17 2.83 2.83 0 00-.8.111 2.8 2.8 0 00-.9.428 2.966 2.966 0 00-1.19 3.242l1.88 7.043a3.006 3.006 0 00-2.036 2.1l-3.093 8.993A4.983 4.983 0 0047 47.668v2.515A6.981 6.981 0 0048.138 54H47a1 1 0 00-1 1zm12-1.987V54h-7.465l-.695-1.043a4.987 4.987 0 01-.84-2.774v-2.515a2.981 2.981 0 01.163-.974l3.113-9.059a1.013 1.013 0 011.188-.788c.015 0 .11.035.133.043a.971.971 0 01.663.93.837.837 0 01-.029.236l-1.817 6.785a1 1 0 001.932.518l1.81-6.762a2.752 2.752 0 00.1-.777 2.972 2.972 0 00-1.746-2.72l-2.064-7.71a.983.983 0 01.4-1.079.884.884 0 01.306-.146.988.988 0 011.221.694l5.353 16.454a3 3 0 01.089 1.517l-1.53 5.939A9.032 9.032 0 0058 53.013zM48 56h12v4H48zm.4-46.916l-16-7a1 1 0 00-.8 0l-16 7A1 1 0 0015 10v20a1 1 0 00.546.891l16 8.14a1 1 0 00.454.109 1.011 1.011 0 00.449-.106l16-8.04A1 1 0 0049 30.1V10a1 1 0 00-.6-.916zM32 4.091L45.505 10 32 15.909l-3.51-1.536 5.341-2.337a1 1 0 000-1.832L29.54 8.333a1 1 0 00-.8 0l-7.031 3.073L18.5 10zm-9 10.063l2 .875v4.353l-2-1zm1.2-1.656l4.936-2.157 1.79.781L26 13.281zm-7.2-.969l4 1.75V19a1 1 0 00.553.895l4 2A1 1 0 0027 21v-5.1l4 1.75v18.859l-14-7.122zm16 24.989V17.654l14-6.125v17.954z"/><path d="M38.558 29.233l-4.007 2.014a1 1 0 00.9 1.787l4.007-2.014a1 1 0 00-.9-1.787zM35 29.14a1 1 0 00.448-.106l3.95-1.985a1 1 0 10-.9-1.787l-3.949 1.985A1 1 0 0035 29.14z"/></svg>