<svg xmlns="http://www.w3.org/2000/svg" height="512" width="512"><g fill="#68bc40"><circle cx="255.993" cy="111.875" r="16" data-original="#68BC40" class="active-path" data-old_color="#68BC40" fill="#04458f"/><circle cx="183.993" cy="131.167" r="16" data-original="#68BC40" class="active-path" data-old_color="#68BC40" fill="#04458f"/><circle cx="131.285" cy="183.875" r="16" data-original="#68BC40" class="active-path" data-old_color="#68BC40" fill="#04458f"/><circle cx="111.993" cy="255.875" r="16" data-original="#68BC40" class="active-path" data-old_color="#68BC40" fill="#04458f"/><circle cx="131.285" cy="327.875" r="16" data-original="#68BC40" class="active-path" data-old_color="#68BC40" fill="#04458f"/><circle cx="183.993" cy="380.583" r="16" data-original="#68BC40" class="active-path" data-old_color="#68BC40" fill="#04458f"/><circle cx="255.993" cy="399.875" r="16" data-original="#68BC40" class="active-path" data-old_color="#68BC40" fill="#04458f"/><circle cx="327.993" cy="380.583" r="16" data-original="#68BC40" class="active-path" data-old_color="#68BC40" fill="#04458f"/><circle cx="380.7" cy="327.875" r="16" data-original="#68BC40" class="active-path" data-old_color="#68BC40" fill="#04458f"/><circle cx="399.993" cy="255.875" r="16" data-original="#68BC40" class="active-path" data-old_color="#68BC40" fill="#04458f"/><circle cx="380.7" cy="183.875" r="16" data-original="#68BC40" class="active-path" data-old_color="#68BC40" fill="#04458f"/><circle cx="327.993" cy="131.167" r="16" data-original="#68BC40" class="active-path" data-old_color="#68BC40" fill="#04458f"/></g><circle cx="255.993" cy="255.875" fill="#04458f" r="104" data-original="#A6C72A" data-old_color="#a6c72a"/><circle cx="319.993" cy="255.875" fill="#04458f" r="16" data-original="#55A452" data-old_color="#55a452"/><circle cx="287.993" cy="200.449" fill="#04458f" r="16" data-original="#55A452" data-old_color="#55a452"/><circle cx="223.993" cy="200.449" fill="#04458f" r="16" data-original="#55A452" data-old_color="#55a452"/><circle cx="191.993" cy="255.875" fill="#04458f" r="16" data-original="#55A452" data-old_color="#55a452"/><circle cx="223.993" cy="311.301" fill="#04458f" r="16" data-original="#55A452" data-old_color="#55a452"/><circle cx="287.993" cy="311.301" fill="#04458f" r="16" data-original="#55A452" data-old_color="#55a452"/><path d="M247.993 127.875h16v32h-16z" fill="#04458f" data-original="#68BC40" class="active-path" data-old_color="#68bc40"/><path d="M255.993 135.875a24 24 0 1124-24 24.027 24.027 0 01-24 24zm0-32a8 8 0 108 8 8.01 8.01 0 00-8-8z" fill="#04458f" data-original="#A6C72A" data-old_color="#a6c72a"/><path d="M185.06 149.02l13.855-8 16 27.712-13.856 8z" fill="#04458f" data-original="#68BC40" class="active-path" data-old_color="#68bc40"/><path d="M184.031 155.178a24.148 24.148 0 01-6.25-.828 24 24 0 1126.996-35.183 24.017 24.017 0 01-20.746 36.01zm-.052-32.01a7.998 7.998 0 106.942 3.999 8.006 8.006 0 00-6.942-3.998z" fill="#04458f" data-original="#A6C72A" data-old_color="#a6c72a"/><path d="M141.137 198.805l8-13.855 27.711 16-8 13.855z" fill="#04458f" data-original="#68BC40" class="active-path" data-old_color="#68bc40"/><path d="M131.244 207.87a23.998 23.998 0 1112.04-44.78 23.997 23.997 0 01-12.04 44.78zm.054-31.993a7.998 7.998 0 103.987 1.07 8.004 8.004 0 00-3.987-1.07z" fill="#04458f" data-original="#A6C72A" data-old_color="#a6c72a"/><path d="M127.993 247.875h32v16h-32z" fill="#04458f" data-original="#68BC40" class="active-path" data-old_color="#68bc40"/><path d="M111.993 279.875a24 24 0 1124-24 24.027 24.027 0 01-24 24zm0-32a8 8 0 108 8 8.01 8.01 0 00-8-8z" fill="#04458f" data-original="#A6C72A" data-old_color="#a6c72a"/><path d="M141.133 312.948l27.712-16 8 13.855-27.713 16z" fill="#04458f" data-original="#68BC40" class="active-path" data-old_color="#68bc40"/><path d="M131.326 351.87a23.992 23.992 0 1111.959-3.21 24.016 24.016 0 01-11.96 3.21zm-.055-31.993a7.95 7.95 0 00-3.986 1.07 8.005 8.005 0 103.986-1.07z" fill="#04458f" data-original="#A6C72A" data-old_color="#a6c72a"/><path d="M185.055 362.732l16-27.712 13.856 8-16 27.712z" fill="#04458f" data-original="#68BC40" class="active-path" data-old_color="#68bc40"/><path d="M183.951 404.578a23.994 23.994 0 1120.826-11.995 23.855 23.855 0 01-20.826 11.995zm.054-31.999a8.043 8.043 0 00-2.083.276 7.949 7.949 0 00-4.858 3.728 7.989 7.989 0 106.94-4.004z" fill="#04458f" data-original="#A6C72A" data-old_color="#a6c72a"/><path d="M247.993 351.875h16v32h-16z" fill="#04458f" data-original="#68BC40" class="active-path" data-old_color="#68bc40"/><path d="M255.993 423.875a24 24 0 1124-24 24.027 24.027 0 01-24 24zm0-32a8 8 0 108 8 8.01 8.01 0 00-8-8z" fill="#04458f" data-original="#A6C72A" data-old_color="#a6c72a"/><path d="M297.056 343.004l13.856-8 16 27.712-13.856 8z" fill="#04458f" data-original="#68BC40" class="active-path" data-old_color="#68bc40"/><path d="M328.033 404.578a24.016 24.016 0 01-20.825-11.995 24.013 24.013 0 1120.825 11.995zm-6.969-19.995a8 8 0 10-.799-6.071 8.009 8.009 0 00.8 6.071z" fill="#04458f" data-original="#A6C72A" data-old_color="#a6c72a"/><path d="M335.123 310.809l8-13.855 27.711 16-8 13.855z" fill="#04458f" data-original="#68BC40" class="active-path" data-old_color="#68bc40"/><path d="M380.66 351.87a23.847 23.847 0 01-11.96-3.21 24.014 24.014 0 1111.96 3.21zm-3.96-17.067z" fill="#04458f" data-original="#A6C72A" data-old_color="#a6c72a"/><path d="M351.993 247.875h32v16h-32z" fill="#04458f" data-original="#68BC40" class="active-path" data-old_color="#68bc40"/><path d="M399.993 279.875a24 24 0 1124-24 24.027 24.027 0 01-24 24zm0-32a8 8 0 108 8 8.01 8.01 0 00-8-8z" fill="#04458f" data-original="#A6C72A" data-old_color="#a6c72a"/><path d="M335.123 200.954l27.712-16 8 13.855-27.712 16z" fill="#04458f" data-original="#68BC40" class="active-path" data-old_color="#68bc40"/><path d="M380.74 207.87a23.985 23.985 0 1111.96-3.21 24.015 24.015 0 01-11.96 3.21zm-.054-31.993a7.999 7.999 0 104.014 14.926 7.998 7.998 0 00-4.014-14.926z" fill="#04458f" data-original="#A6C72A" data-old_color="#a6c72a"/><path d="M297.06 168.745l16-27.712 13.856 8-16 27.712z" fill="#04458f" data-original="#68BC40" class="active-path" data-old_color="#68bc40"/><path d="M327.954 155.178a24.072 24.072 0 116.25-.828 24.145 24.145 0 01-6.25.828zm.052-32.01a7.999 7.999 0 106.915 11.999 7.997 7.997 0 00-6.915-11.998z" fill="#04458f" data-original="#A6C72A" data-old_color="#a6c72a"/><path d="M255.993 279.875a24 24 0 1124-24 24.027 24.027 0 01-24 24zm0-32a8 8 0 108 8 8.01 8.01 0 00-8-8zm32 0h16v16h-16z" fill="#04458f" data-original="#55A452" data-old_color="#55a452"/><path d="M319.993 279.875a24 24 0 1124-24 24.027 24.027 0 01-24 24zm0-32a8 8 0 108 8 8.01 8.01 0 00-8-8z" fill="#04458f" data-original="#68BC40" class="active-path" data-old_color="#68bc40"/><path d="M265.059 224.17l8-13.856 13.856 8-8 13.856z" fill="#04458f" data-original="#55A452" data-old_color="#55a452"/><path d="M287.952 224.444a23.998 23.998 0 1112.04-44.78l.001.001a23.996 23.996 0 01-12.04 44.78zm.054-31.993a7.997 7.997 0 103.986 1.07 8.005 8.005 0 00-3.986-1.07z" fill="#04458f" data-original="#68BC40" class="active-path" data-old_color="#68bc40"/><path d="M225.058 218.3l13.856-8 8 13.857-13.856 8z" fill="#04458f" data-original="#55A452" data-old_color="#55a452"/><path d="M224.033 224.444a23.996 23.996 0 01-12.041-44.779l.001-.001a24 24 0 1112.04 44.78zm-4.04-30.923a8 8 0 1010.928 2.928 8.01 8.01 0 00-10.928-2.928z" fill="#04458f" data-original="#68BC40" class="active-path" data-old_color="#68bc40"/><path d="M207.993 247.875h16v16h-16z" fill="#04458f" data-original="#55A452" data-old_color="#55a452"/><path d="M191.993 279.875a24 24 0 1124-24 24.027 24.027 0 01-24 24zm0-32a8 8 0 108 8 8.01 8.01 0 00-8-8z" fill="#04458f" data-original="#68BC40" class="active-path" data-old_color="#68bc40"/><path d="M225.057 293.45l8-13.855 13.856 8-8 13.856z" fill="#04458f" data-original="#55A452" data-old_color="#55a452"/><path d="M223.951 335.296a23.855 23.855 0 01-11.958-3.21l-.001-.001a24.013 24.013 0 1111.96 3.21zm-3.958-17.067a8 8 0 10-2.929-10.928 8.011 8.011 0 002.929 10.928z" fill="#04458f" data-original="#68BC40" class="active-path" data-old_color="#68bc40"/><path d="M265.057 287.58l13.856-8 8 13.857-13.856 8z" fill="#04458f" data-original="#55A452" data-old_color="#55a452"/><path d="M288.033 335.296a23.993 23.993 0 1111.96-3.211l-.001.001a23.857 23.857 0 01-11.959 3.21zm-.054-31.993a8 8 0 104.013 14.926 7.999 7.999 0 00-4.013-14.926z" fill="#04458f" data-original="#68BC40" class="active-path" data-old_color="#68bc40"/><path d="M256 24C127.87 24 24 127.87 24 256s103.87 232 232 232 232-103.87 232-232S384.13 24 256 24zM56 256c0-110.46 89.54-200 200-200a199.184 199.184 0 01129.66 47.72L103.72 385.66A199.186 199.186 0 0156 256zm200 200a199.183 199.183 0 01-129.66-47.72l281.94-281.94A199.185 199.185 0 01456 256c0 110.46-89.54 200-200 200z" fill="#04458f" data-original="#E84042" data-old_color="#e84042"/></svg>