<?xml version="1.0"?>
<svg xmlns="http://www.w3.org/2000/svg" height="512px" viewBox="0 0 512 512" width="512px" class=""><g><g id="Flat"><g fill="#68bc40"><circle cx="255.993" cy="111.875" r="16" data-original="#68BC40" class="active-path" style="fill:#04458F" data-old_color="#68BC40"/><circle cx="183.993" cy="131.167" r="16" data-original="#68BC40" class="active-path" style="fill:#04458F" data-old_color="#68BC40"/><circle cx="131.285" cy="183.875" r="16" data-original="#68BC40" class="active-path" style="fill:#04458F" data-old_color="#68BC40"/><circle cx="111.993" cy="255.875" r="16" data-original="#68BC40" class="active-path" style="fill:#04458F" data-old_color="#68BC40"/><circle cx="131.285" cy="327.875" r="16" data-original="#68BC40" class="active-path" style="fill:#04458F" data-old_color="#68BC40"/><circle cx="183.993" cy="380.583" r="16" data-original="#68BC40" class="active-path" style="fill:#04458F" data-old_color="#68BC40"/><circle cx="255.993" cy="399.875" r="16" data-original="#68BC40" class="active-path" style="fill:#04458F" data-old_color="#68BC40"/><circle cx="327.993" cy="380.583" r="16" data-original="#68BC40" class="active-path" style="fill:#04458F" data-old_color="#68BC40"/><circle cx="380.7" cy="327.875" r="16" data-original="#68BC40" class="active-path" style="fill:#04458F" data-old_color="#68BC40"/><circle cx="399.993" cy="255.875" r="16" data-original="#68BC40" class="active-path" style="fill:#04458F" data-old_color="#68BC40"/><circle cx="380.7" cy="183.875" r="16" data-original="#68BC40" class="active-path" style="fill:#04458F" data-old_color="#68BC40"/><circle cx="327.993" cy="131.167" r="16" data-original="#68BC40" class="active-path" style="fill:#04458F" data-old_color="#68BC40"/></g><circle cx="255.993" cy="255.875" fill="#a6c72a" r="104" data-original="#A6C72A" class="" style="fill:#04458F" data-old_color="#a6c72a"/><circle cx="319.993" cy="255.875" fill="#55a452" r="16" data-original="#55A452" class="" style="fill:#04458F" data-old_color="#55a452"/><circle cx="287.993" cy="200.449" fill="#55a452" r="16" data-original="#55A452" class="" style="fill:#04458F" data-old_color="#55a452"/><circle cx="223.993" cy="200.449" fill="#55a452" r="16" data-original="#55A452" class="" style="fill:#04458F" data-old_color="#55a452"/><circle cx="191.993" cy="255.875" fill="#55a452" r="16" data-original="#55A452" class="" style="fill:#04458F" data-old_color="#55a452"/><circle cx="223.993" cy="311.301" fill="#55a452" r="16" data-original="#55A452" class="" style="fill:#04458F" data-old_color="#55a452"/><circle cx="287.993" cy="311.301" fill="#55a452" r="16" data-original="#55A452" class="" style="fill:#04458F" data-old_color="#55a452"/><path d="m247.993 127.875h16v32h-16z" fill="#68bc40" data-original="#68BC40" class="active-path" style="fill:#04458F" data-old_color="#68bc40"/><path d="m255.9925 135.875a24 24 0 1 1 24-24 24.02718 24.02718 0 0 1 -24 24zm0-32a8 8 0 1 0 8 8 8.00917 8.00917 0 0 0 -8-8z" fill="#a6c72a" data-original="#A6C72A" class="" style="fill:#04458F" data-old_color="#a6c72a"/><path d="m191.992 142.88h16v32h-16z" fill="#68bc40" transform="matrix(.866 -.5 .5 .866 -52.646 121.282)" data-original="#68BC40" class="active-path" style="fill:#04458F" data-old_color="#68bc40"/><path d="m184.03107 155.17773a24.148 24.148 0 0 1 -6.25048-.82812 24.00017 24.00017 0 1 1 26.99658-35.18261 24.01679 24.01679 0 0 1 -20.7461 36.01074zm-.05224-32.00878a7.99817 7.99817 0 1 0 6.94189 3.998 8.0057 8.0057 0 0 0 -6.94189-3.99795z" fill="#a6c72a" data-original="#A6C72A" class="" style="fill:#04458F" data-old_color="#a6c72a"/><path d="m150.998 183.875h15.999v32h-15.999z" fill="#68bc40" transform="matrix(.5 -.866 .866 .5 -93.598 237.632)" data-original="#68BC40" class="active-path" style="fill:#04458F" data-old_color="#68bc40"/><path d="m131.24445 207.87012a23.998 23.998 0 1 1 12.04-44.78028h.00049a23.99674 23.99674 0 0 1 -12.04053 44.78028zm.05371-31.99317a7.99751 7.99751 0 1 0 3.98682 1.07032 8.00432 8.00432 0 0 0 -3.98682-1.07027z" fill="#a6c72a" data-original="#A6C72A" class="" style="fill:#04458F" data-old_color="#a6c72a"/><path d="m127.993 247.875h32v16h-32z" fill="#68bc40" data-original="#68BC40" class="active-path" style="fill:#04458F" data-old_color="#68bc40"/><path d="m111.9925 279.875a24 24 0 1 1 24-24 24.02718 24.02718 0 0 1 -24 24zm0-32a8 8 0 1 0 8 8 8.00917 8.00917 0 0 0 -8-8z" fill="#a6c72a" data-original="#A6C72A" class="" style="fill:#04458F" data-old_color="#a6c72a"/><path d="m142.998 303.875h32v15.999h-32z" fill="#68bc40" transform="matrix(.866 -.5 .5 .866 -134.641 121.291)" data-original="#68BC40" class="active-path" style="fill:#04458F" data-old_color="#68bc40"/><path d="m131.32551 351.87012a23.99172 23.99172 0 1 1 11.95947-3.21 24.01551 24.01551 0 0 1 -11.95947 3.21zm-.0542-31.99317a7.94971 7.94971 0 0 0 -3.98633 1.07032h-.00049a8.00494 8.00494 0 1 0 3.98682-1.07032z" fill="#a6c72a" data-original="#A6C72A" class="" style="fill:#04458F" data-old_color="#a6c72a"/><path d="m183.992 344.87h32v16h-32z" fill="#68bc40" transform="matrix(.5 -.866 .866 .5 -205.598 349.634)" data-original="#68BC40" class="active-path" style="fill:#04458F" data-old_color="#68bc40"/><path d="m183.95148 404.57812a23.99425 23.99425 0 1 1 20.82569-11.99512 23.85486 23.85486 0 0 1 -20.82569 11.99512zm.05323-31.999a8.04334 8.04334 0 0 0 -2.08252.27637 7.94851 7.94851 0 0 0 -4.85791 3.72754 7.989 7.989 0 1 0 6.94043-4.00391z" fill="#a6c72a" data-original="#A6C72A" class="" style="fill:#04458F" data-old_color="#a6c72a"/><path d="m247.993 351.875h16v32h-16z" fill="#68bc40" data-original="#68BC40" class="active-path" style="fill:#04458F" data-old_color="#68bc40"/><path d="m255.9925 423.875a24 24 0 1 1 24-24 24.02718 24.02718 0 0 1 -24 24zm0-32a8 8 0 1 0 8 8 8.00917 8.00917 0 0 0 -8-8z" fill="#a6c72a" data-original="#A6C72A" class="" style="fill:#04458F" data-old_color="#a6c72a"/><path d="m303.992 336.87h16v32h-16z" fill="#68bc40" transform="matrix(.866 -.5 .5 .866 -134.636 203.271)" data-original="#68BC40" class="active-path" style="fill:#04458F" data-old_color="#68bc40"/><path d="m328.033 404.57812a24.01609 24.01609 0 0 1 -20.8252-11.99511 24.01307 24.01307 0 1 1 20.8252 11.99511zm-6.96872-19.99512a7.99958 7.99958 0 1 0 -.79932-6.07129 8.00889 8.00889 0 0 0 .79932 6.07129z" fill="#a6c72a" data-original="#A6C72A" class="" style="fill:#04458F" data-old_color="#a6c72a"/><path d="m344.988 295.875h15.999v32h-15.999z" fill="#68bc40" transform="matrix(.5 -.866 .866 .5 -93.599 461.631)" data-original="#68BC40" class="active-path" style="fill:#04458F" data-old_color="#68bc40"/><path d="m380.66 351.87012a23.84726 23.84726 0 0 1 -11.95947-3.21h-.00053a24.01448 24.01448 0 1 1 11.96 3.21zm-3.96045-17.06739a5.85613 5.85613 0 1 1 .00049 0z" fill="#a6c72a" data-original="#A6C72A" class="" style="fill:#04458F" data-old_color="#a6c72a"/><path d="m351.993 247.875h32v16h-32z" fill="#68bc40" data-original="#68BC40" class="active-path" style="fill:#04458F" data-old_color="#68bc40"/><path d="m399.9925 279.875a24 24 0 1 1 24-24 24.02718 24.02718 0 0 1 -24 24zm0-32a8 8 0 1 0 8 8 8.00917 8.00917 0 0 0 -8-8z" fill="#a6c72a" data-original="#A6C72A" class="" style="fill:#04458F" data-old_color="#a6c72a"/><path d="m336.988 191.875h32v15.999h-32z" fill="#68bc40" transform="matrix(.866 -.5 .5 .866 -52.646 203.284)" data-original="#68BC40" class="active-path" style="fill:#04458F" data-old_color="#68bc40"/><path d="m380.74055 207.87012a23.98477 23.98477 0 1 1 11.959-3.21 24.0152 24.0152 0 0 1 -11.959 3.21zm-.0542-31.99317a7.999 7.999 0 1 0 4.01365 14.92578h.00049a7.99847 7.99847 0 0 0 -4.01416-14.92578z" fill="#a6c72a" data-original="#A6C72A" class="" style="fill:#04458F" data-old_color="#a6c72a"/><path d="m295.992 150.88h32v16h-32z" fill="#68bc40" transform="matrix(.5 -.866 .866 .5 18.402 349.634)" data-original="#68BC40" class="active-path" style="fill:#04458F" data-old_color="#68bc40"/><path d="m327.95393 155.17773a24.07213 24.07213 0 1 1 6.25048-.82812 24.14518 24.14518 0 0 1 -6.25048.82812zm.05224-32.00878a7.999 7.999 0 1 0 6.91455 11.998 7.99666 7.99666 0 0 0 -6.91455-11.998z" fill="#a6c72a" data-original="#A6C72A" class="" style="fill:#04458F" data-old_color="#a6c72a"/><path d="m255.9925 279.875a24 24 0 1 1 24-24 24.02718 24.02718 0 0 1 -24 24zm0-32a8 8 0 1 0 8 8 8.00917 8.00917 0 0 0 -8-8z" fill="#55a452" data-original="#55A452" class="" style="fill:#04458F" data-old_color="#55a452"/><path d="m287.993 247.875h16v16h-16z" fill="#55a452" data-original="#55A452" class="" style="fill:#04458F" data-old_color="#55a452"/><path d="m319.9925 279.875a24 24 0 1 1 24-24 24.02718 24.02718 0 0 1 -24 24zm0-32a8 8 0 1 0 8 8 8.00917 8.00917 0 0 0 -8-8z" fill="#68bc40" data-original="#68BC40" class="active-path" style="fill:#04458F" data-old_color="#68bc40"/><path d="m267.992 213.234h16v16h-16z" fill="#55a452" transform="matrix(.5 -.866 .866 .5 -53.598 349.634)" data-original="#55A452" class="" style="fill:#04458F" data-old_color="#55a452"/><path d="m287.95246 224.44434a23.998 23.998 0 1 1 12.03954-44.78028l.001.001a23.99636 23.99636 0 0 1 -12.04053 44.7793zm.05371-31.99317a7.99668 7.99668 0 1 0 3.98584 1.06934 8.0051 8.0051 0 0 0 -3.98584-1.06934z" fill="#68bc40" data-original="#68BC40" class="active-path" style="fill:#04458F" data-old_color="#68bc40"/><path d="m227.992 213.234h16v16h-16z" fill="#55a452" transform="matrix(.866 -.5 .5 .866 -79 147.636)" data-original="#55A452" class="" style="fill:#04458F" data-old_color="#55a452"/><path d="m224.03254 224.44434a23.99636 23.99636 0 0 1 -12.04054-44.77934l.001-.001a24.00023 24.00023 0 1 1 12.03955 44.78028zm-4.03954-30.92383a8.00045 8.00045 0 1 0 10.92773 2.92871 8.00942 8.00942 0 0 0 -10.92773-2.92871z" fill="#68bc40" data-original="#68BC40" class="active-path" style="fill:#04458F" data-old_color="#68bc40"/><path d="m207.993 247.875h16v16h-16z" fill="#55a452" data-original="#55A452" class="" style="fill:#04458F" data-old_color="#55a452"/><path d="m191.9925 279.875a24 24 0 1 1 24-24 24.02718 24.02718 0 0 1 -24 24zm0-32a8 8 0 1 0 8 8 8.00917 8.00917 0 0 0 -8-8z" fill="#68bc40" data-original="#68BC40" class="active-path" style="fill:#04458F" data-old_color="#68bc40"/><path d="m227.992 282.516h16v16h-16z" fill="#55a452" transform="matrix(.5 -.866 .866 .5 -133.598 349.634)" data-original="#55A452" class="" style="fill:#04458F" data-old_color="#55a452"/><path d="m223.95148 335.2959a23.855 23.855 0 0 1 -11.95849-3.21l-.001-.001a24.013 24.013 0 1 1 11.95947 3.21094zm-3.95848-17.06641a8 8 0 1 0 -2.92871-10.92871 8.01147 8.01147 0 0 0 2.92871 10.92871z" fill="#68bc40" data-original="#68BC40" class="active-path" style="fill:#04458F" data-old_color="#68bc40"/><path d="m267.992 282.516h16v16h-16z" fill="#55a452" transform="matrix(.866 -.5 .5 .866 -108.282 176.918)" data-original="#55A452" class="" style="fill:#04458F" data-old_color="#55a452"/><path d="m288.033 335.2959a23.99255 23.99255 0 1 1 11.96-3.21094l-.001.001a23.85673 23.85673 0 0 1 -11.959 3.20994zm-.0542-31.99317a7.99925 7.99925 0 1 0 4.01318 14.92676 7.9987 7.9987 0 0 0 -4.01318-14.92676z" fill="#68bc40" data-original="#68BC40" class="active-path" style="fill:#04458F" data-old_color="#68bc40"/><path d="m256 24c-128.13 0-232 103.87012-232 232s103.87 232 232 232 232-103.87012 232-232-103.87-232-232-232zm-200 232c0-110.46 89.54-200 200-200a199.18433 199.18433 0 0 1 129.65991 47.72l-281.93991 281.94016a199.186 199.186 0 0 1 -47.72-129.66016zm200 200a199.18325 199.18325 0 0 1 -129.65991-47.72021l281.93991-281.93995a199.18549 199.18549 0 0 1 47.72 129.66016c0 110.46-89.54 200-200 200z" fill="#e84042" data-original="#E84042" class="" style="fill:#04458F" data-old_color="#e84042"/></g></g> </svg>
