<svg xmlns="http://www.w3.org/2000/svg" height="512" viewBox="0 -42 426.667 426" width="512"><path d="M298.668.332h-21.336C265.535.332 256 9.891 256 21.668 256 33.441 265.535 43 277.332 43h21.336C345.727 43 384 81.273 384 128.332v43.758a53.162 53.162 0 00-10.668-1.09h-64C279.914 171 256 194.938 256 224.332v64c0 29.398 23.914 53.336 53.332 53.336h64c29.422 0 53.336-23.938 53.336-53.336v-160c0-70.59-57.41-128-128-128zm-256 0H21.332C9.535.332 0 9.891 0 21.668 0 33.441 9.535 43 21.332 43h21.336C89.727 43 128 81.273 128 128.332v43.758a53.162 53.162 0 00-10.668-1.09h-64C23.914 171 0 194.938 0 224.332v64c0 29.398 23.914 53.336 53.332 53.336h64c29.422 0 53.336-23.938 53.336-53.336v-160c0-70.59-57.41-128-128-128zm0 0" data-original="#000000" class="active-path" data-old_color="#000000" fill="#D7D7FF"/></svg>