<svg width="615" height="614" fill="none" xmlns="http://www.w3.org/2000/svg"><g clip-path="url(#clip0)"><path d="M524.185 311.055c119.914 69.232 119.914 181.481-.001 250.713-119.916 69.233-314.335 69.233-434.249.001-119.914-69.231-119.914-181.481.001-250.713 119.915-69.233 314.335-69.233 434.249-.001z" fill="#F3F2F1"/><path d="M550.417 489.016c20.114 12.496 20.114 32.753 0 45.249-20.113 12.495-52.722 12.497-72.836 0-20.113-12.496-20.112-32.753 0-45.249 20.114-12.495 52.723-12.496 72.836 0z" fill="#E2E2E0"/><path d="M308.201 422.82l.49-8.877s-.832-16.411-12.811-26.196c-10.545-8.618-17.781-4.494-17.439 0 .371 4.86 6.848 9.078 14.476 14.793 13.412 10.053 15.284 20.28 15.284 20.28" fill="#26B6A6"/><path d="M306.4 417.984c-1.935-3.916-5.831-9.709-13.483-15.444-7.628-5.715-14.105-9.933-14.476-14.793a3.849 3.849 0 01-.012-.302c-.002-2.464 2.267-4.732 6.095-4.732 2.963 0 6.859 1.359 11.356 5.034 5.575 4.553 8.733 10.54 10.52 15.641v14.596z" fill="#1DB3A0"/><path d="M309.711 418.952a.359.359 0 01-.343-.256c-4.829-16.693-18.404-28.567-25.827-32.129a.358.358 0 01-.166-.475.358.358 0 01.476-.167c7.532 3.616 21.308 15.658 26.201 32.574a.356.356 0 01-.243.44l-.098.013" fill="#fff"/><path d="M308.869 446.612c-.413.265-8.217 3.12-11.46-.561-3.241-3.68 1.207-10.124-1.73-12.16-2.936-2.035-10.531.794-12.75-3.787-2.22-4.583 3.17-7.015-.296-11.535-2.182-2.848-7.121-4.166-7.75-6.9-1.052-4.572 6.452-7.264 13.328-3.385 6.877 3.877 10.689 1.585 12.748 1.137 2.057-.448 6.586-.133 6.984 7.175.398 7.309.926 30.016.926 30.016" fill="#26B6A6"/><path d="M308.627 436.193a.435.435 0 01-.456-.332c-3.31-13.68-20.246-23.757-28.796-25.554a.435.435 0 11.18-.852c8.744 1.837 26.066 12.165 29.464 26.201a.44.44 0 01-.322.527l-.07.01z" fill="#fff"/><path d="M288.784 426.011a.438.438 0 01-.389-.186.434.434 0 01.108-.606c.249-.175 6.173-4.255 12.402-3.014a.436.436 0 11-.17.854c-5.859-1.167-11.676 2.834-11.734 2.874l-.217.078" fill="#fff"/><path d="M218.789 310.595l-54.834 31.658c-2.035 1.175-4.008 4.004-4.41 6.318l-13.626 78.68c-.402 2.314.922 5.142 2.957 6.317l35.357 20.415c2.035 1.173 5.334 1.173 7.368 0l75.568-43.631c2.035-1.175 3.686-3.913 3.686-6.117s-1.65-4.943-3.684-6.116L239.98 382.42c-2.033-1.175-3.876-4.021-4.113-6.359l-6.051-59.372c-.237-2.337-1.977-5.124-3.887-6.226-1.908-1.103-5.105-1.043-7.14.132z" fill="#17282F"/><path d="M187.916 440.148l.001 14.715c1.334 0 2.667-.294 3.684-.88l75.57-43.631c2.034-1.175 3.684-3.913 3.684-6.116 0-1.291-.575-2.756-1.451-3.992h-12.372l-69.116 39.904z" fill="#223263"/><path d="M225.701 314.585l-54.834 31.659c-2.035 1.175-4.01 4.003-4.411 6.317l-12.371 71.424c-.401 2.315.924 5.143 2.959 6.318l27.189 15.698c2.035 1.175 5.334 1.175 7.368 0l75.57-43.629c2.034-1.175 2.034-3.08 0-4.253L239.98 382.42c-2.033-1.175-3.876-4.021-4.113-6.359l-6.051-59.372c-.237-2.337-2.08-3.28-4.115-2.104" fill="#17282F"/><path d="M267.171 398.119L239.98 382.42c-1.001-.579-1.956-1.567-2.696-2.696l-82.677 47.733c.532 1.19 1.386 2.24 2.436 2.846l27.19 15.698c2.035 1.175 5.334 1.175 7.368 0l75.57-43.629c2.034-1.175 2.034-3.08 0-4.253m-222.638 68.96l-3.51-2.027c-2.848-1.645-5.157-5.644-5.157-8.933l-.001-235.49c0-3.288 2.312-7.281 5.164-8.92l287.695-165.17c2.852-1.639 7.473-1.634 10.321.012l2.678 1.545c2.848 1.645 5.157 5.644 5.157 8.933v235.488c0 3.288-2.309 7.288-5.157 8.932L54.848 467.079c-2.847 1.644-7.466 1.644-10.315 0z" fill="#223263"/><path d="M56.599 226.645l-19.22-11.097c-.936 1.615-1.514 3.437-1.514 5.081l.001 235.49c0 3.289 2.31 7.288 5.157 8.933l3.51 2.027c2.849 1.644 7.467 1.644 10.315 0l1.752-1.012-.001-239.422" fill="#223263"/><path d="M49.691 464.1V228.612c0-3.289 2.31-7.288 5.157-8.932L341.723 54.05c2.848-1.643 5.157-.31 5.157 2.98v235.487c0 3.288-2.309 7.288-5.157 8.932L54.848 467.079c-2.847 1.644-5.157.31-5.157-2.979" fill="#223263"/><path d="M187.48 375.451l21.027-12.139c1.573-.909 2.849-.264 2.849 1.44 0 1.705-1.276 3.823-2.849 4.731l-21.027 12.14c-1.573.908-2.849.262-2.849-1.442s1.276-3.821 2.849-4.73z" fill="#DADBD8"/><path d="M62.905 226.881L333.08 70.455c1.627-.943 2.946-.183 2.946 1.697v205.241c0 1.879-1.32 4.164-2.947 5.104L62.907 438.481c-1.627.94-2.947.178-2.947-1.701V231.989c0-1.88 1.318-4.166 2.945-5.108" fill="#fff"/><path d="M73.66 418.756c-1.426 0-2.278-1.172-2.278-3.133V251.809l253.221-146.197.001 163.044c0 3.175-2.237 7.049-4.987 8.637L75.703 418.119c-.722.417-1.428.637-2.043.637z" fill="#FAFAF9"/><path d="M325.269 104.457L70.716 251.424v164.199c0 2.408 1.198 3.8 2.944 3.8.715 0 1.522-.235 2.376-.727l243.915-140.825c2.938-1.696 5.32-5.823 5.32-9.215l-.002-164.199zm-1.333 2.308l.001 161.891c0 2.912-2.13 6.604-4.653 8.06L75.37 417.54c-.621.36-1.212.549-1.71.549-1.454 0-1.611-1.724-1.611-2.466v-163.43l251.887-145.428" fill="#DADBD8"/><path d="M70.716 251.424v23.037l254.552-146.965.001-23.039L70.716 251.424z" fill="#F89F1D"/><path d="M230.437 168.243v4.96c0 1.013.719 1.428 1.596.921l78.264-45.185v-8.646l-78.264 45.186c-.878.506-1.597 1.75-1.596 2.764" fill="#FAFAF9"/><path d="M318.684 115.451c.881-.51 1.596-.096 1.596.922v4.959c0 1.019-.715 2.256-1.596 2.764l-8.387 4.843v-8.646l8.387-4.842z" fill="#33535F"/><path d="M315.061 124.043c-.258.15-.484.173-.669.065-.312-.179-.505-.715-.505-1.396 0-1.307.697-2.812 1.522-3.289a.847.847 0 01.419-.132l.251.065c.31.18.505.716.505 1.397 0 1.307-.697 2.814-1.523 3.29zm3.003-1.792l-.936-.292c.096-.396.149-.806.149-1.206 0-.957-.31-1.684-.853-1.997-.401-.233-.887-.211-1.363.065-1.048.606-1.868 2.315-1.868 3.891 0 .957.31 1.685.852 1.997.184.107.383.159.594.159.249 0 .509-.075.77-.224.628-.364 1.174-1.129 1.511-2.023l.937.292.103.016a.347.347 0 00.104-.678" fill="#FAFAF9"/><path d="M70.716 240.277c0-3.393 2.382-7.518 5.32-9.216L319.949 90.239c2.938-1.698 5.32-.322 5.32 3.072v11.146L70.716 251.424v-11.147z" fill="#223263"/><path d="M295.324 110.205c-1.379.796-2.496 2.731-2.496 4.323 0 1.592 1.117 2.237 2.496 1.441 1.377-.796 2.495-2.73 2.495-4.322s-1.118-2.238-2.495-1.442zm8.733-5.029c-1.378.795-2.496 2.731-2.496 4.323 0 1.592 1.118 2.237 2.496 1.441 1.379-.796 2.496-2.732 2.496-4.324 0-1.592-1.117-2.237-2.496-1.44zm8.735-5.031c-1.379.796-2.496 2.731-2.496 4.323 0 1.592 1.117 2.237 2.496 1.441 1.377-.796 2.495-2.73 2.495-4.322s-1.118-2.238-2.495-1.442z" fill="#26B6A6"/><path d="M73.66 418.756c-1.426 0-2.278-1.172-2.278-3.132V274.847l48.583-28.05v145.767l-44.262 25.555c-.722.417-1.428.637-2.043.637z" fill="#F3F2F1"/><path d="M120.632 245.643l-49.916 28.818v141.163c0 2.407 1.198 3.799 2.944 3.799.715 0 1.522-.235 2.376-.727l44.596-25.748V245.643zm-1.334 2.309v144.227l-43.929 25.362c-.62.359-1.211.548-1.709.548-1.454 0-1.611-1.724-1.611-2.465V275.232l47.249-27.28" fill="#F89F1D" fill-opacity=".26"/><path d="M87.287 276.423l23.879-13.803c.882-.509 1.596-.097 1.596.921v2.078c0 1.017-.716 2.256-1.596 2.765l-23.88 13.801c-.882.511-1.596.099-1.596-.92l.001-2.077c0-1.017.715-2.256 1.596-2.765" fill="#F89F1D" fill-opacity=".26"/><path d="M80.7 282.069v2.078c0 1.018-.716 2.256-1.597 2.765l-1.798 1.039c-.882.508-1.597.096-1.597-.923v-2.077c0-1.018.716-2.255 1.597-2.764l1.798-1.039c.881-.509 1.597-.096 1.597.921" fill="#F89F1D"/><path d="M87.287 287.907l23.879-13.803c.882-.508 1.596-.096 1.596.921v2.078c0 1.017-.716 2.256-1.596 2.765l-23.88 13.803c-.882.509-1.596.096-1.596-.922l.001-2.077c0-1.017.715-2.256 1.596-2.765" fill="#F89F1D" fill-opacity=".26"/><path d="M80.7 293.553v2.078c0 1.018-.716 2.256-1.597 2.765l-1.798 1.037c-.882.51-1.597.098-1.597-.92v-2.078c0-1.018.716-2.255 1.597-2.764l1.798-1.039c.881-.508 1.597-.096 1.597.921" fill="#F89F1D"/><path d="M87.287 299.391l23.879-13.802c.882-.51 1.596-.097 1.596.92v2.078c0 1.017-.716 2.256-1.596 2.765l-23.88 13.803c-.882.509-1.596.097-1.596-.92l.001-2.079c0-1.017.715-2.255 1.596-2.765" fill="#F89F1D" fill-opacity=".26"/><path d="M80.7 305.039v2.076c0 1.018-.716 2.256-1.597 2.765l-1.798 1.039c-.882.509-1.597.096-1.597-.923v-2.076c0-1.019.716-2.256 1.597-2.765l1.798-1.039c.881-.509 1.597-.096 1.597.923" fill="#F89F1D"/><path d="M87.287 321.859l23.879-13.802c.882-.51 1.596-.098 1.596.92v2.078c0 1.017-.716 2.256-1.596 2.765l-23.88 13.803c-.882.509-1.596.097-1.596-.922l.001-2.076c0-1.018.715-2.257 1.596-2.766" fill="#F89F1D" fill-opacity=".26"/><path d="M80.7 327.507v2.077c0 1.017-.716 2.255-1.597 2.764l-1.798 1.039c-.882.509-1.597.096-1.597-.923v-2.077c0-1.018.716-2.255 1.597-2.764l1.798-1.039c.881-.509 1.597-.096 1.597.923" fill="#F89F1D"/><path d="M87.287 332.031l23.879-13.803c.882-.509 1.596-.097 1.596.921v2.078c0 1.017-.716 2.256-1.596 2.764l-23.88 13.802c-.882.51-1.596.098-1.596-.92l.001-2.077c0-1.019.715-2.256 1.596-2.765" fill="#F89F1D" fill-opacity=".26"/><path d="M80.7 337.677v2.078c0 1.017-.716 2.256-1.597 2.764l-1.798 1.038c-.882.51-1.597.096-1.597-.921v-2.077c0-1.018.716-2.256 1.597-2.766l1.798-1.037c.881-.509 1.597-.097 1.597.921" fill="#F68812"/><path d="M85.692 311.925v3.583l3.102-3.583h-3.102z" fill="#F89F1D"/><path d="M90.683 311.187c0 .665.476.93 1.064.59l19.95-11.486c.589-.339 1.065-1.16 1.065-1.834 0-.674-.476-.945-1.065-.606l-19.95 11.518c-.588.339-1.064 1.154-1.064 1.818" fill="#F89F1D" fill-opacity=".26"/><path d="M133.496 249.94l47.776-27.581c.672-.388 1.216-.074 1.216.702v47.26c0 .776-.544 1.719-1.216 2.107l-47.775 27.583c-.672.388-1.216.073-1.216-.703l-.001-47.261c0-.775.545-1.719 1.216-2.107" fill="#F89C1A"/><path d="M132.954 300.176c-.399 0-.673-.317-.673-.868l-.001-47.261c0-.775.545-1.719 1.216-2.107l47.776-27.581c.196-.114.38-.167.544-.167.399 0 .672.319.672.869v47.26c0 .776-.544 1.719-1.216 2.107l-47.775 27.583a1.105 1.105 0 01-.543.165" fill="#BEE9E1"/><path d="M169.161 249.167l-7.982 14.128 5.61 7.272-18.533-15.971-15.975 34.585v10.127c0 .776.545 1.091 1.216.703l47.775-27.583c.672-.388 1.216-1.331 1.216-2.108v-8.968l-13.327-12.185m1.915-14.538c1.987-1.148 3.597-.217 3.597 2.078 0 2.294-1.61 5.085-3.597 6.233-1.987 1.147-3.597.217-3.597-2.077 0-2.295 1.61-5.086 3.597-6.234zm27.412-22.264l47.776-27.581c.672-.388 1.216-.075 1.216.701v47.26c0 .776-.544 1.719-1.216 2.107l-47.775 27.583c-.672.388-1.216.074-1.216-.702l-.001-47.261c0-.775.544-1.719 1.216-2.107" fill="#F89C1A"/><path d="M197.947 262.601c-.399 0-.674-.318-.674-.868l-.001-47.261c0-.775.544-1.719 1.216-2.107l47.776-27.581c.196-.113.38-.167.544-.167.399 0 .672.319.672.868v47.26c0 .776-.544 1.719-1.216 2.107l-47.775 27.583c-.194.113-.38.166-.542.166" fill="#BEE9E1"/><path d="M234.153 211.592l-7.981 14.128 5.609 7.272-18.533-15.971-15.975 34.586v10.126c0 .776.544 1.09 1.216.702l47.775-27.583c.672-.388 1.216-1.331 1.216-2.107v-8.968l-13.327-12.185" fill="#F89C1A"/><path d="M236.068 197.055c1.988-1.148 3.599-.219 3.599 2.076 0 2.296-1.611 5.086-3.599 6.233-1.987 1.148-3.597.217-3.597-2.076 0-2.296 1.61-5.087 3.597-6.233z" fill="#F68812"/><path d="M263.481 174.797l47.776-27.581c.672-.388 1.218-.073 1.218.703v47.258c0 .778-.546 1.72-1.218 2.108l-47.774 27.583c-.671.388-1.216.073-1.216-.703l-.002-47.261c0-.775.544-1.719 1.216-2.107" fill="#26B6A6"/><path d="M262.94 225.035c-.399 0-.673-.319-.673-.87l-.002-47.261c0-.775.544-1.719 1.216-2.107l47.776-27.581c.196-.113.38-.167.544-.167.399 0 .674.319.674.87v47.258c0 .778-.546 1.72-1.218 2.108l-47.774 27.583a1.1 1.1 0 01-.543.167" fill="#BEE9E1"/><path d="M299.147 174.024l-7.982 14.128 5.61 7.272-18.534-15.969-15.974 34.584v10.126c0 .776.545 1.091 1.216.703l47.774-27.583c.672-.388 1.218-1.33 1.218-2.106v-8.97l-13.328-12.185z" fill="#F68812"/><path d="M301.061 159.487c1.988-1.148 3.599-.218 3.599 2.077s-1.611 5.085-3.599 6.233c-1.986 1.147-3.597.218-3.597-2.077s1.611-5.085 3.597-6.233z" fill="#F68C13"/><path d="M133.496 318.741l47.776-27.582c.672-.387 1.216-.072 1.216.702v47.26c0 .776-.544 1.72-1.216 2.108l-47.775 27.583c-.672.387-1.216.072-1.216-.703l-.001-47.261c0-.776.545-1.719 1.216-2.107" fill="#4099D0"/><path d="M132.955 368.977c-.4 0-.674-.318-.674-.868l-.001-47.261c0-.776.545-1.719 1.216-2.107l47.776-27.582c.196-.112.38-.166.543-.166.4 0 .673.319.673.868v47.26c0 .776-.544 1.72-1.216 2.108l-47.775 27.583a1.102 1.102 0 01-.542.165" fill="#BEE9E1"/><path d="M169.161 317.968l-7.982 14.128 5.61 7.272-18.533-15.971-15.975 34.586v10.126c0 .775.545 1.09 1.216.703l47.775-27.583c.672-.388 1.216-1.332 1.216-2.108v-8.968l-13.327-12.185zm1.915-14.537c1.987-1.148 3.597-.219 3.597 2.077 0 2.295-1.61 5.085-3.597 6.232-1.987 1.148-3.597.219-3.597-2.077 0-2.294 1.61-5.086 3.597-6.232z" fill="#F68812"/><path d="M198.488 281.167l47.776-27.583c.672-.388 1.216-.073 1.216.703v47.26c0 .776-.544 1.718-1.216 2.106l-47.775 27.583c-.672.388-1.216.073-1.216-.701l-.001-47.262c0-.776.544-1.718 1.216-2.106" fill="#F89C1A"/><path d="M197.947 331.403c-.399 0-.674-.319-.674-.868l-.001-47.262c0-.776.544-1.718 1.216-2.106l47.776-27.583c.196-.112.38-.165.544-.165.399 0 .672.317.672.868v47.26c0 .776-.544 1.718-1.216 2.106l-47.775 27.583c-.194.113-.38.167-.542.167z" fill="#BEE9E1"/><path d="M234.153 280.393l-7.981 14.127 5.609 7.272-18.533-15.971-15.975 34.586v10.128c0 .774.544 1.089 1.216.701l47.775-27.583c.672-.388 1.216-1.33 1.216-2.106v-8.968l-13.327-12.186m1.915-14.538c1.988-1.147 3.599-.218 3.599 2.077s-1.611 5.085-3.599 6.233c-1.987 1.148-3.597.218-3.597-2.077s1.61-5.085 3.597-6.233z" fill="#F89C1A"/><path d="M263.481 243.599l47.776-27.582c.672-.388 1.218-.073 1.218.702v47.261c0 .775-.546 1.719-1.218 2.107l-47.774 27.582c-.671.388-1.216.074-1.216-.702l-.002-47.26c0-.778.544-1.72 1.216-2.108" fill="#26B6A6"/><path d="M262.94 293.835c-.399 0-.673-.318-.673-.868l-.002-47.26c0-.778.544-1.72 1.216-2.108l47.776-27.582c.196-.113.38-.166.544-.166.399 0 .674.318.674.868v13.484l-2.666 1.538c-1.882 1.087-3.409 3.731-3.409 5.904v31.246l-42.917 24.778a1.107 1.107 0 01-.543.166" fill="#BEE9E1"/><path d="M299.147 242.825l-7.982 14.128 5.61 7.272-18.534-15.97-15.974 34.585v10.127c0 .776.545 1.09 1.216.702l47.774-27.582c.672-.388 1.218-1.332 1.218-2.107v-8.969l-13.328-12.186z" fill="#F89C1A"/><path d="M301.061 228.288c1.988-1.148 3.599-.217 3.599 2.077 0 2.295-1.611 5.086-3.599 6.234-1.986 1.146-3.597.217-3.597-2.079 0-2.293 1.611-5.085 3.597-6.232z" fill="#26B6A6"/><path d="M312.128 452.715l-2.319-1.339c-1.882-1.087-3.409-3.729-3.409-5.904V237.645c0-2.173 1.527-4.817 3.409-5.904l93.684-54.089c1.882-1.087 4.935-1.087 6.818 0l2.32 1.339c1.882 1.088 3.408 3.73 3.408 5.905v207.827c0 2.173-1.526 4.817-3.408 5.904l-93.687 54.088c-1.881 1.088-4.935 1.088-6.816 0" fill="#223263"/><path d="M320.104 241.621l-12.705-7.334c-.616 1.068-.999 2.272-.999 3.358v207.827c0 2.175 1.527 4.817 3.409 5.904l2.319 1.339c1.883 1.088 4.935 1.088 6.816 0l1.16-.67V241.621z" fill="#4A55B0"/><path d="M315.535 242.92v207.827c0 2.174 1.528 3.056 3.409 1.968l93.687-54.088c1.882-1.087 3.408-3.731 3.408-5.904V184.896c0-2.175-1.526-3.055-3.408-1.968l-93.687 54.088c-1.881 1.087-3.409 3.731-3.409 5.904" fill="#223263"/><path d="M323.027 257.607l85.186-49.179c1.614-.932 2.923-.177 2.923 1.687v163.386c0 1.864-1.309 4.13-2.923 5.062l-85.185 49.178c-1.613.932-2.923.176-2.923-1.686l-.001-163.388c0-1.863 1.309-4.128 2.923-5.06z" fill="#fff"/><path d="M365.787 215.436c1.261-.728 2.285-.137 2.285 1.32 0 1.456-1.024 3.228-2.285 3.955-1.26.729-2.284.138-2.284-1.318 0-1.457 1.024-3.229 2.284-3.957zm-6.595 11.411c4.64-2.566 12.92-7.494 17.496-10.186.776-.456 1.405-.141 1.405.704 0 .846-.632 1.896-1.413 2.347l-17.525 10.121c-.782.451-1.412.131-1.412-.714 0-.846.66-1.836 1.449-2.272m-4.429 2.558c.709-.409 1.282-.077 1.282.74 0 .818-.573 1.814-1.282 2.222-.708.409-1.283.077-1.283-.74 0-.819.575-1.812 1.283-2.222zm11.834 177.699c2.972-1.715 5.38-.324 5.38 3.105 0 3.431-2.408 7.602-5.38 9.318-2.969 1.714-5.378.324-5.378-3.106 0-3.43 2.408-7.601 5.378-9.317z" fill="#17282F"/><path d="M326.867 275.847l32.836-18.959c.462-.267.836-.051.836.483v32.482c0 .534-.374 1.183-.836 1.45l-32.836 18.958c-.462.266-.836.05-.836-.484v-32.482c0-.534.373-1.182.836-1.448z" fill="#F89F1D"/><path d="M326.493 310.375c-.274 0-.462-.219-.462-.598v-32.482c0-.534.373-1.182.836-1.448l32.836-18.959a.765.765 0 01.374-.115c.274 0 .462.219.462.598v32.482c0 .534-.374 1.183-.836 1.45l-32.836 18.958a.758.758 0 01-.374.114z" fill="#BEE9E1"/><path d="M351.379 275.315l-5.486 9.709 3.856 4.999-12.74-10.978-10.978 23.772v6.96c0 .534.374.75.836.484l32.836-18.958c.462-.267.836-.916.836-1.45v-6.164l-9.16-8.374z" fill="#F68812"/><path d="M352.696 265.323c1.365-.79 2.472-.15 2.472 1.426 0 1.578-1.107 3.496-2.472 4.286-1.367.788-2.473.149-2.473-1.428 0-1.578 1.106-3.496 2.473-4.284" fill="#26B6A6"/><path d="M371.536 250.02l32.837-18.957c.463-.268.836-.051.836.482v32.483c0 .533-.373 1.181-.836 1.448l-32.836 18.957c-.461.268-.836.051-.836-.481v-32.484c0-.533.374-1.181.835-1.448" fill="#F89F1D"/><path d="M371.164 284.548c-.275 0-.463-.219-.463-.596v-32.484c0-.533.374-1.181.835-1.448l32.837-18.957a.75.75 0 01.375-.115c.273 0 .461.219.461.597v32.483c0 .533-.373 1.181-.836 1.448l-32.836 18.957a.74.74 0 01-.373.115" fill="#BEE9E1"/><path d="M396.049 249.488l-5.485 9.711 3.856 4.998-12.739-10.977-10.98 23.771v6.961c0 .533.375.749.836.481l32.836-18.957c.463-.267.836-.915.836-1.448v-6.164l-9.16-8.376" fill="#F68812"/><path d="M397.367 239.496c1.365-.788 2.472-.149 2.472 1.428s-1.107 3.495-2.472 4.284c-1.367.788-2.474.149-2.474-1.428s1.107-3.495 2.474-4.284z" fill="#26B6A6"/><path d="M326.867 323.135l32.836-18.958c.462-.266.836-.05.836.483v32.483c0 .533-.374 1.181-.836 1.448l-32.836 18.958c-.462.267-.836.051-.836-.482v-32.484c0-.534.373-1.182.836-1.448z" fill="#F89F1D"/><path d="M326.493 357.664c-.274 0-.462-.219-.462-.597v-32.484c0-.534.373-1.182.836-1.448l32.836-18.958a.762.762 0 01.373-.114c.275 0 .463.218.463.597v32.483c0 .533-.374 1.181-.836 1.448l-32.836 18.958a.76.76 0 01-.374.115z" fill="#BEE9E1"/><path d="M351.379 322.603l-5.486 9.71 3.856 4.999-12.74-10.977-10.978 23.772v6.96c0 .533.374.749.836.482l32.836-18.958c.462-.267.836-.915.836-1.448v-6.164l-9.16-8.376" fill="#F68812"/><path d="M352.696 312.611c1.365-.788 2.472-.15 2.472 1.428 0 1.577-1.107 3.496-2.472 4.284-1.367.789-2.473.149-2.473-1.427 0-1.577 1.106-3.496 2.473-4.285m18.84-15.302l32.837-18.958c.463-.267.836-.051.836.482v32.484c0 .532-.373 1.18-.836 1.447l-32.836 18.959c-.461.266-.836.05-.836-.483v-32.483c0-.533.374-1.182.835-1.448" fill="#F89F1D"/><path d="M371.164 331.837c-.273 0-.463-.218-.463-.597v-32.483c0-.533.374-1.182.835-1.448l32.837-18.958a.76.76 0 01.374-.115c.274 0 .462.219.462.597v32.484c0 .532-.373 1.18-.836 1.447l-32.836 18.959a.756.756 0 01-.373.114" fill="#BEE9E1"/><path d="M396.049 296.777l-5.485 9.71 3.856 4.998-12.739-10.976-10.98 23.771v6.96c0 .533.375.749.836.483l32.836-18.959c.463-.267.836-.915.836-1.447v-6.165l-9.16-8.375" fill="#F68812"/><path d="M397.367 286.785c1.365-.789 2.472-.15 2.472 1.427 0 1.579-1.107 3.496-2.472 4.284-1.367.789-2.474.151-2.474-1.427 0-1.577 1.107-3.496 2.474-4.284zm-70.5 83.614l32.836-18.958c.462-.266.836-.05.836.483v32.483c0 .533-.374 1.182-.836 1.448l-32.836 18.958c-.462.267-.836.051-.836-.482v-32.484c0-.532.373-1.182.836-1.448" fill="#F89F1D"/><path d="M326.493 404.928c-.274 0-.462-.219-.462-.597v-32.484c0-.532.373-1.182.836-1.448l32.836-18.958a.763.763 0 01.374-.113c.274 0 .462.219.462.596v32.483c0 .533-.374 1.182-.836 1.448l-32.836 18.958a.76.76 0 01-.374.115z" fill="#BEE9E1"/><path d="M351.379 369.868l-5.486 9.709 3.856 4.999-12.74-10.977-10.978 23.772v6.96c0 .533.374.749.836.482l32.836-18.958c.462-.266.836-.915.836-1.448v-6.164l-9.16-8.375z" fill="#F68812"/><path d="M352.696 359.875c1.365-.788 2.472-.15 2.472 1.428 0 1.577-1.107 3.496-2.472 4.285-1.367.788-2.473.148-2.473-1.428 0-1.577 1.106-3.496 2.473-4.285zm18.84-15.302l32.837-18.958c.463-.267.836-.05.836.484v32.482c0 .532-.373 1.18-.836 1.448l-32.836 18.959c-.461.265-.836.049-.836-.484v-32.483c0-.533.374-1.181.835-1.448" fill="#F89F1D"/><path d="M371.164 379.101c-.273 0-.463-.218-.463-.597v-32.483c0-.533.374-1.181.835-1.448l32.837-18.958a.758.758 0 01.374-.114c.274 0 .462.219.462.598v32.482c0 .532-.373 1.18-.836 1.448l-32.836 18.959a.764.764 0 01-.373.113" fill="#BEE9E1"/><path d="M396.049 344.041l-5.485 9.711 3.856 4.997-12.739-10.976-10.98 23.771v6.96c0 .533.375.749.836.483l32.836-18.958c.463-.266.836-.916.836-1.448v-6.164l-9.16-8.376" fill="#F68812"/><path d="M397.367 334.049c1.365-.789 2.472-.149 2.472 1.428 0 1.576-1.107 3.495-2.472 4.284-1.367.788-2.474.15-2.474-1.428 0-1.577 1.107-3.496 2.474-4.284z" fill="#F89F1D"/><path d="M411.136 210.115c0-1.864-1.309-2.619-2.923-1.687l-85.186 49.179c-1.614.932-2.923 3.197-2.923 5.06v8.132l91.032-52.559v-8.125zm-91.031 207.192v8.748c0 1.862 1.31 2.618 2.923 1.686l85.185-49.178c1.614-.932 2.923-3.198 2.923-5.062v-8.75l-91.031 52.556z" fill="#F68812"/><path d="M432.295 285.281l1.732-1a1.333 1.333 0 10-1.332-2.31l-1.734 1a1.334 1.334 0 001.334 2.31z" fill="#33535F"/><path d="M439.831 280.929l3.482-2.01a1.333 1.333 0 10-1.333-2.31l-3.483 2.011a1.334 1.334 0 001.334 2.309zm9.288-5.362l3.482-2.011a1.333 1.333 0 10-1.333-2.309l-3.483 2.01a1.333 1.333 0 101.334 2.31zm9.286-5.362l3.483-2.01a1.335 1.335 0 00-1.333-2.31l-3.483 2.011a1.334 1.334 0 001.333 2.309zm9.288-5.362l3.483-2.011a1.334 1.334 0 00-1.333-2.309l-3.483 2.01a1.334 1.334 0 001.333 2.31zm9.287-5.362l3.483-2.01a1.333 1.333 0 10-1.334-2.31l-3.482 2.011a1.333 1.333 0 101.333 2.309zm9.288-5.362l3.483-2.011a1.334 1.334 0 00-1.334-2.309l-3.482 2.01a1.333 1.333 0 001.333 2.31z" fill="#F68812"/><path d="M495.555 248.757l1.733-1c.412-.237.667-.678.667-1.154v-2a1.334 1.334 0 00-2.667 0v1.229l-1.067.616a1.334 1.334 0 001.334 2.309" fill="#33535F"/><path d="M497.955 238.021v-3.949a1.334 1.334 0 00-2.667 0v3.949a1.334 1.334 0 002.667 0zm0-10.53v-3.948a1.334 1.334 0 10-2.667 0v3.948a1.333 1.333 0 002.667 0zm0-10.53v-3.949a1.334 1.334 0 00-2.667 0v3.949a1.334 1.334 0 002.667 0zm0-10.53v-3.95a1.334 1.334 0 00-2.667 0v3.95a1.333 1.333 0 002.667 0zm0-10.531v-3.948a1.333 1.333 0 00-2.667 0v3.948a1.333 1.333 0 002.667 0zm0-10.529v-3.95a1.334 1.334 0 00-2.667 0v3.95a1.333 1.333 0 002.667 0zm0-10.531v-3.949a1.334 1.334 0 00-2.667 0v3.949a1.333 1.333 0 002.667 0zm0-10.531v-3.948a1.333 1.333 0 00-2.667 0v3.948a1.334 1.334 0 002.667 0zm0-10.529v-3.949a1.334 1.334 0 00-2.667 0v3.949a1.333 1.333 0 002.667 0zm0-10.531V139.3a1.334 1.334 0 00-2.667 0v3.949a1.334 1.334 0 002.667 0zm0-10.53v-3.95a1.334 1.334 0 00-2.667 0v3.95a1.333 1.333 0 002.667 0zm0-10.531v-3.948a1.333 1.333 0 00-2.667 0v3.948a1.333 1.333 0 102.667 0zm0-10.529v-3.95a1.334 1.334 0 00-2.667 0v3.95a1.333 1.333 0 002.667 0zm0-10.531v-3.95a1.334 1.334 0 00-2.667 0v3.95a1.333 1.333 0 102.667 0zm0-10.53V86.65a1.334 1.334 0 00-2.667 0v3.95a1.334 1.334 0 002.667 0zm0-10.53v-3.95a1.334 1.334 0 00-2.667 0v3.95a1.334 1.334 0 002.667 0zm0-10.53v-3.95a1.334 1.334 0 00-2.667 0v3.95a1.333 1.333 0 102.667 0zm0-10.53v-3.95a1.334 1.334 0 00-2.667 0v3.95a1.334 1.334 0 002.667 0z" fill="#F68812"/><path d="M497.955 48.477v-2a1.332 1.332 0 00-2-1.156l-1.734 1a1.335 1.335 0 001.334 2.311l1.733-1-.667-1.155h-1.333v2a1.334 1.334 0 002.667 0z" fill="#33535F"/><path d="M488.584 49.577l-3.384 1.954a1.334 1.334 0 001.333 2.31l3.384-1.954a1.333 1.333 0 00-1.333-2.31zm-9.021 5.21l-3.384 1.952a1.334 1.334 0 001.333 2.31l3.384-1.953c.637-.37.856-1.184.488-1.821a1.331 1.331 0 00-1.821-.488zm-9.022 5.208l-3.384 1.953a1.334 1.334 0 001.334 2.31l3.384-1.954a1.332 1.332 0 00.486-1.821 1.332 1.332 0 00-1.82-.488zm-9.022 5.208l-3.383 1.953a1.334 1.334 0 001.333 2.31l3.383-1.954a1.333 1.333 0 00-1.333-2.31zm-9.022 5.21l-3.382 1.951a1.334 1.334 0 001.333 2.31l3.383-1.953a1.332 1.332 0 10-1.334-2.309zm-9.021 5.207l-3.383 1.953a1.334 1.334 0 001.334 2.31l3.382-1.954a1.33 1.33 0 00.488-1.82 1.332 1.332 0 00-1.821-.489zm-9.021 5.208l-3.383 1.953a1.334 1.334 0 001.333 2.31l3.383-1.954a1.332 1.332 0 10-1.333-2.309zm-9.022 5.208l-3.382 1.953a1.333 1.333 0 001.333 2.31l3.383-1.954a1.333 1.333 0 10-1.334-2.309zm-9.021 5.21l-3.383 1.953a1.334 1.334 0 001.334 2.31l3.382-1.954a1.333 1.333 0 00-1.333-2.31zm-9.021 5.207l-3.383 1.954a1.334 1.334 0 001.333 2.309l3.383-1.953a1.334 1.334 0 00-1.333-2.31zm-9.022 5.21l-3.382 1.952a1.333 1.333 0 001.333 2.309l3.383-1.952a1.334 1.334 0 00-1.334-2.309zm-9.021 5.208l-3.383 1.953a1.334 1.334 0 001.334 2.309l3.382-1.953a1.333 1.333 0 10-1.333-2.309zm-9.021 5.208l-3.383 1.953a1.334 1.334 0 001.333 2.309l3.383-1.953a1.334 1.334 0 00-1.333-2.309zm-9.022 5.209l-3.382 1.953a1.333 1.333 0 101.333 2.31l3.383-1.954a1.334 1.334 0 00-1.334-2.309z" fill="#F68812"/><path d="M362.284 122.496l-1.732 1a1.334 1.334 0 001.333 2.309l1.732-1a1.333 1.333 0 10-1.333-2.309z" fill="#33535F"/><path d="M517.505 8.268l-10.889-6.285h-.024l-.112-.068-.011.022c-5.416-3.057-12.838-2.606-21.064 2.143-7.694 4.435-14.71 11.836-20.002 20.399-6.115 9.86-9.963 21.277-9.963 31.51 0 9.544 3.34 16.246 8.744 19.383v.01l.033.013 11.058 6.313c5.461 3.481 13.169 3.173 21.721-1.764 16.553-9.557 29.973-32.799 29.975-51.912 0-9.952-3.643-16.812-9.466-19.764" fill="#F68C13"/><path d="M475.06 81.587l-.879-.503.876.5.003.003zm-10.876-6.208h-.003v-.01l.003.003v.007zm-2.543-1.887c-1.168-1.077-2.194-2.37-3.057-3.865h.001c.863 1.496 1.888 2.788 3.056 3.865zm-4.026-5.787z" fill="#E0E1DE"/><path d="M458.585 69.627h-.001a19.525 19.525 0 01.001 0z" fill="#2C4954"/><path d="M456.093 62.839zm-.653-6.851v-.001c0-6.855 1.725-14.236 4.703-21.326-2.976 7.09-4.703 14.475-4.703 21.327z" fill="#E0E1DE"/><path d="M475.057 81.584l-.876-.5-9.966-5.695-.031-.01v-.007l-.003-.003v-.002a14.348 14.348 0 01-2.54-1.875c-1.168-1.077-2.193-2.37-3.056-3.865a19.891 19.891 0 01-.97-1.922 24.215 24.215 0 01-1.52-4.862c0-.002 0-.003-.002-.004a.199.199 0 00-.004-.024l-.005-.027c-.421-2.07-.644-4.34-.644-6.8 0-6.852 1.727-14.236 4.703-21.327a72.957 72.957 0 015.26-10.177l11.568 6.67c-6.118 9.86-9.951 21.26-9.951 31.48 0 9.125 3.052 15.649 8.037 18.95" fill="#F89F1D"/><path d="M509.819 3.83l-3.203-1.847h-.024l-.109-.067v-.003l.112.068h.024l3.2 1.85zm-3.35-1.893a14.447 14.447 0 000-.001v.001z" fill="#fff"/><path d="M476.971 31.155l-11.568-6.671c5.292-8.572 12.313-15.967 20.002-20.399 4.802-2.774 9.332-4.082 13.351-4.082 2.008 0 3.889.326 5.611.961.729.27 1.432.595 2.102.973v-.001h.003l.011-.02.109.067h.024l3.203 1.848 7.462 4.313c-2.054-.996-4.374-1.512-6.897-1.512-4.029 0-8.576 1.316-13.388 4.09-7.7 4.455-14.723 11.862-20.025 20.433" fill="#EBBF80"/><path d="M517.011 40.485l-2.759-1.31c4.053-13.228-.061-17.588-7.208-18.195 2.816 1.73 4.247 8.899 1.917 15.681l-2.758-1.31c-.542-.256-1.43.702-1.444 1.56l-.219 12.768c-.008.584.421.788.927.438l11.025-7.632c.74-.513 1.059-1.744.519-2z" fill="#fff"/><path d="M490.745 32.276c7.234-10.613 14.763-11.263 14.763-11.263 1.828 1.124 3.072 4.543 3.083 8.659-1.944-1.519-4.07-2.081-6.155-2.081-6.012 0-11.691 4.685-11.691 4.685z" fill="#BEE9E1"/><path d="M477.951 50.141l2.758 1.311c-4.053 13.228.06 17.59 7.207 18.195-2.815-1.731-4.245-8.899-1.917-15.682l2.76 1.311c.541.256 1.429-.704 1.442-1.56l.219-12.767c.009-.585-.42-.789-.925-.44l-11.026 7.634c-.741.512-1.06 1.741-.518 1.998z" fill="#fff"/><path d="M489.453 69.613c-1.828-1.122-3.073-4.541-3.082-8.658 1.944 1.518 4.069 2.081 6.154 2.081 6.014 0 11.691-4.685 11.691-4.685-7.235 10.612-14.763 11.262-14.763 11.262" fill="#BEE9E1"/><path d="M453.285 291.856l-15.26 8.86a.823.823 0 00-.348.961l10.834 29.73a.54.54 0 00.805.292l14.256-8.236a.86.86 0 00.371-.968l-9.875-30.34c-.113-.35-.464-.484-.783-.299" fill="#33535F"/><path d="M439.659 302.803l14.008-7.951 8.41 25.855-13.165 7.43-9.253-25.334" fill="#fff"/><path d="M456.211 310.247l-.879-.324c.247-3.634-1.231-4.77-3.315-4.854.923.439 1.827 2.366 1.628 4.232l-.878-.324c-.172-.064-.359.207-.304.439l.817 3.465c.037.159.175.21.295.108l2.626-2.194c.175-.147.182-.484.01-.548m-10.5 3.061l.878.324c-.245 3.633 1.231 4.771 3.316 4.853-.925-.437-1.826-2.365-1.629-4.232l.879.326c.172.062.36-.207.305-.44l-.817-3.464c-.039-.16-.175-.211-.296-.11l-2.626 2.195c-.177.147-.182.484-.01.548z" fill="#26B6A6"/><path d="M448.864 316.145c.285 1.118.879 2.03 1.479 2.314 0 0 2.106-.262 3.442-3.222 0 0-2.358 2.422-4.921.908m4.195-8.736c-.288-1.116-.879-2.029-1.479-2.312 0 0-2.107.26-3.443 3.222 0 0 2.358-2.423 4.922-.91" fill="#26B6A6"/><path d="M448.137 308.319c1.336-2.962 3.443-3.222 3.443-3.222.6.283 1.191 1.196 1.479 2.312a3.434 3.434 0 00-1.767-.497c-1.787 0-3.155 1.407-3.155 1.407m2.206 10.14c-.6-.284-1.194-1.196-1.479-2.314.609.36 1.208.498 1.767.498 1.785 0 3.154-1.406 3.154-1.406-1.336 2.96-3.442 3.222-3.442 3.222" fill="#A1DFD6"/><path d="M445.791 298.171l-.29-.167a.336.336 0 01.123-.456l3.364-1.945a.336.336 0 01.456.122.335.335 0 01-.123.456l-3.364 1.946-.166.044zm-.947.324a.324.324 0 11-.648 0 .323.323 0 11.648 0zm12.375 27.268a.843.843 0 11-1.685-.003.843.843 0 011.685.003z" fill="#273E47"/><path d="M531.035 303.912c5.236-1.237 10.993 2.484 14.364 10.707 3.372 8.221 10.109 29.186 11.512 34.68.626 2.462-18.046 24.238-17.379 23.912.207-.1-6.083-10.622-6.083-10.622l9.063-13.946-5.676-15.144-5.801-29.587" fill="#C35363"/><path d="M543.104 498.768c.709.27.889 1.621.996 4.308.083 2.034.517 5.582-1.864 6.292-2.381.708-5.869.345-7.397-1.57-1.906-2.393-3.194-4.498-5.912-7.417-2.358-2.533-4.908-4.895-5.862-8.446-.86-3.208-.142-4.6 2.046-5.534 3.01-1.282 7.74 2.91 10.098 3.57 2.032.568 7.186 8.529 7.895 8.797" fill="#17282F"/><path d="M533.649 490.062s-1.078-.697-3.34 0c-2.261.695-2.928 2.325-1.19 4.137 1.737 1.81 5.98 5.77 5.98 5.77l1.914-5.109-3.364-4.798z" fill="#C35363"/><path d="M518.553 516.3s.948 2.869 1.458 5.379c.406 1.995.986 5.329.288 6.829-.699 1.5-3.424 2.468-7.648 2.436-2.735-.02-6.999 1.837-9.918 3.466-3.016 1.683-6.286 1.689-9.476 1.314-3.758-.441-7.652-2.621-8.258-4.178-.608-1.555.173-2.303 9.03-6.077.08-.034 9.339-4.216 13.624-8.945l10.9-.224" fill="#17282F"/><path d="M494.029 525.469c-1.226.522-2.284.982-3.217 1.399-.231.844.109 2.173 4.052 2.778 6.009.923 21.437-10.149 21.437-10.149s-.496-1.692-.989-3.13l-7.659.157c-4.285 4.729-13.544 8.911-13.624 8.945" fill="#C35363"/><path d="M546.352 450.544c-1.509-10.78-4.027-16.971-4.027-16.971s1.862-14.594 2.94-28.621c1.935-25.129.383-33.345-4.561-44.616 0 0-42.169-4.273-43.456 13.252-1.603 21.825.523 64.003 1.103 71.713.577 7.71 1.294 11.183 4.022 27.295 2.076 12.259 5.504 45.556 5.504 45.556 1.394 3.315 9.799 2.704 10.678-1.117 0 0 3.446-39.394 3.086-48.29-.442-10.864-3.374-19.418-3.374-19.418s2.614-35.568 3.377-41.231c0 0 1.317 11.284 1.895 18.995.58 7.709 2.87 15.073 5.101 29.394 1.935 12.424 6.459 43.484 6.459 43.484 4.016 4.026 7.726 1.531 8.005-.389 0 0 4.76-38.257 3.248-49.036m-36.916-152.307l1.981 16.296 14.327-1.293-1.637-18.088-14.671 3.085" fill="#C35363"/><path d="M541.465 312.077c-1.576-4.286-6.932-9.06-12.438-8.036-1.436.266-2.698.475-4.048.747-.124 3.753-7.198 5.697-14.25 3.42a96.54 96.54 0 00-5.822 1.856c-5.043 1.801-7.07 10.177-7.18 24.191-.111 14.012-2.182 84.668-2.182 84.668 2.228.97 4.6 1.545 7.274 1.272l1.954-12.567.915 12.952c3.983.643 15.144-.396 22.215-2.749 12.769-4.25 20.725-12.507 20.725-12.507s-.119-20.311-1.98-30.229c-1.86-9.919-2.397-12.27-11.34-26.075 7.595-20.201 8.493-30.581 6.157-36.943" fill="#26B6A6"/><path d="M508.757 420.767c-1.241 0-2.292-.062-3.069-.187l-.915-12.952-1.954 12.567a13.05 13.05 0 01-1.327.068c-2.143 0-4.093-.534-5.947-1.34 0 0 1.299-44.327 1.895-69.724l8.248-20.578-8.053 11.59c.049-2.49.081-4.52.092-5.956.11-14.014 2.137-22.39 7.18-24.191a96.54 96.54 0 015.822-1.856c2.078.671 4.156.976 6.059.976 4.557 0 8.103-1.748 8.191-4.396 1.35-.272 2.612-.481 4.048-.747a8.266 8.266 0 011.528-.14c4.941 0 9.481 4.288 10.91 8.176.723 1.97 1.136 4.324 1.136 7.235.002 4.765-1.102 11.023-3.764 19.528-.964 3.085-2.134 6.467-3.529 10.18 8.943 13.805 9.48 16.156 11.34 26.075 1.861 9.918 1.98 30.229 1.98 30.229s-1.285 1.333-3.652 3.205c-3.521 2.786-9.437 6.76-17.073 9.302-1.535.51-3.263.96-5.068 1.342-4.888 1.039-10.342 1.594-14.078 1.594" fill="#F68812"/><path d="M497.383 349.34l.246-9.121.006-.008c-.05 2.561-.116 5.606-.195 8.988l-.057.141" fill="#BABCBA"/><path d="M497.44 349.199c.079-3.382.145-6.427.195-8.988l8.053-11.59-8.248 20.578z" fill="#F68812"/><path d="M501.384 278.151s-5.596-6.316-1.515-12.726c4.811-7.55 14.082-8.84 25.068-5.893 5.447 1.46 13.063 7.247 13.746 17.693.525 8.058-21.946 14.002-21.431 19.52l-15.868-18.594" fill="#17282F"/><path d="M498.307 280.599s-3.05 4.889-2.62 5.386c.428.498 2.462.984 2.462.984l.158-6.37" fill="#AA3B4B"/><path d="M507.607 265.113c-3.046 1.679-8.304 4.774-9.372 16.19-1.094 11.721 1.616 15.71 3.249 17.198 1.105 1.004 6.661 1.23 9.531.254 3.589-1.222 11.329-5.31 14.844-11.438 4.133-7.21 4.773-16.689-.322-20.261-7.166-5.028-15.35-3.364-17.93-1.943z" fill="#C35363"/><path d="M506.708 265.625s-2.404 10.731 1.003 17.379c0 0 1.776-4.209 5.382-3.113 3.632 1.105 3.432 5.912.666 8.441-2.767 2.528-5.548 1.335-5.548 1.335s1.65 4.521 5.36 8.093c0 0 10.68 4.76 19.926-5.677 8.391-9.47 6.831-25.988-6.02-29.884-12.849-3.896-20.769 3.426-20.769 3.426" fill="#17282F"/><path d="M542.428 261.483a8.91 8.91 0 01-8.911 8.91 8.909 8.909 0 01-8.909-8.91c0-4.92 3.988-8.911 8.909-8.911a8.912 8.912 0 018.911 8.911z" fill="#17282F"/><path d="M531.025 258.071a5.409 5.409 0 11-10.818 0 5.41 5.41 0 0110.818 0zm12.348 10.818a5.41 5.41 0 11-10.819.001 5.41 5.41 0 0110.819-.001zm-44.994-7.833c-4.614 4.956-4.507 18.893 9.332 21.948l8.328-24.911c-5.33-3.264-13.543-1.458-17.66 2.963z" fill="#17282F"/><path d="M506.427 286.86a2.72 2.72 0 011.71-5.163l-1.71 5.163z" fill="#17282F"/><path d="M507.488 309.189c-5.704 1.712-9.177 2.02-15.481 11.718-6.303 9.696-20.57 27.869-21.936 30.18-1.903 3.214-2.262 8.104-.62 11.058 1.532 2.758 5.22 1.132 11.473-4.356 6.049-5.306 18.811-19.9 18.811-19.9s12.078-12.53 7.753-28.7z" fill="#C35363"/><path d="M471.371 363.503c-5.278-.64-16.67-16.598-20.172-22.059-3.838-5.98-7.414-8.855-10.678-11.265-5.586-4.127-4.772-10.467-2.334-16.278.844-2.012 3.704-.702 3.704-.702l1.009 2.757 1.745 4.775c1.183 1.097 1.858 1.454 1.936 1.128.15-.616-.869-3.184-.844-5.86.03-3.22 2.284-1.103 2.958.025.673 1.129 1.46 2.965 2.38 5.32 1.125 2.881.66 5.799 2.029 7.763 1.371 1.964 19.756 19.58 19.756 19.58l-1.489 14.816" fill="#C35363"/></g><defs><clipPath id="clip0"><path fill="#fff" d="M0 0h614.12v613.693H0z"/></clipPath></defs></svg>