<svg width="615" height="614" viewBox="0 0 615 614" fill="none" xmlns="http://www.w3.org/2000/svg">
<g clip-path="url(#clip0)">
<path d="M524.185 311.055C644.099 380.287 644.099 492.536 524.184 561.768C404.268 631.001 209.849 631.001 89.935 561.769C-29.9791 492.538 -29.9786 380.288 89.9365 311.056C209.851 241.823 404.271 241.823 524.185 311.055Z" fill="#F3F2F1"/>
<path d="M550.417 489.016C570.531 501.512 570.531 521.769 550.417 534.265C530.304 546.76 497.695 546.762 477.581 534.265C457.468 521.769 457.469 501.512 477.581 489.016C497.695 476.521 530.304 476.52 550.417 489.016Z" fill="#E2E2E0"/>
<path d="M308.201 422.82L308.691 413.943C308.691 413.943 307.859 397.532 295.88 387.747C285.335 379.129 278.099 383.253 278.441 387.747C278.812 392.607 285.289 396.825 292.917 402.54C306.329 412.593 308.201 422.82 308.201 422.82" fill="#26B6A6"/>
<path d="M306.4 417.984C304.465 414.068 300.569 408.275 292.917 402.54C285.289 396.825 278.812 392.607 278.441 387.747C278.433 387.645 278.429 387.545 278.429 387.445C278.427 384.981 280.696 382.713 284.524 382.713C287.487 382.713 291.383 384.072 295.88 387.747C301.455 392.3 304.613 398.287 306.4 403.388V417.984Z" fill="#1DB3A0"/>
<path d="M309.711 418.952C309.556 418.952 309.415 418.851 309.368 418.696C304.539 402.003 290.964 390.129 283.541 386.567C283.365 386.481 283.291 386.268 283.375 386.092C283.46 385.915 283.673 385.841 283.851 385.925C291.383 389.541 305.159 401.583 310.052 418.499C310.107 418.687 309.997 418.884 309.809 418.939L309.711 418.952" fill="white"/>
<path d="M308.869 446.612C308.456 446.877 300.652 449.732 297.409 446.051C294.168 442.371 298.616 435.927 295.679 433.891C292.743 431.856 285.148 434.685 282.929 430.104C280.709 425.521 286.099 423.089 282.633 418.569C280.451 415.721 275.512 414.403 274.883 411.669C273.831 407.097 281.335 404.405 288.211 408.284C295.088 412.161 298.9 409.869 300.959 409.421C303.016 408.973 307.545 409.288 307.943 416.596C308.341 423.905 308.869 446.612 308.869 446.612" fill="#26B6A6"/>
<path d="M308.627 436.193C308.417 436.208 308.221 436.072 308.171 435.861C304.861 422.181 287.925 412.104 279.375 410.307C279.14 410.257 278.989 410.027 279.039 409.791C279.088 409.556 279.319 409.405 279.555 409.455C288.299 411.292 305.621 421.62 309.019 435.656C309.075 435.891 308.929 436.125 308.697 436.183L308.627 436.193Z" fill="white"/>
<path d="M288.784 426.011C288.636 426.021 288.487 425.956 288.395 425.825C288.257 425.628 288.305 425.357 288.503 425.219C288.752 425.044 294.676 420.964 300.905 422.205C301.141 422.252 301.295 422.481 301.248 422.717C301.2 422.953 300.975 423.108 300.735 423.059C294.876 421.892 289.059 425.893 289.001 425.933L288.784 426.011" fill="white"/>
<path d="M218.789 310.595L163.955 342.253C161.92 343.428 159.947 346.257 159.545 348.571L145.919 427.251C145.517 429.565 146.841 432.393 148.876 433.568L184.233 453.983C186.268 455.156 189.567 455.156 191.601 453.983L267.169 410.352C269.204 409.177 270.855 406.439 270.855 404.235C270.855 402.031 269.205 399.292 267.171 398.119L239.98 382.42C237.947 381.245 236.104 378.399 235.867 376.061L229.816 316.689C229.579 314.352 227.839 311.565 225.929 310.463C224.021 309.36 220.824 309.42 218.789 310.595Z" fill="#17282F"/>
<path d="M187.916 440.148L187.917 454.863C189.251 454.863 190.584 454.569 191.601 453.983L267.171 410.352C269.205 409.177 270.855 406.439 270.855 404.236C270.855 402.945 270.28 401.48 269.404 400.244H257.032L187.916 440.148Z" fill="#223263"/>
<path d="M225.701 314.585L170.867 346.244C168.832 347.419 166.857 350.247 166.456 352.561L154.085 423.985C153.684 426.3 155.009 429.128 157.044 430.303L184.233 446.001C186.268 447.176 189.567 447.176 191.601 446.001L267.171 402.372C269.205 401.197 269.205 399.292 267.171 398.119L239.98 382.42C237.947 381.245 236.104 378.399 235.867 376.061L229.816 316.689C229.579 314.352 227.736 313.409 225.701 314.585" fill="#17282F"/>
<path d="M267.171 398.119L239.98 382.42C238.979 381.841 238.024 380.853 237.284 379.724L154.607 427.457C155.139 428.647 155.993 429.697 157.043 430.303L184.233 446.001C186.268 447.176 189.567 447.176 191.601 446.001L267.171 402.372C269.205 401.197 269.205 399.292 267.171 398.119" fill="#223263"/>
<path d="M44.5334 467.079L41.023 465.052C38.1746 463.407 35.8662 459.408 35.8662 456.119L35.8646 220.629C35.8646 217.341 38.1766 213.348 41.0292 211.709L328.724 46.5387C331.576 44.9001 336.197 44.9054 339.045 46.5508L341.723 48.0961C344.571 49.7414 346.88 53.7401 346.88 57.0294V292.517C346.88 295.805 344.571 299.805 341.723 301.449L54.8479 467.079C52.0006 468.723 47.3818 468.723 44.5334 467.079Z" fill="#223263"/>
<path d="M56.599 226.645L37.3787 215.548C36.4432 217.163 35.8646 218.985 35.8646 220.629L35.8662 456.119C35.8662 459.408 38.1755 463.407 41.0235 465.052L44.5334 467.079C47.3818 468.723 52 468.723 54.8479 467.079L56.5995 466.067L56.599 226.645" fill="#223263"/>
<path d="M49.6912 464.1V228.612C49.6912 225.323 52.0006 221.324 54.8479 219.68L341.723 54.0507C344.571 52.4067 346.88 53.7401 346.88 57.0294V292.517C346.88 295.805 344.571 299.805 341.723 301.449L54.8479 467.079C52.0006 468.723 49.6912 467.389 49.6912 464.1" fill="#223263"/>
<path d="M187.48 375.451L208.507 363.312C210.08 362.403 211.356 363.048 211.356 364.752C211.356 366.457 210.08 368.575 208.507 369.483L187.48 381.623C185.907 382.531 184.631 381.885 184.631 380.181C184.631 378.477 185.907 376.36 187.48 375.451Z" fill="#DADBD8"/>
<path d="M62.9047 226.881L333.081 70.4547C334.708 69.5121 336.027 70.2721 336.027 72.1521V277.393C336.027 279.272 334.707 281.557 333.08 282.497L62.9074 438.481C61.2798 439.421 59.9599 438.659 59.9599 436.78V231.989C59.9599 230.109 61.2782 227.823 62.9047 226.881" fill="white"/>
<path d="M73.6605 418.756C72.2339 418.756 71.3823 417.584 71.3823 415.623V251.809L324.603 105.612L324.604 268.656C324.604 271.831 322.367 275.705 319.617 277.293L75.7027 418.119C74.9807 418.536 74.2746 418.756 73.6605 418.756Z" fill="#FAFAF9"/>
<path d="M325.269 104.457L70.7156 251.424V415.623C70.7156 418.031 71.914 419.423 73.6604 419.423C74.3751 419.423 75.1823 419.188 76.0364 418.696L319.951 277.871C322.889 276.175 325.271 272.048 325.271 268.656L325.269 104.457V104.457ZM323.936 106.765L323.937 268.656C323.937 271.568 321.807 275.26 319.284 276.716L75.3698 417.54C74.749 417.9 74.1579 418.089 73.6604 418.089C72.2058 418.089 72.049 416.365 72.049 415.623V252.193L323.936 106.765" fill="#DADBD8"/>
<path d="M70.7156 251.424V274.461L325.268 127.496L325.269 104.457L70.7156 251.424Z" fill="#F89F1D"/>
<path d="M230.437 168.243V173.203C230.437 174.216 231.156 174.631 232.033 174.124L310.297 128.939V120.293L232.033 165.479C231.155 165.985 230.436 167.229 230.437 168.243" fill="#FAFAF9"/>
<path d="M318.684 115.451C319.565 114.941 320.28 115.355 320.28 116.373V121.332C320.28 122.351 319.565 123.588 318.684 124.096L310.297 128.939V120.293L318.684 115.451Z" fill="#33535F"/>
<path d="M315.061 124.043C314.803 124.193 314.577 124.216 314.392 124.108C314.08 123.929 313.887 123.393 313.887 122.712C313.887 121.405 314.584 119.9 315.409 119.423C315.561 119.335 315.7 119.291 315.828 119.291L316.079 119.356C316.389 119.536 316.584 120.072 316.584 120.753C316.584 122.06 315.887 123.567 315.061 124.043ZM318.064 122.251L317.128 121.959C317.224 121.563 317.277 121.153 317.277 120.753C317.277 119.796 316.967 119.069 316.424 118.756C316.023 118.523 315.537 118.545 315.061 118.821C314.013 119.427 313.193 121.136 313.193 122.712C313.193 123.669 313.503 124.397 314.045 124.709C314.229 124.816 314.428 124.868 314.639 124.868C314.888 124.868 315.148 124.793 315.409 124.644C316.037 124.28 316.583 123.515 316.92 122.621L317.857 122.913L317.96 122.929C318.108 122.929 318.245 122.835 318.292 122.684C318.348 122.501 318.247 122.308 318.064 122.251" fill="#FAFAF9"/>
<path d="M70.7156 240.277C70.7156 236.884 73.0979 232.759 76.036 231.061L319.949 90.2387C322.887 88.5414 325.269 89.9174 325.269 93.3107V104.457L70.7156 251.424V240.277Z" fill="#223263"/>
<path d="M295.324 110.205C293.945 111.001 292.828 112.936 292.828 114.528C292.828 116.12 293.945 116.765 295.324 115.969C296.701 115.173 297.819 113.239 297.819 111.647C297.819 110.055 296.701 109.409 295.324 110.205Z" fill="#26B6A6"/>
<path d="M304.057 105.176C302.679 105.971 301.561 107.907 301.561 109.499C301.561 111.091 302.679 111.736 304.057 110.94C305.436 110.144 306.553 108.208 306.553 106.616C306.553 105.024 305.436 104.379 304.057 105.176Z" fill="#26B6A6"/>
<path d="M312.792 100.145C311.413 100.941 310.296 102.876 310.296 104.468C310.296 106.06 311.413 106.705 312.792 105.909C314.169 105.113 315.287 103.179 315.287 101.587C315.287 99.9947 314.169 99.3494 312.792 100.145Z" fill="#26B6A6"/>
<path d="M73.6605 418.756C72.2339 418.756 71.3823 417.584 71.3823 415.624V274.847L119.965 246.797V392.564L75.7027 418.119C74.9807 418.536 74.2746 418.756 73.6605 418.756Z" fill="#F3F2F1"/>
<path d="M120.632 245.643L70.7156 274.461V415.624C70.7156 418.031 71.914 419.423 73.6604 419.423C74.3751 419.423 75.1823 419.188 76.036 418.696L120.632 392.948V245.643ZM119.298 247.952V392.179L75.3694 417.541C74.749 417.9 74.1579 418.089 73.6604 418.089C72.2058 418.089 72.049 416.365 72.049 415.624V275.232L119.298 247.952" fill="#F89F1D" fill-opacity="0.26"/>
<path d="M87.287 276.423L111.166 262.62C112.048 262.111 112.762 262.523 112.762 263.541L112.762 265.619C112.762 266.636 112.046 267.875 111.166 268.384L87.2861 282.185C86.4042 282.696 85.6902 282.284 85.6902 281.265L85.6913 279.188C85.6918 278.171 86.4063 276.932 87.287 276.423" fill="#F89F1D" fill-opacity="0.26"/>
<path d="M80.6995 282.069V284.147C80.6995 285.165 79.9844 286.403 79.1031 286.912L77.3047 287.951C76.4235 288.459 75.7084 288.047 75.7084 287.028V284.951C75.7084 283.933 76.4235 282.696 77.3047 282.187L79.1031 281.148C79.9844 280.639 80.6995 281.052 80.6995 282.069" fill="#F89F1D"/>
<path d="M87.287 287.907L111.166 274.104C112.048 273.596 112.762 274.008 112.762 275.025L112.762 277.103C112.762 278.12 112.046 279.359 111.166 279.868L87.2861 293.671C86.4042 294.18 85.6902 293.767 85.6902 292.749L85.6913 290.672C85.6918 289.655 86.4063 288.416 87.287 287.907" fill="#F89F1D" fill-opacity="0.26"/>
<path d="M80.6995 293.553V295.631C80.6995 296.649 79.9844 297.887 79.1031 298.396L77.3047 299.433C76.4235 299.943 75.7084 299.531 75.7084 298.513V296.435C75.7084 295.417 76.4235 294.18 77.3047 293.671L79.1031 292.632C79.9844 292.124 80.6995 292.536 80.6995 293.553" fill="#F89F1D"/>
<path d="M87.287 299.391L111.166 285.589C112.048 285.079 112.762 285.492 112.762 286.509L112.762 288.587C112.762 289.604 112.046 290.843 111.166 291.352L87.2861 305.155C86.4042 305.664 85.6902 305.252 85.6902 304.235L85.6913 302.156C85.6918 301.139 86.4063 299.901 87.287 299.391" fill="#F89F1D" fill-opacity="0.26"/>
<path d="M80.6995 305.039V307.115C80.6995 308.133 79.9844 309.371 79.1031 309.88L77.3047 310.919C76.4235 311.428 75.7084 311.015 75.7084 309.996V307.92C75.7084 306.901 76.4235 305.664 77.3047 305.155L79.1031 304.116C79.9844 303.607 80.6995 304.02 80.6995 305.039" fill="#F89F1D"/>
<path d="M87.287 321.859L111.166 308.057C112.048 307.547 112.762 307.959 112.762 308.977L112.762 311.055C112.762 312.072 112.046 313.311 111.166 313.82L87.2861 327.623C86.4042 328.132 85.6902 327.72 85.6902 326.701L85.6913 324.625C85.6918 323.607 86.4063 322.368 87.287 321.859" fill="#F89F1D" fill-opacity="0.26"/>
<path d="M80.6995 327.507V329.584C80.6995 330.601 79.9844 331.839 79.1031 332.348L77.3047 333.387C76.4235 333.896 75.7084 333.483 75.7084 332.464V330.387C75.7084 329.369 76.4235 328.132 77.3047 327.623L79.1031 326.584C79.9844 326.075 80.6995 326.488 80.6995 327.507" fill="#F89F1D"/>
<path d="M87.287 332.031L111.166 318.228C112.048 317.719 112.762 318.131 112.762 319.149L112.762 321.227C112.762 322.244 112.046 323.483 111.166 323.991L87.2861 337.793C86.4042 338.303 85.6902 337.891 85.6902 336.873L85.6913 334.796C85.6918 333.777 86.4063 332.54 87.287 332.031" fill="#F89F1D" fill-opacity="0.26"/>
<path d="M80.6995 337.677V339.755C80.6995 340.772 79.9844 342.011 79.1031 342.519L77.3047 343.557C76.4235 344.067 75.7084 343.653 75.7084 342.636V340.559C75.7084 339.541 76.4235 338.303 77.3047 337.793L79.1031 336.756C79.9844 336.247 80.6995 336.659 80.6995 337.677" fill="#F68812"/>
<path d="M85.6918 311.925V315.508L88.7943 311.925H85.6918Z" fill="#F89F1D"/>
<path d="M90.6829 311.187C90.6829 311.852 91.1594 312.117 91.7474 311.777L111.697 300.291C112.286 299.952 112.762 299.131 112.762 298.457C112.762 297.783 112.286 297.512 111.697 297.851L91.747 309.369C91.1589 309.708 90.6829 310.523 90.6829 311.187" fill="#F89F1D" fill-opacity="0.26"/>
<path d="M133.496 249.94L181.272 222.359C181.944 221.971 182.488 222.285 182.488 223.061V270.321C182.488 271.097 181.944 272.04 181.272 272.428L133.497 300.011C132.825 300.399 132.281 300.084 132.281 299.308L132.28 252.047C132.28 251.272 132.825 250.328 133.496 249.94" fill="#F89C1A"/>
<path d="M132.954 300.176C132.555 300.176 132.281 299.859 132.281 299.308L132.28 252.047C132.28 251.272 132.825 250.328 133.496 249.94L181.272 222.359C181.468 222.245 181.652 222.192 181.816 222.192C182.215 222.192 182.488 222.511 182.488 223.061V270.321C182.488 271.097 181.944 272.04 181.272 272.428L133.497 300.011C133.302 300.123 133.118 300.176 132.954 300.176" fill="#BEE9E1"/>
<path d="M169.161 249.167L161.179 263.295L166.789 270.567L148.256 254.596L132.281 289.181L132.281 299.308C132.281 300.084 132.826 300.399 133.497 300.011L181.272 272.428C181.944 272.04 182.488 271.097 182.488 270.32V261.352L169.161 249.167" fill="#F89C1A"/>
<path d="M171.076 234.629C173.063 233.481 174.673 234.412 174.673 236.707C174.673 239.001 173.063 241.792 171.076 242.94C169.089 244.087 167.479 243.157 167.479 240.863C167.479 238.568 169.089 235.777 171.076 234.629Z" fill="#F89C1A"/>
<path d="M198.488 212.365L246.264 184.784C246.936 184.396 247.48 184.709 247.48 185.485V232.745C247.48 233.521 246.936 234.464 246.264 234.852L198.489 262.435C197.817 262.823 197.273 262.509 197.273 261.733L197.272 214.472C197.272 213.697 197.816 212.753 198.488 212.365" fill="#F89C1A"/>
<path d="M197.947 262.601C197.548 262.601 197.273 262.283 197.273 261.733L197.272 214.472C197.272 213.697 197.816 212.753 198.488 212.365L246.264 184.784C246.46 184.671 246.644 184.617 246.808 184.617C247.207 184.617 247.48 184.936 247.48 185.485V232.745C247.48 233.521 246.936 234.464 246.264 234.852L198.489 262.435C198.295 262.548 198.109 262.601 197.947 262.601" fill="#BEE9E1"/>
<path d="M234.153 211.592L226.172 225.72L231.781 232.992L213.248 217.021L197.273 251.607V261.733C197.273 262.509 197.817 262.823 198.489 262.435L246.264 234.852C246.936 234.464 247.48 233.521 247.48 232.745V223.777L234.153 211.592" fill="#F89C1A"/>
<path d="M236.068 197.055C238.056 195.907 239.667 196.836 239.667 199.131C239.667 201.427 238.056 204.217 236.068 205.364C234.081 206.512 232.471 205.581 232.471 203.288C232.471 200.992 234.081 198.201 236.068 197.055Z" fill="#F68812"/>
<path d="M263.481 174.797L311.257 147.216C311.929 146.828 312.475 147.143 312.475 147.919V195.177C312.475 195.955 311.929 196.897 311.257 197.285L263.483 224.868C262.812 225.256 262.267 224.941 262.267 224.165L262.265 176.904C262.265 176.129 262.809 175.185 263.481 174.797" fill="#26B6A6"/>
<path d="M262.94 225.035C262.541 225.035 262.267 224.716 262.267 224.165L262.265 176.904C262.265 176.129 262.809 175.185 263.481 174.797L311.257 147.216C311.453 147.103 311.637 147.049 311.801 147.049C312.2 147.049 312.475 147.368 312.475 147.919V195.177C312.475 195.955 311.929 196.897 311.257 197.285L263.483 224.868C263.288 224.981 263.104 225.035 262.94 225.035" fill="#BEE9E1"/>
<path d="M299.147 174.024L291.165 188.152L296.775 195.424L278.241 179.455L262.267 214.039V224.165C262.267 224.941 262.812 225.256 263.483 224.868L311.257 197.285C311.929 196.897 312.475 195.955 312.475 195.179V186.209L299.147 174.024Z" fill="#F68812"/>
<path d="M301.061 159.487C303.049 158.339 304.66 159.269 304.66 161.564C304.66 163.859 303.049 166.649 301.061 167.797C299.075 168.944 297.464 168.015 297.464 165.72C297.464 163.425 299.075 160.635 301.061 159.487Z" fill="#F68C13"/>
<path d="M133.496 318.741L181.272 291.159C181.944 290.772 182.488 291.087 182.488 291.861V339.121C182.488 339.897 181.944 340.841 181.272 341.229L133.497 368.812C132.825 369.199 132.281 368.884 132.281 368.109L132.28 320.848C132.28 320.072 132.825 319.129 133.496 318.741" fill="#4099D0"/>
<path d="M132.955 368.977C132.555 368.977 132.281 368.659 132.281 368.109L132.28 320.848C132.28 320.072 132.825 319.129 133.496 318.741L181.272 291.159C181.468 291.047 181.652 290.993 181.815 290.993C182.215 290.993 182.488 291.312 182.488 291.861V339.121C182.488 339.897 181.944 340.841 181.272 341.229L133.497 368.812C133.303 368.924 133.118 368.977 132.955 368.977" fill="#BEE9E1"/>
<path d="M169.161 317.968L161.179 332.096L166.789 339.368L148.256 323.397L132.281 357.983L132.281 368.109C132.281 368.884 132.826 369.199 133.497 368.812L181.272 341.229C181.944 340.841 182.488 339.897 182.488 339.121V330.153L169.161 317.968Z" fill="#F68812"/>
<path d="M171.076 303.431C173.063 302.283 174.673 303.212 174.673 305.508C174.673 307.803 173.063 310.593 171.076 311.74C169.089 312.888 167.479 311.959 167.479 309.663C167.479 307.369 169.089 304.577 171.076 303.431Z" fill="#F68812"/>
<path d="M198.488 281.167L246.264 253.584C246.936 253.196 247.48 253.511 247.48 254.287V301.547C247.48 302.323 246.936 303.265 246.264 303.653L198.489 331.236C197.817 331.624 197.273 331.309 197.273 330.535L197.272 283.273C197.272 282.497 197.816 281.555 198.488 281.167" fill="#F89C1A"/>
<path d="M197.947 331.403C197.548 331.403 197.273 331.084 197.273 330.535L197.272 283.273C197.272 282.497 197.816 281.555 198.488 281.167L246.264 253.584C246.46 253.472 246.644 253.419 246.808 253.419C247.207 253.419 247.48 253.736 247.48 254.287V301.547C247.48 302.323 246.936 303.265 246.264 303.653L198.489 331.236C198.295 331.349 198.109 331.403 197.947 331.403Z" fill="#BEE9E1"/>
<path d="M234.153 280.393L226.172 294.52L231.781 301.792L213.248 285.821L197.273 320.407V330.535C197.273 331.309 197.817 331.624 198.489 331.236L246.264 303.653C246.936 303.265 247.48 302.323 247.48 301.547V292.579L234.153 280.393" fill="#F89C1A"/>
<path d="M236.068 265.855C238.056 264.708 239.667 265.637 239.667 267.932C239.667 270.227 238.056 273.017 236.068 274.165C234.081 275.313 232.471 274.383 232.471 272.088C232.471 269.793 234.081 267.003 236.068 265.855Z" fill="#F89C1A"/>
<path d="M263.481 243.599L311.257 216.017C311.929 215.629 312.475 215.944 312.475 216.719V263.98C312.475 264.755 311.929 265.699 311.257 266.087L263.483 293.669C262.812 294.057 262.267 293.743 262.267 292.967L262.265 245.707C262.265 244.929 262.809 243.987 263.481 243.599" fill="#26B6A6"/>
<path d="M262.94 293.835C262.541 293.835 262.267 293.517 262.267 292.967L262.265 245.707C262.265 244.929 262.809 243.987 263.481 243.599L311.257 216.017C311.453 215.904 311.637 215.851 311.801 215.851C312.2 215.851 312.475 216.169 312.475 216.719V230.203L309.809 231.741C307.927 232.828 306.4 235.472 306.4 237.645V268.891L263.483 293.669C263.288 293.781 263.104 293.835 262.94 293.835" fill="#BEE9E1"/>
<path d="M299.147 242.825L291.165 256.953L296.775 264.225L278.241 248.255L262.267 282.84V292.967C262.267 293.743 262.812 294.057 263.483 293.669L311.257 266.087C311.929 265.699 312.475 264.755 312.475 263.98V255.011L299.147 242.825Z" fill="#F89C1A"/>
<path d="M301.061 228.288C303.049 227.14 304.66 228.071 304.66 230.365C304.66 232.66 303.049 235.451 301.061 236.599C299.075 237.745 297.464 236.816 297.464 234.52C297.464 232.227 299.075 229.435 301.061 228.288Z" fill="#26B6A6"/>
<path d="M312.128 452.715L309.809 451.376C307.927 450.289 306.4 447.647 306.4 445.472V237.645C306.4 235.472 307.927 232.828 309.809 231.741L403.493 177.652C405.375 176.565 408.428 176.565 410.311 177.652L412.631 178.991C414.513 180.079 416.039 182.721 416.039 184.896V392.723C416.039 394.896 414.513 397.54 412.631 398.627L318.944 452.715C317.063 453.803 314.009 453.803 312.128 452.715" fill="#223263"/>
<path d="M320.104 241.621L307.399 234.287C306.783 235.355 306.4 236.559 306.4 237.645V445.472C306.4 447.647 307.927 450.289 309.809 451.376L312.128 452.715C314.011 453.803 317.063 453.803 318.944 452.715L320.104 452.045V241.621Z" fill="#4A55B0"/>
<path d="M315.535 242.92V450.747C315.535 452.921 317.063 453.803 318.944 452.715L412.631 398.627C414.513 397.54 416.039 394.896 416.039 392.723V184.896C416.039 182.721 414.513 181.841 412.631 182.928L318.944 237.016C317.063 238.103 315.535 240.747 315.535 242.92" fill="#223263"/>
<path d="M323.027 257.607L408.213 208.428C409.827 207.496 411.136 208.251 411.136 210.115V373.501C411.136 375.365 409.827 377.631 408.213 378.563L323.028 427.741C321.415 428.673 320.105 427.917 320.105 426.055L320.104 262.667C320.104 260.804 321.413 258.539 323.027 257.607Z" fill="white"/>
<path d="M365.787 215.436C367.048 214.708 368.072 215.299 368.072 216.756C368.072 218.212 367.048 219.984 365.787 220.711C364.527 221.44 363.503 220.849 363.503 219.393C363.503 217.936 364.527 216.164 365.787 215.436Z" fill="#17282F"/>
<path d="M359.192 226.847C363.832 224.281 372.112 219.353 376.688 216.661C377.464 216.205 378.093 216.52 378.093 217.365C378.093 218.211 377.461 219.261 376.68 219.712L359.155 229.833C358.373 230.284 357.743 229.964 357.743 229.119C357.743 228.273 358.403 227.283 359.192 226.847" fill="#17282F"/>
<path d="M354.763 229.405C355.472 228.996 356.045 229.328 356.045 230.145C356.045 230.963 355.472 231.959 354.763 232.367C354.055 232.776 353.48 232.444 353.48 231.627C353.48 230.808 354.055 229.815 354.763 229.405Z" fill="#17282F"/>
<path d="M366.597 407.104C369.569 405.389 371.977 406.78 371.977 410.209C371.977 413.64 369.569 417.811 366.597 419.527C363.628 421.241 361.219 419.851 361.219 416.421C361.219 412.991 363.627 408.82 366.597 407.104Z" fill="#17282F"/>
<path d="M326.867 275.847L359.703 256.888C360.165 256.621 360.539 256.837 360.539 257.371V289.853C360.539 290.387 360.165 291.036 359.703 291.303L326.867 310.261C326.405 310.527 326.031 310.311 326.031 309.777V277.295C326.031 276.761 326.404 276.113 326.867 275.847Z" fill="#F89F1D"/>
<path d="M326.493 310.375C326.219 310.375 326.031 310.156 326.031 309.777V277.295C326.031 276.761 326.404 276.113 326.867 275.847L359.703 256.888C359.837 256.811 359.964 256.773 360.077 256.773C360.351 256.773 360.539 256.992 360.539 257.371V289.853C360.539 290.387 360.165 291.036 359.703 291.303L326.867 310.261C326.732 310.339 326.605 310.375 326.493 310.375Z" fill="#BEE9E1"/>
<path d="M351.379 275.315L345.893 285.024L349.749 290.023L337.009 279.045L326.031 302.817V309.777C326.031 310.311 326.405 310.527 326.867 310.261L359.703 291.303C360.165 291.036 360.539 290.387 360.539 289.853V283.689L351.379 275.315Z" fill="#F68812"/>
<path d="M352.696 265.323C354.061 264.533 355.168 265.173 355.168 266.749C355.168 268.327 354.061 270.245 352.696 271.035C351.329 271.823 350.223 271.184 350.223 269.607C350.223 268.029 351.329 266.111 352.696 265.323" fill="#26B6A6"/>
<path d="M371.536 250.02L404.373 231.063C404.836 230.795 405.209 231.012 405.209 231.545V264.028C405.209 264.561 404.836 265.209 404.373 265.476L371.537 284.433C371.076 284.701 370.701 284.484 370.701 283.952V251.468C370.701 250.935 371.075 250.287 371.536 250.02" fill="#F89F1D"/>
<path d="M371.164 284.548C370.889 284.548 370.701 284.329 370.701 283.952V251.468C370.701 250.935 371.075 250.287 371.536 250.02L404.373 231.063C404.508 230.984 404.635 230.948 404.748 230.948C405.021 230.948 405.209 231.167 405.209 231.545V264.028C405.209 264.561 404.836 265.209 404.373 265.476L371.537 284.433C371.404 284.512 371.276 284.548 371.164 284.548" fill="#BEE9E1"/>
<path d="M396.049 249.488L390.564 259.199L394.42 264.197L381.681 253.22L370.701 276.991V283.952C370.701 284.485 371.076 284.701 371.537 284.433L404.373 265.476C404.836 265.209 405.209 264.561 405.209 264.028V257.864L396.049 249.488" fill="#F68812"/>
<path d="M397.367 239.496C398.732 238.708 399.839 239.347 399.839 240.924C399.839 242.501 398.732 244.419 397.367 245.208C396 245.996 394.893 245.357 394.893 243.78C394.893 242.203 396 240.285 397.367 239.496Z" fill="#26B6A6"/>
<path d="M326.867 323.135L359.703 304.177C360.165 303.911 360.539 304.127 360.539 304.66V337.143C360.539 337.676 360.165 338.324 359.703 338.591L326.867 357.549C326.405 357.816 326.031 357.6 326.031 357.067V324.583C326.031 324.049 326.404 323.401 326.867 323.135Z" fill="#F89F1D"/>
<path d="M326.493 357.664C326.219 357.664 326.031 357.445 326.031 357.067V324.583C326.031 324.049 326.404 323.401 326.867 323.135L359.703 304.177C359.837 304.1 359.964 304.063 360.076 304.063C360.351 304.063 360.539 304.281 360.539 304.66V337.143C360.539 337.676 360.165 338.324 359.703 338.591L326.867 357.549C326.732 357.627 326.605 357.664 326.493 357.664Z" fill="#BEE9E1"/>
<path d="M351.379 322.603L345.893 332.313L349.749 337.312L337.009 326.335L326.031 350.107V357.067C326.031 357.6 326.405 357.816 326.867 357.549L359.703 338.591C360.165 338.324 360.539 337.676 360.539 337.143V330.979L351.379 322.603" fill="#F68812"/>
<path d="M352.696 312.611C354.061 311.823 355.168 312.461 355.168 314.039C355.168 315.616 354.061 317.535 352.696 318.323C351.329 319.112 350.223 318.472 350.223 316.896C350.223 315.319 351.329 313.4 352.696 312.611" fill="#F89F1D"/>
<path d="M371.536 297.309L404.373 278.351C404.836 278.084 405.209 278.3 405.209 278.833V311.317C405.209 311.849 404.836 312.497 404.373 312.764L371.537 331.723C371.076 331.989 370.701 331.773 370.701 331.24V298.757C370.701 298.224 371.075 297.575 371.536 297.309" fill="#F89F1D"/>
<path d="M371.164 331.837C370.891 331.837 370.701 331.619 370.701 331.24V298.757C370.701 298.224 371.075 297.575 371.536 297.309L404.373 278.351C404.508 278.273 404.635 278.236 404.747 278.236C405.021 278.236 405.209 278.455 405.209 278.833V311.317C405.209 311.849 404.836 312.497 404.373 312.764L371.537 331.723C371.404 331.8 371.277 331.837 371.164 331.837" fill="#BEE9E1"/>
<path d="M396.049 296.777L390.564 306.487L394.42 311.485L381.681 300.509L370.701 324.28V331.24C370.701 331.773 371.076 331.989 371.537 331.723L404.373 312.764C404.836 312.497 405.209 311.849 405.209 311.317V305.152L396.049 296.777" fill="#F68812"/>
<path d="M397.367 286.785C398.732 285.996 399.839 286.635 399.839 288.212C399.839 289.791 398.732 291.708 397.367 292.496C396 293.285 394.893 292.647 394.893 291.069C394.893 289.492 396 287.573 397.367 286.785Z" fill="#F89F1D"/>
<path d="M326.867 370.399L359.703 351.441C360.165 351.175 360.539 351.391 360.539 351.924V384.407C360.539 384.94 360.165 385.589 359.703 385.855L326.867 404.813C326.405 405.08 326.031 404.864 326.031 404.331V371.847C326.031 371.315 326.404 370.665 326.867 370.399" fill="#F89F1D"/>
<path d="M326.493 404.928C326.219 404.928 326.031 404.709 326.031 404.331V371.847C326.031 371.315 326.404 370.665 326.867 370.399L359.703 351.441C359.837 351.364 359.965 351.328 360.077 351.328C360.351 351.328 360.539 351.547 360.539 351.924V384.407C360.539 384.94 360.165 385.589 359.703 385.855L326.867 404.813C326.732 404.891 326.605 404.928 326.493 404.928Z" fill="#BEE9E1"/>
<path d="M351.379 369.868L345.893 379.577L349.749 384.576L337.009 373.599L326.031 397.371V404.331C326.031 404.864 326.405 405.08 326.867 404.813L359.703 385.855C360.165 385.589 360.539 384.94 360.539 384.407V378.243L351.379 369.868Z" fill="#F68812"/>
<path d="M352.696 359.875C354.061 359.087 355.168 359.725 355.168 361.303C355.168 362.88 354.061 364.799 352.696 365.588C351.329 366.376 350.223 365.736 350.223 364.16C350.223 362.583 351.329 360.664 352.696 359.875Z" fill="#F89F1D"/>
<path d="M371.536 344.573L404.373 325.615C404.836 325.348 405.209 325.565 405.209 326.099V358.581C405.209 359.113 404.836 359.761 404.373 360.029L371.537 378.988C371.076 379.253 370.701 379.037 370.701 378.504V346.021C370.701 345.488 371.075 344.84 371.536 344.573" fill="#F89F1D"/>
<path d="M371.164 379.101C370.891 379.101 370.701 378.883 370.701 378.504V346.021C370.701 345.488 371.075 344.84 371.536 344.573L404.373 325.615C404.508 325.537 404.635 325.501 404.747 325.501C405.021 325.501 405.209 325.72 405.209 326.099V358.581C405.209 359.113 404.836 359.761 404.373 360.029L371.537 378.988C371.404 379.064 371.277 379.101 371.164 379.101" fill="#BEE9E1"/>
<path d="M396.049 344.041L390.564 353.752L394.42 358.749L381.681 347.773L370.701 371.544V378.504C370.701 379.037 371.076 379.253 371.537 378.987L404.373 360.029C404.836 359.763 405.209 359.113 405.209 358.581V352.417L396.049 344.041" fill="#F68812"/>
<path d="M397.367 334.049C398.732 333.26 399.839 333.9 399.839 335.477C399.839 337.053 398.732 338.972 397.367 339.761C396 340.549 394.893 339.911 394.893 338.333C394.893 336.756 396 334.837 397.367 334.049Z" fill="#F89F1D"/>
<path d="M411.136 210.115C411.136 208.251 409.827 207.496 408.213 208.428L323.027 257.607C321.413 258.539 320.104 260.804 320.104 262.667V270.799L411.136 218.24V210.115Z" fill="#F68812"/>
<path d="M320.105 417.307V426.055C320.105 427.917 321.415 428.673 323.028 427.741L408.213 378.563C409.827 377.631 411.136 375.365 411.136 373.501V364.751L320.105 417.307Z" fill="#F68812"/>
<path d="M432.295 285.281L434.027 284.281C434.665 283.913 434.884 283.097 434.516 282.46C434.148 281.821 433.332 281.603 432.695 281.971L430.961 282.971C430.324 283.339 430.105 284.155 430.473 284.792C430.841 285.431 431.656 285.649 432.295 285.281Z" fill="#33535F"/>
<path d="M439.831 280.929L443.313 278.919C443.952 278.551 444.169 277.735 443.801 277.097C443.433 276.459 442.619 276.241 441.98 276.609L438.497 278.62C437.86 278.988 437.641 279.804 438.009 280.441C438.377 281.079 439.193 281.297 439.831 280.929ZM449.119 275.567L452.601 273.556C453.239 273.188 453.457 272.372 453.089 271.735C452.721 271.097 451.905 270.879 451.268 271.247L447.785 273.257C447.147 273.625 446.928 274.441 447.297 275.079C447.665 275.717 448.48 275.935 449.119 275.567ZM458.405 270.205L461.888 268.195C462.525 267.827 462.744 267.011 462.376 266.373C462.008 265.735 461.192 265.516 460.555 265.885L457.072 267.896C456.435 268.264 456.216 269.079 456.584 269.717C456.952 270.355 457.768 270.573 458.405 270.205ZM467.693 264.843L471.176 262.832C471.813 262.464 472.032 261.648 471.664 261.011C471.295 260.373 470.48 260.155 469.843 260.523L466.36 262.533C465.721 262.901 465.503 263.717 465.872 264.355C466.24 264.992 467.055 265.211 467.693 264.843ZM476.98 259.481L480.463 257.471C481.1 257.101 481.319 256.287 480.951 255.649C480.583 255.011 479.767 254.792 479.129 255.161L475.647 257.172C475.009 257.54 474.791 258.355 475.159 258.993C475.527 259.631 476.343 259.849 476.98 259.481ZM486.268 254.119L489.751 252.108C490.388 251.74 490.607 250.924 490.239 250.287C489.869 249.649 489.055 249.431 488.417 249.799L484.935 251.809C484.296 252.177 484.077 252.993 484.447 253.631C484.815 254.268 485.629 254.487 486.268 254.119Z" fill="#F68812"/>
<path d="M495.555 248.757L497.288 247.757C497.7 247.52 497.955 247.079 497.955 246.603V244.603C497.955 243.867 497.357 243.269 496.621 243.269C495.885 243.269 495.288 243.867 495.288 244.603V245.832L494.221 246.448C493.584 246.816 493.365 247.631 493.733 248.269C494.101 248.907 494.917 249.125 495.555 248.757" fill="#33535F"/>
<path d="M497.955 238.021V234.072C497.955 233.336 497.357 232.739 496.621 232.739C495.885 232.739 495.288 233.336 495.288 234.072V238.021C495.288 238.757 495.885 239.355 496.621 239.355C497.357 239.355 497.955 238.757 497.955 238.021ZM497.955 227.491V223.543C497.955 222.805 497.357 222.209 496.621 222.209C495.885 222.209 495.288 222.805 495.288 223.543V227.491C495.288 228.227 495.885 228.824 496.621 228.824C497.357 228.824 497.955 228.227 497.955 227.491ZM497.955 216.961V213.012C497.955 212.276 497.357 211.679 496.621 211.679C495.885 211.679 495.288 212.276 495.288 213.012V216.961C495.288 217.697 495.885 218.295 496.621 218.295C497.357 218.295 497.955 217.697 497.955 216.961ZM497.955 206.431V202.481C497.955 201.745 497.357 201.148 496.621 201.148C495.885 201.148 495.288 201.745 495.288 202.481V206.431C495.288 207.167 495.885 207.764 496.621 207.764C497.357 207.764 497.955 207.167 497.955 206.431ZM497.955 195.9V191.952C497.955 191.215 497.357 190.619 496.621 190.619C495.885 190.619 495.288 191.215 495.288 191.952V195.9C495.288 196.636 495.885 197.233 496.621 197.233C497.357 197.233 497.955 196.636 497.955 195.9ZM497.955 185.371V181.421C497.955 180.685 497.357 180.088 496.621 180.088C495.885 180.088 495.288 180.685 495.288 181.421V185.371C495.288 186.107 495.885 186.704 496.621 186.704C497.357 186.704 497.955 186.107 497.955 185.371ZM497.955 174.84V170.891C497.955 170.155 497.357 169.557 496.621 169.557C495.885 169.557 495.288 170.155 495.288 170.891V174.84C495.288 175.576 495.885 176.173 496.621 176.173C497.357 176.173 497.955 175.576 497.955 174.84ZM497.955 164.309V160.361C497.955 159.624 497.357 159.028 496.621 159.028C495.885 159.028 495.288 159.624 495.288 160.361V164.309C495.288 165.045 495.885 165.643 496.621 165.643C497.357 165.643 497.955 165.045 497.955 164.309ZM497.955 153.78V149.831C497.955 149.095 497.357 148.497 496.621 148.497C495.885 148.497 495.288 149.095 495.288 149.831V153.78C495.288 154.516 495.885 155.113 496.621 155.113C497.357 155.113 497.955 154.516 497.955 153.78ZM497.955 143.249V139.3C497.955 138.564 497.357 137.967 496.621 137.967C495.885 137.967 495.288 138.564 495.288 139.3V143.249C495.288 143.985 495.885 144.583 496.621 144.583C497.357 144.583 497.955 143.985 497.955 143.249ZM497.955 132.719V128.769C497.955 128.033 497.357 127.436 496.621 127.436C495.885 127.436 495.288 128.033 495.288 128.769V132.719C495.288 133.455 495.885 134.052 496.621 134.052C497.357 134.052 497.955 133.455 497.955 132.719ZM497.955 122.188V118.24C497.955 117.503 497.357 116.907 496.621 116.907C495.885 116.907 495.288 117.503 495.288 118.24V122.188C495.288 122.925 495.885 123.521 496.621 123.521C497.357 123.521 497.955 122.925 497.955 122.188ZM497.955 111.659V107.709C497.955 106.973 497.357 106.376 496.621 106.376C495.885 106.376 495.288 106.973 495.288 107.709V111.659C495.288 112.395 495.885 112.992 496.621 112.992C497.357 112.992 497.955 112.395 497.955 111.659ZM497.955 101.128V97.1787C497.955 96.4427 497.357 95.8454 496.621 95.8454C495.885 95.8454 495.288 96.4427 495.288 97.1787V101.128C495.288 101.865 495.885 102.461 496.621 102.461C497.357 102.461 497.955 101.865 497.955 101.128ZM497.955 90.5987V86.6494C497.955 85.912 497.357 85.316 496.621 85.316C495.885 85.316 495.288 85.912 495.288 86.6494V90.5987C495.288 91.3347 495.885 91.9321 496.621 91.9321C497.357 91.9321 497.955 91.3347 497.955 90.5987ZM497.955 80.0681V76.1187C497.955 75.3827 497.357 74.7854 496.621 74.7854C495.885 74.7854 495.288 75.3827 495.288 76.1187V80.0681C495.288 80.8041 495.885 81.4014 496.621 81.4014C497.357 81.4014 497.955 80.8041 497.955 80.0681ZM497.955 69.5374V65.588C497.955 64.852 497.357 64.2547 496.621 64.2547C495.885 64.2547 495.288 64.852 495.288 65.588V69.5374C495.288 70.2747 495.885 70.8707 496.621 70.8707C497.357 70.8707 497.955 70.2747 497.955 69.5374ZM497.955 59.008V55.0588C497.955 54.3214 497.357 53.7254 496.621 53.7254C495.885 53.7254 495.288 54.3214 495.288 55.0588V59.008C495.288 59.744 495.885 60.3414 496.621 60.3414C497.357 60.3414 497.955 59.744 497.955 59.008Z" fill="#F68812"/>
<path d="M497.955 48.4773V46.4773C497.955 46 497.7 45.56 497.288 45.3227C496.876 45.084 496.368 45.084 495.955 45.3213L494.221 46.3213C493.584 46.6907 493.365 47.5054 493.733 48.1427C494.101 48.7814 494.917 49 495.555 48.632L497.288 47.632L496.621 46.4773H495.288V48.4773C495.288 49.2133 495.885 49.8107 496.621 49.8107C497.357 49.8107 497.955 49.2133 497.955 48.4773Z" fill="#33535F"/>
<path d="M488.584 49.5774L485.2 51.5307C484.563 51.8987 484.344 52.7147 484.712 53.3521C485.08 53.9894 485.896 54.2081 486.533 53.8401L489.917 51.8868C490.555 51.5188 490.773 50.7028 490.405 50.0654C490.037 49.4281 489.221 49.2094 488.584 49.5774ZM479.563 54.7868L476.179 56.7387C475.541 57.1081 475.323 57.9227 475.691 58.5601C476.059 59.1987 476.875 59.4174 477.512 59.0481L480.896 57.0961C481.533 56.7267 481.752 55.9121 481.384 55.2747C481.015 54.6361 480.2 54.4174 479.563 54.7868ZM470.541 59.9947L467.157 61.9481C466.52 62.3161 466.301 63.1321 466.669 63.7694C467.037 64.4067 467.853 64.6254 468.491 64.2574L471.875 62.3041C472.512 61.9361 472.731 61.1201 472.361 60.4827C471.993 59.8454 471.179 59.6267 470.541 59.9947ZM461.519 65.2027L458.136 67.1561C457.499 67.5241 457.28 68.3401 457.648 68.9774C458.016 69.6147 458.832 69.8334 459.469 69.4654L462.852 67.5121C463.491 67.1441 463.709 66.3294 463.34 65.6907C462.972 65.0534 462.157 64.8347 461.519 65.2027ZM452.497 70.4121L449.115 72.3641C448.477 72.7321 448.259 73.5481 448.627 74.1867C448.995 74.8241 449.811 75.0428 450.448 74.6748L453.831 72.7214C454.469 72.3534 454.688 71.5374 454.319 70.9001C453.951 70.2614 453.136 70.0427 452.497 70.4121ZM443.476 75.6201L440.093 77.5734C439.456 77.9414 439.237 78.7574 439.605 79.3947C439.973 80.0321 440.789 80.2507 441.427 79.8827L444.809 77.9294C445.448 77.5614 445.667 76.7454 445.297 76.1081C444.929 75.4694 444.115 75.2521 443.476 75.6201ZM434.455 80.8281L431.072 82.7814C430.435 83.1494 430.216 83.9654 430.584 84.6028C430.952 85.2414 431.768 85.4587 432.405 85.0907L435.788 83.1374C436.427 82.7694 436.644 81.9547 436.276 81.3161C435.908 80.6787 435.093 80.4601 434.455 80.8281ZM425.433 86.0361L422.051 87.9894C421.413 88.3574 421.195 89.1734 421.563 89.8107C421.931 90.4494 422.747 90.6668 423.384 90.2988L426.767 88.3454C427.405 87.9787 427.623 87.1627 427.255 86.5241C426.887 85.8867 426.072 85.6681 425.433 86.0361ZM416.412 91.2454L413.029 93.1988C412.392 93.5668 412.173 94.3814 412.541 95.0201C412.909 95.6574 413.725 95.8761 414.363 95.5081L417.745 93.5547C418.383 93.1867 418.601 92.3708 418.233 91.7334C417.865 91.0961 417.051 90.8774 416.412 91.2454ZM407.391 96.4534L404.008 98.4068C403.371 98.7748 403.152 99.5907 403.52 100.228C403.888 100.865 404.704 101.084 405.341 100.716L408.724 98.7627C409.361 98.3947 409.58 97.5788 409.212 96.9414C408.844 96.3041 408.028 96.0854 407.391 96.4534ZM398.369 101.663L394.987 103.615C394.349 103.984 394.131 104.799 394.499 105.436C394.867 106.075 395.683 106.293 396.32 105.924L399.703 103.972C400.34 103.603 400.559 102.788 400.191 102.151C399.823 101.512 399.007 101.293 398.369 101.663ZM389.348 106.871L385.965 108.824C385.328 109.192 385.109 110.008 385.477 110.645C385.845 111.283 386.661 111.501 387.299 111.133L390.681 109.18C391.319 108.812 391.537 107.996 391.169 107.359C390.801 106.721 389.985 106.503 389.348 106.871ZM380.327 112.079L376.944 114.032C376.307 114.4 376.088 115.216 376.456 115.853C376.824 116.491 377.639 116.709 378.277 116.341L381.66 114.388C382.297 114.02 382.516 113.205 382.148 112.567C381.78 111.929 380.964 111.711 380.327 112.079ZM371.305 117.288L367.923 119.241C367.284 119.609 367.067 120.424 367.435 121.063C367.803 121.7 368.617 121.919 369.256 121.551L372.639 119.597C373.276 119.229 373.495 118.413 373.127 117.776C372.759 117.139 371.943 116.92 371.305 117.288Z" fill="#F68812"/>
<path d="M362.284 122.496L360.552 123.496C359.915 123.864 359.696 124.68 360.064 125.317C360.432 125.955 361.248 126.173 361.885 125.805L363.617 124.805C364.255 124.437 364.473 123.621 364.105 122.984C363.737 122.347 362.921 122.128 362.284 122.496Z" fill="#33535F"/>
<path d="M517.505 8.26801L506.616 1.98265H506.592L506.48 1.91469L506.469 1.93734C501.053 -1.11999 493.631 -0.669348 485.405 4.07999C477.711 8.51465 470.695 15.916 465.403 24.4787C459.288 34.3387 455.44 45.756 455.44 55.9894C455.44 65.5334 458.78 72.2347 464.184 75.372V75.3827L464.217 75.3947L475.275 81.708C480.736 85.1893 488.444 84.8813 496.996 79.944C513.549 70.3866 526.969 47.1453 526.971 28.032C526.971 18.08 523.328 11.22 517.505 8.26801" fill="#F68C13"/>
<path d="M475.06 81.5867L474.181 81.084L475.057 81.584C475.059 81.5853 475.059 81.5853 475.06 81.5867ZM464.184 75.3787H464.181V75.3694C464.183 75.3707 464.183 75.3707 464.184 75.372V75.3787ZM461.641 73.492C460.473 72.4147 459.447 71.1227 458.584 69.6267C458.584 69.6267 458.584 69.6267 458.585 69.6267C459.448 71.1227 460.473 72.4147 461.641 73.492V73.492ZM457.615 67.7054C456.971 66.2374 456.459 64.6147 456.095 62.8427C456.459 64.6147 456.971 66.2374 457.615 67.7054Z" fill="#E0E1DE"/>
<path d="M458.585 69.6267C458.584 69.6267 458.584 69.6267 458.584 69.6267C458.233 69.02 457.911 68.3787 457.615 67.7054C457.911 68.3787 458.235 69.0187 458.585 69.6267Z" fill="#2C4954"/>
<path d="M456.093 62.8386C456.092 62.8306 456.091 62.8227 456.089 62.8147C456.091 62.8227 456.092 62.8306 456.093 62.8386ZM455.44 55.988C455.44 55.9866 455.44 55.9867 455.44 55.9867C455.44 49.132 457.165 41.7506 460.143 34.6613C457.167 41.7519 455.44 49.136 455.44 55.988Z" fill="#E0E1DE"/>
<path d="M475.057 81.584L474.181 81.084L464.215 75.3893L464.184 75.3786V75.372C464.183 75.3707 464.183 75.3707 464.181 75.3693V75.3667C463.275 74.8413 462.425 74.216 461.641 73.492C460.473 72.4147 459.448 71.1227 458.585 69.6267C458.235 69.0187 457.911 68.3787 457.615 67.7053C456.971 66.2373 456.459 64.6147 456.095 62.8427C456.095 62.8413 456.095 62.84 456.093 62.8386C456.092 62.8306 456.091 62.8227 456.089 62.8147C456.088 62.8067 456.085 62.7973 456.084 62.788C455.663 60.7187 455.44 58.448 455.44 55.988C455.44 49.136 457.167 41.752 460.143 34.6613C461.611 31.1653 463.383 27.74 465.403 24.484L476.971 31.1547C470.853 41.0147 467.02 52.4133 467.02 62.6347C467.02 71.7587 470.072 78.2827 475.057 81.584" fill="#F89F1D"/>
<path d="M509.819 3.83063L506.616 1.98265H506.592L506.483 1.91598V1.91331L506.595 1.98134H506.619L509.819 3.83063ZM506.469 1.93733C505.799 1.55867 505.096 1.23329 504.367 0.963961C505.097 1.23329 505.799 1.5573 506.469 1.93597V1.93733Z" fill="white"/>
<path d="M476.971 31.1547L465.403 24.484C470.695 15.912 477.716 8.51733 485.405 4.08533C490.207 1.31066 494.737 0.00264671 498.756 0.00264671C500.764 0.00264671 502.645 0.329308 504.367 0.963975C505.096 1.23331 505.799 1.55868 506.469 1.93735V1.93598C506.471 1.93598 506.471 1.93598 506.472 1.93598L506.483 1.91599L506.592 1.98266H506.616L509.819 3.83064L517.281 8.14399C515.227 7.14799 512.907 6.63201 510.384 6.63201C506.355 6.63201 501.808 7.94803 496.996 10.7227C489.296 15.1774 482.273 22.584 476.971 31.1547" fill="#EBBF80"/>
<path d="M517.011 40.4853L514.252 39.1746C518.305 25.9466 514.191 21.5866 507.044 20.98C509.86 22.7093 511.291 29.8786 508.961 36.6613L506.203 35.3507C505.661 35.0947 504.773 36.0533 504.759 36.9106L504.54 49.6787C504.532 50.2627 504.961 50.4667 505.467 50.1173L516.492 42.4853C517.232 41.972 517.551 40.7413 517.011 40.4853Z" fill="white"/>
<path d="M490.745 32.276C497.979 21.6627 505.508 21.0133 505.508 21.0133C507.336 22.1373 508.58 25.556 508.591 29.672C506.647 28.1533 504.521 27.5906 502.436 27.5906C496.424 27.5906 490.745 32.276 490.745 32.276Z" fill="#BEE9E1"/>
<path d="M477.951 50.1413L480.709 51.452C476.656 64.68 480.769 69.0413 487.916 69.6467C485.101 67.916 483.671 60.748 485.999 53.9654L488.759 55.276C489.3 55.532 490.188 54.572 490.201 53.716L490.42 40.9493C490.429 40.364 490 40.16 489.495 40.5094L478.469 48.1427C477.728 48.6547 477.409 49.884 477.951 50.1413Z" fill="white"/>
<path d="M489.453 69.6133C487.625 68.4907 486.38 65.072 486.371 60.9547C488.315 62.4733 490.44 63.036 492.525 63.036C498.539 63.036 504.216 58.3507 504.216 58.3507C496.981 68.9627 489.453 69.6133 489.453 69.6133" fill="#BEE9E1"/>
<path d="M453.285 291.856L438.025 300.716C437.705 300.901 437.551 301.331 437.677 301.677L448.511 331.407C448.637 331.752 448.997 331.883 449.316 331.699L463.572 323.463C463.891 323.279 464.056 322.845 463.943 322.495L454.068 292.155C453.955 291.805 453.604 291.671 453.285 291.856" fill="#33535F"/>
<path d="M439.659 302.803L453.667 294.852L462.077 320.707L448.912 328.137L439.659 302.803" fill="white"/>
<path d="M456.211 310.247L455.332 309.923C455.579 306.289 454.101 305.153 452.017 305.069C452.94 305.508 453.844 307.435 453.645 309.301L452.767 308.977C452.595 308.913 452.408 309.184 452.463 309.416L453.28 312.881C453.317 313.04 453.455 313.091 453.575 312.989L456.201 310.795C456.376 310.648 456.383 310.311 456.211 310.247" fill="#26B6A6"/>
<path d="M445.711 313.308L446.589 313.632C446.344 317.265 447.82 318.403 449.905 318.485C448.98 318.048 448.079 316.12 448.276 314.253L449.155 314.579C449.327 314.641 449.515 314.372 449.46 314.139L448.643 310.675C448.604 310.515 448.468 310.464 448.347 310.565L445.721 312.76C445.544 312.907 445.539 313.244 445.711 313.308Z" fill="#26B6A6"/>
<path d="M448.864 316.145C449.149 317.263 449.743 318.175 450.343 318.459C450.343 318.459 452.449 318.197 453.785 315.237C453.785 315.237 451.427 317.659 448.864 316.145" fill="#26B6A6"/>
<path d="M453.059 307.409C452.771 306.293 452.18 305.38 451.58 305.097C451.58 305.097 449.473 305.357 448.137 308.319C448.137 308.319 450.495 305.896 453.059 307.409" fill="#26B6A6"/>
<path d="M448.137 308.319C449.473 305.357 451.58 305.097 451.58 305.097C452.18 305.38 452.771 306.293 453.059 307.409C452.448 307.049 451.849 306.912 451.292 306.912C449.505 306.912 448.137 308.319 448.137 308.319" fill="#A1DFD6"/>
<path d="M450.343 318.459C449.743 318.175 449.149 317.263 448.864 316.145C449.473 316.505 450.072 316.643 450.631 316.643C452.416 316.643 453.785 315.237 453.785 315.237C452.449 318.197 450.343 318.459 450.343 318.459" fill="#A1DFD6"/>
<path d="M445.791 298.171L445.501 298.004C445.411 297.845 445.464 297.641 445.624 297.548L448.988 295.603C449.144 295.512 449.349 295.565 449.444 295.725C449.535 295.884 449.481 296.089 449.321 296.181L445.957 298.127L445.791 298.171Z" fill="#273E47"/>
<path d="M444.844 298.495C444.844 298.675 444.7 298.82 444.52 298.82C444.34 298.82 444.196 298.675 444.196 298.495C444.196 298.316 444.34 298.171 444.52 298.171C444.7 298.171 444.844 298.316 444.844 298.495Z" fill="#273E47"/>
<path d="M457.219 325.763C457.219 326.227 456.841 326.604 456.376 326.604C455.913 326.604 455.535 326.227 455.535 325.763C455.535 325.297 455.913 324.921 456.376 324.921C456.841 324.921 457.219 325.297 457.219 325.763Z" fill="#273E47"/>
<path d="M531.035 303.912C536.271 302.675 542.028 306.396 545.399 314.619C548.771 322.84 555.508 343.805 556.911 349.299C557.537 351.761 538.865 373.537 539.532 373.211C539.739 373.111 533.449 362.589 533.449 362.589L542.512 348.643L536.836 333.499L531.035 303.912" fill="#C35363"/>
<path d="M543.104 498.768C543.813 499.038 543.993 500.389 544.1 503.076C544.183 505.11 544.617 508.658 542.236 509.368C539.855 510.076 536.367 509.713 534.839 507.798C532.933 505.405 531.645 503.3 528.927 500.381C526.569 497.848 524.019 495.486 523.065 491.935C522.205 488.727 522.923 487.335 525.111 486.401C528.121 485.119 532.851 489.311 535.209 489.971C537.241 490.539 542.395 498.5 543.104 498.768" fill="#17282F"/>
<path d="M533.649 490.062C533.649 490.062 532.571 489.365 530.309 490.062C528.048 490.757 527.381 492.387 529.119 494.199C530.856 496.009 535.099 499.969 535.099 499.969L537.013 494.86L533.649 490.062Z" fill="#C35363"/>
<path d="M518.553 516.3C518.553 516.3 519.501 519.169 520.011 521.679C520.417 523.674 520.997 527.008 520.299 528.508C519.6 530.008 516.875 530.976 512.651 530.944C509.916 530.924 505.652 532.781 502.733 534.41C499.717 536.093 496.447 536.099 493.257 535.724C489.499 535.283 485.605 533.103 484.999 531.546C484.391 529.991 485.172 529.243 494.029 525.469C494.109 525.435 503.368 521.253 507.653 516.524L518.553 516.3" fill="#17282F"/>
<path d="M494.029 525.469C492.803 525.991 491.745 526.451 490.812 526.868C490.581 527.712 490.921 529.041 494.864 529.646C500.873 530.569 516.301 519.497 516.301 519.497C516.301 519.497 515.805 517.805 515.312 516.367L507.653 516.524C503.368 521.253 494.109 525.435 494.029 525.469" fill="#C35363"/>
<path d="M546.352 450.544C544.843 439.764 542.325 433.573 542.325 433.573C542.325 433.573 544.187 418.979 545.265 404.952C547.2 379.823 545.648 371.607 540.704 360.336C540.704 360.336 498.535 356.063 497.248 373.588C495.645 395.413 497.771 437.591 498.351 445.301C498.928 453.011 499.645 456.484 502.373 472.596C504.449 484.855 507.877 518.152 507.877 518.152C509.271 521.467 517.676 520.856 518.555 517.035C518.555 517.035 522.001 477.641 521.641 468.745C521.199 457.881 518.267 449.327 518.267 449.327C518.267 449.327 520.881 413.759 521.644 408.096C521.644 408.096 522.961 419.38 523.539 427.091C524.119 434.8 526.409 442.164 528.64 456.485C530.575 468.909 535.099 499.969 535.099 499.969C539.115 503.995 542.825 501.5 543.104 499.58C543.104 499.58 547.864 461.323 546.352 450.544" fill="#C35363"/>
<path d="M509.436 298.237L511.417 314.533L525.744 313.24L524.107 295.152L509.436 298.237" fill="#C35363"/>
<path d="M541.465 312.077C539.889 307.791 534.533 303.017 529.027 304.041C527.591 304.307 526.329 304.516 524.979 304.788C524.855 308.541 517.781 310.485 510.729 308.208C508.609 308.816 506.669 309.435 504.907 310.064C499.864 311.865 497.837 320.241 497.727 334.255C497.616 348.267 495.545 418.923 495.545 418.923C497.773 419.893 500.145 420.468 502.819 420.195L504.773 407.628L505.688 420.58C509.671 421.223 520.832 420.184 527.903 417.831C540.672 413.581 548.628 405.324 548.628 405.324C548.628 405.324 548.509 385.013 546.648 375.095C544.788 365.176 544.251 362.825 535.308 349.02C542.903 328.819 543.801 318.439 541.465 312.077" fill="#26B6A6"/>
<path d="M508.757 420.767C507.516 420.767 506.465 420.705 505.688 420.58L504.773 407.628L502.819 420.195C502.368 420.241 501.927 420.263 501.492 420.263C499.349 420.263 497.399 419.729 495.545 418.923C495.545 418.923 496.844 374.596 497.44 349.199L505.688 328.621L497.635 340.211C497.684 337.721 497.716 335.691 497.727 334.255C497.837 320.241 499.864 311.865 504.907 310.064C506.669 309.435 508.609 308.816 510.729 308.208C512.807 308.879 514.885 309.184 516.788 309.184C521.345 309.184 524.891 307.436 524.979 304.788C526.329 304.516 527.591 304.307 529.027 304.041C529.539 303.945 530.048 303.901 530.555 303.901C535.496 303.901 540.036 308.189 541.465 312.077C542.188 314.047 542.601 316.401 542.601 319.312C542.603 324.077 541.499 330.335 538.837 338.84C537.873 341.925 536.703 345.307 535.308 349.02C544.251 362.825 544.788 365.176 546.648 375.095C548.509 385.013 548.628 405.324 548.628 405.324C548.628 405.324 547.343 406.657 544.976 408.529C541.455 411.315 535.539 415.289 527.903 417.831C526.368 418.341 524.64 418.791 522.835 419.173C517.947 420.212 512.493 420.767 508.757 420.767" fill="#F68812"/>
<path d="M497.383 349.34L497.629 340.219L497.635 340.211C497.585 342.772 497.519 345.817 497.44 349.199L497.383 349.34" fill="#BABCBA"/>
<path d="M497.44 349.199C497.519 345.817 497.585 342.772 497.635 340.211L505.688 328.621L497.44 349.199Z" fill="#F68812"/>
<path d="M501.384 278.151C501.384 278.151 495.788 271.835 499.869 265.425C504.68 257.875 513.951 256.585 524.937 259.532C530.384 260.992 538 266.779 538.683 277.225C539.208 285.283 516.737 291.227 517.252 296.745L501.384 278.151" fill="#17282F"/>
<path d="M498.307 280.599C498.307 280.599 495.257 285.488 495.687 285.985C496.115 286.483 498.149 286.969 498.149 286.969L498.307 280.599" fill="#AA3B4B"/>
<path d="M507.607 265.113C504.561 266.792 499.303 269.887 498.235 281.303C497.141 293.024 499.851 297.013 501.484 298.501C502.589 299.505 508.145 299.731 511.015 298.755C514.604 297.533 522.344 293.445 525.859 287.317C529.992 280.107 530.632 270.628 525.537 267.056C518.371 262.028 510.187 263.692 507.607 265.113Z" fill="#C35363"/>
<path d="M506.708 265.625C506.708 265.625 504.304 276.356 507.711 283.004C507.711 283.004 509.487 278.795 513.093 279.891C516.725 280.996 516.525 285.803 513.759 288.332C510.992 290.86 508.211 289.667 508.211 289.667C508.211 289.667 509.861 294.188 513.571 297.76C513.571 297.76 524.251 302.52 533.497 292.083C541.888 282.613 540.328 266.095 527.477 262.199C514.628 258.303 506.708 265.625 506.708 265.625" fill="#17282F"/>
<path d="M542.428 261.483C542.428 266.404 538.439 270.393 533.517 270.393C528.596 270.393 524.608 266.404 524.608 261.483C524.608 256.563 528.596 252.572 533.517 252.572C538.439 252.572 542.428 256.563 542.428 261.483Z" fill="#17282F"/>
<path d="M531.025 258.071C531.025 261.059 528.603 263.48 525.616 263.48C522.629 263.48 520.207 261.059 520.207 258.071C520.207 255.084 522.629 252.661 525.616 252.661C528.603 252.661 531.025 255.084 531.025 258.071Z" fill="#17282F"/>
<path d="M543.373 268.889C543.373 271.876 540.952 274.299 537.965 274.299C534.977 274.299 532.555 271.876 532.555 268.889C532.555 265.903 534.977 263.48 537.965 263.48C540.952 263.48 543.373 265.903 543.373 268.889Z" fill="#17282F"/>
<path d="M498.379 261.056C493.765 266.012 493.872 279.949 507.711 283.004L516.039 258.093C510.709 254.829 502.496 256.635 498.379 261.056Z" fill="#17282F"/>
<path d="M506.427 286.86C505.003 286.388 504.229 284.849 504.701 283.424C505.173 281.999 506.711 281.225 508.137 281.697L506.427 286.86Z" fill="#17282F"/>
<path d="M507.488 309.189C501.784 310.901 498.311 311.209 492.007 320.907C485.704 330.603 471.437 348.776 470.071 351.087C468.168 354.301 467.809 359.191 469.451 362.145C470.983 364.903 474.671 363.277 480.924 357.789C486.973 352.483 499.735 337.889 499.735 337.889C499.735 337.889 511.813 325.359 507.488 309.189Z" fill="#C35363"/>
<path d="M471.371 363.503C466.093 362.863 454.701 346.905 451.199 341.444C447.361 335.464 443.785 332.589 440.521 330.179C434.935 326.052 435.749 319.712 438.187 313.901C439.031 311.889 441.891 313.199 441.891 313.199L442.9 315.956L444.645 320.731C445.828 321.828 446.503 322.185 446.581 321.859C446.731 321.243 445.712 318.675 445.737 315.999C445.767 312.779 448.021 314.896 448.695 316.024C449.368 317.153 450.155 318.989 451.075 321.344C452.2 324.225 451.735 327.143 453.104 329.107C454.475 331.071 472.86 348.687 472.86 348.687L471.371 363.503" fill="#C35363"/>
</g>
<defs>
<clipPath id="clip0">
<rect width="614.12" height="613.693" fill="white"/>
</clipPath>
</defs>
</svg>
