<svg viewBox="0 0 849 685" fill="none" xmlns="http://www.w3.org/2000/svg"><g clip-path="url(#clip0)"><path opacity=".2" d="M787.337 450.261c13.408 7.741 13.468 20.291.155 28.026L518.598 634.551c-13.312 7.736-34.976 7.743-48.384 0L199.57 478.297c-13.408-7.742-13.479-20.296-.167-28.034l268.895-156.265c13.312-7.735 34.985-7.735 48.395.006l270.644 156.257z" fill="#2848A6"/><path d="M787.493 372.995L518.598 529.259c-13.312 7.735-34.976 7.742-48.384 0L199.57 373.004c-6.749-3.897-10.118-9.015-10.105-14.119l-.024 8.962c-.014 5.108 3.355 10.222 10.104 14.119l270.642 156.256c13.412 7.743 35.074 7.738 48.387 0L787.47 381.959c6.612-3.845 9.927-8.878 9.941-13.917l.024-8.963c-.013 5.04-3.326 10.071-9.942 13.916z" fill="#93ACF1"/><path d="M787.337 344.968c13.408 7.743 13.468 20.291.155 28.026L518.598 529.259c-13.312 7.735-34.976 7.742-48.384.002L199.57 373.004c-13.408-7.742-13.479-20.296-.167-28.034l268.895-156.263c13.312-7.737 34.985-7.737 48.395.004l270.644 156.257z" fill="#fff"/><path d="M687.842 553.759l7.957 4.703c3.466 2.014 9.104 2.017 12.594 0l39.574-22.854c1.757-1.015 2.631-2.347 2.629-3.676l.007 2.334c.004 1.327-.873 2.659-2.631 3.674l-39.573 22.854c-3.49 2.016-9.129 2.014-12.593 0l-7.957-4.704c-1.724-.999-2.585-2.309-2.588-3.621l-.008-2.334c.006 1.315.867 2.624 2.589 3.624z" fill="#93ACF1"/><path d="M687.881 546.464c-3.489 2.013-3.505 5.279-.039 7.295l7.957 4.703c3.466 2.014 9.104 2.017 12.594 0l39.574-22.854c3.489-2.016 3.508-5.283.042-7.297l-7.958-4.703c-3.463-2.014-9.105-2.014-12.595.002l-39.575 22.854z" fill="#fff"/><path d="M671.236 533.655l7.958 4.702c3.465 2.015 9.103 2.016 12.593 0l39.574-22.853c1.756-1.016 2.634-2.347 2.63-3.676l.007 2.333c.003 1.329-.874 2.661-2.631 3.675l-39.572 22.855c-3.491 2.013-9.13 2.012-12.594 0l-7.956-4.704c-1.725-1.001-2.586-2.309-2.591-3.622l-.006-2.333c.005 1.311.867 2.622 2.588 3.623z" fill="#93ACF1"/><path d="M671.277 526.361c-3.49 2.015-3.507 5.28-.041 7.295l7.958 4.702c3.465 2.015 9.103 2.016 12.593 0l39.574-22.853c3.49-2.016 3.509-5.283.045-7.296l-7.96-4.704c-3.463-2.014-9.106-2.014-12.596.001l-39.573 22.855z" fill="#fff"/><path d="M654.631 513.552l7.957 4.702c3.466 2.014 9.103 2.018 12.593 0l39.575-22.854c1.754-1.015 2.632-2.345 2.629-3.677l.008 2.336c.003 1.329-.875 2.659-2.632 3.673l-39.574 22.855c-3.489 2.013-9.128 2.012-12.592 0l-7.959-4.704c-1.723-1-2.583-2.31-2.586-3.621l-.008-2.334c.005 1.315.866 2.624 2.589 3.624z" fill="#93ACF1"/><path d="M654.67 506.256c-3.489 2.016-3.505 5.283-.039 7.296l7.957 4.702c3.466 2.014 9.103 2.018 12.593 0l39.575-22.854c3.489-2.017 3.507-5.283.041-7.295l-7.956-4.704c-3.466-2.015-9.106-2.015-12.597.001l-39.574 22.854z" fill="#fff"/><path d="M638.024 493.447l7.959 4.703c3.464 2.017 9.103 2.018 12.593 0l39.573-22.854c1.757-1.014 2.634-2.345 2.632-3.674l.007 2.333c.002 1.329-.876 2.661-2.632 3.674l-39.574 22.855c-3.489 2.015-9.129 2.014-12.593 0l-7.956-4.702c-1.724-1.002-2.584-2.313-2.589-3.623l-.007-2.335c.004 1.314.865 2.625 2.587 3.623z" fill="#93ACF1"/><path d="M638.067 486.154c-3.491 2.017-3.508 5.281-.043 7.293l7.959 4.703c3.464 2.017 9.103 2.018 12.593 0l39.573-22.854c3.49-2.015 3.511-5.281.045-7.295l-7.958-4.702c-3.465-2.017-9.107-2.017-12.597.001l-39.572 22.854z" fill="#fff"/><path d="M289.522 548.624l-7.957 4.704c-3.463 2.014-9.103 2.016-12.593 0l-39.573-22.854c-1.757-1.015-2.634-2.344-2.631-3.674l-.006 2.332c-.002 1.328.873 2.661 2.63 3.675l39.575 22.854c3.489 2.017 9.127 2.016 12.592 0l7.958-4.701c1.722-1.001 2.584-2.312 2.588-3.623l.007-2.334c-.003 1.312-.866 2.622-2.59 3.621z" fill="#93ACF1"/><path d="M289.482 541.329c3.491 2.018 3.508 5.282.041 7.295l-7.957 4.704c-3.463 2.014-9.103 2.016-12.593 0L229.4 530.474c-3.49-2.014-3.509-5.281-.043-7.297l7.958-4.702c3.464-2.014 9.105-2.014 12.596.002l39.571 22.852z" fill="#fff"/><path d="M306.127 528.521l-7.958 4.704c-3.463 2.012-9.102 2.015-12.592 0l-39.573-22.854c-1.756-1.015-2.634-2.347-2.63-3.676l-.006 2.332c-.003 1.329.873 2.662 2.63 3.677l39.574 22.854c3.49 2.015 9.128 2.014 12.593 0l7.958-4.702c1.723-1.002 2.583-2.311 2.587-3.622l.008-2.334c-.005 1.312-.867 2.62-2.591 3.621z" fill="#93ACF1"/><path d="M306.089 521.226c3.49 2.017 3.505 5.283.038 7.295l-7.958 4.704c-3.463 2.012-9.102 2.015-12.592 0l-39.573-22.854c-3.49-2.016-3.509-5.282-.043-7.297l7.957-4.704c3.465-2.012 9.106-2.012 12.597.002l39.574 22.854z" fill="#fff"/><path d="M322.736 508.417l-7.958 4.704c-3.465 2.014-9.104 2.016-12.593 0l-39.574-22.855c-1.757-1.015-2.634-2.344-2.63-3.672l-.006 2.331c-.004 1.329.874 2.661 2.629 3.676l39.574 22.853c3.49 2.018 9.129 2.017 12.593 0l7.957-4.703c1.723-.998 2.585-2.31 2.59-3.622l.006-2.332c-.005 1.31-.868 2.62-2.588 3.62z" fill="#93ACF1"/><path d="M322.693 501.125c3.49 2.014 3.506 5.279.042 7.292l-7.958 4.704c-3.465 2.014-9.104 2.016-12.593 0l-39.574-22.855c-3.491-2.014-3.509-5.281-.044-7.294l7.958-4.706c3.464-2.012 9.106-2.012 12.596.005l39.573 22.854z" fill="#fff"/><path d="M339.34 488.312l-7.959 4.704c-3.464 2.014-9.103 2.015-12.592 0l-39.574-22.855c-1.756-1.014-2.633-2.345-2.631-3.672l-.006 2.332c-.003 1.328.874 2.658 2.63 3.674l39.574 22.854c3.491 2.017 9.128 2.015 12.592 0l7.958-4.702c1.723-.999 2.585-2.311 2.589-3.622l.005-2.334c-.002 1.31-.864 2.621-2.586 3.621z" fill="#93ACF1"/><path d="M339.299 481.019c3.489 2.016 3.506 5.281.041 7.294l-7.959 4.704c-3.464 2.014-9.103 2.015-12.592 0l-39.574-22.855c-3.489-2.014-3.508-5.282-.043-7.295l7.958-4.703c3.466-2.014 9.106-2.014 12.596.001l39.573 22.854z" fill="#fff"/><path d="M401.857 409.891c-1.778 0-3.554-.459-5.136-1.384l-23.988-14.012.396-.681 23.989 14.014a9.415 9.415 0 009.392.048l84.542-47.713c2.958-1.687 4.729-4.727 4.736-8.134.011-3.405-1.745-6.455-4.697-8.158l-10.757-6.375c-3.188-1.839-5.091-5.139-5.086-8.822.005-3.685 1.914-6.978 5.107-8.814l50.554-29.046a10.122 10.122 0 019.893-.14l15.717 8.45-.373.692-15.718-8.45a9.34 9.34 0 00-9.127.128l-50.553 29.047c-2.949 1.692-4.712 4.734-4.714 8.132-.006 3.4 1.751 6.445 4.696 8.144l10.76 6.376c3.191 1.842 5.093 5.148 5.084 8.838-.009 3.691-1.928 6.987-5.135 8.814l-84.543 47.715a10.155 10.155 0 01-5.039 1.331z" fill="#93ACF1"/><path d="M404.21 395.632l-30.006 17.367c-1.345.781-3.55.781-4.902 0l-31.322-18.077c-.681-.394-1.022-.913-1.02-1.431l-.002.424c-.001.519.339 1.038 1.021 1.43l31.322 18.077c1.353.78 3.558.78 4.901 0l30.009-17.364c.665-.389 1.002-.899 1.003-1.41v-.424c-.002.512-.336 1.021-1.004 1.408z" fill="#2A49A7"/><path d="M404.193 392.793c1.353.78 1.361 2.061.018 2.84L374.204 413c-1.345.781-3.55.781-4.902 0l-31.322-18.077c-1.354-.783-1.36-2.061-.017-2.84l30.006-17.367c1.346-.781 3.553-.781 4.904 0l31.32 18.077z" fill="#fff"/><path d="M395.511 391.038v3.208c.001.393-.253.783-.768 1.078l-21.546 12.436c-1.021.589-2.688.586-3.706-.009l-22.069-12.82c-.484-.284-.738-.651-.758-1.022-.004 0-.004-3.275-.004-3.275l48.851.404z" fill="#2A49A7"/><path d="M394.851 392.297l-21.543 12.437c-.525.3-1.22.468-1.954.468-.746 0-1.444-.171-1.974-.479l-22.068-12.824a1.948 1.948 0 01-.651-.581v-.685c0 .393.253.781.762 1.079l22.069 12.823c.51.298 1.187.447 1.862.447.668 0 1.335-.146 1.844-.438l21.546-12.437c.51-.293.766-.683.768-1.071v.677c-.149.22-.371.418-.661.584z" fill="#93ACF1"/><path d="M369.492 404.536c1.018.594 2.685.597 3.706.01l21.546-12.437c1.021-.589 1.022-1.558.005-2.15l-22.067-12.825c-1.018-.594-2.687-.596-3.708-.007l-21.545 12.434c-1.022.591-1.024 1.558-.006 2.152l22.069 12.823z" fill="#3C6BEB"/><path d="M620.075 303.201l-30.009 17.369c-1.342.779-3.549.779-4.901 0l-31.323-18.078c-.681-.393-1.018-.912-1.018-1.43v.422c-.003.52.337 1.038 1.018 1.431l31.323 18.078c1.351.782 3.557.782 4.901 0l30.007-17.365c.669-.387 1.002-.899 1.003-1.411l.001-.423c-.001.511-.335 1.021-1.002 1.407z" fill="#2A49A7"/><path d="M620.059 300.364c1.351.78 1.358 2.058.016 2.841l-30.009 17.365c-1.342.779-3.549.779-4.901 0l-31.323-18.078c-1.352-.781-1.359-2.058-.016-2.841l30.008-17.365c1.343-.781 3.55-.781 4.902 0l31.323 18.078z" fill="#fff"/><path d="M611.375 293.895v7.921c0 .392-.255.782-.769 1.08l-21.545 12.434c-1.02.589-2.69.586-3.708-.008l-22.067-12.824c-.486-.283-.737-.65-.76-1.021l-.001-7.987 48.85.405z" fill="#2A49A7"/><path d="M610.717 295.153l-21.546 12.434c-.524.303-1.218.47-1.953.47-.746 0-1.447-.17-1.973-.478l-22.068-12.822a1.944 1.944 0 01-.651-.582v-.684c-.002.39.252.78.761 1.076l22.067 12.823c.513.298 1.187.448 1.864.448.667 0 1.335-.147 1.844-.44l21.545-12.435c.51-.293.766-.68.769-1.07v.674c-.148.221-.371.42-.659.586z" fill="#93ACF1"/><path d="M585.354 307.392c1.018.594 2.688.598 3.708.008l21.545-12.435c1.021-.589 1.026-1.557.005-2.15l-22.067-12.823c-1.019-.593-2.686-.597-3.706-.007l-21.547 12.435c-1.021.589-1.022 1.557-.005 2.15l22.067 12.822z" fill="#3C6BEB"/><path d="M584.634 214.779c.002-3.455-.137-9.888-2.786-9.955-2.648-.066-4.687 2.662-4.51 9.58.097 3.755-.187 9.091.485 12.157.565 2.582 1.993 3.225 3.031 3.264 2.269.084 3.775-10.459 3.78-15.046z" fill="#CDDAEC"/><path d="M579.066 238.237s.451 1.771-.378 5c-.827 3.229-1.504 4.353-3.214 4.896-1.71.542-2.049-.954-1.666-2.286.378-1.333.358-1.677.358-1.677s-.752 1.832-1.396 1.794c-.646-.037-.021-1.81 1.134-3.75 1.155-1.941 1.882-2.935 1.882-2.935l3.28-1.042z" fill="#93ACF1"/><path d="M583.442 221.42s-1.61 16.133-4.163 20.507c-.413.705-3.73.499-4.671-1.134.097-.812.902-5.902 2.124-11.829a577.28 577.28 0 011.902-8.944s4.661-2.29 4.808 1.4z" fill="#CDDAEC"/><path opacity=".2" d="M599.744 301.139c-6.821 3.929-17.921 3.896-24.795-.071-6.87-3.968-6.914-10.369-.092-14.296 6.82-3.928 17.921-3.896 24.793.072 6.873 3.967 6.915 10.367.094 14.295z" fill="#2848A6"/><path d="M599.587 294.214s1.918.281 2.326 2.151c.404 1.873-7.831 7.176-12.229 6.146-4.399-1.03 3.336-6.564 5.771-7.362 2.435-.797 4.132-.935 4.132-.935zm-15.134-9.01s1.922.281 2.326 2.152c.406 1.873-7.828 7.175-12.229 6.146-4.399-1.029 3.336-6.563 5.773-7.362 2.432-.799 4.13-.936 4.13-.936z" fill="#CDDAEC"/><path d="M598.966 243.817l-.111 29.553s1.396 19.686 1.396 20.983c0 2.977-4.925 3.343-5.108 2.088-.183-1.258-4.309-25.349-4.309-25.349l-2.421-19.261-1.621 15.124s-1.752 16.352-1.883 18.676c-.131 2.325-4.901 4.035-4.901 2.072 0-1.961-1.438-48.018-1.438-48.018l20.396 4.132z" fill="#93ACF1"/><path d="M597.599 210.131s-13.152-6.903-16.494-5.219c-3.34 1.686-3.245 3.851-3.435 12.333-.188 8.479.942 22.99.942 22.99s6.785 5.183 12.721 5.183c5.937 0 7.633-1.602 7.633-1.602s3.66-31.283-1.367-33.685z" fill="#E8ECFD"/><path d="M601.196 220.04c-.41-3.43-1.318-9.798-3.959-9.548-2.636.251-4.332 3.203-3.328 10.051.545 3.718.906 9.048 1.939 12.012.873 2.495 2.366 2.963 3.401 2.876 2.261-.189 2.49-10.835 1.947-15.391z" fill="#CDDAEC"/><path d="M599.338 235.439s-7.812 2.6-12.833 1.935c-.81-.108-1.9-3.247-.759-4.747.785-.223 5.792-1.448 11.729-2.61a21.492 21.492 0 003.812-.801s-.162 5.719-1.949 6.223z" fill="#CDDAEC"/><path d="M591.756 201.414v6.267s-1.083 2.308-3.72 1.791c-2.639-.519-3.111-3.627-2.734-5.276.378-1.65 6.454-2.782 6.454-2.782z" fill="#93ACF1"/><path d="M580.027 194.517s-1.069 10.239 4.586 11.244c5.653 1.005 8.416-3.706 8.605-8.794.566-6.471-11.37-12.627-13.191-2.45z" fill="#93ACF1"/><path d="M591.756 203.443s-.992-5.251-2.237-6.854c-1.249-1.602-1.249-2.073-1.249-2.073s-3.109 2.355-5.982 1.696c-2.874-.659-3.802-2.543-3.331-4.474.47-1.933 5.343-4.29 7.635-4.29 2.291 0 7.853 2.073 7.853 8.623.328 4.382-2.689 7.372-2.689 7.372z" fill="#254284"/><path d="M589.952 198.474s1.001-2.612 2.01-.97c1.008 1.643-.222 3.043-1.004 3.828-.787.785-2.138-1.036-1.006-2.858zm-2.495 38.006s.512-1.037-.063-3.48c-.575-2.444-1.132-3.426-2.66-4.362-1.529-.937-1.924-.045-1.652.976.275 1.022.237 1.246.237 1.246s-.57-.804-.97-.671c-.399.131-.325.206.621 1.896.947 1.69.903 1.89 2.191 3.637 1.288 1.747 2.296.758 2.296.758z" fill="#93ACF1"/><path d="M439.514 314.942l-30.009 17.366c-1.344.781-3.551.781-4.902 0L373.28 314.23c-.681-.394-1.019-.911-1.018-1.429l-.001.423c-.002.52.338 1.037 1.019 1.43l31.322 18.079c1.352.78 3.56.78 4.903 0l30.007-17.368c.666-.388 1-.898 1.001-1.41l.001-.423c-.001.511-.334 1.024-1 1.41z" fill="#2A49A7"/><path d="M439.497 312.104c1.352.781 1.36 2.059.018 2.839l-30.009 17.366c-1.344.781-3.551.781-4.902 0l-31.323-18.078c-1.353-.781-1.36-2.058-.016-2.84l30.006-17.365c1.344-.781 3.551-.781 4.903 0l31.323 18.078z" fill="#fff"/><path d="M430.812 310.347v3.209c0 .391-.253.781-.767 1.078l-21.544 12.435c-1.021.588-2.69.586-3.709-.009l-22.069-12.822c-.482-.282-.736-.649-.758-1.021-.002-.001-.002-3.276-.002-3.276l48.849.406z" fill="#2A49A7"/><path d="M430.155 311.605l-21.546 12.434c-.523.304-1.219.47-1.953.47-.744 0-1.446-.17-1.973-.476l-22.068-12.823a1.954 1.954 0 01-.651-.582v-.685c-.002.39.253.78.76 1.077l22.069 12.822c.511.299 1.186.448 1.863.448.668 0 1.336-.146 1.846-.441l21.544-12.434c.511-.294.765-.681.767-1.07v.674c-.147.221-.37.42-.658.586z" fill="#93ACF1"/><path d="M404.792 323.843c1.019.595 2.688.599 3.709.007l21.544-12.434c1.021-.589 1.023-1.557.005-2.152l-22.067-12.822c-1.019-.593-2.688-.599-3.706-.008l-21.548 12.436c-1.021.588-1.023 1.557-.006 2.15l22.069 12.823z" fill="#3C6BEB"/><path d="M573.184 409.813l-43.135-26.417-.862 1.407 43.135 26.418.862-1.408z" fill="#678EEA"/><path d="M610.442 418.261l-30.007 17.364c-1.344.782-3.552.782-4.904 0l-31.32-18.077c-.682-.393-1.021-.91-1.021-1.429l-.001.425c-.001.517.338 1.036 1.02 1.429l31.321 18.078c1.354.779 3.56.779 4.904 0l30.007-17.365c.666-.39 1.001-.9 1.004-1.411l.001-.425c-.001.512-.338 1.023-1.004 1.411z" fill="#2A49A7"/><path d="M610.425 415.423c1.353.778 1.36 2.059.017 2.839l-30.007 17.364c-1.344.782-3.552.782-4.904 0l-31.32-18.077c-1.354-.78-1.36-2.058-.017-2.838l30.007-17.366c1.343-.781 3.549-.781 4.902 0l31.322 18.078z" fill="#fff"/><path d="M601.743 408.953v7.922c.001.392-.256.781-.769 1.077l-21.545 12.436c-1.021.589-2.689.585-3.709-.009l-22.065-12.823c-.486-.282-.739-.649-.763-1.021l-.001-7.987 48.852.405z" fill="#2A49A7"/><path d="M601.083 410.213l-21.546 12.435c-.523.301-1.218.468-1.954.468-.743 0-1.442-.17-1.973-.479l-22.067-12.82a1.98 1.98 0 01-.652-.583v-.683c-.001.39.253.778.764 1.076l22.065 12.824c.513.297 1.189.446 1.863.446.669 0 1.338-.147 1.846-.438l21.545-12.436c.511-.296.765-.683.769-1.071v.676c-.15.22-.37.416-.66.585z" fill="#93ACF1"/><path d="M575.72 422.452c1.02.593 2.688.595 3.709.008l21.545-12.436c1.023-.59 1.024-1.559.007-2.151l-22.069-12.823c-1.019-.595-2.686-.598-3.707-.007l-21.547 12.434c-1.021.589-1.021 1.557-.003 2.151l22.065 12.824z" fill="#3C6BEB"/><path d="M411.274 228.711c-.004-3.455.135-9.888 2.784-9.954 2.649-.067 4.686 2.661 4.511 9.578-.096 3.756.185 9.091-.487 12.157-.565 2.582-1.993 3.225-3.03 3.264-2.268.085-3.772-10.457-3.778-15.045z" fill="#345CB8"/><path d="M416.841 252.168s-.454 1.772.376 5.002c.827 3.229 1.507 4.353 3.213 4.895 1.71.543 2.052-.953 1.671-2.285-.383-1.333-.361-1.678-.361-1.678s.751 1.832 1.396 1.794c.646-.037.022-1.81-1.134-3.75-1.156-1.941-1.879-2.936-1.879-2.936l-3.282-1.042z" fill="#93ACF1"/><path d="M412.464 235.351s1.609 16.133 4.163 20.506c.413.705 3.729.498 4.672-1.134-.1-.811-.902-5.901-2.126-11.829-1.22-5.925-1.901-8.944-1.901-8.944s-4.662-2.289-4.808 1.401z" fill="#345CB8"/><path opacity=".2" d="M393.161 316.934c6.766 3.889 17.783 3.845 24.606-.095 6.827-3.94 6.873-10.285.106-14.173-6.765-3.888-17.781-3.845-24.606.095-6.823 3.94-6.872 10.285-.106 14.173z" fill="#2848A6"/><path d="M396.319 308.146s-1.919.283-2.325 2.153c-.406 1.872 7.829 7.174 12.229 6.145 4.396-1.029-3.339-6.563-5.771-7.361-2.437-.799-4.133-.937-4.133-.937zm15.134-9.011s-1.92.283-2.324 2.153c-.407 1.873 7.829 7.175 12.229 6.146 4.396-1.031-3.339-6.564-5.771-7.362-2.438-.798-4.134-.937-4.134-.937z" fill="#2A49A7"/><path d="M396.941 257.749l.11 29.553s-1.397 19.688-1.397 20.983c0 2.978 4.927 3.343 5.109 2.085.185-1.257 4.308-25.347 4.308-25.347l2.422-19.262 1.62 15.124s1.754 16.353 1.886 18.676c.132 2.326 4.899 4.037 4.899 2.075 0-1.963 1.437-48.02 1.437-48.02l-20.394 4.133z" fill="url(#paint0_linear)"/><path d="M398.308 224.062s13.153-6.9 16.493-5.217c3.341 1.684 3.246 3.852 3.433 12.331.189 8.481-.941 22.992-.941 22.992s-6.782 5.182-12.719 5.182c-5.938 0-7.633-1.602-7.633-1.602s-3.66-31.283 1.367-33.686z" fill="#3C6BEB"/><path d="M394.711 233.972c.411-3.43 1.318-9.8 3.957-9.548 2.639.252 4.333 3.204 3.328 10.05-.545 3.718-.905 9.047-1.94 12.012-.869 2.495-2.364 2.962-3.397 2.876-2.263-.189-2.493-10.835-1.948-15.39z" fill="#345CB8"/><path d="M397.425 257.929s-.66 1.704-.227 5.011c.437 3.305.974 4.5 2.605 5.245 1.631.745 2.148-.702 1.931-2.069-.219-1.369-.156-1.709-.156-1.709s.566.934 1.025.583c.459-.349.384-.427-.53-2.494-.914-2.065-1.516-3.139-1.516-3.139l-3.132-1.428z" fill="#93ACF1"/><path d="M395.098 240.706s-.338 16.209 1.672 20.858c.326.749 3.644.941 4.776-.566 0-.816-.188-5.967-.693-11.998-.501-6.031-.815-9.108-.815-9.108s-4.355-2.831-4.94.814z" fill="#345CB8"/><path d="M404.148 215.347v6.266s1.084 2.309 3.723 1.792c2.64-.519 3.11-3.628 2.731-5.278-.375-1.649-6.454-2.78-6.454-2.78z" fill="#93ACF1"/><path d="M415.88 208.448s1.067 10.239-4.585 11.244c-5.654 1.004-8.418-3.707-8.607-8.795-.564-6.469 11.37-12.626 13.192-2.449z" fill="#93ACF1"/><path d="M404.148 217.375s.993-5.251 2.24-6.854c1.247-1.601 1.247-2.073 1.247-2.073s3.11 2.356 5.983 1.696c2.875-.659 3.803-2.543 3.331-4.475-.472-1.933-5.344-4.289-7.637-4.289-2.291 0-7.85 2.074-7.85 8.622-.328 4.384 2.686 7.373 2.686 7.373z" fill="#2A49A7"/><path d="M405.955 212.406s-1.001-2.611-2.008-.969c-1.012 1.642.218 3.043 1.004 3.828.784.785 2.134-1.037 1.004-2.859z" fill="#93ACF1"/><path opacity=".2" d="M567.438 412.712c5.284 3.05 13.88 3.036 19.198-.035 5.316-3.069 5.342-8.032.058-11.083s-13.876-3.036-19.195.036c-5.319 3.068-5.346 8.031-.061 11.082z" fill="#2848A6"/><path d="M573.217 296.65s-2.363 1.178-2.363 6.325.515 8.873 2.646 9.621c2.134.749-.283-15.946-.283-15.946zm7.979 101.595c.125-4.824-.673-14.151-.673-14.151l-.368-10.001-1.471-19.857-.142 1.203a27.966 27.966 0 00-.263-2.015c-.336-2.021-.923-3.981-1.686-5.88h11.328c.053 1.607-.14 3.102-.632 4.265-1.614 3.823-2.062 12.724-2.062 17.137 0 4.411 1.194 7.549 1.271 11.299.071 3.752-.608 8.408-1.123 10.982-.515 2.575-.012 7.726.111 9.231.12 1.505-13.054 8.348-8.079 2.182.215-.265 3.789-4.395 3.789-4.395z" fill="#93ACF1"/><path d="M577.333 402.639s-3.357.241-2.229 1.565c1.129 1.323 2.528 2.793 4.438 2.941 1.912.147 3.666-1.987 5.033-2.723 1.365-.734 2.026-1.322 1.807-2.425-.222-1.104.042-3.123-2.427-2.134-1.82.73-1.667 2.895-2.206 3.164-1.534.767-6.876 2.525-4.416-.388z" fill="#2A49A7"/><path d="M586.253 403.084s-.655.312-.889 2.001c-.232 1.692 0 3.311 0 3.311h-1.629v-4.926l2.518-.386z" fill="#2A49A7"/><path d="M570.447 407.039c.662.073 3.017-4.78 3.017-4.78l-.882-16.988s-.416-8.359-1.031-10.812c-6.545-21.18-.146-35.595.367-39.197.518-3.606-1.838-5.885-2.424-9.782-.591-3.898 3.088-8.458 3.088-8.458s8.016-5.149 13.604-4.339c5.591.808 1.177 11.179.074 13.532-1.103 2.353-2.574 7.5-1.911 10.957 2.868 3.457 4.486 10.812 2.871 14.635-1.087 2.573-1.646 7.439-1.894 11.693h-5.354v.735h-.622l-.739-10.002s-1.163 15.764-1.09 18.045c.073 2.279 1.176 8.49 1.176 11.948 0 3.455-.749 7.661-.819 9.939-.076 2.281-.296 6.326-.296 6.326l.325 5.883s-2.165-.441-2.312.148c-.147.588-1.69 3.529-1.69 3.529h-2.574s-1.911-2.133-2.707-2.206c-.796-.072 1.161-.88 1.823-.806z" fill="#93ACF1"/><path d="M588.613 314.935s-.171-2.186-2.189-1.763c-2.019.423-3.714 3.329-3.688 8.912.025 5.585.417 11 .675 11.427.259.427 3.172 5.672 3.99.313.82-5.359 2.204-14.603 1.212-18.889z" fill="#93ACF1"/><path d="M585.067 345.366s.313 1.207-.25 3.409c-.562 2.204-1.021 2.97-2.185 3.342-1.166.371-1.399-.648-1.141-1.556.26-.908.242-1.145.242-1.145s-.459.586-.741.312c-.281-.272-.223-.32.563-1.646.784-1.324 1.277-2 1.277-2l2.235-.716z" fill="#CDDAEC"/><path d="M582.999 334.084l-.9 13.477s.535 1.565 2.47.132c1.934-1.434 2.861-14.779 2.861-14.779s-3.501-3.894-4.431 1.17z" fill="#93ACF1"/><path d="M586.185 312.683c-5.588-.81-13.604 4.339-13.604 4.339s-3.679 4.559-3.088 8.458c.586 3.896 2.941 6.176 2.424 9.782-.197 1.388-1.268 4.381-2.138 8.75h17.612c-.583-2.631-1.67-5.185-3.044-6.84-.663-3.457.809-8.604 1.911-10.957 1.104-2.353 5.518-12.724-.073-13.532z" fill="url(#paint1_linear)"/><path d="M571.008 338.864s.762 2.647 4.808 2.429c4.045-.221 8.532-4.12 8.532-4.12s3.91 3.824 3.896 10.151c-.007 4.595-3.5 15.708-2.499 22.797-2.206 2.942-6.545 5.147-10.223 5.295-3.677.147-5.812-2.941-5.812-2.941s-2.646-11.031-2.057-20.37c.588-9.342 2.825-11.308 3.355-13.241z" fill="url(#paint2_linear)"/><path d="M570.665 406.943s-3.358.242-2.228 1.565c1.127 1.324 2.526 2.796 4.438 2.941 1.911.146 3.666-1.984 5.032-2.72 1.367-.736 2.03-1.324 1.809-2.428-.222-1.102-.516-2.574-2.429-2.132-1.91.439-1.666 2.891-2.206 3.162-1.536.768-6.876 2.525-4.416-.388z" fill="#2A49A7"/><path d="M579.583 407.39s-.655.312-.887 2.001c-.232 1.693 0 3.312 0 3.312h-1.632v-4.929l2.519-.384z" fill="#2A49A7"/><path d="M575.07 319.353s.609-2.105-1.431-2.42c-2.037-.313-4.647 1.811-6.584 7.048-1.938 5.237-3.476 10.444-3.382 10.935.091.492-.007 4.733 3.626 1.695 4.158-3.479 7.195-12.9 7.771-17.258z" fill="url(#paint3_linear)"/><path d="M557.665 325.878s-.895-.969-1.476-3.301c-.581-2.332-.535-3.276.363-4.206.899-.931 1.628-.099 1.841.877.214.974.347 1.188.347 1.188s.134-.777.536-.663c.399.112.368.186.299 1.813-.067 1.627-.185 2.506-.185 2.506l-1.725 1.786z" fill="#93ACF1"/><path d="M567.34 334.251l-8.102-10.81s-1.427-.836-1.958 1.511c-.533 2.348 6.984 12.296 6.984 12.296s3.723-1.498 3.076-2.997z" fill="url(#paint4_linear)"/><path d="M571.699 297.68s2.868-2.5 6.69-2.426c3.826.074 8.092 1.912 8.458 9.045.369 7.133.141 19.874.141 19.874s-5.809 3.327-9.045 2.729c-3.237-.597-5.327-2.366-5.327-2.366s.627-22.589-.917-26.856z" fill="#2A49A7"/><path opacity=".2" d="M378.518 395.158c-5.285 3.051-13.879 3.033-19.195-.034-5.317-3.071-5.346-8.032-.063-11.083 5.286-3.053 13.881-3.036 19.198.036 5.319 3.067 5.344 8.031.06 11.081z" fill="#2848A6"/><path d="M372.738 279.097s2.365 1.177 2.365 6.325c0 5.147-.516 8.874-2.647 9.622-2.133.748.282-15.947.282-15.947zm-7.976 101.594c-.128-4.824.671-14.151.671-14.151l.366-10.003 1.473-19.855s.053.444.14 1.202c.066-.672.153-1.345.265-2.015.335-2.019.923-3.982 1.687-5.881h-11.329c-.053 1.61.14 3.103.631 4.268 1.614 3.823 2.063 12.722 2.063 17.135 0 4.412-1.196 7.55-1.269 11.3-.074 3.752.606 8.408 1.121 10.983.514 2.575.009 7.725-.111 9.229-.121 1.504 13.055 8.347 8.079 2.182-.216-.264-3.787-4.394-3.787-4.394z" fill="#93ACF1"/><path d="M368.622 385.084s3.358.24 2.229 1.564-2.526 2.796-4.438 2.941c-1.913.147-3.667-1.985-5.033-2.721-1.365-.734-2.027-1.323-1.808-2.427.222-1.103-.042-3.123 2.428-2.133 1.821.731 1.669 2.895 2.206 3.164 1.535.769 6.877 2.526 4.416-.388z" fill="#2A49A7"/><path d="M359.703 385.531s.655.312.887 2c.232 1.693 0 3.311 0 3.311h1.631v-4.926l-2.518-.385z" fill="#2A49A7"/><path d="M375.508 389.485c-.661.071-3.016-4.781-3.016-4.781l.883-16.987s.415-8.36 1.03-10.813c6.545-21.18.146-35.594-.369-39.196-.513-3.604 1.84-5.885 2.429-9.783.589-3.897-3.09-8.457-3.09-8.457s-8.017-5.148-13.605-4.339c-5.59.81-1.177 11.179-.074 13.531 1.104 2.355 2.575 7.503 1.914 10.959-2.871 3.457-4.486 10.811-2.872 14.636 1.087 2.573 1.645 7.438 1.893 11.693h5.353v.734h.621l.742-10.001s1.163 15.765 1.088 18.043c-.072 2.28-1.173 8.491-1.173 11.948 0 3.455.746 7.661.818 9.942a383.5 383.5 0 00.295 6.325l-.325 5.881s2.164-.439 2.311.15c.147.585 1.692 3.527 1.692 3.527h2.573s1.911-2.13 2.708-2.205c.794-.072-1.165-.88-1.826-.807z" fill="#93ACF1"/><path d="M357.345 297.382s.17-2.185 2.187-1.762c2.021.422 3.713 3.327 3.688 8.913-.021 5.583-.415 10.999-.673 11.427-.258.427-3.174 5.671-3.992.313-.821-5.361-2.202-14.607-1.21-18.891z" fill="#93ACF1"/><path d="M360.888 327.814s-.311 1.205.251 3.408c.561 2.201 1.021 2.969 2.186 3.338 1.166.374 1.398-.646 1.14-1.553-.259-.911-.244-1.146-.244-1.146s.46.586.742.313c.282-.274.224-.32-.562-1.645-.785-1.324-1.277-2.003-1.277-2.003l-2.236-.712z" fill="#CDDAEC"/><path d="M362.956 316.531l.903 13.477s-.537 1.563-2.471.131c-1.934-1.434-2.862-14.777-2.862-14.777s3.499-3.894 4.43 1.169z" fill="#93ACF1"/><path d="M359.77 295.129c5.589-.809 13.605 4.339 13.605 4.339s3.679 4.56 3.09 8.457c-.589 3.898-2.941 6.179-2.429 9.783.198 1.386 1.272 4.382 2.14 8.75h-17.612c.582-2.629 1.67-5.183 3.046-6.838.661-3.456-.811-8.604-1.914-10.959-1.103-2.353-5.516-12.723.074-13.532z" fill="url(#paint5_linear)"/><path d="M374.949 321.309s-.764 2.649-4.811 2.428c-4.044-.222-8.528-4.118-8.528-4.118s-3.911 3.824-3.899 10.148c.009 4.599 3.502 15.709 2.501 22.799 2.206 2.941 6.546 5.146 10.223 5.293 3.677.148 5.81-2.94 5.81-2.94s2.648-11.031 2.061-20.371c-.592-9.34-2.828-11.305-3.357-13.239z" fill="url(#paint6_linear)"/><path d="M375.292 389.391s3.358.239 2.229 1.564c-1.129 1.324-2.526 2.796-4.44 2.941-1.91.148-3.663-1.984-5.03-2.72-1.365-.735-2.028-1.325-1.808-2.428.22-1.104.516-2.574 2.427-2.134 1.912.441 1.668 2.894 2.205 3.162 1.535.769 6.876 2.527 4.417-.385z" fill="#2A49A7"/><path d="M366.373 389.835s.655.312.889 2.001c.231 1.693 0 3.312 0 3.312h1.629v-4.928l-2.518-.385zm7.884-109.708s-2.868-2.501-6.691-2.428c-3.825.075-8.091 1.914-8.458 9.047-.369 7.133 1.251 9.781 1.251 9.781s5.811 3.326 9.046 2.729c3.235-.597 5.325-2.364 5.325-2.364s-2.017-12.499-.473-16.765z" fill="#2A49A7"/><path d="M370.888 301.799s-.611-2.106 1.43-2.418c2.038-.315 4.645 1.809 6.584 7.047 1.938 5.237 3.475 10.444 3.381 10.935-.09.49.007 4.734-3.627 1.695-4.156-3.479-7.192-12.899-7.768-17.259z" fill="url(#paint7_linear)"/><path d="M388.291 308.324s.895-.968 1.475-3.3c.581-2.333.537-3.278-.361-4.208-.899-.929-1.628-.097-1.841.878-.214.975-.346 1.188-.346 1.188s-.136-.776-.535-.664c-.399.114-.37.188-.302 1.815.067 1.627.188 2.504.188 2.504l1.722 1.787z" fill="#93ACF1"/><path d="M378.617 316.698l8.1-10.812s1.428-.835 1.958 1.511c.533 2.349-6.983 12.295-6.983 12.295s-3.721-1.496-3.075-2.994z" fill="url(#paint8_linear)"/><path d="M558.729 313.897v52.231c.003 1.179-.767 2.357-2.309 3.246l-64.88 37.446c-3.075 1.773-8.099 1.763-11.165-.024l-66.448-38.61c-1.461-.852-2.223-1.959-2.288-3.078-.007-.002-.007-52.43-.007-52.43l147.097 1.219z" fill="#93ACF1"/><path d="M558.729 313.131v52.231c.003 1.178-.767 2.356-2.309 3.248l-64.881 37.442c-3.075 1.775-8.099 1.766-11.165-.024l-66.448-38.61c-1.461-.852-2.223-1.959-2.288-3.077-.007-.002-.007-52.43-.007-52.43l147.098 1.22z" fill="#CDDAEC"/><path d="M556.748 316.922l-64.88 37.443c-1.577.909-3.666 1.41-5.883 1.41-2.241 0-4.351-.509-5.941-1.437l-66.449-38.609c-.857-.501-1.519-1.097-1.963-1.753v-2.058c-.002 1.173.764 2.349 2.295 3.244l66.448 38.609c1.542.898 3.578 1.349 5.61 1.349 2.014 0 4.024-.439 5.555-1.324l64.881-37.442c1.529-.884 2.299-2.052 2.309-3.223v2.034c-.449.659-1.116 1.257-1.982 1.757z" fill="#fff"/><path d="M480.375 353.772c3.066 1.79 8.09 1.801 11.165.024l64.881-37.442c3.071-1.776 3.079-4.691.013-6.478l-66.449-38.611c-3.066-1.788-8.089-1.799-11.163-.024l-64.881 37.443c-3.073 1.774-3.08 4.69-.014 6.479l66.448 38.609z" fill="#E8ECFD"/><path d="M481.789 341.647c2.164 1.263 5.711 1.271 7.882.019l45.809-26.44c2.171-1.251 2.177-3.311.014-4.574l-46.922-27.261c-2.164-1.263-5.711-1.271-7.882-.018l-45.81 26.439c-2.171 1.253-2.176 3.311-.01 4.574l46.919 27.261z" fill="#BEC5D6"/><path opacity=".2" d="M136.711 570.287c5.715 3.299 5.745 8.701.067 12.001l-55.777 32.414c-5.68 3.3-15.002 3.3-20.717 0L4.14 582.288c-5.715-3.3-5.745-8.702-.067-12.001l55.777-32.414c5.678-3.301 15.002-3.301 20.716 0l56.145 32.414z" fill="#2848A6"/><path d="M136.778 547.244l-55.777 32.415c-5.679 3.3-15.002 3.3-20.717 0L4.14 547.245c-2.875-1.661-4.313-3.854-4.307-6.042l-.004 1.79c-.006 2.188 1.43 4.383 4.307 6.042l56.143 32.414c5.714 3.3 15.04 3.3 20.716 0l55.779-32.414c2.82-1.639 4.231-3.796 4.238-5.957l.004-1.791c-.005 2.16-1.417 4.319-4.238 5.957z" fill="#2A49A7"/><path d="M136.711 535.245c5.715 3.3 5.745 8.698.067 11.999l-55.777 32.415c-5.68 3.3-15.002 3.3-20.717 0L4.14 547.245c-5.715-3.301-5.745-8.7-.067-12l55.777-32.414c5.678-3.3 15.002-3.3 20.716 0l56.145 32.414z" fill="#3C6BEB"/><path d="M147.92 429.5l-80.505-46.48c-2.199-1.27-4.138-1.102-5.277.196 1.146-.635 2.716-.528 4.45.471l80.506 46.481c3.5 2.021 6.328 6.912 6.316 10.935l-.172 60.626c-.004 1.493-.401 2.655-1.077 3.425 1.169-.648 1.899-2.066 1.904-4.095l.173-60.625c.012-4.023-2.818-8.915-6.318-10.934z" fill="#93ACF1"/><path d="M147.708 504.682l-80.507-46.48c-3.5-2.021-6.322-6.915-6.31-10.938l.17-60.626c.005-1.494.4-2.656 1.076-3.422-1.169.647-1.897 2.06-1.903 4.092l-.173 60.624c-.01 4.022 2.811 8.919 6.312 10.938l80.506 46.481c2.199 1.269 4.14 1.097 5.281-.198-1.148.635-2.719.531-4.452-.471z" fill="#B7CAF0"/><path d="M153.41 441.102c.012-4.022-2.816-8.913-6.316-10.935l-80.507-46.481c-1.733-.999-3.303-1.105-4.449-.471-.675.766-1.07 1.928-1.076 3.422l-.17 60.626c-.013 4.023 2.81 8.917 6.31 10.938l80.507 46.48c1.733 1.002 3.304 1.105 4.453.471.676-.77 1.073-1.932 1.077-3.425l.171-60.625z" fill="#fff"/><path d="M127.286 476.17l-6.529-18.115a1.501 1.501 0 00-.151-.306l-6.377-17.698-6.528-18.117c-.115-.319-.342-.608-.591-.752-.248-.144-.476-.118-.591.069l-6.528 10.579-6.377 10.332a.329.329 0 00-.15.132l-6.529 10.578c-.17.275-.042.812.282 1.196.327.385.73.473.9.196l5.938-9.62 5.937 16.473a1.672 1.672 0 00.273.475 1.2 1.2 0 00.251.235c.18.1.217.111.254.12.056.012.09.017.122.016a.438.438 0 00.086-.016c.158-.098.178-.117.193-.144.003-.002 5.94-9.621 5.94-9.621l5.938 16.475c.029.077.047.116.066.156a1.806 1.806 0 00.205.317 1.491 1.491 0 00.251.236c.181.098.218.111.256.12a.431.431 0 00.121.014c.033-.002.061-.009.087-.014.157-.099.177-.117.193-.143l5.938-9.624 5.938 16.476c.118.33.35.614.591.753a.583.583 0 00.308.091c.326-.005.454-.395.283-.869zm-13.648-9.179l-5.376-14.92 10.754 6.21-5.378 8.71zm-13.057-7.537l-5.376-14.921 10.754 6.21-5.378 8.711zm6.529-10.464l-5.428-15.065 10.856 6.27-5.428 8.795zm1.101 1.521l5.427-8.794 5.428 15.061-10.855-6.267zm-1.101-26.91l5.428 15.062-10.856-6.267 5.428-8.795zm-6.529 10.579l5.429 15.062-10.856-6.267 5.427-8.795zm-13.144-16.836s-1.474-1.783-1.474-2.824c0-1.05 1.47-1.137 1.47-1.137.044-.004.067-.059.051-.121l-.669-2.232c-.022-.063-.077-.115-.122-.114 0 0-.624.018-1.009-.204-.454-.262-.908-.724-1.257-1.32-.64-1.104-.176-2.693-.176-2.693.014-.048-.012-.126-.057-.178l-1.61-1.694c-.047-.045-.107-.054-.13-.017 0 0-.812 1.226-1.718.702-.906-.521-1.722-2.684-1.722-2.684-.025-.063-.083-.123-.13-.134l-1.609-.159c-.045 0-.07.051-.057.115 0 0 .47 2.124-.17 2.492-.347.198-.803.135-1.259-.127-.383-.223-1.006-.959-1.006-.959-.044-.052-.098-.063-.12-.024l-.667 1.462c-.016.047.007.127.051.182 0 0 1.475 1.781 1.475 2.823 0 1.041-1.473 1.124-1.473 1.124-.043.003-.067.057-.05.12l.668 2.232c.021.065.08.128.128.139 0 0 1.616.397 2.257 1.502.641 1.104.175 2.691.175 2.691-.013.049.013.13.057.183l1.611 1.69c.047.048.106.054.13.019 0 0 .813-1.223 1.72-.7.905.523 1.72 2.685 1.72 2.685.023.063.083.125.13.133l1.61.164c.044 0 .07-.052.055-.116 0 0-.467-2.124.174-2.49.64-.363 2.258 1.103 2.258 1.103.048.045.106.05.128.01l.667-1.463c.016-.047-.005-.127-.05-.181zm-6.695-1.282c-2.192-1.266-3.969-4.332-3.969-6.848s1.777-3.528 3.97-2.263c2.191 1.267 3.97 4.332 3.97 6.848 0 2.514-1.778 3.529-3.97 2.263zm12.799 18.668s-1.071-1.299-1.071-2.054c-.001-.764 1.069-.826 1.069-.826.032-.001.047-.043.036-.088l-.486-1.623c-.016-.047-.056-.085-.087-.085 0 0-.456.015-.735-.147-.33-.19-.661-.524-.912-.959-.467-.803-.13-1.957-.13-1.957.011-.035-.007-.092-.04-.132l-1.171-1.231c-.035-.032-.077-.037-.094-.011 0 0-.591.89-1.25.509-.658-.378-1.251-1.95-1.251-1.95-.017-.046-.06-.09-.095-.097l-1.169-.116c-.033 0-.051.038-.041.084 0 0 .34 1.544-.125 1.812-.253.144-.583.1-.915-.094-.28-.162-.731-.694-.731-.694-.032-.038-.072-.048-.088-.02l-.484 1.063c-.012.033.005.093.037.132 0 0 1.073 1.298 1.073 2.054 0 .754-1.071.816-1.071.816-.031.001-.048.042-.036.087l.485 1.623c.017.047.058.093.094.101 0 0 1.175.29 1.64 1.093.467.803.129 1.956.129 1.956-.011.034.008.096.041.132l1.17 1.231c.034.034.077.038.095.011 0 0 .591-.887 1.25-.507.659.381 1.25 1.95 1.25 1.95.018.046.06.09.095.097l1.17.12c.032 0 .05-.039.041-.083 0 0-.338-1.546.127-1.812.465-.264 1.64.8 1.64.8.036.033.079.036.094.009l.486-1.064c.008-.033-.009-.091-.04-.13zm-4.867-1.765c-1.194-.69-2.162-2.36-2.162-3.728 0-1.369.968-1.922 2.162-1.232 1.193.689 2.16 2.357 2.16 3.729 0 1.369-.966 1.921-2.16 1.231zm-8.049-1.751s-.722-.876-.722-1.384c0-.514.72-.558.72-.558.024-.059-.304-1.152-.304-1.152-.01-.03-.037-.056-.059-.056 0 0-.306.009-.494-.1a1.792 1.792 0 01-.615-.645c-.314-.542-.086-1.32-.086-1.32.007-.023-.005-.063-.028-.087l-.788-.83c-.064-.008-.46.591-.905.336-.444-.256-.843-1.313-.843-1.313-.012-.032-.04-.061-.063-.067l-.788-.077c-.027.058.202 1.097-.112 1.277-.169.098-.392.065-.616-.063-.187-.108-.492-.471-.492-.471-.059-.012-.385.705-.385.705-.007.022.004.063.025.088 0 0 .723.872.723 1.382 0 .509-.72.551-.72.551-.025.059.302 1.151.302 1.151.01.031.04.062.063.067 0 0 .792.197 1.105.735.313.542.087 1.317.087 1.317-.007.023.005.063.027.09l.787.831c.065.007.462-.592.906-.336.444.256.842 1.313.842 1.313.012.032.041.062.064.064l.788.08c.028-.055-.2-1.095.113-1.274.313-.179 1.105.541 1.105.541.063.005.39-.712.39-.712.005-.019-.006-.057-.027-.083zm-3.277-2.254c-.292-.168-.528-.577-.528-.911 0-.335.237-.469.528-.302.292.17.527.577.527.913 0 .334-.236.467-.527.3zm69.993 15.748l-25.421-14.676v-1.174l25.421 14.677v1.173zm-.799 2.241l-24.622-14.215v-1.172l24.622 14.214v1.173zm-2.148 1.464l-22.474-12.976v-1.172l22.474 12.975v1.173zm-1.432 1.875l-21.042-12.146v-1.174l21.042 12.149v1.171zm-1.267 1.97l-19.775-11.415v-1.174l19.775 11.415v1.174zm-1.57 1.797l-18.205-10.508v-1.174l18.205 10.509v1.173z" fill="#CDDAEC"/><path d="M124.808 477.602l-6.528-18.116a1.65 1.65 0 00-.151-.307l-6.377-17.698-6.529-18.115c-.114-.32-.342-.608-.591-.752-.248-.144-.475-.118-.591.069l-6.528 10.578-6.377 10.332a.325.325 0 00-.15.134l-6.53 10.576c-.17.275-.043.812.283 1.197.326.384.73.47.9.195l5.937-9.619 5.937 16.472a1.571 1.571 0 00.161.325c.042.063.076.107.111.151a1.382 1.382 0 00.251.235c.181.099.22.111.256.121.055.01.088.015.12.012.033 0 .061-.007.087-.012.158-.099.178-.12.193-.146.002-.001 5.939-9.621 5.939-9.621l5.938 16.476a1.688 1.688 0 00.161.324c.042.064.076.108.11.149.058.065.091.102.125.133a.99.99 0 00.127.102c.181.099.218.112.255.12a.541.541 0 00.121.016c.034 0 .06-.009.086-.016.159-.099.178-.116.194-.144.002-.001 5.939-9.621 5.939-9.621l5.937 16.475c.12.33.352.615.592.754a.6.6 0 00.308.09c.329-.008.455-.395.284-.869zm-13.647-9.181l-5.377-14.918 10.752 6.207-5.375 8.711zm-13.057-7.538l-5.376-14.919 10.753 6.209-5.377 8.71zm6.527-10.463l-5.428-15.065 10.856 6.27-5.428 8.795zm1.102 1.523l5.428-8.795 5.427 15.062-10.855-6.267zm-1.102-26.911l5.429 15.063-10.856-6.27 5.427-8.793zm-6.527 10.578l5.427 15.062-10.855-6.268 5.428-8.794z" fill="#3C6BEB"/><path d="M84.96 418.777s-1.474-1.785-1.474-2.826c-.002-1.049 1.471-1.137 1.471-1.137.043-.002.066-.056.051-.122l-.67-2.231c-.023-.063-.078-.115-.122-.113 0 0-.624.017-1.01-.206-.454-.261-.908-.723-1.254-1.318-.642-1.104-.178-2.695-.178-2.695.014-.045-.01-.126-.056-.178l-1.61-1.691c-.048-.048-.106-.057-.13-.018 0 0-.813 1.224-1.718.701-.906-.521-1.722-2.683-1.722-2.683-.024-.064-.083-.123-.13-.133l-1.61-.161c-.045 0-.07.052-.057.115 0 0 .47 2.126-.17 2.492-.348.198-.803.136-1.259-.128-.384-.222-1.006-.957-1.006-.957-.043-.053-.099-.063-.122-.024l-.665 1.462c-.017.045.006.126.051.18 0 0 1.474 1.783 1.475 2.824.001 1.039-1.472 1.123-1.472 1.123-.044.005-.066.058-.05.121l.667 2.232c.023.064.08.127.13.138 0 0 1.616.398 2.257 1.503.641 1.104.176 2.691.176 2.691-.014.048.011.129.057.181l1.61 1.692c.047.046.105.055.13.02 0 0 .813-1.224 1.72-.701.905.521 1.72 2.685 1.72 2.685.023.065.082.124.13.133l1.61.163c.043 0 .07-.051.055-.116 0 0-.466-2.124.174-2.489.64-.364 2.257 1.103 2.257 1.103.048.045.106.048.127.011l.667-1.464c.016-.046-.007-.127-.05-.179zm-6.695-1.284c-2.193-1.267-3.97-4.333-3.97-6.848 0-2.518 1.777-3.53 3.97-2.265 2.191 1.269 3.97 4.334 3.97 6.849 0 2.516-1.778 3.529-3.97 2.264zm12.797 18.669s-1.071-1.299-1.071-2.054c-.001-.765 1.07-.827 1.07-.827.032-.002.049-.042.037-.088l-.488-1.623c-.015-.048-.055-.085-.087-.085 0 0-.454.016-.734-.147-.33-.19-.66-.525-.912-.959-.467-.804-.129-1.957-.129-1.957.009-.034-.01-.094-.042-.131l-1.171-1.23c-.034-.034-.077-.04-.095-.013 0 0-.59.89-1.249.509-.658-.378-1.252-1.95-1.252-1.95-.019-.046-.061-.09-.095-.096l-1.17-.117c-.032 0-.05.037-.041.083 0 0 .34 1.544-.125 1.813-.252.144-.583.098-.915-.093-.279-.16-.731-.696-.731-.696-.032-.038-.072-.046-.088-.02l-.483 1.065c-.013.031.004.091.037.13 0 0 1.072 1.297 1.072 2.055 0 .755-1.071.817-1.071.817-.032.001-.049.04-.037.086l.485 1.624c.018.046.06.092.093.101 0 0 1.177.289 1.643 1.092.465.804.127 1.956.127 1.956-.01.035.008.094.041.131l1.17 1.232c.035.032.077.038.095.012 0 0 .592-.887 1.25-.509.659.382 1.25 1.952 1.25 1.952.018.047.061.09.095.096l1.17.12c.033 0 .052-.039.041-.083 0 0-.338-1.547.127-1.812.464-.267 1.641.801 1.641.801.036.032.077.036.094.009l.484-1.064c.013-.035-.003-.093-.036-.13zm-4.866-1.767c-1.194-.689-2.161-2.356-2.161-3.728 0-1.369.967-1.92 2.161-1.231 1.193.69 2.161 2.357 2.161 3.729 0 1.368-.968 1.921-2.161 1.23zm-8.049-1.75s-.72-.876-.72-1.385c-.002-.513.72-.558.72-.558.024-.057-.304-1.15-.304-1.15-.01-.033-.038-.058-.06-.058 0 0-.306.01-.494-.101-.223-.126-.445-.352-.615-.645-.313-.54-.085-1.318-.085-1.318.005-.022-.006-.062-.029-.087l-.789-.829c-.064-.009-.459.59-.904.335-.444-.254-.844-1.313-.844-1.313-.01-.033-.04-.062-.063-.064l-.788-.08c-.028.056.202 1.097-.11 1.275-.17.099-.395.068-.618-.063-.188-.108-.49-.469-.49-.469-.06-.012-.387.706-.387.706-.008.021.002.061.025.086 0 0 .721.874.722 1.381 0 .512-.72.553-.72.553-.025.058.303 1.151.303 1.151.01.032.04.062.063.067 0 0 .791.197 1.104.736.314.54.087 1.317.087 1.317-.007.022.006.063.027.089l.79.829c.062.008.46-.591.904-.334.442.254.842 1.313.842 1.313.011.032.04.062.064.067l.787.076c.028-.056-.2-1.095.112-1.273.313-.177 1.106.541 1.106.541.063.003.39-.712.39-.712.006-.02-.005-.059-.026-.083zm-3.277-2.255c-.292-.166-.528-.575-.528-.908 0-.336.236-.472.528-.302.291.169.527.575.527.911 0 .333-.236.468-.527.299z" fill="#2A49A7"/><path d="M144.862 446.139l-25.42-14.676v-1.174l25.42 14.676v1.174zm-.799 2.241l-24.621-14.216v-1.173l24.621 14.217v1.172zm-2.147 1.463l-22.474-12.976v-1.171l22.474 12.974v1.173zm-1.432 1.874l-21.042-12.146v-1.173l21.042 12.147v1.172zm-1.267 1.973l-19.775-11.416v-1.172l19.775 11.414v1.174zm-1.57 1.795l-18.205-10.508v-1.175l18.205 10.513v1.17z" fill="#93ACF1"/><path opacity=".6" d="M82.437 547.332c-6.92 3.995-18.176 3.973-25.14-.047-6.963-4.019-6.998-10.519-.078-14.514 6.919-3.996 18.176-3.975 25.14.045 6.963 4.021 6.998 10.518.078 14.516z" fill="#2A49A7"/><path d="M71.677 544.675s-.925 1.592.225 2.998c1.152 1.405 9.952-1.581 11.784-5.455 1.833-3.873-6.845-1.397-8.875-.061-2.03 1.336-3.134 2.518-3.134 2.518zm-11.776-6.994s-.925 1.592.227 3c1.151 1.405 9.951-1.582 11.782-5.457 1.833-3.873-6.845-1.396-8.874-.059-2.03 1.337-3.135 2.516-3.135 2.516z" fill="#254296"/><path d="M78.47 495.585l-.106 28.04s-1.208 18.546-1.208 19.776c0 2.824-4.674 3.172-4.848 1.98-.174-1.194-1.554-23.919-1.554-23.919l-2.299-18.274-.92 14.52s-2.279 15.343-2.405 17.548c-.124 2.208-4.648 3.829-4.648 1.968 0-1.862-1.363-45.561-1.363-45.561l19.35 3.922z" fill="#CDDAEC"/><path d="M77.172 463.624s-12.479-6.55-15.65-4.951c-3.169 1.599-3.08 3.654-3.259 11.701-.179 8.046.895 21.813.895 21.813s6.436 4.917 12.07 4.917c5.631 0 7.241-1.519 7.241-1.519s3.472-29.682-1.297-31.961z" fill="url(#paint9_linear)"/><path d="M91.603 477.763s1.336-1.104 2.507-4.043c1.173-2.939 1.28-4.179.274-5.55-1.007-1.372-2.104-.415-2.557.818-.452 1.235-.662 1.487-.662 1.487s-.038-1.036-.58-.961c-.542.078-.516.181-.715 2.313-.2 2.134-.201 3.3-.201 3.3l1.934 2.636z" fill="#93ACF1"/><path d="M84.311 485.8s6.23-5.129 8.51-9.355c.367-.683-1.438-3.27-3.226-3.225-.609.479-9.267 8.945-9.267 8.945s.922 5.339 3.983 3.635z" fill="url(#paint10_linear)"/><path d="M75.468 473.687c-1.008-3.119-2.755-8.967-.382-9.8 2.374-.828 5.008 1.041 6.861 7.341 1.005 3.42 2.811 8.155 3.098 11.12.241 2.497-.86 3.492-1.787 3.827-2.024.737-6.45-8.345-7.79-12.488z" fill="url(#paint11_linear)"/><path d="M65.943 453.363v5.946s2.111 2.664 5.271 1.521c.561-1.108.694-4.674.336-6.237-.357-1.565-5.607-1.23-5.607-1.23z" fill="#93ACF1"/><path d="M77.074 448.291s1.014 9.715-4.351 10.67c-5.363.952-7.986-3.516-8.165-8.346-.537-6.139 10.787-11.978 12.516-2.324z" fill="#93ACF1"/><path d="M72.895 455.367s-2.43 3.185-5.195 3.185-4.106-6.704-4.106-8.632 1.843-8.209 8.798-7.122c6.954 1.091 6.787 3.938 5.111 5.866-1.676 1.928-5.278 3.268-4.608 6.703z" fill="#2A49A7"/><path d="M74.174 452.605s-.95-2.478-1.907-.919c-.958 1.558.208 2.886.955 3.632.745.746 2.027-.985.952-2.713z" fill="#93ACF1"/><path opacity=".2" d="M446.231 478.709c-3.514 2.028-3.53 5.348-.039 7.377l34.301 19.936c3.493 2.029 9.225 2.029 12.739 0l34.526-19.936c3.516-2.029 3.533-5.349.042-7.377l-34.302-19.936c-3.492-2.028-9.226-2.028-12.739 0l-34.528 19.936z" fill="#2848A6"/><path d="M446.192 464.538l34.301 19.934c3.493 2.027 9.225 2.027 12.739 0l34.526-19.934c1.769-1.021 2.652-2.37 2.65-3.718l.001 1.103c.004 1.349-.879 2.695-2.65 3.717l-34.525 19.933c-3.512 2.029-9.246 2.029-12.737 0l-34.302-19.933c-1.736-1.01-2.604-2.336-2.608-3.666l-.001-1.102c.001 1.329.871 2.656 2.606 3.666z" fill="#93ACF1"/><path d="M446.231 457.157c-3.514 2.031-3.53 5.352-.039 7.381l34.301 19.934c3.493 2.027 9.225 2.027 12.739 0l34.526-19.934c3.516-2.029 3.533-5.35.042-7.379l-34.302-19.935c-3.492-2.029-9.226-2.029-12.739 0l-34.528 19.933z" fill="#E8ECFD"/><path d="M480.759 437.224c3.514-2.029 9.247-2.029 12.739 0l34.302 19.933c3.491 2.031 3.474 5.352-.042 7.381l-5.009 2.891-47.154-27.224 5.164-2.981z" fill="#2A49A7"/><path d="M475.056 451.243l26.68 15.405 3.994-2.309-26.68-15.401-3.994 2.305zm10.333 20.174c-5.376 3.103-14.116 3.086-19.524-.034-5.408-3.123-5.435-8.17-.062-11.271 5.376-3.104 14.115-3.088 19.525.035 5.408 3.119 5.435 8.166.061 11.27z" fill="#93ACF1"/><path d="M469.074 468.141c-.387-.223-.589-.529-.553-.845l.535-4.684c.069-.601.964-1.051 2.003-1.006 1.037.044 1.823.564 1.755 1.162l-.386 3.362 11.906-.87c1.031-.075 1.975.347 2.111.941.139.597-.585 1.141-1.616 1.215l-14.184 1.035c-.559.042-1.122-.065-1.533-.288l-.038-.022z" fill="#fff"/><path opacity=".2" d="M332.876 360.409c3.516 2.029 3.533 5.351.041 7.38l-34.301 19.932c-3.492 2.031-9.225 2.031-12.741 0l-34.526-19.93c-3.514-2.03-3.532-5.353-.041-7.382l34.301-19.935c3.492-2.028 9.226-2.028 12.74 0l34.527 19.935z" fill="#2848A6"/><path d="M332.917 346.237l-34.301 19.935c-3.492 2.029-9.225 2.029-12.741 0l-34.525-19.935c-1.769-1.021-2.652-2.369-2.649-3.714l-.002 1.102c-.003 1.345.879 2.693 2.648 3.714l34.526 19.935c3.514 2.03 9.248 2.03 12.74 0l34.301-19.935c1.734-1.007 2.603-2.334 2.606-3.663l.002-1.102c-.001 1.329-.869 2.655-2.605 3.663z" fill="#93ACF1"/><path d="M332.876 338.859c3.516 2.028 3.533 5.349.041 7.377l-34.301 19.935c-3.492 2.029-9.225 2.029-12.741 0l-34.526-19.934c-3.514-2.029-3.532-5.351-.041-7.378l34.301-19.936c3.492-2.028 9.226-2.028 12.74 0l34.527 19.936z" fill="#E8ECFD"/><path d="M298.35 318.924c-3.515-2.028-9.248-2.028-12.74 0l-34.301 19.936c-3.492 2.028-3.474 5.349.041 7.377l5.009 2.892 47.154-27.224-5.163-2.981z" fill="#2A49A7"/><path d="M304.054 332.947l-26.68 15.403-3.997-2.307 26.679-15.404 3.998 2.308zm8.369 5.798l-25.842 14.922-3.995-2.309 25.841-14.92 3.996 2.307zm6.952 6.619l-23.584 13.619-3.997-2.308 23.587-13.618 3.994 2.307zm406.144 19.083l-34.301 19.935c-3.49 2.028-9.226 2.028-12.741 0l-34.524-19.935c-1.77-1.021-2.651-2.368-2.647-3.715l-.004 1.102c-.005 1.347.879 2.695 2.648 3.716l34.525 19.934c3.516 2.029 9.251 2.029 12.741 0l34.301-19.934c1.733-1.009 2.603-2.336 2.606-3.664l.003-1.102c-.002 1.328-.871 2.655-2.607 3.663z" fill="#93ACF1"/><path d="M725.479 357.067c3.515 2.029 3.534 5.351.04 7.38l-34.301 19.935c-3.49 2.028-9.226 2.028-12.741 0l-34.524-19.935c-3.514-2.028-3.535-5.351-.041-7.38l34.301-19.933c3.491-2.029 9.227-2.029 12.741 0l34.525 19.933z" fill="#E8ECFD"/><path d="M684.74 332.351l-.026 25.601-25.837-.068.027-25.598 25.836.065z" fill="#2C488C"/><path d="M706.177 340.737l-.024 25.599-21.439-8.384.026-25.601 21.437 8.386z" fill="#20397D"/><path d="M710.574 332.416l-.025 25.601c-.005 3.084-1.627 5.943-4.396 8.32l.024-25.6c2.769-2.376 4.392-5.237 4.397-8.321z" fill="#345BBB"/><path d="M702.949 321.769c4.714 2.723 7.633 6.492 7.625 10.646-.005 3.085-1.628 5.946-4.396 8.321l-21.438-8.386-25.836-.065c.018-8.266 11.595-14.936 25.865-14.899 7.093.02 13.515 1.689 18.18 4.383z" fill="#2A49A7"/><path d="M684.74 340.822l-.026 17.12-17.995 10.66.025-17.119 17.996-10.661z" fill="#93ACF1"/><path d="M684.74 340.822l-17.996 10.661c-.104-.017-.131-.032-.158-.05a9.877 9.877 0 01-.24-.139l-.205-.122c-.08-.049-.157-.098-.239-.147a6.417 6.417 0 01-.188-.117c-.085-.053-.166-.106-.25-.16-.053-.035-.111-.071-.165-.108-.089-.061-.183-.119-.271-.181a2.455 2.455 0 01-.128-.092c-.104-.069-.204-.142-.304-.213a1.561 1.561 0 00-.082-.06l-.349-.261c-1.32-1.015-2.401-2.098-3.235-3.248-1.074-1.48-1.731-3.047-1.945-4.642a7.826 7.826 0 01-.047-.428c-.01-.089-.015-.18-.02-.271-.001-.036-.006-.071-.007-.109a6.845 6.845 0 01-.007-.377l25.836.064z" fill="#CDDAEC"/><path d="M666.585 351.433a9.877 9.877 0 01-.24-.139l-.205-.122c-.08-.049-.157-.098-.239-.147a6.417 6.417 0 01-.188-.117c-.085-.053-.166-.106-.25-.16-.053-.035-.111-.07-.165-.108-.089-.061-.183-.119-.271-.181a2.455 2.455 0 01-.128-.092c-.104-.069-.204-.142-.304-.213a1.561 1.561 0 00-.082-.06l-.349-.261c-1.32-1.015-2.401-2.098-3.235-3.248-1.074-1.48-1.731-3.047-1.945-4.642a7.826 7.826 0 01-.047-.428c-.01-.089-.015-.18-.02-.271-.001-.036-.006-.071-.007-.109a6.349 6.349 0 01-.007-.365l-.026 17.121c0 .122.006.24.009.365.001.036.006.071.008.109.005.09.007.181.018.271.001.03.006.063.01.095.007.094.019.19.03.285.222 1.641.877 3.208 1.95 4.689.84 1.149 1.918 2.233 3.237 3.246.114.087.231.174.348.26l.084.061c.099.073.2.144.304.215.041.031.086.06.127.091.09.061.183.119.272.182l.164.108c.082.056.164.106.249.159.064.041.127.078.189.12l.24.145c.067.042.137.082.203.123l.241.139c.027.017.053.032.158.048l.024-17.12c-.103-.016-.129-.031-.157-.049z" fill="#A7BCF3"/><path d="M705.258 356.315c-.188.14-.335.248-.486.357-.361.253-.693.475-1.033.688-.036.022-.07.045-.105.063a14.261 14.261 0 01-.525.318c-4.254 2.484-9.92 4.037-15.994 4.351-.249.015-.486.022-.725.033l-.145.004c-.202.006-.402.012-.604.015l-.181.003c-.252.003-.502.006-.755.006-6.959-.018-13.306-1.663-17.966-4.304l-.024 10.76c4.659 2.643 11.007 4.287 17.966 4.304.253 0 .503-.001.756-.005l.181-.004a24.427 24.427 0 00.748-.021c.239-.007.475-.017.727-.03 6.073-.313 11.737-1.867 15.993-4.351l.103-.063c.144-.084.283-.168.42-.254l.107-.063a23.2 23.2 0 001.52-1.045c.316-.24.626-.489.917-.742l.025-10.759c-.293.251-.604.498-.92.739z" fill="#2E51AE"/><path d="M706.177 355.575a20.186 20.186 0 01-2.438 1.784c-.036.022-.07.046-.105.064a14.261 14.261 0 01-.525.318c-4.254 2.484-9.92 4.037-15.994 4.351-.249.015-.486.022-.725.033a3.507 3.507 0 01-.145.003c-.202.007-.402.013-.604.016l-.181.003c-.252.003-.502.006-.755.006-6.959-.018-13.306-1.663-17.966-4.304l17.995-10.661 21.443 8.387z" fill="#3C6BEB"/><path opacity=".9" d="M845.58 181.782c3.516 2.03 3.534 5.351.043 7.38l-77.977 45.127c-3.492 2.028-9.226 2.028-12.74 0l-81.396-46.977c-3.516-2.029-3.533-5.351-.039-7.38l77.974-45.127c3.491-2.029 9.227-2.029 12.741 0l81.394 46.977z" fill="#2848A6"/><path d="M761.285 215.757c-2.377 0-4.76-.524-6.576-1.573l-81.393-46.977c-1.834-1.057-2.845-2.493-2.846-4.042-.004-1.539.993-2.965 2.802-4.016l77.976-45.128c3.608-2.096 9.501-2.097 13.133 0l81.396 46.977c1.831 1.058 2.844 2.494 2.845 4.042.001 1.539-.993 2.966-2.803 4.016l-77.978 45.128c-1.802 1.048-4.178 1.573-6.556 1.573zm-3.478-102.534c-2.237 0-4.469.493-6.164 1.479l-77.976 45.126c-1.558.904-2.413 2.089-2.411 3.336.001 1.257.872 2.452 2.45 3.363l81.396 46.976c3.417 1.972 8.953 1.972 12.347.001l77.976-45.127c1.557-.904 2.413-2.089 2.412-3.337-.003-1.257-.874-2.45-2.452-3.362l-81.395-46.976c-1.708-.987-3.948-1.479-6.183-1.479z" fill="#fff"/><path d="M845.623 162.719l-77.977 45.125c-3.492 2.031-9.226 2.031-12.74 0l-81.396-46.975c-1.768-1.021-2.65-2.369-2.647-3.714l-.003 1.101c-.005 1.346.881 2.694 2.647 3.715l81.395 46.977c3.515 2.029 9.25 2.029 12.74 0l77.976-45.125c1.737-1.009 2.604-2.336 2.606-3.665l.003-1.101c-.003 1.327-.87 2.653-2.604 3.662z" fill="#93ACF1"/><path d="M845.58 155.34c3.516 2.028 3.534 5.35.043 7.379l-77.977 45.125c-3.492 2.031-9.226 2.031-12.74.001L673.51 160.87c-3.516-2.028-3.533-5.35-.039-7.379l77.974-45.126c3.491-2.029 9.227-2.029 12.741 0l81.394 46.975z" fill="#fff"/><path d="M710.826 152.02s4.807 1.539 7.978 3.697l-5.126 3.135-3.299-.596v8.537a.348.348 0 00.035.232l4.832 6.772c.161.189.582.296.933.239 0 0 11.784-1.95 16.44.747.55.319.959.655 1.286 1.027v8.604c.034.211.199.36.439.429l11.722 2.803c.346.067.774-.03.95-.214 0 0 5.929-6.192 12.523-6.192 6.595.001 12.521 6.196 12.521 6.196.175.185.604.28.95.214l11.723-2.801c.327-.093.514-.335.411-.538 0 0-3.391-6.801 1.273-9.492 4.667-2.693 16.443-.728 16.443-.728.354.058.771-.047.935-.237l4.859-6.766a.273.273 0 00.033-.173v-8.542l-8.06-2.816c3.173-2.044 7.673-3.477 7.673-3.477.261-.083.421-.265.405-.437.004 0 .004-8.606.004-8.606l-19.176-3.184-4.342-5.823v-8.501l-21.314 4.669-12.684-.036-17.231-4.633v8.583c-.002.052.004.1.027.147 0 0 .411.827.751 2.018l-24.362 6.722v8.728c.138.133.268.236.448.293zm28.15 2.964c.932-2.021 2.771-3.934 5.517-5.519 8.315-4.8 21.797-4.8 30.111 0 2.747 1.585 4.586 3.497 5.518 5.518-.932 2.021-2.771 3.933-5.518 5.518-8.314 4.801-21.796 4.801-30.111 0-2.745-1.585-4.585-3.497-5.517-5.517z" fill="#254284"/><path d="M710.826 150.88s4.807 1.539 7.978 3.699l-5.126 3.135-3.299-.597v8.538a.345.345 0 00.035.231l4.832 6.773c.161.188.582.296.933.238 0 0 11.784-1.951 16.44.748.55.317.959.655 1.286 1.026v8.603c.034.211.199.361.439.43l11.722 2.803c.346.067.774-.029.95-.214 0 0 5.929-6.193 12.523-6.192 6.595.002 12.521 6.195 12.521 6.195.175.185.604.281.95.215l11.723-2.8c.327-.093.514-.335.411-.539 0 0-3.391-6.801 1.273-9.492 4.667-2.691 16.443-.727 16.443-.727.354.059.771-.048.935-.236l4.859-6.767a.274.274 0 00.033-.173v-8.542l-8.06-2.816c3.173-2.044 7.673-3.478 7.673-3.478.261-.083.421-.265.405-.437.004 0 .004-8.605.004-8.605l-19.176-3.185-4.342-5.823v-8.501l-21.314 4.668-12.684-.035-17.231-4.633v8.584c-.002.051.004.1.027.146 0 0 .411.827.751 2.019l-24.363 6.72v8.727c.139.134.269.237.449.294zm28.15 2.964c.932-2.022 2.771-3.933 5.517-5.519 8.315-4.801 21.797-4.801 30.111 0 2.747 1.585 4.586 3.497 5.518 5.519-.932 2.021-2.771 3.932-5.518 5.517-8.314 4.802-21.796 4.802-30.111 0-2.745-1.586-4.585-3.496-5.517-5.517z" fill="#2A49A7"/><path d="M785.168 174.687a.223.223 0 00-.024-.133s-3.391-6.802 1.273-9.494c1.896-1.094 4.97-1.417 7.949-1.417 4.347 0 8.494.691 8.494.691.066.01.134.017.201.017.297 0 .602-.1.733-.254l4.859-6.766a.314.314 0 00.032-.095l.001 1.74-4.093 5.698a1.766 1.766 0 01-.053.068c-.322.373-.876.596-1.48.596a2.04 2.04 0 01-.362-.031c-.042-.006-4.124-.677-8.333-.677-3.418 0-5.997.444-7.457 1.287-3.49 2.014-1.357 7.151-.946 8.06a4.756 4.756 0 00-.794.71zm-74.79-17.571a.248.248 0 00.035.151l4.832 6.773c.133.154.437.253.734.253.068 0 .134-.005.198-.016 0 0 4.116-.681 8.445-.681 2.995 0 6.093.326 7.995 1.429 4.711 2.721 1.315 9.521 1.315 9.521-.104.204.083.446.41.539l11.722 2.803c.074.015.152.021.23.021.286 0 .581-.091.72-.235 0 0 5.929-6.192 12.523-6.192 6.595.001 12.521 6.195 12.521 6.195.138.145.43.234.719.234.08 0 .158-.006.231-.02l11.723-2.8a.94.94 0 00.167-.069 4.66 4.66 0 00-.621 1.189l-11.039 2.637a2.21 2.21 0 01-.461.048c-.574 0-1.11-.202-1.432-.54-.057-.059-5.723-5.889-11.808-5.89-6.086-.001-11.754 5.828-11.811 5.887-.324.337-.856.54-1.433.54a2.25 2.25 0 01-.416-.039c-.045-.009-11.767-2.813-11.767-2.813a1.993 1.993 0 01-.209-.068v-1.305a4.833 4.833 0 00-.789-.705c.412-.913 2.532-6.053-.942-8.059-1.512-.876-4.106-1.325-7.55-1.325-4.191 0-8.242.661-8.284.667-.116.02-.237.029-.359.029-.608 0-1.161-.223-1.482-.599-.02-.022-.036-.045-.055-.068l-4.064-5.695v-1.797h.002zm.042-15.269c.001.165.155.335.405.413 0 0 10.719 3.432 10.706 7.239-.004 1.847-1.17 3.534-3.096 4.836a20.07 20.07 0 00-.942-.567c1.966-1.202 3.048-2.71 3.05-4.272.002-.531-.462-2-4.8-4.162-2.581-1.285-5.191-2.126-5.218-2.135a2.808 2.808 0 01-.147-.054v-1.287l.042-.011zm98.29.052v1.322c-.04.014-.072.029-.111.041-.024.008-2.659.853-5.245 2.138-4.333 2.152-4.802 3.618-4.802 4.148-.001.498.408 1.818 4.029 3.758-.35.178-.694.363-1.032.556-2.15-1.229-3.987-2.739-3.984-4.314.005-3.807 10.736-7.226 10.736-7.226.254-.081.41-.255.404-.423h.005zm-74.719-17.398s2.68 5.391-.027 8.473v-2.045c.338-1.113.232-2.363 0-3.432v-3.107a.296.296 0 00.027.111zm51.202 6.413v1.978l.34.459c-3.12-2.894-.543-8.382-.34-8.792v3.1c-.214 1.025-.303 2.199 0 3.255zm-40.191 10.219c4.017-2.318 9.281-3.479 14.548-3.479 5.264 0 10.53 1.161 14.546 3.479 5.382 3.108 7.157 7.51 5.329 11.472a10.94 10.94 0 00-.684-.916 6.2 6.2 0 00.393-2.156c0-2.806-1.963-5.485-5.53-7.544-3.739-2.159-8.729-3.347-14.054-3.348-5.327 0-10.317 1.189-14.055 3.348-3.568 2.06-5.534 4.739-5.534 7.544 0 .729.136 1.452.396 2.156-.252.3-.479.606-.684.916-1.83-3.962-.054-8.363 5.329-11.472z" fill="#93ACF1"/><path d="M734.344 175.085l11.722 2.803c.346.066.774-.029.95-.213 0 0 5.929-6.192 12.523-6.192 6.595.001 12.521 6.195 12.521 6.195.175.184.604.28.95.214l11.723-2.8c.327-.094.514-.336.411-.539 0 0-3.391-6.802 1.273-9.494 4.667-2.691 16.443-.726 16.443-.726.354.059.771-.049.935-.237l4.859-6.766c.114-.2-.052-.447-.372-.549 0 0-10.722-3.426-10.718-7.233.005-3.807 10.736-7.226 10.736-7.226.319-.101.487-.348.369-.548l-4.842-6.77c-.163-.19-.583-.295-.934-.237 0 0-11.781 1.956-16.44-.74-4.659-2.696-1.25-9.494-1.25-9.494.101-.202-.084-.445-.412-.538l-11.717-2.81c-.347-.067-.719.043-.826.245 0 0-1.515 2.823-3.49 3.964-2.347 1.355-5.587 2.191-9.168 2.189-6.595-.004-12.51-6.202-12.51-6.202-.176-.184-.603-.281-.949-.214l-11.728 2.794c-.328.093-.514.336-.414.538 0 0 3.382 6.802-1.288 9.491s-16.445.719-16.445.719c-.349-.059-.771.048-.932.236l-4.87 6.764c-.116.2.051.448.37.548 0 0 10.719 3.432 10.706 7.239-.004 2.059-1.453 3.923-3.793 5.273-1.982 1.146-6.9 2.018-6.9 2.018-.349.063-.542.277-.425.477l4.832 6.773c.161.189.582.296.933.238 0 0 11.784-1.95 16.44.748 4.711 2.721 1.315 9.521 1.315 9.521-.101.206.085.449.412.541zm10.658-17.152c-8.036-4.638-8.036-12.159 0-16.798 8.034-4.638 21.06-4.638 29.094 0 8.033 4.639 8.033 12.161 0 16.798-8.034 4.638-21.061 4.638-29.094 0z" fill="#3965E5"/><path opacity=".2" d="M310.597 240.55c4.273 2.468 4.291 6.465.05 8.93l-85.678 49.79c-4.242 2.466-11.143 2.467-15.416 0l-86.235-49.788c-4.273-2.466-4.296-6.466-.054-8.932l85.678-49.789c4.242-2.465 11.148-2.465 15.42.001l86.235 49.788z" fill="#2848A6"/><path d="M310.646 215.932l-85.678 49.79c-4.242 2.465-11.143 2.468-15.416 0l-86.235-49.788c-2.15-1.242-3.225-2.871-3.22-4.499l-.008 2.857c-.004 1.627 1.07 3.256 3.22 4.499l86.235 49.788c4.272 2.467 11.174 2.465 15.417 0l85.677-49.791c2.107-1.225 3.164-2.828 3.167-4.433l.007-2.857c-.001 1.605-1.056 3.208-3.166 4.434z" fill="#93ACF1"/><path d="M310.597 207c4.273 2.468 4.291 6.466.05 8.931l-85.678 49.791c-4.242 2.464-11.143 2.465-15.416 0l-86.235-49.789c-4.273-2.466-4.296-6.466-.054-8.931l85.678-49.792c4.242-2.465 11.148-2.465 15.42.002L310.597 207z" fill="#fff"/><path d="M225.201 220.459l-8.94-5.162 10.323-5.959 8.94 5.161-10.323 5.96z" fill="#79A8EE"/><path d="M216.261 215.296v-44.279l8.884-.369.056 49.81-8.94-5.162z" fill="#3258B3"/><path d="M235.524 170.218v44.281l-10.323 5.96v-46.543l10.323-3.698z" fill="#27468D"/><path d="M225.201 176.179l-8.94-5.161 10.323-5.96 8.94 5.16-10.323 5.961z" fill="#2A49A7"/><path d="M211.099 228.488l-8.94-5.162 10.323-5.959 8.941 5.161-10.324 5.96z" fill="#79A8EE"/><path d="M202.159 223.326V188.63l8.883-.368.057 40.226-8.94-5.162z" fill="#7490E8"/><path d="M221.423 187.832v34.696l-10.324 5.96v-36.96l10.324-3.696z" fill="#2949B4"/><path d="M211.099 193.792l-8.94-5.162 10.323-5.961 8.941 5.163-10.324 5.96z" fill="#3C6BEB"/><path d="M196.999 236.517l-8.941-5.162 10.323-5.959 8.94 5.161-10.322 5.96z" fill="#79A8EE"/><path d="M188.058 231.354v-13.589l8.882-.369.059 19.12-8.941-5.162z" fill="#E8ECFD"/><path d="M207.321 216.967v13.59l-10.322 5.96v-15.853l10.322-3.697z" fill="#93ACF1"/><path d="M196.999 222.927l-8.941-5.161 10.323-5.96 8.94 5.161-10.322 5.96z" fill="#CDDAEC"/><path d="M454.126 263.398c4.035 1.091 8.534.315 11.97-2.053-.367 2.896-1.178 6.44-.352 9.215.929 3.107 2.269 5.947 2.876 9.185 1.162 6.196.908 12.662-.82 18.732 2.973-.747 5.922-1.871 8.256-3.866 2.331-1.984 3.981-4.949 3.828-8.014A41.241 41.241 0 00494.696 303c.204-2.771-.788-5.47-1.48-8.157-.692-2.694-1.051-5.695.303-8.12a38.501 38.501 0 015.225 7.944c.624-3.634.15-7.349.162-11.03.011-3.691.6-7.595 2.962-10.419 1.243 1.604 1.679 3.67 2.442 5.558.395.97 1.652 3.644 2.946 3.718 1.525.084.798-3.293.803-4.61.016-4.311.271-8.651 1.408-12.825.541-1.991 1.28-3.946 1.418-5.999.202-3-.898-5.922-1.976-8.731-2.218-5.762-4.432-11.53-6.65-17.294-.513-1.337-1.076-2.743-2.21-3.614-1.269-.975-2.986-1.082-4.586-1.087a63.335 63.335 0 00-22.795 4.167c-6.726 2.57-9.595 5.386-10.445 12.169-.274 2.234-4.44 19.721-8.097 18.728z" fill="#E8ECFD"/><path d="M467.48 264.282c3.314-2.192 5.634-5.827 6.218-9.761-.417 7.82-.687 16.235 3.555 22.81.257.394.57.815 1.032.922.77.174 1.403-.59 1.815-1.265a78.183 78.183 0 007.239-15.387c.386 3.905.874 7.799 1.47 11.685.078.493.207 1.063.654 1.289.438.221.967 0 1.388-.262 3.09-1.911 4.501-5.714 4.858-9.328.36-3.616-.112-7.281.235-10.895 1.334 1.692 2.669 3.383 4.001 5.075 1.227.024 2.268-1.023 2.653-2.188.385-1.164.26-2.424.132-3.646-.562-5.265-1.119-10.531-1.68-15.796-.049-.489-.111-1.005-.41-1.394-.528-.692-1.547-.711-2.417-.656-7.76.514-15.356 1.704-23.151 1.49-3.757-.104-8.017-.146-7.666 5.036.404.037.787-.047 1.138-.031-.071 2.882.9 21.005-1.064 22.302z" fill="#93ACF1"/><path d="M469.259 298.068c1.626-5.954 1.854-12.267.716-18.324-.602-3.239-1.946-6.078-2.871-9.185-.826-2.776-.019-6.319.351-9.215-.476.325-.972.62-1.481.882-.392 2.713-.976 5.834-.23 8.333.928 3.107 2.269 5.946 2.875 9.185 1.162 6.195.909 12.662-.819 18.732.488-.125.973-.265 1.459-.408zm36.408-19.294c-.764-1.887-1.197-3.953-2.444-5.557a10.49 10.49 0 00-.72.981c.783 1.423 1.19 3.059 1.807 4.576.395.971 1.652 3.645 2.945 3.719a.715.715 0 00.641-.287c-1.017-.727-1.909-2.643-2.229-3.432zm-50.185-15.376c3.659.992 7.823-16.495 8.1-18.73.847-6.782 3.716-9.597 10.441-12.168a63.294 63.294 0 0122.139-4.155 23.345 23.345 0 00-.7-.012 63.33 63.33 0 00-22.794 4.167c-6.726 2.571-9.595 5.386-10.445 12.169-.274 2.235-4.44 19.722-8.097 18.729 1.414.385 2.885.536 4.345.465a13.72 13.72 0 01-2.989-.465zm39.396 23.323a6.674 6.674 0 00-.482 1.09 38.779 38.779 0 014.349 6.854c.118-.694.19-1.397.241-2.099a38.74 38.74 0 00-4.108-5.845zm-13.636-.126a8.164 8.164 0 01-.189 2.174c3.317 5.746 8.034 10.682 13.644 14.229.022-.299.022-.597.019-.891-5.698-3.928-10.39-9.308-13.474-15.512z" fill="#E8ECFD"/><path d="M467.48 264.284a14.21 14.21 0 002.071-1.685c.977-4.835.289-18.18.35-20.617-.353-.016-.736.068-1.137.031-.287-4.219 2.488-4.973 5.558-5.052-3.549-.069-7.245.216-6.916 5.052.403.037.786-.047 1.137-.031-.07 2.882.901 21.005-1.063 22.302zm31.876-28.781a5.979 5.979 0 00-1.134-.016c-6.71.446-13.299 1.391-19.997 1.501 7.093.009 14.048-1.003 21.131-1.485zm-20.747 41.829c-4.241-6.575-3.972-14.99-3.555-22.81a14.126 14.126 0 01-1.55 4.618c-.157 6.409.333 12.893 3.749 18.192.257.394.57.815 1.031.922.334.074.642-.031.921-.227-.236-.186-.43-.437-.596-.695zm18.695-23.241a27.022 27.022 0 00-.105 1.59c.916 1.161 1.83 2.325 2.746 3.485.404.006.78-.106 1.127-.294-1.256-1.592-2.513-3.191-3.768-4.781zm-7.135 19.196a216.471 216.471 0 01-1.47-11.684 77.201 77.201 0 01-1.06 2.869 228.07 228.07 0 001.17 8.815c.078.493.207 1.063.654 1.289.37.19.805.056 1.181-.142-.297-.269-.413-.728-.475-1.147z" fill="#93ACF1"/><path d="M516.065 164.731c.177 19.691-2.045 47.989-6.264 62.914a100.297 100.297 0 01-2.003 6.303 13.098 13.098 0 01-9.327 8.354c-4.067.961-8.793 1.535-13.843 1.58-5.046.043-9.786-.446-13.867-1.336a13.104 13.104 0 01-9.472-8.188 98.959 98.959 0 01-2.111-6.268c-4.483-14.85-7.202-43.105-7.373-62.79-.345-39.863 9.096-79.804 24.845-79.942 2.228-.02 4.429.676 6.604 1.985 2.148-1.348 4.337-2.08 6.564-2.1 15.75-.14 25.895 39.626 26.247 79.488z" fill="#2A49A7"/><path d="M511.141 116.664c.052 5.971-12.276 10.924-27.534 11.058-15.257.131-27.671-4.598-27.726-10.572-.049-5.973 11.899-54.018 27.156-54.15 15.261-.134 28.051 47.691 28.104 53.664z" fill="#3C6BEB"/><path d="M509.8 227.646a98.878 98.878 0 01-1.998 6.293 13.116 13.116 0 01-9.343 8.366c-4.064.961-8.788 1.531-13.831 1.576-5.043.043-9.775-.442-13.854-1.332a13.125 13.125 0 01-9.491-8.203 98.222 98.222 0 01-2.104-6.257c4.304 3.775 14.054 6.349 25.369 6.249 11.31-.095 21.015-2.842 25.252-6.692z" fill="#93ACF1"/><path d="M490.085 163.014a6.168 6.168 0 01-6.111 6.222c-3.405.028-6.194-2.707-6.222-6.111a6.164 6.164 0 016.112-6.222 6.165 6.165 0 016.221 6.111z" fill="#00498E"/><path d="M483.914 170.036a6.919 6.919 0 01-4.881-1.999 6.897 6.897 0 01-2.082-4.906c-.034-3.84 3.062-6.991 6.907-7.029h.065c1.837 0 3.565.708 4.881 1.999a6.907 6.907 0 012.083 4.906 6.923 6.923 0 01-2.003 4.947 6.892 6.892 0 01-4.905 2.082h-.065zm.009-12.33h-.053a5.37 5.37 0 00-5.316 5.412 5.35 5.35 0 001.605 3.779c1.024 1.002 2.277 1.554 3.808 1.535a5.32 5.32 0 003.775-1.598 5.345 5.345 0 001.542-3.815 5.348 5.348 0 00-1.605-3.778 5.338 5.338 0 00-3.756-1.535z" fill="#fff"/><path d="M490.426 201.771a6.166 6.166 0 11-12.332.106 6.16 6.16 0 016.112-6.216 6.166 6.166 0 016.22 6.11z" fill="#00498E"/><path d="M484.255 208.795a6.91 6.91 0 01-4.879-2 6.918 6.918 0 01-2.084-4.911 6.919 6.919 0 011.996-4.941 6.942 6.942 0 014.911-2.087h.051c3.817 0 6.944 3.088 6.978 6.91.036 3.84-3.063 6.991-6.906 7.03l-.067-.001zm-.003-12.335h-.041a5.328 5.328 0 00-3.776 1.602 5.325 5.325 0 00-1.537 3.81 5.343 5.343 0 001.602 3.784 5.339 5.339 0 003.756 1.535h.054a5.369 5.369 0 005.315-5.413 5.382 5.382 0 00-5.373-5.318z" fill="#fff"/><path d="M492.565 182.374c.042 4.679-3.721 8.506-8.401 8.548a8.473 8.473 0 01-8.551-8.402 8.475 8.475 0 018.4-8.547 8.474 8.474 0 018.552 8.401z" fill="#00498E"/><path d="M484.084 191.723a9.21 9.21 0 01-6.498-2.657 9.231 9.231 0 01-2.775-6.541c-.043-5.112 4.083-9.308 9.198-9.359h.075c5.084 0 9.24 4.109 9.284 9.196a9.215 9.215 0 01-2.66 6.585 9.192 9.192 0 01-6.537 2.777l-.087-.001zm0-16.952h-.063c-4.229.036-7.643 3.514-7.606 7.742a7.627 7.627 0 002.297 5.407c1.462 1.44 3.361 2.305 5.448 2.198a7.644 7.644 0 005.405-2.292 7.635 7.635 0 002.199-5.451c-.038-4.203-3.477-7.604-7.68-7.604z" fill="#fff"/><path opacity=".25" d="M487.438 243.775c-.122-.004-.241-.007-.364-.014-.154-.005-.304-.016-.456-.021-.148-.01-.301-.015-.451-.023-.152-.008-.299-.02-.449-.031-.146-.009-.301-.016-.447-.028-.157-.009-.308-.025-.461-.033-.144-.014-.287-.023-.429-.034l-.414-.04c-.154-.011-.309-.027-.463-.04-.131-.012-.26-.028-.392-.04a19.116 19.116 0 00-.475-.05 9.174 9.174 0 00-.367-.044 32.295 32.295 0 01-.486-.06c-.127-.015-.257-.034-.383-.051a64.064 64.064 0 01-.46-.059l-.395-.06c-.143-.021-.292-.039-.435-.066a28.665 28.665 0 01-1.162-.194 12.626 12.626 0 01-.454-.077c-.123-.025-.241-.047-.36-.073-.144-.028-.289-.052-.426-.08-.12-.027-.235-.051-.353-.075l-.415-.086-.004-.002h-.008a13.106 13.106 0 01-9.473-8.191c-.002 0-.002-.003-.002-.007l-.004-.004c-.1-.266-.198-.538-.294-.811-.084-.228-.169-.454-.25-.687a39.77 39.77 0 01-.307-.882 47.138 47.138 0 01-.229-.66c-.112-.329-.219-.664-.328-1-.064-.198-.13-.388-.191-.59a80.466 80.466 0 01-.509-1.628c-4.483-14.846-7.198-43.101-7.37-62.793-.145-16.485 1.388-32.987 4.349-46.678a4.445 4.445 0 01-.271-1.466c-.046-5.567 10.322-47.649 24.079-53.479-1.019-.41-2.048-.626-3.091-.617-15.258.132-27.205 48.177-27.156 54.15.007.498.098.986.271 1.467-2.96 13.694-4.493 30.193-4.348 46.681.171 19.686 2.891 47.941 7.374 62.791.166.548.332 1.09.503 1.628.063.198.129.39.196.588.107.334.215.669.325.998.075.225.154.442.229.661.1.294.203.595.306.887.082.231.167.454.251.685.097.27.198.542.294.81l.003.001c0 .004 0 .007.003.011a13.108 13.108 0 009.472 8.188c.004 0 .006 0 .009.003h.004c.138.028.276.056.415.088.118.021.234.05.353.071.142.028.285.056.426.086.119.02.238.045.36.068.151.028.304.052.455.082.115.017.232.04.347.06.151.028.304.048.455.075.122.017.241.039.364.058.139.021.287.045.431.064.131.017.263.039.395.059.153.021.306.04.46.059.129.017.253.034.383.053l.489.056c.121.015.241.031.361.043.161.019.321.034.478.051.132.012.261.027.391.04l.464.046.415.036c.143.009.284.022.428.031l.461.038.45.029.444.028c.151.009.304.015.455.021.15.011.304.016.457.022.12.006.242.009.36.016.186.005.372.012.555.02.185.005.37.009.556.016.124 0 .246.005.371.005.229.007.46.007.692.011l.241.002c.313 0 .63 0 .943-.002.318-.004.631-.007.943-.016.082 0 .163-.003.245-.007.23-.007.459-.012.689-.02.125-.003.248-.009.372-.015.185-.005.37-.016.555-.021.093-.007.183-.012.278-.016a8.186 8.186 0 01-.273-.012z" fill="#2A49A7"/><path d="M443.895 265.629l-1.635-.716-5.26-53.685 1.635.708 5.26 53.693z" fill="#CDDAEC"/><path d="M438.635 211.936l-1.635-.709 15.347-39.381 1.633.708-15.345 39.382z" fill="#CDDAEC"/><path d="M453.98 172.554l5.261 53.688-15.346 39.387-5.26-53.694 15.345-39.381z" fill="#2A49A7"/><path d="M527.097 264.894l1.614-.758 3.721-53.814-1.614.758-3.721 53.814z" fill="#CDDAEC"/><path d="M530.818 211.081l1.614-.758-16.462-38.929-1.613.754 16.461 38.933z" fill="#CDDAEC"/><path d="M514.357 172.147l-3.726 53.818 16.466 38.929 3.721-53.814-16.461-38.933z" fill="#2A49A7"/><path d="M483.558 121.89c-13.452.115-24.688-3.549-27.195-8.507-.321 1.747-.483 3.057-.482 3.768.055 5.973 12.469 10.702 27.726 10.571 15.258-.134 27.587-5.087 27.534-11.057-.007-.712-.194-2.017-.545-3.76-2.422 5.004-13.588 8.867-27.038 8.985z" fill="#fff"/></g><defs><linearGradient id="paint0_linear" x1="407.095" y1="259.454" x2="405.655" y2="302.652" gradientUnits="userSpaceOnUse"><stop stop-color="#CDD9ED"/><stop offset="1" stop-color="#93ACF1"/></linearGradient><linearGradient id="paint1_linear" x1="569.429" y1="328.304" x2="588.957" y2="328.304" gradientUnits="userSpaceOnUse"><stop stop-color="#CDD9ED"/><stop offset="1" stop-color="#B0C3EF"/></linearGradient><linearGradient id="paint2_linear" x1="577.483" y1="340.413" x2="578.792" y2="374.711" gradientUnits="userSpaceOnUse"><stop stop-color="#3C6BEB"/><stop offset="1" stop-color="#2A49A7"/></linearGradient><linearGradient id="paint3_linear" x1="557.427" y1="328.121" x2="572.89" y2="327.041" gradientUnits="userSpaceOnUse"><stop stop-color="#CDD9ED"/><stop offset="1" stop-color="#B0C3EF"/></linearGradient><linearGradient id="paint4_linear" x1="557.594" y1="330.541" x2="573.057" y2="329.461" gradientUnits="userSpaceOnUse"><stop stop-color="#CDD9ED"/><stop offset="1" stop-color="#B0C3EF"/></linearGradient><linearGradient id="paint5_linear" x1="376.529" y1="310.751" x2="356.999" y2="310.751" gradientUnits="userSpaceOnUse"><stop stop-color="#CDD9ED"/><stop offset="1" stop-color="#B0C3EF"/></linearGradient><linearGradient id="paint6_linear" x1="368.473" y1="322.86" x2="367.164" y2="357.155" gradientUnits="userSpaceOnUse"><stop stop-color="#3C6BEB"/><stop offset="1" stop-color="#2A49A7"/></linearGradient><linearGradient id="paint7_linear" x1="388.528" y1="310.568" x2="373.067" y2="309.489" gradientUnits="userSpaceOnUse"><stop stop-color="#CDD9ED"/><stop offset="1" stop-color="#B0C3EF"/></linearGradient><linearGradient id="paint8_linear" x1="388.361" y1="312.985" x2="372.901" y2="311.906" gradientUnits="userSpaceOnUse"><stop stop-color="#CDD9ED"/><stop offset="1" stop-color="#B0C3EF"/></linearGradient><linearGradient id="paint9_linear" x1="68.185" y1="459.04" x2="69.933" y2="495.124" gradientUnits="userSpaceOnUse"><stop stop-color="#3C6BEB"/><stop offset="1" stop-color="#2A49A7"/></linearGradient><linearGradient id="paint10_linear" x1="91.779" y1="475.277" x2="70.132" y2="494.313" gradientUnits="userSpaceOnUse"><stop stop-color="#3C6BEB"/><stop offset="1" stop-color="#2A49A7"/></linearGradient><linearGradient id="paint11_linear" x1="90.649" y1="495.19" x2="74.432" y2="464.435" gradientUnits="userSpaceOnUse"><stop stop-color="#3C6BEB"/><stop offset="1" stop-color="#2A49A7"/></linearGradient><clipPath id="clip0"><path fill="#fff" d="M0 0h849v685H0z"/></clipPath></defs></svg>