<svg xmlns="http://www.w3.org/2000/svg" height="512" viewBox="0 0 64 64" width="512" data-name="Layer 1 copy"><path d="M1 1h62v52H1z" fill="#23a8cc" data-original="#23A8CC"/><path d="M8 6h48v39H8z" fill="#1d7d9f" data-original="#1D7D9F"/><path d="M10 53h6v10h-6zm38 0h6v10h-6z" fill="#ffb229" data-original="#6A951F" data-old_color="#6a951f"/><path d="M43 26a11.252 11.252 0 01-11 11 11.252 11.252 0 01-11-11 11.252 11.252 0 0111-11 11.252 11.252 0 0111 11z" fill="#ffb229" data-original="#FCC325" data-old_color="#fcc325"/><path d="M1 12.687c4.729 3.133 26.258 16.057 62 18.194V1H1z" fill="#fff" data-original="#FFF" class="active-path" data-old_color="#fff" opacity=".2"/><path d="M10 53h6v5h-6zm38 0h6v5h-6z" data-original="#000000" data-old_color="#000000" fill="#194c80" opacity=".2"/><g fill="#194c80"><path d="M63 0H8a1 1 0 000 2h54v18a1 1 0 002 0V1a1 1 0 00-1-1z" data-original="#043C49" data-old_color="#043C49"/><path d="M63 28a1 1 0 00-1 1v23H2V2h2a1 1 0 000-2H1a1 1 0 00-1 1v52a1 1 0 001 1h8v10h8V54h30v10h8V54h8a1 1 0 001-1V29a1 1 0 00-1-1zM15 62h-4v-8h4zm38 0h-4v-8h4z" data-original="#043C49" data-old_color="#043C49"/><path d="M9 48a1 1 0 000 2h1a1 1 0 000-2zm4 0a1 1 0 000 2h1a1 1 0 000-2zm-8 0a1 1 0 000 2h1a1 1 0 000-2zm42-37h1a1 1 0 000-2h-1a1 1 0 000 2zm4 0h1a1 1 0 000-2h-1a1 1 0 000 2zm-8 0h1a1 1 0 000-2h-1a1 1 0 000 2zm20 12a1 1 0 00-1 1v1a1 1 0 002 0v-1a1 1 0 00-1-1zM32 38a12.347 12.347 0 0011.946-11H46a1 1 0 000-2h-2.054A12.347 12.347 0 0032 14a12.314 12.314 0 00-12 12 12.314 12.314 0 0012 12zm0-22a10.3 10.3 0 019.945 9H32a1 1 0 000 2h9.945A10.3 10.3 0 0132 36a10.262 10.262 0 01-10-10 10.262 10.262 0 0110-10z" data-original="#043C49" data-old_color="#043C49"/><path d="M6 17h1v18H6a1 1 0 000 2h1v8a1 1 0 001 1h48a1 1 0 001-1V6a1 1 0 00-1-1H8a1 1 0 00-1 1v9H6a1 1 0 000 2zM9 7h46v37H9v-7h1a1 1 0 000-2H9V17h1a1 1 0 000-2H9z" data-original="#043C49" data-old_color="#043C49"/></g></svg>