<?xml version="1.0"?>
<svg xmlns="http://www.w3.org/2000/svg" id="Layer_1_copy" height="512px" viewBox="0 0 64 64" width="512px" data-name="Layer 1 copy" class=""><g><path d="m1 1h62v52h-62z" fill="#23a8cc" data-original="#23A8CC" class=""/><path d="m8 6h48v39h-48z" fill="#1d7d9f" data-original="#1D7D9F" class=""/><path d="m10 53h6v10h-6z" fill="#6a951f" data-original="#6A951F" class="" style="fill:#FFB229" data-old_color="#6a951f"/><path d="m48 53h6v10h-6z" fill="#6a951f" data-original="#6A951F" class="" style="fill:#FFB229" data-old_color="#6a951f"/><path d="m43 26a11.252 11.252 0 0 1 -11 11 11.252 11.252 0 0 1 -11-11 11.252 11.252 0 0 1 11-11 11.252 11.252 0 0 1 11 11z" fill="#fcc325" data-original="#FCC325" class="" style="fill:#FFB229" data-old_color="#fcc325"/><g opacity=".2"><path d="m1 12.687c4.729 3.133 26.258 16.057 62 18.194v-29.881h-62z" fill="#fff" data-original="#FFF" class="active-path" data-old_color="#fff" style="fill:#FFFFFF"/></g><g opacity=".2"><path d="m10 53h6v5h-6z" data-original="#000000" class="" style="fill:#194C80" data-old_color="#000000"/></g><g opacity=".2"><path d="m48 53h6v5h-6z" data-original="#000000" class="" style="fill:#194C80" data-old_color="#000000"/></g><g fill="#043c49"><path d="m63 0h-55a1 1 0 0 0 0 2h54v18a1 1 0 0 0 2 0v-19a1 1 0 0 0 -1-1z" data-original="#043C49" class="" data-old_color="#043C49" style="fill:#194C80"/><path d="m63 28a1 1 0 0 0 -1 1v23h-60v-50h2a1 1 0 0 0 0-2h-3a1 1 0 0 0 -1 1v52a1 1 0 0 0 1 1h8v10h8v-10h30v10h8v-10h8a1 1 0 0 0 1-1v-24a1 1 0 0 0 -1-1zm-48 34h-4v-8h4zm38 0h-4v-8h4z" data-original="#043C49" class="" data-old_color="#043C49" style="fill:#194C80"/><path d="m9 48a1 1 0 0 0 0 2h1a1 1 0 0 0 0-2z" data-original="#043C49" class="" data-old_color="#043C49" style="fill:#194C80"/><path d="m13 48a1 1 0 0 0 0 2h1a1 1 0 0 0 0-2z" data-original="#043C49" class="" data-old_color="#043C49" style="fill:#194C80"/><path d="m5 48a1 1 0 0 0 0 2h1a1 1 0 0 0 0-2z" data-original="#043C49" class="" data-old_color="#043C49" style="fill:#194C80"/><path d="m47 11h1a1 1 0 0 0 0-2h-1a1 1 0 0 0 0 2z" data-original="#043C49" class="" data-old_color="#043C49" style="fill:#194C80"/><path d="m51 11h1a1 1 0 0 0 0-2h-1a1 1 0 0 0 0 2z" data-original="#043C49" class="" data-old_color="#043C49" style="fill:#194C80"/><path d="m43 11h1a1 1 0 0 0 0-2h-1a1 1 0 0 0 0 2z" data-original="#043C49" class="" data-old_color="#043C49" style="fill:#194C80"/><path d="m63 23a1 1 0 0 0 -1 1v1a1 1 0 0 0 2 0v-1a1 1 0 0 0 -1-1z" data-original="#043C49" class="" data-old_color="#043C49" style="fill:#194C80"/><path d="m32 38a12.347 12.347 0 0 0 11.946-11h2.054a1 1 0 0 0 0-2h-2.054a12.347 12.347 0 0 0 -11.946-11 12.314 12.314 0 0 0 -12 12 12.314 12.314 0 0 0 12 12zm0-22a10.3 10.3 0 0 1 9.945 9h-9.945a1 1 0 0 0 0 2h9.945a10.3 10.3 0 0 1 -9.945 9 10.262 10.262 0 0 1 -10-10 10.262 10.262 0 0 1 10-10z" data-original="#043C49" class="" data-old_color="#043C49" style="fill:#194C80"/><path d="m6 17h1v18h-1a1 1 0 0 0 0 2h1v8a1 1 0 0 0 1 1h48a1 1 0 0 0 1-1v-39a1 1 0 0 0 -1-1h-48a1 1 0 0 0 -1 1v9h-1a1 1 0 0 0 0 2zm3-10h46v37h-46v-7h1a1 1 0 0 0 0-2h-1v-18h1a1 1 0 0 0 0-2h-1z" data-original="#043C49" class="" data-old_color="#043C49" style="fill:#194C80"/></g></g> </svg>
