<svg viewBox="0 0 405 320" fill="none" xmlns="http://www.w3.org/2000/svg"><path d="M76.796 162.285c7.777-78.52 76.065-135.7 152.524-127.713 76.459 7.987 132.136 78.116 124.359 156.639-7.778 78.521-76.066 135.701-152.523 127.714-76.46-7.989-132.137-78.117-124.36-156.64z" fill="#FAE7C2"/><path d="M.513 87.591C.513 40.875 37.39 3.004 82.88 3.004s82.364 37.871 82.364 84.587-36.875 84.587-82.364 84.587c-45.49 0-82.366-37.871-82.366-84.587zm356.939 148.561c-2.945-13.256 5.133-26.454 18.043-29.478 12.908-3.024 25.76 5.27 28.704 18.529 2.945 13.256-5.134 26.455-18.042 29.479-12.909 3.024-25.761-5.271-28.705-18.53" fill="#F9E5C1"/><path d="M360.421 147.539l-12.234 3.304-2.42-8.97L358 138.572l2.421 8.967z" fill="#EA4E77"/><path d="M367.832 133.648l4.199 14.054-13.219 3.946-4.199-14.053 13.219-3.947z" fill="#F1B733"/><path d="M369.98 101.234l12.909 43.224-18.098 5.406-4.198-14.053 5.388-19.236c.283-3.22-3.017-13.245.08-14.172l3.919-1.169" fill="#292533"/><path d="M374.025 100.026l12.911 43.224-4.047 1.208-12.909-43.224 4.045-1.208z" fill="#F1B733"/><path d="M349.151 125.957l.39-.54a4.752 4.752 0 01-1.042-1.029c-.279-.384-.426-.769-.42-1.033.002-.172.04-.3.156-.456a.82.82 0 01.372-.271c.158-.06.365-.095.604-.095.388 0 .846.091 1.262.215 4.418 1.308 9.64 4.195 11.928 8.087l.574-.34-.147-.651a7.764 7.764 0 01-1.716.18c-3.827.017-8.583-2.424-11.571-4.607l-.39.54-.392.54c3.149 2.272 7.996 4.843 12.353 4.86.684 0 1.357-.065 2.008-.212a.665.665 0 00.428-.99c-2.613-4.37-8.065-7.291-12.693-8.684-.498-.147-1.063-.27-1.644-.271a3.044 3.044 0 00-1.08.183 2.142 2.142 0 00-.954.704 2.07 2.07 0 00-.432 1.268c.006.682.298 1.286.672 1.812.379.525.858.978 1.342 1.33l.392-.54" fill="#242C33"/><path d="M356.9 117.298l.657-.113a5.076 5.076 0 01-.072-.842c-.002-.516.091-1.024.258-1.353.178-.335.337-.469.637-.521l.116-.01c.243-.001.509.123.804.399.291.271.569.672.788 1.067 1.769 3.168 3.23 7.39 3.226 11.184 0 1.017-.104 2.002-.328 2.93l.649.158.349-.568c-1.75-1.071-3.2-3.107-4.275-5.43-1.078-2.317-1.789-4.905-2.152-7.014l-.657.113-.657.113c.382 2.215 1.116 4.892 2.257 7.351 1.144 2.453 2.688 4.704 4.785 6.001a.662.662 0 00.604.05.67.67 0 00.394-.46c.252-1.047.365-2.136.365-3.244-.006-4.128-1.541-8.5-3.396-11.835-.263-.468-.598-.971-1.038-1.387-.434-.41-1.013-.758-1.718-.761l-.308.023c-.785.106-1.359.65-1.641 1.25-.295.604-.392 1.286-.395 1.944 0 .368.033.73.092 1.068l.656-.113" fill="#242C33"/><path d="M188.055 231.05l-6.895-12.11 48.652-57.57a27.393 27.393 0 0116.935-9.418l103.47-15.212 5.13 17.56-98.236 28.703c-17.256 23.317-28.734 38.588-36.479 48.667-8.301 10.806-24.688 10.492-32.577-.62" fill="#293E89"/><path d="M348.739 142.154l-98.51 13.088a19.852 19.852 0 00-12.689 7.031l-48.336 58.432a.5.5 0 10.771.637l48.336-58.432a18.854 18.854 0 0112.049-6.676l98.509-13.089a.5.5 0 10-.13-.991" fill="#fff"/><path d="M181.979 234.994l-4.943-5.291 78.032-72.908c5.781-5.402 14.847-5.093 20.249.687l13.527 14.479-68.845 64.324c-10.855 10.141-27.877 9.564-38.02-1.291z" fill="#4555AE"/><path d="M255.145 172.358l-62.941 60.624a.5.5 0 00.695.72l62.941-60.624a.5.5 0 00-.695-.72z" fill="#fff"/><path d="M226.749 107.644c-.046-5.446 4.33-9.898 9.775-9.945 5.445-.046 9.899 4.33 9.944 9.777.047 5.445-4.329 9.896-9.775 9.944-5.445.046-9.897-4.331-9.944-9.776z" fill="#EA4E77"/><path d="M232.771 127.078l-9.272-5 6.122-11.353 9.271 4.998-6.121 11.355m5.22-27.838l3.841-6.678a2.281 2.281 0 00-3.955-2.275l-3.841 6.679a2.281 2.281 0 103.955 2.274zm3.521 3.572l3.841-6.68a2.28 2.28 0 10-3.954-2.274l-3.842 6.678a2.282 2.282 0 003.955 2.276z" fill="#EA4E77"/><path d="M243.491 107.165l3.841-6.68a2.282 2.282 0 00-3.955-2.275l-3.841 6.68a2.282 2.282 0 003.955 2.275z" fill="#EA4E77"/><path d="M245.553 111.544l3.84-6.68a2.28 2.28 0 10-3.954-2.274l-3.842 6.68a2.281 2.281 0 003.956 2.274zm-21.01-4.297a3.941 3.941 0 013.908-3.978 3.944 3.944 0 11-3.908 3.978" fill="#EA4E77"/><path d="M235.769 112.562l8.889-4.732a3.22 3.22 0 001.33-4.353l-9.525-17.895a3.218 3.218 0 00-4.354-1.33l-8.889 4.731a3.22 3.22 0 00-1.331 4.355l9.525 17.895a3.22 3.22 0 004.355 1.329" fill="#292533"/><path d="M237.517 95.5l3.524-2.087a2.281 2.281 0 00-2.326-3.925l-3.524 2.089a2.281 2.281 0 002.326 3.924zm1.928 4.495l5.202-3.083a2.282 2.282 0 00-2.327-3.925l-5.201 3.083a2.282 2.282 0 002.326 3.925m3.182 3.609l3.972-2.353a2.28 2.28 0 00.798-3.127 2.279 2.279 0 00-3.124-.798L240.3 99.68a2.282 2.282 0 002.327 3.924m3.584 3.314l2.413-1.432a2.282 2.282 0 10-2.327-3.924l-2.412 1.431a2.28 2.28 0 102.326 3.925m-17.188.328l-.06-7.705a2.282 2.282 0 00-4.563.036l.06 7.705a2.282 2.282 0 004.563-.036z" fill="#EA4E77"/><path d="M210.211 175.434l-54.074-17.816 4.167-12.644a8.478 8.478 0 0110.705-5.4l34.482 11.36 17.54-35.293 15.089 7.012-15.908 46.8a9.526 9.526 0 01-12.001 5.981" fill="#D69A2B"/><path d="M236.548 132.417l-19.616-8.836 4.565-10.135 19.615 8.838-4.564 10.133z" fill="#F1B733"/><path d="M170.947 105.495c1.838 8.762.736 18.594-5.018 25.448-6.86 8.175-18.412 10.356-27.352 16.179-10.704 6.972-17.318 18.956-27.885 26.136-13.497 9.173-33.541 8.321-44.987-3.315-11.445-11.634-11.197-33.254 1.604-43.38 5.73-4.53 13.56-7.022 16.938-13.498 4.79-9.188-1.488-22.76 6.266-29.632 6.392-5.664 16.18-1.438 24.326 1.13 13.325 4.2 24.182 1.316 37.117-1.868 12.516-3.081 16.715 11.95 18.991 22.8" fill="#0F1322"/><path d="M143.787 145.174l13.012-1.866-3.19-22.245-13.01 1.864 3.188 22.247z" fill="#EA4E77"/><path d="M162.327 90.85l-25.798 3.7 4.316 30.106 13.087-1.876c7.019-1.005 11.895-7.512 10.888-14.532l-2.493-17.397z" fill="#EA4E77"/><path d="M140.845 124.656l.839 5.848c1.16.24 2.372.283 3.601.107a10.532 10.532 0 008.624-7.452l-.052-.367-13.012 1.864" fill="#B6385F"/><path d="M128.571 95.967l2.218 15.476a41.226 41.226 0 005.16-.409c13.396-1.921 23.84-9.948 26.543-19.379 1.159-4.046-1.471-8.316-5.657-8.764a2.964 2.964 0 00-.698-.012l-18.749 2.688c-5.579.8-9.525 5.456-8.817 10.4" fill="#0F1322"/><path d="M149.375 106.572a4.114 4.114 0 00-8.142 1.168 4.113 4.113 0 008.142-1.168m15.3-.694l.98-.14a1.739 1.739 0 001.474-1.97 1.738 1.738 0 00-1.968-1.476l-.981.142a1.74 1.74 0 00.495 3.444" fill="#EA4E77"/><path d="M212.053 195.207l-29.52 33.92c-1.746 2-4.973 1.587-6.146-.787l-9.894-12.253a133.293 133.293 0 01-22.36-40.44 122.84 122.84 0 01-2.76-8.973l-4.453-16.667c-1.547-3.813.76-8.08 4.787-8.893l11.773-2.36.48-.094 9.613-1.92s24.787 7.894 23.28 23.627l5.68 15.547 19.52 19.293" fill="#F1B733"/><path d="M154.72 165.407c-2.08 4.534-6.013 8.574-10.587 10.24a122.54 122.54 0 01-2.76-8.973l-4.453-16.667c-1.547-3.813.76-8.08 4.787-8.893l11.773-2.36c4.12 8.4 5.107 18.253 1.24 26.653" fill="#D69A2B"/><path d="M134.883 40.728l-10.564-1.526 1.939-13.42 10.562 1.526-1.937 13.42" fill="#EA4E77"/><path d="M144.379 12.305c-1.249-.254-2.487.508-2.975 1.684l-1.299 3.134a4.996 4.996 0 00-1.61-.368l2.081-11.721c.182-1.021-.34-2.088-1.312-2.448a2.116 2.116 0 00-2.832 1.608l-1.276 7.187 1.12-8.507c.162-1.216-.943-2.243-1.891-2.31-2.08.009-2.257 1.434-2.417 2.651l-1.633 12.39-.22.024-3.608-9.843c-.359-.977-1.348-1.641-2.375-1.463a2.124 2.124 0 00-1.645 2.826l1.09 2.974a2.114 2.114 0 00-2.718-.093c-.748.563-.975 1.59-.654 2.467l3.998 10.902.069.143c-.123 1.944.313 3.996 1.845 5.977 1.848 2.39 4.782 3.786 7.795 3.568 4.748-.34 7.259-4.254 8.847-8.261.997-2.517 3.554-8.926 3.554-8.926a2.636 2.636 0 00-1.934-3.595" fill="#EA4E77"/><path d="M122.955 10.36l2.809 7.38a.667.667 0 001.247-.474l-2.811-7.38a.665.665 0 10-1.245.475m12.141-3.232l-1.121 7.764a.666.666 0 001.32.19l1.121-7.764a.668.668 0 00-1.32-.19m-1.474 13.611a4.347 4.347 0 015.22-3.246.668.668 0 00.302-1.298 5.681 5.681 0 00-6.821 4.243.668.668 0 001.299.302" fill="#B6385F"/><path d="M153.909 152.744c-4.758 3.681-11.602 2.805-15.284-1.954l-28.034-36.25a11.246 11.246 0 01-2.228-8.532l13.961-72.898 14.768 3.508-6.516 68.144 25.287 32.696c3.682 4.76 2.806 11.603-1.954 15.286" fill="#F1B733"/><path d="M139.189 46.093l-20.521-2.964 1.712-11.846 20.52 2.963-1.711 11.847" fill="#FBBF47"/><path d="M64.424 43.696L56.75 6.478 99.813.564l6.502 31.527-41.89 11.605z" fill="#4555AE"/><path d="M100.799 27.5l.574-.155c8.598-2.335 16.15-5.463 21.591-8.72 2.721-1.632 4.916-3.293 6.459-4.933 1.533-1.64 2.458-3.274 2.468-4.915 0-.35-.044-.697-.136-1.035-.242-.894-.802-1.665-1.572-2.286-2.326-1.847-6.544-2.648-12.016-2.663-6.264.001-14.163 1.121-22.535 3.392l-.575.156a.668.668 0 00.35 1.287l.574-.156c8.272-2.246 16.078-3.346 22.186-3.346 3.553-.001 6.532.376 8.661 1.088 1.065.354 1.913.791 2.516 1.279.607.492.965 1.017 1.124 1.599.06.221.089.448.089.685.01 1.096-.681 2.492-2.106 4.001-2.126 2.267-5.803 4.742-10.534 7.058-4.732 2.32-10.521 4.493-16.893 6.222l-.575.155a.667.667 0 00.35 1.287" fill="#2C2F3D"/><path d="M90.325 6.414l.666.04a1.8 1.8 0 011.793-1.691l.112.004a1.8 1.8 0 011.69 1.793l-.003.115v-.001a1.798 1.798 0 01-1.794 1.689l-.113-.003a1.8 1.8 0 01-1.69-1.793l.005-.112v-.001l-.666-.04-.665-.043-.007.196a3.133 3.133 0 002.943 3.124l.193.005a3.132 3.132 0 003.124-2.942l.006-.194a3.131 3.131 0 00-2.942-3.124l-.193-.006a3.133 3.133 0 00-3.124 2.944V6.37l.665.043M95.7 26.555l.665.041a1.801 1.801 0 011.796-1.69l.111.002a1.8 1.8 0 011.69 1.795l-.003.113v-.001a1.8 1.8 0 01-1.794 1.69l-.112-.002a1.8 1.8 0 01-1.692-1.795l.004-.11v-.002l-.665-.041-.665-.043-.007.196a3.135 3.135 0 002.944 3.126l.193.005a3.131 3.131 0 003.124-2.943v-.001l.007-.192a3.134 3.134 0 00-2.943-3.125l-.192-.006a3.134 3.134 0 00-3.126 2.943v-.003l.665.043" fill="#2C2F3D"/><path d="M69.159 83.98L40.5 43.832l48.014-29.636 24.274 34.01-43.63 35.776" fill="#54C2AB"/><path d="M103.707 45.497l.6-.487c8.029-6.513 14.73-13.344 19.442-19.515 2.356-3.085 4.215-6.006 5.495-8.653 1.276-2.648 1.983-5.02 1.987-7.053.001-1.435-.368-2.723-1.183-3.726-.604-.746-1.419-1.29-2.373-1.634-.955-.346-2.051-.504-3.27-.504-4.213.008-9.953 1.874-16.52 5.204-6.56 3.33-13.924 8.14-21.254 14.088l-.602.486a.667.667 0 00.84 1.035l.602-.487c7.264-5.893 14.56-10.654 21.018-13.934 6.454-3.283 12.092-5.067 15.916-5.06 1.103 0 2.048.146 2.815.425.768.281 1.356.684 1.793 1.221.583.72.882 1.667.884 2.886.003 1.717-.626 3.937-1.854 6.473-3.676 7.625-12.642 18.039-24.576 27.712l-.6.487a.668.668 0 00.84 1.036" fill="#2C2F3D"/><path d="M80.324 26.12l.624-.232a2.534 2.534 0 012.377-3.419 2.538 2.538 0 012.538 2.537 2.539 2.539 0 01-2.538 2.536 2.536 2.536 0 01-2.377-1.654l-.624.232-.625.232a3.87 3.87 0 107.254-2.692 3.87 3.87 0 00-7.254 2.692l.625-.232zm16.959 21.087l.625-.232a2.536 2.536 0 01-.16-.881 2.538 2.538 0 015.073-.001 2.534 2.534 0 01-2.536 2.536 2.534 2.534 0 01-2.377-1.654l-.625.232-.624.234a3.869 3.869 0 107.252-2.695 3.869 3.869 0 00-7.252 2.695l.624-.234z" fill="#2C2F3D"/><path d="M292.499 258.432h-37.006v-37.939h37.006v37.939z" fill="#75D0C4"/><path d="M287.64 258.432h-32.147v-37.939h32.147v37.939z" fill="#54C2AB"/><path d="M287.64 246.542h-32.147v-13.2h32.147v13.2z" fill="#75D0C4"/><path d="M267.58 236.621l-9.38 21.129-34.789-15.445 9.381-21.131 34.788 15.447" fill="#EA4E77"/><path d="M266.348 239.395L258.2 257.75l-34.789-15.445 8.148-18.356 34.789 15.446z" fill="#F35B8F"/><path d="M255.447 234.554l-8.15 18.356-12.104-5.375 8.15-18.354 12.104 5.373z" fill="#EA4E77"/><path d="M167.899 232.536c3.276.056 6.094-3.242 9.314-2.637 3.412.64 4.588 5.043 7.503 6.931 4.784 3.098 12.337-1.543 16.436 2.421 1.785 1.729 2.291 4.701 4.511 5.823 2.29 1.156 5.246-.307 7.561.8 2.841 1.357 2.664 5.845.396 8.028-2.268 2.182-5.644 2.646-8.781 2.906-13.147 1.087-46.679 4.383-55.076-9.09-2.927-4.692-3.019-17.547 1.462-21.299 7.636-6.391 9.679 5.997 16.674 6.117" fill="#75D0C4"/><path d="M331.404 312.428H121.705a.667.667 0 000 1.334h209.699a.667.667 0 100-1.334" fill="#242C33"/><path d="M165.147 299.01c0-7.568 6.134-13.702 13.702-13.702 7.567 0 13.703 6.134 13.703 13.702s-6.136 13.701-13.703 13.701c-7.568 0-13.702-6.133-13.702-13.701z" fill="#242C33"/><path d="M170.573 299.01a8.275 8.275 0 018.276-8.275 8.274 8.274 0 018.275 8.275 8.274 8.274 0 01-8.275 8.274 8.275 8.275 0 01-8.276-8.274z" fill="#fff"/><path d="M254.443 299.01c0-7.568 6.133-13.702 13.701-13.702 7.568 0 13.701 6.134 13.701 13.702s-6.133 13.701-13.701 13.701c-7.568 0-13.701-6.133-13.701-13.701z" fill="#242C33"/><path d="M259.869 299.01a8.274 8.274 0 018.275-8.275 8.274 8.274 0 018.275 8.275 8.274 8.274 0 01-8.275 8.274 8.274 8.274 0 01-8.275-8.274z" fill="#fff"/><path d="M292.499 258.431v-.667h-130.22c-6.76.002-12.359-5.254-12.787-12.004l-.001-.016-6.4-72.36h169.237l-7.045 72.439-.002.017c-.468 6.716-6.052 11.926-12.782 11.924v1.334c7.432 0 13.596-5.75 14.112-13.164l-.666-.047.664.065 7.118-73.169a.67.67 0 00-.664-.732h-170.7a.665.665 0 00-.664.725l6.464 73.086.664-.059-.666.041c.472 7.452 6.652 13.254 14.118 13.254h130.22v-.667" fill="#242C33"/><path d="M160.985 172.723l.727 85.715a.667.667 0 001.333-.012l-.726-85.714a.667.667 0 00-1.334.011zm25.198-.005v85.713a.666.666 0 101.333 0v-85.713a.667.667 0 00-1.333 0zm25.197 0v85.713a.667.667 0 101.333 0v-85.713a.667.667 0 10-1.333 0zm25.197 0v85.713a.667.667 0 101.334 0v-85.713a.667.667 0 00-1.334 0zm25.199 0v85.713a.666.666 0 101.333 0v-85.713a.667.667 0 10-1.333 0zm25.197 0v85.713a.667.667 0 101.334 0v-85.713a.667.667 0 00-1.334 0z" fill="#242C33"/><path d="M143.611 185.9h168.072a.666.666 0 100-1.333H143.611a.667.667 0 000 1.333m166.342 16.297H145.188a.667.667 0 000 1.333h164.765a.667.667 0 100-1.333zm-1.734 17.629H146.764a.667.667 0 000 1.333h161.455a.666.666 0 000-1.333zm-1.73 17.629H148.34a.667.667 0 100 1.333h158.149a.667.667 0 000-1.333" fill="#242C33"/><path d="M119.224 161.028l21.016-3.39 9.347 113.907.664-.055-.666.04c.487 8.115 7.207 14.444 15.336 14.446h124.898a.667.667 0 000-1.334H164.921c-7.422 0-13.561-5.781-14.005-13.192l-.001-.014-9.404-114.624a.672.672 0 00-.254-.471.663.663 0 00-.517-.133l-21.728 3.504a.666.666 0 10.212 1.316" fill="#242C33"/><path d="M332.652 236.732l-7.311-10.352 7.59-5.357 7.309 10.351-7.588 5.358" fill="#EA4E77"/><path d="M348.245 238.914l-11.752 8.774-8.254-11.053 11.753-8.776 8.253 11.055" fill="#F1B733"/><path d="M379.42 229.779l-36.145 26.99-11.303-15.135 11.752-8.775 19.915-1.557c3.122-.841 11.401-7.389 13.334-4.799l2.447 3.276z" fill="#292533"/><path d="M381.945 233.162L345.8 260.151l-2.525-3.382 36.145-26.99 2.525 3.383z" fill="#F1B733"/><path d="M343.683 219.489l.645.168c.137-.535.403-1.136.724-1.555.16-.209.331-.372.489-.472.16-.1.298-.141.442-.141l.214.032c.27.078.466.272.646.654.172.375.272.892.31 1.374.063.733.095 1.5.095 2.286.007 4.138-.931 8.786-3.268 11.772l.525.41.554-.374c-1.19-1.746-1.664-4.3-1.66-6.942-.002-2.484.408-5.036.929-7.044l-.645-.168-.646-.167c-.546 2.108-.972 4.749-.972 7.379.004 2.79.471 5.58 1.888 7.689a.669.669 0 001.079.036c2.62-3.383 3.543-8.264 3.549-12.591 0-.824-.034-1.626-.098-2.397-.05-.575-.158-1.219-.427-1.815-.261-.586-.739-1.17-1.491-1.384a2.095 2.095 0 00-.582-.084 2.15 2.15 0 00-1.155.348c-.495.318-.863.775-1.155 1.268a6.245 6.245 0 00-.636 1.551l.646.167" fill="#242C33"/><path d="M354.574 223.543l.346.571c.582-.359 1.384-.643 1.957-.636.229 0 .415.04.55.105a.713.713 0 01.322.305.805.805 0 01.106.411c.017.445-.37 1.157-.838 1.711-2.92 3.564-7.609 7.253-12.084 7.849l.091.661.656.118c.357-2.018 1.725-4.112 3.494-5.96 1.766-1.851 3.915-3.456 5.746-4.564l-.346-.571-.345-.569c-1.921 1.162-4.147 2.822-6.019 4.782-1.868 1.962-3.399 4.22-3.842 6.646a.664.664 0 00.746.778c5.042-.71 9.853-4.598 12.933-8.324.534-.666 1.122-1.521 1.141-2.557a2.143 2.143 0 00-.28-1.072 2.055 2.055 0 00-.906-.845 2.594 2.594 0 00-1.125-.238c-.951.008-1.894.379-2.648.83l.345.569" fill="#242C33"/><path d="M328.136 235.855l-86.347-65.37 12.59-13.307c6.005-6.348 16.018-6.627 22.368-.621l63.881 65.466-12.492 13.832" fill="#4555AE"/><path d="M328.496 230.016l-72.692-57.69a.503.503 0 00-.703.082.498.498 0 00.082.702l72.692 57.69a.5.5 0 00.621-.784" fill="#fff"/></svg>