<svg viewBox="0 0 405 320" fill="none" xmlns="http://www.w3.org/2000/svg">
                            <path d="M76.7961 162.285C84.5734 83.7641 152.861 26.5841 229.32 34.5721C305.779 42.5588 361.456 112.688 353.679 191.211C345.901 269.732 277.613 326.912 201.156 318.925C124.696 310.936 69.0188 240.808 76.7961 162.285Z" fill="#FAE7C2"></path>
                            <path d="M0.513428 87.5911C0.513428 40.8751 37.3895 3.00439 82.8788 3.00439C128.368 3.00439 165.243 40.8751 165.243 87.5911C165.243 134.307 128.368 172.178 82.8788 172.178C37.3895 172.178 0.513428 134.307 0.513428 87.5911Z" fill="#F9E5C1"></path>
                            <path d="M357.452 236.152C354.507 222.896 362.585 209.698 375.495 206.674C388.403 203.65 401.255 211.944 404.199 225.203C407.144 238.459 399.065 251.658 386.157 254.682C373.248 257.706 360.396 249.411 357.452 236.152" fill="#F9E5C1"></path>
                            <path d="M360.421 147.539L348.187 150.843L345.767 141.873L358 138.572L360.421 147.539Z" fill="#EA4E77"></path>
                            <path d="M367.832 133.648L372.031 147.702L358.812 151.648L354.613 137.595L367.832 133.648Z" fill="#F1B733"></path>
                            <path d="M369.98 101.234L382.889 144.458L364.791 149.864L360.593 135.811L365.981 116.575C366.264 113.355 362.964 103.33 366.061 102.403L369.98 101.234" fill="#292533"></path>
                            <path d="M374.025 100.026L386.936 143.25L382.889 144.458L369.98 101.234L374.025 100.026Z" fill="#F1B733"></path>
                            <path d="M349.151 125.957L349.541 125.417C349.164 125.145 348.773 124.771 348.499 124.388C348.22 124.004 348.073 123.619 348.079 123.355C348.081 123.183 348.119 123.055 348.235 122.899C348.335 122.771 348.447 122.691 348.607 122.628C348.765 122.568 348.972 122.533 349.211 122.533C349.599 122.533 350.057 122.624 350.473 122.748C354.891 124.056 360.113 126.943 362.401 130.835L362.975 130.495L362.828 129.844C362.285 129.967 361.711 130.024 361.112 130.024C357.285 130.041 352.529 127.6 349.541 125.417L349.151 125.957L348.759 126.497C351.908 128.769 356.755 131.34 361.112 131.357C361.796 131.357 362.469 131.292 363.12 131.145C363.329 131.099 363.501 130.956 363.587 130.759C363.672 130.563 363.657 130.339 363.548 130.155C360.935 125.785 355.483 122.864 350.855 121.471C350.357 121.324 349.792 121.201 349.211 121.2C348.853 121.201 348.487 121.248 348.131 121.383C347.776 121.517 347.433 121.749 347.177 122.087C346.883 122.467 346.743 122.924 346.745 123.355C346.751 124.037 347.043 124.641 347.417 125.167C347.796 125.692 348.275 126.145 348.759 126.497L349.151 125.957" fill="#242C33"></path>
                            <path d="M356.9 117.298L357.557 117.185C357.512 116.922 357.485 116.631 357.485 116.343C357.483 115.827 357.576 115.319 357.743 114.99C357.921 114.655 358.08 114.521 358.38 114.469L358.496 114.459C358.739 114.458 359.005 114.582 359.3 114.858C359.591 115.129 359.869 115.53 360.088 115.925C361.857 119.093 363.318 123.315 363.314 127.109C363.314 128.126 363.21 129.111 362.986 130.039L363.635 130.197L363.984 129.629C362.234 128.558 360.784 126.522 359.709 124.199C358.631 121.882 357.92 119.294 357.557 117.185L356.9 117.298L356.243 117.411C356.625 119.626 357.359 122.303 358.5 124.762C359.644 127.215 361.188 129.466 363.285 130.763C363.468 130.877 363.69 130.894 363.889 130.813C364.086 130.731 364.232 130.561 364.283 130.353C364.535 129.306 364.648 128.217 364.648 127.109C364.642 122.981 363.107 118.609 361.252 115.274C360.989 114.806 360.654 114.303 360.214 113.887C359.78 113.477 359.201 113.129 358.496 113.126L358.188 113.149C357.403 113.255 356.829 113.799 356.547 114.399C356.252 115.003 356.155 115.685 356.152 116.343C356.152 116.711 356.185 117.073 356.244 117.411L356.9 117.298" fill="#242C33"></path>
                            <path d="M188.055 231.05L181.16 218.94L229.812 161.37C234.12 156.272 240.143 152.924 246.747 151.952L350.217 136.74L355.347 154.3L257.111 183.003C239.855 206.32 228.377 221.591 220.632 231.67C212.331 242.476 195.944 242.162 188.055 231.05" fill="#293E89"></path>
                            <path d="M348.739 142.154L250.229 155.242C245.264 155.901 240.732 158.412 237.54 162.273L189.204 220.705C189.028 220.917 189.057 221.233 189.271 221.409C189.483 221.585 189.799 221.554 189.975 221.342L238.311 162.91C241.343 159.244 245.645 156.86 250.36 156.234L348.869 143.145C349.144 143.109 349.336 142.857 349.3 142.584C349.263 142.31 349.012 142.117 348.739 142.154" fill="white"></path>
                            <path d="M181.979 234.994L177.036 229.703L255.068 156.795C260.849 151.393 269.915 151.702 275.317 157.482L288.844 171.961L219.999 236.285C209.144 246.426 192.122 245.849 181.979 234.994Z" fill="#4555AE"></path>
                            <path d="M255.145 172.358L192.204 232.982C192.005 233.174 192 233.49 192.191 233.689C192.383 233.887 192.7 233.894 192.899 233.702L255.84 173.078C256.039 172.887 256.044 172.57 255.853 172.371C255.661 172.173 255.345 172.166 255.145 172.358Z" fill="white"></path>
                            <path d="M226.749 107.644C226.703 102.198 231.079 97.7462 236.524 97.6995C241.969 97.6529 246.423 102.029 246.468 107.476C246.515 112.921 242.139 117.372 236.693 117.42C231.248 117.466 226.796 113.089 226.749 107.644Z" fill="#EA4E77"></path>
                            <path d="M232.771 127.078L223.499 122.078L229.621 110.725L238.892 115.723L232.771 127.078" fill="#EA4E77"></path>
                            <path d="M237.991 99.2403L241.832 92.5616C242.46 91.4696 242.084 90.075 240.992 89.447C239.899 88.8176 238.504 89.195 237.877 90.287L234.036 96.9656C233.407 98.0589 233.783 99.4536 234.876 100.082C235.968 100.708 237.363 100.332 237.991 99.2403Z" fill="#EA4E77"></path>
                            <path d="M241.512 102.812L245.353 96.1323C245.983 95.0403 245.607 93.6456 244.513 93.0163C243.421 92.3896 242.027 92.7656 241.399 93.8576L237.557 100.536C236.929 101.628 237.305 103.023 238.397 103.652C239.491 104.28 240.885 103.903 241.512 102.812Z" fill="#EA4E77"></path>
                            <path d="M243.491 107.165L247.332 100.485C247.959 99.3939 247.584 97.9979 246.492 97.3699C245.399 96.7419 244.004 97.1192 243.377 98.2099L239.536 104.89C238.907 105.982 239.283 107.377 240.376 108.005C241.468 108.633 242.863 108.257 243.491 107.165Z" fill="#EA4E77"></path>
                            <path d="M245.553 111.544L249.393 104.864C250.021 103.772 249.645 102.378 248.553 101.75C247.461 101.122 246.067 101.498 245.439 102.59L241.597 109.27C240.969 110.362 241.345 111.756 242.439 112.384C243.529 113.012 244.924 112.636 245.553 111.544Z" fill="#EA4E77"></path>
                            <path d="M224.543 107.247C224.523 105.068 226.273 103.288 228.451 103.269C230.629 103.251 232.409 105.001 232.429 107.179C232.447 109.357 230.697 111.137 228.519 111.156C226.34 111.175 224.56 109.425 224.543 107.247" fill="#EA4E77"></path>
                            <path d="M235.769 112.562L244.658 107.83C246.226 106.995 246.823 105.046 245.988 103.477L236.463 85.5821C235.628 84.0114 233.677 83.4168 232.109 84.2528L223.22 88.9834C221.65 89.8181 221.054 91.7687 221.889 93.3381L231.414 111.233C232.249 112.802 234.199 113.398 235.769 112.562" fill="#292533"></path>
                            <path d="M237.517 95.5008L241.041 93.4128C242.124 92.7702 242.483 91.3702 241.84 90.2875C241.197 89.2035 239.799 88.8448 238.715 89.4875L235.191 91.5768C234.108 92.2195 233.749 93.6182 234.392 94.7022C235.035 95.7862 236.435 96.1435 237.517 95.5008Z" fill="#EA4E77"></path>
                            <path d="M239.445 99.995L244.647 96.9123C245.729 96.2696 246.088 94.8696 245.445 93.787C244.803 92.703 243.403 92.3443 242.32 92.987L237.119 96.0696C236.036 96.7123 235.677 98.1123 236.321 99.1963C236.963 100.28 238.363 100.638 239.445 99.995" fill="#EA4E77"></path>
                            <path d="M242.627 103.604L246.599 101.251C247.683 100.608 248.041 99.2084 247.397 98.1244C246.756 97.0404 245.356 96.683 244.273 97.3257L240.3 99.6803C239.217 100.322 238.859 101.722 239.501 102.806C240.144 103.89 241.544 104.247 242.627 103.604" fill="#EA4E77"></path>
                            <path d="M246.211 106.918L248.624 105.486C249.708 104.844 250.065 103.445 249.424 102.361C248.78 101.278 247.383 100.92 246.297 101.562L243.885 102.993C242.8 103.636 242.443 105.035 243.085 106.118C243.727 107.202 245.127 107.561 246.211 106.918" fill="#EA4E77"></path>
                            <path d="M229.023 107.246L228.963 99.5408C228.952 98.2822 227.924 97.2675 226.664 97.2782C225.404 97.2875 224.389 98.3168 224.4 99.5768L224.46 107.282C224.469 108.541 225.499 109.556 226.759 109.545C228.019 109.536 229.032 108.506 229.023 107.246Z" fill="#EA4E77"></path>
                            <path d="M210.211 175.434L156.137 157.618L160.304 144.974C161.769 140.526 166.563 138.109 171.009 139.574L205.491 150.934L223.031 115.641L238.12 122.653L222.212 169.453C220.529 174.401 215.175 177.07 210.211 175.434" fill="#D69A2B"></path>
                            <path d="M236.548 132.417L216.932 123.581L221.497 113.446L241.112 122.284L236.548 132.417Z" fill="#F1B733"></path>
                            <path d="M170.947 105.495C172.785 114.257 171.683 124.089 165.929 130.943C159.069 139.118 147.517 141.299 138.577 147.122C127.873 154.094 121.259 166.078 110.692 173.258C97.1947 182.431 77.1507 181.579 65.7054 169.943C54.26 158.309 54.5081 136.689 67.3094 126.563C73.0387 122.033 80.8694 119.541 84.2467 113.065C89.0374 103.877 82.7587 90.3059 90.5134 83.4326C96.9054 77.7686 106.693 81.9953 114.839 84.5633C128.164 88.7633 139.021 85.8793 151.956 82.6953C164.472 79.614 168.671 94.6446 170.947 105.495" fill="#0F1322"></path>
                            <path d="M143.787 145.174L156.799 143.308L153.609 121.063L140.599 122.927L143.787 145.174Z" fill="#EA4E77"></path>
                            <path d="M162.327 90.8509L136.529 94.5496L140.845 124.656L153.932 122.78C160.951 121.775 165.827 115.268 164.82 108.248L162.327 90.8509Z" fill="#EA4E77"></path>
                            <path d="M140.845 124.656L141.684 130.504C142.844 130.744 144.056 130.787 145.285 130.611C148.944 130.087 151.9 127.746 153.351 124.634C153.568 124.156 153.765 123.664 153.909 123.159L153.857 122.792L140.845 124.656" fill="#B6385F"></path>
                            <path d="M128.571 95.9674L130.789 111.443C132.487 111.415 134.207 111.283 135.949 111.034C149.345 109.113 159.789 101.086 162.492 91.6554C163.651 87.6087 161.021 83.3394 156.835 82.8914C156.552 82.8607 156.313 82.854 156.137 82.8794L137.388 85.5674C131.809 86.3674 127.863 91.0234 128.571 95.9674" fill="#0F1322"></path>
                            <path d="M149.375 106.572C149.052 104.325 146.968 102.764 144.72 103.086C142.472 103.408 140.911 105.492 141.233 107.74C141.555 109.988 143.64 111.549 145.887 111.226C148.136 110.904 149.696 108.82 149.375 106.572" fill="#EA4E77"></path>
                            <path d="M164.675 105.878L165.655 105.738C166.607 105.6 167.267 104.719 167.129 103.768C166.995 102.816 166.112 102.156 165.161 102.292L164.18 102.434C163.229 102.57 162.568 103.451 162.705 104.402C162.841 105.354 163.723 106.014 164.675 105.878" fill="#EA4E77"></path>
                            <path d="M212.053 195.207L182.533 229.127C180.787 231.127 177.56 230.714 176.387 228.34L166.493 216.087C156.733 203.994 149.16 190.3 144.133 175.647C143.093 172.7 142.187 169.7 141.373 166.674L136.92 150.007C135.373 146.194 137.68 141.927 141.707 141.114L153.48 138.754L153.96 138.66L163.573 136.74C163.573 136.74 188.36 144.634 186.853 160.367L192.533 175.914L212.053 195.207" fill="#F1B733"></path>
                            <path d="M154.72 165.407C152.64 169.941 148.707 173.981 144.133 175.647C143.093 172.701 142.187 169.701 141.373 166.674L136.92 150.007C135.373 146.194 137.68 141.927 141.707 141.114L153.48 138.754C157.6 147.154 158.587 157.007 154.72 165.407" fill="#D69A2B"></path>
                            <path d="M134.883 40.7285L124.319 39.2018L126.258 25.7818L136.82 27.3085L134.883 40.7285" fill="#EA4E77"></path>
                            <path d="M144.379 12.3045C143.13 12.0512 141.892 12.8126 141.404 13.9886L140.105 17.1232C139.577 16.9046 139.035 16.7886 138.495 16.7552L140.576 5.03387C140.758 4.01254 140.236 2.94589 139.264 2.58589C137.987 2.11389 136.659 2.91656 136.432 4.1939L135.156 11.3806L136.276 2.87388C136.438 1.65788 135.333 0.631203 134.385 0.564536C132.305 0.572536 132.128 1.99789 131.968 3.21522L130.335 15.6045L130.115 15.6286L126.507 5.78589C126.148 4.80856 125.159 4.14456 124.132 4.32323C122.784 4.55923 122.04 5.92722 122.487 7.14855L123.577 10.1232C122.864 9.48856 121.759 9.35123 120.859 10.0299C120.111 10.5926 119.884 11.6192 120.205 12.4966L124.203 23.3992L124.272 23.5419C124.149 25.4859 124.585 27.5379 126.117 29.5192C127.965 31.9086 130.899 33.3046 133.912 33.0872C138.66 32.7472 141.171 28.8326 142.759 24.8259C143.756 22.3086 146.313 15.9005 146.313 15.9005C146.937 14.3979 146.063 12.6472 144.379 12.3045" fill="#EA4E77"></path>
                            <path d="M122.955 10.3609L125.764 17.7408C125.895 18.0848 126.28 18.2569 126.624 18.1262C126.968 17.9955 127.141 17.6102 127.011 17.2662L124.2 9.88619C124.069 9.54219 123.684 9.36884 123.34 9.50084C122.996 9.63151 122.824 10.0169 122.955 10.3609" fill="#B6385F"></path>
                            <path d="M135.096 7.12855L133.975 14.8926C133.923 15.2566 134.175 15.5952 134.54 15.6472C134.904 15.7005 135.241 15.4472 135.295 15.0832L136.416 7.31921C136.468 6.95388 136.216 6.61656 135.851 6.56322C135.487 6.51122 135.148 6.76322 135.096 7.12855" fill="#B6385F"></path>
                            <path d="M133.622 20.7409C134.087 18.7343 135.878 17.3796 137.85 17.3796C138.176 17.3796 138.508 17.417 138.842 17.4943C139.2 17.5783 139.559 17.3543 139.643 16.997C139.726 16.6383 139.503 16.2796 139.144 16.1956C138.712 16.0943 138.278 16.0463 137.85 16.0463C135.267 16.0463 132.935 17.8169 132.323 20.4383C132.239 20.7969 132.463 21.1556 132.822 21.2396C133.18 21.3223 133.538 21.0996 133.622 20.7409" fill="#B6385F"></path>
                            <path d="M153.909 152.744C149.151 156.425 142.307 155.549 138.625 150.79L110.591 114.54C108.719 112.118 107.912 109.037 108.363 106.008L122.324 33.1103L137.092 36.6183L130.576 104.762L155.863 137.458C159.545 142.218 158.669 149.061 153.909 152.744" fill="#F1B733"></path>
                            <path d="M139.189 46.0928L118.668 43.1288L120.38 31.2834L140.9 34.2461L139.189 46.0928" fill="#FBBF47"></path>
                            <path d="M64.4242 43.6963L56.7495 6.47761L99.8122 0.56426L106.314 32.091L64.4242 43.6963Z" fill="#4555AE"></path>
                            <path d="M100.799 27.4997L101.373 27.345C109.971 25.0104 117.523 21.8824 122.964 18.625C125.685 16.993 127.88 15.3317 129.423 13.6917C130.956 12.0517 131.881 10.4184 131.891 8.77702C131.891 8.42635 131.847 8.07968 131.755 7.74235C131.513 6.84768 130.953 6.07703 130.183 5.4557C127.857 3.60903 123.639 2.8077 118.167 2.79303C111.903 2.79437 104.004 3.91436 95.6319 6.18503L95.0572 6.34102C94.7026 6.43835 94.4919 6.80503 94.5892 7.1597C94.6852 7.5157 95.0519 7.72504 95.4079 7.6277L95.9812 7.47168C104.253 5.22635 112.059 4.12637 118.167 4.12637C121.72 4.12503 124.699 4.50236 126.828 5.21436C127.893 5.56769 128.741 6.00503 129.344 6.49303C129.951 6.98503 130.309 7.51037 130.468 8.0917C130.528 8.31303 130.557 8.53969 130.557 8.77702C130.567 9.87302 129.876 11.269 128.451 12.7784C126.325 15.045 122.648 17.5197 117.917 19.8357C113.185 22.1557 107.396 24.329 101.024 26.0584L100.449 26.213C100.095 26.309 99.8838 26.6757 99.9812 27.0317C100.077 27.3863 100.443 27.597 100.799 27.4997" fill="#2C2F3D"></path>
                            <path d="M90.3253 6.41361L90.9907 6.45361C91.0467 5.49895 91.8427 4.76296 92.784 4.76296L92.896 4.76693C93.8507 4.82426 94.5867 5.61895 94.5854 6.56029L94.5827 6.67494V6.6736C94.5267 7.62693 93.7307 8.36429 92.7893 8.36296L92.676 8.36029C91.7227 8.30295 90.9867 7.50826 90.9867 6.56693L90.9907 6.45495V6.45361L90.3253 6.41361L89.66 6.37093L89.6533 6.56693C89.6533 8.21093 90.9334 9.58828 92.596 9.69095L92.7893 9.69629C94.4333 9.69629 95.812 8.41628 95.9133 6.75361L95.9187 6.56029C95.9187 4.91629 94.64 3.5376 92.9773 3.43626L92.784 3.42962C91.1387 3.43096 89.7614 4.7096 89.66 6.3736V6.37093L90.3253 6.41361" fill="#2C2F3D"></path>
                            <path d="M95.7001 26.5549L96.3654 26.5962C96.4228 25.6416 97.2174 24.9055 98.1614 24.9055L98.2721 24.9082C99.2268 24.9655 99.9628 25.7615 99.9628 26.7029L99.9587 26.8162V26.8149C99.9014 27.7709 99.1068 28.5055 98.1654 28.5055L98.0534 28.5029C97.0974 28.4455 96.3614 27.6509 96.3614 26.7082L96.3654 26.5975V26.5962L95.7001 26.5549L95.0348 26.5122L95.0281 26.7082C95.0294 28.3535 96.3094 29.7309 97.9721 29.8335L98.1654 29.8389C99.8108 29.8389 101.187 28.5589 101.289 26.8962V26.8949L101.296 26.7029C101.295 25.0575 100.016 23.6802 98.3534 23.5775L98.1614 23.5722C96.5147 23.5722 95.1374 24.8522 95.0348 26.5149V26.5122L95.7001 26.5549" fill="#2C2F3D"></path>
                            <path d="M69.1588 83.9805L40.5015 43.8311L88.5148 14.1952L112.789 48.2045L69.1588 83.9805" fill="#54C2AB"></path>
                            <path d="M103.707 45.4966L104.307 45.0099C112.336 38.4966 119.037 31.6659 123.749 25.4952C126.105 22.4099 127.964 19.4886 129.244 16.8419C130.52 14.1939 131.227 11.8219 131.231 9.78857C131.232 8.35391 130.863 7.06591 130.048 6.06325C129.444 5.31658 128.629 4.77391 127.675 4.42858C126.72 4.08325 125.624 3.92458 124.405 3.92458C120.192 3.93258 114.452 5.79925 107.885 9.12858C101.325 12.4592 93.9614 17.2699 86.6308 23.2166L86.0295 23.7032C85.7441 23.9352 85.7001 24.3552 85.9321 24.6406C86.1641 24.9272 86.5841 24.9699 86.8695 24.7379L87.4708 24.2512C94.7348 18.3579 102.031 13.5966 108.489 10.3166C114.943 7.0339 120.581 5.24991 124.405 5.25791C125.508 5.25658 126.453 5.40323 127.22 5.6819C127.988 5.96323 128.576 6.36589 129.013 6.90322C129.596 7.62322 129.895 8.56991 129.897 9.78857C129.9 11.5059 129.271 13.7259 128.043 16.2619C124.367 23.8872 115.401 34.3006 103.467 43.9739L102.867 44.4606C102.581 44.6926 102.537 45.1125 102.769 45.3992C103.001 45.6845 103.421 45.7286 103.707 45.4966" fill="#2C2F3D"></path>
                            <path d="M80.3241 26.1203L80.948 25.8883C80.84 25.595 80.7894 25.299 80.7894 25.0057C80.7894 23.9777 81.4201 23.0084 82.4428 22.6297C82.7361 22.5204 83.0334 22.4697 83.3254 22.4697C84.3547 22.471 85.3241 23.1017 85.7027 24.123C85.8107 24.4163 85.8614 24.7123 85.8628 25.0057C85.8614 26.0337 85.2308 27.0043 84.2068 27.383C83.9148 27.491 83.6187 27.5417 83.3254 27.5417C82.2974 27.5417 81.3267 26.911 80.948 25.8883L80.3241 26.1203L79.6988 26.3523C80.2788 27.911 81.7547 28.8763 83.3254 28.875C83.7734 28.875 84.2294 28.7963 84.6721 28.6323C86.2307 28.0523 87.1961 26.5763 87.1947 25.0057C87.1961 24.5577 87.1174 24.1017 86.9521 23.659C86.3721 22.1003 84.8974 21.1363 83.3254 21.1363C82.8774 21.1363 82.4214 21.215 81.9788 21.379C80.4201 21.959 79.4547 23.435 79.4561 25.0057C79.4561 25.4537 79.5348 25.9097 79.6988 26.3523L80.3241 26.1203Z" fill="#2C2F3D"></path>
                            <path d="M97.2826 47.2072L97.9079 46.9752C97.7999 46.6832 97.7479 46.3859 97.7479 46.0939C97.7492 45.0646 98.3799 44.0952 99.4026 43.7166C99.6959 43.6072 99.9919 43.5566 100.285 43.5566C101.313 43.5579 102.283 44.1886 102.663 45.2112C102.771 45.5032 102.821 45.8006 102.821 46.0926C102.821 47.1219 102.191 48.0912 101.168 48.4699C100.876 48.5779 100.579 48.6286 100.285 48.6286C99.2559 48.6286 98.2866 47.9979 97.9079 46.9752L97.2826 47.2072L96.6586 47.4406C97.2386 48.9979 98.7133 49.9632 100.285 49.9619C100.733 49.9619 101.189 49.8846 101.632 49.7192C103.191 49.1406 104.156 47.6646 104.155 46.0926C104.155 45.6446 104.076 45.1886 103.912 44.7459C103.332 43.1886 101.856 42.2232 100.285 42.2232C99.8373 42.2232 99.3812 42.3019 98.9386 42.4659C97.3799 43.0459 96.4146 44.5219 96.4146 46.0939C96.4146 46.5419 96.4932 46.9979 96.6586 47.4406L97.2826 47.2072Z" fill="#2C2F3D"></path>
                            <path d="M292.499 258.432H255.493V220.493H292.499V258.432Z" fill="#75D0C4"></path>
                            <path d="M287.64 258.432H255.493V220.493H287.64V258.432Z" fill="#54C2AB"></path>
                            <path d="M287.64 246.542H255.493V233.342H287.64V246.542Z" fill="#75D0C4"></path>
                            <path d="M267.58 236.621L258.2 257.75L223.411 242.305L232.792 221.174L267.58 236.621" fill="#EA4E77"></path>
                            <path d="M266.348 239.395L258.2 257.75L223.411 242.305L231.559 223.949L266.348 239.395Z" fill="#F35B8F"></path>
                            <path d="M255.447 234.554L247.297 252.91L235.193 247.535L243.343 229.181L255.447 234.554Z" fill="#EA4E77"></path>
                            <path d="M167.899 232.536C171.175 232.592 173.993 229.294 177.213 229.899C180.625 230.539 181.801 234.942 184.716 236.83C189.5 239.928 197.053 235.287 201.152 239.251C202.937 240.98 203.443 243.952 205.663 245.074C207.953 246.23 210.909 244.767 213.224 245.874C216.065 247.231 215.888 251.719 213.62 253.902C211.352 256.084 207.976 256.548 204.839 256.808C191.692 257.895 158.16 261.191 149.763 247.718C146.836 243.026 146.744 230.171 151.225 226.419C158.861 220.028 160.904 232.416 167.899 232.536" fill="#75D0C4"></path>
                            <path d="M331.404 312.428H121.705C121.337 312.428 121.039 312.727 121.039 313.095C121.039 313.464 121.337 313.762 121.705 313.762H331.404C331.772 313.762 332.071 313.464 332.071 313.095C332.071 312.727 331.772 312.428 331.404 312.428" fill="#242C33"></path>
                            <path d="M165.147 299.01C165.147 291.442 171.281 285.308 178.849 285.308C186.416 285.308 192.552 291.442 192.552 299.01C192.552 306.578 186.416 312.711 178.849 312.711C171.281 312.711 165.147 306.578 165.147 299.01Z" fill="#242C33"></path>
                            <path d="M170.573 299.01C170.573 294.439 174.279 290.735 178.849 290.735C183.42 290.735 187.124 294.439 187.124 299.01C187.124 303.58 183.42 307.284 178.849 307.284C174.279 307.284 170.573 303.58 170.573 299.01Z" fill="white"></path>
                            <path d="M254.443 299.01C254.443 291.442 260.576 285.308 268.144 285.308C275.712 285.308 281.845 291.442 281.845 299.01C281.845 306.578 275.712 312.711 268.144 312.711C260.576 312.711 254.443 306.578 254.443 299.01Z" fill="#242C33"></path>
                            <path d="M259.869 299.01C259.869 294.439 263.573 290.735 268.144 290.735C272.715 290.735 276.419 294.439 276.419 299.01C276.419 303.58 272.715 307.284 268.144 307.284C263.573 307.284 259.869 303.58 259.869 299.01Z" fill="white"></path>
                            <path d="M292.499 258.431V257.764H162.279C155.519 257.766 149.92 252.51 149.492 245.76L149.491 245.744L143.091 173.384H312.328L305.283 245.823L305.281 245.84C304.813 252.556 299.229 257.766 292.499 257.764V258.431V259.098C299.931 259.098 306.095 253.348 306.611 245.934L305.945 245.887L306.609 245.952L313.727 172.783C313.745 172.595 313.683 172.41 313.557 172.27C313.431 172.131 313.251 172.051 313.063 172.051H142.363C142.175 172.051 141.997 172.13 141.871 172.268C141.744 172.407 141.681 172.59 141.699 172.776L148.163 245.862L148.827 245.803L148.161 245.844C148.633 253.296 154.813 259.098 162.279 259.098H292.499V258.431" fill="#242C33"></path>
                            <path d="M160.985 172.723L161.712 258.438C161.715 258.806 162.016 259.102 162.384 259.098C162.752 259.095 163.048 258.794 163.045 258.426L162.319 172.712C162.315 172.344 162.015 172.048 161.647 172.051C161.277 172.055 160.981 172.355 160.985 172.723Z" fill="#242C33"></path>
                            <path d="M186.183 172.718V258.431C186.183 258.8 186.481 259.098 186.849 259.098C187.217 259.098 187.516 258.8 187.516 258.431V172.718C187.516 172.35 187.217 172.051 186.849 172.051C186.481 172.051 186.183 172.35 186.183 172.718Z" fill="#242C33"></path>
                            <path d="M211.38 172.718V258.431C211.38 258.8 211.679 259.098 212.047 259.098C212.415 259.098 212.713 258.8 212.713 258.431V172.718C212.713 172.35 212.415 172.051 212.047 172.051C211.679 172.051 211.38 172.35 211.38 172.718Z" fill="#242C33"></path>
                            <path d="M236.577 172.718V258.431C236.577 258.8 236.876 259.098 237.244 259.098C237.612 259.098 237.911 258.8 237.911 258.431V172.718C237.911 172.35 237.612 172.051 237.244 172.051C236.876 172.051 236.577 172.35 236.577 172.718Z" fill="#242C33"></path>
                            <path d="M261.776 172.718V258.431C261.776 258.8 262.073 259.098 262.443 259.098C262.811 259.098 263.109 258.8 263.109 258.431V172.718C263.109 172.35 262.811 172.051 262.443 172.051C262.073 172.051 261.776 172.35 261.776 172.718Z" fill="#242C33"></path>
                            <path d="M286.973 172.718V258.431C286.973 258.8 287.272 259.098 287.64 259.098C288.008 259.098 288.307 258.8 288.307 258.431V172.718C288.307 172.35 288.008 172.051 287.64 172.051C287.272 172.051 286.973 172.35 286.973 172.718Z" fill="#242C33"></path>
                            <path d="M143.611 185.9H311.683C312.051 185.9 312.349 185.602 312.349 185.234C312.349 184.866 312.051 184.567 311.683 184.567H287.64H262.441H237.243H212.045H186.845H161.777H143.611C143.243 184.567 142.944 184.866 142.944 185.234C142.944 185.602 143.243 185.9 143.611 185.9" fill="#242C33"></path>
                            <path d="M309.953 202.197H145.188C144.82 202.197 144.521 202.496 144.521 202.864C144.521 203.232 144.82 203.53 145.188 203.53H161.939H186.846H212.046H237.243H262.441H287.64H309.953C310.321 203.53 310.62 203.232 310.62 202.864C310.62 202.496 310.321 202.197 309.953 202.197Z" fill="#242C33"></path>
                            <path d="M308.219 219.826H146.764C146.396 219.826 146.097 220.125 146.097 220.493C146.097 220.861 146.396 221.159 146.764 221.159H162.099H186.845H212.045H237.243H262.441H287.64H308.219C308.587 221.159 308.884 220.861 308.884 220.493C308.884 220.125 308.587 219.826 308.219 219.826Z" fill="#242C33"></path>
                            <path d="M306.489 237.455H148.34C147.972 237.455 147.673 237.753 147.673 238.121C147.673 238.489 147.972 238.788 148.34 238.788H162.251H186.845H212.045H237.243H262.441H287.64H306.489C306.857 238.788 307.156 238.489 307.156 238.121C307.156 237.753 306.857 237.455 306.489 237.455" fill="#242C33"></path>
                            <path d="M119.224 161.028L140.24 157.638L149.587 271.545L150.251 271.49L149.585 271.53C150.072 279.645 156.792 285.974 164.921 285.976H289.819C290.187 285.976 290.485 285.677 290.485 285.309C290.485 284.94 290.187 284.642 289.819 284.642H164.921C157.499 284.642 151.36 278.861 150.916 271.45L150.915 271.436L141.511 156.812C141.495 156.626 141.403 156.456 141.257 156.341C141.111 156.226 140.923 156.178 140.74 156.208L119.012 159.712C118.648 159.77 118.401 160.113 118.46 160.476C118.519 160.84 118.86 161.086 119.224 161.028" fill="#242C33"></path>
                            <path d="M332.652 236.732L325.341 226.38L332.931 221.023L340.24 231.374L332.652 236.732" fill="#EA4E77"></path>
                            <path d="M348.245 238.914L336.493 247.688L328.239 236.635L339.992 227.859L348.245 238.914" fill="#F1B733"></path>
                            <path d="M379.42 229.779L343.275 256.769L331.972 241.634L343.724 232.859L363.639 231.302C366.761 230.461 375.04 223.913 376.973 226.503L379.42 229.779Z" fill="#292533"></path>
                            <path d="M381.945 233.162L345.8 260.151L343.275 256.769L379.42 229.779L381.945 233.162Z" fill="#F1B733"></path>
                            <path d="M343.683 219.489L344.328 219.657C344.465 219.122 344.731 218.521 345.052 218.102C345.212 217.893 345.383 217.73 345.541 217.63C345.701 217.53 345.839 217.489 345.983 217.489L346.197 217.521C346.467 217.599 346.663 217.793 346.843 218.175C347.015 218.55 347.115 219.067 347.153 219.549C347.216 220.282 347.248 221.049 347.248 221.835C347.255 225.973 346.317 230.621 343.98 233.607L344.505 234.017L345.059 233.643C343.869 231.897 343.395 229.343 343.399 226.701C343.397 224.217 343.807 221.665 344.328 219.657L343.683 219.489L343.037 219.322C342.491 221.43 342.065 224.071 342.065 226.701C342.069 229.491 342.536 232.281 343.953 234.39C344.073 234.567 344.269 234.675 344.484 234.683C344.697 234.69 344.9 234.595 345.032 234.426C347.652 231.043 348.575 226.162 348.581 221.835C348.581 221.011 348.547 220.209 348.483 219.438C348.433 218.863 348.325 218.219 348.056 217.623C347.795 217.037 347.317 216.453 346.565 216.239C346.372 216.183 346.175 216.155 345.983 216.155C345.553 216.154 345.157 216.294 344.828 216.503C344.333 216.821 343.965 217.278 343.673 217.771C343.383 218.267 343.172 218.807 343.037 219.322L343.683 219.489" fill="#242C33"></path>
                            <path d="M354.574 223.543L354.92 224.114C355.502 223.755 356.304 223.471 356.877 223.478C357.106 223.478 357.292 223.518 357.427 223.583C357.563 223.651 357.659 223.734 357.749 223.888C357.823 224.019 357.853 224.143 357.855 224.299C357.872 224.744 357.485 225.456 357.017 226.01C354.097 229.574 349.408 233.263 344.933 233.859L345.024 234.52L345.68 234.638C346.037 232.62 347.405 230.526 349.174 228.678C350.94 226.827 353.089 225.222 354.92 224.114L354.574 223.543L354.229 222.974C352.308 224.136 350.082 225.796 348.21 227.756C346.342 229.718 344.811 231.976 344.368 234.402C344.329 234.612 344.395 234.827 344.543 234.982C344.691 235.136 344.902 235.21 345.114 235.18C350.156 234.47 354.967 230.582 358.047 226.856C358.581 226.19 359.169 225.335 359.188 224.299C359.189 223.944 359.104 223.568 358.908 223.227C358.69 222.843 358.364 222.552 358.002 222.382C357.641 222.208 357.256 222.146 356.877 222.144C355.926 222.152 354.983 222.523 354.229 222.974L354.574 223.543" fill="#242C33"></path>
                            <path d="M328.136 235.855L241.789 170.485L254.379 157.178C260.384 150.83 270.397 150.551 276.747 156.557L340.628 222.023L328.136 235.855" fill="#4555AE"></path>
                            <path d="M328.496 230.016L255.804 172.326C255.587 172.156 255.273 172.192 255.101 172.408C254.929 172.624 254.965 172.938 255.183 173.11L327.875 230.8C328.091 230.97 328.405 230.934 328.577 230.718C328.749 230.502 328.712 230.188 328.496 230.016" fill="white"></path>
                            </svg>