<svg fill="#013D5E" height="512" width="512" xmlns="http://www.w3.org/2000/svg"><path d="M392 418.5H240c-11.046 0-20-8.954-20-20s8.954-20 20-20h152c44.112 0 80-35.888 80-80v-164c0-44.112-35.888-80-80-80H120c-44.112 0-80 35.888-80 80v154c0 5.514 4.486 10 10 10h60c11.046 0 20 8.954 20 20s-8.954 20-20 20H50c-27.57 0-50-22.43-50-50v-154c0-66.168 53.832-120 120-120h272c66.168 0 120 53.832 120 120v164c0 66.168-53.832 120-120 120zm-212-20.021c0-11.046-8.954-20-20-20H20c-11.046 0-20 8.954-20 20s8.954 20 20 20h140c11.046 0 20-8.954 20-20zm60 79.021c0-11.046-8.954-20-20-20H20c-11.046 0-20 8.954-20 20s8.954 20 20 20h200c11.046 0 20-8.954 20-20zm89.236-225.558l96.855-73.512c8.798-6.678 10.518-19.224 3.839-28.022-6.676-8.797-19.223-10.518-28.022-3.839l-96.893 73.54c-28.552 21.774-68.422 21.788-96.981.037l-93.807-72.474c-8.741-6.753-21.303-5.142-28.055 3.6-6.753 8.741-5.142 21.301 3.6 28.055l93.855 72.512.099.075c21.429 16.345 47.109 24.515 72.786 24.515 25.664 0 51.324-8.164 72.724-24.487z"/></svg>