<svg width="767" height="505" viewBox="0 0 767 505" fill="none" xmlns="http://www.w3.org/2000/svg">
<path d="M385.609 498.565C320.342 498.565 258.913 497.584 205.214 495.853L207.796 479.509H541.322C541.396 479.58 541.469 479.651 541.542 479.721H549.537H552.658H555.929H559.588H563.541H569.454H575.629C579.082 473.699 585.432 464.615 595.625 456.751C610.002 457.32 623.673 457.945 636.596 458.623L637.806 467.162L640.93 467.024L640.633 467.729C640.633 467.729 609.262 476.739 616.31 481.144C619.408 483.08 627.26 483.823 635.316 483.823C645.585 483.823 656.189 482.617 657.718 481.144C661.401 477.596 656.985 466.372 656.966 466.324L658.672 466.249C658.672 466.249 659.262 463.848 660.17 459.969C726.082 464.067 766.598 469.636 766.598 475.772C766.598 488.36 596.024 498.565 385.609 498.565V498.565ZM195.786 495.54C81.5396 491.604 4.61932 484.225 4.61932 475.772C4.61932 471.156 27.5529 466.86 66.9689 463.272C70.3983 470.768 74.3129 476.761 78.4756 481.184H96.0489H108.128H112.362H113.83H126.776H131.801H132.006H147.35C147.778 480.648 148.201 480.091 148.62 479.509H198.424L195.786 495.54" fill="#95D8E0"/>
<path d="M669.802 405.873C669.802 405.387 669.789 404.932 669.765 404.512C669.173 394.556 665.401 387.709 665.404 377.648C665.405 374.36 665.809 370.731 666.858 366.536L673.081 384.385L683.94 400.235C679.366 402.317 674.649 404.189 669.802 405.873ZM714.464 381.037C710.22 375.989 707.424 369.873 706.388 363.345C706.388 363.345 701.16 327.528 698.828 315.695C698.289 312.964 697.206 310.052 695.86 307.187C697.854 305.344 698.841 302.948 698.861 300.064C698.901 294.293 690.174 253.613 685.05 238.3C679.926 222.985 668.944 198.565 657.464 195.973C657.464 195.973 657.464 195.975 657.462 195.979C656.596 194.801 655.732 193.481 654.896 192.108C655.698 192.457 656.228 192.597 656.228 192.597C656.228 192.597 656.616 185.86 659.381 181.18C661.009 178.425 663.024 172.516 662.325 166.627C689.574 177.317 713.682 194.911 730.168 217.691C757.846 255.939 762.47 307.928 740.196 349.072C733.288 361.832 724.58 372.367 714.464 381.037V381.037ZM77.2036 380.711C61.273 366.589 44.2743 362.424 32.293 361.516C17.0303 343.123 6.38136 321.104 1.98456 296.979C-3.32437 267.847 2.32202 234.607 15.2928 207.636C29.245 178.627 49.489 170.039 77.2036 156.937V246.477C76.509 247.739 75.833 249.053 75.1743 250.424C64.649 272.309 60.0676 299.281 64.3756 322.92C64.8396 325.464 65.3876 327.976 66.0196 330.46L60.9796 329.617C60.9796 329.617 64.3343 332.508 68.6143 339.164C70.8916 345.811 73.7756 352.191 77.2036 358.249V380.711V380.711ZM625.041 230.001C610.728 220.548 594.27 213.811 577.1 210.337C576.941 210.305 576.784 210.275 576.625 210.244V173.147V148.789C576.625 139.519 569.109 132.003 559.838 132.003H506.5C503.166 125.913 499.253 120.101 494.561 114.716C476.081 93.504 446.504 81.9413 417.016 81.9413C405.85 81.9413 394.7 83.5973 384.165 87.0173C373.998 90.316 364.341 95.0627 354.622 99.5173L348.345 91.9373L326.746 109.821C323.906 110.479 321.022 110.991 318.08 111.321C315.261 111.637 312.445 111.781 309.636 111.781C299.096 111.781 288.626 109.76 278.226 107.267L277.382 103.816C277.382 103.816 276.805 103.776 275.812 103.635L275.452 99.0053C276.766 99.5133 278.172 99.844 279.669 99.9653C279.898 99.984 280.134 99.9933 280.373 99.9933C285.645 99.9933 293.046 95.4706 296.309 84.712C298.466 84.5146 299.11 83.4946 299.792 82.6186C300.208 82.084 300.082 81.308 299.492 80.9626C296.66 79.312 297.078 74.56 297.138 74.2973C298.036 70.3733 297.858 66.8987 296.902 63.9533C299.566 63.4267 301.609 62.0813 302.274 59.2787C302.274 59.2787 302.061 59.2933 301.718 59.2933C300.809 59.2933 298.98 59.1933 297.78 58.4667C297.78 58.4667 297.797 58.468 297.832 58.468C298.368 58.468 302.908 58.336 306.044 53.9546C306.044 53.9546 303.598 54.3693 300.901 54.3693C298.818 54.3693 296.585 54.1213 295.213 53.2453C295.213 53.2453 295.409 53.2533 295.741 53.2533C297.228 53.2533 301.446 53.0893 303.014 51.3C303.014 51.3 293.884 50.7613 291.438 49.248C287.634 46.8947 283.273 46.0706 279.22 46.0706C276.513 46.0706 273.942 46.4387 271.769 46.964C267.32 48.0387 264.23 49.104 261.416 53.18C260.553 54.2413 258.33 57.5107 256.788 64.512C254.836 73.3626 259.326 81.312 255.778 85.196C255.778 85.196 257.81 84.744 258.673 83.4173C258.673 83.4173 257.43 89.368 253.381 90.112C253.381 90.112 256.46 89.6426 258.594 88.188C258.157 89.2613 257.64 90.384 257.03 91.5453C256.824 91.6573 256.606 91.7493 256.376 91.816C256.376 91.816 256.58 91.8093 256.914 91.7653C256.481 92.5786 256.002 93.412 255.473 94.2613C255.333 94.1587 255.166 94.1093 254.973 94.1093C253.681 94.1093 251.234 96.3453 248.186 100.295C242.17 99.3427 236.36 98.8667 230.78 98.8667C203.953 98.8667 182.384 109.873 167.957 132.003H101.921C110.453 114.972 113.781 93.8253 120.53 78.592C137.617 40.0267 167.762 20.8587 207.06 20.8587C217.941 20.8587 229.526 22.3293 241.728 25.2639L241.877 25.2999C262.434 30.2533 283.225 36.776 304.24 36.776C307.702 36.776 311.173 36.5987 314.646 36.208C343.777 32.9347 368.405 15.2413 396.09 6.256C409.072 2.04266 422.813 -5.71883e-05 436.574 -5.71883e-05C472.914 -5.71883e-05 509.365 14.2507 532.14 40.392C549.528 60.352 558.25 85.0667 564.916 109.561C568.43 122.476 571.941 139.448 583.804 148.348C594.349 156.259 609.476 155.803 623.298 156.88C624.322 158.141 625.44 159.061 626.61 159.74C626.237 160.196 625.865 160.673 625.493 161.176C621.658 166.365 622.734 172.816 619.849 175.384C617.946 177.075 616.981 176.477 617.416 177.789C617.998 179.543 619.92 180.159 619.92 180.159C619.92 180.159 619.714 192.272 626.288 196.021C628.198 197.112 630.712 197.689 633.462 197.689C634.626 197.689 635.834 197.587 637.057 197.375C638.562 200.993 639.08 205.812 639.246 209.289C639.245 209.291 639.245 209.291 639.244 209.291C639.244 209.291 636.521 211.387 633.873 218.623L625.041 230.001" fill="#BFE0E2"/>
<path d="M597.51 399.656C612.213 368.499 620.109 323.267 596.029 323.267C591.294 323.267 585.329 325.011 577.932 328.956C577.492 329.191 577.057 329.428 576.625 329.669V257.883L615.138 266.087L627.97 258.519C627.53 264.309 627.137 270.575 626.933 276.725C625.394 284.421 626.77 290.655 626.886 291.155C627.274 302.259 628.86 311.053 632.753 312.964C632.904 313.039 633.054 313.105 633.202 313.167L625.046 377.204L626.668 388.632C615.866 389.604 606.085 393.605 597.51 399.656ZM77.2036 358.249C73.7756 352.191 70.8916 345.811 68.6143 339.164C71.313 343.361 74.3796 349.061 77.2036 356.472V358.249ZM77.2036 332.473C76.8223 332.359 76.445 332.247 76.073 332.141L66.0196 330.46C65.3876 327.976 64.8396 325.464 64.3756 322.92C60.0676 299.281 64.649 272.309 75.1743 250.424C75.833 249.053 76.509 247.739 77.2036 246.477V332.473V332.473ZM611.796 247.068L576.625 245.008V210.244C576.784 210.275 576.941 210.305 577.1 210.337C594.27 213.811 610.728 220.548 625.041 230.001L611.796 247.068V247.068ZM506.5 132.003H381.521L356.172 101.388L354.622 99.5174C364.341 95.0627 373.998 90.316 384.165 87.0174C394.7 83.5974 405.85 81.9414 417.016 81.9414C446.504 81.9414 476.081 93.504 494.561 114.716C499.253 120.101 503.166 125.913 506.5 132.003V132.003ZM299.958 132.003H284.277L278.226 107.267C288.626 109.76 299.096 111.781 309.636 111.781C312.445 111.781 315.261 111.637 318.08 111.321C321.022 110.991 323.906 110.479 326.746 109.821L299.958 132.003V132.003ZM230.418 132.003H167.957C182.384 109.873 203.953 98.8667 230.78 98.8667C236.36 98.8667 242.17 99.3427 248.186 100.295C243.096 106.889 236.324 118.261 230.418 132.003Z" fill="#8AD3E0"/>
<path d="M93.9903 479.51H559.838C569.109 479.51 576.625 471.993 576.625 462.723V148.789C576.625 139.519 569.109 132.003 559.838 132.003H93.9903C84.7183 132.003 77.2036 139.519 77.2036 148.789V462.723C77.2036 471.993 84.7183 479.51 93.9903 479.51" fill="#FAFCEC"/>
<path d="M77.2036 173.147V148.789C77.2036 139.519 84.7183 132.003 93.9903 132.003H559.838C569.109 132.003 576.625 139.519 576.625 148.789V173.147H77.2036Z" fill="#23518D"/>
<path d="M546.321 153.524C546.321 156.627 548.836 159.141 551.938 159.141C555.042 159.141 557.556 156.627 557.556 153.524C557.556 150.421 555.042 147.907 551.938 147.907C548.836 147.907 546.321 150.421 546.321 153.524Z" fill="#F8AE0C"/>
<path d="M524.958 153.524C524.958 156.627 527.473 159.141 530.576 159.141C533.678 159.141 536.193 156.627 536.193 153.524C536.193 150.421 533.678 147.907 530.576 147.907C527.473 147.907 524.958 150.421 524.958 153.524Z" fill="#F8AE0C"/>
<path d="M503.596 153.524C503.596 156.627 506.109 159.141 509.213 159.141C512.316 159.141 514.83 156.627 514.83 153.524C514.83 150.421 512.316 147.907 509.213 147.907C506.109 147.907 503.596 150.421 503.596 153.524Z" fill="#F2532D"/>
<path d="M481.678 212.392H544.265V194.668H481.678V212.392Z" fill="#F9A50D"/>
<path d="M254.438 212.392H317.024V194.668H254.438V212.392Z" fill="#F2532D"/>
<path d="M101.969 256.705H229.118V247.839H101.969V256.705Z" fill="#3D83CC"/>
<path d="M101.969 277.487H229.118V268.62H101.969V277.487Z" fill="#3D83CC"/>
<path d="M101.969 298.268H229.118V289.4H101.969V298.268Z" fill="#3D83CC"/>
<path d="M101.969 319.049H229.118V310.181H101.969V319.049Z" fill="#3D83CC"/>
<path d="M101.969 339.831H229.118V330.963H101.969V339.831Z" fill="#3D83CC"/>
<path d="M120.246 400.396H323.849V369.371H120.246V400.396Z" fill="#3D83CC"/>
<path d="M101.969 444.7H323.849V407.246H101.969V444.7Z" fill="#3D83CC"/>
<path d="M178.204 212.392H240.789V194.668H178.204V212.392Z" fill="#F2532D"/>
<path d="M101.969 212.392H164.554V194.668H101.969V212.392Z" fill="#F2532D"/>
<path d="M248.929 344.684H551.938V245.94H248.929V344.684Z" fill="#F9A50D"/>
<path d="M454.801 444.7H551.938V435.833H454.801V444.7Z" fill="#3D83CC"/>
<path d="M454.425 427.605H551.938V369.37H454.425V427.605Z" fill="#F2532D"/>
<path d="M337.316 444.7H434.453V435.833H337.316V444.7Z" fill="#3D83CC"/>
<path d="M336.938 427.605H434.453V369.371H336.938V427.605" fill="#F2532D"/>
<path d="M645.384 456.475L640.633 467.729C640.633 467.729 609.262 476.739 616.31 481.144C623.358 485.549 654.989 483.774 657.718 481.144C661.409 477.588 656.966 466.324 656.966 466.324L656.397 456.475H645.384" fill="#15141A"/>
<path d="M725.83 449.386L727.468 461.493C727.468 461.493 705.044 485.21 713.353 485.416C721.661 485.622 747.99 468 749.001 464.348C750.369 459.409 740.814 451.974 740.814 451.974L735.313 443.783L725.83 449.386Z" fill="#15141A"/>
<path d="M642.55 186.592L647.837 178.312C647.837 178.312 655.373 195.815 661.144 199.903C666.916 203.991 639.297 213.783 639.297 213.783C639.297 213.783 639.95 197.503 634.148 193.281C628.342 189.06 642.55 186.592 642.55 186.592Z" fill="#F8A090"/>
<path d="M634.875 300.02L625.046 377.204L637.806 467.162L658.671 466.249C658.671 466.249 670.558 417.857 669.765 404.512C668.971 391.168 662.466 383.409 666.993 366.008C674.543 336.987 665.221 301.637 665.221 301.637L634.875 300.02" fill="#23518D"/>
<path d="M637.806 467.162L632.641 430.748C643.126 420.503 651.423 408.664 651.429 400.113C651.433 393.223 646.053 388.468 632.095 388.401C632.003 388.401 631.91 388.401 631.819 388.401C630.077 388.401 628.361 388.479 626.667 388.632L625.046 377.204L633.202 313.167C633.983 313.487 634.73 313.624 635.459 313.624C637.722 313.624 639.838 312.301 642.45 310.977C643.765 310.311 645.203 309.644 646.85 309.147L655.786 334.777C655.889 347.959 655.185 362.76 652.309 373.224C650.058 381.411 655.825 389.211 659.183 403.608C660.919 411.045 662.281 454.043 656.966 466.324L658.671 466.249L656.966 466.324L640.93 467.024L637.806 467.162" fill="#214982"/>
<path d="M656.966 466.324C662.281 454.043 660.92 411.045 659.184 403.608C655.825 389.211 650.058 381.411 652.309 373.224C655.185 362.76 655.889 347.959 655.786 334.777L666.858 366.536C665.809 370.731 665.405 374.36 665.403 377.648C665.401 387.709 669.173 394.556 669.765 404.512C669.79 404.943 669.802 405.409 669.802 405.909C669.805 420.927 658.672 466.249 658.672 466.249L656.966 466.324" fill="#224278"/>
<path d="M639.729 288.721L673.081 384.385L726.674 462.605L742.136 454.932L734.892 415.56C733.128 405.971 728.757 397.052 722.26 389.783L715.185 381.869C710.536 376.667 707.482 370.236 706.388 363.345C706.388 363.345 701.16 327.528 698.828 315.695C696.504 303.913 684.038 288.721 684.038 288.721H639.729" fill="#23518D"/>
<path d="M642.111 230.627L638.465 212.705L611.796 247.068L570.593 244.655L565.985 255.616L615.138 266.087L643.293 249.481L642.111 230.627" fill="#55C6CA"/>
<path d="M615.138 266.087L576.625 257.883L565.985 255.616L570.593 244.655L611.796 247.068L633.873 218.623C632.163 223.295 630.486 230.111 629.593 239.892C629.169 244.535 628.53 251.143 627.97 258.519L615.138 266.087" fill="#4FC4C8"/>
<path d="M657.464 195.973C657.464 195.973 655.673 205.935 639.244 209.291C639.244 209.291 631.869 214.965 629.593 239.892C627.904 258.38 622.821 308.089 632.753 312.964C636.169 314.641 638.837 312.809 642.45 310.977C645.945 309.205 650.325 307.433 657.125 308.835C685.528 314.693 698.788 310.711 698.861 300.064C698.901 294.293 690.174 253.613 685.05 238.3C679.926 222.985 668.944 198.565 657.464 195.973Z" fill="#55C6CA"/>
<path d="M589.226 279.323L519.926 230.556C517.913 229.139 517.429 226.36 518.845 224.347L523.437 217.821C524.853 215.808 527.633 215.325 529.646 216.741L598.948 265.508C600.961 266.925 601.444 269.705 600.028 271.719L595.437 278.243C594.02 280.256 591.24 280.739 589.226 279.323" fill="#1F3864"/>
<path d="M494.87 217.24L507.462 225.635L519.65 219.133L520.962 205.383L508.37 196.989L502.978 185.597C509.337 184.453 516.126 185.653 521.926 189.52C533.829 197.455 537.046 213.537 529.11 225.44C521.176 237.344 505.094 240.56 493.19 232.625C487.39 228.759 483.672 222.953 482.281 216.644L494.87 217.24" fill="#1F3864"/>
<path d="M626.886 291.155C626.77 290.655 625.394 284.421 626.933 276.725C626.769 281.712 626.728 286.625 626.886 291.155Z" fill="#54BACB"/>
<path d="M626.933 291.187C626.92 291.187 626.908 291.187 626.893 291.187C626.893 291.187 626.89 291.176 626.886 291.155C626.728 286.625 626.769 281.712 626.933 276.725C627.277 275.007 627.766 273.215 628.448 271.397C630.509 265.901 635.79 264.619 640.27 264.619C644.19 264.619 647.496 265.601 647.496 265.601L656.645 249.272L665.758 248.032C665.758 248.032 654.972 291.187 626.933 291.187Z" fill="#43BABF"/>
<path d="M646.397 153.661C638.826 150.8 631.91 152.491 625.493 161.176C621.658 166.365 622.734 172.816 619.849 175.384C617.946 177.075 616.981 176.477 617.416 177.789C617.998 179.543 619.919 180.159 619.919 180.159C619.919 180.159 619.714 192.272 626.288 196.021C632.202 199.395 645.26 197.543 651.038 188.899C654.589 183.588 663.751 160.22 646.397 153.661Z" fill="#F8A090"/>
<path d="M633.462 197.689C630.712 197.689 628.198 197.112 626.288 196.021C628.112 197.061 630.617 197.605 633.377 197.605C634.558 197.605 635.786 197.505 637.028 197.304C637.037 197.327 637.048 197.351 637.057 197.375C635.834 197.587 634.626 197.689 633.462 197.689Z" fill="#B8B6AF"/>
<path d="M637.057 197.375C637.048 197.351 637.037 197.327 637.028 197.304C638.517 197.06 640.028 196.669 641.5 196.124C640.028 196.704 638.532 197.119 637.057 197.375Z" fill="#F57F70"/>
<path d="M633.377 197.605C630.617 197.605 628.112 197.061 626.288 196.021C626.125 195.928 625.985 195.809 625.83 195.707C631.75 195.405 636.553 190.223 640.444 184.292C641.862 182.129 644.204 176.647 645.216 170.656C645.285 170.591 645.356 170.524 645.426 170.456L644.805 175.073C645.53 176.541 646.422 177.303 647.332 177.563C647.312 177.747 647.29 177.933 647.268 178.121C646.6 183.585 648.494 187.099 650.71 189.295C650.665 189.355 650.62 189.412 650.576 189.468C648.06 192.619 644.846 194.803 641.5 196.124C640.028 196.669 638.517 197.06 637.028 197.304C635.786 197.505 634.558 197.605 633.377 197.605" fill="#F57F70"/>
<path d="M649.75 173.563C649.75 173.563 649.166 164.628 639.869 162.353C634.601 161.064 626.726 163.217 621.9 154.829C620.284 152.02 621.893 145.56 621.893 145.56C621.893 145.56 625.556 151.335 627.157 150.965C628.757 150.596 624.17 146.665 626.081 143.813C626.081 143.813 629.146 148.131 631.55 148.675C631.55 148.675 627.793 145.549 629.449 143.819C629.449 143.819 632.876 147.289 637.684 147.957C640.217 148.309 653.102 150.608 656.982 156.303C660.74 161.817 661.42 165.213 659.632 170.873C657.844 176.535 649.75 173.563 649.75 173.563" fill="#15141A"/>
<path d="M642.249 157.515C642.249 157.515 649.066 163.388 647.268 178.121C645.833 189.864 656.228 192.597 656.228 192.597C656.228 192.597 656.616 185.86 659.381 181.18C662.149 176.499 666.033 162.699 655.812 155.38C649.097 150.571 642.249 157.515 642.249 157.515" fill="#15141A"/>
<path d="M641.089 156.985L639.869 162.353C639.869 162.353 644.477 163.895 642.654 172.773C642.654 172.773 650.108 167.628 650.805 161.272C651.336 156.429 651.605 158.693 651.605 158.693L641.089 156.985" fill="#15141A"/>
<path d="M645.432 170.424C645.432 170.424 647.202 167.5 649.394 167.467C651.586 167.432 652.757 170.919 651.99 174.059C651.224 177.199 647.142 179.807 644.805 175.073L645.432 170.424" fill="#F8A090"/>
<path d="M648.076 177.665C646.921 177.665 645.728 176.941 644.805 175.073L645.432 170.424C645.432 170.424 647.202 167.5 649.394 167.467C649.405 167.467 649.417 167.465 649.428 167.465C651.144 167.465 652.225 169.636 652.225 172.089C652.225 172.737 652.149 173.407 651.99 174.059C651.526 175.96 649.848 177.665 648.076 177.665Z" fill="#F57F70"/>
<path d="M631.344 257.508C631.344 257.508 634.124 236.552 635.685 231.585C637.409 226.099 638.657 224.996 640.116 224.996C640.393 224.996 640.679 225.036 640.978 225.093C642.365 225.361 639.893 230.009 639.893 230.009L631.344 257.508" fill="#43BABF"/>
<path d="M551.994 256.031C559.038 254.668 571.222 256.377 572.908 252.663C574.057 250.127 573.602 248.425 573.093 247.5C572.814 246.995 573.184 246.385 573.761 246.412C575.052 246.471 577.593 246.992 582.552 248.951C585.074 249.947 590.453 252.004 590.453 252.004C590.453 252.004 591.492 266.392 586.81 264.743C582.129 263.092 569.66 266.832 564.73 265.159C562.572 264.425 561.428 263.921 560.822 262.939C559.933 262.863 558.402 262.555 557.674 262.161C556.216 261.373 555.661 260.449 555.414 259.929C553.317 259.556 552.19 258.596 551.578 257.664C551.15 257.008 551.226 256.179 551.994 256.031" fill="#F8A390"/>
<path d="M668.884 228.068C666.772 216.953 646.014 214.961 640.978 225.093C640.617 225.817 640.264 226.596 639.917 227.432C635.528 238.016 631.344 257.508 631.344 257.508L587.486 248.997L583.732 265.056C583.732 265.056 613.042 281.523 634.269 279.929C655.496 278.335 666.838 246.833 668.529 239.779C669.242 236.803 669.698 232.359 668.884 228.068" fill="#55C6CA"/>
<path d="M729.138 467.162C728.128 466.937 727.148 466.733 726.144 466.623C725.145 466.469 724.141 466.436 723.108 466.324C724.116 466.053 725.169 466.061 726.204 466.167C727.224 466.332 728.262 466.58 729.138 467.162Z" fill="white"/>
<path d="M726.122 470.592C725.112 470.368 724.132 470.165 723.129 470.055C722.13 469.9 721.126 469.867 720.093 469.755C721.101 469.484 722.156 469.493 723.188 469.599C724.21 469.764 725.248 470.011 726.122 470.592" fill="white"/>
<path d="M723.107 474.022C722.098 473.798 721.117 473.596 720.113 473.485C719.114 473.332 718.11 473.297 717.078 473.185C718.086 472.915 719.139 472.924 720.173 473.029C721.194 473.196 722.231 473.443 723.107 474.022" fill="white"/>
<path d="M639.661 472.713C638.86 472.057 638.077 471.435 637.23 470.882C636.409 470.294 635.529 469.812 634.657 469.246C635.678 469.458 636.614 469.943 637.49 470.501C638.326 471.111 639.141 471.8 639.661 472.713" fill="white"/>
<path d="M635.422 474.415C634.621 473.76 633.837 473.136 632.993 472.584C632.17 471.997 631.29 471.512 630.418 470.946C631.44 471.16 632.377 471.644 633.252 472.204C634.088 472.813 634.902 473.501 635.422 474.415" fill="white"/>
<path d="M631.184 476.116C630.382 475.46 629.6 474.836 628.753 474.284C627.932 473.697 627.05 473.215 626.18 472.649C627.201 472.862 628.138 473.345 629.012 473.904C629.849 474.515 630.662 475.204 631.184 476.116" fill="white"/>
<path d="M239.202 231.621L194.261 504.811H203.8L247.03 231.091L239.202 231.621Z" fill="#181720"/>
<path d="M301.574 231.621L346.516 504.811H336.977L293.746 231.091L301.574 231.621Z" fill="#181720"/>
<path d="M228.441 318.904H314.528V311.975H228.441V318.904Z" fill="#181720"/>
<path d="M217.049 386.772H325.921V379.841H217.049V386.772Z" fill="#181720"/>
<path d="M205.654 457.527H335.416V450.597H205.654V457.527Z" fill="#181720"/>
<path d="M236.848 245.939L237.417 241.628H237.557L236.848 245.939ZM245.365 241.633L245.366 241.628L245.365 241.633Z" fill="#11100F"/>
<path d="M244.606 245.94H236.848V245.939L237.557 241.628H245.366L245.365 241.633L244.606 245.94Z" fill="#100F0D"/>
<path d="M227.15 241.628H331.054V226.931H227.15V241.628Z" fill="#181720"/>
<path d="M351.042 304.617C351.042 304.617 349.996 316.379 352.69 316.909C355.385 317.443 385.169 317.679 387.032 313.64C388.893 309.601 365.153 304.247 365.153 304.247L363 299.665L351.042 304.617Z" fill="#15141A"/>
<path d="M337.43 217.327C337.43 217.327 342.489 235.545 346.642 245.667C350.796 255.787 365.58 304.139 365.58 304.139L350.802 308.671C350.802 308.671 310.556 273.684 320.382 255.251C330.208 236.817 337.43 217.327 337.43 217.327" fill="#26489D"/>
<path d="M350.802 308.671C350.802 308.671 325.972 287.084 320.078 268.889C327.532 252.055 335.148 233.568 337.832 222.776C338.032 221.971 338.184 221.148 338.278 220.309C339.893 225.897 343.524 238.065 346.642 245.667C350.796 255.787 365.58 304.139 365.58 304.139L365.196 304.256L350.848 308.657L350.802 308.671" fill="#283B81"/>
<path d="M288.61 294.205C288.61 294.205 277.41 300.749 278.237 305.961C278.982 310.661 302.793 330.119 307.269 328.688C311.745 327.256 298.641 304.961 298.641 304.961L301.004 299.989L288.61 294.205" fill="#15141A"/>
<path d="M269.005 68.7146L260.789 75.2879C260.789 75.2879 262.588 85.3879 252.784 98.1292C246.885 105.793 275.966 105.619 275.966 105.619L274.782 90.4039L269.005 68.7146Z" fill="#F8A390"/>
<path d="M238.058 180.344C231.366 181.568 227.132 181.309 222.51 186.303C218.353 190.793 213.909 215.873 227.193 223.084C244.818 232.651 303.026 230.171 303.026 230.171C303.026 230.171 291.257 234.701 288.701 257.273C286.146 279.845 282.74 297.732 282.74 297.732L302.756 306.251C302.756 306.251 331.988 246.276 337.832 222.776C340.198 213.261 335.745 201.132 313.173 193.04C294.894 186.488 255.04 177.236 238.058 180.344" fill="#26489D"/>
<path d="M278.5 53.0761C289.44 51.7001 300.402 60.0214 297.138 74.2974C297.078 74.5601 296.66 79.3121 299.492 80.9627C300.082 81.3081 300.208 82.084 299.792 82.6187C299.11 83.4947 298.466 84.5147 296.309 84.712C292.898 95.96 284.965 100.391 279.669 99.9654C268.732 99.0854 262.68 86.9787 261.526 76.1747C260.106 62.8667 268.416 54.3427 278.5 53.0761Z" fill="#F8A390"/>
<path d="M277.778 99.6868C270.925 98.2534 266.209 92.2334 263.637 85.2508C263.638 85.2494 263.638 85.2481 263.64 85.2468C263.641 85.2508 263.642 85.2534 263.642 85.2534C263.642 85.2534 266.561 82.2428 270.066 77.5241C270.458 77.7228 270.878 77.8334 271.316 77.8334C271.548 77.8334 271.782 77.8028 272.022 77.7388L275.346 70.4588C275.346 70.4588 275.25 70.2135 275.07 69.8428C276.309 66.5615 274.385 62.9014 277.632 62.3641L277.578 62.3415C277.801 62.3081 278.057 62.2921 278.34 62.2921C279.562 62.2921 281.312 62.5841 283.317 62.9415C278.977 67.4521 275.866 74.0174 274.914 80.9934C274.438 84.4961 272.83 96.7041 277.778 99.6868" fill="#F78D79"/>
<path d="M284.277 132.003L277.382 103.816C277.382 103.816 264.294 102.919 255.564 94.3374C250.992 89.844 210.26 152.575 218.402 202.023C218.402 202.023 219.73 191.285 249.984 187.371C258.293 186.296 265.878 186.845 272.054 187.393C282.786 188.348 289.262 189.303 287.894 181.732C285.122 166.389 284.277 132.003 284.277 132.003" fill="#287477"/>
<path d="M332.462 204.448C332.08 204.044 331.676 203.64 331.25 203.24L359.061 180.211C359.341 180.308 359.644 180.401 359.977 180.485L332.462 204.448" fill="#B4E4C2"/>
<path d="M313.172 221.248L286.54 186.957C286.901 186.709 287.201 186.411 287.438 186.053L313.701 217.771L331.25 203.24C331.676 203.64 332.08 204.044 332.462 204.448L313.172 221.248Z" fill="#264287"/>
<path d="M373.877 167.943L384.069 159.504L374.534 167.808C374.309 167.856 374.09 167.901 373.877 167.943" fill="#1E4978"/>
<path d="M286.54 186.957L265.748 160.184L270.741 156.179C270.745 156.181 270.748 156.184 270.752 156.188L265.98 160.139L273.806 169.591L287.438 186.053C287.201 186.411 286.901 186.709 286.54 186.957" fill="#246766"/>
<path d="M313.701 217.771L396.066 149.569L348.345 91.9374L265.98 160.139L313.701 217.771Z" fill="#B9E7D6"/>
<path d="M273.806 169.591L356.172 101.388L348.345 91.9373L265.98 160.139L273.806 169.591Z" fill="#3D83CC"/>
<path d="M323.562 162.88L368.009 126.076L355.761 111.284L311.314 148.088L323.562 162.88Z" fill="#F9A50D"/>
<path d="M307.166 195.548L377.388 137.401L372.47 131.463L302.249 189.609L307.166 195.548Z" fill="#3D83CC"/>
<path d="M314.202 204.045L384.424 145.899L379.506 139.96L309.285 198.107L314.202 204.045Z" fill="#3D83CC"/>
<path d="M297.788 184.221L320.546 165.377L308.298 150.585L285.541 169.431L297.788 184.221Z" fill="#F2532D"/>
<path d="M344.106 173.019L344.629 167.951L349.038 162.197L356.652 163.44C356.652 163.44 373.538 160.464 373.149 166.668C373.092 167.589 371.673 167.116 370.217 166.643C368.688 166.145 367.116 165.648 367.042 166.773C367.032 166.933 366.978 167.099 366.94 167.263C367.86 168.153 369.814 168.851 374.67 167.777C374.67 167.777 374.929 172.82 371.628 173.625C368.232 174.452 370.525 177.279 367.384 177.637C364.768 177.937 367.67 181.539 362.088 180.868C357.09 180.268 356.765 178.481 354.174 177.513L345.246 175.271L344.106 173.019" fill="#F8A390"/>
<path d="M284.73 144.612C284.589 141.404 284.484 138.592 284.412 136.441L290.21 140.076L284.73 144.612Z" fill="#1E4978"/>
<path d="M270.741 156.179C262.932 149.361 259.744 143.384 259.744 143.384L274.44 130.192L284.412 136.441C284.484 138.592 284.589 141.404 284.73 144.612L271.453 155.607L270.741 156.179" fill="#246766"/>
<path d="M270.752 156.188C270.748 156.184 270.745 156.181 270.741 156.179L271.453 155.607L270.752 156.188Z" fill="#205D57"/>
<path d="M349.788 177.885C349.788 177.885 348.428 177.788 346.132 177.605L347.553 176.429L349.788 177.885ZM335.189 176.657C333.693 176.516 332.132 176.364 330.529 176.203L337.869 170.125L340.785 172.023L335.189 176.657V176.657ZM319.862 175.025C316.62 174.631 313.42 174.203 310.438 173.747L320.546 165.377L309.722 152.304L320.289 158.928L323.562 162.88L324.869 161.797L330.485 165.317L331.101 165.719L319.862 175.025V175.025ZM288.072 167.335C285.528 166.156 283.182 164.904 281.022 163.615L301.161 146.939L307.73 151.056L288.072 167.335Z" fill="#85D5B6"/>
<path d="M281.022 163.615C276.958 161.189 273.557 158.635 270.752 156.188L290.21 140.076L301.161 146.939L281.022 163.615Z" fill="#3275B9"/>
<path d="M323.562 162.88L320.289 158.928L324.869 161.797L323.562 162.88" fill="#AD9D1E"/>
<path d="M330.529 176.203C327.085 175.856 323.448 175.46 319.862 175.025L331.101 165.719L337.869 170.125L330.529 176.203Z" fill="#3275B9"/>
<path d="M346.132 177.605C343.5 177.397 339.637 177.075 335.189 176.657L340.785 172.023L344.989 174.76L345.246 175.271L346.101 175.485L347.553 176.429L346.132 177.605" fill="#3275B9"/>
<path d="M310.438 173.747C305.392 172.972 300.978 172.116 298.069 171.199C294.442 170.055 291.116 168.747 288.072 167.335L307.73 151.056L309.722 152.304L320.546 165.377L310.438 173.747Z" fill="#B45221"/>
<path d="M346.101 175.485L345.246 175.271L344.989 174.76L346.101 175.485" fill="#B09D79"/>
<path d="M259.744 143.384C259.744 143.384 278.121 158.885 298.978 168.9C298.978 168.9 329.097 179.027 352.344 177.389L355.496 162.683L311.652 148.581C311.652 148.581 282.884 119.752 277.472 104.28C277.472 104.28 258.484 115.492 259.744 143.384" fill="#287477"/>
<path d="M274.618 70.7748C276.726 67.2948 274.073 62.9521 277.632 62.3641L277.578 62.3414C279.044 62.1174 281.873 62.6894 285.116 63.2628C292.002 64.4774 300.753 65.6934 302.274 59.2787C302.274 59.2787 299.432 59.4681 297.78 58.4668C297.78 58.4668 302.706 58.6161 306.044 53.9548C306.044 53.9548 298.36 55.2561 295.213 53.2454C295.213 53.2454 301.097 53.4894 303.014 51.3001C303.014 51.3001 293.884 50.7614 291.438 49.2481C285.094 45.3227 277.197 45.6534 271.769 46.9641C266.342 48.2748 262.938 49.5708 259.589 56.3334C256.698 62.1681 263.642 85.2534 263.642 85.2534C263.642 85.2534 269.525 79.1841 274.618 70.7748" fill="#15141A"/>
<path d="M268.369 57.4013L261.776 52.7719C261.776 52.7719 258.738 55.6599 256.788 64.5119C254.836 73.3626 259.326 81.3119 255.778 85.1959C255.778 85.1959 257.81 84.7439 258.673 83.4173C258.673 83.4173 257.43 89.3679 253.381 90.1119C253.381 90.1119 258.606 89.3146 260.161 86.5826C260.161 86.5826 259.176 90.9973 256.376 91.8159C256.376 91.8159 261.618 91.6279 262.598 87.4399C263.578 83.2506 268.632 82.9159 270.478 72.4866C272.325 62.0546 268.369 57.4013 268.369 57.4013" fill="#15141A"/>
<path d="M275.346 70.4587C275.346 70.4587 273.166 64.844 269.965 66.82C264.838 69.984 267.909 78.8454 272.022 77.7387L275.346 70.4587" fill="#F8A390"/>
<path d="M271.316 77.8333C270.577 77.8333 269.889 77.5186 269.297 76.9919C268.084 75.9106 267.277 73.9319 267.278 71.9319C267.28 69.9773 268.05 68.0012 269.965 66.8199C270.445 66.5239 270.901 66.3986 271.33 66.3986C273.769 66.3986 275.346 70.4586 275.346 70.4586L272.022 77.7386C271.782 77.8026 271.548 77.8333 271.316 77.8333Z" fill="#F78D79"/>
<path d="M27.3036 180.951C27.3036 225.365 63.309 261.372 107.724 261.372C152.138 261.372 188.144 225.365 188.144 180.951C188.144 136.536 152.138 100.531 107.724 100.531C63.309 100.531 27.3036 136.536 27.3036 180.951" fill="#F9A50D"/>
<path d="M158.534 170.487L150.998 183.672L142.604 184.107L134.158 174.228L135.893 166.003L150.089 160.609L148.022 158.191L130.241 160.448L125.02 180.564L135.13 192.391L155.814 190.36L160.808 173.147L158.534 170.487" fill="white"/>
<path d="M91.5449 232.361L109.326 230.104L114.548 209.988L104.437 198.163L83.7529 200.192L78.7582 217.405L80.8262 219.824L88.3609 206.639L96.7569 206.204L105.201 216.083L103.466 224.308L89.2703 229.701L91.5449 232.361" fill="white"/>
<path d="M103.005 198.94L113.378 211.075L137.606 190.361L127.233 178.227L103.005 198.94Z" fill="white"/>
<path d="M81.0103 164.212L92.6916 176.332L96.5196 172.643L84.8369 160.523L81.0103 164.212" fill="white"/>
<path d="M83.2476 166.36L90.6263 174.016L88.9156 181.816L61.9836 207.776L48.457 193.743L75.389 167.783L83.2476 166.36Z" fill="white"/>
<path d="M70.0476 182.521L73.7356 186.347L124.738 137.185L121.05 133.36L70.0476 182.521Z" fill="white"/>
<path d="M119.266 135.003L122.992 138.868L130.658 134.355L134.644 126.02L132.398 123.692L123.924 127.367L119.266 135.003" fill="white"/>
<path d="M155.124 66.1467C157.494 54.8281 168.592 47.5721 179.912 49.9414C191.232 52.3107 198.488 63.4094 196.117 74.7294C193.748 86.0494 182.65 93.3041 171.33 90.9347C160.01 88.5654 152.754 77.4681 155.124 66.1467ZM148.058 64.6681C144.873 79.8907 154.629 94.8134 169.852 98.0001C185.073 101.187 199.996 91.4307 203.182 76.2081C206.369 60.9854 196.613 46.0627 181.39 42.8761C166.169 39.6894 151.245 49.4467 148.058 64.6681" fill="#55C6CA"/>
<path d="M173.745 45.4319L187.36 48.2812L189.261 39.2053L175.645 36.3546L173.745 45.4319" fill="#55C6CA"/>
<path d="M192.2 51.548L199.813 63.1907L207.574 58.116L199.962 46.4734L192.2 51.548Z" fill="#55C6CA"/>
<path d="M200.925 68.9227L198.076 82.5374L207.152 84.4387L210.002 70.8227L200.925 68.9227" fill="#55C6CA"/>
<path d="M194.809 87.3786L183.166 94.9906L188.241 102.752L199.884 95.14L194.809 87.3786Z" fill="#55C6CA"/>
<path d="M177.434 96.1026L163.818 93.2519L161.918 102.329L175.534 105.18L177.434 96.1026Z" fill="#55C6CA"/>
<path d="M158.978 89.9866L151.366 78.3439L143.605 83.4173L151.217 95.0613L158.978 89.9866Z" fill="#55C6CA"/>
<path d="M150.254 72.6121L153.105 58.9961L144.028 57.0961L141.177 70.7121L150.254 72.6121Z" fill="#55C6CA"/>
<path d="M156.37 54.156L168.013 46.544L162.938 38.7827L151.296 46.3947L156.37 54.156" fill="#55C6CA"/>
<path d="M593.241 66.6721C600.193 50.8574 618.648 43.6721 634.462 50.6228C650.277 57.5748 657.462 76.0294 650.51 91.8441C643.558 107.659 625.105 114.844 609.289 107.892C593.475 100.941 586.289 82.4868 593.241 66.6721ZM583.371 62.3334C574.023 83.5988 583.685 108.416 604.95 117.763C626.217 127.111 651.034 117.448 660.381 96.1828C669.727 74.9174 660.066 50.1001 638.801 40.7534C617.535 31.4054 592.717 41.0668 583.371 62.3334" fill="#F9A50D"/>
<path d="M626.838 42.1321L645.861 50.4934L651.434 37.8121L632.413 29.4508L626.838 42.1321" fill="#F9A50D"/>
<path d="M651.927 56.7573L659.466 76.1187L672.374 71.0933L664.835 51.732L651.927 56.7573Z" fill="#F9A50D"/>
<path d="M659.326 84.8399L650.965 103.86L663.646 109.435L672.006 90.4132L659.326 84.8399" fill="#F9A50D"/>
<path d="M644.701 109.928L625.338 117.467L630.365 130.375L649.725 122.836L644.701 109.928" fill="#F9A50D"/>
<path d="M616.618 117.327L597.598 108.965L592.024 121.647L611.045 130.007L616.618 117.327Z" fill="#F9A50D"/>
<path d="M591.53 102.701L583.993 83.3386L571.083 88.3639L578.622 107.727L591.53 102.701" fill="#F9A50D"/>
<path d="M584.132 74.6187L592.493 55.5973L579.812 50.024L571.45 69.0453L584.132 74.6187Z" fill="#F9A50D"/>
<path d="M598.757 49.5308L618.118 41.9921L613.094 29.0841L593.732 36.6228L598.757 49.5308" fill="#F9A50D"/>
<path d="M70.833 65.832C68.5783 56.8187 74.057 47.6854 83.0703 45.4307C92.0823 43.176 101.217 48.6547 103.47 57.6667C105.725 66.68 100.246 75.8134 91.2343 78.068C82.221 80.3227 73.0876 74.844 70.833 65.832V65.832ZM65.209 67.2387C68.241 79.3574 80.5223 86.724 92.641 83.6934C104.761 80.6614 112.128 68.3787 109.096 56.26C106.064 44.1414 93.7823 36.7747 81.6623 39.8054C69.5436 42.8374 62.177 55.1187 65.209 67.2387Z" fill="#F2532D"/>
<path d="M77.0316 44.332L87.8716 41.62L86.065 34.3934L75.2236 37.1054L77.0316 44.332Z" fill="#F2532D"/>
<path d="M92.5156 42.284L102.098 48.032L105.929 41.644L96.3463 35.896L92.5156 42.284Z" fill="#F2532D"/>
<path d="M104.91 51.7855L107.622 62.6255L114.849 60.8175L112.137 49.9775L104.91 51.7855Z" fill="#F2532D"/>
<path d="M106.958 67.268L101.21 76.8506L107.598 80.6826L113.346 71.1L106.958 67.268Z" fill="#F2532D"/>
<path d="M97.4583 79.6641L86.6169 82.3761L88.4249 89.6028L99.2649 86.8908L97.4583 79.6641Z" fill="#F2532D"/>
<path d="M81.9743 81.7107L72.3916 75.9641L68.561 82.3521L78.1423 88.1001L81.9743 81.7107Z" fill="#F2532D"/>
<path d="M69.5783 72.2105L66.8676 61.3706L59.6409 63.1785L62.3529 74.0186L69.5783 72.2105Z" fill="#F2532D"/>
<path d="M67.5316 56.728L73.2796 47.1453L66.8903 43.3133L61.1436 52.896L67.5316 56.728Z" fill="#F2532D"/>
<path d="M686.884 187.347C686.884 179.279 693.425 172.739 701.494 172.739C709.561 172.739 716.102 179.279 716.102 187.347C716.102 195.415 709.561 201.955 701.494 201.955C693.425 201.955 686.884 195.415 686.884 187.347ZM681.849 187.347C681.849 198.196 690.645 206.991 701.494 206.991C712.342 206.991 721.137 198.196 721.137 187.347C721.137 176.497 712.342 167.703 701.494 167.703C690.645 167.703 681.849 176.497 681.849 187.347Z" fill="#F2532D"/>
<path d="M696.638 170.54H706.342V164.071H696.638V170.54Z" fill="#F2532D"/>
<path d="M710.113 172.079L716.975 178.94L721.55 174.365L714.687 167.504L710.113 172.079Z" fill="#F2532D"/>
<path d="M718.554 182.695V192.399H725.024V182.695H718.554Z" fill="#F2532D"/>
<path d="M717.016 196.171L710.156 203.032L714.729 207.607L721.592 200.745L717.016 196.171" fill="#F2532D"/>
<path d="M706.4 204.611H696.696V211.081H706.4V204.611Z" fill="#F2532D"/>
<path d="M692.925 203.073L686.062 196.212L681.489 200.785L688.35 207.648L692.925 203.073Z" fill="#F2532D"/>
<path d="M684.483 192.456V182.752H678.014V192.456H684.483Z" fill="#F2532D"/>
<path d="M686.022 178.981L692.884 172.119L688.309 167.545L681.446 174.407L686.022 178.981" fill="#F2532D"/>
<path d="M16.3523 279.808C16.3523 271.74 22.893 265.2 30.961 265.2C39.029 265.2 45.569 271.74 45.569 279.808C45.569 287.877 39.029 294.417 30.961 294.417C22.893 294.417 16.3523 287.877 16.3523 279.808ZM11.3168 279.808C11.3168 290.657 20.1116 299.452 30.961 299.452C41.8103 299.452 50.605 290.657 50.605 279.808C50.605 268.959 41.8103 260.165 30.961 260.165C20.1116 260.165 11.3168 268.959 11.3168 279.808Z" fill="#3D83CC"/>
<path d="M26.1049 263.001H35.8089V256.532H26.1049V263.001Z" fill="#3D83CC"/>
<path d="M39.5809 264.54L46.4423 271.401L51.0169 266.828L44.1556 259.965L39.5809 264.54Z" fill="#3D83CC"/>
<path d="M48.0223 275.157V284.86H54.4916V275.157H48.0223Z" fill="#3D83CC"/>
<path d="M46.4836 288.632L39.6223 295.495L44.1969 300.068L51.0582 293.207L46.4836 288.632Z" fill="#3D83CC"/>
<path d="M35.8676 297.073H26.1636V303.543H35.8676V297.073Z" fill="#3D83CC"/>
<path d="M22.3916 295.535L15.5303 288.672L10.9554 293.248L17.817 300.109L22.3916 295.535" fill="#3D83CC"/>
<path d="M13.9507 284.919V275.215H7.48138V284.919H13.9507Z" fill="#3D83CC"/>
<path d="M15.4892 271.443L22.3516 264.581L17.7756 260.005L10.9147 266.868L15.4892 271.443" fill="#3D83CC"/>
<path d="M502.738 90.1146C500.344 81.5626 505.334 72.6879 513.886 70.2919C522.44 67.8973 531.314 72.8879 533.71 81.4413C536.105 89.9933 531.113 98.8679 522.561 101.264C514.009 103.659 505.134 98.6666 502.738 90.1146ZM497.401 91.6106C500.621 103.111 512.556 109.823 524.056 106.601C535.556 103.38 542.269 91.4466 539.048 79.9452C535.828 68.4452 523.892 61.7333 512.392 64.9546C500.892 68.1746 494.18 80.1092 497.401 91.6106" fill="#55C6CA"/>
<path d="M508.088 69.4041L518.376 66.5227L516.454 59.6654L506.166 62.5467L508.088 69.4041Z" fill="#55C6CA"/>
<path d="M522.829 67.0334L532.139 72.2708L535.632 66.0627L526.321 60.8267L522.829 67.0334" fill="#55C6CA"/>
<path d="M534.929 75.7814L537.81 86.0681L544.666 84.1481L541.786 73.8614L534.929 75.7814" fill="#55C6CA"/>
<path d="M537.298 90.5228L532.061 99.8334L538.27 103.325L543.505 94.0148L537.298 90.5228Z" fill="#55C6CA"/>
<path d="M528.55 102.623L518.265 105.503L520.185 112.36L530.472 109.48L528.55 102.623" fill="#55C6CA"/>
<path d="M513.81 104.992L504.498 99.7561L501.008 105.963L510.318 111.199L513.81 104.992" fill="#55C6CA"/>
<path d="M501.71 96.2453L498.829 85.9573L491.972 87.8786L494.853 98.1653L501.71 96.2453Z" fill="#55C6CA"/>
<path d="M499.339 81.5027L504.577 72.1933L498.37 68.7014L493.133 78.012L499.339 81.5027" fill="#55C6CA"/>
<path d="M572.304 486.413C572.304 486.413 581.566 462.108 607.974 449.029C634.381 435.949 676.346 388.612 632.096 388.401C587.842 388.192 559.264 438.363 557.789 477.52L572.304 486.413" fill="#287477"/>
<path d="M575.629 479.722H569.454C569.346 477.506 569.293 474.327 569.501 470.422C576.176 454.957 590.664 427.229 615.113 407.929C615.113 407.929 589.473 419.223 571.809 453.368C574.26 442.129 579.026 428.963 588.092 416.165C591.369 411.537 594.576 405.877 597.51 399.656C607.429 392.657 618.96 388.401 631.82 388.401C631.91 388.401 632.004 388.401 632.096 388.401C646.053 388.468 651.433 393.223 651.429 400.113C651.424 408.664 643.126 420.503 632.641 430.748C624.792 438.417 615.713 445.196 607.974 449.029C590.302 457.781 580.308 471.561 575.629 479.722" fill="#225F63"/>
<path d="M569.501 470.422C569.754 465.665 570.398 459.837 571.809 453.368C589.473 419.223 615.113 407.929 615.113 407.929C590.664 427.229 576.176 454.957 569.501 470.422Z" fill="#1B4649"/>
<path d="M569.728 483.223C569.728 483.223 565.172 448.523 588.092 416.165C611.01 383.807 630.472 300.94 577.932 328.956C525.389 356.975 523.59 434.648 546.857 481.963L569.728 483.223" fill="#287477"/>
<path d="M555.474 431.964C553.713 427.935 551.68 424.049 549.376 420.381C554.224 383.576 570.294 362.929 570.294 362.929C560.178 386.339 556.421 411.085 555.474 431.964" fill="#205559"/>
<path d="M549.496 486.341C549.496 486.341 544.245 463.596 522.374 448.721C500.501 433.849 469.005 386.607 508.376 391.855C547.745 397.105 566.992 445.223 563.492 480.219L549.496 486.341Z" fill="#287477"/>
<path d="M563.541 479.722H559.588C552.244 430.509 521.074 411.303 521.074 411.303C541.36 432.423 550.794 460.422 554.489 474.458C547.994 454.346 530.117 433.728 508.306 433.728C507.624 433.728 506.936 433.748 506.245 433.789C497.112 423.173 489.632 410.433 489.63 401.72C489.629 395.588 493.336 391.449 502.778 391.449C504.46 391.449 506.318 391.58 508.376 391.855C544.708 396.7 563.902 438.053 563.897 471.911C563.897 474.568 563.778 477.176 563.541 479.722" fill="#225F63"/>
<path d="M559.588 479.722H555.929C555.54 477.98 555.058 476.223 554.489 474.458C550.794 460.422 541.36 432.423 521.074 411.303C521.074 411.303 552.244 430.509 559.588 479.722" fill="#1B4649"/>
<path d="M548.273 487.935C548.273 487.935 540.354 474.076 523.102 468.649C505.853 463.222 475.922 438.499 502.732 434.176C529.542 429.855 551.626 457.565 556.232 481.165L548.273 487.935" fill="#287477"/>
<path d="M552.658 479.722H549.537C544.532 471.44 532.709 454.453 514.88 444.407C514.88 444.407 538.076 450.572 552.658 479.722Z" fill="#205559"/>
<path d="M126.758 489.632C140.126 494.748 155.63 478.349 162.233 443.7C171.758 393.719 195.693 380.669 195.693 380.669C195.693 380.669 144.458 369.496 122.118 438.853C112.072 470.044 114.902 485.094 126.758 489.632" fill="#287477"/>
<path d="M147.35 481.184H132.006C132.01 481.096 132.014 481.008 132.017 480.919C137.917 473.57 140.858 460.584 140.277 440.568C147.181 420.767 155.861 406.832 155.861 406.832C149.382 416.06 144.129 424.596 139.868 432.372C139.692 429.829 139.469 427.193 139.194 424.455C138.62 418.701 137.829 413.304 136.849 408.228C154.174 383.668 176.149 380.007 187.724 380.007C192.649 380.007 195.693 380.669 195.693 380.669C195.693 380.669 186.889 385.468 177.836 400.396C176.573 402.477 175.305 404.759 174.056 407.247C169.493 416.343 165.176 428.257 162.233 443.7C162.169 444.035 162.104 444.369 162.038 444.7C159.001 460.077 154.198 471.777 148.62 479.509C148.201 480.091 147.778 480.648 147.35 481.184" fill="#236468"/>
<path d="M132.006 481.184H131.801C131.873 481.097 131.946 481.008 132.017 480.919C132.014 481.008 132.01 481.096 132.006 481.184ZM140.277 440.568C140.201 437.959 140.065 435.223 139.868 432.372C144.129 424.596 149.382 416.06 155.861 406.832C155.861 406.832 147.181 420.767 140.277 440.568Z" fill="#152B2D"/>
<path d="M119.244 488.232C100.708 491.1 85.3676 465.813 86.465 419.6C88.0463 352.937 60.9796 329.617 60.9796 329.617C60.9796 329.617 129.704 329.433 139.194 424.455C143.464 467.186 135.686 485.688 119.244 488.232" fill="#287477"/>
<path d="M126.776 481.184H113.83C124.889 430.027 104.797 374.121 104.797 374.121C127.489 427.789 128.758 462.4 127.908 476.664C127.812 478.281 127.413 479.804 126.776 481.184" fill="#163134"/>
<path d="M102.545 489.236C86.0503 495.358 66.721 476.28 58.2463 435.727C46.0183 377.228 16.2866 362.157 16.2866 362.157C16.2866 362.157 79.5836 348.581 107.838 429.672C120.545 466.14 117.176 483.808 102.545 489.236" fill="#287477"/>
<path d="M112.362 481.184H108.128C108.352 479.982 108.37 478.725 108.154 477.446C106.009 464.831 97.7343 434.869 65.8036 392.451C65.8036 392.451 94.545 435.457 96.049 481.184H78.4756C70.0703 472.253 62.6756 456.924 58.2463 435.727C46.0183 377.228 16.2866 362.157 16.2866 362.157C16.2866 362.157 20.2703 361.303 26.6823 361.303C45.8343 361.303 86.669 368.919 107.838 429.672C113.198 445.057 115.698 457.096 115.698 466.281C115.697 472.509 114.549 477.427 112.362 481.184" fill="#236468"/>
<path d="M108.128 481.184H96.049C94.545 435.457 65.8036 392.451 65.8036 392.451C97.7343 434.869 106.009 464.831 108.154 477.446C108.37 478.725 108.352 479.982 108.128 481.184" fill="#152B2D"/>
<path d="M304.166 315.212C303.545 314.715 302.924 314.276 302.212 314.095C301.514 313.852 300.77 313.94 299.98 314.072C300.306 313.84 300.684 313.659 301.094 313.592C301.504 313.504 301.934 313.552 302.341 313.653C303.14 313.909 303.837 314.468 304.166 315.212" fill="white"/>
<path d="M302.79 312.22C302.169 311.721 301.548 311.283 300.836 311.103C300.138 310.86 299.394 310.947 298.604 311.08C298.93 310.848 299.307 310.667 299.718 310.601C300.127 310.513 300.558 310.559 300.965 310.663C301.765 310.919 302.461 311.476 302.79 312.22" fill="white"/>
<path d="M300.977 309.223C300.354 308.724 299.734 308.287 299.022 308.107C298.325 307.864 297.58 307.949 296.79 308.084C297.116 307.852 297.494 307.669 297.905 307.604C298.313 307.516 298.744 307.563 299.15 307.665C299.95 307.921 300.648 308.48 300.977 309.223" fill="white"/>
</svg>
