<svg width="767" height="505" fill="none" xmlns="http://www.w3.org/2000/svg"><path d="M385.609 498.565c-65.267 0-126.696-.981-180.395-2.712l2.582-16.344h333.526l.22.212h34.087c3.453-6.022 9.803-15.106 19.996-22.97 14.377.569 28.048 1.194 40.971 1.872l1.21 8.539 3.124-.138-.297.705s-31.371 9.01-24.323 13.415c3.098 1.936 10.95 2.679 19.006 2.679 10.269 0 20.873-1.206 22.402-2.679 3.683-3.548-.733-14.772-.752-14.82l1.706-.075s.59-2.401 1.498-6.28c65.912 4.098 106.428 9.667 106.428 15.803 0 12.588-170.574 22.793-380.989 22.793zm-189.823-3.025C81.54 491.604 4.619 484.225 4.619 475.772c0-4.616 22.934-8.912 62.35-12.5 3.43 7.496 7.344 13.489 11.507 17.912h68.874c.428-.536.851-1.093 1.27-1.675h49.804l-2.638 16.031" fill="#95D8E0"/><path d="M669.802 405.873c0-.486-.013-.941-.037-1.361-.592-9.956-4.364-16.803-4.361-26.864.001-3.288.405-6.917 1.454-11.112l6.223 17.849 10.859 15.85a164.105 164.105 0 01-14.138 5.638zm44.662-24.836a36.349 36.349 0 01-8.076-17.692s-5.228-35.817-7.56-47.65c-.539-2.731-1.622-5.643-2.968-8.508 1.994-1.843 2.981-4.239 3.001-7.123.04-5.771-8.687-46.451-13.811-61.764-5.124-15.315-16.106-39.735-27.586-42.327l-.002.006a54.156 54.156 0 01-2.566-3.871c.802.349 1.332.489 1.332.489s.388-6.737 3.153-11.417c1.628-2.755 3.643-8.664 2.944-14.553 27.249 10.69 51.357 28.284 67.843 51.064 27.678 38.248 32.302 90.237 10.028 131.381-6.908 12.76-15.616 23.295-25.732 31.965zm-637.26-.326c-15.931-14.122-32.93-18.287-44.911-19.195-15.263-18.393-25.912-40.412-30.308-64.537-5.31-29.132.337-62.372 13.308-89.343 13.952-29.009 34.196-37.597 61.91-50.699v89.54a80.297 80.297 0 00-2.029 3.947c-10.525 21.885-15.106 48.857-10.798 72.496a112.235 112.235 0 001.644 7.54l-5.04-.843s3.354 2.891 7.634 9.547a113.33 113.33 0 008.59 19.085v22.462zm547.837-150.71c-14.313-9.453-30.771-16.19-47.941-19.664l-.475-.093v-61.455c0-9.27-7.516-16.786-16.787-16.786H506.5c-3.334-6.09-7.247-11.902-11.939-17.287-18.48-21.212-48.057-32.775-77.545-32.775-11.166 0-22.316 1.656-32.851 5.076-10.167 3.299-19.824 8.046-29.543 12.5l-6.277-7.58-21.599 17.884a75.764 75.764 0 01-8.666 1.5c-2.819.316-5.635.46-8.444.46-10.54 0-21.01-2.021-31.41-4.514l-.844-3.451s-.577-.04-1.57-.181l-.36-4.63c1.314.508 2.72.839 4.217.96.229.019.465.028.704.028 5.272 0 12.673-4.522 15.936-15.281 2.157-.197 2.801-1.217 3.483-2.093.416-.535.29-1.311-.3-1.656-2.832-1.651-2.414-6.403-2.354-6.666.898-3.924.72-7.398-.236-10.344 2.664-.526 4.707-1.872 5.372-4.674 0 0-.213.014-.556.014-.909 0-2.738-.1-3.938-.826l.052.001c.536 0 5.076-.132 8.212-4.513 0 0-2.446.414-5.143.414-2.083 0-4.316-.248-5.688-1.124 0 0 .196.008.528.008 1.487 0 5.705-.164 7.273-1.953 0 0-9.13-.539-11.576-2.052-3.804-2.353-8.165-3.177-12.218-3.177-2.707 0-5.278.368-7.451.893-4.449 1.075-7.539 2.14-10.353 6.216-.863 1.061-3.086 4.33-4.628 11.332-1.952 8.85 2.538 16.8-1.01 20.684 0 0 2.032-.452 2.895-1.779 0 0-1.243 5.951-5.292 6.695 0 0 3.079-.47 5.213-1.924a38.199 38.199 0 01-1.564 3.357 3.282 3.282 0 01-.654.271s.204-.007.538-.05a42.5 42.5 0 01-1.441 2.495.822.822 0 00-.5-.152c-1.292 0-3.739 2.236-6.787 6.186-6.016-.952-11.826-1.428-17.406-1.428-26.827 0-48.396 11.006-62.823 33.136h-66.036c8.532-17.031 11.86-38.178 18.609-53.411 17.087-38.565 47.232-57.733 86.53-57.733 10.881 0 22.466 1.47 34.668 4.405l.149.036c20.557 4.953 41.348 11.476 62.363 11.476 3.462 0 6.933-.177 10.406-.568 29.131-3.273 53.759-20.967 81.444-29.952C409.072 2.043 422.813 0 436.574 0c36.34 0 72.791 14.25 95.566 40.392 17.388 19.96 26.11 44.675 32.776 69.169 3.514 12.915 7.025 29.887 18.888 38.787 10.545 7.911 25.672 7.455 39.494 8.532 1.024 1.261 2.142 2.181 3.312 2.86-.373.456-.745.933-1.117 1.436-3.835 5.189-2.759 11.64-5.644 14.208-1.903 1.691-2.868 1.093-2.433 2.405.582 1.754 2.504 2.37 2.504 2.37s-.206 12.113 6.368 15.862c1.91 1.091 4.424 1.668 7.174 1.668a21.1 21.1 0 003.595-.314c1.505 3.618 2.023 8.437 2.189 11.914l-.002.002s-2.723 2.096-5.371 9.332l-8.832 11.378" fill="#BFE0E2"/><path d="M597.51 399.656c14.703-31.157 22.599-76.389-1.481-76.389-4.735 0-10.7 1.744-18.097 5.689-.44.235-.875.472-1.307.713v-71.786l38.513 8.204 12.832-7.568c-.44 5.79-.833 12.056-1.037 18.206-1.539 7.696-.163 13.93-.047 14.43.388 11.104 1.974 19.898 5.867 21.809.151.075.301.141.449.203l-8.156 64.037 1.622 11.428c-10.802.972-20.583 4.973-29.158 11.024zM77.204 358.249a113.33 113.33 0 01-8.59-19.085c2.699 4.197 5.766 9.897 8.59 17.308v1.777zm0-25.776a91.544 91.544 0 00-1.131-.332L66.02 330.46a112.235 112.235 0 01-1.644-7.54c-4.308-23.639.273-50.611 10.798-72.496a80.297 80.297 0 012.03-3.947v85.996zm534.592-85.405l-35.171-2.06v-34.764l.475.093c17.17 3.474 33.628 10.211 47.941 19.664l-13.245 17.067zM506.5 132.003H381.521l-25.349-30.615-1.55-1.87c9.719-4.455 19.376-9.202 29.543-12.5 10.535-3.42 21.685-5.077 32.851-5.077 29.488 0 59.065 11.563 77.545 32.775 4.692 5.385 8.605 11.197 11.939 17.287zm-206.542 0h-15.681l-6.051-24.736c10.4 2.493 20.87 4.514 31.41 4.514 2.809 0 5.625-.144 8.444-.46a75.764 75.764 0 008.666-1.5l-26.788 22.182zm-69.54 0h-62.461c14.427-22.13 35.996-33.136 62.823-33.136 5.58 0 11.39.476 17.406 1.428-5.09 6.594-11.862 17.966-17.768 31.708z" fill="#8AD3E0"/><path d="M93.99 479.51h465.848c9.271 0 16.787-7.517 16.787-16.787V148.789c0-9.27-7.516-16.786-16.787-16.786H93.99c-9.272 0-16.786 7.516-16.786 16.786v313.934c0 9.27 7.514 16.787 16.786 16.787" fill="#FAFCEC"/><path d="M77.204 173.147v-24.358c0-9.27 7.514-16.786 16.786-16.786h465.848c9.271 0 16.787 7.516 16.787 16.786v24.358H77.204z" fill="#23518D"/><path d="M546.321 153.524a5.617 5.617 0 005.617 5.617 5.616 5.616 0 005.618-5.617 5.616 5.616 0 00-5.618-5.617 5.617 5.617 0 00-5.617 5.617zm-21.363 0a5.617 5.617 0 005.618 5.617 5.617 5.617 0 100-11.234 5.617 5.617 0 00-5.618 5.617z" fill="#F8AE0C"/><path d="M503.596 153.524a5.615 5.615 0 005.617 5.617 5.616 5.616 0 005.617-5.617 5.616 5.616 0 00-5.617-5.617 5.615 5.615 0 00-5.617 5.617z" fill="#F2532D"/><path d="M481.678 212.392h62.587v-17.724h-62.587v17.724z" fill="#F9A50D"/><path d="M254.438 212.392h62.586v-17.724h-62.586v17.724z" fill="#F2532D"/><path d="M101.969 256.705h127.149v-8.866H101.969v8.866zm0 20.782h127.149v-8.867H101.969v8.867zm0 20.781h127.149V289.4H101.969v8.868zm0 20.781h127.149v-8.868H101.969v8.868zm0 20.782h127.149v-8.868H101.969v8.868zm18.277 60.565h203.603v-31.025H120.246v31.025zM101.969 444.7h221.88v-37.454h-221.88V444.7z" fill="#3D83CC"/><path d="M178.204 212.392h62.585v-17.724h-62.585v17.724zm-76.235 0h62.585v-17.724h-62.585v17.724z" fill="#F2532D"/><path d="M248.929 344.684h303.009V245.94H248.929v98.744z" fill="#F9A50D"/><path d="M454.801 444.7h97.137v-8.867h-97.137v8.867z" fill="#3D83CC"/><path d="M454.425 427.605h97.513V369.37h-97.513v58.235z" fill="#F2532D"/><path d="M337.316 444.7h97.137v-8.867h-97.137v8.867z" fill="#3D83CC"/><path d="M336.938 427.605h97.515v-58.234h-97.515v58.234" fill="#F2532D"/><path d="M645.384 456.475l-4.751 11.254s-31.371 9.01-24.323 13.415c7.048 4.405 38.679 2.63 41.408 0 3.691-3.556-.752-14.82-.752-14.82l-.569-9.849h-11.013m80.446-7.089l1.638 12.107s-22.424 23.717-14.115 23.923c8.308.206 34.637-17.416 35.648-21.068 1.368-4.939-8.187-12.374-8.187-12.374l-5.501-8.191-9.483 5.603z" fill="#15141A"/><path d="M642.55 186.592l5.287-8.28s7.536 17.503 13.307 21.591c5.772 4.088-21.847 13.88-21.847 13.88s.653-16.28-5.149-20.502c-5.806-4.221 8.402-6.689 8.402-6.689z" fill="#F8A090"/><path d="M634.875 300.02l-9.829 77.184 12.76 89.958 20.865-.913s11.887-48.392 11.094-61.737c-.794-13.344-7.299-21.103-2.772-38.504 7.55-29.021-1.772-64.371-1.772-64.371l-30.346-1.617" fill="#23518D"/><path d="M637.806 467.162l-5.165-36.414c10.485-10.245 18.782-22.084 18.788-30.635.004-6.89-5.376-11.645-19.334-11.712h-.276c-1.742 0-3.458.078-5.152.231l-1.621-11.428 8.156-64.037c.781.32 1.528.457 2.257.457 2.263 0 4.379-1.323 6.991-2.647 1.315-.666 2.753-1.333 4.4-1.83l8.936 25.63c.103 13.182-.601 27.983-3.477 38.447-2.251 8.187 3.516 15.987 6.874 30.384 1.736 7.437 3.098 50.435-2.217 62.716l1.705-.075-1.705.075-16.036.7-3.124.138" fill="#214982"/><path d="M656.966 466.324c5.315-12.281 3.954-55.279 2.218-62.716-3.359-14.397-9.126-22.197-6.875-30.384 2.876-10.464 3.58-25.265 3.477-38.447l11.072 31.759c-1.049 4.195-1.453 7.824-1.455 11.112-.002 10.061 3.77 16.908 4.362 26.864.025.431.037.897.037 1.397.003 15.018-11.13 60.34-11.13 60.34l-1.706.075" fill="#224278"/><path d="M639.729 288.721l33.352 95.664 53.593 78.22 15.462-7.673-7.244-39.372a53.098 53.098 0 00-12.632-25.777l-7.075-7.914a36.353 36.353 0 01-8.797-18.524s-5.228-35.817-7.56-47.65c-2.324-11.782-14.79-26.974-14.79-26.974h-44.309" fill="#23518D"/><path d="M642.111 230.627l-3.646-17.922-26.669 34.363-41.203-2.413-4.608 10.961 49.153 10.471 28.155-16.606-1.182-18.854" fill="#55C6CA"/><path d="M615.138 266.087l-38.513-8.204-10.64-2.267 4.608-10.961 41.203 2.413 22.077-28.445c-1.71 4.672-3.387 11.488-4.28 21.269-.424 4.643-1.063 11.251-1.623 18.627l-12.832 7.568" fill="#4FC4C8"/><path d="M657.464 195.973s-1.791 9.962-18.22 13.318c0 0-7.375 5.674-9.651 30.601-1.689 18.488-6.772 68.197 3.16 73.072 3.416 1.677 6.084-.155 9.697-1.987 3.495-1.772 7.875-3.544 14.675-2.142 28.403 5.858 41.663 1.876 41.736-8.771.04-5.771-8.687-46.451-13.811-61.764-5.124-15.315-16.106-39.735-27.586-42.327z" fill="#55C6CA"/><path d="M589.226 279.323l-69.3-48.767a4.457 4.457 0 01-1.081-6.209l4.592-6.526a4.456 4.456 0 016.209-1.08l69.302 48.767a4.459 4.459 0 011.08 6.211l-4.591 6.524a4.459 4.459 0 01-6.211 1.08" fill="#1F3864"/><path d="M494.87 217.24l12.592 8.395 12.188-6.502 1.312-13.75-12.592-8.394-5.392-11.392c6.359-1.144 13.148.056 18.948 3.923 11.903 7.935 15.12 24.017 7.184 35.92-7.934 11.904-24.016 15.12-35.92 7.185-5.8-3.866-9.518-9.672-10.909-15.981l12.589.596" fill="#1F3864"/><path d="M626.886 291.155c-.116-.5-1.492-6.734.047-14.43-.164 4.987-.205 9.9-.047 14.43z" fill="#54BACB"/><path d="M626.933 291.187h-.04l-.007-.032c-.158-4.53-.117-9.443.047-14.43.344-1.718.833-3.51 1.515-5.328 2.061-5.496 7.342-6.778 11.822-6.778 3.92 0 7.226.982 7.226.982l9.149-16.329 9.113-1.24s-10.786 43.155-38.825 43.155z" fill="#43BABF"/><path d="M646.397 153.661c-7.571-2.861-14.487-1.17-20.904 7.515-3.835 5.189-2.759 11.64-5.644 14.208-1.903 1.691-2.868 1.093-2.433 2.405.582 1.754 2.503 2.37 2.503 2.37s-.205 12.113 6.369 15.862c5.914 3.374 18.972 1.522 24.75-7.122 3.551-5.311 12.713-28.679-4.641-35.238z" fill="#F8A090"/><path d="M633.462 197.689c-2.75 0-5.264-.577-7.174-1.668 1.824 1.04 4.329 1.584 7.089 1.584 1.181 0 2.409-.1 3.651-.301l.029.071a21.1 21.1 0 01-3.595.314z" fill="#B8B6AF"/><path d="M637.057 197.375l-.029-.071c1.489-.244 3-.635 4.472-1.18-1.472.58-2.968.995-4.443 1.251z" fill="#F57F70"/><path d="M633.377 197.605c-2.76 0-5.265-.544-7.089-1.584-.163-.093-.303-.212-.458-.314 5.92-.302 10.723-5.484 14.614-11.415 1.418-2.163 3.76-7.645 4.772-13.636l.21-.2-.621 4.617c.725 1.468 1.617 2.23 2.527 2.49-.02.184-.042.37-.064.558-.668 5.464 1.226 8.978 3.442 11.174-.045.06-.09.117-.134.173-2.516 3.151-5.73 5.335-9.076 6.656a24.193 24.193 0 01-4.472 1.18c-1.242.201-2.47.301-3.651.301" fill="#F57F70"/><path d="M649.75 173.563s-.584-8.935-9.881-11.21c-5.268-1.289-13.143.864-17.969-7.524-1.616-2.809-.007-9.269-.007-9.269s3.663 5.775 5.264 5.405c1.6-.369-2.987-4.3-1.076-7.152 0 0 3.065 4.318 5.469 4.862 0 0-3.757-3.126-2.101-4.856 0 0 3.427 3.47 8.235 4.138 2.533.352 15.418 2.651 19.298 8.346 3.758 5.514 4.438 8.91 2.65 14.57-1.788 5.662-9.882 2.69-9.882 2.69" fill="#15141A"/><path d="M642.249 157.515s6.817 5.873 5.019 20.606c-1.435 11.743 8.96 14.476 8.96 14.476s.388-6.737 3.153-11.417c2.768-4.681 6.652-18.481-3.569-25.8-6.715-4.809-13.563 2.135-13.563 2.135" fill="#15141A"/><path d="M641.089 156.985l-1.22 5.368s4.608 1.542 2.785 10.42c0 0 7.454-5.145 8.151-11.501.531-4.843.8-2.579.8-2.579l-10.516-1.708" fill="#15141A"/><path d="M645.432 170.424s1.77-2.924 3.962-2.957c2.192-.035 3.363 3.452 2.596 6.592-.766 3.14-4.848 5.748-7.185 1.014l.627-4.649" fill="#F8A090"/><path d="M648.076 177.665c-1.155 0-2.348-.724-3.271-2.592l.627-4.649s1.77-2.924 3.962-2.957l.034-.002c1.716 0 2.797 2.171 2.797 4.624 0 .648-.076 1.318-.235 1.97-.464 1.901-2.142 3.606-3.914 3.606z" fill="#F57F70"/><path d="M631.344 257.508s2.78-20.956 4.341-25.923c1.724-5.486 2.972-6.589 4.431-6.589.277 0 .563.04.862.097 1.387.268-1.085 4.916-1.085 4.916l-8.549 27.499" fill="#43BABF"/><path d="M551.994 256.031c7.044-1.363 19.228.346 20.914-3.368 1.149-2.536.694-4.238.185-5.163a.728.728 0 01.668-1.088c1.291.059 3.832.58 8.791 2.539 2.522.996 7.901 3.053 7.901 3.053s1.039 14.388-3.643 12.739c-4.681-1.651-17.15 2.089-22.08.416-2.158-.734-3.302-1.238-3.908-2.22-.889-.076-2.42-.384-3.148-.778-1.458-.788-2.013-1.712-2.26-2.232-2.097-.373-3.224-1.333-3.836-2.265-.428-.656-.352-1.485.416-1.633" fill="#F8A390"/><path d="M668.884 228.068c-2.112-11.115-22.87-13.107-27.906-2.975a37.24 37.24 0 00-1.061 2.339c-4.389 10.584-8.573 30.076-8.573 30.076l-43.858-8.511-3.754 16.059s29.31 16.467 50.537 14.873c21.227-1.594 32.569-33.096 34.26-40.15.713-2.976 1.169-7.42.355-11.711" fill="#55C6CA"/><path d="M729.138 467.162c-1.01-.225-1.99-.429-2.994-.539-.999-.154-2.003-.187-3.036-.299 1.008-.271 2.061-.263 3.096-.157 1.02.165 2.058.413 2.934.995zm-3.016 3.43c-1.01-.224-1.99-.427-2.993-.537-.999-.155-2.003-.188-3.036-.3 1.008-.271 2.063-.262 3.095-.156 1.022.165 2.06.412 2.934.993m-3.015 3.43c-1.009-.224-1.99-.426-2.994-.537-.999-.153-2.003-.188-3.035-.3 1.008-.27 2.061-.261 3.095-.156 1.021.167 2.058.414 2.934.993m-83.446-1.309c-.801-.656-1.584-1.278-2.431-1.831-.821-.588-1.701-1.07-2.573-1.636 1.021.212 1.957.697 2.833 1.255.836.61 1.651 1.299 2.171 2.212m-4.239 1.702c-.801-.655-1.585-1.279-2.429-1.831-.823-.587-1.703-1.072-2.575-1.638 1.022.214 1.959.698 2.834 1.258.836.609 1.65 1.297 2.17 2.211m-4.238 1.701c-.802-.656-1.584-1.28-2.431-1.832-.821-.587-1.703-1.069-2.573-1.635 1.021.213 1.958.696 2.832 1.255.837.611 1.65 1.3 2.172 2.212" fill="#fff"/><path d="M239.202 231.621l-44.941 273.19h9.539l43.23-273.72-7.828.53zm62.372 0l44.942 273.19h-9.539l-43.231-273.72 7.828.53z" fill="#181720"/><path d="M228.441 318.904h86.087v-6.929h-86.087v6.929zm-11.392 67.868h108.872v-6.931H217.049v6.931zm-11.395 70.755h129.762v-6.93H205.654v6.93z" fill="#181720"/><path d="M236.848 245.939l.569-4.311h.14l-.709 4.311zm8.517-4.306l.001-.005-.001.005z" fill="#11100F"/><path d="M244.606 245.94h-7.758v-.001l.709-4.311h7.809l-.001.005-.759 4.307z" fill="#100F0D"/><path d="M227.15 241.628h103.904v-14.697H227.15v14.697z" fill="#181720"/><path d="M351.042 304.617s-1.046 11.762 1.648 12.292c2.695.534 32.479.77 34.342-3.269 1.861-4.039-21.879-9.393-21.879-9.393L363 299.665l-11.958 4.952z" fill="#15141A"/><path d="M337.43 217.327s5.059 18.218 9.212 28.34c4.154 10.12 18.938 58.472 18.938 58.472l-14.778 4.532s-40.246-34.987-30.42-53.42c9.826-18.434 17.048-37.924 17.048-37.924" fill="#26489D"/><path d="M350.802 308.671s-24.83-21.587-30.724-39.782c7.454-16.834 15.07-35.321 17.754-46.113.2-.805.352-1.628.446-2.467 1.615 5.588 5.246 17.756 8.364 25.358 4.154 10.12 18.938 58.472 18.938 58.472l-.384.117-14.348 4.401-.046.014" fill="#283B81"/><path d="M288.61 294.205s-11.2 6.544-10.373 11.756c.745 4.7 24.556 24.158 29.032 22.727 4.476-1.432-8.628-23.727-8.628-23.727l2.363-4.972-12.394-5.784" fill="#15141A"/><path d="M269.005 68.715l-8.216 6.573s1.799 10.1-8.005 22.841c-5.899 7.664 23.182 7.49 23.182 7.49l-1.184-15.215-5.777-21.69z" fill="#F8A390"/><path d="M238.058 180.344c-6.692 1.224-10.926.965-15.548 5.959-4.157 4.49-8.601 29.57 4.683 36.781 17.625 9.567 75.833 7.087 75.833 7.087s-11.769 4.53-14.325 27.102c-2.555 22.572-5.961 40.459-5.961 40.459l20.016 8.519s29.232-59.975 35.076-83.475c2.366-9.515-2.087-21.644-24.659-29.736-18.279-6.552-58.133-15.804-75.115-12.696" fill="#26489D"/><path d="M278.5 53.076c10.94-1.376 21.902 6.945 18.638 21.221-.06.263-.478 5.015 2.354 6.666.59.345.716 1.121.3 1.656-.682.876-1.326 1.896-3.483 2.093-3.411 11.248-11.344 15.679-16.64 15.253-10.937-.88-16.989-12.986-18.143-23.79-1.42-13.308 6.89-21.832 16.974-23.099z" fill="#F8A390"/><path d="M277.778 99.687c-6.853-1.434-11.569-7.454-14.141-14.436l.003-.004a.062.062 0 00.002.006s2.919-3.01 6.424-7.729c.392.199.812.31 1.25.31.232 0 .466-.031.706-.095l3.324-7.28s-.096-.246-.276-.616c1.239-3.282-.685-6.942 2.562-7.479l-.054-.022c.223-.034.479-.05.762-.05 1.222 0 2.972.292 4.977.65-4.34 4.51-7.451 11.075-8.403 18.051-.476 3.503-2.084 15.711 2.864 18.694" fill="#F78D79"/><path d="M284.277 132.003l-6.895-28.187s-13.088-.897-21.818-9.479c-4.572-4.493-45.304 58.238-37.162 107.686 0 0 1.328-10.738 31.582-14.652 8.309-1.075 15.894-.526 22.07.022 10.732.955 17.208 1.91 15.84-5.661-2.772-15.343-3.617-49.729-3.617-49.729" fill="#287477"/><path d="M332.462 204.448a28.8 28.8 0 00-1.212-1.208l27.811-23.029c.28.097.583.19.916.274l-27.515 23.963" fill="#B4E4C2"/><path d="M313.172 221.248l-26.632-34.291c.361-.248.661-.546.898-.904l26.263 31.718 17.549-14.531c.426.4.83.804 1.212 1.208l-19.29 16.8z" fill="#264287"/><path d="M373.877 167.943l10.192-8.439-9.535 8.304c-.225.048-.444.093-.657.135" fill="#1E4978"/><path d="M286.54 186.957l-20.792-26.773 4.993-4.005.011.009-4.772 3.951 7.826 9.452 13.632 16.462a3.301 3.301 0 01-.898.904" fill="#246766"/><path d="M313.701 217.771l82.365-68.202-47.721-57.632-82.365 68.202 47.721 57.632z" fill="#B9E7D6"/><path d="M273.806 169.591l82.366-68.203-7.827-9.45-82.365 68.201 7.826 9.452z" fill="#3D83CC"/><path d="M323.562 162.88l44.447-36.804-12.248-14.792-44.447 36.804 12.248 14.792z" fill="#F9A50D"/><path d="M307.166 195.548l70.222-58.147-4.918-5.938-70.221 58.146 4.917 5.939zm7.036 8.497l70.222-58.146-4.918-5.939-70.221 58.147 4.917 5.938z" fill="#3D83CC"/><path d="M297.788 184.221l22.758-18.844-12.248-14.792-22.757 18.846 12.247 14.79z" fill="#F2532D"/><path d="M344.106 173.019l.523-5.068 4.409-5.754 7.614 1.243s16.886-2.976 16.497 3.228c-.057.921-1.476.448-2.932-.025-1.529-.498-3.101-.995-3.175.13-.01.16-.064.326-.102.49.92.89 2.874 1.588 7.73.514 0 0 .259 5.043-3.042 5.848-3.396.827-1.103 3.654-4.244 4.012-2.616.3.286 3.902-5.296 3.231-4.998-.6-5.323-2.387-7.914-3.355l-8.928-2.242-1.14-2.252" fill="#F8A390"/><path d="M284.73 144.612c-.141-3.208-.246-6.02-.318-8.171l5.798 3.635-5.48 4.536z" fill="#1E4978"/><path d="M270.741 156.179c-7.809-6.818-10.997-12.795-10.997-12.795l14.696-13.192 9.972 6.249c.072 2.151.177 4.963.318 8.171l-13.277 10.995-.712.572" fill="#246766"/><path d="M270.752 156.188l-.011-.009.712-.572-.701.581z" fill="#205D57"/><path d="M349.788 177.885s-1.36-.097-3.656-.28l1.421-1.176 2.235 1.456zm-14.599-1.228a766.499 766.499 0 01-4.66-.454l7.34-6.078 2.916 1.898-5.596 4.634zm-15.327-1.632a312.715 312.715 0 01-9.424-1.278l10.108-8.37-10.824-13.073 10.567 6.624 3.273 3.952 1.307-1.083 5.616 3.52.616.402-11.239 9.306zm-31.79-7.69a76.6 76.6 0 01-7.05-3.72l20.139-16.676 6.569 4.117-19.658 16.279z" fill="#85D5B6"/><path d="M281.022 163.615a70.83 70.83 0 01-10.27-7.427l19.458-16.112 10.951 6.863-20.139 16.676z" fill="#3275B9"/><path d="M323.562 162.88l-3.273-3.952 4.58 2.869-1.307 1.083" fill="#AD9D1E"/><path d="M330.529 176.203a534.04 534.04 0 01-10.667-1.178l11.239-9.306 6.768 4.406-7.34 6.078zm15.603 1.402c-2.632-.208-6.495-.53-10.943-.948l5.596-4.634 4.204 2.737.257.511.855.214 1.452.944-1.421 1.176" fill="#3275B9"/><path d="M310.438 173.747c-5.046-.775-9.46-1.631-12.369-2.548a83.215 83.215 0 01-9.997-3.864l19.658-16.279 1.992 1.248 10.824 13.073-10.108 8.37z" fill="#B45221"/><path d="M346.101 175.485l-.855-.214-.257-.511 1.112.725" fill="#B09D79"/><path d="M259.744 143.384s18.377 15.501 39.234 25.516c0 0 30.119 10.127 53.366 8.489l3.152-14.706-43.844-14.102s-28.768-28.829-34.18-44.301c0 0-18.988 11.212-17.728 39.104" fill="#287477"/><path d="M274.618 70.775c2.108-3.48-.545-7.823 3.014-8.41l-.054-.024c1.466-.224 4.295.348 7.538.922 6.886 1.214 15.637 2.43 17.158-3.984 0 0-2.842.19-4.494-.812 0 0 4.926.15 8.264-4.512 0 0-7.684 1.301-10.831-.71 0 0 5.884.244 7.801-1.945 0 0-9.13-.539-11.576-2.052-6.344-3.925-14.241-3.595-19.669-2.284-5.427 1.31-8.831 2.607-12.18 9.37-2.891 5.834 4.053 28.92 4.053 28.92s5.883-6.07 10.976-14.48" fill="#15141A"/><path d="M268.369 57.401l-6.593-4.63s-3.038 2.889-4.988 11.74c-1.952 8.852 2.538 16.8-1.01 20.685 0 0 2.032-.452 2.895-1.779 0 0-1.243 5.95-5.292 6.695 0 0 5.225-.797 6.78-3.53 0 0-.985 4.415-3.785 5.234 0 0 5.242-.188 6.222-4.376.98-4.19 6.034-4.524 7.88-14.953 1.847-10.432-2.109-15.086-2.109-15.086" fill="#15141A"/><path d="M275.346 70.459s-2.18-5.615-5.381-3.639c-5.127 3.164-2.056 12.025 2.057 10.919l3.324-7.28" fill="#F8A390"/><path d="M271.316 77.833c-.739 0-1.427-.314-2.019-.841-1.213-1.081-2.02-3.06-2.019-5.06.002-1.955.772-3.93 2.687-5.112.48-.296.936-.421 1.365-.421 2.439 0 4.016 4.06 4.016 4.06l-3.324 7.28c-.24.064-.474.094-.706.094z" fill="#F78D79"/><path d="M27.304 180.951c0 44.414 36.005 80.421 80.42 80.421 44.414 0 80.42-36.007 80.42-80.421 0-44.415-36.006-80.42-80.42-80.42-44.415 0-80.42 36.005-80.42 80.42" fill="#F9A50D"/><path d="M158.534 170.487l-7.536 13.185-8.394.435-8.446-9.879 1.735-8.225 14.196-5.394-2.067-2.418-17.781 2.257-5.221 20.116 10.11 11.827 20.684-2.031 4.994-17.213-2.274-2.66m-66.989 61.874l17.781-2.257 5.222-20.116-10.111-11.825-20.684 2.029-4.995 17.213 2.068 2.419 7.535-13.185 8.396-.435 8.444 9.879-1.735 8.225-14.196 5.393 2.275 2.66" fill="#fff"/><path d="M103.005 198.94l10.373 12.135 24.228-20.714-10.373-12.134-24.228 20.713zM81.01 164.212l11.682 12.12 3.828-3.689-11.683-12.12-3.827 3.689" fill="#fff"/><path d="M83.248 166.36l7.378 7.656-1.71 7.8-26.932 25.96-13.527-14.033 26.932-25.96 7.859-1.423z" fill="#fff"/><path d="M70.048 182.521l3.688 3.826 51.002-49.162-3.688-3.825-51.002 49.161z" fill="#fff"/><path d="M119.266 135.003l3.726 3.865 7.666-4.513 3.986-8.335-2.246-2.328-8.474 3.675-4.658 7.636" fill="#fff"/><path d="M155.124 66.147c2.37-11.319 13.468-18.575 24.788-16.206 11.32 2.37 18.576 13.468 16.205 24.788-2.369 11.32-13.467 18.575-24.787 16.206-11.32-2.37-18.576-13.467-16.206-24.788zm-7.066-1.479c-3.185 15.223 6.571 30.145 21.794 33.332 15.221 3.187 30.144-6.57 33.33-21.792 3.187-15.223-6.569-30.145-21.792-33.332-15.221-3.187-30.145 6.57-33.332 21.792" fill="#55C6CA"/><path d="M173.745 45.432l13.615 2.85 1.901-9.077-13.616-2.85-1.9 9.077m18.455 6.116l7.613 11.643 7.761-5.075-7.612-11.643-7.762 5.075zm8.725 17.375l-2.849 13.614 9.076 1.902 2.85-13.616-9.077-1.9m-6.116 18.456l-11.643 7.612 5.075 7.761 11.643-7.612-5.075-7.761zm-17.375 8.724l-13.616-2.851-1.9 9.077 13.616 2.851 1.9-9.077zm-18.456-6.116l-7.612-11.643-7.761 5.073 7.612 11.644 7.761-5.074zm-8.724-17.375l2.851-13.616-9.077-1.9-2.851 13.616 9.077 1.9zm6.116-18.456l11.643-7.612-5.075-7.761-11.642 7.612 5.074 7.761" fill="#55C6CA"/><path d="M593.241 66.672c6.952-15.815 25.407-23 41.221-16.05 15.815 6.953 23 25.407 16.048 41.222-6.952 15.815-25.405 23-41.221 16.048-15.814-6.951-23-25.405-16.048-41.22zm-9.87-4.339c-9.348 21.266.314 46.083 21.579 55.43 21.267 9.348 46.084-.315 55.431-21.58 9.346-21.266-.315-46.083-21.58-55.43-21.266-9.348-46.084.314-55.43 21.58" fill="#F9A50D"/><path d="M626.838 42.132l19.023 8.361 5.573-12.68-19.021-8.362-5.575 12.681m25.089 14.625l7.539 19.362 12.908-5.026-7.539-19.361-12.908 5.025zm7.399 28.083l-8.361 19.02 12.681 5.575 8.36-19.022-12.68-5.573m-14.625 25.088l-19.363 7.539 5.027 12.908 19.36-7.539-5.024-12.908m-28.083 7.399l-19.02-8.362-5.574 12.682 19.021 8.36 5.573-12.68zm-25.088-14.626l-7.537-19.362-12.91 5.025 7.539 19.363 12.908-5.026m-7.398-28.082l8.361-19.022-12.681-5.573-8.362 19.021 12.682 5.574zm14.625-25.089l19.361-7.538-5.024-12.908-19.362 7.539 5.025 12.908" fill="#F9A50D"/><path d="M70.833 65.832c-2.255-9.013 3.224-18.147 12.237-20.401 9.012-2.255 18.147 3.224 20.4 12.236 2.255 9.013-3.224 18.146-12.236 20.401-9.013 2.255-18.146-3.224-20.401-12.236zm-5.624 1.407c3.032 12.118 15.313 19.485 27.432 16.454 12.12-3.032 19.487-15.314 16.455-27.433S93.782 36.775 81.662 39.805C69.544 42.837 62.177 55.12 65.21 67.24z" fill="#F2532D"/><path d="M77.032 44.332l10.84-2.712-1.807-7.227-10.841 2.712 1.808 7.227zm15.484-2.048l9.582 5.748 3.831-6.388-9.583-5.748-3.83 6.388zm12.394 9.501l2.712 10.84 7.227-1.807-2.712-10.84-7.227 1.807zm2.048 15.483l-5.748 9.583 6.388 3.832 5.748-9.583-6.388-3.832zm-9.5 12.396l-10.841 2.712 1.808 7.227 10.84-2.712-1.807-7.227zM81.974 81.71l-9.582-5.746-3.831 6.388 9.581 5.748 3.832-6.39zm-12.396-9.5l-2.71-10.84-7.227 1.809 2.712 10.84 7.225-1.809zm-2.046-15.482l5.748-9.583-6.39-3.832-5.746 9.583 6.388 3.832zm619.352 130.619c0-8.068 6.541-14.608 14.61-14.608 8.067 0 14.608 6.54 14.608 14.608 0 8.068-6.541 14.608-14.608 14.608-8.069 0-14.61-6.54-14.61-14.608zm-5.035 0c0 10.849 8.796 19.644 19.645 19.644 10.848 0 19.643-8.795 19.643-19.644 0-10.85-8.795-19.644-19.643-19.644-10.849 0-19.645 8.794-19.645 19.644z" fill="#F2532D"/><path d="M696.638 170.54h9.704v-6.469h-9.704v6.469zm13.475 1.539l6.862 6.861 4.575-4.575-6.863-6.861-4.574 4.575zm8.441 10.616v9.704h6.47v-9.704h-6.47zm-1.538 13.476l-6.86 6.861 4.573 4.575 6.863-6.862-4.576-4.574m-10.616 8.44h-9.704v6.47h9.704v-6.47zm-13.475-1.538l-6.863-6.861-4.573 4.573 6.861 6.863 4.575-4.575zm-8.442-10.617v-9.704h-6.469v9.704h6.469zm1.539-13.475l6.862-6.862-4.575-4.574-6.863 6.862 4.576 4.574" fill="#F2532D"/><path d="M16.352 279.808c0-8.068 6.541-14.608 14.609-14.608s14.608 6.54 14.608 14.608c0 8.069-6.54 14.609-14.608 14.609-8.068 0-14.609-6.54-14.609-14.609zm-5.035 0c0 10.849 8.795 19.644 19.644 19.644 10.85 0 19.644-8.795 19.644-19.644 0-10.849-8.795-19.643-19.644-19.643-10.85 0-19.644 8.794-19.644 19.643z" fill="#3D83CC"/><path d="M26.105 263.001h9.704v-6.469h-9.704v6.469zm13.475 1.539l6.862 6.861 4.575-4.573-6.861-6.863-4.575 4.575zm8.442 10.617v9.703h6.47v-9.703h-6.47zm-1.538 13.475l-6.862 6.863 4.575 4.573 6.861-6.861-4.574-4.575zm-10.616 8.441h-9.704v6.47h9.704v-6.47zm-13.476-1.538l-6.862-6.863-4.575 4.576 6.862 6.861 4.575-4.574m-8.442-10.616v-9.704H7.482v9.704h6.47zm1.54-13.476l6.862-6.862-4.576-4.576-6.861 6.863 4.574 4.575" fill="#3D83CC"/><path d="M502.738 90.115c-2.394-8.552 2.596-17.427 11.148-19.823 8.554-2.395 17.428 2.596 19.824 11.15 2.395 8.551-2.597 17.426-11.149 19.822-8.552 2.395-17.427-2.597-19.823-11.15zm-5.337 1.496c3.22 11.5 15.155 18.212 26.655 14.99 11.5-3.221 18.213-15.154 14.992-26.656-3.22-11.5-15.156-18.212-26.656-14.99-11.5 3.22-18.212 15.154-14.991 26.656" fill="#55C6CA"/><path d="M508.088 69.404l10.288-2.881-1.922-6.858-10.288 2.882 1.922 6.857zm14.741-2.371l9.31 5.238 3.493-6.208-9.311-5.236-3.492 6.206m12.1 8.748l2.881 10.287 6.856-1.92-2.88-10.287-6.857 1.92m2.369 14.742l-5.237 9.31 6.209 3.492 5.235-9.31-6.207-3.492zm-8.748 12.1l-10.285 2.88 1.92 6.857 10.287-2.88-1.922-6.857m-14.74 2.369l-9.312-5.236-3.49 6.207 9.31 5.236 3.492-6.207m-12.1-8.747l-2.881-10.288-6.857 1.922 2.881 10.286 6.857-1.92zm-2.371-14.742l5.238-9.31-6.207-3.492-5.237 9.311 6.206 3.49" fill="#55C6CA"/><path d="M572.304 486.413s9.262-24.305 35.67-37.384c26.407-13.08 68.372-60.417 24.122-60.628-44.254-.209-72.832 49.962-74.307 89.119l14.515 8.893" fill="#287477"/><path d="M575.629 479.722h-6.175a92.088 92.088 0 01.047-9.3c6.675-15.465 21.163-43.193 45.612-62.493 0 0-25.64 11.294-43.304 45.439 2.451-11.239 7.217-24.405 16.283-37.203 3.277-4.628 6.484-10.288 9.418-16.509 9.919-6.999 21.45-11.255 34.31-11.255h.276c13.957.067 19.337 4.822 19.333 11.712-.005 8.551-8.303 20.39-18.788 30.635-7.849 7.669-16.928 14.448-24.667 18.281-17.672 8.752-27.666 22.532-32.345 30.693" fill="#225F63"/><path d="M569.501 470.422c.253-4.757.897-10.585 2.308-17.054 17.664-34.145 43.304-45.439 43.304-45.439-24.449 19.3-38.937 47.028-45.612 62.493z" fill="#1B4649"/><path d="M569.728 483.223s-4.556-34.7 18.364-67.058c22.918-32.358 42.38-115.225-10.16-87.209-52.543 28.019-54.342 105.692-31.075 153.007l22.871 1.26" fill="#287477"/><path d="M555.474 431.964a88.175 88.175 0 00-6.098-11.583c4.848-36.805 20.918-57.452 20.918-57.452-10.116 23.41-13.873 48.156-14.82 69.035" fill="#205559"/><path d="M549.496 486.341s-5.251-22.745-27.122-37.62c-21.873-14.872-53.369-62.114-13.998-56.866 39.369 5.25 58.616 53.368 55.116 88.364l-13.996 6.122z" fill="#287477"/><path d="M563.541 479.722h-3.953c-7.344-49.213-38.514-68.419-38.514-68.419 20.286 21.12 29.72 49.119 33.415 63.155-6.495-20.112-24.372-40.73-46.183-40.73-.682 0-1.37.02-2.061.061-9.133-10.616-16.613-23.356-16.615-32.069-.001-6.132 3.706-10.271 13.148-10.271 1.682 0 3.54.131 5.598.406 36.332 4.845 55.526 46.198 55.521 80.056 0 2.657-.119 5.265-.356 7.811" fill="#225F63"/><path d="M559.588 479.722h-3.659a59.278 59.278 0 00-1.44-5.264c-3.695-14.036-13.129-42.035-33.415-63.155 0 0 31.17 19.206 38.514 68.419" fill="#1B4649"/><path d="M548.273 487.935s-7.919-13.859-25.171-19.286c-17.249-5.427-47.18-30.15-20.37-34.473 26.81-4.321 48.894 23.389 53.5 46.989l-7.959 6.77" fill="#287477"/><path d="M552.658 479.722h-3.121c-5.005-8.282-16.828-25.269-34.657-35.315 0 0 23.196 6.165 37.778 35.315z" fill="#205559"/><path d="M126.758 489.632c13.368 5.116 28.872-11.283 35.475-45.932 9.525-49.981 33.46-63.031 33.46-63.031s-51.235-11.173-73.575 58.184c-10.046 31.191-7.216 46.241 4.64 50.779" fill="#287477"/><path d="M147.35 481.184h-15.344l.011-.265c5.9-7.349 8.841-20.335 8.26-40.351 6.904-19.801 15.584-33.736 15.584-33.736-6.479 9.228-11.732 17.764-15.993 25.54a256.242 256.242 0 00-.674-7.917 179.594 179.594 0 00-2.345-16.227c17.325-24.56 39.3-28.221 50.875-28.221 4.925 0 7.969.662 7.969.662s-8.804 4.799-17.857 19.727a97.634 97.634 0 00-3.78 6.851c-4.563 9.096-8.88 21.01-11.823 36.453-.064.335-.129.669-.195 1-3.037 15.377-7.84 27.077-13.418 34.809a42.126 42.126 0 01-1.27 1.675" fill="#236468"/><path d="M132.006 481.184h-.205c.072-.087.145-.176.216-.265l-.011.265zm8.271-40.616a206.253 206.253 0 00-.409-8.196c4.261-7.776 9.514-16.312 15.993-25.54 0 0-8.68 13.935-15.584 33.736z" fill="#152B2D"/><path d="M119.244 488.232c-18.536 2.868-33.876-22.419-32.779-68.632 1.581-66.663-25.485-89.983-25.485-89.983s68.724-.184 78.214 94.838c4.27 42.731-3.508 61.233-19.95 63.777" fill="#287477"/><path d="M126.776 481.184H113.83c11.059-51.157-9.033-107.063-9.033-107.063 22.692 53.668 23.961 88.279 23.111 102.543a12.533 12.533 0 01-1.132 4.52" fill="#163134"/><path d="M102.545 489.236c-16.495 6.122-35.824-12.956-44.299-53.509-12.228-58.499-41.96-73.57-41.96-73.57s63.298-13.576 91.552 67.515c12.707 36.468 9.338 54.136-5.293 59.564" fill="#287477"/><path d="M112.362 481.184h-4.234c.224-1.202.242-2.459.026-3.738-2.145-12.615-10.42-42.577-42.35-84.995 0 0 28.741 43.006 30.245 88.733H78.476c-8.406-8.931-15.8-24.26-20.23-45.457-12.228-58.499-41.96-73.57-41.96-73.57s3.984-.854 10.396-.854c19.152 0 59.987 7.616 81.156 68.369 5.36 15.385 7.86 27.424 7.86 36.609-.001 6.228-1.149 11.146-3.336 14.903" fill="#236468"/><path d="M108.128 481.184H96.049c-1.504-45.727-30.245-88.733-30.245-88.733 31.93 42.418 40.205 72.38 42.35 84.995a10.654 10.654 0 01-.026 3.738" fill="#152B2D"/><path d="M304.166 315.212c-.621-.497-1.242-.936-1.954-1.117-.698-.243-1.442-.155-2.232-.023a2.689 2.689 0 011.114-.48c.41-.088.84-.04 1.247.061.799.256 1.496.815 1.825 1.559m-1.376-2.992c-.621-.499-1.242-.937-1.954-1.117-.698-.243-1.442-.156-2.232-.023a2.669 2.669 0 011.114-.479c.409-.088.84-.042 1.247.062.8.256 1.496.813 1.825 1.557m-1.813-2.997c-.623-.499-1.243-.936-1.955-1.116-.697-.243-1.442-.158-2.232-.023a2.662 2.662 0 011.115-.48c.408-.088.839-.041 1.245.061.8.256 1.498.815 1.827 1.558" fill="#fff"/></svg>