<svg fill="green" xmlns="http://www.w3.org/2000/svg" viewBox="0 0 512 512"><path d="M234.53 285.912l-64.77-61.653-27.588 28.983 94.603 90.052 144.148-160.495-29.769-26.738z"/><path d="M420.499 65.192c-48.502-8.692-93.168-35.18-115.476-50.195C290.447 5.186 273.496 0 256.001 0s-34.447 5.186-49.022 14.996C184.671 30.011 140.005 56.5 91.503 65.192c-28.726 5.148-49.576 30.002-49.576 59.097v120.71c0 39.877 11.157 78.749 33.159 115.539 17.214 28.781 41.064 56.288 70.888 81.757 50.147 42.825 99.804 65.156 101.892 66.086L256 512l8.134-3.619c2.089-.929 51.745-23.261 101.892-66.086 29.823-25.469 53.675-52.976 70.888-81.757 22.004-36.789 33.159-75.662 33.159-115.539V124.29c.002-29.096-20.848-53.95-49.574-59.098zM430.061 245c0 59.45-30.033 115.375-89.267 166.224-34.432 29.558-69.39 48.824-84.791 56.643C220.601 449.879 81.941 371.328 81.941 245V124.29c0-9.695 6.99-17.985 16.621-19.711 55.718-9.985 105.843-39.616 130.761-56.388 7.947-5.35 17.172-8.178 26.678-8.178s18.732 2.828 26.678 8.177c24.919 16.773 75.043 46.402 130.761 56.387 9.63 1.726 16.621 10.016 16.621 19.711V245z"/></svg>