<svg xmlns="http://www.w3.org/2000/svg" width="512" height="512"><path d="M396 0H116C91.187 0 71 20.187 71 45v422c0 24.813 20.187 45 45 45h280c24.813 0 45-20.187 45-45V45c0-24.813-20.187-45-45-45zm15 467c0 8.271-6.729 15-15 15H116c-8.271 0-15-6.729-15-15v-73.726h310V467zm0-103.726H101v-270h310v270zm0-300H101V45c0-8.271 6.729-15 15-15h280c8.271 0 15 6.729 15 15v18.274z" data-original="#000000" class="active-path" data-old_color="#000000" fill="#FFF"/><path d="M338.106 169.599c-5.857-5.857-15.355-5.857-21.213 0l-85.531 85.531-36.256-36.257c-5.858-5.858-15.355-5.858-21.213 0-5.858 5.857-5.858 15.355 0 21.213l46.863 46.863c5.852 5.853 15.356 5.858 21.213 0l96.137-96.138c5.858-5.857 5.858-15.355 0-21.212zM296 422.637h-80c-8.284 0-15 6.716-15 15s6.716 15 15 15h80c8.284 0 15-6.716 15-15s-6.716-15-15-15z" data-original="#000000" class="active-path" data-old_color="#000000" fill="#FFF"/></svg>