<svg height="512pt" fill="#0C104E" viewBox="0 0 512 511" width="512pt" xmlns="http://www.w3.org/2000/svg"><path d="M512 234.043l-26.93 29.523-23.273-21.23v159.84h-39.961V205.879L256 54.589 90.164 205.88v196.293H50.207V242.336l-23.273 21.23L0 234.043 256 .5zm-222.035 31.266c0-19.309-15.653-34.965-34.965-34.965-19.309 0-34.965 15.656-34.965 34.965 0 11.878 5.93 22.37 14.985 28.687V448.41c-9.055 6.32-14.985 16.809-14.985 28.688 0 19.312 15.656 34.964 34.965 34.964 19.312 0 34.965-15.652 34.965-34.964 0-11.88-5.93-22.368-14.985-28.688V293.996c9.055-6.32 14.985-16.808 14.985-28.687zM166.09 290.285c-19.313 0-34.965 15.652-34.965 34.965 0 11.879 5.93 22.367 14.984 28.688v103.18H98.871c-6.316-9.055-16.809-14.985-28.687-14.985-19.309 0-34.965 15.656-34.965 34.965 0 19.312 15.656 34.965 34.965 34.965 11.878 0 22.37-5.93 28.687-14.985h87.2v-143.14c9.054-6.32 14.984-16.81 14.984-28.688 0-19.313-15.657-34.965-34.965-34.965zm276.722 151.848c-11.878 0-22.367 5.93-28.687 14.984h-48.234v-83.199c9.054-6.32 14.984-16.809 14.984-28.688 0-19.312-15.652-34.964-34.965-34.964s-34.965 15.652-34.965 34.964c0 11.88 5.93 22.368 14.985 28.688v123.16h88.195c6.32 9.055 16.809 14.985 28.687 14.985 19.313 0 34.965-15.653 34.965-34.965 0-19.309-15.652-34.965-34.965-34.965zm0 0"/></svg>