<?xml version="1.0"?>
<svg xmlns="http://www.w3.org/2000/svg" xmlns:xlink="http://www.w3.org/1999/xlink" version="1.1" id="Capa_1" x="0px" y="0px" viewBox="0 0 512 512" style="enable-background:new 0 0 512 512;" xml:space="preserve" width="512px" height="512px"><g><g>
	<g>
		<path d="M396,0H116C91.187,0,71,20.187,71,45v422c0,24.813,20.187,45,45,45h280c24.813,0,45-20.187,45-45V45    C441,20.187,420.813,0,396,0z M411,467c0,8.271-6.729,15-15,15H116c-8.271,0-15-6.729-15-15v-73.726h310V467z M411,363.274H101    v-270h310V363.274z M411,63.274H101V45c0-8.271,6.729-15,15-15h280c8.271,0,15,6.729,15,15V63.274z" data-original="#000000" class="active-path" data-old_color="#000000" fill="#FFFFFF"/>
	</g>
</g><g>
	<g>
		<path d="M338.106,169.599c-5.857-5.857-15.355-5.857-21.213,0l-85.531,85.531l-36.256-36.257c-5.858-5.858-15.355-5.858-21.213,0    c-5.858,5.857-5.858,15.355,0,21.213l46.863,46.863c5.852,5.853,15.356,5.858,21.213,0l96.137-96.138    C343.964,184.954,343.964,175.456,338.106,169.599z" data-original="#000000" class="active-path" data-old_color="#000000" fill="#FFFFFF"/>
	</g>
</g><g>
	<g>
		<path d="M296,422.637h-80c-8.284,0-15,6.716-15,15s6.716,15,15,15h80c8.284,0,15-6.716,15-15S304.284,422.637,296,422.637z" data-original="#000000" class="active-path" data-old_color="#000000" fill="#FFFFFF"/>
	</g>
</g></g> </svg>
