<svg xmlns="http://www.w3.org/2000/svg" height="512" viewBox="0 0 480 480" width="512"><path d="M469.656 216.406l-15.894-2.008 9.832-12.636a11.848 11.848 0 00-.969-15.61l-16.8-16.8a11.829 11.829 0 00-15.602-.97l-12.621 9.856-1.993-15.894A11.823 11.823 0 00403.871 152H380.13a11.684 11.684 0 00-9.434 5l-10.488-17.48a11.692 11.692 0 00-.613-13.29l-9.832-12.628 15.894-1.993A11.823 11.823 0 00376 99.871V76.13a11.827 11.827 0 00-10.344-11.723l-15.894-2.008 9.832-12.636a11.848 11.848 0 00-.969-15.61l-16.8-16.8a11.837 11.837 0 00-15.602-.97l-12.621 9.856-1.993-15.894A11.823 11.823 0 00299.871 0H276.13a11.827 11.827 0 00-11.723 10.344l-2.008 15.894-12.636-9.832a11.848 11.848 0 00-15.61.969l-16.8 16.8a11.837 11.837 0 00-.97 15.602l9.856 12.621-15.894 1.993A11.823 11.823 0 00200 76.129v6.457l-71.762 28.742-13.445-13.45c-5.707-5.706-14.773-6.269-21.145-1.312l-33.992 26.442a125.723 125.723 0 00-5.52-2.305L48.802 78.09c-.965-8.024-7.762-14.067-15.84-14.09H16V0H0v480h16v-64h16.96c8.067-.02 14.856-6.043 15.84-14.047l5.321-42.656a125.381 125.381 0 005.52-2.305l33.918 26.399c6.414 4.988 15.535 4.421 21.28-1.32l16.505-16.47L200 394.962v8.879a11.88 11.88 0 0010.398 11.785l15.848 1.95-9.781 12.593a11.788 11.788 0 00.941 15.648l16.801 16.801a11.805 11.805 0 0015.61.985l12.581-9.825 1.961 15.856A11.874 11.874 0 00276.16 480h23.68a11.88 11.88 0 0011.785-10.398l1.95-15.848 12.593 9.781a11.801 11.801 0 0015.648-.941l16.801-16.801a11.787 11.787 0 00.985-15.61l-9.825-12.581 15.856-1.961A11.874 11.874 0 00376 403.84v-23.68a11.876 11.876 0 00-10.398-11.777l-15.825-1.985 9.782-12.59c3-3.87 3.257-9.203.64-13.343l10.496-17.488A11.684 11.684 0 00380.13 328h23.742a11.827 11.827 0 0011.723-10.344l2.008-15.894 12.636 9.832a11.83 11.83 0 0015.61-.969l16.8-16.8a11.837 11.837 0 00.97-15.602l-9.856-12.621 15.894-1.993A11.823 11.823 0 00480 251.871V228.13a11.827 11.827 0 00-10.344-11.723zm-138.472-40l-14.536-24.222 9.598 7.449a11.83 11.83 0 0015.61-.969l6.984-6.992 14.535 24.223-9.598-7.446a11.852 11.852 0 00-15.609.965zM216 79.824l18.969-2.398a8.004 8.004 0 006.574-5.356 48.94 48.94 0 012.402-5.703 7.997 7.997 0 00-.875-8.43l-11.758-15.074 11.551-11.55 15.106 11.734a7.998 7.998 0 008.43.875 48.714 48.714 0 015.706-2.402 8 8 0 005.352-6.575L279.824 16h16.352l2.398 18.969a8.004 8.004 0 005.356 6.574c1.949.68 3.855 1.48 5.703 2.402a7.997 7.997 0 008.43-.875l15.105-11.734 11.55 11.55-11.765 15.083a7.998 7.998 0 00-.875 8.43 48.714 48.714 0 012.402 5.706 8 8 0 006.575 5.352l18.968 2.398v16.352l-18.968 2.402a7.994 7.994 0 00-6.575 5.352 48.658 48.658 0 01-2.402 5.703 8.004 8.004 0 00.875 8.434l11.735 15.101-11.551 11.555-15.106-11.738a8.003 8.003 0 00-8.43-.938 48.714 48.714 0 01-5.706 2.402 8 8 0 00-5.352 6.575L296.176 160h-16.352l-2.398-18.969a8.004 8.004 0 00-5.356-6.574 48.94 48.94 0 01-5.703-2.402 7.997 7.997 0 00-8.43.875l-15.105 11.734-11.55-11.55 11.734-15.106a8 8 0 00.906-8.406 48.714 48.714 0 01-2.402-5.707 8 8 0 00-6.575-5.352L216 96.176zM16 173.16c30.113 5.813 51.871 32.172 51.871 62.84S46.113 293.027 16 298.84zm87.406 197.602l-37.804-29.395a7.998 7.998 0 00-8.387-.894 109.321 109.321 0 01-12.977 5.375 8 8 0 00-5.406 6.609L32.961 400H16v-84.879c39.176-5.86 68.168-39.508 68.168-79.121S55.176 162.738 16 156.879V80h16.945l5.918 47.52a8.004 8.004 0 005.41 6.609 109.537 109.537 0 0112.973 5.375 8.007 8.007 0 008.387-.895l37.847-29.441 35.274 35.398-29.387 37.832a7.998 7.998 0 00-.894 8.387 109.321 109.321 0 015.375 12.977 8 8 0 006.609 5.406L168 215.039v49.906l-47.52 5.918a8.004 8.004 0 00-6.609 5.41 109.537 109.537 0 01-5.375 12.973 8.007 8.007 0 00.895 8.387l29.441 37.847zm48-45.106l-26.398-33.992c.844-1.894 1.61-3.734 2.304-5.52l42.618-5.312c8.027-.973 14.066-7.785 14.07-15.871v-49.922c-.02-8.066-6.043-14.855-14.047-15.84l-42.656-5.32a129.838 129.838 0 00-2.305-5.52l26.399-33.918c4.984-6.414 4.418-15.535-1.32-21.28l-9.512-9.505L200 99.824v.047a11.827 11.827 0 0010.344 11.723l15.894 1.992-9.832 12.637a11.848 11.848 0 00.969 15.609l16.8 16.8a11.829 11.829 0 0015.602.97l12.621-9.84 1.993 15.894A11.823 11.823 0 00276.129 176h23.742a11.684 11.684 0 009.434-5l10.488 17.48a11.692 11.692 0 00.613 13.29l9.832 12.628-15.894 1.993A11.823 11.823 0 00304 228.129v23.742a11.827 11.827 0 0010.344 11.723l15.894 1.992-9.832 12.637a11.705 11.705 0 00-.613 13.297l-10.488 17.472A11.744 11.744 0 00299.84 304h-23.68a11.88 11.88 0 00-11.785 10.398l-1.977 15.825-12.59-9.782a11.789 11.789 0 00-15.648.942l-16.8 16.8a11.787 11.787 0 00-.985 15.61l9.848 12.605-15.856 1.961a11.711 11.711 0 00-9.918 9.36l-56.914-24.367 6.586-6.582c5.695-5.707 6.258-14.758 1.313-21.122zm190.403-4.265a11.796 11.796 0 00-15.61-.985l-9.535 7.426 14.535-24.2 6.985 6.993a11.82 11.82 0 0015.601.969l9.598-7.45-14.582 24.231zM360 383.809v16.382l-18.984 2.344a8.005 8.005 0 00-6.657 5.602 39.596 39.596 0 01-2.289 5.543 8.003 8.003 0 00.899 8.375l11.726 15.082-11.582 11.582-15.082-11.727a7.994 7.994 0 00-8.375-.894 40.052 40.052 0 01-5.543 2.285 8 8 0 00-5.601 6.656L296.192 464h-16.383l-2.344-18.984a8.005 8.005 0 00-5.602-6.657 39.596 39.596 0 01-5.543-2.289 8.003 8.003 0 00-8.375.899l-15.082 11.726-11.582-11.582 11.727-15.082a7.994 7.994 0 00.894-8.375 40.052 40.052 0 01-2.285-5.543 8 8 0 00-6.656-5.601L216 400.192v-16.383l18.984-2.344a8.005 8.005 0 006.657-5.602 39.596 39.596 0 012.289-5.543 8.003 8.003 0 00-.899-8.375l-11.726-15.082 11.582-11.582 15.082 11.727a7.994 7.994 0 008.375.894 40.052 40.052 0 015.543-2.285 8 8 0 005.601-6.656l2.32-18.961H296.2l2.336 18.96a8.001 8.001 0 005.602 6.68 39.596 39.596 0 015.543 2.29 8.003 8.003 0 008.375-.899l15.082-11.726 11.582 11.582-11.727 15.082a7.994 7.994 0 00-.894 8.375 40.052 40.052 0 012.285 5.543 8 8 0 006.656 5.601zm104-135.633l-18.969 2.398a8.004 8.004 0 00-6.574 5.356 48.94 48.94 0 01-2.402 5.703 7.997 7.997 0 00.875 8.43l11.734 15.105-11.55 11.55-15.106-11.734a8 8 0 00-8.406-.906 48.714 48.714 0 01-5.707 2.402 8 8 0 00-5.352 6.575L400.176 312h-16.352l-2.398-18.969a8.004 8.004 0 00-5.356-6.574 48.94 48.94 0 01-5.703-2.402 7.997 7.997 0 00-8.43.875l-15.105 11.734-11.55-11.55 11.734-15.106a8 8 0 00.906-8.406 48.714 48.714 0 01-2.402-5.707 8 8 0 00-6.575-5.352L320 248.176v-16.352l18.969-2.398a8.004 8.004 0 006.574-5.356 48.94 48.94 0 012.402-5.703 7.997 7.997 0 00-.875-8.43l-11.734-15.105 11.55-11.55 15.106 11.734a7.995 7.995 0 008.434.87 49.309 49.309 0 015.703-2.398 8 8 0 005.351-6.578l2.399-18.965h16.351l2.403 18.965a8 8 0 005.351 6.578 49.08 49.08 0 015.703 2.399 7.995 7.995 0 008.434-.871l15.102-11.735 11.554 11.551-11.738 15.106a8.003 8.003 0 00-.96 8.46 48.714 48.714 0 012.401 5.707 8 8 0 006.575 5.352l18.968 2.398zm0 0" data-original="#000000" class="active-path" data-old_color="#000000" fill="#BDBDBD"/><path d="M392 200c-22.09 0-40 17.91-40 40s17.91 40 40 40 40-17.91 40-40c-.027-22.082-17.918-39.973-40-40zm0 64c-13.254 0-24-10.746-24-24s10.746-24 24-24 24 10.746 24 24-10.746 24-24 24zM288 128c22.09 0 40-17.91 40-40s-17.91-40-40-40-40 17.91-40 40c.027 22.082 17.918 39.973 40 40zm0-64c13.254 0 24 10.746 24 24s-10.746 24-24 24-24-10.746-24-24 10.746-24 24-24zm0 288a40.003 40.003 0 00-36.71 24.234 40.001 40.001 0 007.75 43.301l.05.04c12.57 13.21 32.484 16.245 48.418 7.382 15.933-8.867 23.86-27.387 19.265-45.031C322.18 364.277 306.234 351.973 288 352zm0 64a23.39 23.39 0 01-17.281-7.383l-5.84 5.461 5.777-5.535A23.774 23.774 0 01264 392c0-13.254 10.746-24 24-24s24 10.746 24 24-10.746 24-24 24zm0 0" data-original="#000000" class="active-path" data-old_color="#000000" fill="#BDBDBD"/></svg>