<?xml version="1.0"?>
<svg xmlns="http://www.w3.org/2000/svg" height="512px" viewBox="0 0 256 256" width="512px" class=""><g><path d="m196.183 68.643h48.301v66.107h-48.301z" fill="#f46275" data-original="#F46275" class="" style="fill:#FFB229" data-old_color="#f46275"/><circle cx="83.853" cy="70.242" fill="#f87023" r="12.5" data-original="#F87023"/><circle cx="172.147" cy="70.242" fill="#f8af23" r="12.5" data-original="#F8AF23" class=""/><path d="m193.449 203.871h-130.949v-18.056a53.944 53.944 0 0 1 53.944-53.944h23.111a53.944 53.944 0 0 1 53.945 53.944z" fill="#63bce7" data-original="#63BCE7"/><path d="m134.944 131.871h-18.5a53.944 53.944 0 0 0 -53.944 53.944v18.056h18.5v-18.056a53.944 53.944 0 0 1 53.944-53.944z" fill="#6377e7" data-original="#6377E7"/><rect fill="#f8af23" height="53.419" rx="13.5" width="27" x="114.5" y="95.869" data-original="#F8AF23" class=""/><path d="m114.5 109.369v26.419a13.554 13.554 0 0 0 11.686 13.378v-53.175a13.554 13.554 0 0 0 -11.686 13.378z" fill="#f87023" data-original="#F87023"/><rect fill="#f8af23" height="110.075" rx="44.147" width="88.294" x="83.853" y="12.888" data-original="#F8AF23" class=""/><path d="m102.353 78.816v-21.781a44.314 44.314 0 0 1 34.9-43.157 43.876 43.876 0 0 0 -9.25-.99 44.277 44.277 0 0 0 -44.15 44.147v21.781a44.277 44.277 0 0 0 44.147 44.147 43.876 43.876 0 0 0 9.25-.99 44.314 44.314 0 0 1 -34.897-43.157z" fill="#f87023" data-original="#F87023"/><path d="m114.5 131.906 13.5 17.59-14.625 7.875-5.918-24.755 7.043-7.995z" fill="#f46275" data-original="#F46275" class="" style="fill:#FFB229" data-old_color="#f46275"/><path d="m141.5 131.906-13.5 17.59 14.625 7.875 5.918-24.755-7.043-7.995z" fill="#f46275" data-original="#F46275" class="" style="fill:#FFB229" data-old_color="#f46275"/><path d="m114.541 81.589a2.779 2.779 0 0 1 -2.779 2.78 2.779 2.779 0 0 1 -2.777-2.78v-3.9a2.779 2.779 0 0 1 2.777-2.779 2.78 2.78 0 0 1 2.779 2.779z" fill="#3f3679" data-original="#3F3679" class=""/><path d="m164.8 9.1a22.328 22.328 0 0 0 -17.4 8.312 43.732 43.732 0 0 0 -19.4-4.524 44.277 44.277 0 0 0 -44.147 44.147v9.78h7.272v-5.9s14.722-3.714 14.861-19.964c0 0 18.732 16.629 52.487 11.988a22.375 22.375 0 1 0 6.327-43.839z" fill="#9e9e9e" data-original="#9E9E9E"/><path d="m137.226 13.884a43.768 43.768 0 0 0 -9.226-1 44.277 44.277 0 0 0 -44.147 44.151v9.78h7.272v-5.9a21.634 21.634 0 0 0 11.45-8.284 44.36 44.36 0 0 1 34.651-38.747z" fill="#707070" data-original="#707070"/><path d="m147.015 81.589a2.781 2.781 0 0 1 -2.781 2.78 2.779 2.779 0 0 1 -2.777-2.78v-3.9a2.779 2.779 0 0 1 2.777-2.779 2.781 2.781 0 0 1 2.781 2.779z" fill="#3f3679" data-original="#3F3679" class=""/><path d="m211.344 225.595v2.848a6.719 6.719 0 0 1 -6.7 6.7h-153.289a6.719 6.719 0 0 1 -6.7-6.7v-2.848z" fill="#6377e7" data-original="#6377E7"/><path d="m55.816 146.351h144.367v88.791h-144.367z" fill="#63bce7" data-original="#63BCE7"/><path d="m55.816 146.351h18.5v88.792h-18.5z" fill="#6377e7" data-original="#6377E7"/><path d="m181.684 146.351h18.5v88.792h-18.5z" fill="#63e2e7" data-original="#63E2E7" class=""/><path d="m128 173.892v16.854h-16.854a16.854 16.854 0 1 0 16.854-16.854z" fill="#f8af23" data-original="#F8AF23" class=""/><path d="m128 173.892a16.854 16.854 0 0 0 -16.854 16.854h16.854z" fill="#f46275" data-original="#F46275" class="" style="fill:#FFB229" data-old_color="#f46275"/><path d="m11.516 68.643h48.301v66.107h-48.301z" fill="#f46275" data-original="#F46275" class="" style="fill:#FFB229" data-old_color="#f46275"/><path d="m11.516 68.643h18.5v66.107h-18.5z" fill="#f43075" data-original="#F43075" class="" style="fill:#EB7D16" data-old_color="#f43075"/><path d="m225.984 68.643h18.5v66.107h-18.5z" fill="#f48875" data-original="#F48875" class="active-path" style="fill:#FFCE00" data-old_color="#f48875"/><rect fill="#f8af23" height="11.625" rx="5.812" width="24.375" x="23.479" y="62.83" data-original="#F8AF23" class=""/><rect fill="#f8af23" height="11.625" rx="5.812" width="24.375" x="208.146" y="62.83" data-original="#F8AF23" class=""/><circle cx="35.667" cy="96.699" fill="#63bce7" r="12.33" data-original="#63BCE7"/><rect fill="#f8af23" height="21.127" rx="3.085" width="7.704" x="31.815" y="113.623" data-original="#F8AF23" class=""/><g fill="#3f3679"><path d="m131.124 100.342a1.5 1.5 0 0 0 0 3 6.138 6.138 0 0 0 1.5-12.09v-8.51a1.5 1.5 0 1 0 -3 0v9.83a1.5 1.5 0 0 0 1.5 1.5c.021 0 .042-.005.063-.006a3.139 3.139 0 0 1 -.063 6.277z" data-original="#3F3679" class=""/><path d="m134.428 107.533a1.5 1.5 0 0 0 -2.121 0 6.427 6.427 0 0 1 -10.974-4.544 1.5 1.5 0 0 0 -3 0 9.431 9.431 0 0 0 16.095 6.666 1.5 1.5 0 0 0 0-2.122z" data-original="#3F3679" class=""/><path d="m120.315 69.5a1.5 1.5 0 0 0 -.325-2.1 10.337 10.337 0 0 0 -8.013-1.925 9.309 9.309 0 0 0 -6.15 3.964 1.5 1.5 0 0 0 2.512 1.641 6.3 6.3 0 0 1 4.177-2.653 7.374 7.374 0 0 1 5.7 1.4 1.5 1.5 0 0 0 2.099-.327z" data-original="#3F3679" class=""/><path d="m137.781 69.824a7.378 7.378 0 0 1 5.7-1.4 6.3 6.3 0 0 1 4.177 2.653 1.5 1.5 0 0 0 2.512-1.641 9.309 9.309 0 0 0 -6.15-3.964 10.334 10.334 0 0 0 -8.01 1.928 1.5 1.5 0 1 0 1.771 2.421z" data-original="#3F3679" class=""/><path d="m25.89 245.4h-18.5a1.5 1.5 0 1 0 0 3h18.5a1.5 1.5 0 1 0 0-3z" data-original="#3F3679" class=""/><path d="m248.61 245.4h-18.5a1.5 1.5 0 0 0 0 3h18.5a1.5 1.5 0 0 0 0-3z" data-original="#3F3679" class=""/><path d="m215.337 245.4h-174.674a1.5 1.5 0 0 0 0 3h174.674a1.5 1.5 0 0 0 0-3z" data-original="#3F3679" class=""/><path d="m7.39 236.642h7.943a1.5 1.5 0 1 0 0-3h-7.943a1.5 1.5 0 1 0 0 3z" data-original="#3F3679" class=""/><path d="m239.167 235.142a1.5 1.5 0 0 0 1.5 1.5h7.943a1.5 1.5 0 0 0 0-3h-7.943a1.5 1.5 0 0 0 -1.5 1.5z" data-original="#3F3679" class=""/><path d="m128 209.1a18.354 18.354 0 1 0 -18.354-18.354 18.375 18.375 0 0 0 18.354 18.354zm-1.5-33.636v13.782h-13.782a15.383 15.383 0 0 1 13.782-13.781zm1.5 16.782a1.5 1.5 0 0 0 1.5-1.5v-15.281a15.355 15.355 0 1 1 -16.782 16.782z" data-original="#3F3679" class=""/><path d="m11.516 136.25h22.651v42.5a13.515 13.515 0 0 0 13.5 13.5h6.649v31.848h-9.661a1.5 1.5 0 0 0 -1.5 1.5v2.849a8.16 8.16 0 0 0 1.865 5.2h-19.13a1.5 1.5 0 1 0 0 3h204.22a1.5 1.5 0 0 0 0-3h-19.13a8.16 8.16 0 0 0 1.865-5.2v-2.849a1.5 1.5 0 0 0 -1.5-1.5h-9.661v-31.851h6.649a13.515 13.515 0 0 0 13.5-13.5v-42.5h22.651a1.5 1.5 0 0 0 1.5-1.5v-66.104a1.5 1.5 0 0 0 -1.5-1.5h-10.62a7.324 7.324 0 0 0 -7.156-5.812h-12.75a7.324 7.324 0 0 0 -7.156 5.812h-10.619a1.5 1.5 0 0 0 -1.5 1.5v66.107a1.5 1.5 0 0 0 1.5 1.5h22.65v42.5a10.512 10.512 0 0 1 -10.5 10.5h-6.649v-42.9a1.5 1.5 0 0 0 -1.5-1.5h-23.269a55.178 55.178 0 0 0 -27.588-13.614l-6.327-7.182v-2.135a45.756 45.756 0 0 0 30.32-37.736 13.986 13.986 0 0 0 .31-27.846q-.02-1.323-.117-2.633a23.872 23.872 0 1 0 -26.5-38.138 44.935 44.935 0 0 0 -19.013-4.178 45.691 45.691 0 0 0 -45.629 44.947 13.986 13.986 0 0 0 .308 27.847 45.756 45.756 0 0 0 30.321 37.737v2.135l-6.325 7.18a55.176 55.176 0 0 0 -27.585 13.617h-23.274a1.5 1.5 0 0 0 -1.5 1.5v42.9h-6.649a10.512 10.512 0 0 1 -10.5-10.5v-42.5h22.65a1.5 1.5 0 0 0 1.5-1.5v-66.108a1.5 1.5 0 0 0 -1.5-1.5h-10.617a7.324 7.324 0 0 0 -7.156-5.812h-12.752a7.324 7.324 0 0 0 -7.156 5.812h-10.62a1.5 1.5 0 0 0 -1.5 1.5v66.107a1.5 1.5 0 0 0 1.5 1.5zm202.442-71.92h12.75a4.312 4.312 0 0 1 0 8.625h-12.75a4.313 4.313 0 1 1 0-8.625zm-16.275 5.813h9.117a7.324 7.324 0 0 0 7.156 5.813h12.75a7.324 7.324 0 0 0 7.156-5.812h9.12v63.106h-45.3zm-151.528 158.3v-1.349h8.161v6.547h-2.962a5.2 5.2 0 0 1 -5.199-5.198zm163.689-1.349v1.349a5.2 5.2 0 0 1 -5.2 5.2h-2.962v-6.547zm-60.174-92.742a52.131 52.131 0 0 1 22.63 10.5h-25.14zm-5.594 10.5h-10.62l9.234-12.032a1.5 1.5 0 0 0 .31-.913v-3.312l3.9 4.431zm39.071-74.609a11.009 11.009 0 0 1 -9.559 10.894q.058-1.153.059-2.32v-19.465a11.008 11.008 0 0 1 9.499 10.89zm-55.147-55.855a41.988 41.988 0 0 1 18.74 4.373 1.5 1.5 0 0 0 1.83-.4 20.874 20.874 0 1 1 10.33 33.139 1.51 1.51 0 0 0 -.628-.047c-32.61 4.48-51.1-11.464-51.286-11.624a1.5 1.5 0 0 0 -2.5 1.109c-.128 14.855-13.176 18.38-13.729 18.522a1.5 1.5 0 0 0 -1.133 1.455v4.4h-4.27v-8.28a42.7 42.7 0 0 1 42.646-42.647zm-55.146 55.854a10.978 10.978 0 0 1 9.5-10.894v19.468q0 1.167.059 2.32a11.009 11.009 0 0 1 -9.559-10.894zm12.5 8.574v-10.5h5.771a1.5 1.5 0 0 0 1.5-1.5v-4.816c3.377-1.234 13.221-5.857 14.681-18.137 6.025 4.263 23.558 14.289 51.056 10.6a23.853 23.853 0 0 0 12.212.177c.044.794.073 1.592.073 2.39v21.786a42.646 42.646 0 1 1 -85.293 0zm42.646 45.647a45.522 45.522 0 0 0 12-1.612v8.549l-10.326 13.455h-3.358c-.015-.022-.026-.047-.042-.068l-10.274-13.387v-8.545a45.522 45.522 0 0 0 12 1.608zm-15 4.13v3.312a1.5 1.5 0 0 0 .31.913l9.234 12.032h-10.62l-2.824-11.826zm-6.67 5.76 2.51 10.5h-25.14a52.132 52.132 0 0 1 22.63-10.5zm-49.014 13.5h141.368v85.792h-141.368zm-24-16.185v-14.961a1.587 1.587 0 0 1 1.585-1.584h1.534a1.587 1.587 0 0 1 1.585 1.584v14.958a1.587 1.587 0 0 1 -1.585 1.584h-1.535a1.587 1.587 0 0 1 -1.586-1.583zm2.354-24.138h-.006a10.83 10.83 0 1 1 .006 0zm-6.378-43.2h12.75a4.313 4.313 0 0 1 0 8.625h-12.75a4.313 4.313 0 0 1 0-8.625zm-16.276 5.813h9.12a7.324 7.324 0 0 0 7.156 5.813h12.75a7.324 7.324 0 0 0 7.158-5.813h9.119v63.107h-17.6a4.535 4.535 0 0 0 .3-1.584v-14.959a4.58 4.58 0 0 0 -3.852-4.51v-1.752a13.831 13.831 0 1 0 -3 0v1.755a4.58 4.58 0 0 0 -3.853 4.51v14.958a4.535 4.535 0 0 0 .3 1.584h-17.6z" data-original="#3F3679" class=""/><path d="m215.553 85.562h21.5a1.5 1.5 0 0 0 0-3h-21.5a1.5 1.5 0 0 0 0 3z" data-original="#3F3679" class=""/><path d="m215.553 94.443h21.5a1.5 1.5 0 0 0 0-3h-21.5a1.5 1.5 0 0 0 0 3z" data-original="#3F3679" class=""/><path d="m215.553 103.325h21.5a1.5 1.5 0 0 0 0-3h-21.5a1.5 1.5 0 0 0 0 3z" data-original="#3F3679" class=""/><path d="m215.553 112.206h21.5a1.5 1.5 0 0 0 0-3h-21.5a1.5 1.5 0 0 0 0 3z" data-original="#3F3679" class=""/><path d="m238.553 119.587a1.5 1.5 0 0 0 -1.5-1.5h-21.5a1.5 1.5 0 0 0 0 3h21.5a1.5 1.5 0 0 0 1.5-1.5z" data-original="#3F3679" class=""/><path d="m209.135 80.833-3.716 3.067-.806-.72a1.5 1.5 0 1 0 -2 2.237l1.769 1.583a1.5 1.5 0 0 0 1.954.038l4.709-3.889a1.5 1.5 0 0 0 -1.91-2.313z" data-original="#3F3679" class=""/><path d="m209.135 89.714-3.716 3.068-.806-.72a1.5 1.5 0 1 0 -2 2.237l1.767 1.578a1.5 1.5 0 0 0 1.954.038l4.709-3.889a1.5 1.5 0 0 0 -1.91-2.313z" data-original="#3F3679" class=""/><path d="m209.135 98.724-3.716 3.068-.806-.719a1.5 1.5 0 1 0 -2 2.237l1.767 1.578a1.5 1.5 0 0 0 1.954.038l4.709-3.888a1.5 1.5 0 0 0 -1.91-2.313z" data-original="#3F3679" class=""/><path d="m209.135 107.477-3.716 3.068-.806-.72a1.5 1.5 0 1 0 -2 2.237l1.767 1.578a1.5 1.5 0 0 0 1.954.038l4.709-3.889a1.5 1.5 0 0 0 -1.91-2.313z" data-original="#3F3679" class=""/><path d="m209.135 116.358-3.716 3.068-.806-.719a1.5 1.5 0 1 0 -2 2.237l1.767 1.578a1.5 1.5 0 0 0 1.954.038l4.709-3.889a1.5 1.5 0 0 0 -1.91-2.313z" data-original="#3F3679" class=""/></g></g> </svg>
