<svg xmlns="http://www.w3.org/2000/svg" height="512" viewBox="0 0 24 24" width="512"><path d="M20.25 11a.75.75 0 01-.75-.75v-4.5c0-.689-.561-1.25-1.25-1.25h-7.5a.75.75 0 010-1.5h7.5A2.752 2.752 0 0121 5.75v4.5a.75.75 0 01-.75.75z" data-original="#000000" class="active-path" data-old_color="#000000" fill="#FFF"/><path d="M20.25 11a.744.744 0 01-.53-.22l-1.75-1.75a.75.75 0 01.53-1.28H22a.75.75 0 01.53 1.28l-1.75 1.75a.744.744 0 01-.53.22zm-9 10h-5.5A2.752 2.752 0 013 18.25v-4.5a.75.75 0 011.5 0v4.5c0 .689.561 1.25 1.25 1.25h5.5a.75.75 0 010 1.5z" data-original="#000000" class="active-path" data-old_color="#000000" fill="#FFF"/><path d="M5.5 16.25H2a.75.75 0 01-.53-1.28l1.75-1.75a.75.75 0 011.061 0l1.75 1.75a.75.75 0 01-.531 1.28z" data-original="#000000" class="active-path" data-old_color="#000000" fill="#FFF"/><circle cx="5" cy="2.5" r="2.5" data-original="#000000" class="active-path" data-old_color="#000000" fill="#FFF"/><path d="M7.25 6h-4.5A2.752 2.752 0 000 8.75v.5c0 .414.336.75.75.75h8.5a.75.75 0 00.75-.75v-.5A2.752 2.752 0 007.25 6zM19 19c-1.378 0-2.5-1.122-2.5-2.5S17.622 14 19 14s2.5 1.122 2.5 2.5S20.378 19 19 19zm4.25 5h-8.5a.75.75 0 01-.75-.75v-.5A2.752 2.752 0 0116.75 20h4.5A2.752 2.752 0 0124 22.75v.5a.75.75 0 01-.75.75z" data-original="#000000" class="active-path" data-old_color="#000000" fill="#FFF"/></svg>