<svg width="512" height="512" fill="none" xmlns="http://www.w3.org/2000/svg"><path d="M453.568 225.864l15.56-3.736a104.61 104.61 0 00-5.8-17.32l-14.672 6.408a86.332 86.332 0 014.912 14.648zm2.432 20.48V248c0 43.136-30.832 79.624-73.328 86.776l2.656 15.784C435.544 342.104 472 298.968 472 248v-1.656c0-2.296-.08-4.584-.224-6.872l-15.968 1.064c.128 1.928.192 3.872.192 5.808z" fill="#BDBDBD"/><path d="M472.488 159.272l-46.784-56.128 26.08-45.64A32.166 32.166 0 00456 41.624V40c0-17.648-14.352-32-32-32-10.64 0-16.288 6.464-20.032 10.736-3.488 3.976-4.88 5.264-7.992 5.264-3.12 0-4.504-1.288-8-5.272C384.232 14.456 378.584 8 367.952 8c-10.624 0-16.272 6.464-20.016 10.736-3.472 3.976-4.864 5.264-7.968 5.264s-4.488-1.288-7.96-5.264C328.272 14.464 322.624 8 312 8c-17.648 0-32 14.352-32 32v1.624a32.114 32.114 0 004.216 15.872l26.08 45.64L292.072 125c-11.504-3.168-23.568-5-36.072-5-74.992 0-136 61.008-136 136 0 26.416 7.688 51.016 20.776 71.912L120 348.688l-7.504-7.504-85.936 71.6C14.768 422.608 8 437.056 8 452.416 8 480.856 31.144 504 59.584 504c15.36 0 29.808-6.768 39.632-18.552l71.6-85.936-7.504-7.512 20.776-20.776C204.984 384.312 229.584 392 256 392c23.528 0 45.68-6.016 65-16.576 15.144 5.608 30.912 8.576 47 8.576 74.992 0 136-61.008 136-136v-1.656c0-31.744-11.192-62.664-31.512-87.072zM296 41.624V40c0-8.824 7.176-16 16-16 3.104 0 4.488 1.288 7.96 5.264C323.696 33.536 329.344 40 339.968 40c10.624 0 16.272-6.464 20.016-10.736 3.48-3.976 4.864-5.264 7.968-5.264 3.112 0 4.496 1.288 7.992 5.264C379.688 33.536 385.336 40 395.976 40c10.632 0 16.28-6.456 20.024-10.728 3.496-3.984 4.88-5.272 8-5.272 8.824 0 16 7.176 16 16v1.624c0 2.776-.728 5.52-2.112 7.936L411.36 96h-86.72l-26.536-46.44A16.042 16.042 0 01296 41.624zM86.92 475.192C80.152 483.336 70.176 488 59.584 488 39.96 488 24 472.04 24 452.416a35.462 35.462 0 0112.808-27.336l74.704-62.256 37.672 37.672-62.264 74.696zM152 380.688L131.312 360l18.824-18.824a137.084 137.084 0 0020.688 20.688L152 380.688zM136 256c0-66.168 53.832-120 120-120s120 53.832 120 120-53.832 120-120 120-120-53.832-120-120zm352-8c0 66.168-53.832 120-120 120-10.104 0-20.056-1.4-29.792-3.912C370.824 339.216 392 300.088 392 256c0-56.448-34.584-104.952-83.664-125.496L323.752 112h88.496l47.936 57.512C478.128 191.048 488 218.336 488 246.344V248z" fill="#BDBDBD"/><path d="M256 152c-57.344 0-104 46.656-104 104s46.656 104 104 104 104-46.656 104-104-46.656-104-104-104zm0 192c-48.52 0-88-39.48-88-88s39.48-88 88-88 88 39.48 88 88-39.48 88-88 88z" fill="#BDBDBD"/><path d="M312 248h16v16h-16v-16zm-128 0h16v16h-16v-16zM48 472a8 8 0 100-16 8 8 0 000 16zm227.888-160h21.168V209.76h-20.448v67.536l-44.64-67.536H210.8V312h20.448v-67.536L275.888 312z" fill="#BDBDBD"/><path stroke="#BDBDBD" stroke-width="13" d="M192 236.5h123m-123 27h123"/></svg>